<?xml version="1.0" encoding="utf-8"?>
<!-- Generator: Adobe Illustrator 22.0.0, SVG Export Plug-In . SVG Version: 6.00 Build 0)  -->
<svg version="1.1" xmlns="http://www.w3.org/2000/svg" xmlns:xlink="http://www.w3.org/1999/xlink" x="0px" y="0px"
	 viewBox="0 0 283.5 283.5" enable-background="new 0 0 283.5 283.5" xml:space="preserve">
<g id="Capa_1">
</g>
<g id="c3">
	<rect x="0.404" y="141.75" fill="#DEDEDE" width="94.488" height="141.732"/>
	<rect x="94.506" fill="#DEDEDE" width="94.488" height="141.732"/>
	<rect x="189.38" y="141.75" fill="#DEDEDE" width="94.488" height="141.732"/>
</g>
<g id="c6">
	<g>
		<path fill="#9D9FA2" d="M110.039,0.035c0,13.307,14.345,24.094,32.04,24.094c17.695,0,32.04-10.787,32.04-24.094H110.039z"/>
		<path fill="#9D9FA2" d="M268.606,283.5c0-13.307-14.345-24.094-32.04-24.094c-17.695,0-32.04,10.787-32.04,24.094H268.606z"/>
		<path fill="#9D9FA2" d="M79.63,283.5c0-13.307-14.345-24.094-32.04-24.094c-17.695,0-32.04,10.787-32.04,24.094H79.63z"/>
	</g>
</g>
<g id="c2">
	<path fill="#9D9FA2" d="M174.544,141.75v-13.738c0-13.307-14.345-24.094-32.04-24.094c-17.695,0-32.04,10.787-32.04,24.094v13.738
		H94.892v141.732h94.488V141.75H174.544z"/>
	<path fill="#9D9FA2" d="M0.404,0.018V141.75H15.24v13.738c0,13.307,14.345,24.094,32.04,24.094c17.695,0,32.04-10.787,32.04-24.094
		V141.75h15.573V0.018H0.404z"/>
	<path fill="#9D9FA2" d="M189.38,0.018V141.75h14.836v13.738c0,13.307,14.345,24.094,32.04,24.094
		c17.695,0,32.04-10.787,32.04-24.094V141.75h15.573V0.018H189.38z"/>
</g>
<g id="c1">
	<path fill="#353333" d="M210.758,283.482c0-9.59,11.581-17.363,25.866-17.363s25.866,7.774,25.866,17.363H210.758z"/>
	<path fill="#353333" d="M21.781,283.482c0-9.59,11.581-17.363,25.866-17.363s25.866,7.774,25.866,17.363H21.781z"/>
	<path fill="#353333" d="M168.738,0.018c0,9.59-11.581,17.364-25.866,17.364s-25.866-7.774-25.866-17.364H168.738z"/>
	<path fill="#353333" d="M142.872,110.649c-14.285,0-25.866,7.774-25.866,17.363v155.47h51.732v-155.47
		C168.738,118.423,157.158,110.649,142.872,110.649z"/>
	<path fill="#353333" d="M21.781,0.018v155.47c0,9.59,11.581,17.363,25.866,17.363c14.285,0,25.866-7.774,25.866-17.363V0.018
		H21.781z"/>
	<path fill="#353333" d="M210.758,0.018v155.47c0,9.59,11.581,17.363,25.866,17.363c14.285,0,25.866-7.774,25.866-17.363V0.018
		H210.758z"/>
</g>
</svg>
