<?xml version="1.0" encoding="utf-8"?>
<!-- Generator: Adobe Illustrator 22.0.0, SVG Export Plug-In . SVG Version: 6.00 Build 0)  -->
<svg version="1.1" xmlns="http://www.w3.org/2000/svg" xmlns:xlink="http://www.w3.org/1999/xlink" x="0px" y="0px"
	 viewBox="0 0 283.5 283.5" enable-background="new 0 0 283.5 283.5" xml:space="preserve">
<g id="Capa_1">
</g>
<g id="c3">
	<path fill="#353333" d="M0,141.75C0.01,63.483,63.435,0.037,141.676,0.028C140.911,77.961,77.908,140.985,0,141.75z"/>
</g>
<g id="c4">
	<path fill="#58585A" d="M283.406,141.75C283.396,63.483,219.971,0.037,141.73,0.028C142.495,77.961,205.498,140.985,283.406,141.75
		z"/>
</g>
<g id="c5">
	<path fill="#58585A" d="M0,141.75c0.01,78.267,63.435,141.713,141.676,141.723C140.911,205.539,77.908,142.515,0,141.75z"/>
</g>
<g id="c6">
	<path fill="#353333" d="M283.406,141.75c-0.01,78.267-63.435,141.713-141.676,141.723
		C142.495,205.539,205.498,142.515,283.406,141.75z"/>
</g>
<g id="c2">
	<path fill="#DEDEDE" d="M0.018,141.769c9.599-0.119,60.922-1.711,101.468-43.704c38.333-39.701,40.059-87.611,40.189-98.037
		c0.115,9.707,1.691,60.228,42.818,100.671c40.006,39.341,88.772,40.956,98.876,41.07c-11.298,0.165-56.631,2.129-95.324,37.672
		c-44.412,40.796-46.212,94.686-46.37,104.033c-0.13-10.419-1.849-58.306-40.195-98.014C60.933,143.473,9.614,141.887,0.018,141.769
		z"/>
</g>
<g id="c1">
	<path fill="#DEDEDE" d="M0.018,141.777C0.018,189.018,0,236.259,0,283.5c47.231,0,94.462,0,141.694,0
		c-12.982-0.378-53.602-3.212-90.044-33.987C3.539,208.886,0.392,151.395,0.018,141.777z"/>
	<path fill="#DEDEDE" d="M141.73,0.001c-47.231,0-94.481,0-141.712,0c0,47.247,0.037,94.476,0.037,141.723
		c0.303-10.253,2.825-60.413,44.158-100.533C83.535,3.022,130.791,0.34,141.73,0.001z"/>
	<path fill="#DEDEDE" d="M283.5,149.299c0-49.772,0-99.526,0-149.299c-47.231,0-94.445,0-141.676,0
		c9.997,0.277,61.34,2.775,101.673,47.477C280.614,88.615,283.186,137.539,283.5,149.299z"/>
	<path fill="#DEDEDE" d="M141.938,283.482c47.188,0,94.375,0.018,141.562,0.018c0-47.314,0.113-94.427,0.113-141.741
		c-0.335,9.997-3.219,62.801-47.205,103.296C198.23,280.205,153.794,283.085,141.938,283.482z"/>
</g>
</svg>
