<?xml version="1.0" encoding="utf-8"?>
<!-- Generator: Adobe Illustrator 22.0.0, SVG Export Plug-In . SVG Version: 6.00 Build 0)  -->
<svg version="1.1" xmlns="http://www.w3.org/2000/svg" xmlns:xlink="http://www.w3.org/1999/xlink" x="0px" y="0px"
	 viewBox="0 0 283.5 283.5" enable-background="new 0 0 283.5 283.5" xml:space="preserve">
<g id="Capa_1">
</g>
<g id="c4">
	<g>
		<path fill-rule="evenodd" clip-rule="evenodd" fill="#9D9FA2" d="M196.531,68.432c-2.952,3.371-14.967,17.519-21.661,38.861
			c-1.318,4.201-2.607,8.39-3.243,14.253c-0.35,3.227-1.769,18.652,6.339,36.073c1.424,3.06,3.368,6.186,7.249,12.279
			c6.593,10.351,14.918,22.252,17.931,26.523c2.71-5.179,8.064-8.748,14.314-8.748c8.951,0,16.215,7.256,16.215,16.215
			c0,3.545-1.17,6.801-3.107,9.478c4.517,1.709,7.741,6.04,7.741,11.153c0,3.428-1.729,6.876-4.314,9.477
			c-2.601,2.585-6.05,4.314-9.477,4.314c-5.113,0-9.445-3.224-11.153-7.742c-2.677,1.938-5.932,3.108-9.478,3.108
			c-8.959,0-16.215-7.265-16.215-16.216c0-6.25,3.569-11.604,8.748-14.314c-4.271-3.012-16.172-11.337-26.523-17.931
			c-6.094-3.882-9.22-5.826-12.28-7.249c-17.421-8.107-32.846-6.688-36.073-6.339c-5.862,0.636-10.051,1.925-14.252,3.243
			c-21.343,6.694-35.491,18.708-38.862,21.661c-3.317,2.905-17.952,16.096-28.03,38.945c-8.686,19.694-9.972,37.465-9.903,48.005
			c-2.585-0.01-5.17-0.02-7.755-0.029c0,0.01-0.001,0.02-0.001,0.03h260.74V30.499c-10.54-0.069-28.311,1.217-48.005,9.902
			C212.627,50.478,199.437,65.115,196.531,68.432z"/>
		<path fill-rule="evenodd" clip-rule="evenodd" fill="#9D9FA2" d="M283.443,20.156c0.013,3.448,0.026,6.895,0.039,10.343V20.151
			C283.469,20.153,283.456,20.154,283.443,20.156z"/>
	</g>
</g>
<g id="c3">
	<g>
		<path fill-rule="evenodd" clip-rule="evenodd" fill="#353333" d="M262.685,87.198c0,24.298,10.41,46.638,10.41,46.638
			s-8.535-11.368-32.61-11.368c-24.076,0-10.904,30.962-10.904,30.962h28.209c0,0,2.932,6.659-3.051,10.578
			c0,0-2.292,6.662,5.085,6.662c7.379,0,6.996-15.675,5.119-17.636h8.646v32.141c0,0-9.474,6.657-13.765,1.567
			c-4.292-5.098-11.43-3.532-13.321,1.566c-1.872,5.093,2.565,13.713,13.321,10.183c10.757-3.523,6.996,11.369,11.892,17.638
			c2.183,2.801,11.784,2.352,11.784,2.352V56.246C283.5,56.246,262.685,62.903,262.685,87.198z"/>
		<path fill-rule="evenodd" clip-rule="evenodd" fill="#353333" d="M122.55,240.405c0,24.075,11.369,32.609,11.369,32.609
			s-22.339-10.41-46.638-10.41c-24.295,0-30.952,20.815-30.952,20.815h162.233c0,0,0.449-9.601-2.352-11.784
			c-6.269-4.896-21.161-1.135-17.638-11.892c3.53-10.756-5.089-15.193-10.183-13.32c-5.098,1.89-6.664,9.028-1.566,13.32
			c5.09,4.291-1.566,13.765-1.566,13.765h-32.141v-8.646c1.961,1.877,17.636,2.26,17.636-5.12c0-7.377-6.662-5.085-6.662-5.085
			c-3.918,5.984-10.578,3.052-10.578,3.052V229.5C153.512,229.5,122.55,216.329,122.55,240.405z"/>
	</g>
</g>
<g id="c6">
	<path fill-rule="evenodd" clip-rule="evenodd" fill="#DEDEDE" d="M283.5,242.928c-9.361-0.24-15.985,2.501-19.272,4.161
		c-13.492,6.813-22.622,21.594-22.262,35.05c0.015,0.58,0.046,1.056,0.069,1.361h41.425
		C283.474,269.976,283.487,256.452,283.5,242.928z"/>
</g>
<g id="c2">
	<path fill-rule="evenodd" clip-rule="evenodd" fill="#353333" d="M111.694,73.018c10.035-0.377,5.404-16.592,5.404-16.592
		l9.267-0.393c0,0-3.861-9.645-4.636-12.354c-0.773-2.699,9.268-4.243,9.268-4.243c-4.633-3.089-5.792-11.2-5.792-11.2
		c6.177-23.168-8.108-23.94-8.108-23.94c1.157,15.446-16.988,20.851-25.095,22.393c-8.107,1.547-12.354,13.518-10.039,21.623
		c2.319,8.113-0.364,20.089-0.364,20.089c-3.471-1.937-24.345-21.635-24.345-21.635s9.265-20.847,0.771-30.115
		c-8.491-9.266-20.847-0.38-20.847-0.38S22.507,5.461,14.4,10.866c-0.653,0.435-1.318,0.991-1.933,1.601l0,0
		c-0.61,0.614-1.167,1.28-1.602,1.934c-5.405,8.107,5.406,22.779,5.406,22.779s-8.886,12.356,0.38,20.847
		c9.268,8.494,30.116-0.771,30.116-0.771S66.464,78.13,68.401,81.601c0,0-11.975,2.682-20.089,0.363
		c-8.104-2.315-20.076,1.932-21.623,10.039c-1.542,8.107-6.947,26.253-22.393,25.095c0,0,0.772,14.285,23.94,8.108
		c0,0,8.11,1.159,11.199,5.792c0,0,1.544-10.041,4.243-9.268c2.709,0.774,12.354,4.635,12.354,4.635l0.393-9.267
		c0,0,16.215,4.632,16.592-5.404c0.394-10.042-11.299-4.248-13.753-11.197c-2.461-6.948,7.972-17.735,15.316-12.33
		c7.329,5.404,58.484,64.298,58.484,64.298c-8.834,0.47-52.111,3.7-86.025,40.198c-34.8,37.452-34.033,82.269-33.726,90.77
		c5.735,0.022,11.47,0.044,17.204,0.066c-0.069-10.54,1.217-28.311,9.903-48.005c10.078-22.85,24.714-36.04,28.03-38.945
		c3.371-2.953,17.519-14.967,38.862-21.661c4.201-1.318,8.39-2.607,14.252-3.243c3.227-0.35,18.651-1.769,36.073,6.339
		c3.06,1.424,6.186,3.368,12.28,7.249c10.351,6.593,22.251,14.919,26.523,17.931c-5.179,2.71-8.748,8.064-8.748,14.314
		c0,8.951,7.256,16.215,16.215,16.215c3.546,0,6.801-1.17,9.478-3.108c1.708,4.517,6.04,7.742,11.153,7.742
		c3.427,0,6.876-1.729,9.477-4.314l0,0c2.585-2.601,4.314-6.049,4.314-9.477c0-5.113-3.224-9.445-7.741-11.153
		c1.937-2.677,3.107-5.933,3.107-9.478c0-8.959-7.264-16.215-16.215-16.215c-6.25,0-11.604,3.569-14.314,8.748
		c-3.012-4.271-11.338-16.172-17.931-26.523c-3.882-6.094-5.826-9.22-7.249-12.279c-8.108-17.421-6.689-32.846-6.339-36.073
		c0.636-5.863,1.925-10.052,3.243-14.253c6.694-21.343,18.708-35.491,21.661-38.862c2.905-3.317,16.096-17.953,38.946-28.03
		c19.695-8.686,37.465-9.972,48.005-9.903c-0.022-5.735-0.044-11.469-0.066-17.204c-8.502-0.308-53.319-1.074-90.771,33.726
		c-36.498,33.914-39.728,77.192-40.198,86.026c0,0-58.894-51.154-64.298-58.484c-5.405-7.344,5.382-17.777,12.33-15.315
		C107.445,61.719,101.652,73.412,111.694,73.018z"/>
</g>
<g id="c1">
	<path fill-rule="evenodd" clip-rule="evenodd" fill="#DEDEDE" d="M0.018,283.482h21.134c0-0.012,0-0.024,0-0.036
		c-2.619-0.01-5.238-0.02-7.857-0.03c-0.307-8.502-1.074-53.319,33.726-90.771c33.914-36.498,77.192-39.728,86.026-40.198
		c0,0-51.154-58.894-58.484-64.298c-7.344-5.405-17.777,5.382-15.316,12.33c2.454,6.948,14.147,1.155,13.753,11.196
		c-0.377,10.036-16.592,5.404-16.592,5.404l-0.393,9.267c0,0-9.645-3.861-12.354-4.635c-2.699-0.773-4.243,9.268-4.243,9.268
		c-3.089-4.632-11.199-5.791-11.199-5.791c-23.168,6.177-23.94-8.108-23.94-8.108c15.446,1.158,20.851-16.988,22.393-25.096
		c1.547-8.107,13.519-12.354,21.623-10.038c8.114,2.319,20.089-0.364,20.089-0.364c-1.937-3.471-21.634-24.345-21.634-24.345
		s-20.848,9.266-30.116,0.771c-9.266-8.491-0.38-20.847-0.38-20.847S5.443,22.489,10.848,14.382
		c0.435-0.653,0.992-1.319,1.602-1.934c0.614-0.61,1.28-1.166,1.933-1.602c8.107-5.404,22.779,5.406,22.779,5.406
		s12.356-8.886,20.847,0.38c8.494,9.268-0.771,30.115-0.771,30.115s20.874,19.698,24.345,21.635c0,0,2.683-11.976,0.364-20.089
		c-2.315-8.104,1.932-20.076,10.039-21.623c8.107-1.543,26.252-6.948,25.095-22.393c0,0,14.285,0.772,8.108,23.94
		c0,0,1.159,8.111,5.792,11.2c0,0-10.041,1.544-9.268,4.243c0.775,2.709,4.635,12.354,4.635,12.354l-9.267,0.393
		c0,0,4.632,16.215-5.404,16.593c-10.042,0.393-4.248-11.299-11.196-13.752c-6.948-2.461-17.735,7.971-12.33,15.315
		c5.404,7.33,64.298,58.484,64.298,58.484c0.47-8.834,3.7-52.112,40.198-86.026c37.452-34.8,82.269-34.033,90.771-33.726
		c0.007,1.783,0.013,3.566,0.02,5.349c0.015-0.001,0.031-0.002,0.045-0.002V0.018H0.018V283.482z"/>
</g>
<g id="c5">
	<path fill-rule="evenodd" clip-rule="evenodd" fill="#353333" d="M242.872,283.42c0.034-22.378,18.184-40.509,40.571-40.509v-8.559
		c-26.994,0.125-48.839,22.045-48.839,49.068H242.872z"/>
</g>
</svg>
