<?xml version="1.0" encoding="utf-8"?>
<!-- Generator: Adobe Illustrator 22.0.0, SVG Export Plug-In . SVG Version: 6.00 Build 0)  -->
<svg version="1.1" xmlns="http://www.w3.org/2000/svg" xmlns:xlink="http://www.w3.org/1999/xlink" x="0px" y="0px"
	 viewBox="0 0 283.5 283.5" enable-background="new 0 0 283.5 283.5" xml:space="preserve">
<g id="Capa_1">
</g>
<g id="c7">
	
		<rect x="66.603" y="66.585" transform="matrix(0.7071 -0.7071 0.7071 0.7071 -58.7096 141.7626)" fill="#DEDEDE" width="150.33" height="150.33"/>
</g>
<g id="c3">
	
		<rect x="45.829" y="137.469" transform="matrix(0.7071 -0.7071 0.7071 0.7071 -129.5934 112.4015)" fill="#616160" width="50.11" height="150.33"/>
</g>
<g id="c4">
	
		<rect x="137.438" y="187.54" transform="matrix(0.7071 -0.7071 0.7071 0.7071 -88.0577 212.6005)" fill="#616160" width="150.33" height="50.11"/>
</g>
<g id="c5">
	
		<rect x="187.579" y="-3.549" transform="matrix(0.7071 -0.7071 0.7071 0.7071 11.6388 171.3307)" fill="#616160" width="50.11" height="150.33"/>
</g>
<g id="c6">
	
		<rect x="-4.281" y="45.829" transform="matrix(0.7071 -0.7071 0.7071 0.7071 -29.3611 70.8839)" fill="#58585A" width="150.33" height="50.11"/>
</g>
<g id="c2">
	<g>
		<polygon fill="#353333" points="177.167,0.004 106.301,0.004 141.734,35.437 		"/>
		<polygon fill="#353333" points="106.301,283.469 177.167,283.469 141.734,248.036 		"/>
		<polygon fill="#353333" points="283.467,177.17 283.467,106.303 248.034,141.736 		"/>
		<polygon fill="#353333" points="0.002,106.303 0.002,177.17 35.435,141.736 		"/>
	</g>
</g>
<g id="c1">
	<g>
		<polygon fill="#DEDEDE" points="0.018,177.183 106.317,283.482 0.018,283.482 		"/>
		<polygon fill="#DEDEDE" points="106.317,0.018 0.018,106.317 0.018,0.018 		"/>
		<polygon fill="#DEDEDE" points="177.183,0.018 283.482,106.317 283.482,0.018 		"/>
		<polygon fill="#DEDEDE" points="177.183,283.482 283.482,177.183 283.482,283.482 		"/>
	</g>
</g>
</svg>
