<?xml version="1.0" encoding="utf-8"?>
<!-- Generator: Adobe Illustrator 22.0.0, SVG Export Plug-In . SVG Version: 6.00 Build 0)  -->
<svg version="1.1" xmlns="http://www.w3.org/2000/svg" xmlns:xlink="http://www.w3.org/1999/xlink" x="0px" y="0px"
	 viewBox="0 0 283.5 283.5" enable-background="new 0 0 283.5 283.5" xml:space="preserve">
<g id="Capa_1">
</g>
<g id="c7">
	<path fill="#DEDEDE" d="M283.458,12.333c-5.6,0.057-11.199,0.114-16.799,0.172v0l-0.004,0h-23.891
		c-1.599,7.242-4.618,17.506-10.396,28.333c-7.932,14.865-17.269,24.092-20.333,27c-14.044,13.33-28.279,19.195-33,21
		c-7.602,2.906-26.047,9.689-49,5.333c-13.376-2.538-22.231-7.71-33-14c-2.693-1.573-4.755-2.909-6.667-5.333
		c-6.74-8.548-6.294-23.881,2-33c1.319-1.45,5.99-6.432,13.667-7.333c10.411-1.223,17.472,6.1,18,6.667
		c4.93,5.29,5.517,11.461,5.667,13.333c0.768,9.594-4.812,16.3-6,17.667c0.762,0.147,9.04,1.597,15-4.333
		c3.993-3.973,4.554-8.88,4.667-10.333c4.988,6.797,12.792,10.455,20.333,9.333c5.92-0.88,9.805-4.426,11.333-6
		c-2.334-1.036-5.51-2.629-9-5c-2.131-1.448-8.93-6.277-15.667-15.667c-4.204-5.859-5.196-9.051-7.333-12.667
		c-7.004-11.849-22.801-22.317-40.333-22.667c-4.351-0.087-22.945,0.167-35.333,15c-7.03,8.417-8.794,17.617-9.333,22
		c-5.442-0.089-10.883-0.179-16.325-0.268c-0.263-0.201-0.533-0.414-0.794-0.613c0.003,0.2,0.007,0.4,0.01,0.6
		c-0.2-0.003-0.4-0.007-0.6-0.01c0.203,0.202,0.406,0.404,0.609,0.606c0.09,5.505,0.181,11.009,0.271,16.513
		c-4.383,0.54-13.583,2.303-22,9.333c-14.833,12.388-15.087,30.982-15,35.333c0.35,17.532,10.818,33.329,22.667,40.333
		c3.616,2.137,6.807,3.129,12.667,7.333c9.389,6.737,14.219,13.536,15.667,15.667c2.371,3.49,3.964,6.666,5,9
		c1.574-1.528,5.12-5.413,6-11.333c1.121-7.542-2.536-15.346-9.333-20.333c1.454-0.112,6.36-0.674,10.333-4.667
		c5.931-5.96,4.48-14.238,4.333-15c-1.366,1.188-8.072,6.768-17.667,6c-1.873-0.15-8.043-0.736-13.333-5.667
		c-0.567-0.528-7.89-7.589-6.667-18C34.775,98.99,39.757,94.319,41.207,93c9.119-8.294,24.452-8.74,33-2
		c2.425,1.912,3.76,3.974,5.333,6.667c6.29,10.769,11.462,19.624,14,33c4.355,22.953-2.427,41.398-5.333,49
		c-1.805,4.721-7.67,18.956-21,33c-2.908,3.064-12.135,12.401-27,20.333c-10.828,5.778-21.091,8.827-28.333,10.426v23.861l0,0.004h0
		V283.5H0L0,0l283.557,0.018L283.458,12.333z"/>
</g>
<g id="c4">
	<path fill="#353333" d="M0,0c0,20.283,0,43.342,0,63.625c2.355-0.814,5.344-2.313,6.963-5.25c2.325-4.217-0.157-7.422,2.157-10.517
		c2.692-3.601,7.617-1.252,11.865-4.599c2.131-1.679,4.285-4.944,4.478-11.884c-2.198,0.166-5.433,0.21-9.25-0.5
		c-4.07-0.756-6.254-1.162-7.916-2.967c-2.353-2.554-2.127-6.245-1.834-11.033c0.224-3.669,0.953-6.674,1.611-8.801
		c2.126-0.659,5.131-1.387,8.801-1.611c4.788-0.293,8.479-0.518,11.033,1.834c1.805,1.662,2.211,3.846,2.967,7.916
		c0.71,3.817,0.666,7.052,0.5,9.25c6.94-0.193,10.204-2.346,11.884-4.478c3.347-4.248,0.998-9.173,4.599-11.865
		c3.095-2.314,6.3,0.168,10.517-2.157C61.312,5.344,62.81,2.355,63.625,0C42.613,0,21.012,0,0,0z"/>
</g>
<g id="c6">
	<g>
		<path fill="#353333" d="M5.213,157.298c2.612,3.705,0.527,7.139,1.667,12.667c1.173,5.691,4.895,9.389,7.762,12.237
			c4.692,4.661,9.57,6.647,13.238,8.097c3.827,1.513,7.212,2.265,9.667,2.667c-0.67,2.498-2.346,7.33-6.667,11.667
			c-6.997,7.022-15.79,7.589-18,7.667c0.289,2.286,0.931,9.699-3.667,17c-3.062,4.863-7.061,7.473-9.213,8.667
			c0-28.111,0-56.222,0-84.333C1.61,154.187,3.752,155.225,5.213,157.298z"/>
		<path fill="#353333" d="M156.708,5.213c3.705,2.612,7.139,0.527,12.667,1.667c5.691,1.173,9.389,4.895,12.237,7.762
			c4.661,4.692,6.647,9.57,8.097,13.238c1.513,3.827,2.265,7.212,2.667,9.667c2.498-0.67,7.33-2.346,11.667-6.667
			c7.022-6.997,7.589-15.79,7.667-18c2.286,0.289,9.699,0.931,17-3.667c4.863-3.062,7.473-7.061,8.667-9.213
			c-28.111,0-56.222,0-84.333,0C153.597,1.61,154.635,3.752,156.708,5.213z"/>
	</g>
</g>
<g id="c1">
	<path fill="#9D9FA2" d="M283.5,70.221h-4.75c-22.114,45.22-68.547,76.376-122.277,76.376c-3.458,0-6.881-0.144-10.274-0.398
		c0.254,3.393,0.398,6.816,0.398,10.274c0,53.73-31.156,100.163-76.376,122.277l0,4.75H283.5V70.221z"/>
</g>
<g id="c5">
	<path fill="#353333" d="M242.806,12.505c-1.599,7.242-4.618,17.506-10.396,28.333c-7.932,14.865-17.269,24.092-20.333,27
		c-14.044,13.33-28.279,19.195-33,21c-7.602,2.906-26.047,9.689-49,5.333c-13.376-2.538-22.231-7.71-33-14
		c-2.693-1.573-4.755-2.909-6.667-5.333c-6.74-8.548-6.294-23.881,2-33c1.319-1.45,5.99-6.432,13.667-7.333
		c10.411-1.223,17.472,6.1,18,6.667c4.93,5.29,5.517,11.461,5.667,13.333c0.768,9.594-4.812,16.3-6,17.667
		c0.762,0.147,9.04,1.597,15-4.333c3.993-3.973,4.554-8.88,4.667-10.333c4.988,6.797,12.792,10.455,20.333,9.333
		c5.92-0.88,9.805-4.426,11.333-6c-2.334-1.036-5.51-2.629-9-5c-2.131-1.448-8.93-6.277-15.667-15.667
		c-4.204-5.859-5.196-9.051-7.333-12.667c-7.004-11.849-22.801-22.317-40.333-22.667c-4.351-0.087-22.945,0.167-35.333,15
		c-7.03,8.417-8.794,17.617-9.333,22c-5.442-0.089-10.883-0.179-16.325-0.268c-0.263-0.201-0.533-0.414-0.794-0.613
		c0.003,0.2,0.007,0.4,0.01,0.6c-0.2-0.003-0.4-0.007-0.6-0.01c0.203,0.202,0.406,0.404,0.609,0.606
		c0.09,5.505,0.181,11.009,0.271,16.513c-4.383,0.54-13.583,2.303-22,9.333c-14.833,12.388-15.087,30.982-15,35.333
		c0.35,17.532,10.818,33.329,22.667,40.333c3.616,2.137,6.807,3.129,12.667,7.333c9.389,6.737,14.219,13.536,15.667,15.667
		c2.371,3.49,3.964,6.666,5,9c1.574-1.528,5.12-5.413,6-11.333c1.121-7.542-2.536-15.346-9.333-20.333
		c1.454-0.112,6.36-0.674,10.333-4.667c5.931-5.96,4.48-14.238,4.333-15c-1.366,1.188-8.072,6.768-17.667,6
		c-1.873-0.15-8.043-0.736-13.333-5.667c-0.567-0.528-7.89-7.589-6.667-18C34.817,98.99,39.798,94.319,41.248,93
		c9.119-8.294,24.452-8.74,33-2c2.425,1.912,3.76,3.974,5.333,6.667c6.29,10.769,11.462,19.624,14,33
		c4.355,22.953-2.427,41.398-5.333,49c-1.805,4.721-7.67,18.956-21,33c-2.908,3.064-12.135,12.401-27,20.333
		c-10.828,5.778-21.091,8.827-28.333,10.426v23.861l0,0.004h0V283.5h28.333v-20.349c9.86-2.766,21.042-7.365,32.215-15.018
		c4.704-3.222,27.599-19.446,40.164-50.618c7.266-18.024,8.089-33.632,8.151-40.757c0.172-19.824-5.019-35.301-8.743-44.131
		c8.83,3.724,24.307,8.915,44.131,8.743c7.126-0.062,22.733-0.886,40.757-8.151c31.172-12.566,47.396-35.461,50.618-40.164
		c7.653-11.173,12.371-22.679,15.136-32.54c6.98-0.003,13.841,0.318,20.821,0.315c0-9.499,0-18.997,0-28.496
		c-5.6,0.057-11.199,0.114-16.799,0.172v0l-0.004,0H242.806"/>
</g>
<g id="c3">
	<path fill="#DEDEDE" d="M111.995,112.627c5.816,13.444,9.475,28.272,9.048,43.847c-1.399,51.058-34.204,93.704-80.837,106.678
		c0.102,6.744-0.102,13.606,0,20.349h29.972l0-4.75c45.22-22.114,76.376-68.547,76.376-122.277c0-3.458-0.144-6.881-0.398-10.274
		c3.393,0.254,6.816,0.398,10.274,0.398c53.73,0,100.163-31.156,122.277-76.376h4.75V40.829c-6.94-0.105-13.881-0.21-20.821-0.315
		c-12.974,46.633-55.534,79.864-106.206,80.571C141.878,121.288,124.721,117.739,111.995,112.627"/>
</g>
<g id="c2">
	<path fill="#353333" d="M283.557,284.147c0-58.611,0-118.051,0-176.662c-7.123,3.766-7.833,4.333-7.833,4.333
		c-3.97,3.172-5.098,7.893-6,11.667c-1.395,5.837-0.719,10.879,0,14c-2.014-0.322-4.525-0.463-7.333,0
		c-9.311,1.534-14.785,8.528-16.333,10.667c4.333,3.556,8.667,7.111,13,10.667c1.244,1.378,2.697,3.468,2.667,6
		c-0.036,3.033-2.183,5.085-4,7.333c-2.134,2.641-4.782,6.753-6.667,13c3.467,9.85,7.997,16.569,11.667,21
		c4.909,5.928,8.846,8.449,11.333,15.333c0.83,2.296,4.113,11.383-0.333,15.667c-3.371,3.248-9.518,2.128-13,0.667
		c-3.837-1.61-7.214-4.799-11-12.667c-2.961-6.154-7.097-17.092-7.333-32.667c-6.778-1-13.556-2-20.333-3
		c-0.111-8-0.222-16-0.333-24c-2.075-0.664-5.087-1.311-8.667-1c-8.994,0.78-14.589,6.998-16,8.667
		c-2.341-1.809-5.328-3.736-9-5.333c-9.415-4.095-18.216-3.794-23.317-3.141c-0.17-0.12-0.343-0.245-0.512-0.364
		c-0.021,0.14-0.041,0.296-0.062,0.443c-0.147,0.021-0.303,0.041-0.443,0.062c0.127,0.127,0.254,0.254,0.381,0.382
		c-0.665,5.079-1.007,13.95,3.123,23.447c1.597,3.672,3.524,6.659,5.333,9c-1.668,1.411-7.886,7.006-8.667,16
		c-0.311,3.58,0.336,6.592,1,8.667c8,0.111,16,0.222,24,0.333c1,6.778,2,13.556,3,20.333c15.574,0.236,26.513,4.372,32.667,7.333
		c7.867,3.786,11.057,7.163,12.667,11c1.461,3.482,2.581,9.629-0.667,13c-4.284,4.447-13.371,1.163-15.667,0.333
		c-6.884-2.488-9.405-6.424-15.333-11.333c-4.431-3.669-11.15-8.2-21-11.667c-6.247,1.885-10.359,4.532-13,6.667
		c-2.248,1.817-4.3,3.964-7.333,4c-2.532,0.03-4.622-1.423-6-2.667c-3.556-4.333-7.111-8.667-10.667-13
		c-2.139,1.548-9.133,7.022-10.667,16.333c-0.463,2.808-0.322,5.32,0,7.333c-3.121-0.719-8.163-1.395-14,0
		c-3.774,0.902-8.494,2.03-11.667,6c0,0-0.568,0.711-4.333,7.833H283.557z"/>
</g>
</svg>
