<?xml version="1.0" encoding="utf-8"?>
<!-- Generator: Adobe Illustrator 22.0.0, SVG Export Plug-In . SVG Version: 6.00 Build 0)  -->
<svg version="1.1" xmlns="http://www.w3.org/2000/svg" xmlns:xlink="http://www.w3.org/1999/xlink" x="0px" y="0px"
	 viewBox="0 0 283.5 283.5" enable-background="new 0 0 283.5 283.5" xml:space="preserve">
<g id="Capa_1">
</g>
<g id="c3">
	<g>
		<path fill="#DEDEDE" d="M141.732,141.732C141.732,63.456,205.188,0,283.465,0H0C78.277,0,141.732,63.456,141.732,141.732z"/>
		<path fill="#DEDEDE" d="M142.066,141.75c0,78.277-63.456,141.732-141.732,141.732h283.465
			C205.521,283.482,142.066,220.027,142.066,141.75z"/>
	</g>
</g>
<g id="c2">
	<path fill="#58585A" d="M141.75,141.75c0,78.277,63.456,141.732,141.732,141.732V0.018C205.206,0.018,141.75,63.473,141.75,141.75z
		"/>
</g>
<g id="c1">
	<path fill="#58585A" d="M141.732,141.75C141.732,63.473,78.277,0.018,0,0.018v283.465
		C78.277,283.482,141.732,220.027,141.732,141.75z"/>
</g>
</svg>
