<?xml version="1.0" encoding="utf-8"?>
<!-- Generator: Adobe Illustrator 22.0.0, SVG Export Plug-In . SVG Version: 6.00 Build 0)  -->
<svg version="1.1" xmlns="http://www.w3.org/2000/svg" xmlns:xlink="http://www.w3.org/1999/xlink" x="0px" y="0px"
	 viewBox="0 0 283.5 283.5" enable-background="new 0 0 283.5 283.5" xml:space="preserve">
<g id="Capa_1">
</g>
<g id="c7">
	<rect x="0.005" y="0.005" fill="#DEDEDE" width="283.5" height="283.5"/>
</g>
<g id="c5">
	<path fill="#6A6967" d="M283.58,283.505v-71.202c-39.138,0-70.866,31.678-70.866,70.754c0,0.15,0.01,0.298,0.011,0.448H283.58z"/>
	<path fill="none" d="M170.978,170.855"/>
	<path fill="none" d="M170.931,170.902"/>
</g>
<g id="c6">
	<path fill="#9D9FA2" d="M283.505,283.505h-56.679c0-31.257,25.375-56.596,56.679-56.603V283.505z"/>
</g>
<g id="c4">
	<g>
		<path fill="#6A6967" d="M205.014,268.09c4.099,0.805,6.829,4.06,6.829,7.415c0,4.418-4.897,7.999-10.938,7.999l-77.184,0
			c-11.157,0-20.201-6.95-20.201-15.523c0-8.573,9.044-15.523,20.201-15.523c0.998,0,1.979,0.056,2.938,0.163
			C152.779,257.747,178.895,262.964,205.014,268.09z"/>
		<path fill="#6A6967" d="M209.768,252.496c3.85,1.619,7.932,0.44,9.804-2.345c2.465-3.666,0.398-9.37-4.615-12.74L150.9,194.352
			c-9.259-6.224-20.643-5.502-25.426,1.614s-1.154,17.929,8.106,24.153c0.828,0.557,1.674,1.058,2.53,1.504
			C160.647,231.939,185.232,242.18,209.768,252.496z"/>
		<path fill="#6A6967" d="M239.241,216.865c2.312,3.479,1.919,7.709-0.465,10.07c-3.139,3.108-9.13,2.148-13.38-2.144
			l-54.306-54.847c-7.85-7.928-9.275-19.245-3.182-25.277c6.092-6.032,17.395-4.495,25.244,3.433
			c0.702,0.709,1.353,1.446,1.952,2.203C209.838,172.469,224.507,194.698,239.241,216.865z"/>
		<path fill="#6A6967" d="M252.923,209.575c1.598,3.859,5.328,5.893,8.617,5.231c4.331-0.872,6.875-6.379,5.683-12.301
			l-15.233-75.666c-2.202-10.937-10.8-18.432-19.205-16.74c-8.405,1.692-13.433,11.93-11.231,22.868
			c0.197,0.978,0.445,1.929,0.74,2.848C232.474,160.408,242.742,184.982,252.923,209.575z"/>
	</g>
	<path fill="none" d="M170.902,170.855"/>
	<path fill="none" d="M170.855,170.902"/>
</g>
<g id="c3">
	<g>
		<path fill="#353333" d="M209.601,252.558c3.856,1.627,5.867,5.511,5.181,8.965c-0.903,4.549-6.439,7.282-12.364,6.106
			l-75.705-15.035c-10.943-2.173-18.393-11.091-16.64-19.919c1.753-8.828,12.045-14.222,22.989-12.049
			c0.979,0.194,1.93,0.443,2.849,0.74C160.481,231.733,185.031,242.191,209.601,252.558z"/>
		<path fill="#353333" d="M217.043,238.757c3.478,2.328,7.828,1.875,10.338-0.597c3.304-3.254,2.547-9.381-1.691-13.685
			l-54.156-54.995c-7.828-7.949-19.373-9.275-25.786-2.96c-6.413,6.315-5.265,17.879,2.563,25.828c0.7,0.711,1.43,1.369,2.184,1.974
			C172.656,209.157,194.882,223.923,217.043,238.757z"/>
		<path fill="#353333" d="M253.207,209.332c1.572,3.878,0.244,8.046-2.686,10.001c-3.858,2.574-9.703,0.586-13.055-4.439
			l-42.834-64.208c-6.192-9.281-5.141-20.854,2.346-25.849c7.487-4.995,18.576-1.52,24.767,7.761c0.554,0.83,1.05,1.679,1.488,2.539
			C233.251,159.853,243.189,184.618,253.207,209.332z"/>
		<path fill="#353333" d="M267.333,205.032c0.856,4.096,4.281,6.817,7.803,6.807c4.638-0.013,8.384-4.92,8.367-10.96l0.002-77.156
			c-0.03-11.157-7.563-20.209-16.563-20.184c-9,0.024-16.271,9.089-16.241,20.246c0.003,0.998,0.064,1.979,0.179,2.938
			C256.333,152.826,261.88,178.928,267.333,205.032z"/>
	</g>
	<path fill="none" d="M170.902,170.855"/>
	<path fill="none" d="M170.855,170.902"/>
</g>
<g id="c2">
	<path fill="none" d="M170.902,170.855"/>
	<path fill="none" d="M170.855,170.902"/>
	<path fill="#6A6967" d="M14.577,14.577c30.876,0.14,61.799-0.099,92.675,0.041c5.303,2.295,15.45,7.607,23.296,18.667
		c2.441,3.44,7.654,10.974,8.986,22c0.431,3.569,1.142,10.083-1.664,17.667c-0.873,2.36-2.914,7.69-7.987,12.333
		c-8.085,7.399-18.039,7.718-20.967,7.704c0.267,1.665,0.784,3.802,1.831,6.13c0.684,1.522,1.448,2.799,2.163,3.833
		c3.328,3.889,6.656,7.778,9.984,11.667c0.264-1.772,0.817-3.993,1.997-6.333c3.283-6.513,9.115-9.386,11.315-10.333
		c1.18,0.878,3.268,2.683,4.659,5.667c2.818,6.041,0.389,11.786,0,12.667c-2.324,5.256-6.805,7.462-7.987,8
		c4.45,4.457,8.9,8.914,13.35,13.371c-0.318-2.578-0.904-10.135,3.623-17.704c6.694-11.192,18.974-13.06,20.651-13.287
		c-2.976-1.188-7.616-3.517-11.665-8.046c-6.527-7.3-7.436-15.745-8.149-22.366c-0.48-4.459-1.599-16.212,4.155-29.301
		c9.323-21.209,29.241-28.978,33.415-30.493c25.006-9.08,46.456,2.37,49.149,3.866c26.214,14.566,30.075,42.981,30.418,45.876
		c0,1.89,0,3.78,0,5.67c0,5.584,0,11.168,0,16.753c-2.531-0.022-6.149,0.02-10.477,0.328c-16.732,1.192-28.831,5.403-40.602,9.333
		c0,0-16.737,5.699-36.609,17c-2.913,1.656-10.581,7.24-15.448,14.279c-2.902,4.881-4.598,10.713-4.598,16.957
		c0,8.165,3.818,15.015,8.535,20.582c-5.567-4.718-13.94-7.012-22.106-7.012c-6.244,0-12.077,1.695-16.957,4.598
		c-7.04,4.867-12.623,12.535-14.279,15.448c-11.301,19.871-17,36.609-17,36.609c-3.93,11.771-8.141,23.87-9.333,40.602
		c-0.308,4.328-0.35,7.946-0.328,10.477c-5.584,0-11.168,0-16.753,0c-1.89,0-3.78,0-5.67,0c-2.895-0.342-31.31-4.204-45.876-30.418
		c-1.496-2.693-12.946-24.143-3.866-49.149c1.515-4.173,9.284-24.091,30.493-33.415c13.089-5.754,24.841-4.635,29.301-4.155
		c6.621,0.713,15.066,1.622,22.366,8.149c4.529,4.05,6.858,8.689,8.046,11.665c0.227-1.678,2.095-13.957,13.287-20.651
		c7.569-4.527,15.126-3.941,17.704-3.623c-4.457-4.45-8.914-8.9-13.371-13.35c-0.537,1.182-2.744,5.663-8,7.987
		c-0.881,0.389-6.626,2.818-12.667,0c-2.983-1.391-4.789-3.479-5.667-4.659c0.947-2.2,3.82-8.032,10.333-11.315
		c2.341-1.18,4.561-1.733,6.333-1.997c-3.889-3.328-7.778-6.656-11.667-9.984c-1.035-0.715-2.312-1.479-3.833-2.163
		c-2.327-1.047-4.465-1.564-6.13-1.831c0.015,2.929-0.304,12.883-7.704,20.967c-4.643,5.074-9.973,7.114-12.333,7.987
		c-7.584,2.806-14.098,2.095-17.667,1.664c-11.026-1.332-18.56-6.545-22-8.986c-11.06-7.847-16.372-17.994-18.667-23.296
		C14.477,76.376,14.717,45.453,14.577,14.577z"/>
</g>
<g id="c1">
	<path fill="none" d="M170.902,170.855"/>
	<path fill="none" d="M170.855,170.902"/>
	<g>
		<path fill="#353333" d="M92.117,193.781c0.176,0.702,0.367,1.74,0.333,2.995c0,0-0.058,2.163-1,4.326
			c-1.877,4.309-9.933,9.375-15.167,15.808c-1.878,2.308-5.702,7.132-6.333,13.978c-0.191,2.075-0.55,6.591,2.167,10.983
			c1.347,2.178,2.979,3.581,4.083,4.389c0.306,0.295,1.511,1.523,1.584,3.432c0.041,1.059-0.284,1.886-0.5,2.33
			c-0.924,0.111-2.203,0.151-3.667-0.166c-2.941-0.637-4.845-2.329-5.667-3.162c-1.038-1.188-2.523-3.132-3.667-5.824
			c-2.921-6.874-1.377-13.337-0.667-16.308c0.572-2.392,1.76-6.119,4.434-10.193c-2.793,0.863-6.964,1.868-12.101,2.04
			c-4.926,0.165-9.663,0.324-14.667-2.33c-1.713-0.909-6.41-3.399-8.667-8.819c-2.607-6.26-0.904-13.894,2.833-16.807
			c0.623-0.486,2.069-1.613,4.167-1.664c1.85-0.045,3.24,0.767,3.833,1.165c0.194,0.978,0.293,2.349-0.333,3.661
			c-0.867,1.814-2.361,1.921-3.333,3.162c-1.951,2.49-0.551,7.954,2.333,10.983c0.736,0.772,3.554,3.435,11.833,3.328
			c11.411-0.148,20.616-5.502,26.14-9.606c-1.769,0.397-4.863,0.837-8.474-0.046c-1.685-0.412-9.006-2.464-12.167-9.818
			c-3.543-8.244,1.336-15.658,1.667-16.141c0.884-1.294,4.716-6.51,11.5-7.155c1.003-0.095,6.7-0.637,11,3.494
			c2.264,2.175,3.146,4.69,3.5,5.991c0.518,2.354-1.028,4.44-2.833,4.659c-1.336,0.162-2.783-0.702-3.5-2.163
			c-0.168-0.59-0.782-2.461-2.667-3.827c-2.002-1.451-4.1-1.363-4.667-1.331c-3.123,0.178-5.063,2.326-5.667,2.995
			c-2.705,2.996-2.553,6.721-2.5,7.655c0.033,0.584,0.348,4.943,3.833,7.821c2.643,2.182,5.603,2.231,9.833,2.33
			C81.91,196.014,86.57,195.749,92.117,193.781z"/>
		<path fill="#353333" d="M193.864,92.196c0.703,0.176,1.743,0.366,3,0.333c0,0,2.166-0.058,4.333-0.998
			c4.316-1.874,9.39-9.917,15.833-15.143c2.312-1.875,7.144-5.693,14-6.323c2.078-0.191,6.602-0.549,11,2.163
			c2.181,1.345,3.587,2.975,4.396,4.076c0.295,0.306,1.526,1.508,3.437,1.581c1.061,0.041,1.889-0.283,2.333-0.499
			c0.111-0.922,0.151-2.199-0.167-3.661c-0.638-2.936-2.333-4.838-3.167-5.658c-1.189-1.037-3.137-2.519-5.833-3.661
			c-6.885-2.916-13.358-1.374-16.333-0.666c-2.396,0.571-6.129,1.757-10.21,4.427c0.865-2.789,1.87-6.953,2.043-12.082
			c0.165-4.919,0.324-9.648-2.333-14.643c-0.91-1.711-3.404-6.4-8.833-8.653c-6.27-2.603-13.916-0.902-16.833,2.829
			c-0.486,0.622-1.616,2.066-1.667,4.16c-0.045,1.847,0.768,3.235,1.167,3.827c0.98,0.194,2.353,0.293,3.667-0.333
			c1.816-0.865,1.924-2.358,3.167-3.328c2.494-1.948,7.966-0.55,11,2.33c0.774,0.734,3.441,3.549,3.333,11.815
			c-0.148,11.393-5.511,20.583-9.621,26.099c0.397-1.766,0.839-4.856-0.046-8.46c-0.413-1.683-2.468-8.992-9.833-12.147
			c-8.257-3.537-15.682,1.334-16.167,1.664c-1.296,0.882-6.52,4.708-7.167,11.482c-0.096,1.002-0.638,6.689,3.5,10.983
			c2.179,2.261,4.697,3.141,6,3.494c2.358,0.517,4.447-1.026,4.667-2.829c0.162-1.334-0.704-2.779-2.167-3.494
			c-0.591-0.168-2.465-0.781-3.833-2.662c-1.453-1.998-1.366-4.094-1.333-4.659c0.178-3.118,2.33-5.055,3-5.658
			c3.001-2.701,6.732-2.549,7.667-2.496c0.584,0.033,4.951,0.347,7.833,3.827c2.186,2.639,2.234,5.595,2.333,9.818
			C196.1,82.005,195.835,86.658,193.864,92.196z"/>
		<path fill="#353333" d="M64.864,39.28c-2.672,3.775-2.971,7.635-3.167,10.151c-0.262,3.375,0.216,6.163,0.667,7.987
			c-7.889-8.043-15.778-16.086-23.667-24.128C38.391,33,36.534,31.3,34.03,31.625c-0.702,0.091-1.283,0.319-1.728,0.554
			c-0.027-0.027-0.053-0.053-0.08-0.079c-0.035,0.055-0.072,0.125-0.108,0.188c-0.062,0.036-0.132,0.073-0.188,0.108
			c0.027,0.027,0.053,0.053,0.08,0.08c-0.235,0.445-0.464,1.025-0.555,1.725c-0.326,2.499,1.378,4.354,1.667,4.659
			c8.056,7.876,16.111,15.753,24.167,23.629c-1.827-0.45-4.62-0.927-8-0.666c-2.52,0.195-6.385,0.494-10.167,3.162
			c-0.485,0.342-4.795,3.472-6.167,8.819c-0.373,1.455-0.894,3.615,0.333,5.158c0.654,0.823,1.568,1.172,2.167,1.331
			c0.872-0.052,2.105-0.273,3-1.165c1.145-1.141,1.028-2.672,1.301-3.947c0.357-1.667,1.598-3.921,5.699-6.203
			c2.796-0.501,7.929-1.018,13.833,0.832c3.383,1.06,6.004,2.578,7.835,3.858c2.271,2.2,4.543,4.4,6.814,6.6
			c-1.619,0.14-3.917,0.388-6.65,0.858c-5.37,0.923-8.161,1.402-11,2.829c-6.322,3.176-9.129,9.117-9.833,10.65
			c-1.099,2.39-3.202,6.964-1.874,12.656c0.32,1.373,1.662,7.119,7.207,10.308c7.109,4.088,14.521,0.172,14.833,0
			c3.606-1.983,5.435-4.952,6.167-6.323c0.2-0.25,0.824-1.091,0.833-2.33c0.008-1.104-0.476-1.886-0.667-2.163
			c-0.213-0.14-1.045-0.652-2.167-0.499c-1.336,0.182-2.05,1.164-2.167,1.331c-0.243,0.39-2.289,3.552-6.333,3.994
			c-0.379,0.041-4.057,0.381-6.833-2.33c-2.761-2.697-2.555-6.351-2.5-7.322c0.289-5.071,4.266-8.377,6-9.818
			c8.543-7.102,20.703-4.697,23.167-4.16c2.425,0.67,4.85,1.34,7.275,2.01c0.285,0.285,0.57,0.571,0.855,0.857
			c-0.062-0.224-0.124-0.448-0.186-0.672c0.224,0.062,0.449,0.124,0.673,0.186c-0.286-0.285-0.572-0.569-0.858-0.854
			c-0.671-2.421-1.342-4.842-2.013-7.264c-0.537-2.46-2.946-14.6,4.167-23.13c1.443-1.731,4.755-5.702,9.833-5.991
			c0.972-0.055,4.632-0.261,7.333,2.496c2.715,2.771,2.375,6.444,2.333,6.823c-0.442,4.038-3.609,6.081-4,6.323
			c-0.167,0.117-1.151,0.83-1.333,2.163c-0.153,1.12,0.359,1.95,0.5,2.163c0.277,0.19,1.061,0.674,2.167,0.666
			c1.241-0.01,2.083-0.632,2.333-0.832c1.374-0.73,4.347-2.556,6.333-6.157c0.172-0.312,4.094-7.712,0-14.81
			c-3.194-5.536-8.95-6.876-10.324-7.196c-5.701-1.326-10.282,0.774-12.676,1.871c-1.535,0.704-7.485,3.505-10.667,9.818
			c-1.429,2.835-1.909,5.621-2.833,10.983c-0.47,2.728-0.719,5.023-0.859,6.639c-2.203-2.268-4.407-4.536-6.611-6.803
			c-1.281-1.829-2.802-4.446-3.864-7.823c-1.853-5.895-1.336-11.02-0.833-13.811c2.286-4.094,4.543-5.334,6.213-5.69
			c1.278-0.272,2.811-0.156,3.954-1.299c0.893-0.894,1.114-2.125,1.167-2.995c-0.16-0.598-0.509-1.51-1.333-2.163
			c-1.546-1.225-3.709-0.705-5.167-0.333C68.342,34.492,65.206,38.796,64.864,39.28z"/>
	</g>
</g>
<g id="C8">
	<g>
		<path fill="#6A6967" d="M49.262,283.5c-5.828-1.567-17.145-5.445-27.917-15.291c-9.956-9.1-14.787-19.041-16.998-24.554
			c-0.75-2.051-1.474-4.281-2.13-6.682c-0.953-3.49-1.603-6.762-2.046-9.734C0.115,245.992,0.057,264.746,0,283.5
			C16.421,283.5,32.841,283.5,49.262,283.5z"/>
		<path fill="#6A6967" d="M283.5,49.184c-1.569-5.819-5.454-17.118-15.316-27.873c-9.115-9.94-19.071-14.764-24.593-16.971
			c-2.054-0.748-4.288-1.472-6.693-2.126c-3.496-0.952-6.772-1.601-9.749-2.042C245.933,0.115,264.717,0.057,283.5,0
			C283.5,16.395,283.5,32.789,283.5,49.184z"/>
	</g>
</g>
<g id="c9">
	<path fill="#353333" d="M0.005,181.884c2.659-5.504,6.716-12.512,12.845-19.719c5.432-6.386,10.941-11.106,15.5-14.477
		c-9.417-8.57-18.929-17.14-28.345-25.709C-0.027,141.947,0.036,161.915,0.005,181.884z"/>
	<path fill="#353333" d="M181.884,0.005c-5.504,2.659-12.512,6.716-19.719,12.845c-6.386,5.432-11.106,10.941-14.477,15.5
		c-8.57-9.417-17.14-18.929-25.709-28.345C141.947-0.027,161.915,0.036,181.884,0.005z"/>
</g>
<g id="c10">
	<polygon fill="#353333" points="0.005,0.005 0.005,122.216 14.577,107.644 14.577,14.577 	"/>
</g>
<g id="c11">
	<polygon fill="#9D9FA2" points="122.212,0 0,0 14.572,14.572 107.64,14.572 	"/>
</g>
</svg>
