<?xml version="1.0" encoding="utf-8"?>
<!-- Generator: Adobe Illustrator 22.0.0, SVG Export Plug-In . SVG Version: 6.00 Build 0)  -->
<svg version="1.1" xmlns="http://www.w3.org/2000/svg" xmlns:xlink="http://www.w3.org/1999/xlink" x="0px" y="0px"
	 viewBox="0 0 283.5 283.5" enable-background="new 0 0 283.5 283.5" xml:space="preserve">
<g id="Capa_1">
</g>
<g id="c4">
	<polygon fill-rule="evenodd" clip-rule="evenodd" fill="#DEDEDE" points="70.884,141.75 70.884,141.75 141.751,99.231 
		212.616,141.75 283.482,99.231 283.482,184.269 212.616,141.75 141.751,184.269 70.884,141.75 0.018,99.231 0.018,184.269 
		70.884,141.75 	"/>
</g>
<g id="c3">
	<g>
		<polygon fill-rule="evenodd" clip-rule="evenodd" fill="#DEDEDE" points="0.018,283.482 70.884,240.962 141.751,283.482 
			0.018,283.482 		"/>
		<polygon fill-rule="evenodd" clip-rule="evenodd" fill="#DEDEDE" points="141.751,283.482 141.751,283.482 283.482,283.482 
			212.616,240.962 141.751,283.482 		"/>
		<polygon fill-rule="evenodd" clip-rule="evenodd" fill="#DEDEDE" points="0.018,0.018 0.018,0.018 70.884,42.538 141.751,0.018 
			0.018,0.018 		"/>
		<polygon fill-rule="evenodd" clip-rule="evenodd" fill="#DEDEDE" points="141.751,0.018 141.751,0.018 283.482,0.018 
			212.616,42.538 		"/>
	</g>
</g>
<g id="c2">
	<g>
		<polygon fill-rule="evenodd" clip-rule="evenodd" fill="#9D9FA2" points="212.616,42.538 212.616,141.75 283.482,99.231 
			283.482,0.018 212.616,42.538 		"/>
		<polygon fill-rule="evenodd" clip-rule="evenodd" fill="#9D9FA2" points="141.751,184.269 141.751,184.269 212.616,141.75 
			212.616,240.962 141.751,283.482 141.751,184.269 		"/>
		<polygon fill-rule="evenodd" clip-rule="evenodd" fill="#9D9FA2" points="70.884,42.538 70.884,42.538 70.884,141.75 
			141.751,99.231 141.751,0.018 70.884,42.538 		"/>
		<polygon fill-rule="evenodd" clip-rule="evenodd" fill="#9D9FA2" points="70.884,141.75 70.884,141.75 70.884,240.962 
			0.018,283.482 0.018,184.269 		"/>
	</g>
</g>
<g id="c1">
	<g>
		<polygon fill-rule="evenodd" clip-rule="evenodd" fill="#353333" points="141.751,0.018 212.616,42.538 212.616,141.75 
			141.751,99.231 141.751,0.018 		"/>
		<polygon fill-rule="evenodd" clip-rule="evenodd" fill="#353333" points="70.884,141.75 70.884,141.75 70.884,240.962 
			141.751,283.482 141.751,184.269 70.884,141.75 		"/>
		<polygon fill-rule="evenodd" clip-rule="evenodd" fill="#353333" points="212.616,141.75 212.616,141.75 212.616,240.962 
			283.482,283.482 283.482,184.269 212.616,141.75 		"/>
		<polygon fill-rule="evenodd" clip-rule="evenodd" fill="#353333" points="0.018,0.018 0.018,0.018 70.884,42.538 70.884,141.75 
			0.018,99.231 		"/>
	</g>
</g>
</svg>
