<?xml version="1.0" encoding="utf-8"?>
<!-- Generator: Adobe Illustrator 22.0.0, SVG Export Plug-In . SVG Version: 6.00 Build 0)  -->
<svg version="1.1" xmlns="http://www.w3.org/2000/svg" xmlns:xlink="http://www.w3.org/1999/xlink" x="0px" y="0px"
	 viewBox="0 0 283.5 283.5" enable-background="new 0 0 283.5 283.5" xml:space="preserve">
<g id="Capa_1">
</g>
<g id="c8">
	<rect x="0.018" y="0.018" fill="#6A6967" width="283.465" height="283.465"/>
</g>
<g id="c1">
	<rect x="21.144" y="21.545" fill="#9D9FA2" width="241.212" height="240.411"/>
</g>
<g id="c6">
	<circle fill="#6A6967" cx="141.76" cy="141.75" r="109.935"/>
</g>
<g id="c11">
	<circle fill="#9D9FA2" cx="141.391" cy="141.791" r="95.762"/>
</g>
<g id="c10">
	<path fill="#6A6967" d="M142.264,187.778c-5.11,13.924-18.485,23.858-34.18,23.858c-20.102,0-36.398-16.296-36.398-36.398
		c0-15.633,9.855-28.963,23.691-34.119l0.354-0.129c-14.108-5.013-24.21-18.48-24.21-34.307c0-20.102,16.296-36.398,36.398-36.398
		c15.695,0,29.07,9.934,34.18,23.857l0.125-0.337c5.201-13.746,18.486-23.52,34.055-23.52c20.102,0,36.398,16.296,36.398,36.398
		c0,15.695-9.934,29.07-23.857,34.18l-0.051,0.117c14.036,5.051,24.073,18.483,24.073,34.259c0,20.102-16.296,36.398-36.398,36.398
		C160.748,211.636,147.373,201.702,142.264,187.778"/>
</g>
<g id="c9">
	<circle fill="#9D9FA2" cx="142.007" cy="141.545" r="17.624"/>
</g>
</svg>
