<?xml version="1.0" encoding="utf-8"?>
<!-- Generator: Adobe Illustrator 22.0.0, SVG Export Plug-In . SVG Version: 6.00 Build 0)  -->
<svg version="1.1" xmlns="http://www.w3.org/2000/svg" xmlns:xlink="http://www.w3.org/1999/xlink" x="0px" y="0px"
	 viewBox="0 0 283.5 283.5" enable-background="new 0 0 283.5 283.5" xml:space="preserve">
<g id="c1">
	<polygon fill="#6A6967" points="283.482,236.236 283.482,188.997 283.482,141.75 236.238,141.75 236.238,188.997 188.994,188.997 
		188.994,236.236 141.75,236.236 141.75,283.482 188.994,283.482 236.238,283.482 283.482,283.482 	"/>
</g>
<g id="c2">
	<polygon fill="#DEDEDE" points="141.753,236.233 188.995,236.233 188.995,188.992 236.236,188.992 236.236,141.743 
		283.478,141.743 283.478,94.501 283.478,47.259 236.236,47.259 236.236,94.501 188.995,94.501 188.995,141.743 141.753,141.743 
		141.753,188.992 94.504,188.992 94.504,236.233 47.27,236.233 47.27,283.482 94.504,283.482 141.753,283.482 	"/>
</g>
<g id="c3">
	<polygon fill="#6A6967" points="47.267,236.233 94.508,236.233 94.508,188.992 141.75,188.992 141.75,141.743 188.999,141.743 
		188.999,94.501 236.241,94.501 236.241,47.259 283.482,47.259 283.482,0.018 236.241,0.018 188.999,0.018 188.999,47.259 
		141.75,47.259 141.75,94.501 94.508,94.501 94.508,141.743 47.267,141.743 47.267,188.992 0.018,188.992 0.018,236.233 
		0.018,283.482 47.267,283.482 	"/>
</g>
<g id="c4">
	<polygon fill="#DEDEDE" points="47.267,141.745 94.508,141.745 94.508,94.503 141.75,94.503 141.75,47.262 188.999,47.262 
		188.999,0.02 141.75,0.02 94.508,0.02 94.508,47.262 47.267,47.262 47.267,94.503 0.018,94.503 0.018,141.745 0.018,188.994 
		47.267,188.994 	"/>
</g>
<g id="c5">
	<polygon fill="#6A6967" points="0.018,94.503 47.267,94.503 47.267,47.262 94.508,47.262 94.508,0.02 0.018,0.018 	"/>
</g>
</svg>
