<?xml version="1.0" encoding="utf-8"?>
<!-- Generator: Adobe Illustrator 22.0.0, SVG Export Plug-In . SVG Version: 6.00 Build 0)  -->
<svg version="1.1" xmlns="http://www.w3.org/2000/svg" xmlns:xlink="http://www.w3.org/1999/xlink" x="0px" y="0px"
	 viewBox="0 0 283.5 283.5" enable-background="new 0 0 283.5 283.5" xml:space="preserve">
<g id="c1">
	<rect x="0.018" y="0" fill="#DEDEDE" width="283.465" height="283.465"/>
</g>
<g id="c2">
	
		<rect x="0.018" y="0.018" transform="matrix(-1 -3.656079e-13 3.656079e-13 -1 92.1614 177.2008)" fill="#6A6967" width="92.126" height="177.165"/>
</g>
<g id="c3">
	
		<rect x="148.837" y="-42.502" transform="matrix(-3.942900e-13 -1 1 -3.942900e-13 148.8189 240.9803)" fill="#9D9FA2" width="92.126" height="177.165"/>
</g>
<g id="c4">
	<rect x="191.356" y="106.317" fill="#6A6967" width="92.126" height="177.165"/>
</g>
<g id="c5">
	
		<rect x="42.537" y="148.837" transform="matrix(-1.836970e-16 1 -1 -1.836970e-16 326.0197 148.8189)" fill="#9D9FA2" width="92.126" height="177.165"/>
</g>
<g id="c6">
	<rect x="106.317" y="106.317" fill="#9D9FA2" width="70.866" height="70.866"/>
</g>
<g id="c7">
	<path fill="#6A6967" d="M141.752,122.685c-2.153-5.437-7.458-9.282-13.661-9.282c-8.112,0-14.688,6.576-14.688,14.687
		c0,6.203,3.846,11.509,9.283,13.661l0.002-0.006c-5.439,2.152-9.286,7.458-9.286,13.662c0,8.112,6.576,14.688,14.688,14.688
		c6.203,0,11.508-3.846,13.661-9.283l-0.004,0.002c2.153,5.437,7.458,9.282,13.661,9.282c8.112,0,14.688-6.576,14.688-14.688
		c0-6.201-3.843-11.505-9.277-13.659c5.434-2.154,9.277-7.458,9.277-13.659c0-8.112-6.576-14.687-14.688-14.687
		c-6.202,0-11.507,3.845-13.66,9.281"/>
</g>
<g id="c8">
	<circle fill="#9D9FA2" cx="141.75" cy="142.438" r="7.087"/>
</g>
</svg>
