<?xml version="1.0" encoding="utf-8"?>
<!-- Generator: Adobe Illustrator 22.0.0, SVG Export Plug-In . SVG Version: 6.00 Build 0)  -->
<svg version="1.1" xmlns="http://www.w3.org/2000/svg" xmlns:xlink="http://www.w3.org/1999/xlink" x="0px" y="0px"
	 viewBox="0 0 283.5 283.5" enable-background="new 0 0 283.5 283.5" xml:space="preserve">
<g id="c1">
	<rect x="85.041" y="85.332" fill="#DCD9D5" width="198.425" height="198.132"/>
</g>
<g id="c6">
	<path fill="#6A6967" d="M283.506,192.79c-5.766,0.054-41.904,0.997-67.967,30.954c-21.084,24.233-22.14,52.012-22.184,59.534
		h90.151V192.79z"/>
</g>
<g id="c5">
	<path fill="#6A6967" d="M-393.646,679.326h-90.276"/>
	<path fill="#DCD9D5" d="M283.498,207.101c0.003,25.458,0.005,50.917,0.008,76.375c-25.331,0-50.662,0-75.992,0
		c0.131-6.567,1.391-29.656,19.032-49.906C248.408,208.475,278.454,207.227,283.498,207.101z"/>
</g>
<g id="c3">
	<path fill="#6A6967" d="M283.494,226.966c-0.003,18.844-0.006,37.687-0.009,56.531c-18.748-0.01-37.5,0.01-56.249,0
		c-0.044-3.92,0.147-23.306,15.334-39.292C258.878,227.041,279.969,226.926,283.494,226.966z"/>
</g>
<g id="c2">
	<path fill="#DCD9D5" d="M283.494,283.5c-7.672,0-15.344,0-23.016,0c-1.609-1.203-4.665-3.864-6.347-8.338
		c-0.295-0.783-3.104-8.656,1.328-15.675c1.722-2.727,3.825-4.176,4.314-4.502c7.043-4.702,15.385-1.238,15.929-1.001
		c4.189,1.826,6.627,4.898,7.78,6.629C283.486,268.242,283.49,275.871,283.494,283.5z"/>
</g>
<g id="c7">
	<path fill="#6A6967" d="M211.089,211.011c-0.208-4.812-0.463-10.474-0.672-15.287c0.339-1.114,0.991-2.914,2.251-4.854
		c3.185-4.902,6.857-5.464,8.88-9.334c0.807-1.544,1.613-4.113,0.834-8.214c-12.08,2.032-21.726,0.556-27.348-0.747
		c-6.973-1.615-18.413-4.266-27.682-14.188c-2.486-2.662-9.423-10.297-10.339-21.531c-0.293-3.599-0.723-9.031,2.668-13.649
		c4.939-6.724,14.406-6.84,18.218-6.887c9.079-0.111,15.704,3.715,20.261,6.347c7.571,4.373,12.122,9.512,18.01,16.179
		c5.247,5.941,8.454,10.855,9.547,12.57c1.028,1.614,4.057,6.475,7.087,13.317c1.602,3.617,2.764,6.792,3.585,9.251
		c1.499-0.917,3.86-2.665,5.67-5.642c0.821-1.351,2.894-4.76,2.335-9.293c-0.349-2.83-1.576-4.893-2.335-5.974
		c1.862,0.726,6.011,2.043,11.006,0.996c5.005-1.049,8.08-3.888,10.339-5.974c5.145-4.75,7.103-10.071,8.004-12.612
		c1.386-3.908,2.939-8.287,1.334-13.275c-0.784-2.436-2.062-4.211-3.002-5.31c-1.99,3.639-6.021,9.641-13.341,13.939
		c-0.939,0.551-15.775,8.981-29.016,2.987c-2.491-1.128-5.535-3.774-11.673-8.961c-4.519-3.819-5.79-5.333-10.422-8.919
		c-3.968-3.072-6.3-4.857-9.922-6.679c-4.813-2.421-8.889-3.389-11.089-3.9c-2.54-0.59-6.824-1.554-12.507-1.369
		c-2.974,0.097-7.846,0.298-13.507,2.614c-4.68,1.914-8.062,4.521-9.922,5.974c-1.44,1.125-2.674,2.182-5.003,4.314
		c-1.542,1.412-3.59,3.304-6.003,5.575c-3.863-8.109-7.726-16.218-11.59-24.327c-10.139-1.05-20.277-2.099-30.416-3.149
		c1.05,10.139,2.099,20.277,3.149,30.416c8.109,3.863,16.218,7.726,24.327,11.59c-2.272,2.413-4.163,4.462-5.575,6.003
		c-2.133,2.329-3.189,3.563-4.314,5.003c-1.453,1.86-4.06,5.242-5.974,9.922c-2.315,5.661-2.517,10.534-2.614,13.507
		c-0.185,5.683,0.779,9.967,1.369,12.507c0.511,2.2,1.478,6.276,3.9,11.089c1.822,3.623,3.607,5.954,6.679,9.922
		c3.586,4.632,5.1,5.903,8.919,10.422c5.187,6.138,7.833,9.182,8.961,11.673c5.994,13.241-2.435,28.077-2.987,29.016
		c-4.298,7.32-10.3,11.351-13.939,13.341c1.1,0.94,2.874,2.218,5.31,3.002c4.988,1.605,9.367,0.052,13.275-1.334
		c2.54-0.901,7.861-2.859,12.612-8.004c2.086-2.259,4.925-5.334,5.974-10.339c1.047-4.995-0.269-9.144-0.996-11.006
		c1.08,0.759,3.144,1.985,5.974,2.335c4.532,0.559,7.942-1.514,9.293-2.335c2.977-1.81,4.725-4.171,5.642-5.67
		c-2.459-0.821-5.635-1.983-9.251-3.585c-6.842-3.031-11.702-6.059-13.317-7.087c-1.715-1.092-6.629-4.3-12.57-9.547
		c-6.667-5.888-11.807-10.439-16.179-18.01c-2.632-4.558-6.458-11.182-6.347-20.261c0.047-3.813,0.162-13.279,6.887-18.218
		c4.618-3.392,10.049-2.961,13.649-2.668c11.234,0.916,18.869,7.853,21.531,10.339c9.922,9.269,12.573,20.709,14.188,27.682
		c1.303,5.622,2.779,15.269,0.747,27.348c4.101,0.779,6.67-0.027,8.214-0.834c3.87-2.023,4.432-5.694,9.334-8.88
		c1.94-1.261,3.74-1.913,4.854-2.251C200.865,210.297,206.277,210.802,211.089,211.011z"/>
</g>
<g id="c4">
	<polygon fill="#6A6967" points="283.46,28.346 283.46,42.813 42.871,42.813 42.728,283.465 28.342,283.465 28.342,28.346 	"/>
	<polygon fill="#6A6967" points="283.46,71.159 283.46,85.332 85.035,85.332 85.035,283.465 70.862,283.465 70.862,71.159 	"/>
</g>
<g id="c8">
	<path fill="#DCD9D5" d="M0.002,283.465c9.459,0,18.888,0,28.346,0c0-85.011,0-170.107,0-255.118
		c85.03,0.072,170.089-0.072,255.118,0c0-9.549,0-18.798,0-28.346C188.984,0,94.484,0,0.002,0
		C-0.004,94.488,0.008,188.976,0.002,283.465z"/>
	<polygon fill="#DCD9D5" points="283.466,42.813 42.877,42.813 42.734,283.465 70.868,283.465 70.868,71.159 283.466,71.159 	"/>
</g>
</svg>
