<?xml version="1.0" encoding="utf-8"?>
<!-- Generator: Adobe Illustrator 22.0.0, SVG Export Plug-In . SVG Version: 6.00 Build 0)  -->
<svg version="1.1" xmlns="http://www.w3.org/2000/svg" xmlns:xlink="http://www.w3.org/1999/xlink" x="0px" y="0px"
	 viewBox="0 0 283.5 283.5" enable-background="new 0 0 283.5 283.5" xml:space="preserve">
<g id="c1">
	
		<rect x="0.018" y="0.018" transform="matrix(-4.449546e-11 -1 1 -4.449546e-11 6.283585e-09 283.5)" fill="#DCD9D5" width="283.465" height="283.465"/>
</g>
<g id="c2">
</g>
<g id="c3">
	<polygon fill="#6A6967" points="283.5,198.79 198.545,198.79 198.545,283.5 212.704,283.5 212.704,212.908 283.5,212.908 	"/>
	<path fill="#6A6967" d="M255.182,283.5h-14.159v-42.355H283.5v14.118c-0.728-0.093-28.228,0-28.228,0L255.182,283.5z"/>
</g>
<g id="c5">
	<path fill="#6A6967" d="M149.16,0.115c-0.195,1.922-0.326,4.669,0.039,7.923c0.322,2.872,1.199,10.675,6.203,16.839
		c7.995,9.847,22.266,10.263,25.176,10.347c1.599,0.047,5.653,0.032,13.763,0.003c2.582-0.009,4.712-0.022,6.141-0.032
		c2.133,4.575,4.797,9.579,8.138,14.796c2.159,3.371,4.346,6.433,6.484,9.197l0,0c0.027,0.032,4.124,4.818,8.95,9.024
		c24.189,21.08,51.916,22.136,59.424,22.179V0.115H149.16z"/>
	<path fill="#6A6967" d="M0.014,149.261c1.922-0.195,4.669-0.326,7.923,0.039c2.872,0.322,10.675,1.199,16.839,6.203
		c9.847,7.995,10.263,22.266,10.347,25.176c0.047,1.599,0.032,5.653,0.003,13.763c-0.009,2.582-0.022,4.712-0.032,6.141
		c4.575,2.132,9.579,4.797,14.796,8.138c3.371,2.159,6.433,4.346,9.197,6.484l0,0c0.032,0.027,4.818,4.124,9.024,8.95
		c21.08,24.189,22.136,51.916,22.179,59.424H0.014L0.014,149.261z"/>
	<path fill="#6A6967" d="M83.159,35.196c-3.279,7.927-8.066,16.329-15.049,24.343c-4.206,4.826-8.992,8.923-9.024,8.95l0,0
		c-2.763,2.138-5.826,4.325-9.197,6.484c-5.217,3.341-10.221,6.006-14.796,8.138c0.01,1.429,0.023,3.559,0.032,6.141
		c0.029,8.109,0.044,12.164-0.003,13.763c-0.085,2.91-0.501,17.181-10.347,25.176c-6.164,5.004-13.966,5.88-16.839,6.203
		c-3.255,0.365-6.002,0.234-7.923,0.039c0,0,0-134.319,0-134.319l134.319,0c0.195,1.922,0.326,4.669-0.039,7.923
		c-0.322,2.872-1.199,10.675-6.203,16.839c-7.995,9.847-22.266,10.263-25.176,10.347c-1.599,0.047-5.653,0.032-13.763,0.003
		C86.569,35.218,84.589,35.206,83.159,35.196z"/>
	<path fill="#6A6967" d="M-393.646,679.326h-90.276"/>
</g>
<g id="c6">
	<path fill="#DCD9D5" d="M207.243,0.123c38.117,0.002,73.149-0.007,76.235-0.008c0,25.326,0,50.652,0,75.978
		c-6.76-0.164-29.639-1.559-49.814-19.028c-15.36-13.3-21.265-29.088-23.425-36.128c-8.934,0.045-17.867,0.09-26.801,0.135
		c-1.031,0.113-9.43,0.892-15.312-5.196c0,0-4.507-4.665-4.994-11.116c-0.119-1.572-0.018-3.332-0.018-3.332
		c0.028-0.485,0.066-0.924,0.108-1.313C164.252,0.116,185.233,0.121,207.243,0.123z"/>
	<path fill="#DCD9D5" d="M0.021,207.345c0.002,38.117-0.007,73.149-0.008,76.235c25.326,0,50.652,0,75.978,0
		c-0.164-6.76-1.559-29.639-19.028-49.814c-13.3-15.36-29.088-21.265-36.128-23.425c0.045-8.934,0.09-17.867,0.135-26.801
		c0.113-1.031,0.892-9.43-5.196-15.312c0,0-4.665-4.507-11.116-4.994c-1.572-0.119-3.332-0.018-3.332-0.018
		c-0.485,0.028-0.924,0.066-1.313,0.108C0.015,164.353,0.02,185.334,0.021,207.345z"/>
	<path fill="#DCD9D5" d="M0.014,0.115C3.1,0.116,38.131,0.125,76.249,0.123c22.01-0.001,42.991-0.007,44.021-0.007
		c0.041,0.389,0.08,0.828,0.108,1.313c0,0,0.1,1.759-0.018,3.332c-0.486,6.451-4.994,11.116-4.994,11.116
		c-5.882,6.088-14.281,5.308-15.312,5.196c-8.934-0.045-18.421-0.104-27.354-0.149c-2.61,8.885-7.298,19.261-15.736,29.006
		c-13.3,15.36-29.088,21.265-36.128,23.425c0.045,8.934,0.09,17.867,0.135,26.801c0.113,1.031,0.892,9.43-5.196,15.312
		c0,0-4.665,4.507-11.116,4.994c-1.572,0.119-3.332,0.018-3.332,0.018c-0.485-0.028-0.924-0.066-1.313-0.108
		c0-1.029,0.005-22.01,0.007-44.021C0.024,38.232,0.015,3.201,0.014,0.115z"/>
</g>
<g id="c7">
	<path fill="#6A6967" d="M227.051,0.115c18.809,0.003,37.618,0.006,56.427,0.009c-0.01,18.745-0.021,37.49-0.031,56.235
		c-3.913,0.044-23.233-0.144-39.189-15.328C227.125,24.726,227.011,3.639,227.051,0.115z"/>
	<path fill="#6A6967" d="M0.014,56.34C0.017,37.531,0.019,18.721,0.022-0.088c18.745,0.01,37.49,0.021,56.235,0.031
		c0.044,3.913-0.144,23.233-15.328,39.189C24.625,56.265,3.538,56.38,0.014,56.34z"/>
	<path fill="#6A6967" d="M0.014,227.152c0.003,18.809,0.006,37.618,0.009,56.427c18.745-0.01,37.49-0.021,56.235-0.031
		c0.044-3.913-0.144-23.233-15.328-39.189C24.625,227.227,3.538,227.112,0.014,227.152z"/>
</g>
<g id="c4">
	<path fill="#DCD9D5" d="M283.482,0.212c0,7.67,0,15.341,0,23.011c-1.201,1.608-3.857,4.664-8.323,6.346
		c-0.782,0.294-8.64,3.103-15.646-1.327c-2.722-1.722-4.168-3.825-4.494-4.314c-4.693-7.042-1.235-15.382-0.999-15.926
		c1.822-4.188,4.889-6.625,6.616-7.778C268.252,0.22,275.867,0.216,283.482,0.212z"/>
	<path fill="#DCD9D5" d="M0.01,0.01c7.67,0,15.341,0,23.011,0c1.608,1.201,4.664,3.857,6.346,8.323
		c0.294,0.782,3.103,8.64-1.327,15.646c-1.722,2.722-3.825,4.168-4.314,4.494C16.684,33.166,8.344,29.708,7.8,29.472
		c-4.188-1.822-6.625-4.889-7.778-6.616C0.018,15.24,0.014,7.625,0.01,0.01z"/>
	<path fill="#DCD9D5" d="M0.01,283.685c7.67,0,15.341,0,23.011,0c1.608-1.201,4.664-3.857,6.346-8.323
		c0.294-0.782,3.103-8.64-1.327-15.646c-1.722-2.722-3.825-4.168-4.314-4.494c-7.042-4.693-15.382-1.235-15.926-0.999
		c-4.188,1.822-6.625,4.889-7.778,6.616C0.018,268.454,0.014,276.07,0.01,283.685z"/>
</g>
<g id="c8">
	<path fill="#6A6967" d="M133.634,133.418c0,0,4.563-0.179,7.785-0.353c19.342-1.042,28.913-2.766,50.296-5.214
		c22.205-2.542,31.775-2.947,42.59,0c5.547,1.511,11.317,3.876,15.77,9.241c1.284,1.548,5.244,6.7,5.836,14.361
		c0.168,2.169,0.882,15.114-9.023,21.604c-7.826,5.127-16.616,2.513-18.212,1.998c-1.559-0.503-3.848-1.269-5.96-3.33
		c-4.219-4.117-4.306-9.879-4.305-10.656c0.017-6.615,4.521-10.633,3.104-11.988c-0.912-0.872-3.694-0.083-5.339,0.999
		c-1.117,0.735-1.568,1.513-3.104,2.123c-0.993,0.394-1.888,0.75-2.683,0.431c-1.323-0.533-1.171-2.458-2.284-6.3
		c-0.628-2.169-1.221-4.158-2.608-6.119c-1.092-1.544-2.758-3.899-4.636-3.788c-3.081,0.182-6.019,6.967-6.664,12.654
		c-0.329,2.905,0.003,4.973-0.993,5.37c-1.424,0.567-2.933-3.326-7.45-4.745c-1.093-0.343-3.697-0.924-6.333,0.25
		c-2.144,0.955-4.417,3.123-3.973,4.371c0.485,1.364,3.667,0.07,7.947,1.998c1.576,0.71,2.997,1.929,5.836,4.371
		c2.708,2.329,4.615,4.261,5.091,4.745c7.018,7.142,7.87,8.409,10.513,10.947c3.924,3.77,7.317,7.086,12.583,9.324
		c7.173,3.049,13.671,2.593,16.887,2.331c10.367-0.845,17.462-5.533,19.536-6.993c5.992-4.217,9.458-9.22,11.258-12.321
		c3.974-6.845,4.792-13.031,4.967-14.527c0.367-3.147,1.452-12.438-3.973-21.104c-3.596-5.744-8.544-8.804-13.286-11.738
		c-4.235-2.62-7.663-3.881-8.692-4.246c-4.485-1.591-8.142-2.036-11.051-2.373c-4.906-0.568-8.793-0.458-11.424-0.375
		c-1.988,0.063-7.441,0.301-14.031-0.125c-1.744-0.113-4.262-0.317-5.049-1.883c-0.614-1.221,0.101-2.72,0.331-3.237
		c3.285-7.377,0.489-22.468,0.248-23.726c-0.362-1.892-1.486-7.038-4.718-12.862c-4.406-7.938-10.127-12.446-12.417-14.111
		c-6.319-4.594-12.293-6.288-14.652-6.868c-2.512-0.618-10.715-2.537-20.157-0.042c-4.142,1.095-9.458,3.287-16.349,4.787
		c-0.838,0.182-3.282,0.696-6.457,0.5c-1.79-0.111-3.712-0.23-5.836-1.249c-0.882-0.423-1.184-0.706-4.843-3.621
		c-3.38-2.693-3.86-3.039-4.47-2.872c-1.606,0.439-2.202,3.901-1.987,6.244c0.204,2.216,1.18,3.939,1.937,5.275
		c1.311,2.313,1.915,2.257,2.37,3.375c1.711,4.196-5.331,8.601-4.032,11.803c1.141,2.811,8.217,3.48,13.383,2.4
		c4.13-0.863,6.756-2.785,8.195-1.499c0.682,0.61,0.398,1.314,0.869,5.12c0.38,3.065,0.586,4.626,1.366,5.994
		c1.204,2.113,3.621,4.07,4.967,3.497c1.015-0.432,0.83-2.05,1.49-4.62c0.8-3.113,2.207-5.16,3.725-7.368
		c3.318-4.826,7.742-7.365,9.437-8.242c1.536-0.795,10.354-5.359,20.24-1.623c8.58,3.242,14.709,11.507,15.521,20.605
		c1.146,12.833-8.848,21.025-11.382,23.102c-7.158,5.867-15.122,6.804-19.536,7.326c-7.419,0.878-13.175-0.379-16.266-1.082
		c-8.21-1.867-13.733-5.195-19.619-8.741c-3.811-2.296-9.546-5.802-15.747-12.014c-4.226-4.233-7.26-8.313-9.336-11.463
		c-2.043-3.39-3.117-6.343-3.725-8.492c-0.731-2.582-0.87-4.29-2.125-4.844c-1.669-0.737-3.492,1.355-5.822,2.347
		c-2.669,1.137-6.916,1.217-13.913-3.116c4.333,6.996,4.253,11.244,3.116,13.913c-0.992,2.329-3.083,4.153-2.347,5.822
		c0.554,1.255,2.263,1.394,4.844,2.125c2.148,0.608,5.102,1.682,8.492,3.725c3.149,2.076,7.229,5.11,11.463,9.336
		c6.212,6.2,9.718,11.936,12.014,15.747c3.546,5.886,6.874,11.409,8.741,19.619c0.703,3.091,1.96,8.847,1.082,16.266
		c-0.522,4.414-1.459,12.378-7.326,19.536c-2.077,2.534-10.269,12.528-23.102,11.382c-9.097-0.812-17.362-6.941-20.605-15.521
		c-3.736-9.886,0.828-18.703,1.623-20.24c0.877-1.695,3.416-6.119,8.242-9.437c2.208-1.518,4.255-2.925,7.368-3.725
		c2.57-0.66,4.188-0.475,4.62-1.49c0.573-1.346-1.384-3.762-3.497-4.967c-1.368-0.78-2.929-0.986-5.994-1.366
		c-3.805-0.472-4.51-0.187-5.12-0.869c-1.287-1.439,0.635-4.065,1.499-8.195c1.08-5.166,0.412-12.243-2.4-13.383
		c-3.202-1.299-7.607,5.743-11.803,4.032c-1.117-0.455-1.062-1.059-3.375-2.37c-1.336-0.757-3.059-1.734-5.275-1.937
		c-2.343-0.215-5.805,0.381-6.244,1.987c-0.167,0.61,0.179,1.09,2.872,4.47c2.915,3.659,3.198,3.961,3.621,4.843
		c1.019,2.124,1.138,4.046,1.249,5.836c0.197,3.175-0.317,5.618-0.5,6.457c-1.5,6.891-3.692,12.207-4.787,16.349
		c-2.496,9.442-0.576,17.645,0.042,20.157c0.58,2.359,2.274,8.333,6.868,14.652c1.665,2.29,6.173,8.011,14.111,12.417
		c5.824,3.232,10.971,4.356,12.862,4.718c1.259,0.241,16.35,3.037,23.726-0.248c0.516-0.23,2.016-0.944,3.237-0.331
		c1.566,0.787,1.771,3.305,1.883,5.049c0.426,6.59,0.188,12.043,0.125,14.031c-0.084,2.631-0.193,6.518,0.375,11.424
		c0.337,2.909,0.782,6.566,2.373,11.051c0.365,1.029,1.626,4.457,4.246,8.692c2.934,4.743,5.995,9.69,11.738,13.286
		c8.666,5.426,17.957,4.341,21.104,3.973c1.496-0.175,7.682-0.993,14.527-4.967c3.101-1.8,8.104-5.266,12.321-11.258
		c1.46-2.074,6.148-9.169,6.993-19.536c0.262-3.216,0.718-9.714-2.331-16.887c-2.238-5.265-5.554-8.659-9.324-12.583
		c-2.539-2.643-3.805-3.495-10.947-10.513c-0.484-0.476-2.416-2.383-4.745-5.091c-2.442-2.839-3.661-4.26-4.371-5.836
		c-1.928-4.28-0.634-7.462-1.998-7.947c-1.247-0.444-3.416,1.83-4.371,3.973c-1.174,2.636-0.593,5.24-0.25,6.333
		c1.419,4.518,5.312,6.027,4.745,7.45c-0.397,0.996-2.464,0.664-5.37,0.993c-5.687,0.644-12.472,3.582-12.654,6.664
		c-0.111,1.877,2.244,3.544,3.788,4.636c1.96,1.387,3.95,1.98,6.119,2.608c3.842,1.112,5.767,0.96,6.3,2.284
		c0.32,0.795-0.036,1.691-0.43,2.683c-0.61,1.536-1.388,1.987-2.123,3.104c-1.082,1.645-1.871,4.427-0.999,5.339
		c1.355,1.417,5.373-3.088,11.988-3.104c0.777-0.002,6.539,0.085,10.656,4.305c2.061,2.112,2.827,4.401,3.33,5.96
		c0.515,1.596,3.129,10.386-1.998,18.212c-6.49,9.905-19.435,9.191-21.604,9.023c-7.66-0.592-12.813-4.552-14.361-5.836
		c-5.365-4.453-7.729-10.222-9.241-15.77c-2.947-10.815-2.542-20.385,0-42.59c2.448-21.383,4.173-30.954,5.214-50.296
		C133.455,137.975,133.634,133.418,133.634,133.418z"/>
	<polygon fill="#DCD9D5" points="241.001,283.5 212.704,283.5 212.704,212.908 283.5,212.908 283.5,241.145 241.001,241.145 	"/>
	
		<rect x="255.201" y="255.143" transform="matrix(-1.836970e-16 1 -1 -1.836970e-16 538.6212 -0.017)" fill="#DCD9D5" width="28.237" height="28.318"/>
</g>
</svg>
