<?xml version="1.0" encoding="utf-8"?>
<!-- Generator: Adobe Illustrator 22.0.0, SVG Export Plug-In . SVG Version: 6.00 Build 0)  -->
<svg version="1.1" xmlns="http://www.w3.org/2000/svg" xmlns:xlink="http://www.w3.org/1999/xlink" x="0px" y="0px"
	 viewBox="0 0 283.5 283.5" enable-background="new 0 0 283.5 283.5" xml:space="preserve">
<g id="c1">
	<rect fill="#DEDEDE" width="283.465" height="283.465"/>
</g>
<g id="c2">
	<path fill="#6A6967" d="M253.027,44.028c-5.761,11.241-16.956,37.081-14.5,97.5c1.584,38.964,7.742,65.176,6,65.5
		c-1.498,0.279-6.615-18.981-9.591-33.633c-2.457-12.099-3.538-21.477-3.909-24.867c-2.901-26.492-1.652-45.634-1.5-61.5
		c0.15-15.708-0.671-38.307-5.333-66.333c-10.387,23.802-13.764,43.984-15,57.167c-4.215,44.947,9.331,84.551,14.833,100.167
		c5.065,14.376,11.916,29.818,10.5,30.5c-1.152,0.554-7.11-8.98-11-16.5c-4.201-8.123-6.485-14.854-7.833-19
		c-6.412-19.723-9.333-35.167-9.333-35.167c-8.358-44.182-9.524-59.735-15.833-86.833c-3.056-13.124-6.075-23.617-8-30
		c-1.947,6.33-4.457,15.803-6,27.5c-4.888,37.055,3.867,66.578,10,86.5c8.659,28.128,20.279,48.809,24.5,56
		c9.826,16.739,19.011,27.971,18.067,28.724c-1.116,0.89-15.258-13.737-27.733-30.724c-6.513-8.868-14.137-19.371-20.833-34.5
		c-2.961-6.688-4.297-11.02-11.667-38.833c-10.285-38.814-10.44-40.781-13.333-49.667c-3.471-10.658-9.29-26.385-19-45
		c-4.229,44.389,3.314,70.384,10.5,85.5c8.994,18.919,20.5,40.5,20.5,40.5c9.24,16.896,13.153,22.408,12.402,22.958
		c-1.534,1.123-22.492-18.5-36.069-47.958c-0.014-0.03-0.026-0.057-0.04-0.09c-6.997-16.181-10.272-28.856-11.793-34.91
		c-3.063-12.195-8.364-33.298-19.421-56.496c-2.87-6.022-5.487-10.839-7.248-13.965c-5.06,21.835-2.733,38.658-0.664,47.962
		c4.297,19.325,14.133,36.116,17.333,41.5c5.388,9.064,9.764,14.35,9,15c-1.138,0.968-12.586-9.249-20.542-21.553
		c-1.644-2.542-3.582-5.57-5.458-9.947c-2.058-4.804-2.329-7.209-4.841-14.261c-0.911-2.559-2.067-5.549-3.659-9.239
		c-1.696-3.929-5.215-12.193-11-21.5c-3.782-6.084-9.408-14.045-17.5-22.5c1.055,10.029,3.657,23.666,10.538,38.371
		c5.942,12.7,12.87,21.48,11.462,22.629c-1.341,1.094-9.918-5.01-15.295-13.295c-3.359-5.175-8.485-15.847-9.705-18.205
		c-0.127-0.245-0.386-0.741-0.727-1.448c-0.406-0.842-0.523-1.161-1.23-2.491c-3.325-6.255-9.543-14.061-9.543-14.061
		c-3.098-3.897-6.765-8.338-11-13.167c-0.638,2.798-1.23,6.837-0.833,11.667c0.468,5.691,2.118,10.151,3.422,12.973
		c-2.9-1.286-7.396-2.869-13.089-3.306c-4.798-0.368-8.827,0.202-11.667,0.833c4.828,4.235,9.27,7.902,13.167,11
		c0,0,7.806,6.218,14.061,9.543c1.33,0.707,1.649,0.825,2.491,1.23c0,0,0.584,0.28,1.448,0.727
		c9.224,4.77,16.371,10.038,16.371,10.038c6.705,4.942,16.158,13.464,15.129,14.962c-0.776,1.129-6.815-2.661-22.962-9.629
		C45.003,73.9,31.735,70.214,22.027,68.028c8.455,8.092,16.416,13.718,22.5,17.5c9.307,5.785,17.571,9.304,21.5,11
		c3.69,1.592,6.68,2.748,9.239,3.659c7.051,2.512,9.457,2.782,14.261,4.841c4.376,1.875,7.405,3.814,9.947,5.458
		c12.305,7.956,22.521,19.405,21.553,20.542c-0.65,0.764-5.936-3.612-15-9c-5.384-3.201-22.175-13.036-41.5-17.333
		c-9.304-2.069-26.126-4.395-47.962,0.665c3.127,1.761,7.943,4.377,13.965,7.248c23.198,11.057,44.301,16.358,56.496,19.421
		c6.054,1.521,18.729,4.796,34.91,11.793c0.033,0.014,0.06,0.027,0.09,0.04c29.458,13.577,49.082,34.534,47.958,36.069
		c-0.55,0.751-6.063-3.162-22.958-12.402c0,0-21.581-11.506-40.5-20.5c-15.116-7.186-41.111-14.729-85.5-10.5
		c18.615,9.71,34.342,15.529,45,19c8.885,2.893,10.853,3.048,49.667,13.333c27.813,7.37,32.145,8.706,38.833,11.667
		c15.129,6.697,25.632,14.32,34.5,20.833c16.987,12.476,31.614,26.617,30.724,27.733c-0.753,0.945-11.986-8.241-28.724-18.067
		c-7.191-4.221-27.872-15.841-56-24.5c-19.922-6.133-49.445-14.888-86.5-10c-11.697,1.543-21.17,4.053-27.5,6
		c6.383,1.925,16.876,4.944,30,8c27.098,6.309,42.651,7.475,86.833,15.833c0,0,15.444,2.922,35.167,9.333
		c4.146,1.348,10.877,3.632,19,7.833c7.521,3.89,17.054,9.848,16.5,11c-0.681,1.416-16.124-5.435-30.5-10.5
		c-15.616-5.502-55.22-19.048-100.167-14.833c-13.183,1.236-33.365,4.613-57.167,15c28.027,4.662,50.625,5.484,66.333,5.333
		c15.866-0.152,35.008-1.401,61.5,1.5c3.39,0.371,12.768,1.453,24.867,3.909c14.652,2.975,33.912,8.093,33.633,9.591
		c-0.324,1.742-26.536-4.416-65.5-6c-60.419-2.456-86.259,8.739-97.5,14.5c-9.12,4.675-16.057,9.579-20.5,13
		c7.538,0.618,20.062,1.317,35.5,0.5c32.871-1.74,46.538-8.643,82.5-12.5c8.263-0.886,24.959-2.624,45-2
		c32.757,1.02,60.118,7.9,80.35,14.85c-6.951-20.232-13.83-47.593-14.85-80.35c-0.624-20.041,1.114-36.738,2-45
		c3.857-35.962,10.76-49.629,12.5-82.5c0.817-15.438,0.118-27.962-0.5-35.5C262.607,27.97,257.702,34.907,253.027,44.028z"/>
</g>
</svg>
