<?xml version="1.0" encoding="utf-8"?>
<!-- Generator: Adobe Illustrator 22.0.0, SVG Export Plug-In . SVG Version: 6.00 Build 0)  -->
<svg version="1.1" xmlns="http://www.w3.org/2000/svg" xmlns:xlink="http://www.w3.org/1999/xlink" x="0px" y="0px"
	 viewBox="0 0 283.5 283.5" enable-background="new 0 0 283.5 283.5" xml:space="preserve">
<g id="c1">
	<path fill="#DEDEDE" d="M283.482,43.835c-132.151,0-239.657,107.483-239.657,239.629h239.657V43.835z"/>
</g>
<g id="c2">
	<g>
		<g>
			<path fill="#353333" d="M283.492,283.482c0,0-26.744-17.137-50.029,0H283.492z"/>
			<path fill="#353333" d="M283.492,233.419"/>
		</g>
		<g>
			<path fill="#353333" d="M283.492,283.482c0,0-17.137-26.744,0-50.029V283.482z"/>
			<path fill="#353333" d="M233.429,283.482"/>
		</g>
	</g>
</g>
<g id="c3">
	<path fill="#6A6967" d="M270.084,254.512c-6.857,3.179-12.402,8.723-15.582,15.578l-6.445-2.977
		c3.864-8.35,10.597-15.102,18.934-18.991L270.084,254.512z"/>
</g>
<g id="c4">
	<path fill="#353333" d="M251.33,236.767c-5.846,4.033-10.902,9.135-14.881,15.02l-11.813-7.83
		c4.984-7.394,11.325-13.802,18.662-18.864L251.33,236.767z"/>
</g>
<g id="c5">
	<g>
		<path fill="#353333" d="M228.55,283.482c-48.351-36.146-97.225-28.468-97.225-28.468l0.002-0.002
			c2.978,1.347,5.791,2.972,8.369,4.875c8.831,6.516,13.247,15.025,13.246,23.596H228.55z"/>
		<path fill="#353333" d="M284.443,227.597c-36.146-48.351-28.468-97.224-28.468-97.224l-0.002,0.002
			c1.347,2.978,2.972,5.791,4.875,8.369c6.516,8.831,15.025,13.247,23.596,13.246V227.597z"/>
	</g>
</g>
<g id="c6">
	<path fill="#FFFFFF" stroke="#000000" stroke-width="1.6667" stroke-miterlimit="10" d="M73.693,283.465"/>
	<g>
		<path fill="#6A6967" d="M238.255,275.6c0,0-94.114-68.331-153.121-14.356c0,0,5.247-37.829,42.423-35.609l-16.039-9.888
			c0,0,28.557-2.678,55.795,15.279c0,0,3.062-1.07-6.984-12.05c0,0,10.745-2.458,43.409,27.668l-5.157-14.904
			C198.58,231.739,230.223,246.524,238.255,275.6z"/>
		<path fill="#6A6967" d="M275.592,238.263c0,0-68.331-94.114-14.356-153.12c0,0-37.829,5.247-35.609,42.423l-9.888-16.039
			c0,0-2.678,28.557,15.279,55.795c0,0-1.07,3.062-12.05-6.984c0,0-2.458,10.745,27.668,43.408l-14.904-5.157
			C231.731,198.588,246.516,230.231,275.592,238.263z"/>
	</g>
</g>
<g id="c7">
	<path fill="#FFFFFF" stroke="#000000" stroke-width="1.6667" stroke-miterlimit="10" d="M73.711,283.465"/>
	<g>
		<path fill="#6A6967" d="M135.107,283.465c0,0-26.773-17.106-50.063,0H135.107z"/>
		<path fill="#6A6967" d="M283.482,135.098c0,0-17.106-26.773,0-50.063V135.098z"/>
	</g>
</g>
<g id="c8">
	<path fill="#353333" d="M225.022,226.456l-3.495,3.491c-16.369-20.371-44.349-42.338-52.102-47.401
		c-7.328-4.785-16.834-5.293-23.026,0.893c-1.631,1.629-2.832,3.525-3.605,5.547l-0.003-0.001
		c-6.186-6.192-6.18-16.226,0.012-22.411c0.905-0.904,1.893-1.676,2.938-2.316c0,0-8.918-7.761-9.35-26.526
		c18.764,0.452,26.516,9.378,26.516,9.378c0.641-1.045,1.414-2.031,2.319-2.936c6.192-6.185,16.226-6.18,22.411,0.012l0.001,0.003
		c-2.023,0.77-3.92,1.97-5.551,3.599c-6.192,6.185-5.694,15.692-0.917,23.025c5.055,7.759,26.992,35.761,47.347,52.152
		L225.022,226.456z"/>
</g>
<g id="c9">
	<path fill="#FFFFFF" stroke="#000000" stroke-width="1.6667" stroke-miterlimit="10" d="M73.711,283.909"/>
	<g>
		<path fill="#353333" d="M89.647,192.034l-11.137-5.279c-13.983,29.448-21.808,62.388-21.808,97.155h12.26
			C68.962,251.052,76.386,219.897,89.647,192.034z"/>
		<path fill="#353333" d="M191.599,90.082l-5.279-11.137c29.448-13.983,62.396-21.81,97.163-21.81v12.259
			C250.625,69.394,219.462,76.822,191.599,90.082z"/>
		<path fill="#353333" d="M92.875,185.537c9.801-18.913,22.335-36.19,37.076-51.306l-8.849-8.627
			c-15.617,16.015-28.884,34.332-39.245,54.394L92.875,185.537z"/>
		<path fill="#353333" d="M185.102,93.31c-18.913,9.801-36.19,22.335-51.306,37.076l-8.627-8.849
			c16.015-15.617,34.333-28.884,54.395-39.244L185.102,93.31z"/>
	</g>
</g>
<g id="c10">
	<path fill="#FFFFFF" stroke="#000000" stroke-width="1.6667" stroke-miterlimit="10" d="M73.711,283.465"/>
	<path fill="#6A6967" d="M28.395,283.465h15.43c0-132.147,107.51-239.629,239.657-239.629l0-15.516
		c-15.655,0-28.323-12.66-28.323-28.315l-14.197-0.004c0.436,16.06,7.249,26.476,17.749,34.346
		C141.818,48.055,47.024,140.201,33.315,257.094c-7.747-10.009-20.958-16.117-33.297-15.938v13.933
		C15.673,255.089,28.395,267.809,28.395,283.465z"/>
</g>
<g id="c11">
	<g>
		<path fill="#353333" d="M249.415,0.018c0,18.728,15.252,33.909,34.067,33.909V0.018H249.415z"/>
		<path fill="#353333" d="M34.085,283.482c0-18.728-15.252-33.909-34.067-33.909v33.909H34.085z"/>
	</g>
</g>
<g id="c12">
	<path fill="#DEDEDE" d="M240.945,0.001c0.436,16.06,7.226,26.504,17.725,34.374C141.776,48.082,46.982,140.228,33.274,257.122
		C25.527,247.113,12.339,240.977,0,241.156l0.008-64.892C28.417,93.732,94.189,28.304,177.166,0.001L240.945,0.001z"/>
</g>
<g id="c13">
	<g>
		<g>
			<path fill="#353333" d="M19.173,180.66c0,0-6.135,11.466-2.218,26.412c12.382-8.831,15.142-21.296,15.231-21.71
				c-0.575,0.626-1.199,1.187-1.865,1.668c-4.563,3.294-9.393,1.549-10.787-3.897C19.33,182.339,19.213,181.508,19.173,180.66z"/>
			<path fill="#353333" d="M13.752,213.071c0,0-10.29-36.172,11.351-49.591c0,0-10.216-4.047-13.626,7.642l-1.961-4.265
				c0,0-4.472,8.541-2.022,18.835c0,0-0.611,0.136-2.978-2.731c0,0-1.388,3.704,3.199,15.119l-3.224-1.769
				C4.491,196.312,5.398,207.51,13.752,213.071z"/>
			<path fill="#353333" d="M15.602,213.73c0,0,31.029-21.449,22.869-45.486c0,0,10.475,3.327,5.652,14.512l4.236-2.057
				c0,0-1.994,9.424-10.455,15.83c0,0,0.385,0.491,4.043-0.229c0,0-1.291,3.738-12.117,9.661l3.619,0.67
				C33.449,206.63,25.604,214.71,15.602,213.73z"/>
			<path fill="#353333" d="M33.28,161.737c-10.62,5.996-6.694,18.593-6.694,18.593S37.674,173.036,33.28,161.737z"/>
			<path fill="#353333" d="M13.777,216.53c-9.919,7.086-4.669,19.195-4.669,19.195S19.353,227.3,13.777,216.53z"/>
		</g>
		<g>
			<g>
				<path fill="#353333" d="M63.28,105.35c0,0-9.357,9.058-10.209,24.48c14.499-4.652,20.949-15.686,21.16-16.053
					c-0.739,0.421-1.506,0.767-2.288,1.023c-5.356,1.752-9.42-1.375-9.078-6.985C62.916,106.996,63.059,106.17,63.28,105.35z"/>
				<path fill="#353333" d="M48.182,134.571c0,0,1.289-37.572,26.012-43.782c0,0-8.489-6.954-15.319,3.143l-0.56-4.657
					c0,0-6.877,6.776-7.699,17.324c0,0-0.624-0.056-1.999-3.505c0,0-2.457,3.106-1.588,15.369l-2.528-2.663
					C44.501,115.8,41.932,126.74,48.182,134.571z"/>
				<path fill="#353333" d="M49.742,135.76c0,0,36.125-11.009,35.722-36.378c0,0,8.956,6.347,0.934,15.536l4.665-0.673
					c0,0-4.787,8.369-14.809,11.903c0,0,0.216,0.585,3.921,1.009c0,0-2.375,3.168-14.501,5.523l3.241,1.736
					C68.915,134.415,58.967,139.729,49.742,135.76z"/>
				<path fill="#353333" d="M82.516,91.61c-11.952,2.487-12.074,15.675-12.074,15.675S83.237,103.704,82.516,91.61z"/>
				<path fill="#353333" d="M47.064,137.338c-11.52,4.029-9.899,17.118-9.899,17.118S49.375,149.233,47.064,137.338z"/>
			</g>
		</g>
		<g>
			<path fill="#353333" d="M180.138,20.496c0,0,11.523-6.105,26.544-2.207c-8.875,12.321-21.403,15.067-21.818,15.155
				c0.629-0.572,1.193-1.193,1.677-1.856c3.31-4.541,1.557-9.346-3.917-10.733C181.825,20.653,180.99,20.536,180.138,20.496z"/>
			<path fill="#353333" d="M212.711,15.102c0,0-36.353-10.239-49.839,11.295c0,0-4.067-10.165,7.68-13.558l-4.286-1.951
				c0,0,8.583-4.45,18.93-2.012c0,0,0.137-0.608-2.745-2.963c0,0,3.722-1.381,15.194,3.183l-1.777-3.208
				C195.868,5.888,207.122,6.79,212.711,15.102z"/>
			<path fill="#353333" d="M213.373,16.943c0,0-21.556,30.874-45.714,22.755c0,0,3.343,10.423,14.584,5.624l-2.067,4.215
				c0,0,9.471-1.984,15.909-10.403c0,0,0.494,0.383-0.23,4.023c0,0,3.757-1.284,9.709-12.057l0.673,3.601
				C206.238,34.701,214.358,26.895,213.373,16.943z"/>
			<path fill="#353333" d="M161.12,34.534c6.026-10.567,18.686-6.66,18.686-6.66S172.476,38.905,161.12,34.534z"/>
			<path fill="#353333" d="M216.187,15.127c7.121-9.87,19.291-4.646,19.291-4.646S227.012,20.675,216.187,15.127z"/>
		</g>
		<g>
			<g>
				<path fill="#353333" d="M104.451,64.384c0,0,9.103-9.311,24.602-10.158c-4.675,14.427-15.764,20.845-16.133,21.055
					c0.423-0.736,0.771-1.498,1.028-2.276c1.761-5.329-1.382-9.373-7.02-9.033C106.106,64.021,105.275,64.164,104.451,64.384z"/>
				<path fill="#353333" d="M133.818,49.361c0,0-37.76,1.282-44.002,25.882c0,0-6.989-8.446,3.158-15.243l-4.68-0.557
					c0,0,6.81-6.843,17.411-7.661c0,0-0.056-0.62-3.522-1.989c0,0,3.121-2.445,15.446-1.58l-2.676-2.515
					C114.953,45.698,125.948,43.142,133.818,49.361z"/>
				<path fill="#353333" d="M135.013,50.913c0,0-11.065,35.945-36.56,35.545c0,0,6.379,8.912,15.613,0.93l-0.676,4.642
					c0,0,8.411-4.764,11.962-14.736c0,0,0.588,0.215,1.014,3.901c0,0,3.184-2.363,5.551-14.429l1.745,3.225
					C133.662,69.991,139.002,60.092,135.013,50.913z"/>
				<path fill="#353333" d="M90.642,83.524c2.5-11.893,15.754-12.014,15.754-12.014S102.797,84.241,90.642,83.524z"/>
				<path fill="#353333" d="M136.599,48.248c4.049-11.463,17.204-9.85,17.204-9.85S148.553,50.548,136.599,48.248z"/>
			</g>
		</g>
	</g>
</g>
<g id="c14">
	<path fill="#6A6967" d="M177.176,0.001C94.199,28.304,28.435,93.732,0.025,176.265l-0.008-46.56
		C28.861,74.225,74.596,28.68,130.391,0.001L177.176,0.001z"/>
</g>
<g id="c15">
	<path fill="#DEDEDE" d="M130.391,0.001C74.596,28.68,28.861,74.225,0.018,129.705V0.001H130.391z"/>
</g>
<g id="c16">
	<g>
		<path fill="#353333" d="M31.693,80.924L20.325,96.155c-3.137-5.291-6.105-12.727-6.647-22.37c0,0-1.904-0.68-3.944,9.84
			c0,0-5.939-3.129-2.493-34.145L0.894,60.181c0,0-4.896-21.811,8.341-41.83C9.235,18.351,9.576,60.657,31.693,80.924z"/>
		<path fill="#353333" d="M96.333,20.431L81.008,31.785C60.775,9.577,18.351,9.235,18.351,9.235
			c20.02-13.237,41.83-8.341,41.83-8.341L49.48,7.24c31.016-3.445,34.145,2.493,34.145,2.493c-10.52,2.04-9.84,3.944-9.84,3.944
			C83.537,14.226,91.031,17.255,96.333,20.431z"/>
	</g>
</g>
<g id="c17">
	<path fill="#6A6967" d="M63.198,36.471c0,0-13.266-20.406-46.769-20.2c-0.205,33.503,20.2,46.769,20.2,46.769l-0.001,0
		c-0.397-1.654-0.607-3.381-0.607-5.157c0-12.163,9.86-22.024,22.024-22.024c1.775,0,3.501,0.21,5.154,0.606"/>
</g>
<g id="c18">
	<g>
		<path fill="#353333" d="M8.109,0c1.636,2.772,2.7,6.233,2.706,10.624C6.395,10.618,2.956,9.591,0,7.943V0H8.109z"/>
		<path fill="#353333" d="M59.031,50.948l-7.976,7.935c-5.028-5.714-5.584-13.538-5.584-13.538S53.315,45.903,59.031,50.948z"/>
	</g>
</g>
</svg>
