<?xml version="1.0" encoding="utf-8"?>
<!-- Generator: Adobe Illustrator 22.0.0, SVG Export Plug-In . SVG Version: 6.00 Build 0)  -->
<svg version="1.1" xmlns="http://www.w3.org/2000/svg" xmlns:xlink="http://www.w3.org/1999/xlink" x="0px" y="0px"
	 viewBox="0 0 283.5 283.5" enable-background="new 0 0 283.5 283.5" xml:space="preserve">
<g id="c1">
	
		<rect x="0" y="0" transform="matrix(-1.836970e-16 1 -1 -1.836970e-16 283.4646 -4.280049e-06)" fill="#DEDEDE" width="283.465" height="283.465"/>
</g>
<g id="c2">
	<g>
		<polygon fill="#353333" points="0.029,27.081 23.404,13.54 23.404,0 0.018,0 		"/>
		<polygon fill="#353333" points="0.029,256.384 23.404,269.924 23.404,283.465 0.018,283.465 		"/>
	</g>
	<g>
		<polygon fill="#353333" points="283.471,27.081 260.096,13.54 260.096,0 283.482,0 		"/>
		<polygon fill="#353333" points="283.482,256.4 260.096,269.924 260.096,283.465 283.482,283.465 		"/>
	</g>
</g>
<g id="c3">
	<g>
		<polygon fill="#353333" points="0,122.503 23.386,108.956 23.386,81.863 0,68.316 		"/>
		<polygon fill="#353333" points="283.465,68.316 260.079,81.863 260.079,108.956 283.465,122.503 		"/>
		<polygon fill="#353333" points="0,217.446 23.386,203.899 23.386,176.806 0,163.259 		"/>
		<polygon fill="#353333" points="283.465,163.282 260.079,176.829 260.079,203.923 283.465,217.469 		"/>
	</g>
</g>
<g id="c4">
	<g>
		<polygon fill="#353333" points="80.096,0 80.096,13.547 56.711,27.094 33.325,13.547 33.325,0 		"/>
		<polygon fill="#353333" points="33.325,283.465 33.325,269.918 56.711,256.371 80.096,269.918 80.096,283.465 		"/>
	</g>
</g>
<g id="c5">
	<g>
		<polygon fill="#353333" points="136.805,0.018 136.805,13.565 113.42,27.111 90.034,13.565 90.034,0.018 		"/>
		<polygon fill="#353333" points="90.034,283.482 90.034,269.935 113.42,256.389 136.805,269.935 136.805,283.482 		"/>
	</g>
</g>
<g id="c6">
	<g>
		<polygon fill="#353333" points="193.5,0.018 193.5,13.565 170.114,27.111 146.728,13.565 146.728,0.018 		"/>
		<polygon fill="#353333" points="146.728,283.482 146.728,269.935 170.114,256.389 193.5,269.935 193.5,283.482 		"/>
	</g>
</g>
<g id="c7">
	<g>
		<polygon fill="#353333" points="250.193,0 250.193,13.547 226.807,27.094 203.421,13.547 203.421,0 		"/>
		<polygon fill="#353333" points="203.421,283.465 203.421,269.918 226.807,256.371 250.193,269.918 250.193,283.465 		"/>
	</g>
</g>
<g id="c8">
	<polygon fill="#6A6967" points="51.768,61.516 51.768,34.422 28.382,20.875 4.996,34.422 4.996,61.516 28.382,75.063 	"/>
</g>
<g id="c9">
	<polygon fill="#6A6967" points="108.461,61.516 108.461,34.422 85.075,20.875 61.689,34.422 61.689,61.516 85.075,75.063 	"/>
</g>
<g id="c10">
	<polygon fill="#6A6967" points="165.154,61.516 165.154,34.422 141.768,20.875 118.382,34.422 118.382,61.516 141.768,75.063 	"/>
</g>
<g id="c11">
	<polygon fill="#6A6967" points="221.713,61.516 221.713,34.422 198.327,20.875 174.941,34.422 174.941,61.516 198.327,75.063 	"/>
</g>
<g id="c12">
	<polygon fill="#6A6967" points="278.422,61.516 278.422,34.422 255.036,20.875 231.65,34.422 231.65,61.516 255.036,75.063 	"/>
</g>
<g id="c13">
	<polygon fill="#6A6967" points="80.13,108.956 80.13,81.863 56.744,68.316 33.359,81.863 33.359,108.956 56.744,122.503 	"/>
</g>
<g id="c14">
	<polygon fill="#353333" points="136.823,108.956 136.823,81.863 113.437,68.316 90.051,81.863 90.051,108.956 113.437,122.503 	"/>
</g>
<g id="c15">
	<polygon fill="#353333" points="193.516,108.956 193.516,81.863 170.13,68.316 146.744,81.863 146.744,108.956 170.13,122.503 	"/>
</g>
<g id="c16">
	<polygon fill="#6A6967" points="250.209,108.974 250.209,81.88 226.823,68.334 203.437,81.88 203.437,108.974 226.823,122.521 	"/>
</g>
<g id="c17">
	<polygon fill="#6A6967" points="51.784,156.483 51.784,129.389 28.398,115.842 5.012,129.389 5.012,156.483 28.398,170.029 	"/>
</g>
<g id="c18">
	<polygon fill="#353333" points="108.461,156.483 108.461,129.389 85.075,115.842 61.689,129.389 61.689,156.483 85.075,170.029 	
		"/>
</g>
<g id="c20">
	<polygon fill="#6A6967" points="165.154,156.465 165.154,129.371 141.768,115.825 118.382,129.371 118.382,156.465 
		141.768,170.012 	"/>
</g>
<g id="c21">
	<polygon fill="#353333" points="222.941,156.483 222.941,129.389 199.555,115.842 176.17,129.389 176.17,156.483 199.555,170.029 	
		"/>
</g>
<g id="c22">
	<polygon fill="#6A6967" points="279.618,156.483 279.618,129.389 256.232,115.842 232.846,129.389 232.846,156.483 
		256.232,170.029 	"/>
</g>
<g id="c23">
	<polygon fill="#6A6967" points="81.193,203.94 81.193,176.847 57.807,163.3 34.421,176.847 34.421,203.94 57.807,217.487 	"/>
</g>
<g id="c24">
	<polygon fill="#353333" points="137.886,203.94 137.886,176.847 114.5,163.3 91.114,176.847 91.114,203.94 114.5,217.487 	"/>
</g>
<g id="c25">
	<polygon fill="#353333" points="193.5,203.923 193.5,176.829 170.114,163.282 146.728,176.829 146.728,203.923 170.114,217.469 	
		"/>
</g>
<g id="c26">
	<polygon fill="#6A6967" points="250.193,203.923 250.193,176.829 226.807,163.282 203.421,176.829 203.421,203.923 
		226.807,217.469 	"/>
</g>
<g id="c27">
	<polygon fill="#6A6967" points="51.768,251.402 51.768,224.308 28.382,210.762 4.996,224.308 4.996,251.402 28.382,264.949 	"/>
</g>
<g id="c28">
	<polygon fill="#6A6967" points="108.445,251.402 108.445,224.308 85.059,210.762 61.673,224.308 61.673,251.402 85.059,264.949 	
		"/>
</g>
<g id="c29">
	<polygon fill="#6A6967" points="165.138,251.402 165.138,224.308 141.752,210.762 118.366,224.308 118.366,251.402 
		141.752,264.949 	"/>
</g>
<g id="c30">
	<polygon fill="#6A6967" points="221.83,251.402 221.83,224.308 198.445,210.762 175.059,224.308 175.059,251.402 198.445,264.949 	
		"/>
</g>
<g id="c31">
	<polygon fill="#6A6967" points="278.523,251.384 278.523,224.291 255.138,210.744 231.752,224.291 231.752,251.384 
		255.138,264.931 	"/>
</g>
</svg>
