<?xml version="1.0" encoding="utf-8"?>
<!-- Generator: Adobe Illustrator 22.0.0, SVG Export Plug-In . SVG Version: 6.00 Build 0)  -->
<svg version="1.1" xmlns="http://www.w3.org/2000/svg" xmlns:xlink="http://www.w3.org/1999/xlink" x="0px" y="0px"
	 viewBox="0 0 283.5 283.5" enable-background="new 0 0 283.5 283.5" xml:space="preserve">
<g id="c1">
	<rect x="0.072" y="0.152" fill="#DEDEDE" width="283.286" height="283.312"/>
	<path fill="#FFFFFF" stroke="#13120D" stroke-width="1.6667" stroke-miterlimit="10" d="M142.557,75.551"/>
</g>
<g id="c2">
	<g>
		<g>
			<g>
				<path fill="#6A6967" d="M0.246,0.351L0.227,0.36v0.009H0.219l-0.01,0.019l0.019,0.019L0.209,49.971
					c23.132-1.446,0.482-32.601,5.378-36.536l0.164-0.009c6.245-0.681,12.254,37.257,29.577,22.094l0.004,0.004
					c0.008-0.009,0.014-0.017,0.021-0.025c0.009-0.007,0.017-0.014,0.025-0.021l-0.004-0.004
					c15.162-17.325-22.772-23.335-22.091-29.58l0.009-0.164c3.934-4.897,35.087,17.755,36.532-5.379L0.265,0.369L0.246,0.351z"/>
			</g>
			<g>
				<path fill="#6A6967" d="M283.46,233.89c-23.132,1.446-0.482,32.601-5.379,36.536l-0.164,0.009
					c-6.245,0.681-12.254-37.257-29.577-22.093l-0.004-0.004c-0.008,0.009-0.014,0.017-0.022,0.026
					c-0.008,0.007-0.016,0.014-0.025,0.021l0.004,0.004c-15.162,17.325,22.773,23.335,22.092,29.58l-0.009,0.164
					c-3.934,4.897-35.087-17.755-36.532,5.379l49.56-0.019l0.019,0.019l0.018-0.01v-0.009h0.009l0.01-0.018l-0.019-0.019
					L283.46,233.89z"/>
			</g>
		</g>
	</g>
</g>
<g id="c3">
	<path fill="#9D9FA2" d="M13.007,5.683l-0.009,0.164c-0.681,6.245,37.254,12.254,22.091,29.58l0.004,0.004
		c-0.008,0.007-0.016,0.014-0.025,0.021c-0.008,0.009-0.014,0.017-0.021,0.025l-0.004-0.004C17.72,50.637,11.71,12.699,5.466,13.38
		l-0.164,0.009C0.408,17.321,23.028,48.443-0.04,49.92v6.891c31.2-0.077,56.429-25.307,56.512-56.507h-6.933
		C48.092,23.436,16.941,0.786,13.007,5.683z"/>
	<path fill="#9D9FA2" d="M226.927,283.465h6.933c1.446-23.132,32.598-0.481,36.532-5.378l0.009-0.164
		c0.681-6.245-37.254-12.254-22.092-29.58l-0.004-0.004c0.008-0.007,0.016-0.014,0.025-0.021c0.008-0.009,0.014-0.017,0.022-0.026
		l0.004,0.004c17.323-15.164,23.333,22.775,29.577,22.094l0.164-0.009c4.894-3.932-17.726-35.054,5.342-36.532v-6.891
		C252.239,227.035,227.01,252.264,226.927,283.465z"/>
</g>
<g id="c4">
	<path fill="#FFFFFF" stroke="#13120D" stroke-width="1.6667" stroke-miterlimit="10" d="M142.517,75.597"/>
	<path fill="#6A6967" d="M0,56.86c31.318,0,56.657-25.343,56.657-56.662h12.877c0,38.437-31.1,69.54-69.534,69.54L0,56.86z"/>
	<path fill="#6A6967" d="M283.54,226.884c-31.318,0-56.657,25.343-56.657,56.662h-12.877c0-38.437,31.1-69.54,69.534-69.54V226.884z
		"/>
</g>
<g id="c5">
	<path fill="#FFFFFF" stroke="#13120D" stroke-width="1.6667" stroke-miterlimit="10" d="M142.557,75.551"/>
	<g>
		<g>
			<g>
				<path fill="#6A6967" d="M63.61,28.142c-1.639,3.704-3.589,7.238-5.822,10.568l187.026,187.043
					c3.333-2.231,6.87-4.179,10.576-5.815L63.61,28.142z"/>
			</g>
			<g>
				<path fill="#6A6967" d="M27.957,63.696L219.802,255.56c1.633-3.71,3.579-7.249,5.807-10.585L38.548,57.897
					C35.211,60.123,31.669,62.066,27.957,63.696z"/>
			</g>
		</g>
	</g>
</g>
<g id="c6">
	<path fill="#FFFFFF" stroke="#13120D" stroke-width="1.6667" stroke-miterlimit="10" d="M142.557,75.424"/>
	<path fill="#9D9FA2" d="M57.788,38.583c-2.008,2.99-4.652,6.431-8.085,9.938c-3.947,4.033-7.852,7.045-11.155,9.249
		c62.354,62.359,124.707,124.719,187.061,187.078c2.154-3.221,5.083-7.024,8.988-10.881c3.616-3.572,7.165-6.297,10.217-8.341
		C182.472,163.278,120.13,100.93,57.788,38.583z M72.299,71.748c-0.373-0.763-1.144-1.29-2.025-1.29
		c-0.118,0-0.227,0.009-0.336,0.027c-0.045,0.01-0.082,0.01-0.118,0.019c-0.636,0.137-1.181,0.546-1.49,1.109
		c-1.418,0.854-3.089,1.343-4.87,1.343c-5.233,0.001-9.467-4.233-9.467-9.468c0-5.224,4.234-9.458,9.467-9.458
		c3.962,0,7.36,2.436,8.759,5.889c3.652,5.923,6.496,7.859,11.248,12.185C79.931,74.366,77.079,74.147,72.299,71.748z
		 M98.52,108.431c-3.962-0.001-7.36-2.436-8.758-5.888c-3.653-5.923-6.497-7.86-11.248-12.185c3.535-2.262,6.387-2.044,11.166,0.355
		c0.373,0.763,1.145,1.289,2.026,1.289c0.118,0,0.227-0.008,0.335-0.027c0.045-0.01,0.082-0.01,0.118-0.019
		c0.636-0.137,1.182-0.545,1.491-1.109c1.418-0.855,3.088-1.344,4.869-1.344c5.234,0,9.467,4.233,9.468,9.469
		C107.986,104.196,103.752,108.431,98.52,108.431z M132.409,131.863c-0.373-0.763-1.145-1.291-2.027-1.291
		c-0.118,0-0.227,0.009-0.335,0.027c-0.045,0.011-0.082,0.011-0.118,0.02c-0.636,0.137-1.182,0.545-1.49,1.109
		c-1.418,0.854-3.089,1.344-4.869,1.344c-5.233,0-9.468-4.234-9.468-9.469c0-5.223,4.235-9.457,9.467-9.457
		c3.961,0.001,7.36,2.436,8.759,5.888c3.652,5.924,6.496,7.86,11.248,12.184C140.04,134.48,137.189,134.262,132.409,131.863z
		 M159.794,169.335c-3.961-0.001-7.36-2.436-8.759-5.888c-3.652-5.924-6.496-7.86-11.248-12.185
		c3.535-2.262,6.386-2.044,11.166,0.355c0.373,0.763,1.145,1.291,2.027,1.291c0.118,0,0.227-0.009,0.335-0.027
		c0.045-0.011,0.082-0.011,0.118-0.02c0.636-0.137,1.182-0.545,1.49-1.109c1.418-0.855,3.089-1.344,4.869-1.344
		c5.233,0,9.468,4.234,9.468,9.469C169.261,165.101,165.026,169.335,159.794,169.335z M193.684,192.767
		c-0.373-0.763-1.145-1.289-2.026-1.289c-0.118,0-0.227,0.008-0.335,0.027c-0.045,0.01-0.081,0.01-0.118,0.019
		c-0.636,0.137-1.182,0.545-1.491,1.109c-1.418,0.855-3.088,1.344-4.869,1.344c-5.234,0-9.467-4.233-9.468-9.469
		c0.001-5.222,4.235-9.457,9.467-9.457c3.962,0.001,7.36,2.436,8.758,5.888c3.653,5.923,6.497,7.86,11.248,12.185
		C201.314,195.384,198.462,195.166,193.684,192.767z M219.903,229.451c-3.962-0.001-7.36-2.436-8.759-5.889
		c-3.652-5.923-6.496-7.859-11.248-12.185c3.535-2.263,6.387-2.043,11.167,0.356c0.373,0.763,1.144,1.29,2.025,1.29
		c0.118,0,0.227-0.009,0.337-0.027c0.045-0.01,0.081-0.01,0.118-0.019c0.636-0.137,1.181-0.545,1.49-1.109
		c1.418-0.854,3.089-1.343,4.87-1.343c5.233-0.001,9.467,4.233,9.467,9.468C229.37,225.216,225.136,229.451,219.903,229.451z"/>
</g>
<g id="c7">
	<path fill="#FFFFFF" stroke="#13120D" stroke-width="1.6667" stroke-miterlimit="10" d="M142.517,75.597"/>
	<g>
		<path fill="#9D9FA2" d="M283.334-0.011c0.005-0.012,0.01-0.023,0.014-0.035c-41.883,0-83.766,0-125.649,0
			c0,5.415,0.927,16.073,11.202,19.616c1.391,0.481,11.012,2.435,18.479,1.517c10.403-1.281,22.104-6.133,21.405-3.861
			c-2.88,9.394-6.569,8.177-7.295,18.635c-0.582,8.296,0.644,16.937,3.224,21.271c0.192,0.309,3.107-10.267,5.224-12.766
			c10.221-12.03,10.412-1.854,19.579-16.301c4.724-7.432-3.68-17.318,16.053-22.151c11.03-2.708,22.676,4.925,14.673,13.875
			c-2.381,2.662-16.009-2.227-19.07,0.39c-8.977,7.641-10.066,31.437-9.758,31.701c0.057-0.043,0.111-0.084,0.168-0.127
			l-0.152,0.152c0.263,0.309,24.057-0.782,31.697-9.759c2.618-3.062-2.272-16.691,0.39-19.072
			c8.948-8.004,16.58,3.643,13.875,14.674c-4.834,19.734-14.719,11.33-22.151,16.055c-14.446,9.168-4.269,9.359-16.298,19.58
			c-2.499,2.117-13.074,5.034-12.766,5.224c4.333,2.581,12.973,3.808,21.269,3.225c10.457-0.726,9.239-4.415,18.633-7.296
			c2.271-0.699-2.58,11.003-3.861,21.407c-0.917,7.468,1.036,17.09,1.517,18.481c3.544,10.277,14.201,11.202,19.615,11.202V-0.031
			L283.334-0.011z"/>
		<path fill="#9D9FA2" d="M114.412,263.732c-1.391-0.481-11.012-2.435-18.479-1.517c-10.404,1.281-22.104,6.133-21.405,3.861
			c2.88-9.394,6.569-8.177,7.295-18.635c0.582-8.296-0.644-16.937-3.224-21.271c-0.192-0.309-3.107,10.267-5.224,12.766
			c-10.221,12.03-10.412,1.854-19.579,16.301c-4.724,7.432,3.68,17.318-16.053,22.151c-11.03,2.708-22.676-4.925-14.673-13.875
			c2.381-2.662,16.009,2.227,19.07-0.39c8.977-7.641,10.066-31.437,9.757-31.701c-0.056,0.043-0.111,0.084-0.168,0.127l0.152-0.152
			c-0.263-0.309-24.057,0.782-31.697,9.759c-2.618,3.062,2.272,16.691-0.39,19.072c-8.949,8.004-16.58-3.644-13.875-14.674
			c4.834-19.734,14.719-11.33,22.151-16.055c14.446-9.168,4.269-9.359,16.298-19.58c2.498-2.117,13.074-5.034,12.766-5.224
			c-4.333-2.581-12.973-3.808-21.269-3.225c-10.457,0.726-9.239,4.415-18.633,7.296c-2.271,0.699,2.58-11.003,3.861-21.407
			c0.917-7.468-1.037-17.09-1.517-18.481c-3.544-10.277-14.201-11.202-19.615-11.202v125.659l0.02-0.02
			c-0.005,0.012-0.01,0.023-0.014,0.035c41.883,0,83.766,0,125.649,0C125.614,277.933,124.688,267.275,114.412,263.732z"/>
	</g>
</g>
<g id="c8">
	<path fill="#FFFFFF" stroke="#13120D" stroke-width="1.6667" stroke-miterlimit="10" d="M142.517,75.597"/>
	<g>
		<path fill="#DEDEDE" d="M283.389,114.455v11.3c-5.414,0-16.071-0.925-19.615-11.202c-0.481-1.391-2.434-11.013-1.517-18.481
			c1.282-10.404,6.132-22.107,3.861-21.407c-9.394,2.881-8.176,6.57-18.633,7.296c-8.296,0.583-16.936-0.644-21.269-3.225
			c-0.309-0.19,10.267-3.107,12.766-5.224c12.029-10.222,1.852-10.413,16.298-19.58c7.431-4.725,17.317,3.68,22.151-16.055
			c2.706-11.031-4.926-22.679-13.875-14.674c-2.662,2.381,2.227,16.01-0.39,19.072c-7.641,8.977-31.434,10.067-31.697,9.759
			l0.152-0.152c-0.056,0.043-0.111,0.084-0.168,0.127c-0.308-0.263,0.781-24.059,9.758-31.701c3.061-2.617,16.689,2.271,19.07-0.39
			c8.003-8.949-3.643-16.582-14.673-13.875c-19.733,4.834-11.33,14.719-16.053,22.151c-9.167,14.447-9.359,4.271-19.579,16.301
			c-2.117,2.498-5.033,13.074-5.224,12.766c-2.58-4.333-3.806-12.974-3.224-21.271c0.726-10.458,4.415-9.241,7.295-18.635
			c0.699-2.272-11.002,2.58-21.405,3.861c-7.467,0.918-17.088-1.036-18.479-1.517c-10.274-3.543-11.202-14.199-11.202-19.614
			c-10.697-0.01-21.394-0.02-32.091-0.03l0.016,0.035h-0.019c0.034,35.638,41.954,64.473,93.656,64.473l0.11,0.109
			c0,51.728,28.306,93.741,63.96,93.741l0.041,12.676c0,0,0.011,0.005,0.015,0.008C283.412,152.216,283.401,133.336,283.389,114.455
			z"/>
		<path fill="#DEDEDE" d="M64.159,219.003l-0.11-0.109c0-51.728-28.306-93.741-63.96-93.741l-0.041-12.676
			c-0.005-0.002-0.011-0.005-0.015-0.008c0.012,18.88,0.024,37.76,0.035,56.64v-11.3c5.414,0,16.071,0.925,19.615,11.202
			c0.481,1.391,2.434,11.013,1.517,18.481c-1.282,10.404-6.132,22.107-3.861,21.407c9.394-2.881,8.176-6.57,18.633-7.296
			c8.296-0.583,16.936,0.644,21.269,3.225c0.309,0.19-10.267,3.107-12.766,5.224c-12.029,10.222-1.852,10.413-16.298,19.58
			c-7.431,4.725-17.317-3.68-22.151,16.055c-2.706,11.031,4.926,22.679,13.875,14.674c2.662-2.381-2.227-16.01,0.39-19.072
			c7.641-8.977,31.434-10.067,31.697-9.759l-0.152,0.152c0.056-0.043,0.111-0.084,0.168-0.127
			c0.308,0.263-0.781,24.059-9.758,31.701c-3.061,2.617-16.689-2.271-19.07,0.39c-8.003,8.949,3.643,16.582,14.673,13.875
			c19.733-4.834,11.33-14.719,16.053-22.151c9.167-14.447,9.359-4.271,19.579-16.301c2.117-2.498,5.033-13.074,5.224-12.766
			c2.58,4.333,3.806,12.974,3.224,21.271c-0.726,10.458-4.415,9.241-7.295,18.635c-0.699,2.272,11.002-2.58,21.405-3.861
			c7.467-0.918,17.088,1.036,18.479,1.517c10.274,3.543,11.202,14.199,11.202,19.614c10.697,0.01,21.394,0.02,32.091,0.03
			l-0.016-0.035h0.019C157.781,247.838,115.861,219.003,64.159,219.003z"/>
	</g>
</g>
<g id="c9">
	<path fill="#FFFFFF" stroke="#13120D" stroke-width="1.6667" stroke-miterlimit="10" d="M142.517,75.597"/>
	<g>
		<path fill="#6A6967" d="M125.568,0.198c0,0.014,0.002,0.028,0.002,0.043h0.018L125.568,0.198z"/>
		<path fill="#6A6967" d="M283.296,158.565c-35.654,0-63.96-42.013-63.96-93.742l-0.11-0.109c-51.702,0-93.622-28.835-93.655-64.472
			h-17.428l-0.005-0.033c0,44.53,42.431,80.558,95.159,80.558c-0.001,52.732,35.531,95.28,80.058,95.28L283.296,158.565z"/>
		<path fill="#6A6967" d="M157.816,283.358c0-0.014-0.002-0.028-0.002-0.043h-0.018L157.816,283.358z"/>
		<path fill="#6A6967" d="M80.089,202.79c0.001-52.732-35.531-95.28-80.058-95.28l0.057,17.481c35.654,0,63.96,42.013,63.96,93.742
			l0.11,0.109c51.703,0,93.622,28.835,93.656,64.472h17.428l0.005,0.033C175.248,238.818,132.817,202.79,80.089,202.79z"/>
	</g>
</g>
<g id="c10">
	<path fill="#FFFFFF" stroke="#13120D" stroke-width="1.6667" stroke-miterlimit="10" d="M143.664,75.597"/>
	<g>
		<g>
			<g>
				<path fill="#6A6967" d="M72.219,60.092c-1.399-3.453-4.797-5.888-8.759-5.889c-5.233,0-9.467,4.235-9.467,9.458
					c0,5.234,4.234,9.468,9.467,9.468c1.781,0,3.452-0.489,4.87-1.343c0.309-0.563,0.853-0.972,1.49-1.109
					c0.036-0.009,0.073-0.009,0.118-0.019c0.109-0.018,0.218-0.027,0.336-0.027c0.882,0,1.653,0.527,2.025,1.29
					c4.779,2.399,7.632,2.618,11.167,0.355C78.715,67.951,75.871,66.015,72.219,60.092z"/>
			</g>
			<g>
				<path fill="#6A6967" d="M132.327,120.206c-1.398-3.452-4.797-5.887-8.759-5.888c-5.232,0-9.467,4.234-9.467,9.457
					c0,5.234,4.235,9.469,9.468,9.469c1.78,0,3.451-0.49,4.869-1.344c0.309-0.564,0.854-0.972,1.49-1.109
					c0.036-0.009,0.073-0.009,0.118-0.02c0.108-0.018,0.217-0.027,0.335-0.027c0.882,0,1.654,0.528,2.027,1.291
					c4.779,2.399,7.631,2.617,11.166,0.355C138.824,128.066,135.979,126.13,132.327,120.206z"/>
			</g>
			<g>
				<path fill="#6A6967" d="M98.519,89.678c-1.781,0-3.451,0.488-4.869,1.344c-0.309,0.563-0.854,0.972-1.491,1.109
					c-0.036,0.009-0.073,0.009-0.118,0.019c-0.108,0.019-0.217,0.027-0.335,0.027c-0.882,0-1.654-0.527-2.026-1.289
					c-4.778-2.399-7.631-2.617-11.166-0.355c4.751,4.325,7.596,6.262,11.248,12.185c1.398,3.452,4.796,5.887,8.758,5.888
					c5.232,0,9.466-4.235,9.467-9.457C107.986,93.912,103.753,89.678,98.519,89.678z"/>
			</g>
			<g>
				<path fill="#6A6967" d="M219.903,210.697c-1.781,0-3.452,0.489-4.87,1.343c-0.309,0.563-0.853,0.972-1.49,1.109
					c-0.036,0.009-0.073,0.009-0.118,0.019c-0.109,0.018-0.219,0.027-0.337,0.027c-0.882,0-1.653-0.527-2.025-1.29
					c-4.779-2.399-7.632-2.618-11.167-0.356c4.751,4.325,7.596,6.261,11.248,12.185c1.399,3.453,4.797,5.888,8.759,5.889
					c5.233,0,9.467-4.235,9.467-9.459C229.37,214.931,225.136,210.697,219.903,210.697z"/>
			</g>
			<g>
				<path fill="#6A6967" d="M159.793,150.582c-1.78,0-3.451,0.49-4.869,1.344c-0.309,0.564-0.854,0.971-1.49,1.109
					c-0.036,0.009-0.073,0.009-0.118,0.02c-0.108,0.018-0.217,0.027-0.335,0.027c-0.882,0-1.654-0.528-2.027-1.291
					c-4.779-2.399-7.631-2.617-11.166-0.355c4.751,4.325,7.596,6.26,11.248,12.185c1.398,3.452,4.797,5.887,8.759,5.888
					c5.232,0,9.467-4.234,9.467-9.457C169.261,154.817,165.026,150.582,159.793,150.582z"/>
			</g>
			<g>
				<path fill="#6A6967" d="M193.601,181.11c-1.398-3.452-4.796-5.887-8.758-5.888c-5.232,0-9.466,4.235-9.467,9.457
					c0.001,5.235,4.234,9.469,9.468,9.469c1.781,0,3.451-0.488,4.869-1.344c0.309-0.563,0.854-0.972,1.491-1.109
					c0.037-0.009,0.073-0.009,0.118-0.019c0.108-0.019,0.217-0.027,0.335-0.027c0.882,0,1.654,0.527,2.026,1.289
					c4.778,2.399,7.631,2.617,11.166,0.355C200.098,188.97,197.254,187.033,193.601,181.11z"/>
			</g>
		</g>
	</g>
</g>
</svg>
