<?xml version="1.0" encoding="utf-8"?>
<!-- Generator: Adobe Illustrator 22.0.0, SVG Export Plug-In . SVG Version: 6.00 Build 0)  -->
<svg version="1.1" xmlns="http://www.w3.org/2000/svg" xmlns:xlink="http://www.w3.org/1999/xlink" x="0px" y="0px"
	 viewBox="0 0 283.5 283.5" enable-background="new 0 0 283.5 283.5" xml:space="preserve">
<g id="c1">
	
		<rect x="0.028" y="0.019" transform="matrix(2.478433e-06 1 -1 2.478433e-06 283.509 -0.0087)" fill="#DEDEDE" width="283.462" height="283.464"/>
</g>
<g id="c4">
	<polygon fill="#9D9FA2" points="283.491,152.049 264.104,169.939 236.393,157.78 223.075,186.267 193.186,186.33 191.122,218.164 
		163.605,230.439 173.109,260.774 152.039,283.5 283.491,283.5 	"/>
	<polygon fill="#9D9FA2" points="0.027,131.471 19.415,113.581 47.126,125.74 60.444,97.253 90.333,97.19 92.397,65.356 
		119.913,53.081 110.41,22.746 131.479,0.02 0.027,0.02 	"/>
	<rect id="_x3C_Slice_x3E__18_" x="212.295" y="132.687" fill="none" width="1.365" height="1.381"/>
	<path fill="#FFFFFF" stroke="#000000" stroke-width="3.3333" stroke-miterlimit="10" d="M283.509,264.516"/>
	<path fill="#FFFFFF" stroke="#000000" stroke-width="3.3333" stroke-miterlimit="10" d="M283.509,264.516"/>
	<path fill="#FFFFFF" stroke="#000000" stroke-width="3.3333" stroke-miterlimit="10" d="M264.545,283.482"/>
	<path fill="#FFFFFF" stroke="#000000" stroke-width="3.3333" stroke-miterlimit="10" d="M264.545,283.482"/>
	<rect id="_x3C_Slice_x3E__17_" x="212.277" y="132.669" fill="none" width="1.365" height="1.381"/>
	<path fill="#FFFFFF" stroke="#000000" stroke-width="3.3333" stroke-miterlimit="10" d="M283.491,264.498"/>
	<path fill="#FFFFFF" stroke="#000000" stroke-width="3.3333" stroke-miterlimit="10" d="M283.492,264.498"/>
	<path fill="#FFFFFF" stroke="#000000" stroke-width="3.3333" stroke-miterlimit="10" d="M264.527,283.465"/>
	<path fill="#FFFFFF" stroke="#000000" stroke-width="3.3333" stroke-miterlimit="10" d="M264.527,283.464"/>
	<rect id="_x3C_Slice_x3E__16_" x="212.295" y="131.771" fill="none" width="1.365" height="1.381"/>
	<rect id="_x3C_Slice_x3E__15_" x="212.295" y="132.687" fill="none" width="1.365" height="1.381"/>
	<path fill="#FFFFFF" stroke="#000000" stroke-width="3.3333" stroke-miterlimit="10" d="M283.509,264.516"/>
	<path fill="#FFFFFF" stroke="#000000" stroke-width="3.3333" stroke-miterlimit="10" d="M283.509,264.516"/>
	<path fill="#FFFFFF" stroke="#000000" stroke-width="3.3333" stroke-miterlimit="10" d="M264.545,283.482"/>
	<path fill="#FFFFFF" stroke="#000000" stroke-width="3.3333" stroke-miterlimit="10" d="M264.545,283.482"/>
	<rect id="_x3C_Slice_x3E__14_" x="212.295" y="132.687" fill="none" width="1.365" height="1.381"/>
	<rect id="_x3C_Slice_x3E__13_" x="212.295" y="132.687" fill="none" width="1.365" height="1.381"/>
	<path fill="#FFFFFF" stroke="#000000" stroke-width="3.3333" stroke-miterlimit="10" d="M283.509,264.516"/>
	<path fill="#FFFFFF" stroke="#000000" stroke-width="3.3333" stroke-miterlimit="10" d="M283.509,264.516"/>
	<path fill="#FFFFFF" stroke="#000000" stroke-width="3.3333" stroke-miterlimit="10" d="M264.545,283.482"/>
	<path fill="#FFFFFF" stroke="#000000" stroke-width="3.3333" stroke-miterlimit="10" d="M264.545,283.482"/>
</g>
<g id="c3">
	<g>
		<path fill="#6A6967" d="M101.367,0.466c0.032,3.344-0.498,5.774-1.863,8.598c-0.85,1.759-3.05,4.667-4.47,5.843
			c-5.699,4.723-13.945,3.63-19.884,2.532c-16.858-3.118-27.489-4.343-41.576-7.028c13.687,4.488,23.846,8.455,40.174,13.991
			c5.831,1.977,13.725,5.08,16.602,11.761c0.717,1.664,1.317,5.142,1.25,7.012c-0.108,3.002-0.805,5.32-2.407,8.074l0.028-0.048
			c-1.554,2.78-3.204,4.579-5.76,6.247c-1.591,1.039-4.933,2.369-6.758,2.648c-7.326,1.122-14.177-3.81-18.964-7.618
			c-11.987-9.537-22.837-20.181-32.627-28.013c7.702,9.517,16.112,22.2,25.683,33.868c3.851,4.694,8.863,11.399,8.084,18.387
			c-0.194,1.741-1.335,4.905-2.268,6.401c-1.498,2.402-3.158,3.932-5.763,5.342l0.045-0.025c-2.579,1.457-4.776,2.059-7.653,2.078
			c-1.792,0.011-5.155-0.662-6.782-1.396c-6.531-2.946-9.83-10.597-11.965-16.24C18.708,57.59,14.383,46.495,9.806,33.804
			c2.529,13.422,4.189,25.3,7.21,41.52c1.106,5.939,2.211,14.187-2.503,19.894c-1.174,1.422-4.078,3.627-5.835,4.479
			c-2.822,1.369-5.308,1.902-8.651,1.876l0-82.267l19.367-18.84L101.367,0.466z"/>
		<path fill="#6A6967" d="M182.15,283.929c-0.032-3.344,0.498-5.774,1.863-8.598c0.85-1.759,3.05-4.667,4.47-5.843
			c5.699-4.723,13.945-3.63,19.884-2.532c16.858,3.118,27.489,4.343,41.576,7.028c-13.687-4.488-23.846-8.455-40.174-13.991
			c-5.831-1.977-13.725-5.08-16.602-11.761c-0.717-1.664-1.317-5.142-1.25-7.012c0.108-3.002,0.805-5.32,2.407-8.074l-0.028,0.048
			c1.554-2.78,3.204-4.579,5.76-6.247c1.591-1.039,4.933-2.369,6.758-2.648c7.326-1.122,14.177,3.81,18.964,7.618
			c11.987,9.537,22.837,20.181,32.627,28.013c-7.702-9.517-16.112-22.2-25.683-33.868c-3.851-4.694-8.863-11.399-8.084-18.387
			c0.194-1.741,1.335-4.905,2.268-6.401c1.498-2.402,3.158-3.932,5.763-5.342l-0.045,0.025c2.579-1.457,4.776-2.059,7.654-2.078
			c1.792-0.011,5.155,0.662,6.782,1.396c6.531,2.946,9.83,10.597,11.965,16.24c5.784,15.289,10.109,26.384,14.686,39.076
			c-2.529-13.422-4.189-25.3-7.21-41.52c-1.106-5.939-2.211-14.187,2.503-19.894c1.174-1.422,4.078-3.627,5.835-4.479
			c2.822-1.369,5.308-1.902,8.651-1.876l0,82.267l-19.367,18.84L182.15,283.929z"/>
	</g>
	<rect id="_x3C_Slice_x3E__12_" x="212.277" y="133.135" fill="none" width="1.365" height="1.381"/>
	<path fill="#FFFFFF" stroke="#000000" stroke-width="3.3333" stroke-miterlimit="10" d="M283.491,264.964"/>
	<path fill="#FFFFFF" stroke="#000000" stroke-width="3.3333" stroke-miterlimit="10" d="M283.491,264.964"/>
	<path fill="#FFFFFF" stroke="#000000" stroke-width="3.3333" stroke-miterlimit="10" d="M264.527,283.931"/>
	<path fill="#FFFFFF" stroke="#000000" stroke-width="3.3333" stroke-miterlimit="10" d="M264.527,283.93"/>
	<rect id="_x3C_Slice_x3E__11_" x="212.259" y="133.117" fill="none" width="1.365" height="1.381"/>
	<path fill="#FFFFFF" stroke="#000000" stroke-width="3.3333" stroke-miterlimit="10" d="M283.473,264.947"/>
	<path fill="#FFFFFF" stroke="#000000" stroke-width="3.3333" stroke-miterlimit="10" d="M283.473,264.947"/>
	<path fill="#FFFFFF" stroke="#000000" stroke-width="3.3333" stroke-miterlimit="10" d="M264.509,283.913"/>
	<path fill="#FFFFFF" stroke="#000000" stroke-width="3.3333" stroke-miterlimit="10" d="M264.509,283.913"/>
	<rect id="_x3C_Slice_x3E__10_" x="212.277" y="132.219" fill="none" width="1.365" height="1.381"/>
	<rect id="_x3C_Slice_x3E__9_" x="212.277" y="133.135" fill="none" width="1.365" height="1.381"/>
	<path fill="#FFFFFF" stroke="#000000" stroke-width="3.3333" stroke-miterlimit="10" d="M283.491,264.964"/>
	<path fill="#FFFFFF" stroke="#000000" stroke-width="3.3333" stroke-miterlimit="10" d="M283.491,264.964"/>
	<path fill="#FFFFFF" stroke="#000000" stroke-width="3.3333" stroke-miterlimit="10" d="M264.527,283.931"/>
	<path fill="#FFFFFF" stroke="#000000" stroke-width="3.3333" stroke-miterlimit="10" d="M264.527,283.93"/>
	<rect id="_x3C_Slice_x3E__8_" x="212.277" y="133.135" fill="none" width="1.365" height="1.381"/>
	<rect id="_x3C_Slice_x3E__3_" x="212.277" y="133.135" fill="none" width="1.365" height="1.381"/>
	<path fill="#FFFFFF" stroke="#000000" stroke-width="3.3333" stroke-miterlimit="10" d="M283.491,264.964"/>
	<path fill="#FFFFFF" stroke="#000000" stroke-width="3.3333" stroke-miterlimit="10" d="M283.491,264.964"/>
	<path fill="#FFFFFF" stroke="#000000" stroke-width="3.3333" stroke-miterlimit="10" d="M264.527,283.931"/>
	<path fill="#FFFFFF" stroke="#000000" stroke-width="3.3333" stroke-miterlimit="10" d="M264.527,283.93"/>
</g>
<g id="c2">
	<rect id="_x3C_Slice_x3E__2_" x="212.277" y="133.135" fill="none" width="1.365" height="1.381"/>
	<path fill="#FFFFFF" stroke="#000000" stroke-width="3.3333" stroke-miterlimit="10" d="M283.491,264.964"/>
	<path fill="#FFFFFF" stroke="#000000" stroke-width="3.3333" stroke-miterlimit="10" d="M283.491,264.964"/>
	<path fill="#FFFFFF" stroke="#000000" stroke-width="3.3333" stroke-miterlimit="10" d="M264.527,283.931"/>
	<path fill="#FFFFFF" stroke="#000000" stroke-width="3.3333" stroke-miterlimit="10" d="M264.527,283.93"/>
	<rect id="_x3C_Slice_x3E__1_" x="212.259" y="133.117" fill="none" width="1.365" height="1.381"/>
	<path fill="#FFFFFF" stroke="#000000" stroke-width="3.3333" stroke-miterlimit="10" d="M283.473,264.947"/>
	<g>
		<path fill="#353333" d="M0.009,21.71c11.741,0,21.26-9.518,21.26-21.26l-21.26,0L0.009,21.71z"/>
		<path fill="#353333" d="M283.473,262.65c-11.741,0-21.26,9.518-21.26,21.26l21.26,0L283.473,262.65z"/>
	</g>
	<path fill="#FFFFFF" stroke="#000000" stroke-width="3.3333" stroke-miterlimit="10" d="M283.473,264.947"/>
	<path fill="#FFFFFF" stroke="#000000" stroke-width="3.3333" stroke-miterlimit="10" d="M264.509,283.913"/>
	<path fill="#FFFFFF" stroke="#000000" stroke-width="3.3333" stroke-miterlimit="10" d="M264.509,283.913"/>
	<rect id="_x3C_Slice_x3E__4_" x="212.277" y="132.219" fill="none" width="1.365" height="1.381"/>
	<rect id="_x3C_Slice_x3E__5_" x="212.277" y="133.135" fill="none" width="1.365" height="1.381"/>
	<path fill="#FFFFFF" stroke="#000000" stroke-width="3.3333" stroke-miterlimit="10" d="M283.491,264.964"/>
	<path fill="#FFFFFF" stroke="#000000" stroke-width="3.3333" stroke-miterlimit="10" d="M283.491,264.964"/>
	<path fill="#FFFFFF" stroke="#000000" stroke-width="3.3333" stroke-miterlimit="10" d="M264.527,283.931"/>
	<path fill="#FFFFFF" stroke="#000000" stroke-width="3.3333" stroke-miterlimit="10" d="M264.527,283.93"/>
	<rect id="_x3C_Slice_x3E__6_" x="212.277" y="133.135" fill="none" width="1.365" height="1.381"/>
	<rect id="_x3C_Slice_x3E__7_" x="212.277" y="133.135" fill="none" width="1.365" height="1.381"/>
	<path fill="#FFFFFF" stroke="#000000" stroke-width="3.3333" stroke-miterlimit="10" d="M283.491,264.964"/>
	<path fill="#FFFFFF" stroke="#000000" stroke-width="3.3333" stroke-miterlimit="10" d="M283.491,264.964"/>
	<path fill="#FFFFFF" stroke="#000000" stroke-width="3.3333" stroke-miterlimit="10" d="M264.527,283.931"/>
	<path fill="#FFFFFF" stroke="#000000" stroke-width="3.3333" stroke-miterlimit="10" d="M264.527,283.93"/>
</g>
<g id="c5">
	<rect id="_x3C_Slice_x3E__24_" x="212.277" y="132.687" fill="none" width="1.365" height="1.381"/>
	<rect id="_x3C_Slice_x3E__23_" x="212.259" y="132.669" fill="none" width="1.365" height="1.381"/>
	<rect id="_x3C_Slice_x3E__22_" x="212.277" y="131.771" fill="none" width="1.365" height="1.381"/>
	<g>
		<polygon fill="#353333" points="283.491,42.524 270.401,30.121 252.745,29.606 252.271,11.951 240.15,-0.896 283.49,-0.896 		"/>
		<polygon fill="#353333" points="0.027,282.566 0.027,239.497 12.826,251.569 30.483,252.043 30.998,269.697 43.195,282.566 		"/>
	</g>
	<rect id="_x3C_Slice_x3E__21_" x="212.277" y="132.687" fill="none" width="1.365" height="1.381"/>
	<rect id="_x3C_Slice_x3E__20_" x="212.277" y="132.687" fill="none" width="1.365" height="1.381"/>
	<rect id="_x3C_Slice_x3E__19_" x="212.277" y="132.687" fill="none" width="1.365" height="1.381"/>
</g>
<g id="c6">
	<rect id="_x3C_Slice_x3E__30_" x="212.277" y="133.135" fill="none" width="1.365" height="1.381"/>
	<rect id="_x3C_Slice_x3E__29_" x="212.259" y="133.117" fill="none" width="1.365" height="1.381"/>
	<rect id="_x3C_Slice_x3E__28_" x="212.277" y="132.219" fill="none" width="1.365" height="1.381"/>
	<rect id="_x3C_Slice_x3E__27_" x="212.277" y="133.135" fill="none" width="1.365" height="1.381"/>
	<g>
		<path fill="#9D9FA2" d="M152.458,0.47c-0.06,4.437-2.377,7.807-5.851,10.038c-5.374,2.501-8.907,7.804-8.993,14.128
			c-0.119,8.797,6.918,16.025,15.716,16.144c5.865,0.079,10.15-2.482,13.483-7.107l0.755-0.92l24.503-32.284L152.458,0.47z"/>
		<path fill="#9D9FA2" d="M283.488,131.499c-4.437,0.06-7.807,2.377-10.038,5.851c-2.501,5.374-7.804,8.907-14.128,8.992
			c-8.798,0.119-16.025-6.918-16.144-15.716c-0.079-5.865,2.482-10.15,7.107-13.483l0.92-0.755l32.285-24.503L283.488,131.499z"/>
		<path fill="#9D9FA2" d="M131.059,283.928c0.06-4.437,2.377-7.807,5.851-10.038c5.374-2.501,8.907-7.804,8.993-14.128
			c0.119-8.797-6.918-16.025-15.716-16.144c-5.865-0.079-10.15,2.482-13.483,7.107l-0.755,0.92L91.446,283.93L131.059,283.928z"/>
		<path fill="#9D9FA2" d="M0.029,152.898c4.437-0.06,7.807-2.377,10.038-5.851c2.501-5.374,7.804-8.907,14.128-8.992
			c8.798-0.119,16.025,6.918,16.144,15.716c0.079,5.865-2.482,10.15-7.107,13.483l-0.92,0.755L0.027,192.512L0.029,152.898z"/>
	</g>
	<rect id="_x3C_Slice_x3E__26_" x="212.277" y="133.135" fill="none" width="1.365" height="1.381"/>
	<rect id="_x3C_Slice_x3E__25_" x="212.277" y="133.135" fill="none" width="1.365" height="1.381"/>
</g>
<g id="c7">
	<rect id="_x3C_Slice_x3E__36_" x="211.977" y="133.135" fill="none" width="1.365" height="1.381"/>
	<rect id="_x3C_Slice_x3E__35_" x="211.96" y="133.117" fill="none" width="1.365" height="1.381"/>
	<rect id="_x3C_Slice_x3E__34_" x="211.977" y="132.219" fill="none" width="1.365" height="1.381"/>
	<rect id="_x3C_Slice_x3E__33_" x="211.977" y="133.135" fill="none" width="1.365" height="1.381"/>
	<rect id="_x3C_Slice_x3E__32_" x="211.977" y="133.135" fill="none" width="1.365" height="1.381"/>
	<path fill="#6A6967" d="M136.892,151.514c0,0,9.369,8.854-1.878,22.713c-11.247,13.859-18.665,29.117-18.262,35.117l-0.024,0.133
		c-2.504-4.137-6.951-6.997-12.144-7.257c-8.309-0.416-15.382,5.983-15.798,14.291c-0.416,8.308,5.983,15.381,14.293,15.796
		c2.44,0.122,4.772-0.343,6.862-1.272l-0.008,0.02c0,0-27.463,50.807-46.19,50.105c0,0-19.224-0.141-16.779-13.854
		c0,0,2.627-14.994,17.844-7.432c0,0,7.986,0.927,2.521-9.371c0,0-5.623-7.141-0.833-11.474c4.561-4.126,3.254-21.65,3.119-23.319
		c-1.66-0.219-19.099-2.399-23.448,1.949c-4.568,4.567-11.419-1.405-11.419-1.405c-10.014-5.972-9.487,2.049-9.487,2.049
		c6.793,15.575-8.315,17.449-8.315,17.449c-13.82,1.757-13-17.449-13-17.449c0.234-18.737,52.356-43.624,52.356-43.624l0.02-0.007
		c-1.032,2.04-1.613,4.347-1.613,6.789c0,8.319,6.745,15.063,15.064,15.063s15.064-6.744,15.064-15.063
		c0-5.199-2.635-9.783-6.642-12.49l0.134-0.017c5.973,0.703,21.584-5.943,35.989-16.483
		C128.724,141.933,136.892,151.514,136.892,151.514z"/>
	<path fill="#6A6967" d="M150.603,137.804c0,0,8.855,9.368,22.716-1.878s29.12-18.664,35.121-18.26l0.133-0.024
		c-4.137-2.503-6.998-6.95-7.258-12.143c-0.416-8.308,5.983-15.381,14.293-15.797s15.383,5.983,15.798,14.291
		c0.122,2.439-0.343,4.772-1.272,6.861l0.02-0.008c0,0,50.813-27.46,50.11-46.185c0,0-0.141-19.222-13.856-16.777
		c0,0-14.996,2.626-7.433,17.842c0,0,0.927,7.985-9.372,2.521c0,0-7.141-5.623-11.475-0.833c-4.126,4.56-21.652,3.254-23.321,3.119
		c-0.219-1.659-2.4-19.097,1.949-23.445c4.568-4.567-1.405-11.418-1.405-11.418c-5.973-10.012,2.05-9.485,2.05-9.485
		c15.577,6.792,17.451-8.314,17.451-8.314C236.607,4.053,217.4,4.872,217.4,4.872c-18.739,0.234-43.628,52.35-43.628,52.35
		l-0.007,0.02c2.04-1.032,4.347-1.613,6.79-1.613c8.32,0,15.064,6.744,15.064,15.063c0,8.319-6.744,15.063-15.064,15.063
		c-5.2,0-9.784-2.634-12.492-6.641l-0.017,0.134c0.703,5.972-5.944,21.582-16.484,35.985
		C141.021,129.637,150.603,137.804,150.603,137.804z"/>
	<rect id="_x3C_Slice_x3E__31_" x="211.977" y="133.135" fill="none" width="1.365" height="1.381"/>
</g>
<g id="c8">
	<rect id="_x3C_Slice_x3E__42_" x="211.977" y="133.135" fill="none" width="1.365" height="1.381"/>
	<path fill="#FFFFFF" stroke="#000000" stroke-width="3.3333" stroke-miterlimit="10" d="M283.191,264.964"/>
	<path fill="#FFFFFF" stroke="#000000" stroke-width="3.3333" stroke-miterlimit="10" d="M283.191,264.964"/>
	<path fill="#FFFFFF" stroke="#000000" stroke-width="3.3333" stroke-miterlimit="10" d="M264.227,283.931"/>
	<path fill="#FFFFFF" stroke="#000000" stroke-width="3.3333" stroke-miterlimit="10" d="M264.227,283.93"/>
	<rect id="_x3C_Slice_x3E__41_" x="211.96" y="133.117" fill="none" width="1.365" height="1.381"/>
	<path fill="#FFFFFF" stroke="#000000" stroke-width="3.3333" stroke-miterlimit="10" d="M283.174,264.947"/>
	<path fill="#FFFFFF" stroke="#000000" stroke-width="3.3333" stroke-miterlimit="10" d="M283.174,264.947"/>
	<path fill="#FFFFFF" stroke="#000000" stroke-width="3.3333" stroke-miterlimit="10" d="M264.209,283.913"/>
	<path fill="#FFFFFF" stroke="#000000" stroke-width="3.3333" stroke-miterlimit="10" d="M264.209,283.913"/>
	<rect id="_x3C_Slice_x3E__40_" x="211.977" y="132.219" fill="none" width="1.365" height="1.381"/>
	<rect id="_x3C_Slice_x3E__39_" x="211.977" y="133.135" fill="none" width="1.365" height="1.381"/>
	<path fill="#FFFFFF" stroke="#000000" stroke-width="3.3333" stroke-miterlimit="10" d="M283.191,264.964"/>
	<path fill="#FFFFFF" stroke="#000000" stroke-width="3.3333" stroke-miterlimit="10" d="M283.191,264.964"/>
	<path fill="#FFFFFF" stroke="#000000" stroke-width="3.3333" stroke-miterlimit="10" d="M264.227,283.931"/>
	<path fill="#FFFFFF" stroke="#000000" stroke-width="3.3333" stroke-miterlimit="10" d="M264.227,283.93"/>
	<rect id="_x3C_Slice_x3E__38_" x="211.977" y="133.135" fill="none" width="1.365" height="1.381"/>
	<rect id="_x3C_Slice_x3E__37_" x="211.977" y="133.135" fill="none" width="1.365" height="1.381"/>
	<g>
		<path fill="#353333" d="M105.039,105.869c-3.096,3.18-7.449,4.395-11.505,3.626c-5.621-1.881-11.834-0.461-16.246,4.071
			c-6.138,6.305-6.002,16.39,0.304,22.527c4.203,4.091,9.076,5.179,14.676,4.113l1.181-0.148l39.648-6.527l5.457-39.805l0.117-1.185
			c0.914-5.626-0.305-10.467-4.508-14.558c-6.305-6.137-16.392-6.001-22.53,0.304c-4.411,4.531-5.664,10.78-3.632,16.348
			c0.879,4.034-0.219,8.418-3.315,11.598"/>
		<path fill="#353333" d="M177.755,178.571c-3.18,3.095-4.396,7.448-3.626,11.504c1.881,5.621,0.461,11.833-4.071,16.244
			c-6.305,6.137-16.392,6.001-22.53-0.303c-4.091-4.202-5.179-9.075-4.114-14.674l0.148-1.181l6.528-39.644l39.81-5.456l1.185-0.117
			c5.626-0.914,10.468,0.305,14.559,4.507c6.138,6.305,6.002,16.39-0.304,22.527c-4.532,4.411-10.781,5.663-16.349,3.632
			c-4.034-0.879-8.419,0.219-11.599,3.314"/>
	</g>
	<path fill="#FFFFFF" stroke="#000000" stroke-width="3.3333" stroke-miterlimit="10" d="M283.191,264.964"/>
	<path fill="#FFFFFF" stroke="#000000" stroke-width="3.3333" stroke-miterlimit="10" d="M283.191,264.964"/>
	<path fill="#FFFFFF" stroke="#000000" stroke-width="3.3333" stroke-miterlimit="10" d="M264.227,283.931"/>
	<path fill="#FFFFFF" stroke="#000000" stroke-width="3.3333" stroke-miterlimit="10" d="M264.227,283.93"/>
</g>
</svg>
