<?xml version="1.0" encoding="utf-8"?>
<!-- Generator: Adobe Illustrator 22.0.0, SVG Export Plug-In . SVG Version: 6.00 Build 0)  -->
<svg version="1.1" xmlns="http://www.w3.org/2000/svg" xmlns:xlink="http://www.w3.org/1999/xlink" x="0px" y="0px"
	 viewBox="0 0 283.5 283.5" enable-background="new 0 0 283.5 283.5" xml:space="preserve">
<g id="c1">
	<rect x="-0.01" y="0" fill="#DEDEDE" width="283.465" height="283.465"/>
</g>
<g id="c2">
	<path fill="#FFFFFF" stroke="#000000" stroke-width="3.3333" stroke-miterlimit="10" d="M39.961,82.15"/>
	<path fill="#FFFFFF" stroke="#000000" stroke-width="3.3333" stroke-miterlimit="10" d="M243.571,201.423"/>
	<path fill="#FFFFFF" stroke="#000000" stroke-width="3.3333" stroke-miterlimit="10" d="M243.571,59.905"/>
	<path fill="#FFFFFF" stroke="#000000" stroke-width="3.3333" stroke-miterlimit="10" d="M60.244,39.595"/>
	<path fill="#FFFFFF" stroke="#000000" stroke-width="3.3333" stroke-miterlimit="10" d="M39.961,223.163"/>
	<path fill="#FFFFFF" stroke="#000000" stroke-width="3.3333" stroke-miterlimit="10" d="M223.388,243.372"/>
	<path fill="#FFFFFF" stroke="#000000" stroke-width="3.3333" stroke-miterlimit="10" d="M82.46,243.473"/>
	<path fill="#FFFFFF" stroke="#000000" stroke-width="3.3333" stroke-miterlimit="10" d="M201.576,39.595"/>
	<path fill="#FFFFFF" stroke="#000000" stroke-width="3.3333" stroke-miterlimit="10" d="M76.757,103.912"/>
	<g>
		<polygon fill="#353333" points="0.035,20.811 7.097,11.77 14.271,14.243 11.588,7.071 20.618,0 0.035,0 		"/>
		<polygon fill="#353333" points="283.5,20.811 276.438,11.77 269.264,14.243 271.947,7.071 262.918,0 283.5,0 		"/>
		<polygon fill="#353333" points="283.5,262.653 276.438,271.695 269.264,269.222 271.947,276.394 262.918,283.465 283.5,283.465 		
			"/>
		<polygon fill="#353333" points="0.035,262.653 7.097,271.695 14.271,269.222 11.588,276.394 20.618,283.465 0.035,283.465 		"/>
	</g>
	<path fill="#353333" d="M-0.937,163.214"/>
</g>
<g id="c3">
	<path fill="#FFFFFF" stroke="#000000" stroke-width="3.3333" stroke-miterlimit="10" d="M39.961,82.15"/>
	<path fill="#FFFFFF" stroke="#000000" stroke-width="3.3333" stroke-miterlimit="10" d="M243.571,201.423"/>
	<path fill="#FFFFFF" stroke="#000000" stroke-width="3.3333" stroke-miterlimit="10" d="M243.571,59.905"/>
	<path fill="#FFFFFF" stroke="#000000" stroke-width="3.3333" stroke-miterlimit="10" d="M60.244,39.595"/>
	<path fill="#FFFFFF" stroke="#000000" stroke-width="3.3333" stroke-miterlimit="10" d="M39.961,223.163"/>
	<path fill="#FFFFFF" stroke="#000000" stroke-width="3.3333" stroke-miterlimit="10" d="M223.388,243.372"/>
	<path fill="#FFFFFF" stroke="#000000" stroke-width="3.3333" stroke-miterlimit="10" d="M82.46,243.473"/>
	<path fill="#FFFFFF" stroke="#000000" stroke-width="3.3333" stroke-miterlimit="10" d="M76.757,103.912"/>
	<g>
		<g>
			<polygon fill="#9D9FA2" points="20.618,0 33.67,14.134 14.159,14.243 11.588,7.071 			"/>
			<polygon fill="#9D9FA2" points="0.035,20.811 14.216,33.982 14.271,14.243 7.097,11.77 			"/>
		</g>
		<g>
			<polygon fill="#9D9FA2" points="262.918,0 249.866,14.134 269.377,14.243 271.947,7.071 			"/>
			<polygon fill="#9D9FA2" points="283.5,20.811 269.32,33.982 269.264,14.243 276.438,11.77 			"/>
		</g>
		<g>
			<polygon fill="#9D9FA2" points="262.918,283.465 249.866,269.331 269.377,269.222 271.947,276.394 			"/>
			<polygon fill="#9D9FA2" points="283.5,262.653 269.32,249.482 269.264,269.222 276.438,271.695 			"/>
		</g>
		<g>
			<polygon fill="#9D9FA2" points="20.618,283.465 33.67,269.331 14.159,269.222 11.588,276.394 			"/>
			<polygon fill="#9D9FA2" points="0.035,262.653 14.216,249.482 14.271,269.222 7.097,271.695 			"/>
		</g>
	</g>
	<path fill="#353333" d="M-0.937,163.214"/>
</g>
<g id="c4">
	<path fill="#FFFFFF" stroke="#000000" stroke-width="3.3333" stroke-miterlimit="10" d="M39.961,82.185"/>
	<path fill="#FFFFFF" stroke="#000000" stroke-width="3.3333" stroke-miterlimit="10" d="M243.571,59.94"/>
	<path fill="#FFFFFF" stroke="#000000" stroke-width="3.3333" stroke-miterlimit="10" d="M60.244,39.63"/>
	<path fill="#FFFFFF" stroke="#000000" stroke-width="3.3333" stroke-miterlimit="10" d="M39.961,223.199"/>
	<path fill="#FFFFFF" stroke="#000000" stroke-width="3.3333" stroke-miterlimit="10" d="M223.388,243.408"/>
	<path fill="#FFFFFF" stroke="#000000" stroke-width="3.3333" stroke-miterlimit="10" d="M82.46,243.509"/>
	<path fill="#FFFFFF" stroke="#000000" stroke-width="3.3333" stroke-miterlimit="10" d="M201.576,39.63"/>
	<g>
		<polygon fill="#6A6967" points="0.035,70.902 0.035,20.847 5.948,22.356 14.159,31.226 14.159,59.94 		"/>
		<polygon fill="#6A6967" points="70.902,0.035 20.847,0.035 22.356,5.948 31.226,14.159 59.94,14.159 		"/>
		<polygon fill="#6A6967" points="283.5,70.902 283.5,20.847 277.587,22.356 269.377,31.226 269.377,59.94 		"/>
		<polygon fill="#6A6967" points="212.634,0.035 262.689,0.035 261.18,5.948 252.31,14.159 223.596,14.159 		"/>
		<polygon fill="#6A6967" points="283.5,212.634 283.5,262.689 277.587,261.18 269.377,252.31 269.377,223.596 		"/>
		<polygon fill="#6A6967" points="212.634,283.5 262.689,283.5 261.18,277.587 252.31,269.377 223.596,269.377 		"/>
		<polygon fill="#6A6967" points="0.035,212.634 0.035,262.689 5.948,261.18 14.159,252.31 14.159,223.596 		"/>
		<polygon fill="#6A6967" points="70.902,283.5 20.847,283.5 22.356,277.587 31.226,269.377 59.94,269.377 		"/>
	</g>
	<path fill="#353333" d="M-0.937,163.25"/>
</g>
<g id="c5">
	<path fill="#FFFFFF" stroke="#000000" stroke-width="3.3333" stroke-miterlimit="10" d="M39.961,82.185"/>
	<path fill="#FFFFFF" stroke="#000000" stroke-width="3.3333" stroke-miterlimit="10" d="M243.571,201.458"/>
	<path fill="#FFFFFF" stroke="#000000" stroke-width="3.3333" stroke-miterlimit="10" d="M243.571,59.94"/>
	<path fill="#FFFFFF" stroke="#000000" stroke-width="3.3333" stroke-miterlimit="10" d="M60.244,39.63"/>
	<path fill="#FFFFFF" stroke="#000000" stroke-width="3.3333" stroke-miterlimit="10" d="M39.961,223.199"/>
	<path fill="#FFFFFF" stroke="#000000" stroke-width="3.3333" stroke-miterlimit="10" d="M223.388,243.408"/>
	<path fill="#FFFFFF" stroke="#000000" stroke-width="3.3333" stroke-miterlimit="10" d="M201.576,39.63"/>
	<g>
		<polygon fill="#6A6967" points="48.253,28.132 45.965,45.986 28.253,48.131 14.216,34.017 14.271,14.278 33.67,14.169 		"/>
		<polygon fill="#6A6967" points="235.283,28.132 237.571,45.986 255.282,48.131 269.32,34.017 269.264,14.278 249.866,14.169 		"/>
		<polygon fill="#6A6967" points="235.283,255.403 237.571,237.549 255.282,235.404 269.32,249.518 269.264,269.257 
			249.866,269.366 		"/>
		<polygon fill="#6A6967" points="48.253,255.403 45.965,237.549 28.253,235.404 14.216,249.518 14.271,269.257 33.67,269.366 		"/>
	</g>
	<path fill="#353333" d="M-0.937,163.25"/>
</g>
<g id="c6">
	<path fill="#FFFFFF" stroke="#000000" stroke-width="3.3333" stroke-miterlimit="10" d="M102.809,201.239"/>
	<path fill="#FFFFFF" stroke="#000000" stroke-width="3.3333" stroke-miterlimit="10" d="M40.43,82.167"/>
	<path fill="#FFFFFF" stroke="#000000" stroke-width="3.3333" stroke-miterlimit="10" d="M244.04,201.44"/>
	<path fill="#FFFFFF" stroke="#000000" stroke-width="3.3333" stroke-miterlimit="10" d="M244.04,59.922"/>
	<path fill="#FFFFFF" stroke="#000000" stroke-width="3.3333" stroke-miterlimit="10" d="M60.713,39.612"/>
	<path fill="#FFFFFF" stroke="#000000" stroke-width="3.3333" stroke-miterlimit="10" d="M40.43,223.181"/>
	<path fill="#FFFFFF" stroke="#000000" stroke-width="3.3333" stroke-miterlimit="10" d="M223.857,243.39"/>
	<path fill="#FFFFFF" stroke="#000000" stroke-width="3.3333" stroke-miterlimit="10" d="M82.928,243.491"/>
	<path fill="#FFFFFF" stroke="#000000" stroke-width="3.3333" stroke-miterlimit="10" d="M202.044,39.612"/>
	<path fill="#FFFFFF" stroke="#000000" stroke-width="3.3333" stroke-miterlimit="10" d="M77.226,103.929"/>
	<path fill="#353333" d="M-0.469,163.232"/>
	<g>
		<polygon fill="#353333" points="0.505,162.468 7.567,153.427 14.628,155.899 12.157,148.831 21.186,141.74 12.157,134.669 
			14.635,127.613 7.567,130.073 0.505,121.032 		"/>
		<polygon fill="#353333" points="283.968,162.468 276.906,153.427 269.845,155.899 272.316,148.831 263.287,141.74 
			272.316,134.669 269.838,127.613 276.906,130.073 283.968,121.032 		"/>
		<polygon fill="#353333" points="121.518,0.019 130.56,7.08 128.087,14.142 135.156,11.67 142.246,20.7 149.317,11.67 
			156.373,14.148 153.913,7.08 162.955,0.019 		"/>
		<polygon fill="#353333" points="121.518,283.481 130.56,276.42 128.087,269.358 135.156,271.83 142.246,262.8 149.317,271.83 
			156.373,269.352 153.913,276.42 162.955,283.481 		"/>
	</g>
</g>
<g id="c7">
	<path fill="#FFFFFF" stroke="#000000" stroke-width="3.3333" stroke-miterlimit="10" d="M39.961,82.185"/>
	<path fill="#FFFFFF" stroke="#000000" stroke-width="3.3333" stroke-miterlimit="10" d="M243.571,201.458"/>
	<path fill="#FFFFFF" stroke="#000000" stroke-width="3.3333" stroke-miterlimit="10" d="M243.571,59.94"/>
	<path fill="#FFFFFF" stroke="#000000" stroke-width="3.3333" stroke-miterlimit="10" d="M60.244,39.63"/>
	<path fill="#FFFFFF" stroke="#000000" stroke-width="3.3333" stroke-miterlimit="10" d="M39.961,223.199"/>
	<path fill="#FFFFFF" stroke="#000000" stroke-width="3.3333" stroke-miterlimit="10" d="M201.576,39.63"/>
	<path fill="#353333" d="M-0.937,163.25"/>
	<g>
		<g>
			<polygon fill="#9D9FA2" points="0.036,121.05 14.159,107.871 14.159,127.618 7.098,130.091 			"/>
			<polygon fill="#9D9FA2" points="20.717,141.758 33.879,127.616 14.157,127.616 11.688,134.687 			"/>
			<polygon fill="#9D9FA2" points="0.036,162.486 14.159,175.665 14.159,155.917 7.098,153.444 			"/>
			<polygon fill="#9D9FA2" points="20.717,141.777 33.879,155.919 14.157,155.919 11.688,148.848 			"/>
		</g>
		<g>
			<polygon fill="#9D9FA2" points="283.499,121.05 269.376,107.871 269.376,127.618 276.438,130.091 			"/>
			<polygon fill="#9D9FA2" points="262.818,141.758 249.656,127.616 269.378,127.616 271.848,134.687 			"/>
			<polygon fill="#9D9FA2" points="283.499,162.486 269.376,175.665 269.376,155.917 276.438,153.444 			"/>
			<polygon fill="#9D9FA2" points="262.818,141.777 249.656,155.919 269.378,155.919 271.848,148.848 			"/>
		</g>
		<polygon fill="#9D9FA2" points="162.486,0.036 175.665,14.159 155.917,14.159 153.444,7.098 		"/>
		<polygon fill="#9D9FA2" points="141.777,20.717 155.919,33.879 155.919,14.157 148.848,11.688 		"/>
		<polygon fill="#9D9FA2" points="121.05,0.036 107.871,14.159 127.618,14.159 130.091,7.098 		"/>
		<polygon fill="#9D9FA2" points="141.758,20.717 127.616,33.879 127.616,14.157 134.687,11.688 		"/>
		<g>
			<polygon fill="#9D9FA2" points="162.486,283.499 175.665,269.376 155.917,269.376 153.444,276.438 			"/>
			<polygon fill="#9D9FA2" points="141.777,262.818 155.919,249.656 155.919,269.378 148.848,271.848 			"/>
			<polygon fill="#9D9FA2" points="121.05,283.499 107.871,269.376 127.618,269.376 130.091,276.438 			"/>
			<polygon fill="#9D9FA2" points="141.758,262.818 127.616,249.656 127.616,269.378 134.687,271.848 			"/>
		</g>
	</g>
</g>
<g id="c8">
	<path fill="#FFFFFF" stroke="#000000" stroke-width="3.3333" stroke-miterlimit="10" d="M102.34,201.256"/>
	<path fill="#FFFFFF" stroke="#000000" stroke-width="3.3333" stroke-miterlimit="10" d="M155.99,201.256"/>
	<path fill="#FFFFFF" stroke="#000000" stroke-width="3.3333" stroke-miterlimit="10" d="M39.961,82.185"/>
	<path fill="#FFFFFF" stroke="#000000" stroke-width="3.3333" stroke-miterlimit="10" d="M243.571,201.458"/>
	<path fill="#FFFFFF" stroke="#000000" stroke-width="3.3333" stroke-miterlimit="10" d="M243.571,59.94"/>
	<path fill="#FFFFFF" stroke="#000000" stroke-width="3.3333" stroke-miterlimit="10" d="M60.244,39.63"/>
	<path fill="#FFFFFF" stroke="#000000" stroke-width="3.3333" stroke-miterlimit="10" d="M39.961,223.199"/>
	<path fill="#FFFFFF" stroke="#000000" stroke-width="3.3333" stroke-miterlimit="10" d="M223.388,243.408"/>
	<path fill="#FFFFFF" stroke="#000000" stroke-width="3.3333" stroke-miterlimit="10" d="M82.46,243.509"/>
	<path fill="#FFFFFF" stroke="#000000" stroke-width="3.3333" stroke-miterlimit="10" d="M201.576,39.63"/>
	<path fill="#FFFFFF" stroke="#000000" stroke-width="3.3333" stroke-miterlimit="10" d="M76.757,103.947"/>
	<path fill="#353333" d="M-0.937,163.25"/>
	<g>
		<polygon fill="#6A6967" points="0.035,70.935 14.199,81.949 14.199,111.613 7.138,118.597 0.035,120.939 		"/>
		<polygon fill="#6A6967" points="0.035,212.601 14.199,201.586 14.199,171.923 7.138,164.938 0.035,162.597 		"/>
		<polygon fill="#6A6967" points="70.902,141.768 59.757,155.9 29.76,155.9 22.698,148.829 20.343,141.758 21.815,135.837 
			30.769,127.616 59.757,127.616 		"/>
		<polygon fill="#6A6967" points="283.5,70.935 269.336,81.949 269.336,111.613 276.398,118.597 283.5,120.939 		"/>
		<polygon fill="#6A6967" points="283.5,212.601 269.336,201.586 269.336,171.923 276.398,164.938 283.5,162.597 		"/>
		<polygon fill="#6A6967" points="212.634,141.768 223.779,155.9 253.775,155.9 260.838,148.829 263.192,141.758 261.721,135.837 
			252.766,127.616 223.779,127.616 		"/>
		<polygon fill="#6A6967" points="212.601,0.035 201.586,14.199 171.923,14.199 164.938,7.138 162.597,0.035 		"/>
		<polygon fill="#6A6967" points="70.935,0.035 81.949,14.199 111.613,14.199 118.597,7.138 120.939,0.035 		"/>
		<polygon fill="#6A6967" points="141.768,70.902 127.636,59.757 127.636,29.76 134.707,22.698 141.777,20.343 147.698,21.815 
			155.919,30.769 155.919,59.757 		"/>
		<polygon fill="#6A6967" points="212.601,283.5 201.586,269.336 171.923,269.336 164.938,276.398 162.597,283.5 		"/>
		<polygon fill="#6A6967" points="70.935,283.5 81.949,269.336 111.613,269.336 118.597,276.398 120.939,283.5 		"/>
		<polygon fill="#6A6967" points="141.768,212.634 127.636,223.779 127.636,253.775 134.707,260.838 141.777,263.192 
			147.698,261.721 155.919,252.766 155.919,223.779 		"/>
	</g>
</g>
<g id="c13">
	<path fill="#FFFFFF" stroke="#000000" stroke-width="3.3333" stroke-miterlimit="10" d="M40.43,82.185"/>
	<path fill="#FFFFFF" stroke="#000000" stroke-width="3.3333" stroke-miterlimit="10" d="M244.04,201.458"/>
	<path fill="#FFFFFF" stroke="#000000" stroke-width="3.3333" stroke-miterlimit="10" d="M244.04,59.94"/>
	<path fill="#FFFFFF" stroke="#000000" stroke-width="3.3333" stroke-miterlimit="10" d="M60.713,39.63"/>
	<path fill="#FFFFFF" stroke="#000000" stroke-width="3.3333" stroke-miterlimit="10" d="M40.43,223.199"/>
	<path fill="#FFFFFF" stroke="#000000" stroke-width="3.3333" stroke-miterlimit="10" d="M223.857,243.408"/>
	<path fill="#FFFFFF" stroke="#000000" stroke-width="3.3333" stroke-miterlimit="10" d="M82.928,243.509"/>
	<path fill="#FFFFFF" stroke="#000000" stroke-width="3.3333" stroke-miterlimit="10" d="M202.044,39.63"/>
	<path fill="#FFFFFF" stroke="#000000" stroke-width="3.3333" stroke-miterlimit="10" d="M77.226,103.947"/>
	<path fill="#353333" d="M-0.469,163.25"/>
	<g>
		<path fill="#6A6967" d="M14.635,127.631c1.243,1.402,10.212,4.562,10.212,4.562l9.611-4.663l13.308-13.962
			c0,0-1.569-17.439-1.503-17.505c0.066-0.066-20.419,0-20.419,0l-11.208,11.82l-2.369,13.179L14.635,127.631z"/>
		<path fill="#6A6967" d="M14.635,155.905c1.243-1.402,10.212-4.562,10.212-4.562l9.611,4.663l13.308,13.962
			c0,0-1.569,17.439-1.503,17.505s-20.419,0-20.419,0l-11.208-11.82l-2.369-13.179L14.635,155.905z"/>
		<path fill="#6A6967" d="M269.838,127.631c-1.243,1.402-10.212,4.562-10.212,4.562l-9.611-4.663l-13.308-13.962
			c0,0,1.569-17.439,1.503-17.505c-0.066-0.066,20.419,0,20.419,0l11.208,11.82l2.369,13.179L269.838,127.631z"/>
		<path fill="#6A6967" d="M269.838,155.905c-1.243-1.402-10.212-4.562-10.212-4.562l-9.611,4.663l-13.308,13.962
			c0,0,1.569,17.439,1.503,17.505c-0.066,0.066,20.419,0,20.419,0l11.208-11.82l2.369-13.179L269.838,155.905z"/>
		<path fill="#6A6967" d="M156.373,14.166c-1.402,1.243-4.562,10.212-4.562,10.212l4.663,9.611l13.962,13.308
			c0,0,17.439-1.569,17.505-1.503s0-20.419,0-20.419l-11.82-11.208l-13.179-2.369L156.373,14.166z"/>
		<path fill="#6A6967" d="M128.1,14.166c1.402,1.243,4.562,10.212,4.562,10.212l-4.663,9.611l-13.962,13.308
			c0,0-17.439-1.569-17.505-1.503c-0.066,0.066,0-20.419,0-20.419l11.82-11.208l13.179-2.369L128.1,14.166z"/>
		<path fill="#6A6967" d="M156.373,269.369c-1.402-1.243-4.562-10.212-4.562-10.212l4.663-9.611l13.962-13.308
			c0,0,17.439,1.569,17.505,1.503c0.066-0.066,0,20.419,0,20.419l-11.82,11.208l-13.179,2.369L156.373,269.369z"/>
		<path fill="#6A6967" d="M128.1,269.369c1.402-1.243,4.562-10.212,4.562-10.212l-4.663-9.611l-13.962-13.308
			c0,0-17.439,1.569-17.505,1.503c-0.066-0.066,0,20.419,0,20.419l11.82,11.208l13.179,2.369L128.1,269.369z"/>
	</g>
</g>
<g id="c9">
	<path fill="#FFFFFF" stroke="#000000" stroke-width="3.3333" stroke-miterlimit="10" d="M102.34,201.256"/>
	<path fill="#FFFFFF" stroke="#000000" stroke-width="3.3333" stroke-miterlimit="10" d="M39.961,82.185"/>
	<path fill="#FFFFFF" stroke="#000000" stroke-width="3.3333" stroke-miterlimit="10" d="M243.571,201.458"/>
	<path fill="#FFFFFF" stroke="#000000" stroke-width="3.3333" stroke-miterlimit="10" d="M243.571,59.94"/>
	<path fill="#FFFFFF" stroke="#000000" stroke-width="3.3333" stroke-miterlimit="10" d="M60.244,39.63"/>
	<path fill="#FFFFFF" stroke="#000000" stroke-width="3.3333" stroke-miterlimit="10" d="M39.961,223.199"/>
	<path fill="#FFFFFF" stroke="#000000" stroke-width="3.3333" stroke-miterlimit="10" d="M223.388,243.408"/>
	<path fill="#FFFFFF" stroke="#000000" stroke-width="3.3333" stroke-miterlimit="10" d="M82.46,243.509"/>
	<path fill="#FFFFFF" stroke="#000000" stroke-width="3.3333" stroke-miterlimit="10" d="M201.576,39.63"/>
	<g>
		<path fill="#353333" d="M89.585,77.461l5.508-5.515c0.57-0.571,0.57-1.497,0-2.069l-5.512-5.52
			c1.174-8.794,4.43-15.255,6.207-18.366c-3.043,1.802-9.428,5.136-18.201,6.356l-5.653-5.66c-0.57-0.571-1.495-0.571-2.066,0
			l-5.652,5.66C55.435,51.126,49,47.786,45.97,45.992c1.774,3.995,4.319,10.78,5.097,19.521l-4.358,4.364
			c-0.57,0.571-0.57,1.497,0,2.069l4.361,4.367c-0.765,8.621-3.21,15.365-5.056,19.518c4.037-1.82,10.777-4.319,19.45-5.105
			l4.403,4.409c0.57,0.571,1.495,0.571,2.066,0l4.407-4.413c8.735,0.793,15.491,3.325,19.447,5.108
			C93.886,92.506,90.733,86.099,89.585,77.461z"/>
		<path fill="#353333" d="M193.95,77.461l-5.508-5.515c-0.57-0.571-0.57-1.497,0-2.069l5.512-5.52
			c-1.174-8.794-4.43-15.255-6.207-18.366c3.043,1.802,9.428,5.136,18.201,6.356l5.653-5.66c0.57-0.571,1.495-0.571,2.066,0
			l5.652,5.66c8.782-1.221,15.216-4.561,18.246-6.355c-1.774,3.995-4.319,10.78-5.097,19.521l4.358,4.364
			c0.57,0.571,0.57,1.497,0,2.069l-4.361,4.367c0.765,8.621,3.21,15.365,5.056,19.518c-4.037-1.82-10.777-4.319-19.45-5.105
			l-4.403,4.409c-0.57,0.571-1.495,0.571-2.066,0l-4.407-4.413c-8.735,0.793-15.491,3.325-19.447,5.108
			C189.65,92.506,192.803,86.099,193.95,77.461z"/>
		<path fill="#353333" d="M193.95,206.075l-5.508,5.515c-0.57,0.571-0.57,1.497,0,2.069l5.512,5.52
			c-1.174,8.794-4.43,15.255-6.207,18.366c3.043-1.802,9.428-5.136,18.201-6.356l5.653,5.66c0.57,0.571,1.495,0.571,2.066,0
			l5.652-5.66c8.782,1.221,15.216,4.561,18.246,6.355c-1.774-3.995-4.319-10.78-5.097-19.521l4.358-4.364
			c0.57-0.571,0.57-1.497,0-2.069l-4.361-4.367c0.765-8.621,3.21-15.365,5.056-19.518c-4.037,1.82-10.777,4.319-19.45,5.105
			l-4.403-4.409c-0.57-0.571-1.495-0.571-2.066,0l-4.407,4.413c-8.735-0.793-15.491-3.325-19.447-5.108
			C189.65,191.029,192.803,197.437,193.95,206.075z"/>
		<path fill="#353333" d="M89.585,206.075l5.508,5.515c0.57,0.571,0.57,1.497,0,2.069l-5.512,5.52
			c1.174,8.794,4.43,15.255,6.207,18.366c-3.043-1.802-9.428-5.136-18.201-6.356l-5.653,5.66c-0.57,0.571-1.495,0.571-2.066,0
			l-5.652-5.66c-8.782,1.221-15.216,4.561-18.246,6.355c1.774-3.995,4.319-10.78,5.097-19.521l-4.358-4.364
			c-0.57-0.571-0.57-1.497,0-2.069l4.361-4.367c-0.765-8.621-3.21-15.365-5.056-19.518c4.037,1.82,10.777,4.319,19.45,5.105
			l4.403-4.409c0.57-0.571,1.495-0.571,2.066,0l4.407,4.413c8.735-0.793,15.491-3.325,19.447-5.108
			C93.886,191.029,90.733,197.437,89.585,206.075z"/>
	</g>
	<path fill="#FFFFFF" stroke="#000000" stroke-width="3.3333" stroke-miterlimit="10" d="M76.757,103.947"/>
	<path fill="#353333" d="M-0.937,163.25"/>
</g>
<g id="c10">
	<path fill="#FFFFFF" stroke="#000000" stroke-width="3.3333" stroke-miterlimit="10" d="M102.809,201.239"/>
	<path fill="#FFFFFF" stroke="#000000" stroke-width="3.3333" stroke-miterlimit="10" d="M156.458,201.239"/>
	<path fill="#FFFFFF" stroke="#000000" stroke-width="3.3333" stroke-miterlimit="10" d="M40.43,82.167"/>
	<path fill="#FFFFFF" stroke="#000000" stroke-width="3.3333" stroke-miterlimit="10" d="M244.04,201.44"/>
	<path fill="#FFFFFF" stroke="#000000" stroke-width="3.3333" stroke-miterlimit="10" d="M244.04,59.922"/>
	<path fill="#FFFFFF" stroke="#000000" stroke-width="3.3333" stroke-miterlimit="10" d="M60.713,39.612"/>
	<path fill="#FFFFFF" stroke="#000000" stroke-width="3.3333" stroke-miterlimit="10" d="M40.43,223.181"/>
	<path fill="#FFFFFF" stroke="#000000" stroke-width="3.3333" stroke-miterlimit="10" d="M223.857,243.39"/>
	<path fill="#FFFFFF" stroke="#000000" stroke-width="3.3333" stroke-miterlimit="10" d="M202.044,39.612"/>
	<path fill="#FFFFFF" stroke="#000000" stroke-width="3.3333" stroke-miterlimit="10" d="M77.226,103.929"/>
	<path fill="#353333" d="M-0.469,163.232"/>
	<g>
		<path fill="#6A6967" d="M128.124,155.905c-1.243-1.402-10.212-4.562-10.212-4.562l-9.611,4.663l-13.308,13.962
			c0,0,1.569,17.439,1.503,17.505s20.419,0,20.419,0l11.208-11.82l2.369-13.179L128.124,155.905z"/>
		<path fill="#6A6967" d="M128.124,127.631c-1.243,1.402-10.212,4.562-10.212,4.562l-9.611-4.663l-13.308-13.962
			c0,0,1.569-17.439,1.503-17.505c-0.066-0.066,20.419,0,20.419,0l11.208,11.82l2.369,13.179L128.124,127.631z"/>
		<path fill="#6A6967" d="M156.349,155.905c1.243-1.402,10.212-4.562,10.212-4.562l9.611,4.663l13.308,13.962
			c0,0-1.569,17.439-1.503,17.505c0.066,0.066-20.419,0-20.419,0l-11.208-11.82l-2.369-13.179L156.349,155.905z"/>
		<path fill="#6A6967" d="M156.349,127.631c1.243,1.402,10.212,4.562,10.212,4.562l9.611-4.663l13.308-13.962
			c0,0-1.569-17.439-1.503-17.505c0.066-0.066-20.419,0-20.419,0l-11.208,11.82l-2.369,13.179L156.349,127.631z"/>
	</g>
</g>
<g id="c11">
	<path fill="#FFFFFF" stroke="#000000" stroke-width="3.3333" stroke-miterlimit="10" d="M102.809,201.931"/>
	<path fill="#FFFFFF" stroke="#000000" stroke-width="3.3333" stroke-miterlimit="10" d="M156.458,201.931"/>
	<path fill="#FFFFFF" stroke="#000000" stroke-width="3.3333" stroke-miterlimit="10" d="M40.43,82.859"/>
	<path fill="#FFFFFF" stroke="#000000" stroke-width="3.3333" stroke-miterlimit="10" d="M244.04,202.132"/>
	<path fill="#FFFFFF" stroke="#000000" stroke-width="3.3333" stroke-miterlimit="10" d="M244.04,60.615"/>
	<path fill="#FFFFFF" stroke="#000000" stroke-width="3.3333" stroke-miterlimit="10" d="M60.713,40.304"/>
	<path fill="#FFFFFF" stroke="#000000" stroke-width="3.3333" stroke-miterlimit="10" d="M223.857,244.082"/>
	<path fill="#FFFFFF" stroke="#000000" stroke-width="3.3333" stroke-miterlimit="10" d="M202.044,40.304"/>
	<path fill="#FFFFFF" stroke="#000000" stroke-width="3.3333" stroke-miterlimit="10" d="M77.226,104.622"/>
	<path fill="#353333" d="M-0.469,163.924"/>
	<g>
		<polygon fill="#6A6967" points="71.388,142.46 82.533,128.328 112.529,128.328 119.592,135.399 121.946,142.47 120.475,148.39 
			111.52,156.611 82.533,156.611 		"/>
		<polygon fill="#6A6967" points="213.085,142.46 201.94,128.328 171.943,128.328 164.881,135.399 162.527,142.47 163.998,148.39 
			172.952,156.611 201.94,156.611 		"/>
		<polygon fill="#6A6967" points="142.219,213.291 156.351,202.146 156.351,172.149 149.28,165.087 142.209,162.732 
			136.288,164.204 128.067,173.158 128.067,202.146 		"/>
		<polygon fill="#6A6967" points="142.219,71.594 156.351,82.739 156.351,112.735 149.28,119.798 142.209,122.152 136.288,120.681 
			128.067,111.726 128.067,82.739 		"/>
	</g>
</g>
<g id="c12">
	<path fill="#FFFFFF" stroke="#000000" stroke-width="3.3333" stroke-miterlimit="10" d="M155.99,201.239"/>
	<path fill="#FFFFFF" stroke="#000000" stroke-width="3.3333" stroke-miterlimit="10" d="M39.961,82.167"/>
	<path fill="#FFFFFF" stroke="#000000" stroke-width="3.3333" stroke-miterlimit="10" d="M243.571,201.44"/>
	<path fill="#FFFFFF" stroke="#000000" stroke-width="3.3333" stroke-miterlimit="10" d="M243.571,59.922"/>
	<path fill="#FFFFFF" stroke="#000000" stroke-width="3.3333" stroke-miterlimit="10" d="M60.244,39.612"/>
	<path fill="#FFFFFF" stroke="#000000" stroke-width="3.3333" stroke-miterlimit="10" d="M39.961,223.181"/>
	<path fill="#FFFFFF" stroke="#000000" stroke-width="3.3333" stroke-miterlimit="10" d="M223.388,243.39"/>
	<path fill="#FFFFFF" stroke="#000000" stroke-width="3.3333" stroke-miterlimit="10" d="M201.576,39.612"/>
	<path fill="#FFFFFF" stroke="#000000" stroke-width="3.3333" stroke-miterlimit="10" d="M76.757,103.929"/>
	<path fill="#353333" d="M-0.937,163.232"/>
	<g>
		<polygon fill="#9D9FA2" points="141.785,162.486 127.662,175.665 127.662,155.917 134.723,153.444 		"/>
		<polygon fill="#9D9FA2" points="121.103,141.777 107.942,155.919 127.663,155.919 130.133,148.848 		"/>
		<polygon fill="#9D9FA2" points="141.785,121.05 127.662,107.871 127.662,127.618 134.723,130.091 		"/>
		<polygon fill="#9D9FA2" points="121.103,141.758 107.942,127.616 127.663,127.616 130.133,134.687 		"/>
		<polygon fill="#9D9FA2" points="141.751,162.486 155.874,175.665 155.874,155.917 148.812,153.444 		"/>
		<polygon fill="#9D9FA2" points="162.432,141.777 175.594,155.919 155.872,155.919 153.402,148.848 		"/>
		<polygon fill="#9D9FA2" points="141.751,121.05 155.874,107.871 155.874,127.618 148.812,130.091 		"/>
		<polygon fill="#9D9FA2" points="162.432,141.758 175.594,127.616 155.872,127.616 153.402,134.687 		"/>
	</g>
</g>
<g id="c14">
	<polygon fill="#353333" points="142.222,162.486 149.283,153.444 156.351,155.905 153.873,148.848 162.903,141.777 
		153.873,134.687 156.345,127.618 149.283,130.091 142.222,121.05 135.16,130.091 128.099,127.618 130.57,134.687 121.54,141.777 
		130.57,148.848 128.092,155.905 135.16,153.444 	"/>
</g>
</svg>
