<?xml version="1.0" encoding="utf-8"?>
<!-- Generator: Adobe Illustrator 22.0.0, SVG Export Plug-In . SVG Version: 6.00 Build 0)  -->
<svg version="1.1" xmlns="http://www.w3.org/2000/svg" xmlns:xlink="http://www.w3.org/1999/xlink" x="0px" y="0px"
	 viewBox="0 0 283.5 283.5" enable-background="new 0 0 283.5 283.5" xml:space="preserve">
<g id="c1">
	<rect fill="#DEDEDE" width="283.456" height="283.456"/>
</g>
<g id="c2">
	<path fill="#6A6967" d="M139.861,209.683c-0.798-2.679-1.184-5.071-1.108-7.893c-2.655-7.402-4.063-11.011-4.063-11.011
		l-7.142-20.157c-1.337,0.053-2.475,0.459-3.571,1.336c-1.654,1.324-2.316,3.142-1.986,6.121c0.332,2.979,3.639,8.108,5.461,12.245
		c1.794,4.077,2.315,7.199,3.143,12.576c0.793,5.163,0.994,8.768-0.662,12.577c-1.652,3.801-6.95,7.92-8.44,8.106
		c-1.983,0.247-4.216,0.662-7.61-1.324c-3.089-1.809-5.9-4.209-7.444-4.797c-1.738-0.665-9.431,0.66-12.41-0.827
		c-3.307-1.656-5.092-3.647-7.776-5.959c-2.398-2.066-3.037-2.733-4.798-4.632c-2.15-2.317-3.97-2.649-8.106-5.131
		c-4.137-2.481-6.288-4.634-7.611-6.452c-1.322-1.821-1.708-2.759-1.986-5.958c-0.33-3.805-0.162-6.121,0.664-9.266
		c0.826-3.143,1.158-4.303,3.141-7.28c1.987-2.977,3.944-5.187,6.95-6.62c3.473-1.652,8.732-3.553,11.581-4.548
		c3.311-1.158,10.755-2.731,12.904-4.054c0.867-0.533,3.928-2.109,6.526-3.631l-13.373-4.74c0,0-0.356-0.139-1.074-0.413
		c-1.165,0.606-2.217,1.186-2.996,1.668c-3.475,2.149-10.257,6.784-14.066,8.77c-3.805,1.985-8.436,1.654-12.987,0.662
		c-3.729-0.815-6.369-1.987-8.85-4.303c-2.481-2.315-3.475-3.307-4.469-5.956c-0.992-2.646-0.494-7.112-0.164-9.762
		c0.081-0.654,0.121-1.298,0.119-1.935c-0.301,0.004-0.632-0.033-0.929-0.024c-6.564,0.203-15.323,2.664-22.846,7.436
		c0.278,3.588,0.808,7.256,1.733,10.904c2.993,11.786,5.367,16.122,8.934,22.709c2.937,5.419,9.309,14.519,11.79,17.249
		c5.121,5.633,11.458,12.493,18.737,17.953c7.28,5.46,11.725,7.938,20.599,12.205c7.402,3.556,13.225,5.406,18.778,6.824
		c7.776,1.987,14.742,3.497,18.574,3.971c6.326,0.787,14.015,1.594,15.51,1.612c2.781,0.039,5.084,0.12,7.294,0.18
		c0.057-0.645,0.133-1.306,0.152-1.915c0.199-6.482-0.836-13.89-2.97-21.578C141.482,212.716,140.201,210.825,139.861,209.683z"/>
	<path fill="#6A6967" d="M113.058,249.726c-4.799-0.496-17.705-3.143-22.833-5.46c-5.129-2.318-11.415-4.55-15.22-6.701
		c-3.807-2.151-13.727-8.275-17.869-11.543c-4.095-3.226-12.655-10.558-16.008-14.271c-3.475-3.847-9.431-10.921-14.023-17.871
		c-6.654-10.07-10.819-20.782-12.657-26.431c-1.088-3.35-2.028-6.399-2.949-10.212c-2.151,3.822-3.735,8.393-3.982,13.59
		c-0.498,10.423,5.459,18.367,9.431,21.842c3.971,3.473,7.942,5.46,7.942,5.46S7.896,210.999,9.503,231.384
		c1.612,20.478,9.979,27.127,10.919,28.049c0.736,0.721,1.561,1.401,1.561,1.401c-0.044-0.032-0.054-0.034-0.056-0.032
		c-0.022,0.024,0.783,0.761,1.705,1.706c0.479,0.492,0.81,0.858,0.846,0.894c2.416,2.435,9.835,8.658,27.196,10.028
		c20.385,1.605,33.256-15.39,33.256-15.39s1.987,3.971,5.461,7.942c3.475,3.971,11.416,9.927,21.838,9.432
		c10.425-0.498,18.34-6.368,22.709-11.417c3.201-3.698,5.65-8.013,7.45-12.37c-2.513,0.019-5.23-0.02-8.317-0.082
		C125.796,251.379,117.855,250.222,113.058,249.726z"/>
	<path fill="#6A6967" d="M103.196,38.773c-1.366,1.491-5.591,6.788-7.446,13.155C94.88,54.907,94.714,62.063,94.88,66.2
		c0.002,0.038,0.009,0.09,0.011,0.129c0.416-1.641,1.012-3.106,1.627-4.336c1.324-2.645,6.95-6.12,9.762-6.948
		c2.811-0.828,7.445-5.79,10.259-8.602c2.813-2.815,5.789-3.311,7.94-2.649c1.53,0.471,3.035,1.216,4.635,2.011
		c-0.003-0.127-0.004-0.277-0.008-0.399c-0.151-4.921-0.399-13.056-2.425-20.318c-3.542,0.874-7.313,2.191-10.583,4.007
		C107.702,33.76,106.19,35.505,103.196,38.773z"/>
	<path fill="#6A6967" d="M54.652,106.598c0.828-2.813,4.303-8.44,6.95-9.763c1.56-0.78,3.502-1.507,5.717-1.881
		c-0.438-0.043-0.885-0.09-1.25-0.104c-4.135-0.166-11.292,0-14.27,0.869c-6.37,1.858-11.666,6.079-13.153,7.446
		c-3.267,2.995-5.013,4.506-9.68,12.904c-1.751,3.153-3.037,6.771-3.914,10.203c7.051,2.039,14.982,2.35,20.04,2.507
		c-0.668-1.354-1.283-2.656-1.691-3.981c-0.662-2.151-0.164-5.128,2.649-7.944C48.861,114.042,53.824,109.409,54.652,106.598z"/>
	<path fill="#6A6967" d="M6.381,100.837c-0.139,5.132,1.264,10.726,4.929,16.009c2.792-8.066,7.569-18.038,11.575-22.369
		c4.591-4.965,11.417-10.178,16.008-12.41c1.552-0.756,9.473-3.599,17.415-3.929c7.942-0.332,20.184,0.66,21.012,0.66
		c0.487,0,1.141,0.058,1.601,0.106c-0.043-0.445-0.09-1.017-0.09-1.453c0-0.826-0.992-13.07-0.66-21.012
		c0.33-7.942,3.173-15.862,3.928-17.417c2.236-4.591,7.447-11.417,12.41-16.008c4.449-4.116,14.854-9.052,23.025-11.805
		c-5.393-3.868-11.134-5.327-16.391-5.184c-3.295,0.088-11.707,1.253-16.545,6.782c-3.473,3.973-4.797,8.605-4.797,8.605
		S73.349,8.34,50.241,7.809C29.709,7.341,20.58,18.264,20.173,18.693C19.409,19.496,7.699,29.395,8.168,49.93
		c0.528,23.11,13.599,29.562,13.599,29.562s-4.631,1.324-8.604,4.799C7.636,89.128,6.469,97.543,6.381,100.837z"/>
	<path fill="#6A6967" d="M236.343,123.163c-0.477-3.832-1.987-10.798-3.973-18.574c-1.416-5.554-3.266-11.376-6.824-18.78
		c-4.265-8.876-6.742-13.321-12.203-20.601c-5.46-7.282-12.316-13.619-17.95-18.738c-2.73-2.483-11.829-8.854-17.25-11.792
		c-6.586-3.569-10.921-5.942-22.707-8.934c-3.736-0.949-7.496-1.493-11.167-1.763c-4.498,7.371-6.821,15.815-7.018,22.186
		c-0.018,0.592,0.046,1.244,0.048,1.851c0.467-0.016,0.933-0.028,1.41-0.087c2.646-0.33,7.113-0.828,9.761,0.166
		c2.648,0.992,3.641,1.984,5.956,4.467c2.315,2.481,3.488,5.121,4.303,8.853c0.992,4.55,1.324,9.183-0.663,12.989
		c-1.985,3.807-6.618,10.589-8.768,14.064c-0.346,0.558-0.747,1.276-1.165,2.049c0.272,0.715,0.411,1.071,0.411,1.071l4.759,13.43
		c1.346-2.368,2.638-4.864,3.109-5.631c1.324-2.149,2.894-9.595,4.053-12.902c0.999-2.853,2.895-8.11,4.551-11.585
		c1.432-3.006,3.639-4.965,6.619-6.95c2.979-1.985,4.137-2.315,7.279-3.143c3.144-0.828,5.459-0.993,9.264-0.664
		c3.203,0.28,4.137,0.664,5.958,1.987c1.818,1.322,3.971,3.475,6.453,7.612c2.481,4.137,2.813,5.957,5.128,8.108
		c1.898,1.762,2.565,2.4,4.635,4.799c2.308,2.681,4.301,4.469,5.954,7.776c1.49,2.979,0.166,10.674,0.828,12.41
		c0.59,1.546,2.988,4.357,4.799,7.446c1.984,3.392,1.572,5.626,1.323,7.612c-0.187,1.486-4.306,6.786-8.107,8.44
		c-3.805,1.653-7.412,1.455-12.576,0.662c-5.376-0.828-8.494-1.351-12.573-3.145c-4.137-1.819-9.265-5.128-12.244-5.46
		c-2.978-0.33-4.797,0.332-6.121,1.985c-0.632,0.79-1.025,1.596-1.222,2.482l20.543,7.28c0,0,4.638,1.811,14.275,5.229
		c1.359,0.196,2.703,0.471,4.126,0.895c0.619,0.185,1.459,0.645,2.4,1.267c8.771,2.752,17.287,4.126,24.615,3.903
		c0.555-0.017,1.161-0.089,1.746-0.138c-0.058-2.008-0.127-4.121-0.161-6.619C237.933,137.18,237.129,129.491,236.343,123.163z"/>
	<path fill="#6A6967" d="M266.152,89.832c-3.971-3.475-7.942-5.46-7.942-5.46s16.995-12.872,15.388-33.259
		c-1.614-20.477-9.98-27.124-10.92-28.047c-0.584-0.574-1.224-0.718-1.565-1.393c-0.053-0.105-0.087-0.194-0.107-0.252
		c-1.045-1.177-1.401-1.563-1.401-1.563c-0.922-0.942-7.569-9.307-28.045-10.921c-20.383-1.607-33.255,15.388-33.255,15.388
		s-1.987-3.971-5.461-7.942c-3.475-3.971-11.415-9.927-21.84-9.432c-5.601,0.267-10.447,2.104-14.439,4.514
		c4.133,0.972,7.365,1.958,10.909,3.109c5.649,1.836,16.361,6.007,26.431,12.659c6.951,4.591,14.023,10.548,17.867,14.023
		c3.715,3.354,11.044,11.914,14.271,16.01c3.266,4.144,9.39,14.064,11.539,17.869c2.153,3.807,4.384,10.093,6.701,15.224
		c2.317,5.13,4.965,18.037,5.461,22.835c0.496,4.797,1.654,12.739,1.82,21.013c0.057,2.838,0.091,5.35,0.082,7.691
		c4.409-1.804,8.781-4.275,12.521-7.513c5.047-4.371,10.919-12.288,11.416-22.711C276.078,101.251,270.122,93.307,266.152,89.832z"
		/>
</g>
<g id="c3">
	<path fill="#9D9FA2" d="M223.079,155.303c-1.157-3.556-1.157-3.805-3.145-6.452c-1.984-2.647-8.081-7.855-10.589-8.604
		c-3.982-1.187-7.246-1.562-12.406-0.662c-3.807,0.662-9.1-0.662-11.747-1.159c-2.649-0.496-9.597-2.811-11.252-3.969
		c-1.654-1.159-2.896-1.49-3.473-4.303c-0.501-2.437-0.166-4.137,1.158-5.792c1.323-1.653,3.143-2.315,6.121-1.985
		c2.979,0.332,8.107,3.641,12.244,5.46c4.08,1.794,7.197,2.318,12.573,3.145c5.164,0.793,8.771,0.992,12.576-0.662
		c3.801-1.654,7.92-6.954,8.107-8.44c0.249-1.985,0.66-4.22-1.323-7.612c-1.81-3.089-4.209-5.9-4.799-7.446
		c-0.662-1.736,0.662-9.431-0.828-12.41c-1.654-3.307-3.646-5.094-5.954-7.776c-2.07-2.398-2.737-3.037-4.635-4.799
		c-2.315-2.151-2.647-3.971-5.128-8.108c-2.482-4.137-4.634-6.29-6.453-7.612c-1.821-1.324-2.755-1.708-5.958-1.987
		c-3.805-0.33-6.12-0.164-9.264,0.664c-3.143,0.828-4.301,1.158-7.279,3.143c-2.979,1.985-5.186,3.944-6.619,6.95
		c-1.656,3.475-3.552,8.732-4.551,11.585c-1.158,3.307-2.729,10.753-4.053,12.902c-0.921,1.499-4.972,9.619-6.453,10.427
		c-1.819,0.992-3.308,1.571-5.79,0.328c-1.733-0.864-1.987-3.141-1.49-6.452c0.497-3.307,4.467-11.747,6.618-15.222
		c2.15-3.475,6.783-10.257,8.768-14.064c1.987-3.807,1.655-8.44,0.663-12.989c-0.814-3.731-1.987-6.371-4.303-8.853
		c-2.315-2.483-3.309-3.475-5.956-4.467c-2.647-0.993-7.114-0.496-9.761-0.166c-2.647,0.33-5.129,0-7.611-1.158
		c-2.483-1.159-4.468-2.318-6.619-2.979c-2.152-0.662-5.127-0.166-7.94,2.649c-2.813,2.812-7.448,7.774-10.259,8.602
		c-2.812,0.828-8.437,4.303-9.762,6.948c-1.323,2.649-2.647,6.288-1.985,10.757c0.662,4.467,2.151,7.776,4.633,12.575
		c2.481,4.799,2.979,7.944,7.28,13.568c4.301,5.626,6.288,7.612,8.107,10.425c1.82,2.813,2.812,3.807,3.144,5.627
		c0.22,1.212-0.072,2.193-0.292,2.719c-0.48,0.222-1.533,0.592-2.856,0.352c-1.821-0.331-2.813-1.323-5.627-3.145
		c-2.813-1.819-4.797-3.805-10.423-8.106c-5.626-4.303-8.77-4.799-13.568-7.282c-4.797-2.483-8.107-3.971-12.574-4.633
		c-4.467-0.662-8.105,0.662-10.753,1.985c-2.647,1.324-6.122,6.95-6.95,9.763c-0.828,2.811-5.791,7.444-8.602,10.257
		c-2.813,2.815-3.311,5.792-2.649,7.944c0.662,2.15,1.82,4.137,2.977,6.618c1.158,2.481,1.489,4.963,1.16,7.612
		c-0.33,2.649-0.828,7.116,0.164,9.762c0.994,2.649,1.987,3.641,4.469,5.956c2.481,2.315,5.122,3.488,8.85,4.303
		c4.552,0.992,9.183,1.324,12.987-0.662c3.809-1.985,10.591-6.62,14.066-8.77c3.473-2.149,11.913-6.123,15.22-6.618
		c3.311-0.496,5.586-0.242,6.452,1.489c1.241,2.481,0.664,3.971-0.33,5.792c-0.81,1.479-8.925,5.529-10.425,6.452
		c-2.149,1.324-9.593,2.897-12.904,4.054c-2.849,0.995-8.107,2.896-11.581,4.548c-3.006,1.434-4.963,3.643-6.95,6.62
		c-1.984,2.977-2.316,4.137-3.141,7.28c-0.826,3.145-0.994,5.461-0.664,9.266c0.278,3.199,0.664,4.137,1.986,5.958
		c1.323,1.818,3.475,3.971,7.611,6.452c4.137,2.481,5.956,2.814,8.106,5.131c1.761,1.899,2.4,2.566,4.798,4.632
		c2.684,2.312,4.469,4.303,7.776,5.959c2.979,1.488,10.672,0.162,12.41,0.827c1.544,0.588,4.355,2.988,7.444,4.797
		c3.394,1.985,5.627,1.571,7.61,1.324c1.49-0.186,6.788-4.305,8.44-8.106c1.655-3.809,1.455-7.414,0.662-12.577
		c-0.828-5.377-1.349-8.499-3.143-12.576c-1.821-4.137-5.129-9.266-5.461-12.245c-0.33-2.979,0.332-4.797,1.986-6.121
		c1.654-1.324,3.356-1.661,5.79-1.158c2.813,0.577,3.145,1.818,4.303,3.473c1.158,1.656,3.473,8.604,3.971,11.253
		c0.496,2.645,1.82,7.942,1.157,11.747c-0.898,5.161-0.525,8.425,0.662,12.41c0.746,2.507,5.956,8.604,8.604,10.589
		c2.646,1.985,2.896,1.985,6.452,3.143c3.66,1.194,9.597,0.166,13.566-0.164c3.971-0.332,8.77-3.145,11.748-4.469
		c2.978-1.324,9.432-0.496,16.544-0.33c5.443,0.128,9.846-1.738,11.417-2.317c1.448-0.532,4.535-2.125,4.557-2.983
		c0.833,0.18,2.51-3.062,3.06-4.555c0.577-1.573,2.443-5.976,2.315-11.418c-0.164-7.113-0.994-13.566,0.33-16.544
		c1.325-2.979,4.137-7.779,4.468-11.75C223.245,164.9,224.27,158.964,223.079,155.303z M157.843,147.935
		c0,5.316-4.309,9.626-9.623,9.626c-2.618,0-4.987-1.049-6.723-2.745c-1.745,1.785-4.18,2.897-6.873,2.897
		c-5.315,0-9.623-4.31-9.623-9.626c0-2.653,1.075-5.057,2.813-6.795c-1.739-1.742-2.813-4.146-2.813-6.798
		c0-5.314,4.308-9.624,9.623-9.624c2.654,0,5.056,1.075,6.798,2.811c1.74-1.737,4.143-2.814,6.798-2.814
		c5.314,0,9.623,4.31,9.623,9.626c0,2.617-1.048,4.986-2.743,6.721C156.795,142.95,157.843,145.32,157.843,147.935z"/>
</g>
<g id="c4">
	<path fill="#353333" d="M141.422,127.693c-1.742-1.737-4.144-2.812-6.799-2.812c-5.314,0-9.623,4.31-9.623,9.625
		c0,2.652,1.075,5.057,2.813,6.798c-1.738,1.738-2.813,4.142-2.813,6.795c0,5.316,4.308,9.626,9.623,9.626
		c2.694,0,5.128-1.111,6.874-2.896c1.735,1.695,4.104,2.745,6.723,2.745c5.314,0,9.623-4.31,9.623-9.626
		c0-2.615-1.048-4.984-2.743-6.721c1.695-1.735,2.743-4.104,2.743-6.721c0-5.316-4.309-9.626-9.623-9.626
		C145.566,124.88,143.163,125.956,141.422,127.693z"/>
</g>
<g id="c5">
	<path fill="#353333" d="M123.03,9.603c-8.189,1.861-22.994,8.272-28.539,13.402c-4.963,4.591-10.174,11.417-12.41,16.008
		c-0.754,1.554-3.598,9.475-3.928,17.416c-0.332,7.942,0.66,20.187,0.66,21.012c0,0.436,0.047,1.008,0.09,1.453
		c-0.46-0.049-1.115-0.106-1.601-0.106c-0.828,0-13.07-0.992-21.012-0.66c-7.942,0.33-15.862,3.174-17.415,3.929
		c-4.591,2.232-11.417,7.446-16.008,12.41c-5.129,5.545-11.538,20.352-13.4,28.543c-1.648,7.253-0.745,19.856-0.745,19.856
		c1.986,12.533,3.558,17.952,5.707,24.57c1.838,5.649,6.003,16.361,12.657,26.431c4.591,6.95,10.548,14.024,14.022,17.871
		c3.352,3.713,11.913,11.045,16.008,14.271c4.142,3.268,14.062,9.392,17.869,11.543c3.805,2.151,10.091,4.384,15.22,6.701
		c5.129,2.317,18.035,4.964,22.833,5.46c4.797,0.496,12.738,1.654,21.012,1.819c8.271,0.166,13.896,0.166,20.02-0.66
		c6.12-0.83,12.078-1.822,15.22-2.483c3.144-0.662,5.626-1.491,7.61-0.828c1.987,0.662,1.821,2.647,0.829,4.137
		c-0.995,1.49-4.303,2.151-5.958,2.978c-1.655,0.828-7.94,2.153-11.249,3.807c-3.309,1.655-5.006,3.268-5.46,4.8
		c-1.057,3.556,1.573,8.021,3.307,9.266c1.688,1.205,4.593,2.481,7.779,3.307c4.162,1.082,14.889,0.662,20.515,0.166
		c5.625-0.496,11.913-1.241,16.71-3.145c9.788-3.881,30.319-14.311,32.304-15.469c1.986-1.16,2.276,0.743,1.778,1.9
		c-0.494,1.158-1.404,7.655-1.778,11.625c-0.361,3.848-0.249,12.535-0.249,12.535l14.498,0.02c0,0-1.221-9.121-0.393-15.076
		c0.827-5.958,3.309-15.39,3.309-15.39l0.189-0.023c0,0,9.432-2.483,15.386-3.309c5.958-0.828,15.08,0.393,15.08,0.393l-0.022-14.5
		c0,0-8.688-0.11-12.533,0.247c-3.971,0.375-10.464,1.284-11.624,1.782c-1.158,0.498-3.059,0.206-1.903-1.782
		c1.16-1.984,11.59-22.518,15.471-32.305c1.901-4.801,2.647-11.087,3.144-16.711c0.496-5.628,0.918-16.354-0.164-20.519
		c-0.83-3.186-2.104-6.089-3.311-7.777c-1.241-1.739-5.708-4.366-9.266-3.309c-1.529,0.456-3.141,2.151-4.796,5.46
		c-1.656,3.309-2.98,9.597-3.806,11.251c-0.827,1.655-1.489,4.962-2.978,5.958c-1.49,0.992-3.474,1.158-4.137-0.83
		c-0.66-1.983,0.166-4.465,0.827-7.61c0.662-3.144,1.654-9.1,2.481-15.224c0.828-6.121,0.828-11.747,0.662-20.02
		c-0.166-8.274-1.324-16.216-1.819-21.012c-0.496-4.799-3.144-17.705-5.461-22.835c-2.317-5.131-4.548-11.417-6.701-15.224
		c-2.149-3.805-8.273-13.725-11.539-17.869c-3.228-4.095-10.557-12.655-14.271-16.01c-3.845-3.475-10.917-9.431-17.867-14.023
		c-10.07-6.652-20.781-10.823-26.431-12.659c-6.617-2.149-12.037-3.722-24.57-5.709C142.885,8.856,130.283,7.955,123.03,9.603z
		 M155.418,25.735c11.787,2.992,16.122,5.365,22.708,8.934c5.42,2.938,14.52,9.309,17.25,11.792
		c5.634,5.12,12.49,11.457,17.95,18.738c5.461,7.28,7.938,11.725,12.203,20.601c3.558,7.404,5.408,13.226,6.824,18.78
		c1.986,7.776,3.497,14.742,3.973,18.574c0.786,6.328,1.59,14.018,1.612,15.511c0.123,8.936,0.704,13.072-0.455,24.325
		c-1.157,11.251-3.805,26.805-5.626,31.768c-1.82,4.963-3.434,8.23-5.089,11.047c-1.652,2.811-4.343,6.326-5.086,8.934
		c-0.682,2.386,0.247,4.093,1.861,5.585c2.773,2.559,4.959,2.189,7.57,0.745c3.061-1.695,9.183-6.288,13.813-11.749
		c4.634-5.459,9.431-9.68,10.755-8.853c1.323,0.826,2.072,1.852,1.118,4.715c-0.869,2.608-2.654,5.066-3.973,7.695
		c-1.737,3.475-5.708,11.292-6.577,13.031c-3.482,6.965-5.803,13.457-6.091,14.268l-0.052-0.056c0,0-6.905,2.398-14.353,6.122
		c-1.738,0.869-9.556,4.84-13.031,6.577c-2.629,1.316-5.087,3.104-7.693,3.971c-2.864,0.954-3.888,0.207-4.716-1.116
		c-0.828-1.324,3.392-6.123,8.853-10.755c5.46-4.633,10.05-10.755,11.747-13.817c1.444-2.607,1.814-4.797-0.745-7.57
		c-1.489-1.612-3.197-2.543-5.585-1.861c-2.604,0.745-6.12,3.434-8.934,5.089c-2.813,1.653-6.081,3.268-11.043,5.087
		c-4.962,1.82-20.516,4.467-31.767,5.624c-11.251,1.158-15.388,0.581-24.321,0.455c-1.495-0.018-9.184-0.826-15.51-1.612
		c-3.832-0.474-10.798-1.983-18.574-3.971c-5.552-1.417-11.375-3.268-18.778-6.824c-8.874-4.267-13.319-6.745-20.599-12.205
		c-7.278-5.46-13.615-12.32-18.736-17.954c-2.481-2.73-8.853-11.83-11.79-17.249c-3.567-6.587-5.94-10.923-8.934-22.709
		c-1.984-7.819-2.285-15.765-1.737-22.711c0.371-4.716,2.162-11.364,5.087-16.63c4.667-8.398,6.413-9.909,9.68-12.904
		c1.488-1.367,6.784-5.589,13.153-7.446c2.977-0.869,10.134-1.035,14.27-0.869c4.135,0.166,13.566,2.315,15.554,2.979
		c1.985,0.662,6.871,2.894,13.566,7.28c5.749,3.764,8.474,6.378,10.216,7.487c1.365,0.869,5.583,5.212,7.073,5.46
		c2.851,0.475,3.102,0.124,3.102,0.124l1.825-0.518l0.289-0.124l0.518-1.823c0,0,0.352-0.252-0.124-3.103
		c-0.249-1.488-4.591-5.708-5.46-7.073c-1.107-1.744-3.722-4.467-7.487-10.218c-4.384-6.696-6.616-11.583-7.278-13.568
		c-0.662-1.986-2.813-11.417-2.979-15.554c-0.166-4.137,0-11.292,0.869-14.271c1.855-6.368,6.081-11.664,7.446-13.155
		c2.995-3.268,4.506-5.013,12.903-9.678c5.266-2.925,11.915-4.716,16.63-5.089C139.657,23.449,147.602,23.75,155.418,25.735z"/>
	<line fill="#FFFFFF" stroke="#020202" stroke-width="1.6667" x1="86.929" y1="69.06" x2="86.797" y2="69.06"/>
</g>
</svg>
