<?xml version="1.0" encoding="utf-8"?>
<!-- Generator: Adobe Illustrator 22.0.0, SVG Export Plug-In . SVG Version: 6.00 Build 0)  -->
<svg version="1.1" xmlns="http://www.w3.org/2000/svg" xmlns:xlink="http://www.w3.org/1999/xlink" x="0px" y="0px"
	 viewBox="0 0 283.5 283.5" enable-background="new 0 0 283.5 283.5" xml:space="preserve">
<g id="c1">
	<rect y="0" fill="#DEDEDE" width="283.465" height="283.465"/>
</g>
<g id="c4">
	<rect id="_x3C_Slice_x3E__18_" x="212.295" y="132.687" fill="none" width="1.365" height="1.381"/>
	<rect id="_x3C_Slice_x3E__17_" x="212.277" y="132.669" fill="none" width="1.365" height="1.381"/>
	<rect id="_x3C_Slice_x3E__16_" x="212.295" y="131.771" fill="none" width="1.365" height="1.381"/>
	<rect id="_x3C_Slice_x3E__15_" x="212.295" y="132.687" fill="none" width="1.365" height="1.381"/>
	<rect id="_x3C_Slice_x3E__14_" x="212.295" y="132.687" fill="none" width="1.365" height="1.381"/>
	<rect id="_x3C_Slice_x3E__13_" x="212.295" y="132.687" fill="none" width="1.365" height="1.381"/>
	<path fill="#353333" d="M237.435,283.491h46.053v-46.025C268.137,252.808,252.786,268.15,237.435,283.491z"/>
</g>
<g id="c3">
	<rect id="_x3C_Slice_x3E__12_" x="212.277" y="133.135" fill="none" width="1.365" height="1.381"/>
	<rect id="_x3C_Slice_x3E__11_" x="212.259" y="133.117" fill="none" width="1.365" height="1.381"/>
	<rect id="_x3C_Slice_x3E__10_" x="212.277" y="132.219" fill="none" width="1.365" height="1.381"/>
	<rect id="_x3C_Slice_x3E__9_" x="212.277" y="133.135" fill="none" width="1.365" height="1.381"/>
	<rect id="_x3C_Slice_x3E__8_" x="212.277" y="133.135" fill="none" width="1.365" height="1.381"/>
	<rect id="_x3C_Slice_x3E__3_" x="212.277" y="133.135" fill="none" width="1.365" height="1.381"/>
	<g>
		<path fill="#9D9FA2" d="M147.168,283.491c15.088-15.069,29.983-30.066,45.071-45.135c15.018,15.052,30.175,30.087,45.192,45.139
			C207.326,283.512,177.274,283.474,147.168,283.491z"/>
	</g>
	<g>
		<path fill="#9D9FA2" d="M283.488,147.171c-15.069,15.088-30.066,29.983-45.135,45.071c15.052,15.018,30.087,30.175,45.139,45.192
			C283.509,207.329,283.471,177.278,283.488,147.171z"/>
	</g>
</g>
<g id="c2">
	<rect id="_x3C_Slice_x3E__2_" x="212.277" y="133.135" fill="none" width="1.365" height="1.381"/>
	<rect id="_x3C_Slice_x3E__1_" x="212.259" y="133.117" fill="none" width="1.365" height="1.381"/>
	<rect id="_x3C_Slice_x3E__4_" x="212.277" y="132.219" fill="none" width="1.365" height="1.381"/>
	<rect id="_x3C_Slice_x3E__5_" x="212.277" y="133.135" fill="none" width="1.365" height="1.381"/>
	<rect id="_x3C_Slice_x3E__6_" x="212.277" y="133.135" fill="none" width="1.365" height="1.381"/>
	<rect id="_x3C_Slice_x3E__7_" x="212.277" y="133.135" fill="none" width="1.365" height="1.381"/>
	<path fill="#6A6967" d="M238.381,192.364c15.009,15.031,30.098,30.071,45.107,45.103c-15.336,15.344-30.717,30.68-46.053,46.025
		c-15.054-15.045-30.142-30.09-45.196-45.135C207.62,223.025,223,207.694,238.381,192.364z"/>
</g>
<g id="c5">
	<rect id="_x3C_Slice_x3E__24_" x="212.277" y="132.687" fill="none" width="1.365" height="1.381"/>
	<rect id="_x3C_Slice_x3E__23_" x="212.259" y="132.669" fill="none" width="1.365" height="1.381"/>
	<rect id="_x3C_Slice_x3E__22_" x="212.277" y="131.771" fill="none" width="1.365" height="1.381"/>
	<rect id="_x3C_Slice_x3E__21_" x="212.277" y="132.687" fill="none" width="1.365" height="1.381"/>
	<rect id="_x3C_Slice_x3E__20_" x="212.277" y="132.687" fill="none" width="1.365" height="1.381"/>
	<rect id="_x3C_Slice_x3E__19_" x="212.277" y="132.687" fill="none" width="1.365" height="1.381"/>
	<g>
		<path fill="#6A6967" d="M111.743,283.479c0-11.801,0-23.603,0-35.404c11.808,11.808,23.617,23.617,35.425,35.425
			C135.36,283.493,123.551,283.486,111.743,283.479z"/>
	</g>
	<g>
		<path fill="#6A6967" d="M283.475,111.746c-11.801,0-23.603,0-35.404,0c11.808,11.808,23.617,23.617,35.425,35.425
			C283.49,135.363,283.482,123.555,283.475,111.746z"/>
	</g>
</g>
<g id="c6">
	<rect id="_x3C_Slice_x3E__30_" x="212.277" y="133.135" fill="none" width="1.365" height="1.381"/>
	<rect id="_x3C_Slice_x3E__29_" x="212.259" y="133.117" fill="none" width="1.365" height="1.381"/>
	<rect id="_x3C_Slice_x3E__28_" x="212.277" y="132.219" fill="none" width="1.365" height="1.381"/>
	<rect id="_x3C_Slice_x3E__27_" x="212.277" y="133.135" fill="none" width="1.365" height="1.381"/>
	<rect id="_x3C_Slice_x3E__26_" x="212.277" y="133.135" fill="none" width="1.365" height="1.381"/>
	<rect id="_x3C_Slice_x3E__25_" x="212.277" y="133.135" fill="none" width="1.365" height="1.381"/>
	<path fill="#353333" d="M283.401,46.249c-0.007-15.338-0.014-30.676-0.021-46.014c0,0-137.932-0.024-141.77,0
		c-23.578,23.563-47.156,47.125-70.734,70.688C47.251,94.532,23.625,118.142,0,141.751c0,47.238,0,94.475,0,141.713
		c15.351,0,30.702,0,46.053,0c0.006-32.567,0.011-65.133,0.017-97.7c15.517-15.55,31.035-31.099,46.552-46.649
		c33.183,33.076,66.435,66.164,99.617,99.24c7.932-7.949,15.806-15.901,23.762-23.829c7.428-7.403,14.934-14.782,22.38-22.163
		c-33.192-33.107-66.452-66.227-99.644-99.335c15.601-15.593,31.201-31.187,46.802-46.78
		C218.16,46.249,250.78,46.249,283.401,46.249z"/>
	<path fill="#FFFFFF" stroke="#000000" stroke-width="1.6667" stroke-miterlimit="10" d="M94.384,47.268"/>
	<path fill="#FFFFFF" stroke="#000000" stroke-width="1.6667" stroke-miterlimit="10" d="M47.617,47.792"/>
</g>
<g id="c7">
	<rect id="_x3C_Slice_x3E__36_" x="211.977" y="133.135" fill="none" width="1.365" height="1.381"/>
	<rect id="_x3C_Slice_x3E__35_" x="211.96" y="133.117" fill="none" width="1.365" height="1.381"/>
	<rect id="_x3C_Slice_x3E__34_" x="211.977" y="132.219" fill="none" width="1.365" height="1.381"/>
	<rect id="_x3C_Slice_x3E__33_" x="211.977" y="133.135" fill="none" width="1.365" height="1.381"/>
	<rect id="_x3C_Slice_x3E__32_" x="211.977" y="133.135" fill="none" width="1.365" height="1.381"/>
	<rect id="_x3C_Slice_x3E__31_" x="211.977" y="133.135" fill="none" width="1.365" height="1.381"/>
	<path fill="#FFFFFF" stroke="#000000" stroke-width="1.6667" stroke-miterlimit="10" d="M95.863,48.728"/>
	<path fill="#FFFFFF" stroke="#000000" stroke-width="1.6667" stroke-miterlimit="10" d="M49.097,49.252"/>
	<path fill="#6A6967" d="M44.361,44.363c17.713-0.01,35.425-0.02,53.138-0.03C79.776,62.045,62.054,79.757,44.331,97.468
		C44.341,79.767,44.351,62.065,44.361,44.363z"/>
</g>
<g id="c8">
	<path fill="#9D9FA2" d="M0.095,0.096C0.1,17.766,0.105,35.435,0.11,53.104c14.719,14.736,29.485,29.817,44.203,44.553
		c0.01-17.702,0.037-35.593,0.047-53.295C29.627,29.659,14.828,14.8,0.095,0.096z"/>
	<path fill="#FFFFFF" stroke="#000000" stroke-width="1.6667" stroke-miterlimit="10" d="M94.384,47.866"/>
	<path fill="#FFFFFF" stroke="#000000" stroke-width="1.6667" stroke-miterlimit="10" d="M47.617,48.39"/>
</g>
<g id="c9">
	<path fill="#353333" d="M0,0c17.68,0.005,35.441,0.181,53.121,0.186c14.745,14.71,29.49,29.42,44.236,44.129
		c-17.713,0.01-35.283,0.037-52.996,0.047C29.648,29.638,14.713,14.725,0,0z"/>
	<path fill="#FFFFFF" stroke="#000000" stroke-width="1.6667" stroke-miterlimit="10" d="M94.396,47.277"/>
	<path fill="#FFFFFF" stroke="#000000" stroke-width="1.6667" stroke-miterlimit="10" d="M47.629,47.801"/>
</g>
</svg>
