<?xml version="1.0" encoding="utf-8"?>
<!-- Generator: Adobe Illustrator 22.0.0, SVG Export Plug-In . SVG Version: 6.00 Build 0)  -->
<svg version="1.1" xmlns="http://www.w3.org/2000/svg" xmlns:xlink="http://www.w3.org/1999/xlink" x="0px" y="0px"
	 viewBox="0 0 283.5 283.5" enable-background="new 0 0 283.5 283.5" xml:space="preserve">
<g id="c1">
	<rect y="0.233" fill="#DEDEDE" width="283.132" height="283.267"/>
</g>
<g id="c2">
	<rect id="_x3C_Slice_x3E__2_" x="212.277" y="133.135" fill="none" width="1.365" height="1.381"/>
	<rect id="_x3C_Slice_x3E__1_" x="212.259" y="133.117" fill="none" width="1.365" height="1.381"/>
	<rect id="_x3C_Slice_x3E__4_" x="212.277" y="132.219" fill="none" width="1.365" height="1.381"/>
	<rect id="_x3C_Slice_x3E__5_" x="212.277" y="133.135" fill="none" width="1.365" height="1.381"/>
	<rect id="_x3C_Slice_x3E__6_" x="212.277" y="133.135" fill="none" width="1.365" height="1.381"/>
	<rect id="_x3C_Slice_x3E__7_" x="212.277" y="133.135" fill="none" width="1.365" height="1.381"/>
	<path fill="#6A6967" d="M283.149,283.482v-40.946c-1.558-1.937-3.869-4.051-5.089-8.175c-1.329-4.494-8.066-8.091-6.319-16.071
		c2.487-11.36,7.298-22.986,7.271-25.639c-0.079-7.861,1.757-2.199,1.472-12.912c-0.033-1.23-0.092-4.609-1.039-8.918
		c-0.672-3.058-1.829-8.33-4.501-8.918c-1.777-0.391-2.704,1.625-3.809,1.115c-1.935-0.894-0.143-7.56-0.692-17.464
		c-0.303-5.469-0.668-5.175-2.597-6.967c-2.785-2.587-5.147-3.149-8.57-0.836c-4.215,2.848-6.46,5.254-9.608,5.945
		c-2.411,0.529-1.374-1.145-6.234-3.51c-6.388-3.108-14.346-3.141-16.618-2.806c-3.05,0.449-1.892,0.952-2.857,1.765
		c-5.745,4.846-1.337,18.527-6.838,23.13c-1.911,1.599-4.917,1.714-8.656,1.858c-4.572,0.175-3.762-0.083-5.54,0.929
		c-3.621,2.061-1.951,6.947-0.26,12.541c0.362,1.198,12.945,7.977,14.333,11.983c1.003,2.894,0.572,9.335,1.161,15.42
		c0.218,2.247,1.143,3.798,1.97,5.183c4.384,7.346,13.018,9.278,16.728,10.052c5.719,1.193,5.637-0.238,10.387,0.743
		c2.176,0.449,12.886,2.958,18.697,13.005c4.011,6.935,6.589,19.017,1.385,23.781c-4.916,4.5-14.219,0.13-17.658-1.486
		c-2.03-0.954-10.145-4.915-14.196-14.12c-2.761-6.274-4.888-11.054-6.838-16.628c-4.616-13.196-18.042-8.002-29.604-23.688
		c-4.272-5.796-0.727-6.748-7.185-9.475c-0.832-0.352-11.836-3.391-14.629-0.557c-2.726,2.766,0.891,13.295-1.558,14.77
		c-2.118,1.275-11.265,7.941-13.763,8.082c-10.387,0.584-8.494,2.217-10.483,4.273c-2.32,2.398,6.809,8.614,3.385,19.693
		c-1.314,4.251-8.25,8.337-8.443,12.638c-0.515,11.492,32.961-1.999,40.99,11.329c3.192,5.299,12.198,6.409,20.188,5.909
		c11.728-0.733,11.892-0.986,16.73-2.998c10.766-4.478,21.794-1.324,24.713,6.378c1.703,4.492,7.627,7.573,9.695,11.592H283.149z"/>
	<path fill="#FFFFFF" stroke="#000000" stroke-width="3.3333" stroke-miterlimit="10" d="M283.482,0.215"/>
	<path fill="#FFFFFF" stroke="#000000" stroke-width="3.3333" stroke-miterlimit="10" d="M283.18,84.445"/>
</g>
<g id="c3">
	<path fill="#FFFFFF" stroke="#000000" stroke-width="3.3333" stroke-miterlimit="10" d="M120.053,283.482"/>
	<path fill="#353333" d="M105.07,283.482C105.069,89.885,199.293,0.215,199.293,0.215h15.648c0,0-97.552,105.159-94.888,283.267
		H105.07z"/>
	<path fill="#FFFFFF" stroke="#000000" stroke-width="3.3333" stroke-miterlimit="10" d="M283.482,0.215"/>
	<path fill="#FFFFFF" stroke="#000000" stroke-width="3.3333" stroke-miterlimit="10" d="M283.18,84.445"/>
	<path fill="#FFFFFF" stroke="#000000" stroke-width="3.3333" stroke-miterlimit="10" d="M57.653,235.086"/>
	
		<line fill="#FFFFFF" stroke="#000000" stroke-width="3.3333" stroke-miterlimit="10" x1="0.018" y1="283.482" x2="0.018" y2="283.482"/>
</g>
<g id="c4">
	<path fill="#6A6967" d="M283.18,84.445C133.93,207.664,0.018,178.642,0.018,178.642v-13.81c0,0,147.48,19.371,283.094-96.044
		L283.18,84.445z"/>
	<path fill="#FFFFFF" stroke="#000000" stroke-width="3.3333" stroke-miterlimit="10" d="M283.482,0.215"/>
	<path fill="#FFFFFF" stroke="#000000" stroke-width="3.3333" stroke-miterlimit="10" d="M283.18,84.445"/>
	<path fill="#FFFFFF" stroke="#000000" stroke-width="3.3333" stroke-miterlimit="10" d="M57.653,235.086"/>
</g>
<g id="c5">
	<path fill="#353333" d="M283.149,0.164l-29.928-0.147c-0.825,7.364,2.609,12.713-0.597,18.292
		c-4.221,7.343-19.424,2.522-31.159,9.031c-8.105,4.495-8.29,25.619-2.589,33.03c5.438,7.071,27.266,6.3,35.168,1.606
		c11.743-6.976-2.29-27.863,5.186-33.353c6.318-4.639,16.688,1.548,23.92,1.482V0.164z"/>
	<path fill="#FFFFFF" stroke="#000000" stroke-width="3.3333" stroke-miterlimit="10" d="M283.482,0.215"/>
	<path fill="#FFFFFF" stroke="#000000" stroke-width="3.3333" stroke-miterlimit="10" d="M283.18,84.445"/>
	
		<line fill="#FFFFFF" stroke="#000000" stroke-width="3.3333" stroke-miterlimit="10" x1="0.018" y1="283.482" x2="0.018" y2="283.482"/>
</g>
<g id="c6">
	<path fill="#FFFFFF" stroke="#000000" stroke-width="3.3333" stroke-miterlimit="10" d="M283.482,0.215"/>
	<path fill="#FFFFFF" stroke="#000000" stroke-width="3.3333" stroke-miterlimit="10" d="M283.18,84.445"/>
	<path fill="#FFFFFF" stroke="#000000" stroke-width="3.3333" stroke-miterlimit="10" d="M57.653,235.086"/>
	
		<line fill="#FFFFFF" stroke="#000000" stroke-width="3.3333" stroke-miterlimit="10" x1="0.018" y1="283.482" x2="0.018" y2="283.482"/>
	<path fill="#6A6967" d="M66.773,212.837C46.92,195.829,8.246,270.734,10.386,273.35C13.421,277.058,87.331,230.45,66.773,212.837z"
		/>
</g>
<g id="c7">
	<path fill="#353333" d="M0.294,0.215v36.707c1.498,1.736,3.721,3.632,4.893,7.328c1.278,4.029,7.756,7.253,6.076,14.407
		C8.872,68.841,4.246,79.263,4.272,81.641c0.076,7.047-1.689,1.971-1.415,11.575c0.031,1.102,0.089,4.132,0.999,7.994
		c0.646,2.742,1.759,7.468,4.328,7.994c1.709,0.35,2.6-1.457,3.662-0.999c1.861,0.801,0.138,6.777,0.666,15.656
		c0.292,4.903,0.642,4.639,2.497,6.246c2.678,2.319,4.949,2.823,8.24,0.749c4.053-2.553,6.212-4.71,9.239-5.33
		c2.318-0.474,1.321,1.026,5.995,3.147c6.142,2.786,13.795,2.815,15.979,2.516c2.933-0.402,1.82-0.853,2.747-1.582
		c5.524-4.344,1.286-16.609,6.576-20.736c1.837-1.434,4.728-1.537,8.324-1.666c4.397-0.157,3.618,0.074,5.327-0.833
		c3.482-1.848,1.876-6.228,0.25-11.242c-0.349-1.074-12.448-7.151-13.783-10.743c-0.964-2.594-0.55-8.369-1.116-13.824
		c-0.209-2.015-1.099-3.404-1.894-4.646c-4.216-6.585-12.518-8.317-16.085-9.011c-5.499-1.069-5.42,0.213-9.988-0.666
		c-2.093-0.403-12.391-2.651-17.979-11.659c-3.857-6.217-6.335-17.048-1.332-21.318c4.727-4.034,13.673-0.116,16.98,1.332
		c1.952,0.855,9.755,4.406,13.651,12.658c2.655,5.625,2.825,4.912,4.7,9.909c4.439,11.829,19.641,8.34,30.758,22.402
		c4.108,5.196,0.283,9.88,6.492,12.325c0.8,0.315,11.381,3.039,14.067,0.5c2.622-2.479,1.373-9.826,1.373-9.826
		c0.791-1.915,3.746-8.158,6.149-8.284c9.988-0.524,11.517-1.207,13.095-3.344c4.245-5.746-3.531-4.374-3.637-14.77
		c-0.1-9.798,7.018-18.087,2.881-17.987c-13.817,0.333-20.526-2.38-29.599-9.244c-4.618-3.493-9.239-4.663-15.981-7.495
		c-7.787-3.27-7.824-1.832-15.149,0.5c-10.611,3.378-25.326,5.572-28.134-1.332C31.518,6.58,25.82,3.818,23.832,0.215H0.294z"/>
	
		<line fill="#FFFFFF" stroke="#000000" stroke-width="3.3333" stroke-miterlimit="10" x1="0.018" y1="283.482" x2="0.018" y2="283.482"/>
</g>
</svg>
