<?xml version="1.0" encoding="utf-8"?>
<!-- Generator: Adobe Illustrator 22.0.0, SVG Export Plug-In . SVG Version: 6.00 Build 0)  -->
<svg version="1.1" xmlns="http://www.w3.org/2000/svg" xmlns:xlink="http://www.w3.org/1999/xlink" x="0px" y="0px"
	 viewBox="0 0 330.738 283.5" enable-background="new 0 0 330.738 283.5" xml:space="preserve">
<g id="c1">
	<polygon fill="#9D9FA2" points="248.053,0.018 82.684,0.018 0,141.75 82.684,283.482 248.053,283.482 330.738,141.75 	"/>
</g>
<g id="c2">
	<path fill="#58585A" d="M165.369,283.473C164.593,205.539,79.044,142.515,0,141.75l82.685,141.732L165.369,283.473z"/>
</g>
<g id="c3">
	<path fill="#58585A" d="M165.369,283.473c0.776-77.934,86.325-140.958,165.369-141.723l-82.684,141.732L165.369,283.473z"/>
</g>
<g id="c4">
	<path fill="#58585A" d="M165.369,0.027c0.776,77.934,86.325,140.958,165.369,141.723L248.053,0.018L165.369,0.027z"/>
</g>
<g id="c5">
	<path fill="#58585A" d="M165.369,0.027C164.593,77.961,79.044,140.985,0,141.75L82.684,0.018L165.369,0.027z"/>
</g>
</svg>
