<?xml version="1.0" encoding="utf-8"?>
<!-- Generator: Adobe Illustrator 22.0.0, SVG Export Plug-In . SVG Version: 6.00 Build 0)  -->
<svg version="1.1" xmlns="http://www.w3.org/2000/svg" xmlns:xlink="http://www.w3.org/1999/xlink" x="0px" y="0px"
	 viewBox="0 0 330.738 283.5" enable-background="new 0 0 330.738 283.5" xml:space="preserve">
<g id="c9">
	<polygon fill="#DEDEDE" points="248.046,0.018 82.692,0.018 0.015,141.75 82.692,283.482 248.046,283.482 330.723,141.75 	"/>
</g>
<g id="c1">
	<polygon fill="#6A6967" points="224.222,249.728 204.532,283.482 243.912,283.482 	"/>
	<polygon fill="#6A6967" points="106.516,249.728 86.826,283.482 126.206,283.482 	"/>
	<polygon fill="#6A6967" points="289.276,145.293 308.966,179.048 328.656,145.293 	"/>
	<polygon fill="#6A6967" points="230.423,246.184 250.113,279.939 269.803,246.184 	"/>
	<polygon fill="#6A6967" points="230.423,37.316 269.803,37.316 250.113,3.561 	"/>
	<polygon fill="#6A6967" points="289.276,138.207 328.656,138.207 308.966,104.452 	"/>
	<polygon fill="#6A6967" points="106.516,33.772 126.206,0.018 86.826,0.018 	"/>
	<polygon fill="#6A6967" points="224.222,33.772 243.912,0.018 204.532,0.018 	"/>
	<polygon fill="#6A6967" points="41.462,138.207 21.772,104.452 2.082,138.207 	"/>
	<polygon fill="#6A6967" points="100.315,37.316 80.625,3.561 60.935,37.316 	"/>
	<polygon fill="#6A6967" points="100.315,246.184 60.935,246.184 80.625,279.939 	"/>
	<polygon fill="#6A6967" points="41.462,145.293 2.082,145.293 21.772,179.048 	"/>
</g>
<g id="c2">
	<polygon fill="#353333" points="165.369,249.728 145.679,283.482 185.059,283.482 	"/>
	<polygon fill="#353333" points="259.85,195.739 279.54,229.493 299.23,195.739 	"/>
	<polygon fill="#353333" points="259.85,87.761 299.23,87.761 279.54,54.007 	"/>
	<polygon fill="#353333" points="165.369,33.772 185.059,0.018 145.679,0.018 	"/>
	<polygon fill="#353333" points="70.888,87.761 51.198,54.007 31.508,87.761 	"/>
	<polygon fill="#353333" points="70.888,195.739 31.508,195.739 51.198,229.493 	"/>
</g>
<g id="c3">
	<polygon fill="#9D9FA2" points="135.943,199.282 116.252,233.037 135.943,266.791 155.633,233.037 	"/>
	<polygon fill="#9D9FA2" points="200.997,87.761 240.377,87.761 260.067,54.007 220.687,54.007 	"/>
	<polygon fill="#9D9FA2" points="194.796,84.218 214.486,50.463 194.796,16.709 175.106,50.463 	"/>
	<polygon fill="#9D9FA2" points="129.742,195.739 90.362,195.739 70.671,229.493 110.052,229.493 	"/>
</g>
<g id="c4">
	<polygon fill="#9D9FA2" points="194.796,199.689 175.105,233.443 194.796,267.198 214.486,233.443 	"/>
	<polygon fill="#9D9FA2" points="200.996,196.146 220.686,229.9 260.067,229.9 240.377,196.146 	"/>
	<polygon fill="#9D9FA2" points="135.942,84.625 155.633,50.87 135.942,17.116 116.252,50.87 	"/>
	<polygon fill="#9D9FA2" points="129.742,88.168 110.051,54.413 70.671,54.413 90.361,88.168 	"/>
</g>
<g id="c5">
	<polygon fill="#9D9FA2" points="230.423,145.293 250.113,179.048 289.493,179.048 269.803,145.293 	"/>
	<polygon fill="#9D9FA2" points="230.423,138.207 269.803,138.207 289.493,104.452 250.113,104.452 	"/>
	<polygon fill="#9D9FA2" points="100.315,138.207 80.625,104.452 41.245,104.452 60.935,138.207 	"/>
	<polygon fill="#9D9FA2" points="100.315,145.293 60.935,145.293 41.245,179.048 80.625,179.048 	"/>
</g>
<g id="c6">
	<polygon fill="#6A6967" points="165.369,149.243 145.679,182.998 165.369,216.752 185.059,182.998 	"/>
	<polygon fill="#6A6967" points="165.369,135.07 185.059,101.316 165.369,67.561 145.679,101.316 	"/>
</g>
<g id="c7">
	<polygon fill="#6A6967" points="171.391,145.311 191.082,179.066 230.462,179.066 210.772,145.311 	"/>
	<polygon fill="#6A6967" points="158.99,138.224 139.3,104.47 99.919,104.47 119.61,138.224 	"/>
</g>
<g id="c8">
	<polygon fill="#6A6967" points="170.718,138.736 210.098,138.736 229.789,104.982 190.408,104.982 	"/>
	<polygon fill="#6A6967" points="158.317,145.823 118.936,145.823 99.246,179.577 138.626,179.577 	"/>
</g>
</svg>
