<?xml version="1.0" encoding="utf-8"?>
<!-- Generator: Adobe Illustrator 22.0.0, SVG Export Plug-In . SVG Version: 6.00 Build 0)  -->
<svg version="1.1" xmlns="http://www.w3.org/2000/svg" xmlns:xlink="http://www.w3.org/1999/xlink" x="0px" y="0px"
	 viewBox="0 0 330.738 283.5" enable-background="new 0 0 330.738 283.5" xml:space="preserve">
<g id="c1">
	<polygon fill="#7D7A78" points="330.724,141.75 248.046,283.482 82.692,283.482 0.014,141.75 82.692,0.018 248.046,0.018 	"/>
</g>
<g id="c2">
	<polygon fill="#DEDEDE" points="240.01,14.267 314.386,141.768 240.01,269.269 91.258,269.269 16.882,141.768 91.258,14.267 	"/>
</g>
<g id="c3">
	<path fill-rule="evenodd" clip-rule="evenodd" fill="#353333" d="M330.724,141.72l-20.789-35.578c0,0-8.722,19.578-29.904,35.608
		c21.182,16.03,29.904,35.608,29.904,35.608l20.789-35.578"/>
	<path fill-rule="evenodd" clip-rule="evenodd" fill="#353333" d="M82.577,283.417l-20.714-35.621c0,0,21.49,2.326,46.114-7.8
		c3.419,26.173,16.178,43.446,16.178,43.446l-41.525,0.005"/>
	<path fill-rule="evenodd" clip-rule="evenodd" fill="#353333" d="M82.617,0.061L61.893,35.675c0,0,21.491-2.32,46.112,7.813
		c3.427-26.172,16.19-43.441,16.19-43.441L82.669,0.031"/>
	<path fill-rule="evenodd" clip-rule="evenodd" fill="#353333" d="M248.221,0.118l20.699,35.629c0,0-21.489-2.335-46.117,7.781
		c-3.408-26.175-16.159-43.453-16.159-43.453l41.525,0.013"/>
	<path fill-rule="evenodd" clip-rule="evenodd" fill="#353333" d="M248.323,283.324l20.673-35.644c0,0-21.487,2.35-46.123-7.748
		c-3.389,26.177-16.128,43.464-16.128,43.464l41.525-0.042"/>
	<path fill-rule="evenodd" clip-rule="evenodd" fill="#353333" d="M0.014,141.72l20.789-35.578c0,0,8.722,19.578,29.904,35.608
		c-21.182,16.03-29.904,35.608-29.904,35.608L0.014,141.78"/>
</g>
<g id="c4">
	<path fill-rule="evenodd" clip-rule="evenodd" fill="#9D9FA2" d="M200.362,254.81c16.111-30.626,16.104-66.962-0.022-97.586
		c-3.68,2.228-7.165,4.867-10.378,7.923c-23.733,22.574-23.725,59.171,0.018,81.741C193.195,249.943,196.681,252.582,200.362,254.81
		z"/>
	<path fill-rule="evenodd" clip-rule="evenodd" fill="#9D9FA2" d="M46.463,175.022c32.209,15.323,70.421,15.322,102.624-0.006
		c-2.345-3.499-5.12-6.814-8.334-9.87c-23.742-22.57-62.228-22.568-85.961,0.005C51.58,168.207,48.806,171.522,46.463,175.022z"/>
	<path fill-rule="evenodd" clip-rule="evenodd" fill="#9D9FA2" d="M130.348,28.69c-16.11,30.625-16.103,66.961,0.022,97.586
		c3.68-2.229,7.165-4.867,10.378-7.923c23.732-22.573,23.725-59.17-0.017-81.741C137.515,33.556,134.029,30.918,130.348,28.69z"/>
	<path fill-rule="evenodd" clip-rule="evenodd" fill="#9D9FA2" d="M284.247,108.478c-32.21-15.323-70.421-15.322-102.624,0.006
		c2.343,3.5,5.12,6.814,8.332,9.87c23.743,22.57,62.229,22.568,85.962-0.005C279.131,115.293,281.904,111.979,284.247,108.478z"/>
</g>
<g id="c5">
	<path fill-rule="evenodd" clip-rule="evenodd" fill="#6A6967" d="M118.732,197.126c-1.781,19.807,2.112,39.989,11.679,58.161
		c3.681-2.228,7.166-4.867,10.379-7.923c17.446-16.595,22.062-40.766,13.853-61.373l-0.013,0.006
		C143.169,191.451,131.059,195.161,118.732,197.126z"/>
	<path fill-rule="evenodd" clip-rule="evenodd" fill="#6A6967" d="M107.626,97.868c-20.83-1.698-42.054,2.001-61.162,11.097
		c2.344,3.5,5.119,6.814,8.333,9.87c17.453,16.593,42.874,20.986,64.545,13.182l-0.007-0.013
		C113.597,121.106,109.693,109.59,107.626,97.868z"/>
	<path fill-rule="evenodd" clip-rule="evenodd" fill="#6A6967" d="M212.003,87.354c1.79-19.818-2.102-40.012-11.675-58.194
		c-3.68,2.229-7.165,4.867-10.378,7.924c-17.447,16.593-22.063,40.765-13.853,61.372l0.012-0.006
		C187.539,93.009,199.651,89.31,212.003,87.354z"/>
	<path fill-rule="evenodd" clip-rule="evenodd" fill="#6A6967" d="M223.112,186.579c20.829,1.698,42.053-2.001,61.162-11.097
		c-2.345-3.5-5.12-6.814-8.334-9.87c-17.452-16.592-42.873-20.985-64.543-13.182l0.007,0.012
		C217.141,163.34,221.046,174.857,223.112,186.579z"/>
</g>
<g id="c6">
	<path fill-rule="evenodd" clip-rule="evenodd" fill="#6A6967" d="M165.362,110.527c-0.968,1.793-2.023,3.555-3.16,5.282
		l-0.133,0.202l-0.017,0.024l-0.274,0.41l-0.033,0.049l-0.109,0.162l-0.088,0.129l-0.057,0.082l-0.29,0.42l-0.054,0.079
		l-0.092,0.132l-0.111,0.158l-0.036,0.051l-0.148,0.208l-0.02,0.029l-0.129,0.181l-0.078,0.107l-0.072,0.101l-0.135,0.187
		l-0.015,0.021l-0.152,0.207l-0.042,0.057l-0.111,0.15l-0.101,0.136l-0.053,0.071l-0.154,0.206l-0.006,0.009l-0.149,0.197
		l-0.065,0.086l-0.091,0.12l-0.125,0.164l-0.031,0.041l-0.157,0.204l-0.317,0.408l-0.151,0.192l-0.01,0.012l-0.16,0.203
		l-0.162,0.203l-0.114,0.142l-0.047,0.06l-0.02,0.024l-0.294,0.362l-0.014,0.017l-0.077,0.093l-0.088,0.108l-0.14,0.17l-0.026,0.031
		l-0.167,0.2c-1.783,2.131-3.71,4.189-5.784,6.161c-2.589,2.464-5.321,4.712-8.169,6.745l-0.012,0.009
		c-0.394,0.28-0.79,0.557-1.187,0.829l-0.091,0.062c-0.865,0.591-1.74,1.162-2.625,1.714l-0.002,0.001
		c-2.239,1.397-4.538,2.67-6.887,3.819c1.885,0.922,3.739,1.925,5.555,3.007l0.212,0.127l0.026,0.015
		c0.292,0.176,0.584,0.353,0.875,0.534l0.22,0.136l0.001,0.001l0.222,0.139l0.22,0.139l0.167,0.106l0.054,0.035l0.22,0.14
		l0.029,0.019l0.19,0.123l0.005,0.003l0.209,0.135l0.005,0.003l0.196,0.128l0.023,0.015l0.218,0.144l0.209,0.139l0.008,0.006
		l0.143,0.095l0.074,0.051l0.217,0.146l0.009,0.006l0.207,0.142l0.206,0.14l0.024,0.017l0.202,0.139l0.216,0.15l0.214,0.151
		l0.121,0.085l0.094,0.066l0.014,0.01c0.567,0.402,1.128,0.811,1.685,1.229l0.21,0.158c2.242,1.695,4.406,3.529,6.48,5.5
		c0.972,0.924,1.911,1.866,2.818,2.825l0.038,0.039c0.167,0.177,0.333,0.354,0.498,0.533l0.006,0.006l0.24,0.261l0.116,0.127
		l0.129,0.142l0.048,0.052c0.227,0.252,0.454,0.505,0.677,0.758l0.023,0.025c0.231,0.262,0.46,0.526,0.687,0.791l0.002,0.002
		c0.234,0.274,0.466,0.55,0.696,0.826l0.141,0.17l0.088,0.108l0.014,0.017c0.132,0.159,0.261,0.319,0.39,0.479l0.048,0.06
		l0.005,0.006c2.768,3.439,5.167,7.061,7.2,10.815c0.969-1.793,2.023-3.556,3.161-5.282l0.065-0.1l0.075-0.113l0.12-0.18
		l0.022-0.032l0.142-0.212l0.033-0.049l0.01-0.016l0.183-0.269l0.005-0.006l0.055-0.082l0.145-0.209v-0.002l0.003-0.005
		c0.132-0.191,0.265-0.382,0.4-0.573l0,0l0.037-0.051l0.146-0.209l0.02-0.028c0.136-0.192,0.275-0.384,0.415-0.575l0.015-0.021
		l0.152-0.208l0.042-0.058l0.002-0.001c0.138-0.188,0.276-0.376,0.416-0.562l0.005-0.008l0.15-0.197l0.065-0.086l0.09-0.12
		l0.125-0.164l0.032-0.041l0.157-0.204l0.03-0.037l0.128-0.167l0.09-0.114l0.07-0.089l0.15-0.192l0.01-0.012l0.16-0.203l0.053-0.066
		l0.11-0.137l0.113-0.143l0.048-0.059l0.163-0.202l0.015-0.017l0.15-0.184l0.077-0.094l0.088-0.107l0.14-0.17l0.025-0.03l0.167-0.2
		l0.038-0.045l0.13-0.154l0.102-0.121l0.067-0.078l0.166-0.196l0.003-0.002l0.17-0.198l0.063-0.074l0.108-0.124l0.025-0.029
		l0.147-0.168l0.171-0.197l0.023-0.025l0.15-0.171l0.35-0.391l0.177-0.195l0.048-0.054l0.128-0.142
		c1.183-1.296,2.422-2.562,3.718-3.794c0.258-0.246,0.516-0.489,0.778-0.73l0.032-0.029c0.513-0.475,1.033-0.94,1.556-1.398
		l0.09-0.077c0.17-0.15,0.343-0.298,0.515-0.445l0.042-0.035c0.185-0.159,0.372-0.316,0.56-0.473l0.007-0.006
		c0.271-0.227,0.545-0.452,0.818-0.675l0.022-0.018c4.539-3.689,9.428-6.785,14.554-9.293c-1.886-0.922-3.741-1.925-5.557-3.006
		v-0.001c-0.67-0.399-1.336-0.809-1.994-1.231l-0.222-0.14l-0.028-0.019l-0.19-0.123l-0.005-0.002l-0.433-0.284l-0.218-0.144
		c-3.631-2.407-7.092-5.15-10.333-8.23c-0.971-0.923-1.91-1.865-2.816-2.825l-0.038-0.039l-0.143-0.154l-0.107-0.112l-0.018-0.02
		l-0.23-0.247l-0.007-0.006l-0.24-0.261l-0.115-0.127l-0.13-0.142l-0.047-0.053l-0.177-0.195l-0.02-0.021l-0.157-0.174l-0.085-0.096
		l-0.088-0.101l-0.152-0.171l-0.022-0.025c-0.147-0.168-0.293-0.336-0.44-0.504l-0.013-0.016l-0.063-0.073l-0.17-0.198l-0.002-0.003
		l-0.167-0.196l-0.067-0.079l-0.102-0.121l-0.132-0.154l-0.037-0.045l-0.167-0.2l-0.027-0.032l-0.015-0.019
		c-0.148-0.178-0.295-0.356-0.44-0.535l-0.013-0.017l-0.163-0.201l-0.048-0.06l-0.115-0.143l-0.11-0.137l-0.01-0.013l-0.203-0.254
		l-0.008-0.013c-0.212-0.267-0.42-0.535-0.627-0.804l-0.032-0.041l-0.202-0.265l-0.013-0.018l-0.065-0.086
		c-0.185-0.246-0.37-0.493-0.552-0.741l-0.022-0.028l-0.04-0.057c-0.197-0.267-0.39-0.535-0.582-0.804l-0.02-0.028
		c-0.122-0.172-0.243-0.344-0.363-0.516l-0.023-0.035l-0.055-0.078l-0.147-0.21v-0.002
		C167.91,114.947,166.572,112.761,165.362,110.527z"/>
</g>
</svg>
