<?xml version="1.0" encoding="utf-8"?>
<!-- Generator: Adobe Illustrator 22.0.0, SVG Export Plug-In . SVG Version: 6.00 Build 0)  -->
<svg version="1.1" xmlns="http://www.w3.org/2000/svg" xmlns:xlink="http://www.w3.org/1999/xlink" x="0px" y="0px"
	 viewBox="0 0 330.738 283.5" enable-background="new 0 0 330.738 283.5" xml:space="preserve">
<g id="c4">
	<path fill="#9D9FA2" d="M330.738,141.767c-27.562,47.244-55.123,94.488-82.685,141.733c-55.123,0-110.246,0-165.369-0.001
		C55.123,236.255,27.561,189.011,0,141.767C27.561,94.524,55.123,47.28,82.684,0.035c55.123,0,110.246,0,165.37,0
		C275.615,47.28,303.177,94.524,330.738,141.767z"/>
</g>
<g id="c2">
	<path fill="#353333" d="M221.138,66.116c-8.519,19.612-17.039,39.224-25.558,58.836c20.713,5.596,41.426,11.192,62.139,16.788
		c-20.712,5.601-41.423,11.202-62.135,16.802c8.517,19.615,17.035,39.23,25.552,58.845c-17.31-12.637-34.62-25.274-51.93-37.91
		c-10.09,18.863-20.18,37.725-30.27,56.588c-0.868-21.356-1.736-42.713-2.604-64.069c-21.104,3.907-42.208,7.815-63.312,11.722
		c16.225-13.989,32.451-27.978,48.676-41.968c-16.225-13.99-32.45-27.981-48.675-41.971c21.101,3.907,42.202,7.815,63.302,11.722
		c0.872-21.355,1.743-42.711,2.615-64.066c10.087,18.863,20.174,37.727,30.26,56.59C186.512,91.389,203.825,78.752,221.138,66.116z"
		/>
</g>
</svg>
