<?xml version="1.0" encoding="utf-8"?>
<!-- Generator: Adobe Illustrator 22.0.0, SVG Export Plug-In . SVG Version: 6.00 Build 0)  -->
<svg version="1.1" xmlns="http://www.w3.org/2000/svg" xmlns:xlink="http://www.w3.org/1999/xlink" x="0px" y="0px"
	 viewBox="0 0 330.738 283.5" enable-background="new 0 0 330.738 283.5" xml:space="preserve">
<g id="c4">
	<path fill="#9D9FA2" d="M330.738,141.75c-27.562,47.244-55.123,94.488-82.685,141.733c-55.123,0-110.246,0-165.369-0.001
		C55.123,236.238,27.561,188.994,0,141.75C27.561,94.506,55.123,47.262,82.684,0.018c55.123,0,110.246,0,165.37,0
		C275.615,47.262,303.177,94.506,330.738,141.75z"/>
</g>
<g id="c2">
	<path fill="#353333" d="M196.008,99.964c-4.681,10.775-9.361,21.55-14.042,32.325c11.38,3.074,22.759,6.149,34.139,9.223
		c-11.379,3.077-22.758,6.154-34.137,9.231c4.679,10.776,9.359,21.553,14.038,32.329c-9.51-6.943-19.02-13.885-28.53-20.828
		c-5.543,10.363-11.087,20.726-16.63,31.09c-0.477-11.733-0.954-23.466-1.43-35.2c-11.595,2.147-23.189,4.294-34.784,6.44
		c8.914-7.686,17.829-15.371,26.743-23.057c-8.914-7.686-17.828-15.373-26.742-23.059c11.593,2.147,23.186,4.293,34.778,6.44
		c0.479-11.733,0.958-23.466,1.437-35.198c5.542,10.364,11.083,20.727,16.625,31.091
		C176.985,113.849,186.497,106.907,196.008,99.964z"/>
</g>
</svg>
