<?xml version="1.0" encoding="utf-8"?>
<!-- Generator: Adobe Illustrator 22.0.0, SVG Export Plug-In . SVG Version: 6.00 Build 0)  -->
<svg version="1.1" xmlns="http://www.w3.org/2000/svg" xmlns:xlink="http://www.w3.org/1999/xlink" x="0px" y="0px"
	 viewBox="0 0 330.738 283.5" enable-background="new 0 0 330.738 283.5" xml:space="preserve">
<g id="c2">
	<path fill="#353333" d="M0,141.741L82.685,0.009c0,0,0.189,42.782-22.643,81.76S0,141.741,0,141.741z"/>
	<path fill="#353333" d="M330.738,141.741L248.053,0.009c0,0-0.189,42.782,22.643,81.76S330.738,141.741,330.738,141.741z"/>
	<path fill="#353333" d="M248.052,0.009L82.686,0.009c0,0,37.156,21.726,82.696,21.652S248.052,0.009,248.052,0.009z"/>
	<path fill="#353333" d="M82.686,283.491l165.367-0.001c0,0-37.156-21.726-82.696-21.652S82.686,283.491,82.686,283.491z"/>
	<path fill="#353333" d="M330.738,141.741l-82.685,141.732c0,0-0.189-42.782,22.643-81.76S330.738,141.741,330.738,141.741z"/>
	<path fill="#353333" d="M0,141.741l82.685,141.732c0,0,0.189-42.782-22.643-81.76S0,141.741,0,141.741z"/>
</g>
<g id="c3">
	<path fill="#DEDEDE" d="M248.053,0.009c0,0-37.019,21.25-82.684,21.25S82.684,0.009,82.684,0.009l0.001-0.001
		c0,0,37.2,21.134,60.034,60.272s22.649,81.461,22.649,81.461s-0.184-42.323,22.649-81.461s60.034-60.272,60.034-60.272"/>
	<path fill="#DEDEDE" d="M82.684,283.473c0,0,37.019-21.25,82.685-21.25s82.684,21.25,82.684,21.25l-0.001,0.001
		c0,0-37.2-21.134-60.034-60.272s-22.649-81.461-22.649-81.461s0.184,42.323-22.649,81.461s-60.034,60.272-60.034,60.272"/>
	<path fill="#DEDEDE" d="M82.685,0.009c0,0,0.189,42.782-22.643,81.76S0,141.741,0,141.741s37.019-21.25,82.685-21.25
		s82.685,21.25,82.685,21.25s-37.196-21.137-60.03-60.275S82.686,0.009,82.686,0.009"/>
	<path fill="#DEDEDE" d="M165.369,141.741c0,0,37.196-21.137,60.03-60.275s22.654-81.457,22.654-81.457l0.001,0.001
		c0,0-0.189,42.782,22.643,81.76s60.041,59.971,60.041,59.971c0,0-37.019-21.25-82.684-21.25S165.369,141.741,165.369,141.741z"/>
	<path fill="#DEDEDE" d="M248.053,283.473c0,0-0.189-42.782,22.643-81.76s60.041-59.971,60.041-59.971
		c0,0-37.019,21.25-82.684,21.25s-82.684-21.25-82.684-21.25c0,0,37.196,21.137,60.03,60.275s22.654,81.457,22.654,81.457"/>
	<path fill="#DEDEDE" d="M165.369,141.741c0,0-37.196,21.137-60.03,60.275s-22.654,81.457-22.654,81.457l-0.001-0.001
		c0,0,0.189-42.782-22.643-81.76S0,141.741,0,141.741s37.019,21.25,82.685,21.25S165.369,141.741,165.369,141.741z"/>
</g>
<g id="c4">
	<path fill="#6A6967" d="M82.685,162.991C37.019,162.991,0,141.741,0,141.741s37.019-21.25,82.685-21.25s82.685,21.25,82.685,21.25
		S128.35,162.991,82.685,162.991z"/>
	<path fill="#6A6967" d="M248.053,162.991c-45.665,0-82.684-21.25-82.684-21.25s37.019-21.25,82.684-21.25
		s82.684,21.25,82.684,21.25S293.719,162.991,248.053,162.991z"/>
	<path fill="#6A6967" d="M105.339,81.466C82.506,42.329,82.686,0.009,82.686,0.009s37.2,21.134,60.034,60.272
		s22.649,81.461,22.649,81.461S128.173,120.604,105.339,81.466z"/>
	<path fill="#6A6967" d="M225.399,81.466c22.834-39.137,22.654-81.457,22.654-81.457s-37.2,21.134-60.034,60.272
		s-22.649,81.461-22.649,81.461S202.565,120.604,225.399,81.466z"/>
	<path fill="#6A6967" d="M225.399,202.016c22.834,39.137,22.654,81.457,22.654,81.457s-37.2-21.134-60.034-60.272
		s-22.649-81.461-22.649-81.461S202.565,162.879,225.399,202.016z"/>
	<path fill="#6A6967" d="M105.339,202.016c-22.834,39.137-22.654,81.457-22.654,81.457s37.2-21.134,60.034-60.272
		s22.649-81.461,22.649-81.461S128.173,162.879,105.339,202.016z"/>
</g>
</svg>
