<?xml version="1.0" encoding="utf-8"?>
<!-- Generator: Adobe Illustrator 22.0.0, SVG Export Plug-In . SVG Version: 6.00 Build 0)  -->
<svg version="1.1" xmlns="http://www.w3.org/2000/svg" xmlns:xlink="http://www.w3.org/1999/xlink" x="0px" y="0px"
	 viewBox="0 0 330.738 283.5" enable-background="new 0 0 330.738 283.5" xml:space="preserve">
<g id="c2">
	<g>
		<path fill="#DEDEDE" d="M330.738,141.775c-27.561-47.236-55.123-94.472-82.685-141.708c-55.123,0-110.246,0.001-165.369,0.001
			C55.123,47.303,27.561,94.539,0,141.775c27.561,47.236,55.123,94.472,82.684,141.708c55.123,0,110.247,0,165.37,0
			C275.615,236.246,303.177,189.011,330.738,141.775z"/>
	</g>
</g>
<g id="c3">
	<path fill="#9D9FA2" d="M82.684,283.482l-4.899-8.396c0,0,8.405-8.338,7.431-10.103c-1.38-2.5-25.881-11.37-29.238-50.491
		c-1.255-14.622,42.163,27.995,33.003,44.992c0,0,12.047-27.12,8.031-26.995c-8.156,0.254-42.99-29.107-35.889-54.366
		c0.735-2.613,9.537,6.499,17.317,11.623c11.792,7.767,16.564,23.496,16.564,23.496c2.394-9.539-8.909-26.62-2.635-39.243
		c0,0-38.279-29.977-6.902-70.738c2.886-3.749-0.125,17.372,12.36,33.619c1.983,2.581,1.569,20.372,1.569,20.372
		s14.666-13.345,14.271-16.875c-3.73-33.367,46.985-65.697,49.726-60.237c1.255,2.5-18.446,25.746-21.082,38.118
		c-2.155,10.119-12.016,12.885-11.168,14.997c0.502,1.25,15.309,1.625,15.309,1.625l-4.768,6.894
		c-23.549-0.778-35.189,17.469-33.254,16.727c19.576-7.499,40.648,3.595,44.045,7.499c1.86,2.137-8.181,3.943-25.65,10.744
		c-8.356,3.254-23.839,0.565-25.924-2.371c-4.72-6.644-0.754,36.368,3.388,40.493c1.966,1.958-2.649-25.203,42.86-30.91
		c12.45-1.561-19.893,36.312-41.48,36.659c-2.593,0.042-0.683,14.895,1.129,15.122c1.376,0.173,9.537-12.498,24.846-8.374
		c14.478,3.9,42.414-0.875,42.038,3.999c-0.376,4.874-32.547,22.937-54.461,15.747c-10.666-3.499-13.678-2.25-13.678-2.25
		s-6.17,15.022-5.145,14.373c23.089-14.622,59.731,8.374,59.229,11.123c-0.645,3.535-15.158,4.87-30.251,4.208
		c-3.135-0.138-5.708-5.795-8.775-6.104c-4.174-0.419-8.76,4.439-12.285,3.712c-4.418-0.912-8.091-2.061-10.427-3.441
		c-2.259-1.333-12.047,14.75-12.047,14.75"/>
	<path fill="#9D9FA2" d="M82.684,0.067h7.802c3.574,7.754,1.424,16.128,3.053,16.792c11.864,4.834,17.527,16.531,19.371,21.195
		c0.329,0.832-0.429,1.685-1.3,1.468l-4.623-0.32l-6.923-8.179c0,0-2.839-8.092-4.635-6.999c-7.663,4.666-9.587,42.326-3.564,41.66
		c2.209-0.244,5.27-12.123,31.288-3.499c2.466,0.817-22.102,9.642-20.078,15.664c2.879,8.566,34.161,0.63,35.303-8.332
		c0.159-1.25-14.556-12.914-13.051-29.162c0.241-2.599,17.066,19.497,17.066,19.497s9.453-14.248-11.377-28.995
		c-0.709-0.502-3.179-1.5-2.844-2c0.335-0.5,2.008-5.166,2.008-5.166s1.966,1.455,2.855,1.666
		c11.199,2.666,14.65,18.555,14.65,18.555c0.53,0.672,1.609,0.396,1.744-0.448c1.131-7.087,4.838-28.276,7.689-21.107
		c8.25,20.746-4.523,21.679-6.358,28.828c-0.8,3.118-3.624,12.356-3.624,12.356c-0.293,0.999,0.662,1.92,1.652,1.588
		c5.438-1.822,18.782-5.076,24.898,4.22c0.688,1.045-32.95,4.499-32.95,4.499c-6.205,4.749-13.484,14.331-38.433,11.165
		l2.234,21.465c0.056,0.538-0.647,0.795-0.95,0.346c-2.624-3.876-8.802-13.421-9.044-17.723c-0.113-1.995,2.904-7.452,2.904-7.452
		c0.264-0.676,0.086-1.444-0.451-1.934c-2.18-1.989-7.741-7.32-9.777-11.699c-0.304-0.654-2.715-1-2.715-1s1.339-7.999,1.339-7.499
		c0,0.412-8.871,18.268-11.985,24.524c-0.341,0.686-1.367,0.505-1.454-0.256c-0.621-5.393-0.714-18.763,11.432-28.268
		c2.342-1.833,0.335-15.497,0.335-15.497s1.673-13.498,1.506-12.831c-0.139,0.555-15.809,15.192-21.061,20.086
		c-0.395,0.369-1.014-0.062-0.803-0.559c2.206-5.178,8.055-18.218,12.327-21.527c2.181-1.689,10.681-2.817,10.681-2.817
		s3.624-15.013-7.812-16.007"/>
	<path fill="#9D9FA2" d="M207.815,36.856c-3.939,4.188,13.222,18.58,13.178,18.83c-0.044,0.25,9.543,12.279,13.423,10.507
		c3.086-1.41,0.607-10.407-0.751-13.506C230.633,45.76,213.002,31.341,207.815,36.856z"/>
	<path fill="#9D9FA2" d="M328.763,145.159c0,0-4.618-1.992-5.669,0c-17.233,32.673-63.078,28.955-62.91,26.007
		c0.062-1.091,5.856-3.726,5.856-3.726l35.638-24.102c0,0-11.712-5.666-14.222-8.665c-2.51-2.999,2.008,2.666-16.564,4.833
		c-18.572,2.166-40.49-16.331-40.155-17.664c0.335-1.333,45.342,1.833,45.342,1.833s-13.082-19.398-16.062-23.496
		c-0.878-1.208-13.705,11.949-43-1.666c-2.51-1.166,38.315-5.999,38.482-6.499s-14.891-26.495-33.463-21.996
		s-28.443,21.496-25.432,26.829s-6.919,3.054-6.86-1c0.125-8.582,11.043-18.997,10.206-20.663
		c-0.837-1.666-30.125,6.263-30.125,7.93s4.987-23.719,35.98-13.619c1.641,0.535,11.385-8.345,29.782-2.976
		c8.993,2.625,28.778,23.996,28.778,23.996s1.539-43.863,2.677-42.826c18.777,17.107-0.669,44.492-0.837,48.325
		c-0.167,3.833,19.743,32.328,25.766,33.161c0,0,0.032,2.477,0.669,2.833c24.93,13.914,35.654,5.586,35.654,5.586l2.44,4.182
		L328.763,145.159z"/>
	<path fill="#9D9FA2" d="M291.974,129.173c6.944,0.001,16.857-38.035,2.175-46.409L291.974,129.173z"/>
	<path fill="#9D9FA2" d="M247.218,226.615c0,0,11.741-8.405,13.427-11.748c2.184-4.331,0.724-19.372,0.724-19.372l-10.685,12.123
		L247.218,226.615z"/>
	<path fill="#9D9FA2" d="M243.579,254.318c0,0,6.704,4.291,13.678-1.583c0.489-0.411,14.556-15.771,12.674-19.861
		c-0.85-1.847-6.523-0.354-6.523-0.354l-18.699,17.597L243.579,254.318z"/>
	<path fill="#9D9FA2" d="M244.457,283.482c0,0-7.947-15.789-5.438-18.666c2.51-2.876-18.288-0.021-20.412-23.079
		c-0.837-9.082,17.443,14.799,18.668,13.248c10.529-13.331,8.27-35.077,2.665-39.663c-1.958-1.602-3.095,4.919-7.027,5.502
		c-5.863,0.87-24.721-0.576-25.097-2c-0.837-3.166,20.914-14.831,20.914-14.831c-9.621-9.248-37.798,9.226-34.467,10.332
		c1.506,0.5,16.695,14.548,14.891,26.829c-0.245,1.67-7.079-1.886-11.043-7.249c-4.143-5.605-5.43-13.053-6.033-12.415
		c-11.299,11.954,9.882,31.661,9.882,31.661v5.499c0,0-3.399-2.576-4.685-3.166c-6.358-2.916-13.552-17.914-14.556-17.497
		c-5.263,2.184-4.758,26.548-7.362,21.496c-9.621-18.663,7.009-22.628,6.86-25.725c-0.502-10.436,3.932-20.684,6.608-22.934
		c5.649-4.75-30.695,4.764-29.362,3.499c19.659-18.663,28.611-6.332,31.79-5.332c1.378,0.433,6.701-7.608,13.804-10.165
		c9.284-3.342,19.47-0.186,20.663-1.5c1.589-1.75-7.362-16.331-2.008-23.329c0.442-0.578,9.761,9.12,12.549,16.664
		c1.69,4.574-4.629,8.592-2.175,9.665c6.86,2.999,12.546,13.944,14.851,23.913c1.456,6.298-2.135,30.077-2.135,30.077
		s-2.844,0.167-2.426,7.915c0.241,4.464,6.311,16.741,6.311,16.741l-2.63,4.508H244.457z"/>
	<path fill="#9D9FA2" d="M0,141.775c1.672,0.55,18.416-6.603,18.416-6.603s7.195-7.165,6.525-8.332
		c-0.957-1.667-14.627,1.065-18.448,3.807L0,141.775z"/>
	<path fill="#9D9FA2" d="M248.053,0.066c-1.568,0.8-2.745,7.436-2.745,7.436s-1.353,18.252,10.222,20.688
		c1.887,0.397,4.068-5.499,0.654-14.058L248.053,0.066z"/>
</g>
<g id="c5">
	<path fill="#6A6967" d="M166.53,164.5c12.8,8.499,42.791-3.749,44.798-7.624c1.957-3.776-14.305-21.246-14.305-21.246
		s-11.921-12.873-24.846-7.249c-3.98,1.732-9.286,14.622-9.286,14.622L166.53,164.5z"/>
	<path fill="#6A6967" d="M0,141.775c0,0,13.523-6.598,18.416-6.603c8.449-0.007,21.118,8.749,21.082,10.148
		c-0.079,3.063-11.87,3.229-11.87,3.229L0,141.775z"/>
	<path fill="#6A6967" d="M132.418,25.112c0.163,0.077,6.38-3.462,4.749-7.962c-2.761-7.614-15.986-6.55-19.336-2.999
		c-6.96,7.374-0.483,18.91,4.529,20.621c4.392,1.5,8.659-3.916,8.659-3.916L132.418,25.112z"/>
	<path fill="#6A6967" d="M189.745,95.845c1.129,0.375,10.244-0.131,13.301,0.292c3.614,0.5,4.881,8.209,3.137,10.248
		c-3.388,3.961-10.977,12.587-15.937,11.998c-5.113-0.607-13.051-10.743-13.051-15.872
		C177.197,90.263,189.745,95.845,189.745,95.845z"/>
	<path fill="#6A6967" d="M248.063,0.066c0,0-4.439,13.487-7.873,16.959c-5.928,5.996-21.422,9.567-22.397,8.559
		c-2.134-2.207,0.795-9.496,0.795-9.496L248.063,0.066z"/>
	<path fill="#6A6967" d="M197.274,255.485c0,0-3.012,2.75-2.133,7.126c0.198,0.986,3.137,6.026,6.776,6.026
		c1.133,0,9.228,0.433,9.575,0c0.924-1.154,4.27-13.118,2.634-16.443c-0.944-1.92-5.161-2.45-6.813-1.833
		c-1.001,0.373-2.285,2.32-3.263,2.75c-0.478,0.21-2.091,0.042-2.091,0.042L197.274,255.485z"/>
</g>
<g id="c4">
	<g>
		<path fill="#353333" d="M82.711,261.609c-14.027-12.162-18.153-28.787-19.294-35.56c-0.124-0.734,0.853-1.107,1.257-0.48
			l2.363,3.661c0.308,0.478,0.824,0.782,1.393,0.823l1.545,0.11c0.634,0.045,1.166,0.495,1.314,1.111l2.125,8.861
			c0.174,0.724,0.863,1.205,1.606,1.119l1.04-0.12c0.91-0.105,1.741,0.527,1.878,1.429l1.195,7.858
			c0.12,0.786,0.933,1.265,1.683,0.99l2.474-0.908c0.796-0.292,1.636,0.306,1.617,1.151
			C84.828,255.275,84.457,263.123,82.711,261.609z"/>
		<path fill="#353333" d="M94.297,227.74c-13.212-3.08-23.885-25.032-26.961-31.977c-0.221-0.5,0.398-0.945,0.807-0.58l4.811,4.296
			c0.47,0.419,1.134,0.545,1.725,0.326l0.647-0.239c0.737-0.273,1.559,0.083,1.861,0.806l3.084,7.373
			c0.299,0.714,1.15,1.018,1.836,0.655h0c0.782-0.414,1.752-0.14,2.199,0.62l4.989,8.473c0.41,0.696,1.3,0.944,2.013,0.56
			l0.249-0.134c0.819-0.441,1.84-0.024,2.107,0.865C94.607,221.912,96.273,228.2,94.297,227.74z"/>
		<path fill="#353333" d="M107.318,272.172c0,0-8.2-4.689-7.918-5.064c0.214-0.284,9.849-2.374,11.821-2.799
			c0.224-0.048,0.458-0.003,0.648,0.126l2.025,1.375c0.276,0.187,0.625,0.233,0.94,0.124l9.465-3.288
			c0.404-0.14,0.826,0.158,0.826,0.584v2.018c0,0.608,0.598,1.039,1.178,0.848l10.102-3.32c0.573-0.188,1.14,0.301,1.034,0.893
			l-0.506,2.827c-0.077,0.428,0.205,0.837,0.633,0.921l5.129,0.998c0.319,0.062,0.374,0.494,0.08,0.632
			c-2.768,1.301-11.029,5.083-14.398,5.52C123.124,275.245,107.318,272.172,107.318,272.172z"/>
		<path fill="#353333" d="M109.565,241.862c-0.676-0.685,4.542-3.663,6.848-4.928c0.618-0.339,1.388-0.21,1.863,0.31l1.103,1.208
			c0.368,0.403,0.935,0.563,1.461,0.41l11.879-3.442c0.615-0.178,1.27,0.111,1.55,0.686l1,2.054
			c0.286,0.587,1.005,0.821,1.583,0.513l9.078-4.822c0.524-0.278,1.156,0.1,1.156,0.691v0.587c0,0.632,0.568,1.114,1.193,1.006
			c2.058-0.355,6.058-0.87,6.085,0.476c0.04,2-15.309,12.185-33.182,8.499C118.227,244.502,111.68,244.004,109.565,241.862z"/>
		<path fill="#353333" d="M137.674,192.871c2.064,5.749-23.854,24.621-28.169,22.246c-1.901-1.046,0.978-6.65,2.596-9.482
			c0.499-0.872,1.661-1.091,2.445-0.46h0c0.934,0.751,2.323,0.475,2.896-0.575l2.952-5.412c0.42-0.77,1.418-1.005,2.14-0.505h0
			c0.975,0.676,2.304,0.513,3.087-0.377l3.592-4.088c0.697-0.793,1.844-1.018,2.79-0.546v0c0.704,0.351,1.531,0.341,2.228-0.023
			C135.48,192.993,137.408,192.13,137.674,192.871z"/>
		<path fill="#353333" d="M90.993,166.125c-9.105-2.38-17.317-39.166-10.415-47.867c1.035-1.304,2.499,3.943,3.163,6.629
			c0.174,0.705,0.994,1.015,1.604,0.618c0.825-0.537,1.445-1.371,1.758-0.576c0.246,0.625,0.341,9.58,0.368,12.939
			c0.004,0.552,0.602,0.891,1.085,0.618c0.946-0.535,2.208-1.163,2.438-0.857c0.296,0.393,0.126,8.064,0.04,11.313
			c-0.018,0.688,0.653,1.182,1.309,0.967c0.945-0.309,2.039-0.62,2.039-0.407C94.381,149.878,95.111,167.202,90.993,166.125z"/>
		<path fill="#353333" d="M101.534,170.312c3.765,4.118,32.814,1.625,34.007-5.124c0.179-1.015-2.732-1.441-4.398-1.602
			c-0.632-0.061-1.114-0.585-1.113-1.217c0-0.938-0.043-2.052-0.136-2.117c-0.335-0.238-4.144,2.618-5.928,3.983
			c-0.473,0.362-1.159,0.2-1.421-0.334l-0.437-0.89c-0.275-0.56-0.951-0.794-1.516-0.526l-6.773,3.217
			c-0.569,0.27-1.251,0.082-1.599-0.441l-0.562-0.845c-0.379-0.57-1.114-0.786-1.741-0.508
			C107.106,165.155,99.94,168.568,101.534,170.312z"/>
		<path fill="#353333" d="M117.596,138.505c-4.451-1.868,11.937-33.61,12.988-35.056c1.067-1.468,16.07-15.142,16.627-14.31
			c0.565,0.844-6.274,10.873-6.274,11.248c0,0.195,0.645,0.796,1.265,1.328c0.52,0.447,0.42,1.275-0.193,1.584l-6.519,3.289
			c-0.718,0.362-0.792,1.355-0.136,1.819c0,0,4.206,1.843,3.324,2.353c-5.835,3.374-11.984,9.311-11.67,10.748
			c0.182,0.834,1.799,1.935,3.018,2.66c0.691,0.411,0.828,1.347,0.277,1.932C127.156,129.445,118.278,138.791,117.596,138.505z"/>
	</g>
	<path fill="#353333" d="M0,141.85c0,0,19.921,11.728,31.968,5.229S0,141.85,0,141.85z"/>
	<g>
		<path fill="#353333" d="M62.813,46.718c0,0-2.315,3.681-1.686,3.927c5.647,2.208,22.044-10.623,22.044-10.623
			s4.601-11.915,3.179-13.31C82.979,23.403,62.813,46.718,62.813,46.718z"/>
		<path fill="#353333" d="M71.404,83.787c0,0-1.07,4.82,0,4.477C82.836,84.597,86.22,68.017,86.22,68.017s0.785-8.482-1.376-8.499
			C79.49,59.478,71.404,83.787,71.404,83.787z"/>
		<path fill="#353333" d="M101.287,104.868c0.241,0.368,1.366,4.663,2.714,4.642c3.106-0.05,6.099-7.83,5.856-10.915
			c-0.317-4.019-2.948-12.658-6.358-14.831c-0.924-0.589-3.671-0.276-4.35,0.583C95.947,88.4,101.287,104.868,101.287,104.868z"/>
		<path fill="#353333" d="M93.21,71.183c-2.761,0.298,6.254,7.601,8.868,6.666c5.354-1.916,21.501-14.612,21.082-15.247
			C121.84,60.601,103.249,70.1,93.21,71.183z"/>
		<path fill="#353333" d="M94.752,23.927c0.151-0.957,3.226,0.764,3.955,1.405c3.408,3,10.634,10.203,9.896,11.94
			c-0.92,2.166-2.761,2.329-3.848,1.373s-7.78-5.039-8.282-7.372C96.181,29.919,94.496,25.555,94.752,23.927z"/>
		<path fill="#353333" d="M139.738,73.849c5.967,4.791,24.546,6.707,32.95-4.499S139.738,73.849,139.738,73.849z"/>
		<path fill="#353333" d="M124.33,40.355c3.304-4.957,22.75,17.346,16.731,24.962C138.928,68.017,124.33,40.355,124.33,40.355z"/>
		<path fill="#353333" d="M144.963,38.645c0.693-5.801,9.081-21.495,11.813-19.245c2.732,2.25-2.374,21.997-8.06,24.902
			C143.015,47.214,144.762,40.328,144.963,38.645z"/>
	</g>
	<g>
		<path fill="#353333" d="M201.044,74.391c-0.4-2.964-11.796-2.25-11.796-2.25s-23.535,7.676-20.203,12.596
			C171.178,87.888,202.633,86.18,201.044,74.391z"/>
		<g>
			<path fill="#353333" d="M233.417,66.193c-0.342,3.037-11.45-1.388-12.196-1.356c-0.498,0.021,0.178-1.522,0-1.986
				c-1.749-4.548-8.104,0.295-12.48-11.998c-0.414-1.162-3.049-13.437-1.924-13.998C207.82,36.356,234.507,56.519,233.417,66.193z"
				/>
			<path fill="#353333" d="M316.491,146.628c0,3.791-52.662,28.226-57.305,24.537c-4.643-3.689,37.604-28.139,41.494-27.829
				C304.63,143.652,316.491,145.17,316.491,146.628z"/>
			<path fill="#353333" d="M279.347,130.506c0.238,2.392-50.873-5.7-49.609-8.665C232.917,114.384,277.715,114.134,279.347,130.506z
				"/>
			<path fill="#353333" d="M256.508,96.387c0.623,1.536-10.857-1.801-19.825-1.494c-10.516,0.361-20.665,3.618-20.665,3.618
				C223.004,86.583,248.092,75.65,256.508,96.387z"/>
			<path fill="#353333" d="M264.633,91.638c-1.599,0.259-5.261-2.37-5.866-4.749c-2.604-10.248,3.603-35.634,7.278-39.202
				C267.483,46.291,266.74,91.297,264.633,91.638z"/>
			<path fill="#353333" d="M290.975,129.756c-18.323-9.092-2.844-47.742,2.175-46.992
				C298.17,83.514,290.975,129.756,290.975,129.756z"/>
		</g>
	</g>
	<path fill="#353333" d="M248.186,0.066c-0.944-0.94-30.307,12.025-29.456,17.084C221.052,30.961,248.186,0.066,248.186,0.066z"/>
	<g>
		<path fill="#353333" d="M158.462,214.325c0,0,18.329-7.457,19.789-6.832c1.46,0.625,9.679,1,9.993,1.25
			c0.314,0.25,2.008,2.687,2.008,2.687l-5.541,4.241C184.711,215.67,167.978,222.928,158.462,214.325z"/>
		<path fill="#353333" d="M245.042,216.402c0.903,2.276,2.893,8.907,2.893,8.907s15.977-29.746,11.711-30.745
			C250.481,192.416,245.042,216.402,245.042,216.402z"/>
		<path fill="#353333" d="M173.437,264.358c10.604-3.249,10.824-25.118,10.824-25.118s-0.847-1.846-2.04-2.252
			C179.398,236.028,171.878,264.836,173.437,264.358z"/>
		<path fill="#353333" d="M246.219,246.611c0,0,16.9-19.735,16.815-12.623c-0.076,6.374-15.56,20.247-15.56,20.247l-1.673,0.083
			L246.219,246.611z"/>
		<path fill="#353333" d="M206.816,218.824c0.663,1.634,22.081-4.708,22.899-5.207c0.818-0.5,5.147-4.232,4.833-6.161
			c-0.306-1.881-4.915-3.261-6.818-3.462C220.624,203.244,205.059,214.492,206.816,218.824z"/>
		<path fill="#353333" d="M234.565,257.234c-1.664,3.802-14.705-9.984-11.134-14.34C228.785,236.363,236.807,252.11,234.565,257.234
			z"/>
		<path fill="#353333" d="M226.263,197.038c3.23,0.856-2.226-29.847-6.955-26.024C214.578,174.838,219.488,195.242,226.263,197.038z
			"/>
	</g>
	<path fill="#353333" d="M139.932,138.13c2.183-7.291,15.309-1.625,15.309-1.625c6.989-8.817,15.998-11.017,20.058-11.566
		c0.874-0.118,1.481,0.847,1,1.584l-5.373,8.232l16.471,3.013c0.528,0.097,0.581,0.829,0.072,1l-18.896,6.343
		c-0.863,0.29-1.1,1.393-0.432,2.009l12.011,11.073c0.468,0.432,0.064,1.203-0.559,1.067l-11.23-2.455
		c-0.897-0.196-1.688,0.618-1.462,1.505c0,0,4.9,12.462,3.271,12.816c-6.902,1.5-16.69-17.06-16.439-22.496
		C153.935,144.308,137.799,145.254,139.932,138.13z"/>
</g>
</svg>
