<?xml version="1.0" encoding="utf-8"?>
<!-- Generator: Adobe Illustrator 22.0.0, SVG Export Plug-In . SVG Version: 6.00 Build 0)  -->
<svg version="1.1" xmlns="http://www.w3.org/2000/svg" xmlns:xlink="http://www.w3.org/1999/xlink" x="0px" y="0px"
	 viewBox="0 0 330.738 283.5" enable-background="new 0 0 330.738 283.5" xml:space="preserve">
<g id="c2">
	<path fill="#DEDEDE" d="M330.738,141.721c-28.326,47.101-56.651,94.202-84.977,141.302c-55.123,0.009-110.246,0.018-165.369,0.028
		C53.595,235.96,26.798,188.869,0.001,141.778C28.326,94.678,56.652,47.577,84.977,0.477c55.123-0.01,110.246-0.019,165.369-0.029
		C277.144,47.539,303.941,94.63,330.738,141.721z"/>
</g>
<g id="c3">
	<path fill="#6A6967" d="M110.883,283.119c72.493-45.82,144.986-91.639,217.479-137.459c0.792-1.317,1.584-2.633,2.375-3.95
		c-0.76-1.336-1.52-2.671-2.28-4.007c-56.494,28.961-112.763,58.353-168.809,88.178c-10.75,5.721-21.49,11.456-32.22,17.207
		c-0.85,0.428-2.419,1.048-4.34,0.847c-0.976-0.102-2.655-0.278-3.38-1.447c-0.78-1.258-0.332-3.474-0.332-3.474h0
		c0,0,0.705-1.454,2.012-4.15C165.122,158.035,208.856,81.207,252.59,4.38c-0.748-1.314-1.496-2.628-2.243-3.942
		c-1.513-0.019-3.026-0.038-4.538-0.057C163.94,129.208,104.184,223.195,102.377,226.084c-0.233,0.372-1.817,2.932-4.041,3.274
		c-0.185,0.028-0.712,0.104-1.35-0.052c-1.289-0.316-1.997-1.321-2.417-1.934c-1.119-1.637-1.184-3.51-1.168-4.256
		c0.003-0.156,0.01-0.272,0.011-0.286c0.082-1.461-1.026-68.008-3.741-222.323c-1.57,0.036-3.139,0.072-4.709,0.108
		c-0.787,1.28-1.574,2.56-2.36,3.84C77.059,88.86,71.517,173.267,65.975,257.675c4.806,8.455,9.611,16.911,14.417,25.366
		C90.555,283.067,100.719,283.093,110.883,283.119z"/>
</g>
</svg>
