<?xml version="1.0" encoding="utf-8"?>
<!-- Generator: Adobe Illustrator 22.0.0, SVG Export Plug-In . SVG Version: 6.00 Build 0)  -->
<svg version="1.1" xmlns="http://www.w3.org/2000/svg" xmlns:xlink="http://www.w3.org/1999/xlink" x="0px" y="0px"
	 viewBox="0 0 330.738 283.5" enable-background="new 0 0 330.738 283.5" xml:space="preserve">
<g id="c2">
	<g>
		<g>
			<path fill="#DEDEDE" d="M330.738,141.75c-27.561,47.244-55.123,94.488-82.685,141.733c-55.123,0-110.246-0.001-165.369-0.001
				C55.123,236.237,27.561,188.994,0,141.75C27.561,94.506,55.123,47.262,82.684,0.018c55.123,0,110.247,0,165.37,0
				C275.615,47.262,303.177,94.506,330.738,141.75z"/>
		</g>
	</g>
</g>
<g id="c5">
	<polygon fill="#6A6967" points="82.681,0 57.875,42.52 272.863,42.52 247.674,0 	"/>
	<polygon fill="#6A6967" points="247.667,283.487 272.472,240.968 57.485,240.968 82.673,283.487 	"/>
</g>
<g id="c4">
	<path fill="#6A6967" d="M330.738,141.75c-4.134-7.087-8.268-14.173-12.402-21.26H12.402C8.268,127.577,4.134,134.663,0,141.75
		c4.134,7.087,8.269,14.173,12.403,21.26h305.932C322.469,155.923,326.604,148.836,330.738,141.75z"/>
</g>
</svg>
