<?xml version="1.0" encoding="utf-8"?>
<!-- Generator: Adobe Illustrator 22.0.0, SVG Export Plug-In . SVG Version: 6.00 Build 0)  -->
<svg version="1.1" xmlns="http://www.w3.org/2000/svg" xmlns:xlink="http://www.w3.org/1999/xlink" x="0px" y="0px"
	 viewBox="0 0 330.738 283.5" enable-background="new 0 0 330.738 283.5" xml:space="preserve">
<g id="c2">
	<path fill="#6A6967" d="M8.473,156.273L0,141.75l82.684,141.732h148.439c1.528-4.982,4.893-9.425,9.809-12.233
		c4.911-2.806,10.475-3.47,15.595-2.293l74.21-127.206L254.212,10.574l-6.158-10.556h-0.065l8.473,14.523
		c-5.124,1.181-10.694,0.519-15.609-2.29c-4.916-2.809-8.28-7.251-9.808-12.233H82.684L8.473,127.227
		c3.596,3.801,5.801,8.906,5.801,14.523S12.068,152.472,8.473,156.273 M254.212,38.92l59.989,102.83l-59.989,102.83V38.92z
		 M241.83,17.697l0.065,0.111v247.884l-0.082,0.141c-24.27-41.279-37.977-65.208-71.316-122.378
		c-0.034-0.059-0.962-1.648-0.994-1.705c0.681-1.181,1.362-2.362,2.043-3.543C171.547,138.207,193.229,100.63,241.83,17.697z
		 M90.953,14.191h119.979L30.964,117.021L90.953,14.191z M18.647,138.133L235.53,14.211
		c-22.787,38.252-36.522,62.772-70.161,120.453c-0.289,0.496-1.775,3.042-2.067,3.543c-1.378,0-2.756,0-4.134,0
		c-46.855,0-93.709,0-140.564,0L18.647,138.133z M90.953,269.309l-59.989-102.83l179.968,102.83H90.953z M235.564,269.309
		L18.647,145.367l-0.043-0.074c46.855,0,93.709,0,140.564,0c1.378,0,2.756,0,4.134,0c0.001,0.001,0.001,0.002,0.002,0.004
		c0.678,1.183,1.357,2.366,2.036,3.549c0.006-0.01,0.012-0.02,0.017-0.03c23.431,40.164,46.863,80.329,70.294,120.493H235.564z"/>
</g>
<g id="c5">
	<path fill="#DEDEDE" d="M18.647,138.133C90.941,96.825,163.235,55.518,235.53,14.211c-24.076,41.332-48.152,82.664-72.228,123.996
		C115.084,138.182,66.865,138.157,18.647,138.133z"/>
	<path fill="#DEDEDE" d="M18.604,145.293c48.233,0,96.465,0,144.698,0c24.088,41.339,48.175,82.677,72.263,124.016
		C163.244,227.971,90.924,186.632,18.604,145.293z"/>
	<path fill="#DEDEDE" d="M241.895,17.808c-24.131,41.314-48.261,82.628-72.392,123.942c24.103,41.361,48.207,82.721,72.31,124.082
		C241.841,183.158,241.868,100.483,241.895,17.808z"/>
</g>
<g id="c4">
	<path fill="#9D9FA2" d="M90.953,14.191C70.956,48.468,50.96,82.744,30.964,117.021c59.989-34.277,119.979-68.553,179.968-102.83
		C170.939,14.191,130.946,14.191,90.953,14.191z"/>
	<path fill="#9D9FA2" d="M30.964,166.479c59.989,34.277,119.979,68.553,179.968,102.83c-39.993,0-79.986,0-119.979,0
		C70.956,235.032,50.96,200.756,30.964,166.479z"/>
	<polygon fill="#9D9FA2" points="254.212,38.92 254.212,244.58 314.201,141.75 	"/>
</g>
<g id="c3">
	<path fill="#353333" d="M8.473,156.273c3.596-3.801,5.801-8.906,5.801-14.523s-2.205-10.722-5.801-14.523L0,141.75L8.473,156.273z"
		/>
	<path fill="#353333" d="M256.542,268.959c-5.124-1.181-10.694-0.519-15.609,2.29s-8.28,7.251-9.808,12.233l16.945,0
		L256.542,268.959z"/>
	<path fill="#353333" d="M231.044,0.018c1.528,4.982,4.893,9.425,9.808,12.233s10.485,3.471,15.609,2.29l-8.473-14.523
		L231.044,0.018z"/>
</g>
</svg>
