<?xml version="1.0" encoding="utf-8"?>
<!-- Generator: Adobe Illustrator 22.0.0, SVG Export Plug-In . SVG Version: 6.00 Build 0)  -->
<svg version="1.1" xmlns="http://www.w3.org/2000/svg" xmlns:xlink="http://www.w3.org/1999/xlink" x="0px" y="0px"
	 viewBox="0 0 330.738 283.5" enable-background="new 0 0 330.738 283.5" xml:space="preserve">
<g id="c2">
	<g>
		<path fill="#DEDEDE" d="M330.738,141.75c-27.561,47.244-55.123,94.488-82.685,141.733c-55.123,0-110.246-0.001-165.369-0.001
			C55.123,236.237,27.561,188.994,0,141.75C27.561,94.505,55.123,47.262,82.684,0.018c55.123,0,110.247,0,165.37,0
			C275.615,47.262,303.177,94.505,330.738,141.75z"/>
	</g>
</g>
<g id="c5">
	<path fill="#6A6967" d="M214.162,266.447c-0.045,1.079-5.396,4.5-19.074-4.75c-3.772-2.551-13.693,0.619-18.237,0.25
		c-7.834-0.637-30.953-5.5-30.953-5.5s11.091,15.154,16.564,14.5c12.549-1.5,18.244,1.711,24.344,2
		c15.811,0.75,20.617,11.34,20.617,11.34l40.63,0.017l23.882-40.936c0,0-4.075-6.625-6.324-6.171
		c-1.894,0.382-2.585,6.301-4.517,6.25c-2.217-0.058-4.056-6.288-6.274-6.25c-2.123,0.037-4.982,5.318-7.027,4.75
		c-2.461-0.684-4.267-9.25-4.267-9.25s-16.288-41.394-18.321-55.972c-0.317-2.276,0.361-9.186,0.361-9.186
		c0.029-0.751,1.079-0.906,1.327-0.197l6.845,19.604l5.536,14.985c0.313,0.847,1.571,0.639,1.592-0.264l0.212-9.098l4.471,7.141
		c0.763,0.76,2.069,0.254,2.116-0.82l0.496-11.366c0.033-0.757,1.07-0.949,1.374-0.255l5.787,13.177l5.835,14.031
		c0.398,0.958,1.809,0.784,1.961-0.242c0.536-3.603,1.409-8.839,2.242-11.039c3.373-8.905,19.561-32.707,19.561-32.707
		c0.4-0.669,1.431-0.363,1.399,0.415l-0.512,12.419c-0.042,1.023,1.201,1.562,1.92,0.832c2.461-2.499,6.434-6.65,7.749-8.708
		c4.768-7.464,14.393-11.857,16.186-12.627c-1.755-7.672-5.677-17.837-14.345-21.211c-13.227-5.149-37.144,56.505-37.144,56.505
		c-2.073-18.298-12-34.934-18.07-47.5c-4.35-9.005-21.589-5.882-25.264,0.833c-2.955,5.399,3.463,17.083-1.171,18
		c-4.82,0.954-5.659-4.812-11.377-4.333c-6.114,0.512-5.352,22.3-7.529,20.5c0,0,35.667,55.305,35.471,56.833
		c-0.265,2.065-5.33,3.643-6.274,5.5c-2.138,4.206-1.631,18.375-18.823-2c-5.167-6.124-26.728-17.75-26.728-17.75
		s-23.34-10-26.728-9.75c-1.743,0.129,2.51,6.5,2.51,6.5s-5.875-1.429-6.776,0c-2.074,3.29,6.776,14,6.776,14
		s10.761,7.718,30.618,10.5C194.837,250.572,214.525,257.802,214.162,266.447z"/>
	<path fill="#6A6967" d="M169.238,176.725c-3.263-15.528,5.521-6.028,5.521-6.028s16.625,22.97,20.58,31.5
		c1.047,2.257,2.84,9.534,2.84,9.534c0.185,0.621-0.393,1.199-1.016,1.016c-2.913-0.857-9.338-2.959-10.608-5.162
		C186.116,206.822,171.056,185.376,169.238,176.725z"/>
</g>
<g id="c4">
	<path fill="#6A6967" d="M27.272,176.791c1.283-0.905,3.154-3.94,3.012-5.5c-0.072-0.788-0.502-2.627,1.004-3.294
		c1.506-0.667,4.685,1.627,4.685,1.627L43,176.458l10.708,16.833l10.875,20.167c0,0,7.441,11.149,4.361,11.667
		c-2.792,0.469-8.627-7.235-11.629-6.045c-1.559,0.618,0.043,4.729,1.078,6.045c16.059,20.413,11.893,27.129,11.891,27.132
		c17.283-1.74,11.379-21.767,8.52-29.295c-0.493-1.299,0.564-2.658,1.951-2.515c0,0,8.651,5.139,16.63,5.612
		c-0.232-0.142-23.504-14.384-19.249-19.767c5.139-6.501,28.611,16.833,28.611,16.833c3.422-3.409-0.237-11.487-5.28-19.322
		c0,0.001-0.001,0.001-0.001,0.002c0,0-4.256,8.268-16.135-2.847c-4.01-3.752-15.046-16-15.046-16l-12.226-9l-13.218-8.833
		c0,0-6.602-3.443-6.525-5.583c0.054-1.503,4.635-2.095,4.852-3.583c0.196-1.346-3.836-2.184-4.183-3.5
		c-0.698-2.645,5.701-8.333,6.699-8.667c0.998-0.333,34.628-1.5,41.321,0c1.766,0.396,14.849,7.208,13.385,8.333
		c-1.146,0.881-18.237,0-18.237,0s34.467,18,33.566,21.833c-0.741,3.153-11.201-2.04-12.987,0.667
		c-0.722,1.094,8.722,8.604,8.722,8.604s-0.001,0.002-0.001,0.002c8.367-0.676,16.375-2.977,17.882-9.106
		c2.411-9.805-19.459-24.256-28.284-29.633c-1.671-1.018-1.743-3.408-0.14-4.529c0,0,35.451-12.338,36.956-25.838
		c0.477-4.278-7.529-15.5-7.529-15.5c-7.529-2.75-35.031,1.206-35.031,1.206s2.456,3.846,3.66,4.544
		c2.994,1.737,8.951,1.917,13.865,2.583c3.76,0.51,15.415,4.833,6.129,13.834c-2.353,2.281,15.728,3.833-7.362,10.833
		c-1.601,0.485-53.373,3.167-53.373,3.167l-15.393,3.179l7.194-18.762l-28.945-15.595L63.84,32.319c0,0,8.726,3.391,10.112,5.973
		c5.45,10.146-10.376,14.315-6.358,15.667c6.191,2.083,7.247,6.372,7.247,6.372l0,0c4.939-10.827,9.026-23.728,3.795-29.205
		c-2.275-2.383-13.09-1.732-13.09-1.732L0,141.75l64.44,110.458l-43.358-74.416C21.081,177.791,25.992,177.694,27.272,176.791z"/>
	<path fill="#6A6967" d="M64.186,92.467c6.821-4.79,28.057-19.493,32.187-19.842c1.804-0.152-0.656,6.145,0.837,7.167
		c2.241,1.534,9.906-2.53,10.875,0c1.125,2.937-8.303,7.39-7.194,10.333c0.732,1.945,8.087,2.031,8.09,2.031
		c10.441-8.309,21.726-19.957,13.326-26.531c-11.399-8.921-41.661-0.25-56.719,12l-2.97,13.806
		C62.424,92.327,63.434,92.995,64.186,92.467z"/>
</g>
<g id="c3">
	<path fill="#6A6967" d="M227.212,68.125c3.592-8.05,9.579-33.715,13.051-32.75c3.597,1-8.28,37.901-9.035,50.77
		c-0.112,1.914,1.005,7.602,1.005,7.602l0.009,0.027c0.36,0.896,0.744,2.083,1.159,3.497l0,0c0,0,4.43-2.048,5.691-1.313
		c4.512,2.631,4.307,15.026,5.856,20c1.063,3.413,7.362,12.667,7.529,12.167c0.167-0.5-4.481-16.408-5.354-22
		c-2.566-16.443-3.848-66-2.844-66.5c1.004-0.5,5.831-0.262,7.362-1.333c1.194-0.836,1.321-4.629,2.677-5.167
		c1.669-0.662,4.598,2.974,6.358,3.333c1.966,0.402,7.334-2.233,7.334-2.234l0,0L248.054,0.018l-45.395,0
		c-0.003,0.014-1.817,7.107-22.629,6.857c-12.24-0.147-36.825-3.249-48.939-1.5c-4.742,0.685-18.162,6.093-18.162,6.093
		c2.869,9.791,25.083,12.124,37.258,12.664h0l30.848-11.258c0,0,14.666-2.339,15.811,1.447c1.393,4.606-15.058,12.053-15.058,12.053
		s-12.817,7.253-17.568,8.25c-5.63,1.181-23.009-0.58-23.009-0.58l-0.003,0.001c-12.07,9.394-21.669,22.484-20.275,32.368
		c1.118,7.933,10.338,7.701,20.142,5.048l0,0c-1.45-15.169,15.783-17.009,21.388-22.336c6.05-5.75,29.708-19.076,35.752-25.75
		c3.343-3.691,2.976-8.587,4.403-11.25c1.109-2.07,4.935-7.327,7.027-6.25c1.616,0.832-0.531,5.516,0,7.25
		c0.493,1.609,4.855,2.826,5.019,4.5c0.909,9.247-26.903,25.75-26.903,25.75s-20.583,8.591-24.547,14.5
		c-0.736,1.097-0.753,5.222-0.753,5.222c2.158-1.051,3.461-1.746,3.461-1.746s-14.253,20.524-14.671,29.691
		c0,0,1.74,12.408,5.694,14.147c12.474,5.486,25.761-10.063,25.761-10.063c1.1-0.506,2.23-0.302,2.943,0.388l0,0
		c0,0,23.242-50.888,38.049-66.201c1.13-1.169,3.863,2.986,5.081,4.063c0.747,0.661,3.255,1.025,3.453,2
		c0.821,4.04-7.984,9.473-10.793,12.5c-7.056,7.604-21.834,35.25-21.834,35.25s-8.97,16.329-4.768,18.75
		c2.497,1.439,5.604-9.067,8.282-8c3.765,1.5-1.757,24-1.757,24l-7.543,16.101c0,0,1.085-0.022,2.759-0.05
		c11.054-1.656,21.803-20.235,31.433-37.385l0,0C228.012,96.54,222.193,79.375,227.212,68.125z"/>
	<path fill="#6A6967" d="M270.379,97.625c-4.46,1.929-3.416,21.049-7.195,18c-3.275-2.643-3.903-27.697-4.35-37
		c-0.219-4.554-1.169-18.051-5.689-17.333c-1.652,0.262,1.339,51.333,1.339,51.333s0.56,17.916,2.844,23.333
		c0.721,1.709,4.647,5.789,4.649,5.792c6.869-6.951,7.717-31.706,10.911-42.442l0-0.004
		C272.889,99.304,271.073,97.325,270.379,97.625z"/>
	<path fill="#6A6967" d="M282.426,70.458c-1.347-2.772-2.745-9.079-4.852-11.333c-2.635-2.819-10.429-5.332-13.218-8
		c-1.709-1.635-4.862-7.291-7.027-6.333c-2.447,1.082,0,10.667,0,10.667s8.41,7.766,9.872,11.194
		c1.237,2.902,0.789,9.513,1.883,12.472c3.934,10.638,24.051,38.5,24.051,38.5l8.097,10.828c3.599,0.689,6.766-1.536,8.893-8.685
		c0-0.001-3.69-14.021-5.947-18.261C299.725,93.145,286.567,78.977,282.426,70.458z"/>
</g>
<g id="c6">
	<path fill="#353333" d="M67.595,53.958c-4.018-1.352,11.808-5.521,6.358-15.667c-1.387-2.581-10.112-5.973-10.112-5.973
		l-42.759,73.295l2.238,7.282l9.14,1.855l-1.38,7.125l6.149,1.375v9.125l6.149,3.25l-0.544,4.346l15.393-3.179
		c0,0,51.773-2.681,53.373-3.167c23.089-7,5.009-8.552,7.362-10.833c9.286-9-2.369-13.324-6.129-13.834
		c-4.914-0.667-10.871-0.846-13.865-2.583c-1.204-0.699-3.66-4.544-3.66-4.544s6.646-4.081,13.674-9.675
		c-0.003,0-7.358-0.086-8.09-2.031c-1.108-2.944,8.32-7.396,7.194-10.333c-0.969-2.53-8.635,1.534-10.875,0
		c-1.492-1.021,0.968-7.319-0.837-7.167c-4.13,0.349-25.365,15.052-32.187,19.842c-0.752,0.528-1.762-0.139-1.569-1.036l2.97-13.806
		c0,0,4.951-7.86,9.255-17.295l0,0C74.842,60.33,73.785,56.041,67.595,53.958z"/>
	<path fill="#353333" d="M70.284,252.257c0.002-0.003,4.168-6.719-11.891-27.132c-1.035-1.316-2.637-5.427-1.078-6.045
		c3.001-1.19,8.837,6.514,11.629,6.045c3.081-0.517-4.361-11.667-4.361-11.667l-10.875-20.167L43,176.458l-7.027-6.833
		c0,0-3.179-2.294-4.685-1.627c-1.506,0.667-1.076,2.506-1.004,3.294c0.143,1.56-1.728,4.595-3.012,5.5c-1.28,0.903-6.191,1-6.191,1
		l43.358,74.416C66.634,252.425,68.571,252.429,70.284,252.257z"/>
	<path fill="#353333" d="M78.135,206.291c-4.255,5.383,19.017,19.625,19.249,19.767c3.517,0.208,6.905-0.486,9.362-2.934
		C106.746,223.125,83.275,199.79,78.135,206.291z"/>
	<path fill="#353333" d="M102.731,176.625c1.785-2.706,12.246,2.487,12.987-0.667c0.9-3.833-33.566-21.833-33.566-21.833
		s17.091,0.881,18.237,0c1.464-1.125-11.62-7.938-13.385-8.333c-6.693-1.5-40.323-0.333-41.321,0
		c-0.998,0.333-7.396,6.022-6.699,8.667c0.347,1.316,4.379,2.154,4.183,3.5c-0.217,1.489-4.798,2.08-4.852,3.583
		c-0.077,2.141,6.525,5.583,6.525,5.583l13.218,8.833l12.226,9c0,0,11.036,12.248,15.046,16
		c11.879,11.115,16.135,2.847,16.135,2.847c0-0.001,0.001-0.001,0.001-0.002c-4.196-6.518-9.349-12.868-12.181-16.224
		c-0.943-1.118-0.35-2.831,1.083-3.137c0,0,10.812,1.619,21.083,0.789c0,0,0.001-0.002,0.001-0.002S102.009,177.718,102.731,176.625
		z"/>
	<path fill="#353333" d="M149.411,224.125c0.901-1.429,6.776,0,6.776,0s-4.253-6.371-2.51-6.5c3.388-0.25,26.728,9.75,26.728,9.75
		s21.561,11.626,26.728,17.75c17.192,20.375,16.685,6.206,18.823,2c0.944-1.857,6.009-3.435,6.274-5.5
		c0.196-1.529-35.471-56.833-35.471-56.833s-29.615-38.414-35.805-13c-3.215,13.2,14.807,41.458,14.807,41.458
		c-0.167,1.944-22.315-9.378-29.615-2.375c-10.163,9.75,10.039,27.25,10.039,27.25S147.337,227.415,149.411,224.125z"/>
	<path fill="#353333" d="M207.423,283.465c0,0-4.806-10.59-20.617-11.34c-6.1-0.289-11.796-3.5-24.344-2
		c-5.474,0.654-16.564-14.5-16.564-14.5s23.119,4.864,30.953,5.5c4.545,0.369,14.465-2.801,18.237-0.25
		c13.678,9.25,19.029,5.829,19.074,4.75c0.363-8.645-19.325-15.875-27.356-17c-19.858-2.782-30.618-10.5-30.618-10.5
		c0.455,1.388-35.889-5.75-39.026,5.5c-3.04,10.901,7.027,16.5,7.027,16.5c0.821,1.123-29.487,4.181-4.858,23.357l59.193,0
		L207.423,283.465z"/>
	<path fill="#353333" d="M260.675,36.458c-1.76-0.36-4.689-3.995-6.358-3.333c-1.356,0.538-1.483,4.331-2.677,5.167
		c-1.53,1.071-6.358,0.833-7.362,1.333c-1.004,0.5,0.278,50.057,2.844,66.5c0.873,5.592,5.521,21.5,5.354,22
		c-0.167,0.5-6.466-8.754-7.529-12.167c-1.549-4.974-1.344-17.369-5.856-20c-1.26-0.735-5.691,1.313-5.691,1.313l0,0
		c3.852,13.134,10.343,45.841,24.338,46.323c1.631,0.056,3.029-0.619,4.24-1.844c-0.002-0.003-3.929-4.083-4.649-5.792
		c-2.285-5.418-2.844-23.333-2.844-23.333s-2.991-51.071-1.339-51.333c4.52-0.717,5.47,12.78,5.689,17.333
		c0.447,9.303,1.076,34.357,4.35,37c3.778,3.049,2.734-16.071,7.195-18c0.693-0.3,2.51,1.679,2.51,1.679l0,0.004
		c0.161-0.541,0.327-1.051,0.501-1.516c0.936-2.506,16.523,28.495,27.84,30.661l-8.097-10.828c0,0-20.117-27.862-24.051-38.5
		c-1.094-2.959-0.646-9.57-1.883-12.472c-1.462-3.429-9.872-11.194-9.872-11.194s-2.447-9.585,0-10.667
		c2.165-0.957,5.319,4.699,7.027,6.333c2.789,2.668,10.583,5.181,13.218,8c2.107,2.254,3.505,8.561,4.852,11.333
		c4.141,8.519,17.299,22.687,21.751,31.049c2.257,4.24,5.947,18.26,5.947,18.261c0.747-2.512,1.514-6.15,1.977-9.964l-44.092-75.58
		C268.009,34.225,262.641,36.86,260.675,36.458z"/>
	<path fill="#353333" d="M201.362,117.875c0,0,5.521-22.5,1.757-24c-2.678-1.067-5.786,9.439-8.282,8
		c-4.202-2.421,4.768-18.75,4.768-18.75s14.778-27.646,21.834-35.25c2.809-3.027,11.613-8.46,10.793-12.5
		c-0.198-0.975-2.706-1.339-3.453-2c-1.218-1.078-3.951-5.232-5.081-4.063c-14.807,15.313-38.049,66.201-38.049,66.201l0,0
		c0.439,0.425,0.721,1.035,0.738,1.779c0.233,10.302-4.033,33.483,5.689,36.333c1.505,0.441,3.007,0.525,4.503,0.301
		c-1.675,0.028-2.759,0.05-2.759,0.05L201.362,117.875z"/>
	<path fill="#353333" d="M232.242,93.774l-0.009-0.027c0,0-1.117-5.689-1.005-7.602c0.755-12.868,12.632-49.77,9.035-50.77
		c-3.471-0.965-9.459,24.7-13.051,32.75c-5.019,11.25,0.799,28.416,0.799,28.416l0,0c0.787-1.401,1.566-2.793,2.338-4.166
		C230.916,91.368,231.531,92.005,232.242,93.774z"/>
	<path fill="#353333" d="M187.761,43.375c0,0,27.812-16.503,26.903-25.75c-0.165-1.674-4.527-2.891-5.019-4.5
		c-0.531-1.734,1.616-6.418,0-7.25c-2.092-1.077-5.918,4.18-7.027,6.25c-1.427,2.663-1.061,7.559-4.403,11.25
		c-6.044,6.674-29.702,20-35.752,25.75c-5.605,5.327-22.838,7.167-21.388,22.336l0,0c8.177-2.213,16.757-6.109,21.388-8.364
		c0,0,0.017-4.125,0.753-5.222C167.179,51.966,187.761,43.375,187.761,43.375z"/>
	<path fill="#353333" d="M180.03,6.875c20.812,0.25,22.626-6.843,22.629-6.857h-84.947c0,0-5.708,8.293-4.784,11.45
		c0,0,13.421-5.409,18.162-6.093C143.204,3.626,167.79,6.728,180.03,6.875z"/>
	<path fill="#353333" d="M164.219,34.625c4.751-0.997,17.568-8.25,17.568-8.25s16.452-7.447,15.058-12.053
		c-1.145-3.786-15.811-1.447-15.811-1.447l-30.848,11.258h0c1.402,0.062,2.672,0.101,3.763,0.124
		c0.911,0.019,1.176,1.249,0.352,1.636c-4.425,2.08-8.908,4.895-13.094,8.152l0.003-0.001
		C141.21,34.045,158.588,35.806,164.219,34.625z"/>
	<path fill="#353333" d="M295.477,174.625c-1.315,2.058-5.288,6.21-7.749,8.708c-0.72,0.731-1.962,0.191-1.92-0.832l0.512-12.419
		c0.032-0.777-0.999-1.083-1.399-0.415c0,0-16.188,23.802-19.561,32.707c-0.833,2.2-1.706,7.436-2.242,11.039
		c-0.152,1.025-1.563,1.199-1.961,0.242l-5.835-14.031l-5.787-13.177c-0.305-0.694-1.341-0.501-1.374,0.255l-0.496,11.366
		c-0.047,1.074-1.353,1.58-2.116,0.82l-4.471-7.141l-0.212,9.098c-0.021,0.903-1.279,1.111-1.592,0.264l-5.536-14.985l-6.845-19.604
		c-0.248-0.71-1.297-0.554-1.327,0.197c0,0-0.678,6.909-0.361,9.186c2.033,14.578,18.321,55.972,18.321,55.972
		s1.806,8.566,4.267,9.25c2.045,0.568,4.904-4.713,7.027-4.75c2.218-0.038,4.057,6.192,6.274,6.25
		c1.932,0.051,2.623-5.868,4.517-6.25c2.249-0.453,6.324,6.171,6.324,6.171l41.291-70.779c0,0-0.372-4.559-1.564-9.77
		C309.87,162.767,300.244,167.161,295.477,174.625z"/>
</g>
</svg>
