<?xml version="1.0" encoding="utf-8"?>
<!-- Generator: Adobe Illustrator 22.0.0, SVG Export Plug-In . SVG Version: 6.00 Build 0)  -->
<svg version="1.1" xmlns="http://www.w3.org/2000/svg" xmlns:xlink="http://www.w3.org/1999/xlink" x="0px" y="0px"
	 viewBox="0 0 330.738 283.5" enable-background="new 0 0 330.738 283.5" xml:space="preserve">
<g id="c2">
	<g>
		<g>
			<g>
				<path fill="#DEDEDE" d="M330.738,141.75c-27.561,47.244-55.123,94.488-82.685,141.733c-55.123,0-110.246-0.001-165.369-0.001
					C55.123,236.237,27.561,188.994,0,141.75C27.561,94.505,55.123,47.262,82.684,0.018c55.123,0,110.247,0,165.37,0
					C275.615,47.262,303.177,94.505,330.738,141.75z"/>
			</g>
		</g>
	</g>
</g>
<g id="c5">
	<path fill="#FFFFFF" stroke="#1D1D1B" stroke-width="0.9982" stroke-miterlimit="10" d="M64.496,200.75"/>
	<path fill="#353333" d="M129.736,243c-10.792,3.25-59.425-32.516-59.425-32.516s0.068-12.041,1.255-10.968
		c37.34,33.734,52.708,36.188,52.708,36.188C127.719,240.139,129.736,243,129.736,243z"/>
	<path fill="#353333" d="M54.481,87.5c-2.1,4.496-11.253,20.75-11.253,20.75l-9.865,2.5l-6.776-2.5L38.045,83l12.382-6.501
		C70.31,56.083,115.263,39.75,115.263,39.75c-3.346-1.667-5.472-4.128-4.517-5.667c3.514-5.667,15.728,1.333,15.728,1.333
		l2.51,11.833c0,0-9.314,10.25-12.381,8.167c-1.763-1.197,1.92-8.941-0.167-8.5C105.392,49.25,63.259,68.703,54.481,87.5z"/>
	<polygon fill="#353333" points="71.372,90.276 118.442,73.25 65.748,106.5 62.843,102.625 60.217,95.681 	"/>
	<path fill="#353333" d="M0,141.75l38.131-28c0,0,5.438,2.42,5.097,4c-1.834,8.5-17.143,21.75-17.143,21.75
		c32.395-2.25,45.481-17.626,45.481-17.626l3.96,5.876c-5.94,8.833-46.602,19.75-46.602,19.75c26.297,0.75,50.366,8,50.366,8
		l-4.267,6.862c-9.276-5.779-46.1-9.112-46.1-9.112c32.129,25.5,91.024,49,114.615,56.5c3.209,1.02-3.919-10.457-0.848-11.835
		c3.797-1.703,10.635,11.835,10.635,11.835l-3.765,12.23c-5.354,4.103-16.062,0-16.062,0s-0.827-2.501-0.251-2.98
		c1.998-1.662,6.525-3.75,6.525-3.75c-14.556,1.25-79.892-32.275-79.892-32.275l-48.957-22.497L0,141.75z"/>
	<path fill="#353333" d="M288.415,109.955c-0.586-0.451-2.776-1.106-3.831-0.13c-1.209,1.119-1.473,2.918-1.255,3.925
		c2.008,9.273,19.576,18,19.576,18c-4.016,4.5-47.183-8.727-47.183-8.727l-6.274,3.727c0,0,4.027,1.937,5.27,2.75
		c8.031,5.25,39.904,9.75,39.904,9.75c-21.834,5.5-37.144,17.5-37.144,17.5l-1.757,4c0,0,3.736,1.668,4.768,1.022
		c29.602-18.522,47.099-18.897,47.099-18.897C299.56,148.625,285.338,167,285.338,167l1.004,4.75h4.227l40.169-30
		C330.738,141.75,297.886,117.25,288.415,109.955z"/>
	<path fill="#353333" d="M261.285,78.404c-15.182-12.821-60.106-26.987-60.106-26.987c35.051,22.833,68.489,44.667,68.585,44.167
		s-4.086-14.781-4.086-14.781S262.241,79.211,261.285,78.404z"/>
</g>
<g id="c4">
	<path fill="#6A6967" d="M24.05,182.975c0,0-7.149-23.234-1.545-22.479c13.87,1.867,20.897,14.755,20.897,14.755L45.409,189
		l-3.263,3.5c28.36,32.75,47.935,90.982,47.935,90.982l-7.398-0.001L24.05,182.975z"/>
	<path fill="#FFFFFF" stroke="#1D1D1B" stroke-width="0.9982" stroke-miterlimit="10" d="M64.496,200.75"/>
	<path fill="#6A6967" d="M124.273,235.704l-16.623-4.954l-41.902-26.461l-7.268-29.039l26.155,15.5c0,0,3.378,5.339,4.988,6.659
		C101.627,207.25,124.273,235.704,124.273,235.704z"/>
	<path fill="#6A6967" d="M23.926,100.453c0,0-9.888,31.112-1.984,31.465c4.142,0.185,16.189-18.168,16.189-18.168
		c5.097-3.25,0-5.75,0-5.75h-6.023C64.232,55,90.082,0.018,90.082,0.018h-7.398L23.926,100.453z"/>
	<path fill="#6A6967" d="M35.605,138.397C58.479,118.75,131.744,74.5,131.744,74.5c-0.747-3.243-13.301-1.25-13.301-1.25
		l-55.599,29.375L33.112,123l-10.541,20.295C22.571,143.295,32.967,140.662,35.605,138.397z"/>
	<path fill="#6A6967" d="M306.688,100.525c0,0,7.149,23.234,1.545,22.479c-13.87-1.867-20.897-14.755-20.897-14.755l-2.008-13.75
		l3.263-3.5c-28.36-32.75-47.935-90.982-47.935-90.982l7.398,0.001L306.688,100.525z"/>
	<path fill="#6A6967" d="M306.812,183.047c0,0,9.888-31.112,1.984-31.465c-4.142-0.185-16.189,18.168-16.189,18.168
		c-5.097,3.25,0,5.75,0,5.75h6.023c-32.124,53-57.974,107.982-57.974,107.982h7.398L306.812,183.047z"/>
	<path fill="#6A6967" d="M287.862,121.138c0,0-54.81-23.568-86.682-69.721l80.059,46.153L287.862,121.138z"/>
</g>
<g id="c3">
	<path fill="#FFFFFF" stroke="#1D1D1B" stroke-width="0.9982" stroke-miterlimit="10" d="M64.496,200.75"/>
	<g>
		<path fill="#9D9FA2" d="M54.481,87.5h2.725c0,0,7.651,5.529,7.278,8.25c-3.012,22-21.255,22-21.255,22l-5.097-4
			c0,0-0.193-4.325,0-5.75C39.386,98.75,54.481,87.5,54.481,87.5z"/>
		<path fill="#9D9FA2" d="M70.31,128.25C61.97,114.301,113.674,98,110.662,106.5c-0.462,1.305,0.895,4.165,1.757,5.25
			C117.187,117.75,77.785,140.75,70.31,128.25z"/>
		<path fill="#9D9FA2" d="M46.413,174.25c9.494-4.001,21.584,23,21.584,23c-7.78-1.25-9.286,6.5-9.286,6.5
			C53.916,205.074,45.409,189,45.409,189S39.888,177,46.413,174.25z"/>
		<path fill="#9D9FA2" d="M74.606,157.083c4.281-9.079,35.101,3.151,38.212,12.691c0.736,2.256-2.651,6.609-3.448,8.844
			C105.726,188.836,70.255,166.311,74.606,157.083z"/>
		
			<ellipse transform="matrix(0.4528 -0.8916 0.8916 0.4528 23.9385 276.1807)" fill="#9D9FA2" cx="236.97" cy="118.588" rx="10.15" ry="23.059"/>
		
			<ellipse transform="matrix(0.7101 -0.7041 0.7041 0.7101 -45.5633 249.7574)" fill="#9D9FA2" cx="280.518" cy="180.21" rx="16.019" ry="9.773"/>
		
			<ellipse transform="matrix(0.8415 -0.5402 0.5402 0.8415 -53.8811 156.9352)" fill="#9D9FA2" cx="240.529" cy="170.299" rx="22.872" ry="9.765"/>
		
			<ellipse transform="matrix(0.8951 -0.4458 0.4458 0.8951 -14.3502 134.1333)" fill="#9D9FA2" cx="277.945" cy="97.57" rx="8.547" ry="17.606"/>
	</g>
</g>
<g id="c6">
	<path fill="#FFFFFF" stroke="#1D1D1B" stroke-width="0.9982" stroke-miterlimit="10" d="M64.496,200.75"/>
	<ellipse fill="#6A6967" cx="163.94" cy="20.486" rx="6.274" ry="7.338"/>
	<g>
		<ellipse fill="#6A6967" cx="65.748" cy="204.289" rx="7.268" ry="7.961"/>
		
			<ellipse transform="matrix(0.7738 -0.6334 0.6334 0.7738 9.2146 187.4095)" fill="#6A6967" cx="267.01" cy="80.803" rx="5.596" ry="6.427"/>
		<ellipse fill="#6A6967" cx="64.496" cy="88.64" rx="7.069" ry="7.042"/>
		
			<ellipse transform="matrix(0.6755 -0.7374 0.7374 0.6755 -40.7024 119.1217)" fill="#6A6967" cx="114.982" cy="105.802" rx="8.593" ry="4.719"/>
		
			<ellipse transform="matrix(0.3023 -0.9532 0.9532 0.3023 -88.5691 230.0882)" fill="#6A6967" cx="112.896" cy="175.548" rx="5.65" ry="7.014"/>
		
			<ellipse transform="matrix(0.643 -0.7658 0.7658 0.643 -52.9478 276.1547)" fill="#6A6967" cx="269.765" cy="194.876" rx="6.434" ry="5.596"/>
		
			<ellipse transform="matrix(0.6166 -0.7873 0.7873 0.6166 -57.7806 244.7063)" fill="#6A6967" cx="222.354" cy="181.678" rx="6.264" ry="6.879"/>
		
			<ellipse transform="matrix(0.6228 -0.7824 0.7824 0.6228 -3.4353 212.3797)" fill="#6A6967" cx="218.548" cy="109.753" rx="6.774" ry="7.904"/>
	</g>
</g>
<g id="c7">
	<path fill="#9D9FA2" d="M0,141.75c13.536,8.5,36.291-19.858,23.926-41.297L0,141.75z"/>
	<path fill="#9D9FA2" d="M0,141.75c23.073,13.334,36.793,34.167,24.05,41.225L0,141.75z"/>
	<path fill="#9D9FA2" d="M330.738,141.75c-16.074-8.325-32.099,27.027-23.926,41.297L330.738,141.75z"/>
	<path fill="#9D9FA2" d="M330.738,141.75c-17.793-3.75-41.291-30.38-24.05-41.225L330.738,141.75z"/>
</g>
<g id="c8">
	<path fill="#353333" d="M84.635,268.872l5.447,14.61l14.807-0.001l7.529-5.731l-8.282-0.5c0,0,6.025-5.923,5.521-8.378
		c-1.255-6.122-15.309,4.878-15.309,4.878l-2.51-11l-5.019,6L84.635,268.872z"/>
	<path fill="#353333" d="M78.653,23.308c0,0,1.603,4.225,2.645,4.442c3.812,0.795,3.903-5.15,3.628-8.707
		c-0.091-1.173,1.071-2.042,2.179-1.634c0,0,10.255,5.841,12.918,4.753c1.788-0.731-0.705-5.512-2.375-8.335
		c-0.651-1.101-0.16-2.518,1.035-2.984c0,0,3.446-0.422,3.446-1.343c0-5.125-13.917-5.565-13.917-5.565L78.653,23.308z"/>
	<path fill="#353333" d="M246.103,14.628l-5.447-14.61l-14.807,0.001l-7.529,5.731l8.282,0.5c0,0-6.025,5.923-5.521,8.378
		c1.255,6.122,15.309-4.878,15.309-4.878l2.51,11l5.019-6L246.103,14.628z"/>
	<path fill="#353333" d="M252.085,260.192c0,0-1.603-4.225-2.645-4.442c-3.813-0.795-3.903,5.15-3.628,8.707
		c0.091,1.173-1.071,2.042-2.179,1.634c0,0-10.255-5.841-12.918-4.753c-1.788,0.731,0.705,5.512,2.375,8.335
		c0.651,1.101,0.16,2.518-1.035,2.984c0,0-3.446,0.422-3.446,1.343c0,5.125,13.917,5.565,13.917,5.565L252.085,260.192z"/>
</g>
<g id="c10">
	<g>
		<path fill="#353333" d="M139.495,54.768c-4.154,2.833-14.138,8-12.855,9.333c2.377,2.469,13.72,0.667,13.72,0.667
			s5.103,11.211,7.529,11.167c4.067-0.074,1.171-16.167,1.171-16.167S141.723,53.248,139.495,54.768z"/>
		<path fill="#353333" d="M132.998,11.893c0,0-10.415-9.5-12.047-8.625c-2.84,1.523,2.09,9.43,2.384,12.63
			c0.063,0.683-8.069,5.654-6.902,9.745c0.627,2.199,13.929-3.25,13.929-3.25L132.998,11.893z"/>
		<path fill="#353333" d="M161.609,13.893c0,0-8.907-9.099-11.549-7c-1.535,1.219,1.159,6.23,2.534,8.555
			c0.462,0.781,0.57,1.717,0.298,2.582l-0.515,1.642c-0.194,0.618-0.588,1.152-1.123,1.52c-2.163,1.486-7.792,5.609-6.711,7.576
			c1.79,3.258,14.682-2.602,14.682-2.602L161.609,13.893z"/>
		<path fill="#353333" d="M164.859,38.393c0,0-14.756,1.813-14.799,3.875c-0.036,1.75,11.549,5.598,11.549,5.598l2.259,2.402
			c0,0-0.15,8.121,2.008,8.5c4.267,0.75,5.521-11.625,5.521-11.625L164.859,38.393z"/>
		<path fill="#353333" d="M196.076,20.101c0,0-14.011-5.531-14.389-1.935c-0.221,2.102,7.195,10.768,7.195,10.768
			s-4.168,9.828-1.673,11.167c4.35,2.333,12.047-8.214,12.047-8.214L196.076,20.101z"/>
		<path fill="#353333" d="M135.006,236.434c0.828-3.396,13.887-2,13.887-2l4.434,8.792c0,0-4.386,14.288-8.449,11.541
			c-2.342-1.583-1.937-12.576-1.673-12.5C143.205,242.268,134.412,238.872,135.006,236.434z"/>
		<path fill="#353333" d="M173.656,181.24c7.027,0,0.167,12.528,0.167,12.528l-13.095,5.698c0,0-12.504-5.532-10.715-10.612
			c1.296-3.679,8.411,0.589,15.356-1.253L173.656,181.24z"/>
		<path fill="#353333" d="M184.866,220.434c0,0-12.345-4.602-11.879-8.167c0.367-2.81,10.708-3.833,10.708-3.833
			s1.887-12.087,5.187-12.089c4.349-0.003,6.86,15.923,6.86,15.923L184.866,220.434z"/>
		<path fill="#353333" d="M186.706,243.934c0,0-11.332,8.483-14.054,5.833c-2.055-2,4.171-10.667,4.171-10.667
			s-9.276-9.001-7.015-11.5c2.571-2.842,13.887,6.549,13.887,6.549L186.706,243.934z"/>
		<path fill="#353333" d="M216.154,243.227c0,0-13.619,5.488-14.891,3.208c-1.004-1.8,7.445-9.874,7.445-9.874
			s-3.525-12.424-2.259-13.626c1.673-1.588,13.218,8.167,13.218,8.167L216.154,243.227z"/>
	</g>
</g>
<g id="c11">
	<ellipse fill="#6A6967" cx="163.94" cy="20.486" rx="6.274" ry="7.338"/>
	<g>
		<ellipse fill="#6A6967" cx="132.426" cy="40.806" rx="7.069" ry="7.042"/>
		<ellipse fill="#6A6967" cx="135.561" cy="17.595" rx="6.578" ry="6.553"/>
		<ellipse fill="#6A6967" cx="146.641" cy="53.84" rx="6.367" ry="7.423"/>
		<ellipse fill="#6A6967" cx="171.181" cy="40.119" rx="6.323" ry="6.298"/>
		
			<ellipse transform="matrix(0.8751 -0.4839 0.4839 0.8751 12.8401 100.1811)" fill="#6A6967" cx="200.54" cy="25.21" rx="7.522" ry="6.869"/>
		
			<ellipse transform="matrix(0.442 -0.897 0.897 0.442 -107.7364 260.8605)" fill="#6A6967" cx="155.799" cy="217.023" rx="6.67" ry="7.65"/>
		
			<ellipse transform="matrix(0.4687 -0.8834 0.8834 0.4687 -126.8752 262.1366)" fill="#6A6967" cx="154.482" cy="236.542" rx="6.782" ry="6.232"/>
		
			<ellipse transform="matrix(0.8872 -0.4614 0.4614 0.8872 -73.4707 100.266)" fill="#6A6967" cx="168.303" cy="200.376" rx="9.293" ry="6.07"/>
		<ellipse fill="#6A6967" cx="191.184" cy="218.202" rx="7.489" ry="7.46"/>
		<ellipse fill="#6A6967" cx="187.46" cy="238.291" rx="5.648" ry="5.626"/>
		<ellipse fill="#6A6967" cx="220.912" cy="238.291" rx="7.79" ry="7.76"/>
	</g>
</g>
</svg>
