<?xml version="1.0" encoding="utf-8"?>
<!-- Generator: Adobe Illustrator 22.0.0, SVG Export Plug-In . SVG Version: 6.00 Build 0)  -->
<svg version="1.1" xmlns="http://www.w3.org/2000/svg" xmlns:xlink="http://www.w3.org/1999/xlink" x="0px" y="0px"
	 viewBox="0 0 330.738 283.5" enable-background="new 0 0 330.738 283.5" xml:space="preserve">
<g id="c1">
	<g id="c2_1_">
		<polygon fill="#353333" points="330.723,141.75 248.046,0.026 82.692,0.026 0.015,141.75 82.692,283.475 248.046,283.475 		"/>
	</g>
</g>
<g id="c2">
	<polyline fill="#9D9FA2" points="270.989,169.345 303.768,188.075 314.694,169.345 270.989,169.345 	"/>
	<polyline fill="#9D9FA2" points="270.989,114.133 303.749,95.414 314.654,114.108 270.989,114.133 	"/>
	<polyline fill="#9D9FA2" points="136.791,37.487 136.793,0.027 114.94,0.026 136.791,37.487 	"/>
	<polyline fill="#9D9FA2" points="88.477,65.091 66.623,27.677 55.717,46.371 88.477,65.091 66.623,27.677 55.717,46.371 	"/>
	<polyline fill="#9D9FA2" points="59.867,114.169 27.088,95.438 16.161,114.167 59.867,114.169 	"/>
	<polyline fill="#9D9FA2" points="59.865,169.381 27.104,188.099 16.2,169.405 59.865,169.381 	"/>
	<polyline fill="#9D9FA2" points="88.514,218.449 55.737,237.182 66.665,255.91 88.514,218.449 	"/>
	<polyline fill="#9D9FA2" points="136.829,246.05 136.833,283.488 115.023,283.49 136.829,246.05 	"/>
	<polyline fill="#9D9FA2" points="194.065,246.029 194.064,283.489 215.917,283.49 194.065,246.029 	"/>
	<polyline fill="#9D9FA2" points="242.379,218.425 275.138,237.145 264.233,255.838 242.379,218.425 	"/>
	<polyline fill="#9D9FA2" points="242.35,65.078 275.13,46.349 264.204,27.618 242.35,65.078 	"/>
	<polyline fill="#9D9FA2" points="194.038,37.47 194.039,0.032 215.849,0.033 194.038,37.47 	"/>
</g>
<g id="c3">
	<g id="c6">
		<path fill="#FFFFFF" stroke="#1D1D1B" stroke-miterlimit="10" d="M296.185,200.703"/>
		<g>
			<polygon fill="#DEDEDE" points="165.365,86.529 165.365,86.529 141.024,43.31 141.026,0.024 189.714,0.026 189.713,43.313 			"/>
			<polygon fill="#DEDEDE" points="165.365,196.98 165.365,196.98 189.707,240.198 189.705,283.485 141.017,283.484 
				141.018,240.197 			"/>
		</g>
	</g>
</g>
<g id="c4">
	<g id="c8">
		<path fill="#FFFFFF" stroke="#1D1D1B" stroke-miterlimit="10" d="M296.185,200.703"/>
		<g>
			<polygon fill="#DEDEDE" points="213.691,169.366 213.691,169.366 263.679,170.11 301.557,191.753 277.213,233.484 
				239.335,211.841 			"/>
			<polygon fill="#DEDEDE" points="117.04,114.142 117.04,114.142 67.051,113.396 29.174,91.752 53.519,50.022 91.396,71.666 			"/>
		</g>
	</g>
</g>
<g id="c5">
	<g id="c7">
		<path fill="#FFFFFF" stroke="#1D1D1B" stroke-miterlimit="10" d="M296.185,200.703"/>
		<g>
			<g>
				<polygon fill="#DEDEDE" points="117.043,169.373 117.043,169.373 91.402,211.849 53.526,233.496 29.178,191.767 67.053,170.12 
									"/>
				<polygon fill="#DEDEDE" points="213.69,114.142 213.69,114.142 239.336,71.669 277.215,50.027 301.558,91.758 263.679,113.401 
									"/>
			</g>
		</g>
	</g>
</g>
<g id="c11_1_">
	<polygon fill="#6A6967" points="13.976,117.817 21.527,129.789 13.891,141.764 21.478,153.72 13.979,165.679 65.913,165.711 
		109.569,141.807 65.889,117.849 	"/>
	<polygon fill="#6A6967" points="220.422,0.011 226.888,12.602 241.082,12.12 247.516,24.734 261.626,24.362 235.234,69.09 
		192.446,94.514 194.04,44.721 	"/>
	<polygon fill="#6A6967" points="220.881,282.835 227.306,270.223 241.501,270.659 247.894,258.024 262.006,258.351 
		235.469,213.709 192.598,188.423 194.355,238.211 	"/>
	<polygon fill="#6A6967" points="110.427,283.058 103.951,270.472 89.758,270.965 83.314,258.357 69.203,258.74 95.56,213.991 
		138.328,188.533 136.773,238.328 	"/>
	<polygon fill="#6A6967" points="111.483,0.065 104.913,12.602 90.724,12.004 84.186,24.564 70.079,24.075 96.101,69.019 
		138.678,94.796 137.494,44.991 	"/>
	<polygon fill="#6A6967" points="316.763,117.817 309.212,129.789 316.847,141.764 309.261,153.72 316.76,165.679 264.826,165.711 
		221.17,141.807 264.85,117.849 	"/>
</g>
<g id="c9">
	<g id="c11">
		<path fill="#FFFFFF" stroke="#1D1D1B" stroke-miterlimit="10" d="M295.547,200.703"/>
		<g>
			<path fill="#9D9FA2" d="M199.662,140.928l2.764-4.555c0.149-0.246,0.35-0.351,0.546-0.284l12.687,4.287
				c1.318,0.445,1.306,2.484-0.016,2.911c0,0-9.521,3.077-12.695,4.103c-0.196,0.063-0.397-0.044-0.545-0.293l-2.746-4.6
				C199.398,142.065,199.401,141.359,199.662,140.928z"/>
			<path fill="#9D9FA2" d="M194.565,123.749l0.094-5.313c0.005-0.287,0.127-0.477,0.33-0.517l13.152-2.567
				c1.366-0.267,2.385,1.505,1.456,2.53c0,0-6.692,7.378-8.923,9.837c-0.138,0.152-0.366,0.158-0.62,0.017l-4.701-2.624
				C194.911,124.864,194.556,124.251,194.565,123.749z"/>
			<path fill="#9D9FA2" d="M181.481,111.395l-2.6-4.648c-0.14-0.251-0.131-0.476,0.025-0.611l10.095-8.732
				c1.049-0.907,2.826,0.123,2.538,1.471c0,0-2.072,9.702-2.763,12.936c-0.043,0.2-0.238,0.318-0.529,0.321l-5.396,0.053
				C182.343,112.19,181.727,111.835,181.481,111.395z"/>
			<path fill="#9D9FA2" d="M163.909,107.171l-4.599-2.739c-0.248-0.148-0.354-0.347-0.287-0.541l4.335-12.559
				c0.45-1.305,2.509-1.292,2.94,0.018c0,0,3.104,9.428,4.138,12.571c0.064,0.194-0.045,0.393-0.296,0.54l-4.647,2.717
				C165.057,107.432,164.344,107.429,163.909,107.171z"/>
			<path fill="#9D9FA2" d="M146.551,112.213l-5.366-0.095c-0.29-0.005-0.482-0.125-0.522-0.326l-2.589-13.023
				c-0.269-1.353,1.52-2.361,2.555-1.441c0,0,7.45,6.628,9.933,8.837c0.154,0.137,0.16,0.363,0.017,0.614l-2.652,4.654
				C147.677,111.871,147.058,112.222,146.551,112.213z"/>
			<path fill="#9D9FA2" d="M134.064,125.177l-4.694,2.575c-0.253,0.139-0.481,0.13-0.617-0.024l-8.82-9.995
				c-0.916-1.038,0.124-2.798,1.485-2.513c0,0,9.799,2.05,13.065,2.734c0.202,0.042,0.322,0.235,0.324,0.523l0.054,5.343
				C134.867,124.323,134.508,124.933,134.064,125.177z"/>
			<path fill="#9D9FA2" d="M129.8,142.581l-2.765,4.554c-0.149,0.246-0.351,0.351-0.546,0.284l-12.686-4.288
				c-1.318-0.445-1.306-2.484,0.017-2.911c0,0,9.521-3.076,12.695-4.101c0.196-0.063,0.397,0.044,0.545,0.293l2.745,4.6
				C130.064,141.445,130.061,142.151,129.8,142.581z"/>
			<path fill="#9D9FA2" d="M134.894,159.761l-0.095,5.313c-0.005,0.287-0.127,0.477-0.33,0.517l-13.152,2.565
				c-1.366,0.266-2.385-1.505-1.455-2.53c0,0,6.693-7.377,8.924-9.836c0.138-0.152,0.366-0.158,0.62-0.016l4.7,2.625
				C134.549,158.646,134.903,159.259,134.894,159.761z"/>
			<path fill="#9D9FA2" d="M147.977,172.117l2.6,4.649c0.14,0.251,0.131,0.476-0.025,0.611l-10.097,8.731
				c-1.049,0.907-2.826-0.123-2.538-1.471c0,0,2.073-9.702,2.764-12.935c0.043-0.2,0.238-0.318,0.529-0.321l5.396-0.053
				C147.115,171.322,147.731,171.677,147.977,172.117z"/>
			<path fill="#9D9FA2" d="M165.549,176.343l4.599,2.739c0.248,0.148,0.354,0.347,0.287,0.541l-4.337,12.559
				c-0.45,1.305-2.509,1.292-2.94-0.018c0,0-3.102-9.429-4.137-12.572c-0.064-0.194,0.045-0.393,0.296-0.54l4.647-2.716
				C164.401,176.082,165.114,176.085,165.549,176.343z"/>
			<path fill="#9D9FA2" d="M182.907,171.304l5.366,0.095c0.29,0.005,0.482,0.125,0.522,0.327l2.588,13.023
				c0.269,1.353-1.521,2.361-2.555,1.44c0,0-7.449-6.629-9.932-8.839c-0.154-0.137-0.16-0.363-0.016-0.614l2.652-4.653
				C181.781,171.645,182.4,171.295,182.907,171.304z"/>
			<path fill="#9D9FA2" d="M195.396,158.341l4.695-2.575c0.253-0.139,0.481-0.13,0.617,0.024l8.819,9.996
				c0.916,1.038-0.124,2.798-1.485,2.513c0,0-9.799-2.052-13.065-2.735c-0.202-0.042-0.322-0.235-0.324-0.523l-0.054-5.343
				C194.593,159.195,194.952,158.585,195.396,158.341z"/>
		</g>
	</g>
</g>
<g id="c10">
	<g>
		<polygon fill="#6A6967" points="191.047,156.443 191.576,167.708 180.194,167.184 174.961,177.202 165.369,171.115 
			155.776,177.202 150.543,167.184 139.161,167.708 139.691,156.443 129.568,151.264 135.718,141.771 129.568,132.277 
			139.691,127.098 139.161,115.833 150.543,116.357 155.776,106.339 165.369,112.426 174.961,106.339 180.194,116.357 
			191.576,115.833 191.047,127.098 201.169,132.277 195.019,141.771 201.169,151.264 		"/>
	</g>
</g>
</svg>
