<?xml version="1.0" encoding="utf-8"?>
<!-- Generator: Adobe Illustrator 22.0.0, SVG Export Plug-In . SVG Version: 6.00 Build 0)  -->
<svg version="1.1" xmlns="http://www.w3.org/2000/svg" xmlns:xlink="http://www.w3.org/1999/xlink" x="0px" y="0px"
	 viewBox="0 0 330.738 283.5" enable-background="new 0 0 330.738 283.5" xml:space="preserve">
<g id="c2">
	<path fill="#DEDEDE" d="M81.983,0.796c54.885-0.259,109.769-0.519,164.654-0.778c27.535,46.985,55.071,93.969,82.606,140.954
		c-27.35,47.244-54.699,94.488-82.048,141.732c-54.885,0.259-109.769,0.519-164.654,0.779
		C55.005,236.498,27.99,189.293,0.455,142.309L81.983,0.796z"/>
</g>
<g id="c5">
	<polygon fill="#353333" points="0.715,142.312 2.814,145.862 301.371,144.368 40.356,209.95 43.912,216.017 307.318,149.872 
		81.745,280.572 83.321,283.262 91.136,283.224 325.538,148.5 330.023,140.752 325.73,133.415 89.774,0.543 82.763,0.576 
		81.001,3.62 307.231,131.831 43.565,68.283 40.037,74.377 301.337,137.391 2.78,138.739 0.715,142.309 	"/>
</g>
</svg>
