<?xml version="1.0" encoding="utf-8"?>
<!-- Generator: Adobe Illustrator 22.0.0, SVG Export Plug-In . SVG Version: 6.00 Build 0)  -->
<svg version="1.1" xmlns="http://www.w3.org/2000/svg" xmlns:xlink="http://www.w3.org/1999/xlink" x="0px" y="0px"
	 viewBox="0 0 330.738 283.5" enable-background="new 0 0 330.738 283.5" xml:space="preserve">
<g id="c1">
	<polygon fill="#DEDEDE" points="248.053,0.034 82.684,0.034 0,141.766 82.684,283.498 248.053,283.498 330.738,141.766 	"/>
	<g>
		<path fill="#353333" d="M28.111,126.773l-6.126,12.586v4.363l-2.652,6.209c0,0,5.368,1.426,11.747-1.342l7.073-0.671l6.252-10.824
			l-3.347-7.467L28.111,126.773z"/>
		<path fill="#353333" d="M119.36,76.12l3.284-11.118c0,0,13.136,7.161,15.915,12.248l-6.189,5.967h-5.052l-5.684,0.942
			l-0.442-5.779L119.36,76.12z"/>
		<path fill="#353333" d="M261.379,203.247l16.791,2.516c0,0-7.796,20.283-14.633,25.28l-9.888-7.708l-1-7.256l-2.493-7.976
			l8.302-1.779L261.379,203.247z"/>
		<path fill="#353333" d="M183.911,99.117l7.411,7.743h18.096c0,0,5.774,1.35,12.84-5.612c0,0,8.1-0.994,9.565-2.131
			c0,0-6.032-8.027-4.05-15.272l-4.222-5.825H203.99l-5.257-3.623l-7.842,4.475l-3.878,0.213L183.911,99.117z"/>
		<path fill="#353333" d="M120.289,249.171l-19.388-4.46c0,0-8.778,14.133-12.252,17.085l0.442,8.794l8.968,1.005l3.916,2.764
			l10.483-5.59L120.289,249.171z"/>
		<path fill="#353333" d="M205.005,173.276c0,0,5.377,7.318,4.734,12.537l16.366,6.51c0,0,3.215-8.286,3.332-10.223
			c0,0-5.027-5.703-5.728-9.362s-5.786-8.932-5.786-8.932L205.005,173.276z"/>
		<path fill="#353333" d="M273.18,180.035l5.336,7.351l7.516-5.731c0,0,2.926,0.058,3.5-1.158c0.574-1.216,7.057-14.24,7.057-14.24
			l-10.041-1.158L273.18,180.035z"/>
		<path fill="#353333" d="M57.376,226.711l13.789,0.219c0,0,1.839-4.152,2.528-4.589l-2.758-22.889l-11.185,12.128L57.376,226.711z"
			/>
		<path fill="#353333" d="M204.479,240.993l8.63,7.214l10.946-3.84l5.908-0.465l-2.78-11.112l-0.927-9.396l-7.24-0.436l-1.795,5.469
			c0,0-8.166,6.4-8.224,9.367L204.479,240.993z"/>
		<path fill="#353333" d="M85.45,141.766c0.862,0.145,2.312,0.232,3.663,0.643c9.886,3.007,19.766,6.038,29.62,9.147
			c5.8,1.83,9.704,5.383,11.682,11.428c2.181,6.664,5.179,13.066,7.881,19.558c0.696,1.673,0.372,3.057-0.186,4.76
			c-1.895,5.781-3.421,11.682-5.083,17.539c-0.365,1.286-0.602,2.618-1.08,3.86c-0.94,2.443-2.097,2.663-3.776,0.699
			c-1.031-1.205-1.963-2.518-2.777-3.878c-3.314-5.535-6.356-11.243-9.906-16.621c-2.704-4.096-6.046-7.772-9.061-11.668
			c-1.69-2.184-3.32-4.416-4.929-6.66c-5.374-7.495-10.73-15.001-16.08-22.513c-0.777-1.091-1.571-2.186-2.2-3.362
			C82.174,142.752,82.702,141.906,85.45,141.766z"/>
		<path fill="#353333" d="M87.328,56.639c1.53,6.922-4.363,11.073-7.873,16.087c-3.501,5-9.571,5.809-15.238,6.789
			c-1.651,0.286-3.332,0.407-5.004,0.559c-1.54,0.14-2.039-0.784-1.607-2.029c0.399-1.15,1.069-2.245,1.798-3.233
			c0.74-1.003,1.67-1.876,2.569-2.752c2.015-1.963,1.984-4.089,0.613-6.363c-0.994-1.649-2.038-3.271-2.945-4.966
			c-1.213-2.267-0.839-3.457,1.647-3.743c7.623-0.876,14.566-3.885,21.702-6.34c4.271-1.469,4.851-0.926,4.559,3.462
			C87.505,54.778,87.433,55.443,87.328,56.639z"/>
		<path fill="#353333" d="M162.351,264.125c0.67-1.136,1.305-1.998,1.717-2.956c0.732-1.702,1.633-3.415,1.909-5.208
			c0.418-2.711,3.355-2.047,4.427-3.732c0.905,0.606,1.88,1.132,2.7,1.836c1.7,1.459,3.695,2.776,4.855,4.6
			c1.021,1.606,2.593,1.707,3.794,2.618c1.486,1.129,2.747,2.615,3.888,4.11c1.053,1.38,0.565,2.723-0.826,3.663
			c-2.288,1.545-4.662,2.968-6.904,4.575c-1.137,0.815-2.133,1.857-3.076,2.902c-3.104,3.437-6.249,3.087-9.812,0.012
			c-3.109-2.684-1.801-5.747-1.961-8.736c-0.019-0.36,0.746-0.759,1.142-1.144c0.415-0.404,0.826-0.813,1.238-1.219
			c-0.551-0.259-1.099-0.523-1.653-0.776C163.568,264.571,163.334,264.497,162.351,264.125z"/>
		<path fill="#353333" d="M204.863,27.31c-1.693,0.839-2.745,1.419-3.84,1.892c-4.499,1.945-8.963,3.999-13.56,5.659
			c-0.884,0.319-2.513-0.715-3.445-1.544c-1.999-1.779-3.738-3.864-5.644-5.758c-0.942-0.936-2.1-1.645-3.016-2.604
			c-1.41-1.475-1.613-2.794,0.369-4.198c1.321-0.936,2.724-2.28,3.252-3.759c1.011-2.83,2.954-3.164,5.152-2.555
			c2.166,0.6,4.166,1.809,6.278,2.649c2.831,1.126,5.937,1.753,8.476,3.351C200.855,21.683,202.14,24.083,204.863,27.31z"/>
	</g>
	<g>
		<path fill="#9D9FA2" d="M78.962,114.322l-6.126,9.422v3.266l-2.652,4.648c0,0,5.368,1.068,11.747-1.005l7.073-0.503l6.252-8.103
			l-3.347-5.59L78.962,114.322z"/>
		<polygon fill="#9D9FA2" points="140.832,101.371 150.438,114.812 158.578,101.982 148.158,94.65 		"/>
		<path fill="#9D9FA2" d="M246.845,11.682l-18.569,7.117c0,0,0.696,16.598-0.516,20.979l5.322,7.036l7.993-4.168l4.8,0.106
			l5.53-10.474L246.845,11.682z"/>
		<path fill="#9D9FA2" d="M140.991,48.963l4.948,15.658c0,0,2.997-2.962,8.502-2.6l-4.739-15.114L140.991,48.963z"/>
		<path fill="#9D9FA2" d="M143.189,232.125c0,0-0.703,0.58,0,2.834c0,0,5.786,4.766,6.489,4.573
			c0.703-0.193,2.268-1.129,5.732-2.254c0.595-0.193,14.437-1.288,18.871-4.315l-19.304-19.772c0,0-6.921,1.095-9.949,15.972
			L143.189,232.125z"/>
		<polygon fill="#9D9FA2" points="184.382,153.266 189.64,166.922 207.08,152.583 203.289,147.718 198.402,150.023 193.768,149.511 
			189.809,151.388 		"/>
		<path fill="#9D9FA2" d="M268.465,114.529c0.103-1.183,0.071-2.293,0.318-3.338c0.44-1.859,1.553-2.971,3.651-2.48
			c2.831,0.662,4.899-0.378,6.464-2.712c0.99-1.476,2.317-1.986,4.137-1.533c5.864,1.461,11.907,2.38,17.591,4.341
			c6.363,2.196,9.851,7.455,11.101,13.87c0.485,2.487,0.012,5.272-0.523,7.818c-1.047,4.978-2.448,9.882-3.694,14.819
			c-0.797,3.157-1.866,4.086-5.104,3.904c-4.623-0.26-8.621-2.212-12.043-5.187c-4.802-4.175-9.36-8.63-14.192-12.768
			C270.947,126.79,268.875,121.033,268.465,114.529z"/>
		<path fill="#9D9FA2" d="M104.469,27.343c-1.187,1.15-1.924,1.945-2.691,2.594c-3.153,2.666-6.281,5.481-9.503,7.756
			c-0.619,0.437-1.761-0.98-2.414-2.117c-1.401-2.438-2.62-5.296-3.956-7.893c-0.66-1.283-1.472-2.255-2.114-3.569
			c-0.988-2.022-1.13-3.83,0.259-5.754c0.926-1.283,1.909-3.125,2.279-5.152c0.709-3.879,2.07-4.337,3.611-3.502
			c1.518,0.823,2.92,2.48,4.4,3.63c1.984,1.543,4.161,2.402,5.94,4.593C101.661,19.63,102.561,22.919,104.469,27.343z"/>
		<path fill="#9D9FA2" d="M241.674,167.074c0.988-2.246,1.341-4.571,2.351-5.088c5.053-2.591,10.197-5.067,15.496-6.759
			c1.452-0.464,4.176,1.439,5.115,3.174c0.573,1.058-0.731,4.33-1.904,5.812c-6.546,8.274-11.513,10.042-17.938,6.547
			C243.601,170.11,242.8,168.446,241.674,167.074z"/>
	</g>
	<g>
		<path fill="#6A6967" d="M236.771,249.165l-15.412,5.289l-3.598,3.56l-7.299,2.91c0,0,3.235,5.529,10.759,8.457l6.365,5.204
			l14.062-3.748l3.407-8.816L236.771,249.165z"/>
		<path fill="#6A6967" d="M119.939,134.306l8.925-10.708l9.115,7.91c0,0-1.329,3.666-7.216,5.306
			C124.876,138.454,119.939,134.306,119.939,134.306z"/>
		<path fill="#6A6967" d="M167.251,136.693c0,0-1.684-16.917,5.305-28.81c0,0,8.42,5.946,17.009,20.519l-5.894,7.286l-0.842,6.281
			c0,0-2.274,3.35-2.105,4.606c0.168,1.256-5.557-3.099-5.642-3.936C174.998,141.801,167.251,136.693,167.251,136.693z"/>
		<path fill="#6A6967" d="M87.8,81.831c-0.053,0.206,1.746,10.138,1.746,10.138L104.84,86.9l-3.916-10.55L87.8,81.831z"/>
		<path fill="#6A6967" d="M276.325,68.991l-19.388-4.46c0,0-8.778,14.133-12.252,17.085l0.442,8.794l8.968,1.005l3.916,2.764
			l10.483-5.59L276.325,68.991z"/>
		<path fill="#6A6967" d="M186.826,58.63c0.131-0.285,12.466-11.613,12.466-11.613l5.259-0.109l3.316,5.009l-9.962,10.433
			c0,0-5.05,0.316-6.638-0.497C189.678,61.039,186.826,58.63,186.826,58.63z"/>
		<path fill="#606060" d="M222.15,208.211l-7.816-9.654l-11.01,7.525c0,0-4.286-0.076-5.127,1.52
			c-0.84,1.596-10.338,18.699-10.338,18.699l14.708,1.52L222.15,208.211z"/>
		<path fill="#6A6967" d="M96.32,218.589c0,0,2.88,9.431,1.516,16.058c0,0,4.32,0.425,5.002-0.51
			c0.682-0.935,6.973-0.17,7.579,1.444h3.259v-18.437L96.32,218.589z"/>
		<path fill="#6A6967" d="M158.578,190.062l15.157,14.824c0,0,2.842,1.696,4.421,0s13.01-10.678,13.01-10.678v-8.354
			c0,0-3.095-4.02-11.431-4.774c0,0-4.105-1.947-5.557,0l-2.4,0.503C171.777,181.583,164.894,187.927,158.578,190.062z"/>
		<path fill="#6A6967" d="M158.033,4.879c1.871,0.662,3.747,1.307,5.609,1.994c0.826,0.304,1.621,0.691,2.912,1.249
			c-1.317,1.085-2.192,1.954-3.204,2.613c-4.066,2.645-6.969,6.186-8.88,10.636c-0.915,2.132-2.091,4.185-3.388,6.114
			c-1.13,1.68-2.791,2.155-4.863,1.441c-4.758-1.641-9.573-3.117-14.352-4.696c-3.35-1.107-3.526-1.878-2.276-5.121
			c0.662-1.717,0.981-3.723,0.844-5.553c-0.291-3.879-0.018-4.863,3.886-5.601c3.163-0.598,6.486-0.76,9.703-0.56
			c3.686,0.229,7.009-0.239,9.968-2.515C155.339,4.879,156.686,4.879,158.033,4.879z"/>
		<path fill="#6A6967" d="M236.759,141.669c-1.107-0.731-4.424,0.699-3.183-3.039c0.045-0.134-0.012-0.364-0.108-0.473
			c-2.759-3.123-0.552-6.353-0.132-9.513c0.102-0.768,0.818-1.819,1.506-2.083c3.224-1.237,6.549-2.207,10.06-1.204
			c1.614,0.461,2.777,1.14,1.806,3.199c-1.587,3.363-3.005,6.805-4.525,10.2C241.198,140.954,239.318,141.662,236.759,141.669z"/>
		<path fill="#6A6967" d="M55.126,107.383c-1.187,0.568-1.924,0.96-2.691,1.281c-3.153,1.317-6.281,2.707-9.503,3.831
			c-0.619,0.216-1.761-0.484-2.414-1.045c-1.401-1.204-2.62-2.616-3.956-3.898c-0.66-0.634-1.472-1.114-2.114-1.762
			c-0.988-0.998-1.13-1.892,0.259-2.842c0.926-0.634,1.909-1.544,2.279-2.545c0.709-1.916,2.07-2.142,3.611-1.729
			c1.518,0.406,2.92,1.225,4.4,1.793c1.984,0.762,4.161,1.187,5.94,2.268C52.317,103.574,53.217,105.198,55.126,107.383z"/>
		<path fill="#6A6967" d="M42.965,156.118l-1.347,19.598c0,0-0.337,3.015,3.873,3.35c4.21,0.335,14.652,6.532,14.652,6.532
			s9.431,2.848,8.42-7.202c0,0-5.389-2.847-6.736-14.237c-1.347-11.39-8.589-8.71-8.589-8.71s-3.621,2.006-8.336-0.274
			C44.902,155.174,43.26,154.946,42.965,156.118z"/>
	</g>
</g>
<g id="c2">
	<g>
		<path fill="#353333" d="M28.111,126.757l-6.126,12.586v4.363l-2.652,6.209c0,0,5.368,1.426,11.747-1.342l7.073-0.671l6.252-10.824
			l-3.347-7.467L28.111,126.757z"/>
		<path fill="#353333" d="M119.36,76.104l3.284-11.118c0,0,13.136,7.161,15.915,12.248l-6.189,5.967h-5.052l-5.684,0.942
			l-0.442-5.779L119.36,76.104z"/>
		<path fill="#353333" d="M261.379,203.231l16.791,2.516c0,0-7.796,20.283-14.633,25.28l-9.888-7.708l-1-7.256l-2.493-7.976
			l8.302-1.779L261.379,203.231z"/>
		<path fill="#353333" d="M183.911,99.101l7.411,7.743h18.096c0,0,5.774,1.35,12.84-5.612c0,0,8.1-0.994,9.565-2.131
			c0,0-6.032-8.027-4.05-15.272l-4.222-5.825H203.99l-5.257-3.623l-7.842,4.475l-3.878,0.213L183.911,99.101z"/>
		<path fill="#353333" d="M120.289,249.155l-19.388-4.46c0,0-8.778,14.133-12.252,17.085l0.442,8.794l8.968,1.005l3.916,2.764
			l10.483-5.59L120.289,249.155z"/>
		<path fill="#353333" d="M205.005,173.26c0,0,5.377,7.318,4.734,12.537l16.366,6.51c0,0,3.215-8.286,3.332-10.223
			c0,0-5.027-5.703-5.728-9.362s-5.786-8.932-5.786-8.932L205.005,173.26z"/>
		<path fill="#353333" d="M273.18,180.019l5.336,7.351l7.516-5.731c0,0,2.926,0.058,3.5-1.158c0.574-1.216,7.057-14.24,7.057-14.24
			l-10.041-1.158L273.18,180.019z"/>
		<path fill="#353333" d="M57.376,226.695l13.789,0.219c0,0,1.839-4.152,2.528-4.589l-2.758-22.889l-11.185,12.128L57.376,226.695z"
			/>
		<path fill="#353333" d="M204.479,240.977l8.63,7.214l10.946-3.84l5.908-0.465l-2.78-11.112l-0.927-9.396l-7.24-0.436l-1.795,5.469
			c0,0-8.166,6.4-8.224,9.367L204.479,240.977z"/>
		<path fill="#353333" d="M85.45,141.75c0.862,0.145,2.312,0.232,3.663,0.643c9.886,3.007,19.766,6.038,29.62,9.147
			c5.8,1.83,9.704,5.383,11.682,11.428c2.181,6.664,5.179,13.066,7.881,19.558c0.696,1.673,0.372,3.057-0.186,4.76
			c-1.895,5.781-3.421,11.682-5.083,17.539c-0.365,1.286-0.602,2.618-1.08,3.86c-0.94,2.443-2.097,2.663-3.776,0.699
			c-1.031-1.205-1.963-2.518-2.777-3.878c-3.314-5.535-6.356-11.243-9.906-16.621c-2.704-4.096-6.046-7.772-9.061-11.668
			c-1.69-2.184-3.32-4.416-4.929-6.66c-5.374-7.495-10.73-15.001-16.08-22.513c-0.777-1.091-1.571-2.186-2.2-3.362
			C82.174,142.736,82.702,141.89,85.45,141.75z"/>
		<path fill="#353333" d="M87.328,56.623c1.53,6.922-4.363,11.073-7.873,16.087c-3.501,5-9.571,5.809-15.238,6.789
			c-1.651,0.286-3.332,0.407-5.004,0.559c-1.54,0.14-2.039-0.784-1.607-2.029c0.399-1.15,1.069-2.245,1.798-3.233
			c0.74-1.003,1.67-1.876,2.569-2.752c2.015-1.963,1.984-4.089,0.613-6.363c-0.994-1.649-2.038-3.271-2.945-4.966
			c-1.213-2.267-0.839-3.457,1.647-3.743c7.623-0.876,14.566-3.885,21.702-6.34c4.271-1.469,4.851-0.926,4.559,3.462
			C87.505,54.762,87.433,55.427,87.328,56.623z"/>
		<path fill="#353333" d="M162.351,264.109c0.67-1.136,1.305-1.998,1.717-2.956c0.732-1.702,1.633-3.415,1.909-5.208
			c0.418-2.711,3.355-2.047,4.427-3.732c0.905,0.606,1.88,1.132,2.7,1.836c1.7,1.459,3.695,2.776,4.855,4.6
			c1.021,1.606,2.593,1.707,3.794,2.618c1.486,1.129,2.747,2.615,3.888,4.11c1.053,1.38,0.565,2.723-0.826,3.663
			c-2.288,1.545-4.662,2.968-6.904,4.575c-1.137,0.815-2.133,1.857-3.076,2.902c-3.104,3.437-6.249,3.087-9.812,0.012
			c-3.109-2.684-1.801-5.747-1.961-8.736c-0.019-0.36,0.746-0.759,1.142-1.144c0.415-0.404,0.826-0.813,1.238-1.219
			c-0.551-0.259-1.099-0.523-1.653-0.776C163.568,264.555,163.334,264.481,162.351,264.109z"/>
		<path fill="#353333" d="M204.863,27.294c-1.693,0.839-2.745,1.419-3.84,1.892c-4.499,1.945-8.963,3.999-13.56,5.659
			c-0.884,0.319-2.513-0.715-3.445-1.544c-1.999-1.779-3.738-3.864-5.644-5.758c-0.942-0.936-2.1-1.645-3.016-2.604
			c-1.41-1.475-1.613-2.794,0.369-4.198c1.321-0.936,2.724-2.28,3.252-3.759c1.011-2.83,2.954-3.164,5.152-2.555
			c2.166,0.6,4.166,1.809,6.278,2.649c2.831,1.126,5.937,1.753,8.476,3.351C200.855,21.667,202.14,24.067,204.863,27.294z"/>
	</g>
</g>
<g id="c3">
	<g>
		<path fill="#9D9FA2" d="M78.962,115.206l-6.126,9.422v3.266l-2.652,4.648c0,0,5.368,1.068,11.747-1.005l7.073-0.503l6.252-8.103
			l-3.347-5.59L78.962,115.206z"/>
		<polygon fill="#9D9FA2" points="140.832,102.255 150.438,115.696 158.578,102.866 148.158,95.534 		"/>
		<path fill="#9D9FA2" d="M246.845,12.566l-18.569,7.117c0,0,0.696,16.598-0.516,20.979l5.322,7.036l7.993-4.168l4.8,0.106
			l5.53-10.474L246.845,12.566z"/>
		<path fill="#9D9FA2" d="M140.991,49.847l4.948,15.658c0,0,2.997-2.962,8.502-2.6l-4.739-15.114L140.991,49.847z"/>
		<path fill="#9D9FA2" d="M143.189,233.009c0,0-0.703,0.58,0,2.834c0,0,5.786,4.766,6.489,4.573
			c0.703-0.193,2.268-1.129,5.732-2.254c0.595-0.193,14.437-1.288,18.871-4.315l-19.304-19.772c0,0-6.921,1.095-9.949,15.972
			L143.189,233.009z"/>
		<polygon fill="#9D9FA2" points="184.382,154.15 189.64,167.806 207.08,153.467 203.289,148.602 198.402,150.907 193.768,150.395 
			189.809,152.272 		"/>
		<path fill="#9D9FA2" d="M268.465,115.413c0.103-1.183,0.071-2.293,0.318-3.338c0.44-1.859,1.553-2.971,3.651-2.48
			c2.831,0.662,4.899-0.378,6.464-2.712c0.99-1.476,2.317-1.986,4.137-1.533c5.864,1.461,11.907,2.38,17.591,4.341
			c6.363,2.196,9.851,7.455,11.101,13.87c0.485,2.487,0.012,5.272-0.523,7.818c-1.047,4.978-2.448,9.882-3.694,14.819
			c-0.797,3.157-1.866,4.086-5.104,3.904c-4.623-0.26-8.621-2.212-12.043-5.187c-4.802-4.175-9.36-8.63-14.192-12.768
			C270.947,127.673,268.875,121.917,268.465,115.413z"/>
		<path fill="#9D9FA2" d="M104.469,28.227c-1.187,1.15-1.924,1.945-2.691,2.594c-3.153,2.666-6.281,5.481-9.503,7.756
			c-0.619,0.437-1.761-0.98-2.414-2.117c-1.401-2.438-2.62-5.296-3.956-7.893c-0.66-1.283-1.472-2.255-2.114-3.569
			c-0.988-2.022-1.13-3.83,0.259-5.754c0.926-1.283,1.909-3.125,2.279-5.152c0.709-3.879,2.07-4.337,3.611-3.502
			c1.518,0.823,2.92,2.48,4.4,3.63c1.984,1.543,4.161,2.402,5.94,4.593C101.661,20.514,102.561,23.803,104.469,28.227z"/>
		<path fill="#9D9FA2" d="M241.674,167.958c0.988-2.246,1.341-4.571,2.351-5.088c5.053-2.591,10.197-5.067,15.496-6.759
			c1.452-0.464,4.176,1.439,5.115,3.174c0.573,1.058-0.731,4.33-1.904,5.812c-6.546,8.274-11.513,10.042-17.938,6.547
			C243.601,170.994,242.8,169.33,241.674,167.958z"/>
	</g>
</g>
<g id="c4">
	<g>
		<path fill="#6A6967" d="M236.771,250.195l-15.412,5.289l-3.598,3.56l-7.299,2.91c0,0,3.235,5.529,10.759,8.457l6.365,5.204
			l14.062-3.748l3.407-8.816L236.771,250.195z"/>
		<path fill="#6A6967" d="M119.939,135.336l8.925-10.708l9.115,7.91c0,0-1.329,3.666-7.216,5.306
			C124.876,139.484,119.939,135.336,119.939,135.336z"/>
		<path fill="#6A6967" d="M167.251,137.722c0,0-1.684-16.918,5.305-28.81c0,0,8.42,5.946,17.009,20.519l-5.894,7.286l-0.842,6.281
			c0,0-2.274,3.35-2.105,4.606c0.168,1.256-5.557-3.099-5.642-3.936C174.998,142.831,167.251,137.722,167.251,137.722z"/>
		<path fill="#6A6967" d="M87.8,82.861c-0.053,0.206,1.746,10.139,1.746,10.139l15.294-5.069l-3.916-10.55L87.8,82.861z"/>
		<path fill="#6A6967" d="M276.325,70.021l-19.388-4.46c0,0-8.778,14.133-12.252,17.085l0.442,8.794l8.968,1.005l3.916,2.764
			l10.483-5.59L276.325,70.021z"/>
		<path fill="#6A6967" d="M186.826,59.659c0.131-0.285,12.466-11.613,12.466-11.613l5.259-0.109l3.316,5.009l-9.962,10.433
			c0,0-5.05,0.316-6.638-0.497S186.826,59.659,186.826,59.659z"/>
		<path fill="#606060" d="M222.15,209.241l-7.816-9.654l-11.01,7.525c0,0-4.286-0.076-5.127,1.52
			c-0.84,1.596-10.338,18.699-10.338,18.699l14.708,1.52L222.15,209.241z"/>
		<path fill="#6A6967" d="M96.32,219.619c0,0,2.88,9.431,1.516,16.058c0,0,4.32,0.425,5.002-0.51
			c0.682-0.935,6.973-0.17,7.579,1.444h3.259v-18.437L96.32,219.619z"/>
		<path fill="#6A6967" d="M158.578,191.092l15.157,14.824c0,0,2.842,1.696,4.421,0s13.01-10.678,13.01-10.678v-8.354
			c0,0-3.095-4.02-11.431-4.774c0,0-4.105-1.947-5.557,0l-2.4,0.503C171.777,182.612,164.894,188.956,158.578,191.092z"/>
		<path fill="#6A6967" d="M158.033,5.909c1.871,0.662,3.747,1.307,5.609,1.994c0.826,0.304,1.621,0.691,2.912,1.249
			c-1.317,1.085-2.192,1.954-3.204,2.613c-4.066,2.645-6.969,6.186-8.88,10.636c-0.915,2.132-2.091,4.185-3.388,6.114
			c-1.13,1.68-2.791,2.155-4.863,1.441c-4.758-1.641-9.573-3.117-14.352-4.696c-3.35-1.107-3.526-1.878-2.276-5.121
			c0.662-1.717,0.981-3.723,0.844-5.553c-0.291-3.879-0.018-4.863,3.886-5.601c3.163-0.598,6.486-0.76,9.703-0.56
			c3.686,0.229,7.009-0.239,9.968-2.515C155.339,5.909,156.686,5.909,158.033,5.909z"/>
		<path fill="#6A6967" d="M236.759,142.699c-1.107-0.731-4.424,0.699-3.183-3.039c0.045-0.134-0.012-0.364-0.108-0.473
			c-2.759-3.123-0.552-6.353-0.132-9.513c0.102-0.768,0.818-1.819,1.506-2.083c3.224-1.237,6.549-2.207,10.06-1.204
			c1.614,0.461,2.777,1.14,1.806,3.199c-1.587,3.363-3.005,6.805-4.525,10.2C241.198,141.984,239.318,142.692,236.759,142.699z"/>
		<path fill="#6A6967" d="M55.126,108.412c-1.187,0.568-1.924,0.96-2.691,1.281c-3.153,1.317-6.281,2.707-9.503,3.831
			c-0.619,0.216-1.761-0.484-2.414-1.045c-1.401-1.204-2.62-2.616-3.956-3.898c-0.66-0.634-1.472-1.114-2.114-1.762
			c-0.988-0.998-1.13-1.892,0.259-2.842c0.926-0.634,1.909-1.544,2.279-2.545c0.709-1.916,2.07-2.142,3.611-1.729
			c1.518,0.406,2.92,1.225,4.4,1.793c1.984,0.762,4.161,1.187,5.94,2.268C52.317,104.604,53.217,106.228,55.126,108.412z"/>
		<path fill="#6A6967" d="M42.965,157.148l-1.347,19.598c0,0-0.337,3.015,3.873,3.35c4.21,0.335,14.652,6.533,14.652,6.533
			s9.431,2.848,8.42-7.202c0,0-5.389-2.848-6.736-14.238c-1.347-11.39-8.589-8.71-8.589-8.71s-3.621,2.006-8.336-0.274
			C44.902,156.204,43.26,155.976,42.965,157.148z"/>
	</g>
</g>
</svg>
