<?xml version="1.0" encoding="utf-8"?>
<!-- Generator: Adobe Illustrator 22.0.0, SVG Export Plug-In . SVG Version: 6.00 Build 0)  -->
<svg version="1.1" xmlns="http://www.w3.org/2000/svg" xmlns:xlink="http://www.w3.org/1999/xlink" x="0px" y="0px"
	 viewBox="0 0 330.738 283.5" enable-background="new 0 0 330.738 283.5" xml:space="preserve">
<g id="c2">
	<path fill="#353333" d="M247.699,0.019c-54.886,0-109.773-0.001-164.659-0.001C55.597,47.262,28.154,94.506,0.711,141.75
		c27.443,47.244,54.885,94.488,82.329,141.732c54.886,0,109.773,0,164.659,0c27.443-47.244,54.886-94.488,82.329-141.732
		C302.584,94.507,275.141,47.263,247.699,0.019z M231.532,255.652c-44.109,0-88.218,0-132.327,0
		c-22.054-37.967-44.108-75.934-66.162-113.901c22.054-37.967,44.109-75.934,66.163-113.902c44.108,0,88.217,0,132.326,0.001
		c22.054,37.967,44.108,75.934,66.162,113.901C275.64,179.717,253.587,217.685,231.532,255.652z"/>
</g>
<g id="c3">
	<path fill="#6A6967" d="M231.532,27.849c-44.109,0-88.217,0-132.326-0.001C77.152,65.816,55.098,103.783,33.043,141.75
		c22.054,37.967,44.109,75.934,66.162,113.901c44.109,0,88.218,0,132.327,0c22.054-37.967,44.108-75.934,66.162-113.901
		C275.64,103.783,253.587,65.816,231.532,27.849z M214.959,228.378c-33.06,0-66.119,0-99.179,0
		c-16.53-28.456-33.059-56.912-49.589-85.369c16.53-28.456,33.059-56.912,49.589-85.369c33.059,0,66.119,0,99.178,0.001
		c16.529,28.456,33.059,56.912,49.589,85.368C248.018,171.465,231.488,199.921,214.959,228.378z"/>
</g>
<g id="c5">
	<path fill="#DEDEDE" d="M66.191,143.009c16.53-28.456,33.059-56.913,49.589-85.369c33.059,0,66.119,0,99.178,0.001
		c16.529,28.456,33.059,56.912,49.589,85.368c-16.529,28.456-33.059,56.913-49.589,85.369c-33.06,0-66.119,0-99.178,0
		C99.251,199.921,82.721,171.465,66.191,143.009z"/>
</g>
</svg>
