<?xml version="1.0" encoding="utf-8"?>
<!-- Generator: Adobe Illustrator 22.0.0, SVG Export Plug-In . SVG Version: 6.00 Build 0)  -->
<svg version="1.1" xmlns="http://www.w3.org/2000/svg" xmlns:xlink="http://www.w3.org/1999/xlink" x="0px" y="0px"
	 viewBox="0 0 330.738 283.5" enable-background="new 0 0 330.738 283.5" xml:space="preserve">
<g id="c2">
	<g>
		<path fill="#DEDEDE" d="M248.651,1.567c-55.123,0.081-110.246,0.162-165.37,0.243C55.521,49.053,27.761,96.298,0,143.542
			c27.362,47.163,54.724,94.326,82.087,141.489c55.123-0.081,110.246-0.161,165.369-0.242
			c27.761-47.244,55.522-94.489,83.283-141.733C303.376,95.893,276.014,48.73,248.651,1.567z"/>
	</g>
</g>
<g id="c3">
	<path fill="#6A6967" d="M94.045,258.026c-13.521-6.256-32.463-38.827-43.142-76.498c-8.909-31.43-7.824-63.52-1.526-92.62
		c2.329-10.761,20.132,21.825,31.506,50.538c8.818,22.261,12.243,41.42,14.935,42.037c2.375,0.544,1.633-36.167,10.664-75.682
		c9.649-42.221,30.998-86.48,34.459-86.419c10.314,0.181,22.36,66.765,10.941,121.909c-6.473,31.258-26.314,56.536-23.099,62.456
		c1.96,3.608,36.522-50.581,69.056-64.948c7.815-3.451,21.815-11.975,36.479-18.435c24.857-10.949,51.516-20.01,52.408-17.768
		c3.104,7.802-42.03,59.67-64.049,75.274c-11.274,7.989-57.548,32.32-56.033,34.849c1.57,2.619,30.549-3.053,41.631-4.387
		c15.294-1.842,61.342-3.034,61.618,1.277c0.229,3.578-38.688,29.284-80.611,42.6C151.123,264.33,96.274,259.058,94.045,258.026z"/>
</g>
<g id="c5">
	<path fill="#453A38" d="M78.177,95.542L68.018,81.141c-0.278-0.394-0.359-0.888-0.219-1.343l11.558-37.645
		c0.256-0.835,1.468-0.82,1.723,0.021l11.153,36.797c0.126,0.415,0.073,0.861-0.146,1.234l-8.918,15.177
		C82.092,97.214,79.418,97.3,78.177,95.542z"/>
	<path fill="#453A38" d="M244.604,186.096l9.146-15.047c0.25-0.412,0.674-0.687,1.152-0.749l39.571-5.086
		c0.877-0.113,1.362,0.982,0.689,1.557l-29.453,25.143c-0.332,0.284-0.766,0.42-1.201,0.376l-17.703-1.776
		C244.666,190.3,243.487,187.933,244.604,186.096z"/>
	<path fill="#453A38" d="M195.21,90.042l1.307-19.693c0.105-1.587,0.881-3.058,2.138-4.056l30.604-24.289
		c1.485-1.179,3.611,0.286,2.997,2.066l-12.39,35.94c-0.519,1.507-1.597,2.764-3.017,3.522l-17.322,9.238
		C197.5,93.851,195.059,92.309,195.21,90.042z"/>
</g>
<g id="c4">
	<path fill="#353333" d="M82.088,208.812c-3.214,1.047-13.514-20.829-19.672-43.4c-6.186-22.674-8.215-46.047-4.795-46.398
		c3.493-0.359,14.33,21.853,20.728,44.577C84.449,185.254,86.31,207.437,82.088,208.812z"/>
	<path fill="#353333" d="M147.448,242.731c-1.072-3.165,21.093-13.381,43.975-19.517c22.987-6.164,46.695-8.233,47.062-4.864
		c0.375,3.442-22.13,14.189-45.167,20.562C171.357,244.988,148.856,246.888,147.448,242.731z"/>
	<path fill="#353333" d="M119.812,195.791c-4.583-0.278-6.375-32.944-2.596-64.429c3.797-31.628,14.518-61.102,17.673-60.815
		c4.744,0.432,4.894,33.675,1.339,65.471C132.838,166.331,119.812,195.791,119.812,195.791z"/>
	<path fill="#353333" d="M146.585,202.399c-2.584-3.265,19.069-24.234,43.275-40.723c24.317-16.565,51.329-27.148,53.041-24.844
		c2.574,3.467-20.475,23.675-44.763,40.505C174.986,193.381,146.585,202.399,146.585,202.399z"/>
	<path fill="#353333" d="M104.95,239.958c0,0-6.067-15.394-6.805-16.81c-4.795-9.2-1.097-31.473,1.498-31.316
		c2.814,0.17,7.045,14.793,7.889,20.301c0.128,0.836,0.578,10.994,0.786,15.813c0.056,1.301,1.301,2.225,2.585,1.918
		c2.222-0.531,10.234-3.901,18.315-5.783c11.145-2.597,21.747-5.266,22.78-3.801c2.245,3.185-16.288,12.607-23.21,15.526
		C121.169,239.02,104.95,239.958,104.95,239.958z"/>
</g>
</svg>
