<?xml version="1.0" encoding="utf-8"?>
<!-- Generator: Adobe Illustrator 22.0.0, SVG Export Plug-In . SVG Version: 6.00 Build 0)  -->
<svg version="1.1" xmlns="http://www.w3.org/2000/svg" xmlns:xlink="http://www.w3.org/1999/xlink" x="0px" y="0px"
	 viewBox="0 0 283.5 283.5" enable-background="new 0 0 283.5 283.5" xml:space="preserve">
<g id="Capa_1">
</g>
<g id="c1">
	<g id="detail-3">
		<path fill="#9D9FA2" d="M0,48.2C15.7,32.5,31.5,16.7,47.2,1C31.5,1,15.7,1,0,1C0,16.7,0,32.5,0,48.2z"/>
		<path fill="#9D9FA2" d="M236.2,284.5c15.7-15.7,31.5-31.5,47.2-47.2c0,15.7,0,31.5,0,47.2C267.7,284.5,252,284.5,236.2,284.5z"/>
	</g>
</g>
<g id="c2">
	<g id="detail-2">
		<polygon fill="#353333" points="0,48.2 0,95.5 94.5,1 47.2,1 		"/>
		<polygon fill="#353333" points="236.2,284.5 189,284.5 283.4,190 283.4,237.2 		"/>
	</g>
</g>
<g id="c3">
	<g id="detail-1">
		<path fill="#9D9FA2" d="M118.1,24.6C126,16.7,133.9,8.9,141.7,1c-7.9,0-15.7,0-23.6,0s-15.7,0-23.6,0C63,32.5,31.5,64,0,95.5
			c0,7.9,0,15.7,0,23.6s0,15.7,0,23.6c7.9-7.9,15.7-15.7,23.6-23.6c-3.9-3.9-7.9-7.9-11.8-11.8c31.5-31.5,63-63,94.5-94.5
			C110.2,16.7,114.2,20.7,118.1,24.6z"/>
		<path fill="#9D9FA2" d="M259.8,166.4c7.9-7.9,15.7-15.7,23.6-23.6c0,7.9,0,15.7,0,23.6s0,15.7,0,23.6c-31.5,31.5-63,63-94.5,94.5
			c-7.9,0-15.7,0-23.6,0c-7.9,0-15.7,0-23.6,0c7.9-7.9,15.7-15.7,23.6-23.6c3.9,3.9,7.9,7.9,11.8,11.8c31.5-31.5,63-63,94.5-94.5
			C267.7,174.2,263.8,170.3,259.8,166.4z"/>
	</g>
</g>
<g id="c4">
	<g id="detail-6">
		<path fill="#9D9FA2" d="M23.6,284.5c-7.9-7.9-15.7-15.7-23.6-23.6c0,7.9,0,15.7,0,23.6C7.9,284.5,15.8,284.5,23.6,284.5z"/>
		<path fill="#9D9FA2" d="M259.8,1c7.9,7.9,15.7,15.7,23.6,23.6c0-7.9,0-15.7,0-23.6C275.6,1,267.7,1,259.8,1z"/>
	</g>
</g>
<g id="c5">
	<g id="detail-5">
		<g id="detail_x5F_6">
			<path fill="#353333" d="M0,237.2c0,7.9,0,15.7,0,23.6c7.9,7.9,15.7,15.7,23.6,23.6c7.9,0,15.7,0,23.6,0
				C31.5,268.7,15.7,253,0,237.2z"/>
			<polygon fill="#353333" points="236.2,1 259.8,1 283.5,24.6 283.5,48.2 			"/>
		</g>
	</g>
</g>
<g id="c6">
	<g id="detail-4">
		<path fill="#9D9FA2" d="M70.9,284.5C47.2,260.8,23.6,237.2,0,213.6c0,7.9,0,15.7,0,23.6c15.7,15.7,31.5,31.5,47.2,47.2
			C55.1,284.5,63,284.5,70.9,284.5z"/>
		<path fill="#9D9FA2" d="M212.6,1c23.6,23.6,47.2,47.2,70.9,70.9c0-7.9,0-15.7,0-23.6C267.7,32.5,252,16.8,236.2,1
			C228.3,1,220.5,1,212.6,1z"/>
	</g>
</g>
<g id="c7">
	<g id="Background">
		<g id="background">
		</g>
		<g id="mainshape">
			<polygon fill="#DEDEDE" points="0,142.7 0,213.6 70.9,284.5 141.7,284.5 165.3,260.8 177.2,272.7 271.6,178.2 259.8,166.4 
				283.4,142.7 283.4,71.9 212.6,1 141.7,1 118.1,24.6 106.3,12.8 11.8,107.3 23.6,119.1 			"/>
		</g>
	</g>
</g>
</svg>
