<?xml version="1.0" encoding="utf-8"?>
<!-- Generator: Adobe Illustrator 22.0.0, SVG Export Plug-In . SVG Version: 6.00 Build 0)  -->
<svg version="1.1" xmlns="http://www.w3.org/2000/svg" xmlns:xlink="http://www.w3.org/1999/xlink" x="0px" y="0px"
	 viewBox="0 0 283.46 283.46" enable-background="new 0 0 283.46 283.46" xml:space="preserve">
<g id="C22">
	<path fill="#9D9FA2" d="M0.01,0c8.684,0.019,17.368,0.038,26.052,0.057c-1.419,1.356-3.479,3.682-4.942,7.092
		c-2.344,5.463-1.746,10.415-1.362,12.52c-1.999-0.389-6.331-0.95-11.344,0.756c-4.111,1.399-6.989,3.824-8.4,5.2
		C-0.035,17.126,0.061,8.499,0.01,0z"/>
</g>
<g id="C21">
	<path fill="#353333" d="M24.961,24.952c-0.377-3.098-0.739-9.793,2.728-16.924c1.769-3.64,3.994-6.278,5.762-8.032
		c-2.828,0-5.656,0-8.485,0c-1.301,1.484-2.892,3.648-4.136,6.535c-2.23,5.173-2.144,9.876-1.905,12.392
		c-2.511-0.24-7.22-0.33-12.398,1.905c-2.885,1.245-5.047,2.837-6.53,4.139c0,2.83,0,5.66,0,8.491
		c1.753-1.769,4.389-3.995,8.027-5.766C15.148,24.223,21.864,24.575,24.961,24.952"/>
</g>
<g id="C20">
	<path fill="#DEDEDE" d="M33.469,0h9.605c1.18,10.022,4.174,23.286,11.706,36.844c1.079,1.941,5.7,10.097,13.801,19.139
		c0.008,0.009,0.016,0.017,0.024,0.026l-4.183,4.186c-2.632-2.968-4.726-5.714-7.009-8.714c-4.166-5.474-7.471-10.431-9.984-14.459
		c-1.673-0.324-3.425-0.722-5.245-1.213c-3.647-0.983-7.077-2.154-9.948-3.375c1.22,2.874,2.438,6.253,3.42,9.902
		c0.49,1.821,0.888,3.576,1.212,5.25c4.025,2.515,8.979,5.822,14.448,9.992c2.996,2.284,5.738,4.377,8.702,7.009l-4.059,4.061
		c-0.007-0.006-0.013-0.013-0.02-0.019c-9.034-8.107-17.184-12.732-19.124-13.811C23.268,47.28,10.014,44.284,0,43.102v-9.586
		c1.753-1.769,4.389-3.995,8.027-5.766c7.126-3.469,13.839-3.1,16.935-2.723c-0.377-3.098-0.736-9.81,2.73-16.941
		C29.462,4.447,31.701,1.754,33.469,0z"/>
</g>
<g id="C19">
	<path fill="#353333" d="M75.722,92.81c-1.569-2.777-3.486-5.802-5.986-9.152c-1.658-2.222-6.298-8.242-13.802-14.976
		C46.9,60.574,38.75,55.949,36.81,54.87c-13.547-7.539-26.8-10.535-36.814-11.716v8.351c6.807,0.793,12.498,2.267,16.86,3.698
		c6.443,2.113,11.05,4.473,14.301,6.157c3.858,1.998,8.921,4.652,14.79,9.288c4.797,3.79,7.955,7.183,8.929,8.25
		c3.999,4.38,6.404,8.111,7.876,10.418c3.693,5.787,4.419,8.504,4.656,9.485c0.545,2.253,1.236,5.294-0.167,8.487
		c-0.347,0.791-1.189,2.65-3.149,3.958c-4.283,2.856-9.882,0.33-10.154,0.203c-3.058-1.434-3.987-3.569-4.822-3.162
		c-1.173,0.571-0.491,5.332,1.33,9.152c0.782,1.64,3.284,6.887,9.479,9.319c1.783,0.7,7.363,2.537,13.137-0.333
		c5.591-2.779,7.488-8.044,7.982-9.485c0.288-0.841,1.204-3.738,0.665-8.653C81.072,102.484,78.822,98.298,75.722,92.81z"/>
	<path fill="#353333" d="M126.605,60.028c-2.429-6.199-7.672-8.703-9.311-9.486c-3.817-1.823-8.574-2.505-9.145-1.331
		c-0.407,0.837,1.726,1.765,3.159,4.826c0.127,0.272,2.651,5.875-0.202,10.162c-1.306,1.962-3.164,2.804-3.954,3.152
		c-3.191,1.404-6.228,0.712-8.48,0.166c-0.981-0.238-3.696-0.964-9.477-4.66c-2.305-1.473-6.033-3.881-10.409-7.882
		c-1.066-0.975-4.457-4.135-8.244-8.936c-4.632-5.873-7.284-10.941-9.281-14.802c-1.682-3.254-4.041-7.865-6.152-14.312
		c-1.429-4.365-2.902-10.061-3.695-16.874h-8.344c1.18,10.022,4.174,23.286,11.706,36.844c1.079,1.941,5.7,10.097,13.801,19.139
		c6.729,7.51,12.744,12.154,14.964,13.813c3.348,2.502,6.37,4.421,9.145,5.991c5.484,3.103,9.667,5.354,15.463,5.991
		c4.912,0.54,7.805-0.377,8.646-0.666c1.441-0.494,6.701-2.393,9.477-7.988C129.14,67.396,127.304,61.812,126.605,60.028z"/>
</g>
<g id="C18">
	<g>
		<path fill="#353333" d="M136.208,136.447c0.018-0.031,0.025-0.048,0.02-0.053c-0.002-0.002-0.007-0.001-0.013,0.002
			C136.212,136.413,136.21,136.432,136.208,136.447z"/>
		<path fill="#353333" d="M132.907,114.226c0,0-3.772-8.433-10.228-14.042c-0.346-0.301-1.571-1.353-4.33-3.25
			c-7.059-4.853-12.612-7.292-16.972-9.446c-2.184-1.079-11.043-5.531-20.581-12.554c-7.782-5.731-12.595-10.653-13.655-11.75
			c-4.045-4.181-6.723-7.7-9.742-11.666c-4.166-5.474-7.471-10.431-9.984-14.459c-1.673-0.324-3.425-0.722-5.245-1.213
			c-3.647-0.983-6.912-2.163-9.783-3.384c-0.101-0.101-0.202-0.202-0.303-0.303c0.011,0.027,0.023,0.056,0.034,0.083
			c-0.024-0.01-0.05-0.02-0.074-0.031c0.035,0.035,0.07,0.07,0.105,0.105c0.008,0.018,0.015,0.037,0.023,0.056
			c-0.017-0.007-0.035-0.014-0.052-0.022c-0.035-0.035-0.07-0.07-0.105-0.105c0.011,0.024,0.02,0.05,0.031,0.074
			c-0.027-0.011-0.057-0.023-0.083-0.034c0.099,0.099,0.199,0.199,0.298,0.298c1.22,2.874,2.398,6.141,3.381,9.791
			c0.49,1.821,0.888,3.576,1.212,5.25c4.025,2.515,8.979,5.822,14.448,9.992c3.963,3.021,7.479,5.702,11.658,9.75
			c1.096,1.062,6.014,5.878,11.74,13.667c7.018,9.546,11.466,18.412,12.544,20.597c2.152,4.363,4.59,9.921,9.438,16.986
			c1.895,2.761,2.947,3.987,3.247,4.333c1.017,1.172,5.851,6.598,14.03,10.236c9.411,4.186,18.097,3.712,22.169,3.223
			c0.006-0.001,0.006-0.001,0.017-0.002c-0.012,0.001-0.012,0.001-0.017,0.002c0.006-0.001,0.012-0.001,0.017-0.002
			C136.508,133.122,137.182,123.824,132.907,114.226z"/>
		<path fill="#353333" d="M136.115,136.513c0.004,0.005,0.022-0.002,0.052-0.02c-0.016,0.002-0.035,0.004-0.035,0.004
			C136.114,136.506,136.113,136.51,136.115,136.513z"/>
	</g>
</g>
<g id="C17">
	<path fill="#353333" d="M80.633,49.692c-1.657-1.658-4.343-1.658-6,0l-12.501,12.51c-0.003-0.003-0.005-0.005-0.008-0.008
		L49.576,74.751c-1.657,1.658-1.657,4.346,0,6.004c1.657,1.658,4.343,1.658,6,0l12.501-12.51c0,0,0.005,0.005,0.008,0.008
		l12.548-12.557C82.289,54.038,82.289,51.35,80.633,49.692z"/>
</g>
<g id="C16">
	<path fill="#353333" d="M17.41,141.497c-0.007-0.007-0.014-0.014-0.022-0.02c0.008-0.007,0.014-0.014,0.022-0.021h0
		c-6.172-5.42-11.985-11.238-17.403-17.413v0.041c5.322,6.066,11.036,11.779,17.087,17.117
		c-6.051-5.338-11.765-11.051-17.087-17.117v34.827C5.425,152.736,11.238,146.917,17.41,141.497z"/>
	<path fill="#353333" d="M141.41,17.363c0.026-0.03,0.056-0.058,0.082-0.088c-2.689-3.061-5.475-6.035-8.354-8.916
		c2.926,2.926,5.759,5.946,8.488,9.059c5.415-6.177,11.229-11.995,17.399-17.417h-0.275c0.02-0.018,0.039-0.037,0.059-0.055h-34.798
		C130.181,5.368,135.994,11.187,141.41,17.363z"/>
</g>
<g id="C15">
	<path fill="#9D9FA2" d="M30.623,141.588l0.048,0c-0.007-0.007-0.015-0.014-0.023-0.021c0.008-0.007,0.016-0.014,0.025-0.02h-0.048
		c-3.749-3.26-8.22-7.892-12.185-14.187c-8.502-13.499-9.802-26.901-9.956-33.78c0-13.557,0-27.114,0-40.671
		C5.894,52.343,3.061,51.848,0,51.491c0,24.214,0,48.429,0,72.643c5.417,6.175,11.231,11.994,17.403,17.413h0
		C11.231,146.967,5.417,152.785,0,158.961v13.299C8.942,160.849,19.222,150.539,30.623,141.588z"/>
	<path fill="#9D9FA2" d="M93.473,8.529c6.874,0.154,20.266,1.454,33.753,9.964c6.29,3.968,10.918,8.443,14.176,12.195v0.048
		c0.007-0.009,0.013-0.017,0.02-0.025c0.007,0.008,0.014,0.015,0.021,0.023v-0.048c8.944-11.409,19.245-21.698,30.647-30.647
		h-13.288c-6.17,5.422-11.984,11.24-17.399,17.417c-5.416-6.177-11.229-11.995-17.399-17.417c-24.195,0-48.39,0-72.585,0
		c0.356,3.063,0.851,5.899,1.417,8.491C66.381,8.529,79.927,8.529,93.473,8.529z"/>
</g>
<g id="C14">
	<path fill="#DEDEDE" d="M61.062,141.505H61.05c-4.759-0.785-17.766-3.58-28.891-14.81c-14.373-14.509-15.121-32.513-15.19-36.526
		c0-11.661,0-23.322,0-34.984c-0.039-0.013-0.07-0.026-0.109-0.039c-2.392-0.784-5.219-1.57-8.376-2.262c0,13.551,0,27.102,0,40.653
		c0.154,6.879,1.453,20.282,9.956,33.78c3.965,6.295,8.437,10.927,12.185,14.187h0.048c-0.009,0.007-0.017,0.014-0.025,0.02
		c0.007,0.007,0.015,0.014,0.023,0.021l-0.048,0c-11.4,8.951-21.68,19.261-30.623,30.671v30.427
		C14.484,177.183,35.62,156.003,61.062,141.505z"/>
	<path fill="#DEDEDE" d="M55.152,16.978c11.652,0,23.303,0,34.955,0c4.009,0.069,21.999,0.817,36.497,15.202
		c11.221,11.134,14.014,24.151,14.798,28.914c0,0.004,0,0.008,0,0.012c14.486-25.463,35.649-46.615,61.089-61.111h-30.402
		c-11.401,8.949-21.703,19.238-30.646,30.647v0.048c-0.007-0.008-0.014-0.015-0.021-0.023c-0.007,0.009-0.013,0.017-0.02,0.025
		v-0.048c-3.258-3.752-7.886-8.227-14.176-12.195c-13.487-8.509-26.879-9.81-33.753-9.964c-13.54,0-27.08,0-40.62,0
		c0.691,3.159,1.476,5.988,2.26,8.382C55.125,16.908,55.139,16.939,55.152,16.978z"/>
</g>
<g id="C12">
	<path fill="#DEDEDE" d="M221.501-0.206c-35.744,15.562-64.443,44.293-79.987,80.074V79.84c-1.075,2.679-2.151,5.358-3.226,8.037
		c-0.522-13.227-3.88-23.309-6.449-29.424c-2.923-6.958-6.499-15.346-15.1-22.313c-9.89-8.011-20.686-10.788-37.577-10.818
		c-6.858-0.012-13.716-0.024-20.575-0.036c1.016,2.238,1.983,4.133,2.79,5.693c1.996,3.861,4.649,8.928,9.281,14.802
		c1.314,1.666,2.572,3.12,3.71,4.368l0.533-0.534c1.657-1.658,4.343-1.658,6,0c1.657,1.658,1.657,4.346,0,6.004l-0.441,0.441
		c3.684,3.17,6.832,5.249,8.851,6.54c5.782,3.696,8.497,4.422,9.477,4.66c2.252,0.546,5.289,1.238,8.48-0.166
		c0.79-0.348,2.648-1.19,3.954-3.152c2.854-4.287,0.329-9.89,0.202-10.162c-1.434-3.061-3.566-3.99-3.159-4.826
		c0.571-1.174,5.328-0.492,9.145,1.331c1.639,0.783,6.881,3.287,9.311,9.486c0.7,1.784,2.535,7.369-0.332,13.147
		c-2.777,5.596-8.037,7.495-9.477,7.988c-0.841,0.288-3.734,1.205-8.646,0.666c-5.797-0.637-9.98-2.888-15.463-5.991
		c-2.775-1.57-5.797-3.49-9.145-5.991c-1.532-1.145-4.892-3.746-9.027-7.696l-4.163,4.165c2.363,2.197,5.879,5.263,10.456,8.633
		c9.538,7.023,18.397,11.475,20.581,12.554c4.36,2.154,9.913,4.593,16.972,9.446c2.759,1.897,3.984,2.949,4.33,3.25
		c6.457,5.609,10.228,14.042,10.228,14.042c4.274,9.598,3.6,18.896,3.238,22.179c-0.012,0.001-0.012,0.001-0.017,0.002
		c-4.072,0.49-12.758,0.963-22.169-3.223c-8.18-3.638-13.014-9.064-14.03-10.236c-0.3-0.346-1.352-1.572-3.247-4.334
		c-4.849-7.064-7.287-12.622-9.438-16.986c-1.078-2.186-5.526-11.052-12.544-20.597c-3.37-4.584-6.435-8.104-8.631-10.47
		l-4.038,4.041c3.95,4.141,6.551,7.506,7.696,9.041c2.5,3.35,4.418,6.375,5.986,9.152c3.1,5.488,5.35,9.674,5.987,15.475
		c0.539,4.915-0.377,7.812-0.665,8.653c-0.494,1.441-2.391,6.706-7.982,9.485c-5.774,2.87-11.354,1.033-13.137,0.333
		c-6.194-2.431-8.696-7.678-9.479-9.319c-1.821-3.82-2.503-8.581-1.33-9.152c0.836-0.407,1.764,1.727,4.822,3.162
		c0.272,0.127,5.871,2.654,10.154-0.203c1.961-1.307,2.802-3.167,3.149-3.958c1.403-3.193,0.712-6.233,0.167-8.487
		c-0.237-0.981-0.964-3.698-4.656-9.485c-1.29-2.022-3.37-5.175-6.541-8.865l-0.484,0.485c-1.657,1.658-4.343,1.658-6,0
		c-1.657-1.658-1.657-4.346,0-6.004l0.577-0.577c-1.246-1.137-2.696-2.394-4.357-3.707c-5.869-4.636-10.932-7.291-14.79-9.288
		c-1.559-0.807-3.452-1.775-5.689-2.792c0.011,6.864,0.024,13.728,0.035,20.592c0.029,16.905,2.804,27.709,10.809,37.607
		c6.962,8.608,15.342,12.186,22.295,15.112c6.111,2.571,16.184,5.931,29.4,6.454c-2.677,1.076-5.353,2.153-8.03,3.229h0.028
		c-35.752,15.556-64.46,44.28-80.01,80.053v61.902h7.51c0-74.245,60.145-134.432,134.339-134.434v-0.002
		c2.43,0,4.844,0.069,7.242,0.197c-0.127-2.395-0.196-4.805-0.196-7.232h0.002C149.009,67.543,209.155,7.356,283.349,7.356v-7.562
		H221.501z M136.242,136.27c0,0-0.001-0.007,0.002-0.014c0,0,0.035-0.004,0.05-0.006
		C136.264,136.268,136.246,136.275,136.242,136.27z M136.334,136.205c0.002-0.016,0.004-0.035,0.007-0.051
		c0.007-0.003,0.011-0.004,0.013-0.002C136.359,136.157,136.352,136.174,136.334,136.205z"/>
</g>
<g id="C13">
	<path fill="#353333" d="M80.149,141.51c2.677-1.076,5.353-2.152,8.03-3.229c-13.216-0.522-23.29-3.883-29.4-6.454
		c-6.953-2.925-15.334-6.504-22.295-15.112c-8.005-9.898-10.78-20.703-10.809-37.607c-0.012-6.865-0.024-13.731-0.035-20.596
		c-2.396-1.089-5.207-2.238-8.503-3.324c0,11.662,0,23.324,0,34.986c0.069,4.012,0.817,22.017,15.19,36.526
		c11.125,11.23,24.132,14.025,28.891,14.81h0.012c-25.443,14.498-46.578,35.678-61.062,61.139v18.913
		c15.55-35.773,44.258-64.496,80.01-80.053H80.149z"/>
	<path fill="#353333" d="M79.217,25.528c16.891,0.029,27.687,2.806,37.577,10.818c8.601,6.967,12.177,15.355,15.1,22.313
		c2.569,6.116,5.927,16.197,6.449,29.424c1.075-2.679,2.151-5.358,3.226-8.037v0.028C157.113,44.293,185.813,15.563,221.557,0
		h-18.898c-25.441,14.496-46.604,35.648-61.09,61.111c0-0.004,0-0.008,0-0.012c-0.784-4.763-3.578-17.78-14.798-28.914
		C112.273,17.8,94.283,17.052,90.274,16.983c-11.653,0-23.305,0-34.958,0c1.085,3.299,2.233,6.112,3.321,8.51
		C65.497,25.505,72.357,25.516,79.217,25.528z"/>
</g>
<g id="C11">
	<path fill="#353333" d="M149.177,141.989h-0.002c0,2.427,0.069,4.837,0.196,7.232c-2.398-0.127-4.812-0.197-7.242-0.197v0.002
		C67.936,149.028,7.791,209.215,7.791,283.46h8.472c0.005-0.011,0.008-0.021,0.013-0.032
		c0.017-69.538,56.352-125.905,125.845-125.911c0,0,0.006,0.004,0.009,0.006v0.001h0l0.002,0.001l0.001-0.003
		c0,0,0.005-0.004,0.008-0.006c5.612,0,11.135,0.376,16.554,1.089c0.022,0.022,0.045,0.045,0.067,0.067
		c-0.003-0.02-0.004-0.04-0.007-0.06c0.015,0.002,0.031,0.003,0.046,0.005c-0.017-0.017-0.035-0.035-0.052-0.052
		c-0.712-5.422-1.088-10.949-1.088-16.565c0.002-0.003,0.004-0.005,0.006-0.008l0.003-0.001l-0.001-0.002v0h-0.001
		c0,0-0.004-0.005-0.006-0.008c0.006-69.541,56.334-125.915,125.824-125.932c0.011-0.005,0.022-0.008,0.033-0.013V7.558
		C209.325,7.558,149.178,67.744,149.177,141.989z"/>
</g>
<g id="C10">
	<path fill="#9D9FA2" d="M157.477,141.981c0.002,0.003,0.004,0.005,0.004,0.005l0.002,0.003v0l0.001,0.002l-0.003,0.001
		c-0.002,0.003-0.004,0.005-0.006,0.008c0,5.616,0.376,11.144,1.088,16.565c0.017,0.017,0.035,0.034,0.052,0.052
		c-0.015-0.002-0.031-0.003-0.046-0.005c0.002,0.02,0.004,0.04,0.007,0.06c-0.022-0.023-0.045-0.045-0.067-0.067
		c-5.418-0.713-10.942-1.089-16.554-1.089c-0.003,0.002-0.006,0.004-0.006,0.004l-0.003,0.005l-0.002-0.001h0v-0.001
		c-0.003-0.002-0.005-0.004-0.005-0.004C72.443,157.523,16.108,213.89,16.091,283.428c-0.005,0.011-0.008,0.021-0.013,0.032h18.41
		c0.015-37.11,18.813-69.826,47.396-89.144c1.43-0.966,2.883-1.898,4.36-2.796c2.954-1.796,6.001-3.453,9.133-4.962
		c14.093-6.793,29.894-10.6,46.583-10.6c1.844,0,3.678,0.062,5.477,0.169c1.8,0.108,3.562,0.262,5.264,0.447
		c0.851,0.093,1.686,0.192,2.502,0.298c8.979,1.165,15.675,3.029,15.675,3.029c0.675,0.188,1.282,0.386,1.926,0.579
		c4.938,1.479,9.027,3.069,11.95,4.338c-1.434-3.307-3.284-8.033-4.91-13.876c0,0-1.863-6.701-3.027-15.686
		c-0.211-1.633-0.4-3.342-0.551-5.101c-0.225-2.637-0.363-5.384-0.363-8.151c0-59.382,48.093-107.522,107.428-107.547V16.036
		c-0.011,0.005-0.021,0.008-0.033,0.013C213.81,16.067,157.482,72.44,157.477,141.981z"/>
</g>
<g id="C9">
	<path fill="#353333" d="M283.436,42.95v-8.491c-59.335,0.024-107.428,48.165-107.428,107.547c0,14.76,3.941,28.938,3.941,28.938
		c1.626,5.842,3.477,10.569,4.91,13.876c-3.305-1.435-8.032-3.289-13.877-4.918c0,0-14.169-3.944-28.918-3.944
		c-59.341,0-107.448,48.126-107.472,107.503h8.485c0.024-54.687,44.333-99.012,98.988-99.012c14.188,0,27.674,2.993,39.872,8.373
		c-0.981,1.081-1.961,2.161-2.942,3.242c-0.498,0.759-2.178,3.521-1.663,7.155c0.659,4.654,4.388,7.005,5.155,7.488
		c1.023,0.645,4.428,2.793,8.314,1.498c2.527-0.842,3.954-2.706,4.49-3.494c0.68,1.589,2.493,5.18,6.485,7.488
		c1.565,0.905,4.237,2.458,7.649,1.83c2.875-0.529,4.716-2.313,5.451-3.121c0.002,0.002,0.004,0.004,0.007,0.007
		c0.784-0.708,2.629-2.572,3.167-5.501c0.627-3.415-0.925-6.089-1.829-7.655c-2.307-3.995-5.895-5.809-7.483-6.49
		c0.788-0.536,2.65-1.964,3.492-4.493c1.294-3.889-0.852-7.297-1.496-8.32c-0.483-0.767-2.833-4.498-7.483-5.158
		c-3.632-0.516-6.392,1.165-7.151,1.664c-1.08,0.981-2.16,1.963-3.24,2.944c-5.377-12.207-8.367-25.703-8.367-39.9
		C184.492,87.313,228.787,42.974,283.436,42.95z"/>
</g>
<g id="C8">
	<path fill="#353333" d="M182.173,231.549c-2.292-0.414-4.608-0.833-6.924,0.311c-1.891,0.935-2.932,2.487-3.345,3.114
		c-0.493,0.75-0.539,1.059-1.478,3.348c-0.756,1.841-1.268,4.38-3.112,5.45c-0.166,0.096-1.676,0.943-3.112,0.338
		c-1.57-0.661-2.011-2.618-2.056-2.832c-0.723-3.435,3.676-4.728,5.554-10.34c1.226-3.665,0.73-7.237,0.393-9.666
		c-0.402-2.895-1.18-5.021-1.4-5.605c-1.048-2.774-2.443-4.941-3.878-7.171c-1.665-2.586-2.803-3.517-3.14-5.671
		c-0.24-1.532,0.019-2.851,0.084-3.161c0.318-1.52,0.968-2.622,1.401-3.244c0.152-0.24,0.304-0.48,0.456-0.72
		c0.078-0.123,0.155-0.289,0.098-0.43c-0.188-0.468-1.689-0.271-2.13-0.212c-0.729,0.096-3.553,0.582-7.517,4.261
		c-0.847,0.786-1.99,1.944-3.189,3.503c-0.721-0.566-1.442-1.133-2.162-1.699c-1.748-1.181-3.313-2.084-4.566-2.752
		c0,0-3.515-1.875-5.518-1.406c-0.228,0.053-0.363,0.194-0.363,0.194c-0.14,0.145-0.18,0.331-0.192,0.452
		c-0.306,0.779-0.698,1.906-1.002,3.298c-0.864,3.955-0.395,7.165,0,9.698c0.359,2.307,0.706,4.536,1.949,7.214
		c1.119,2.411,1.813,2.708,3.607,6.255c2.281,4.511,1.965,5.628,1.653,6.195c-0.579,1.052-1.995,1.76-3.257,1.656
		c-0.862-0.071-1.469-0.506-2.039-0.914c-1.09-0.781-1.655-1.659-2.287-2.639c-0.874-1.356-1.769-2.7-2.628-4.065
		c-1.447-2.298-2.17-3.447-2.879-4.282c-1.422-1.676-2.797-2.688-3.812-3.426c-1.322-0.961-3.297-2.2-5.928-3.209
		c-1.724-0.594-3.723-0.919-5.845-0.541c-0.148,0.026-0.293,0.056-0.436,0.088c-0.091,0.042-0.214,0.113-0.316,0.237
		c-0.533,0.647,0.123,1.949,0.539,2.935c0,0,0.617,1.463,1.228,4.382c0.175,0.833,0.551,2.701,0.288,4.816
		c-0.124,0.996-0.332,1.582-1.611,4.685c-2.213,5.369-2.507,5.839-2.466,7.006c0.07,1.986,1.021,3.439,1.974,4.894
		c1.462,2.233,2.164,1.981,5.261,5.382c0.585,0.642,1.575,1.888,3.579,4.36c1.935,2.386,2.702,3.742,3.345,4.905
		c1.269,2.294,1.462,3.345,1.478,4.204c0.011,0.608,0.067,2.423-1.014,3.222c-1.547,1.144-4.424-0.522-4.961-0.833
		c-2.18-1.262-2.294-2.417-6.474-7.761c-0.791-1.011-1.668-2.049-3.423-4.126c0,0-0.472-0.558-3.373-3.555
		c-0.096-0.099-1.222-1.242-2.962-2.06c-0.564-0.265-1.089-0.458-1.445-0.224c-0.329,0.216-0.372,0.702-0.425,1.295
		c-0.05,0.562,0.022,0.764,0.08,1.79c0.07,1.239-0.001,1.551-0.199,1.664c-0.151,0.086-0.339,0.035-0.467-0.012
		c-1.238-0.46-5.112-3.718-6.535-4.737c-1.733-1.241-3.34-1.674-5.619-2.288c-2.365-0.637-4.041-0.704-5.415-0.585
		c-1.33,0.116-2.365,0.22-3.203,1.004c-0.222,0.208-0.915,0.917-1.255,3.404c-0.247,1.802-0.145,3.35,0.011,4.537
		c0.33,2.52,0.566,5.053,0.951,7.566c0.015,0.101,0.061,0.393-0.107,0.588c-0.133,0.154-0.338,0.176-0.418,0.185
		c-0.725,0.081-8.639-0.885-9.792-1.148c0,0-2.234-0.51-4.149-0.006c-0.267,0.07-0.433,0.248-0.433,0.248s-0.156,0.16-0.228,0.404
		c-0.3,1.02,0.174,2.588,0.174,2.588c0.417,1.377,0.612,2.823,1.121,4.168c0.051,0.134,0.19,0.493,0.027,0.775
		c-0.115,0.198-0.334,0.282-0.481,0.321c-0.857,0.098-2.028,0.295-3.365,0.723c-1.169,0.374-3.854,1.265-6.408,3.675
		c0,0-2.642,2.493-4.123,6.384c-0.476,1.25-0.784,2.561-0.807,2.66c-0.25,1.088-0.379,2.057-0.446,2.851c2.745,0,5.491,0,8.237,0
		c0.016-0.614,0.122-1.619,0.64-2.708c0.916-1.927,2.506-2.821,3.19-3.192c2.034-1.103,3.994-1.02,4.823-0.934
		c13.796,0,27.593,0,41.389,0c0.057-0.564,0.073-1.435-0.233-2.414c-0.418-1.335-1.228-2.201-1.945-2.88
		c-1.544-1.464-2.726-2.129-4.979-3.581c-6.139-3.958-4.22-3.442-6.457-4.593c-0.648-0.333-1.752-0.862-2.256-2.024
		c-0.499-1.15-0.141-2.299-0.078-2.491c0.088-0.268,0.424-1.297,1.4-1.868c1.148-0.672,2.448-0.283,3.345,0
		c2.043,0.645,3.331,1.934,3.579,2.18c2.428,2.409,5.563,3.979,8.324,5.995c3.747,2.735,6.853,4.154,11.903,6.462
		c3.958,1.808,6.954,3.177,11.359,4.282c2.751,0.69,5.75,0.823,11.748,1.09c1.445,0.064,3.863,0.139,5.523-1.401
		c0.306-0.284,1.14-1.079,1.245-2.258c0.055-0.615-0.087-1.357-1.089-2.803c-1.452-2.095-3.034-3.27-3.034-3.27
		s-3.978-2.954-8.324-6.851c-2.838-2.544-4.67-4.862-5.68-6.15c-2.914-3.72-4.558-6.882-4.979-7.708
		c-1.389-2.724-2.288-5.179-2.879-7.085c-0.067-0.101-0.876-1.357-0.389-2.024c0.197-0.27,0.545-0.359,0.855-0.389
		c2.159-0.208,5.602,1.946,5.602,1.946c6.311,3.951,5.954,3.34,7.002,4.36c2.471,2.406,3.112,4.494,4.279,4.282
		c0.439-0.08,0.551-0.536,1.807-2.743c1.285-2.256,1.961-4.259,2.394-5.665c0.774-2.516,0.874-4.741,0.934-6.073
		c0.081-1.811-0.073-2.28-0.155-7.162c-0.055-3.25-0.007-4.202,0.622-5.294c0.46-0.799,1.071-1.386,1.595-1.832
		c0.45,0.489,1.826,0.931,2.918,1.676c2.753,1.88,3.226,5.631,3.734,9.654c0.271,2.145,0.67,5.298-0.467,9.031
		c-0.918,3.014-1.871,3.237-3.423,6.695c-2,4.455-3.225,10.338-1.867,11.055c1.085,0.573,2.955-2.611,9.492-7.007
		c3.078-2.07,5.382-3.193,7.936-2.803c1.43,0.219,3.281,0.964,3.267,1.713c-0.012,0.66-1.469,1.095-2.334,1.401
		c-4.938,1.751-8.508,5.699-9.958,7.785c-0.74,1.064-2.925,4.305-2.645,8.72c0.054,0.858,0.322,5.079,3.579,7.941
		c1.021,0.897,2.406,1.722,5.757,2.491c2.925,0.671,7.506,1.337,13.381,0.623c0.007-1.044-0.159-2.503-1.089-3.737
		c-1.143-1.515-2.489-1.434-5.446-3.27c-1.356-0.842-3.85-2.391-3.579-3.426c0.187-0.715,1.569-0.706,3.656-1.324
		c2.382-0.705,4.162-1.777,5.29-2.569c1.267-0.986,2.173-1.78,2.487-2.13c0.14-0.156,0.284-0.358,0.294-0.615
		c0,0,0.007-0.184-0.08-0.374c-0.355-0.774-3.626-3.247-4.058-5.37c-0.041-0.203-0.146-0.751,0.08-1.336
		c0.222-0.577,0.655-0.902,0.801-1.015c1.211-0.936,4.879-4.347,6.354-6.412c1.742-2.439,1.93-5.109,2.056-6.893
		c0.204-2.891-0.399-5.199-0.854-6.529C185.033,232.28,183.758,231.835,182.173,231.549z"/>
	<path fill="#353333" d="M280.753,51.431c-0.099,0.023-1.409,0.331-2.658,0.807c-3.888,1.482-6.379,4.127-6.379,4.127
		c-2.408,2.557-3.299,5.243-3.672,6.413c-0.428,1.338-0.625,2.51-0.722,3.368c-0.039,0.147-0.123,0.366-0.32,0.481
		c-0.282,0.164-0.64,0.024-0.774-0.027c-1.344-0.51-2.789-0.705-4.165-1.122c0,0-1.567-0.475-2.586-0.175
		c-0.244,0.072-0.404,0.228-0.404,0.228s-0.177,0.166-0.248,0.433c-0.504,1.917,0.006,4.152,0.006,4.152
		c0.263,1.155,1.228,9.074,1.147,9.8c-0.009,0.08-0.032,0.285-0.185,0.418c-0.194,0.168-0.486,0.122-0.587,0.107
		c-2.511-0.384-5.042-0.621-7.56-0.951c-1.187-0.156-2.733-0.258-4.533-0.011c-2.485,0.341-3.194,1.035-3.401,1.257
		c-0.784,0.839-0.888,1.875-1.003,3.206c-0.12,1.375-0.053,3.052,0.584,5.419c0.614,2.281,1.047,3.889,2.287,5.624
		c1.018,1.424,4.273,5.302,4.733,6.541c0.047,0.127,0.098,0.315,0.012,0.467c-0.113,0.199-0.424,0.27-1.663,0.2
		c-1.025-0.058-1.227-0.13-1.789-0.08c-0.593,0.053-1.077,0.096-1.294,0.425c-0.234,0.356-0.041,0.882,0.223,1.446
		c0.818,1.742,1.959,2.868,2.059,2.965c2.995,2.903,3.553,3.375,3.553,3.375c2.075,1.756,3.113,2.635,4.123,3.426
		c5.34,4.184,6.494,4.297,7.755,6.479c0.31,0.537,1.975,3.417,0.832,4.965c-0.799,1.082-2.612,1.026-3.219,1.015
		c-0.859-0.016-1.909-0.21-4.201-1.479c-1.162-0.644-2.517-1.412-4.901-3.348c-2.47-2.006-3.715-2.996-4.356-3.582
		c-3.398-3.1-3.147-3.802-5.378-5.265c-1.454-0.954-2.905-1.906-4.89-1.976c-1.166-0.041-1.635,0.254-7,2.469
		c-3.101,1.28-3.686,1.488-4.681,1.612c-2.113,0.263-3.98-0.114-4.812-0.288c-2.916-0.612-4.378-1.229-4.378-1.229
		c-0.985-0.416-2.286-1.073-2.933-0.539c-0.124,0.102-0.195,0.225-0.237,0.316c-0.032,0.143-0.061,0.289-0.088,0.437
		c-0.378,2.124-0.053,4.125,0.541,5.85c1.008,2.634,2.247,4.609,3.206,5.933c0.738,1.016,1.749,2.392,3.423,3.815
		c0.834,0.709,1.982,1.433,4.278,2.881c1.364,0.86,2.707,1.755,4.062,2.63c0.979,0.632,1.857,1.198,2.637,2.288
		c0.408,0.57,0.842,1.178,0.914,2.04c0.104,1.263-0.604,2.68-1.655,3.26c-0.568,0.313-1.683,0.629-6.191-1.654
		c-3.544-1.795-3.841-2.49-6.25-3.61c-2.677-1.244-4.903-1.591-7.208-1.95c-2.531-0.395-5.739-0.865-9.691,0
		c-1.391,0.304-2.517,0.696-3.295,1.003c-0.121,0.012-0.307,0.052-0.452,0.192c0,0-0.141,0.135-0.194,0.363
		c-0.469,2.005,1.404,5.523,1.404,5.523c0.668,1.253,1.569,2.82,2.75,4.569c0.566,0.721,1.132,1.443,1.698,2.164
		c-1.558,1.201-2.715,2.344-3.501,3.192c-3.676,3.967-4.162,6.794-4.257,7.523c-0.058,0.441-0.255,1.944,0.212,2.132
		c0.141,0.057,0.307-0.02,0.43-0.099c0.24-0.152,0.48-0.304,0.72-0.457c0.62-0.433,1.722-1.083,3.241-1.402
		c0.309-0.065,1.627-0.324,3.158-0.084c2.152,0.337,3.083,1.477,5.667,3.143c2.228,1.437,4.393,2.833,7.165,3.882
		c0.583,0.221,2.708,0.999,5.601,1.402c2.427,0.338,5.997,0.834,9.659-0.393c5.607-1.879,6.898-6.281,10.331-5.558
		c0.214,0.045,2.17,0.486,2.83,2.057c0.604,1.437-0.242,2.949-0.338,3.115c-1.069,1.845-3.606,2.358-5.445,3.114
		c-2.286,0.94-2.596,0.986-3.345,1.479c-0.627,0.413-2.178,1.455-3.112,3.348c-1.143,2.318-0.725,4.635-0.311,6.93
		c0.286,1.587,0.731,2.862,1.089,3.737c1.328,0.456,3.635,1.059,6.523,0.855c1.783-0.126,4.451-0.314,6.888-2.057
		c2.064-1.476,5.472-5.147,6.407-6.359c0.113-0.146,0.438-0.579,1.014-0.802c0.585-0.226,1.132-0.121,1.335-0.08
		c2.122,0.433,4.593,3.706,5.366,4.061c0.19,0.087,0.374,0.08,0.374,0.08c0.256-0.01,0.459-0.154,0.614-0.294
		c0.35-0.315,1.144-1.222,2.129-2.489c0.792-1.13,1.862-2.911,2.567-5.295c0.617-2.088,0.609-3.472,1.323-3.659
		c1.034-0.272,2.582,2.225,3.423,3.582c1.835,2.959,1.754,4.307,3.267,5.45c1.233,0.931,2.691,1.097,3.734,1.09
		c0.713-5.88,0.048-10.465-0.622-13.392c-0.769-3.354-1.593-4.74-2.49-5.762c-2.859-3.26-7.077-3.527-7.934-3.582
		c-4.411-0.28-7.649,1.907-8.713,2.647c-2.084,1.451-6.029,5.025-7.779,9.966c-0.307,0.866-0.741,2.323-1.4,2.336
		c-0.749,0.014-1.493-1.839-1.712-3.27c-0.389-2.555,0.732-4.861,2.801-7.942c4.393-6.541,7.574-8.413,7.001-9.499
		c-0.716-1.359-6.595-0.133-11.046,1.868c-3.456,1.554-3.679,2.508-6.69,3.426c-3.73,1.137-6.881,0.738-9.024,0.467
		c-4.02-0.509-7.768-0.983-9.646-3.737c-0.745-1.093-1.186-2.47-1.675-2.92c0.446-0.524,1.033-1.135,1.831-1.596
		c1.091-0.629,2.042-0.678,5.29-0.623c4.878,0.083,5.347,0.237,7.157,0.156c1.33-0.06,3.554-0.16,6.067-0.934
		c1.406-0.433,3.406-1.11,5.661-2.396c2.204-1.257,2.661-1.37,2.74-1.809c0.212-1.167-1.874-1.809-4.278-4.282
		c-1.019-1.048-0.409-0.691-4.357-7.008c0,0-2.153-3.445-1.945-5.606c0.03-0.311,0.119-0.659,0.389-0.856
		c0.667-0.487,1.922,0.322,2.023,0.389c1.904,0.591,4.357,1.491,7.079,2.881c0.825,0.421,3.985,2.067,7.702,4.983
		c1.287,1.01,3.603,2.844,6.145,5.684c3.894,4.35,6.846,8.331,6.846,8.331s1.174,1.583,3.267,3.037
		c1.444,1.003,2.186,1.145,2.8,1.09c1.177-0.105,1.972-0.94,2.256-1.246c1.539-1.662,1.465-4.082,1.4-5.528
		c-0.266-6.003-0.4-9.004-1.089-11.757c-1.103-4.408-2.471-7.407-4.278-11.368c-2.306-5.055-3.724-8.163-6.457-11.913
		c-2.015-2.764-3.583-5.901-5.99-8.331c-0.246-0.248-1.534-1.537-2.178-3.582c-0.283-0.898-0.672-2.199,0-3.348
		c0.571-0.976,1.599-1.314,1.867-1.402c0.192-0.063,1.34-0.422,2.489,0.078c1.162,0.505,1.69,1.61,2.022,2.258
		c1.151,2.24,0.635,0.319,4.59,6.463c1.452,2.255,2.115,3.438,3.578,4.983c0.679,0.718,1.544,1.528,2.878,1.946
		c0.977,0.307,1.848,0.291,2.411,0.234c0-13.808,0-27.615,0-41.423c-0.085-0.83-0.168-2.791,0.934-4.827
		c0.37-0.684,1.264-2.275,3.189-3.192c1.089-0.519,2.093-0.625,2.706-0.641c0-2.748,0-5.495,0-8.243
		C282.809,51.052,281.84,51.181,280.753,51.431z"/>
</g>
<g id="C7">
	<path fill="#353333" d="M276.926,202.072c0-3.554,0-7.109,0-10.663c-7.048,0.507-34.861,3.329-58.058,26.546
		c-23.238,23.259-26.029,51.157-26.527,58.199c3.551,0,7.101,0,10.652,0C206.102,236.706,237.523,205.231,276.926,202.072z"/>
</g>
<g id="C6">
	<path fill="#DEDEDE" d="M280.759,59.869c-1.925,0.917-2.819,2.508-3.189,3.192c-1.102,2.036-1.019,3.997-0.934,4.827
		c0,13.808,0,27.615,0,41.423c-0.563,0.057-1.434,0.073-2.411-0.234c-1.334-0.419-2.199-1.229-2.878-1.946
		c-1.463-1.546-2.126-2.728-3.578-4.983c-3.955-6.143-3.439-4.223-4.59-6.463c-0.333-0.648-0.861-1.753-2.022-2.258
		c-1.149-0.5-2.297-0.141-2.489-0.078c-0.268,0.088-1.296,0.425-1.867,1.402c-0.672,1.149-0.283,2.45,0,3.348
		c0.644,2.045,1.932,3.333,2.178,3.582c2.407,2.43,3.975,5.567,5.99,8.331c2.733,3.75,4.151,6.858,6.457,11.913
		c1.807,3.961,3.175,6.96,4.278,11.368c0.69,2.753,0.823,5.754,1.089,11.757c0.064,1.447,0.139,3.866-1.4,5.528
		c-0.284,0.306-1.079,1.141-2.256,1.246c-0.614,0.055-1.356-0.087-2.8-1.09c-2.094-1.454-3.267-3.036-3.267-3.036
		s-2.951-3.981-6.846-8.331c-2.542-2.84-4.858-4.674-6.145-5.684c-3.717-2.916-6.877-4.562-7.701-4.983
		c-2.722-1.39-5.175-2.29-7.079-2.881c-0.101-0.067-1.356-0.876-2.023-0.389c-0.27,0.197-0.359,0.545-0.389,0.856
		c-0.208,2.161,1.945,5.606,1.945,5.606c3.948,6.317,3.338,5.959,4.357,7.008c2.404,2.473,4.49,3.115,4.278,4.282
		c-0.08,0.439-0.536,0.552-2.74,1.809c-2.255,1.286-4.255,1.963-5.661,2.396c-2.514,0.775-4.738,0.875-6.067,0.934
		c-1.81,0.081-2.278-0.073-7.157-0.156c-3.248-0.055-4.199-0.006-5.29,0.623c-0.798,0.461-1.385,1.071-1.831,1.596
		c0.489,0.45,0.93,1.827,1.675,2.92c1.878,2.755,5.626,3.229,9.646,3.737c2.143,0.271,5.294,0.67,9.024-0.467
		c3.012-0.918,3.234-1.872,6.69-3.426c4.451-2.001,10.33-3.227,11.046-1.868c0.572,1.086-2.609,2.958-7.001,9.499
		c-2.069,3.081-3.19,5.387-2.801,7.942c0.218,1.431,0.963,3.284,1.712,3.27c0.659-0.012,1.094-1.47,1.4-2.336
		c1.75-4.941,5.695-8.515,7.779-9.966c1.064-0.741,4.302-2.927,8.713-2.647c0.857,0.054,5.075,0.322,7.934,3.582
		c0.896,1.022,1.721,2.407,2.49,5.762c0.671,2.927,1.336,7.512,0.622,13.392c-1.043,0.007-2.501-0.159-3.734-1.09
		c-1.513-1.143-1.433-2.491-3.267-5.45c-0.841-1.356-2.389-3.853-3.423-3.582c-0.714,0.188-0.705,1.571-1.323,3.659
		c-0.705,2.384-1.775,4.165-2.567,5.295c-0.985,1.268-1.779,2.174-2.129,2.489c-0.155,0.14-0.358,0.284-0.614,0.294
		c0,0-0.184,0.007-0.374-0.08c-0.773-0.355-3.244-3.629-5.366-4.061c-0.203-0.041-0.75-0.146-1.335,0.08
		c-0.576,0.223-0.902,0.656-1.014,0.802c-0.936,1.213-4.344,4.883-6.407,6.359c-2.437,1.743-5.104,1.932-6.888,2.057
		c-2.888,0.204-5.195-0.399-6.523-0.855c-0.358-0.876-0.803-2.151-1.089-3.737c-0.414-2.294-0.832-4.612,0.311-6.93
		c0.934-1.894,2.485-2.935,3.112-3.348c0.749-0.494,1.059-0.539,3.345-1.479c1.84-0.756,4.377-1.269,5.445-3.114
		c0.096-0.166,0.942-1.678,0.338-3.115c-0.66-1.571-2.616-2.012-2.83-2.057c-3.433-0.723-4.724,3.679-10.331,5.558
		c-3.662,1.227-7.231,0.731-9.659,0.393c-2.892-0.402-5.017-1.181-5.601-1.402c-2.772-1.049-4.937-2.445-7.165-3.882
		c-2.584-1.666-3.515-2.805-5.667-3.143c-1.531-0.24-2.849,0.019-3.158,0.084c-1.519,0.319-2.621,0.969-3.241,1.402
		c-0.24,0.152-0.48,0.304-0.72,0.457c-0.123,0.078-0.289,0.155-0.43,0.099c-0.468-0.188-0.27-1.691-0.212-2.132
		c0.096-0.729,0.582-3.556,4.257-7.523c0.786-0.848,1.943-1.992,3.501-3.192c-0.566-0.721-1.132-1.443-1.698-2.164
		c-1.181-1.749-2.083-3.316-2.75-4.569c0,0-1.873-3.518-1.404-5.523c0.053-0.228,0.194-0.363,0.194-0.363
		c0.145-0.14,0.331-0.18,0.452-0.192c0.778-0.307,1.904-0.698,3.295-1.003c3.952-0.865,7.159-0.395,9.69,0
		c2.305,0.359,4.532,0.707,7.208,1.95c2.409,1.12,2.705,1.815,6.25,3.61c4.507,2.283,5.623,1.967,6.191,1.654
		c1.051-0.579,1.759-1.997,1.655-3.26c-0.071-0.863-0.506-1.47-0.914-2.04c-0.78-1.09-1.658-1.656-2.637-2.288
		c-1.355-0.875-2.697-1.77-4.062-2.63c-2.296-1.448-3.445-2.172-4.278-2.881c-1.674-1.423-2.685-2.799-3.423-3.815
		c-0.96-1.323-2.198-3.299-3.206-5.933c-0.594-1.725-0.919-3.726-0.541-5.85c0.026-0.148,0.056-0.294,0.088-0.437
		c0.041-0.092,0.113-0.214,0.237-0.316c0.646-0.533,1.948,0.123,2.933,0.539c0,0,1.462,0.617,4.378,1.229
		c0.833,0.175,2.699,0.552,4.812,0.288c0.995-0.124,1.58-0.332,4.681-1.612c5.365-2.215,5.834-2.51,7-2.469
		c1.985,0.07,3.436,1.022,4.89,1.976c2.231,1.464,1.98,2.166,5.378,5.265c0.642,0.586,1.887,1.576,4.356,3.582
		c2.384,1.936,3.739,2.704,4.901,3.348c2.292,1.27,3.342,1.463,4.201,1.479c0.607,0.011,2.421,0.067,3.219-1.015
		c1.143-1.548-0.522-4.428-0.832-4.965c-1.261-2.181-2.415-2.295-7.755-6.479c-1.01-0.791-2.048-1.67-4.123-3.426
		c0,0-0.558-0.472-3.553-3.375c-0.099-0.096-1.241-1.223-2.059-2.965c-0.265-0.564-0.457-1.09-0.223-1.446
		c0.216-0.329,0.701-0.373,1.294-0.425c0.562-0.05,0.764,0.022,1.789,0.08c1.238,0.07,1.55-0.001,1.663-0.2
		c0.086-0.151,0.035-0.339-0.012-0.467c-0.46-1.239-3.715-5.116-4.733-6.541c-1.24-1.735-1.673-3.343-2.287-5.624
		c-0.637-2.367-0.703-4.045-0.584-5.419c0.115-1.331,0.22-2.367,1.003-3.206c0.207-0.222,0.916-0.916,3.401-1.257
		c1.801-0.247,3.347-0.145,4.533,0.011c2.518,0.33,5.049,0.567,7.56,0.951c0.101,0.015,0.393,0.061,0.588-0.107
		c0.153-0.133,0.176-0.338,0.185-0.418c0.081-0.726-0.884-8.645-1.147-9.8c0,0-0.51-2.235-0.006-4.152
		c0.07-0.267,0.248-0.433,0.248-0.433s0.159-0.156,0.404-0.228c1.02-0.301,2.586,0.175,2.586,0.175
		c1.375,0.417,2.82,0.612,4.165,1.122c0.134,0.051,0.492,0.191,0.774,0.027c0.198-0.115,0.281-0.334,0.32-0.481
		c0.098-0.858,0.294-2.029,0.722-3.368c0.374-1.17,1.264-3.857,3.672-6.413c0,0,2.491-2.644,6.379-4.127
		c1.249-0.476,2.559-0.784,2.658-0.807c1.085-0.25,2.051-0.379,2.843-0.446V42.95c-54.649,0.024-98.944,44.364-98.944,99.056
		c0,14.197,2.991,27.693,8.367,39.9c1.08-0.981,2.16-1.963,3.24-2.944c0.759-0.499,3.519-2.18,7.151-1.664
		c4.65,0.66,7,4.391,7.483,5.158c0.644,1.024,2.79,4.432,1.496,8.32c-0.842,2.529-2.704,3.957-3.492,4.493
		c1.587,0.681,5.176,2.495,7.483,6.49c0.904,1.566,2.457,4.24,1.829,7.655c-0.538,2.929-2.383,4.793-3.167,5.501
		c-0.002-0.002-0.004-0.004-0.007-0.007c-0.736,0.807-2.577,2.592-5.451,3.121c-3.413,0.628-6.085-0.925-7.649-1.83
		c-3.992-2.309-5.805-5.9-6.485-7.488c-0.535,0.788-1.963,2.652-4.49,3.494c-3.886,1.295-7.292-0.853-8.314-1.498
		c-0.767-0.484-4.496-2.835-5.155-7.488c-0.516-3.635,1.164-6.396,1.663-7.155c0.981-1.081,1.961-2.161,2.942-3.242
		c-12.198-5.38-25.685-8.373-39.872-8.373c-54.655,0-98.964,44.325-98.988,99.012h8.072c0.067-0.794,0.195-1.763,0.446-2.851
		c0.023-0.099,0.331-1.411,0.807-2.66c1.481-3.891,4.123-6.384,4.123-6.384c2.555-2.41,5.239-3.301,6.408-3.675
		c1.337-0.428,2.508-0.625,3.365-0.723c0.146-0.039,0.366-0.123,0.481-0.321c0.163-0.282,0.024-0.641-0.027-0.775
		c-0.509-1.345-0.704-2.791-1.121-4.168c0,0-0.475-1.568-0.174-2.588c0.072-0.245,0.228-0.404,0.228-0.404s0.165-0.177,0.433-0.248
		c1.915-0.505,4.149,0.006,4.149,0.006c1.153,0.264,9.067,1.229,9.792,1.148c0.08-0.009,0.285-0.032,0.418-0.185
		c0.168-0.194,0.122-0.487,0.107-0.588c-0.384-2.513-0.62-5.046-0.951-7.566c-0.156-1.188-0.257-2.735-0.011-4.537
		c0.34-2.487,1.034-3.196,1.255-3.404c0.838-0.784,1.873-0.889,3.203-1.004c1.373-0.119,3.049-0.053,5.415,0.585
		c2.278,0.614,3.886,1.047,5.619,2.288c1.423,1.019,5.298,4.277,6.535,4.737c0.128,0.047,0.316,0.098,0.467,0.012
		c0.198-0.113,0.269-0.425,0.199-1.664c-0.058-1.026-0.13-1.228-0.08-1.79c0.053-0.593,0.096-1.079,0.425-1.295
		c0.356-0.234,0.881-0.041,1.445,0.224c1.741,0.818,2.866,1.961,2.962,2.06c2.901,2.997,3.373,3.555,3.373,3.555
		c1.755,2.077,2.632,3.115,3.423,4.126c4.18,5.344,4.294,6.499,6.474,7.761c0.536,0.31,3.414,1.977,4.961,0.833
		c1.081-0.799,1.025-2.614,1.014-3.222c-0.016-0.859-0.209-1.91-1.478-4.204c-0.643-1.163-1.411-2.519-3.345-4.905
		c-2.004-2.472-2.994-3.717-3.579-4.36c-3.097-3.401-3.799-3.149-5.261-5.382c-0.953-1.455-1.904-2.908-1.974-4.894
		c-0.041-1.167,0.254-1.637,2.466-7.006c1.279-3.103,1.487-3.689,1.611-4.685c0.263-2.115-0.113-3.983-0.288-4.816
		c-0.611-2.918-1.228-4.382-1.228-4.382c-0.416-0.986-1.072-2.288-0.539-2.935c0.102-0.124,0.224-0.195,0.316-0.237
		c0.143-0.032,0.289-0.061,0.436-0.088c2.122-0.378,4.122-0.053,5.845,0.541c2.631,1.01,4.606,2.249,5.928,3.209
		c1.015,0.738,2.39,1.75,3.812,3.426c0.708,0.835,1.432,1.984,2.879,4.282c0.86,1.365,1.754,2.709,2.628,4.065
		c0.632,0.98,1.197,1.858,2.287,2.639c0.569,0.408,1.177,0.843,2.039,0.914c1.262,0.104,2.678-0.604,3.257-1.656
		c0.313-0.568,0.628-1.685-1.653-6.195c-1.794-3.547-2.488-3.844-3.607-6.255c-1.243-2.678-1.59-4.907-1.949-7.214
		c-0.395-2.534-0.864-5.744,0-9.698c0.304-1.392,0.696-2.519,1.002-3.298c0.013-0.121,0.052-0.306,0.192-0.452
		c0,0,0.135-0.141,0.363-0.194c2.003-0.469,5.518,1.406,5.518,1.406c1.253,0.668,2.818,1.571,4.566,2.752
		c0.72,0.566,1.441,1.133,2.162,1.699c1.199-1.559,2.342-2.717,3.189-3.503c3.965-3.679,6.788-4.165,7.517-4.261
		c0.441-0.058,1.942-0.256,2.13,0.212c0.057,0.141-0.02,0.307-0.098,0.43c-0.152,0.24-0.304,0.48-0.456,0.72
		c-0.433,0.621-1.083,1.724-1.401,3.244c-0.065,0.31-0.324,1.629-0.084,3.161c0.337,2.154,1.475,3.086,3.14,5.671
		c1.436,2.23,2.83,4.397,3.878,7.171c0.221,0.584,0.999,2.71,1.4,5.605c0.337,2.429,0.833,6.002-0.393,9.666
		c-1.878,5.611-6.276,6.904-5.554,10.34c0.045,0.214,0.486,2.171,2.056,2.832c1.436,0.604,2.946-0.242,3.112-0.338
		c1.844-1.069,2.356-3.608,3.112-5.45c0.939-2.288,0.985-2.598,1.478-3.348c0.413-0.627,1.454-2.179,3.345-3.114
		c2.316-1.144,4.632-0.726,6.924-0.311c1.586,0.286,2.86,0.732,3.735,1.09c0.455,1.329,1.058,3.638,0.854,6.529
		c-0.126,1.784-0.314,4.454-2.056,6.893c-1.475,2.065-5.143,5.476-6.354,6.412c-0.146,0.113-0.579,0.439-0.801,1.015
		c-0.226,0.585-0.122,1.133-0.08,1.336c0.432,2.124,3.703,4.596,4.058,5.37c0.087,0.19,0.08,0.374,0.08,0.374
		c-0.01,0.256-0.154,0.459-0.294,0.615c-0.315,0.35-1.221,1.145-2.487,2.13c-1.128,0.793-2.908,1.864-5.29,2.569
		c-2.087,0.618-3.469,0.609-3.656,1.324c-0.272,1.035,2.223,2.584,3.579,3.426c2.957,1.836,4.303,1.755,5.446,3.27
		c0.931,1.234,1.096,2.693,1.089,3.737c-5.876,0.714-10.457,0.049-13.381-0.623c-3.351-0.769-4.736-1.595-5.757-2.491
		c-3.257-2.862-3.525-7.083-3.579-7.941c-0.279-4.414,1.905-7.655,2.645-8.72c1.45-2.086,5.021-6.034,9.958-7.785
		c0.865-0.307,2.322-0.741,2.334-1.401c0.014-0.749-1.838-1.494-3.267-1.713c-2.553-0.39-4.857,0.732-7.936,2.803
		c-6.536,4.396-8.407,7.58-9.492,7.007c-1.358-0.717-0.133-6.6,1.867-11.055c1.552-3.459,2.505-3.681,3.423-6.695
		c1.136-3.733,0.738-6.886,0.467-9.031c-0.508-4.023-0.982-7.774-3.734-9.654c-1.092-0.746-2.468-1.188-2.918-1.676
		c-0.524,0.446-1.134,1.033-1.595,1.832c-0.629,1.092-0.677,2.044-0.622,5.294c0.083,4.882,0.237,5.352,0.155,7.162
		c-0.06,1.331-0.16,3.557-0.934,6.073c-0.433,1.407-1.109,3.409-2.394,5.665c-1.256,2.206-1.369,2.663-1.807,2.743
		c-1.166,0.212-1.808-1.876-4.279-4.282c-1.048-1.02-0.69-0.409-7.002-4.36c0,0-3.443-2.155-5.602-1.946
		c-0.311,0.03-0.659,0.119-0.855,0.389c-0.487,0.667,0.322,1.923,0.389,2.024c0.59,1.906,1.49,4.361,2.879,7.085
		c0.421,0.826,2.065,3.988,4.979,7.708c1.009,1.288,2.842,3.606,5.68,6.15c4.346,3.897,8.324,6.851,8.324,6.851
		s1.582,1.175,3.034,3.27c1.002,1.446,1.144,2.188,1.089,2.803c-0.104,1.178-0.938,1.974-1.245,2.258
		c-1.66,1.54-4.078,1.466-5.523,1.401c-5.998-0.267-8.997-0.4-11.748-1.09c-4.405-1.105-7.401-2.474-11.359-4.282
		c-5.05-2.308-8.156-3.727-11.903-6.462c-2.762-2.016-5.897-3.586-8.324-5.995c-0.248-0.246-1.536-1.535-3.579-2.18
		c-0.897-0.283-2.198-0.672-3.345,0c-0.976,0.572-1.312,1.6-1.4,1.868c-0.063,0.192-0.421,1.341,0.078,2.491
		c0.505,1.163,1.608,1.691,2.256,2.024c2.238,1.151,0.319,0.636,6.457,4.593c2.253,1.453,3.435,2.117,4.979,3.581
		c0.717,0.68,1.527,1.545,1.945,2.88c0.307,0.978,0.291,1.85,0.233,2.414c-13.796,0-27.593,0-41.389,0
		c-0.829-0.085-2.789-0.169-4.823,0.934c-0.683,0.37-2.273,1.265-3.19,3.192c-0.518,1.089-0.624,2.094-0.64,2.708h154.145
		c0.281-2.005,0.615-5.026,0.665-8.718c0.073-5.407-0.546-6.161-0.333-10.484c0.147-2.991,0.384-7.19,2.494-11.981
		c0.427-0.97,1.82-3.984,4.582-7.246c3.818-4.508,8.171-7.031,11.182-8.408c0.787-0.717,1.574-1.434,2.361-2.151
		c0.717-0.788,1.434-1.576,2.15-2.363c1.376-3.014,3.898-7.369,8.402-11.19c3.259-2.764,6.272-4.158,7.241-4.585
		c4.788-2.111,8.983-2.348,11.973-2.496c4.32-0.213,5.073,0.406,10.476,0.333c3.69-0.05,6.709-0.385,8.713-0.666V59.229
		C282.846,59.245,281.846,59.351,280.759,59.869z M276.926,202.072c-39.403,3.159-70.824,34.634-73.934,74.083
		c-3.55,0-7.101,0-10.652,0c0.498-7.042,3.289-34.941,26.527-58.199c23.197-23.217,51.011-26.04,58.058-26.546
		C276.926,194.963,276.926,198.518,276.926,202.072z"/>
</g>
<g id="C5">
	<path fill="#9D9FA2" d="M274.747,214.104c-5.404,0.073-6.157-0.546-10.476-0.333c-2.989,0.148-7.185,0.385-11.973,2.496
		c-0.969,0.427-3.982,1.821-7.241,4.585c-4.505,3.82-7.026,8.176-8.403,11.189c-0.716,0.788-1.433,1.576-2.149,2.363
		c-0.787,0.717-1.574,1.434-2.362,2.151c-3.011,1.377-7.364,3.901-11.182,8.408c-2.762,3.262-4.155,6.276-4.582,7.246
		c-2.11,4.791-2.347,8.99-2.494,11.981c-0.213,4.322,0.406,5.076,0.333,10.483c-0.05,3.692-0.384,6.713-0.665,8.719
		c3.018,0,6.037,0,9.055,0c0-16.814,6.816-32.035,17.833-43.049c11.006-11.025,26.216-17.845,43.019-17.845c0-3.021,0-6.041,0-9.062
		C281.456,213.719,278.437,214.054,274.747,214.104z"/>
</g>
<g id="C4">
	<path fill="#353333" d="M231.159,283.393c0-0.008-0.001-0.015-0.001-0.023c0-28.91,23.414-52.347,52.302-52.358v-8.446
		c-33.566,0.011-60.774,27.238-60.786,60.827H231.159z"/>
</g>
<g id="C3">
	<path fill="#DEDEDE" d="M230.931,283.445c0-28.91,23.642-52.598,52.529-52.609v23.68l-29.21,28.929H230.931z"/>
</g>
<g id="C2">
	<path fill="#353333" d="M283.453,259.388c0-3.47,0-6.939,0-10.409c-1.913,0.323-5.084,0.61-8.841-0.244
		c-4.363-0.991-7.417-3.042-9.018-4.295c-0.401,2.253-1.274,5.524-3.326,8.986c-1.254,2.116-2.629,3.764-3.825,4.992
		c-1.228,1.196-2.874,2.572-4.989,3.827c-3.46,2.054-6.728,2.927-8.98,3.328c1.255,1.606,3.3,4.662,4.293,9.024
		c0.855,3.756,0.576,6.928,0.257,8.847h10.397C259.422,270.161,270.18,259.393,283.453,259.388z"/>
</g>
<g id="C1">
	<path fill="#9D9FA2" d="M283.457,259.386c-13.276,0.002-24.037,10.771-24.037,24.057c0,0.006,0,0.012,0,0.018h19.816
		c1.408-0.006,2.816-0.012,4.224-0.018C283.459,275.423,283.458,267.405,283.457,259.386z"/>
</g>
</svg>
