<?xml version="1.0" encoding="utf-8"?>
<!-- Generator: Adobe Illustrator 22.0.0, SVG Export Plug-In . SVG Version: 6.00 Build 0)  -->
<svg version="1.1" xmlns="http://www.w3.org/2000/svg" xmlns:xlink="http://www.w3.org/1999/xlink" x="0px" y="0px"
	 viewBox="0 0 283.5 283.5" enable-background="new 0 0 283.5 283.5" xml:space="preserve">
<g id="c2">
	<polygon fill-rule="evenodd" clip-rule="evenodd" fill="#353333" points="0,0 53.616,0.001 27.181,27.088 0,53.435 0,0 	"/>
</g>
<g id="c4">
	<path fill-rule="evenodd" clip-rule="evenodd" fill="#DEDEDE" d="M283.658,116.063c-1.693,1.126-4.294,3.16-6.561,6.447
		c-2.488,3.607-3.44,7.082-3.84,9.138c-5.023,3.379-11.22,7.82-15.89,12.094c-1.488,1.361-3.663,3.491-3.105,4.924
		c0.42,1.078,1.996,1.3,1.991,1.198c18.339,5.766,17.533,11.335,18.117,14.547c-3.202,13.838-18.153,12.451-18.762,12.261
		c-13.943-0.41-17.979-20.075-18.186-20.461c-0.302-7.475-0.118-27.65,12.926-48.097c11.341-17.776,26.449-26.426,33.31-29.827
		V116.063z"/>
	<path fill-rule="evenodd" clip-rule="evenodd" fill="#DEDEDE" d="M115.621,283.5c1.134-1.697,3.161-4.273,6.416-6.539
		c3.568-2.483,7.01-3.478,9.08-3.911c3.336-4.765,7.931-11,12.311-15.754c1.322-1.434,3.488-3.657,4.941-3.094
		c1.081,0.419,1.304,1.988,1.202,1.984c5.786,18.278,11.372,17.475,14.597,18.056c13.884-3.19,12.492-18.093,12.302-18.699
		c-0.411-13.894-20.143-17.918-20.531-18.125c-7.501-0.3-27.743-0.117-48.259,12.883C89.842,261.605,81.163,276.663,77.75,283.5
		H115.621z"/>
	<polygon fill-rule="evenodd" clip-rule="evenodd" fill="#DEDEDE" points="0,53.435 0,283.5 67.667,283.5 85.333,258.833 
		283.658,65.5 283.658,0 53.616,0.001 	"/>
</g>
<g id="c1">
	<path fill-rule="evenodd" clip-rule="evenodd" fill="#DEDEDE" d="M46.158,147.5c0,0-65,99.5,45,101.5l57.5-27l79.5,61.5h55.5l0-77
		c0,0-94-43.5-61-83.5l34-38.5c0,0-42.443-111.034-114.671-21.5l3.096,82.391L46.158,147.5z"/>
</g>
<g id="c3">
	<path fill-rule="evenodd" clip-rule="evenodd" fill="#58585A" d="M132.787,133.294c-9.342-4.919-28.371-12.575-49.339-8.56
		c-2.479,0.472-6.294,1.025-4.31-3.636c0.198,0.006,4.529-13.43-1.583-30.781c-0.193-0.593-5.302-18.924-27.222-20.995
		c-0.991-0.011-19.136-0.167-22.753,16.364c-1.487,5.09-4.08,15.414-9.193,20.714c-1.52,1.43-5.661,5.293-9.565,7.821
		c-0.602,0.577-6.181,3.488,1.717,4.975c0.198,0.002,9.094,0.324,15.715-7.72c0,0,2.821-3.527,4.971-1.722
		c1.909,1.605,7.816,3.095,11.734-3.124c2.07-3.417,2.558-6.708,0.496-9.817c-1.51-2.987-5.219-6.952,0.144-11.108
		c5.84-3.531,11.536-2.147,15.997,1.402c2.732,3.013,5.763,6.307,5.938,15.556c0.004,0.395,0.795,14.509-7.224,23.52
		c-2.181,2.929-6.309,4.573-11.372,8.197C-1.955,165.189,10.8,244.355,69.071,260.089c0.406,0.11,3.692,0.891,3.739,2.125
		c0.038,0.992-2.035,1.778-3.26,2.296c-3.585,1.577-9.446,4.763-14.467,10.9c-2.353,2.877-3.957,5.71-5.055,8.089
		c9.188,0,18.376,0,27.564,0c3.413-6.837,12.092-21.895,29.929-33.199c20.516-13,40.758-13.183,48.259-12.883
		c0.388,0.207,20.12,4.23,20.531,18.125c0.19,0.606,1.583,15.509-12.302,18.699c-3.224-0.581-8.811,0.223-14.597-18.056
		c0.102,0.004-0.121-1.565-1.202-1.984c-1.453-0.562-3.619,1.66-4.941,3.094c-4.38,4.753-8.975,10.989-12.311,15.754
		c-2.069,0.433-5.511,1.428-9.08,3.911c-3.256,2.266-5.282,4.842-6.416,6.539c38.866,0,77.731,0,116.598,0
		c0.014-1.546-0.101-3.402-0.511-5.463c-0.239-1.204-0.542-2.294-0.865-3.259c0,0-1.334-5.03-3.566-6.461
		c-0.014-0.009-0.211-0.134-0.47-0.319c-0.113-0.08-0.241-0.176-0.382-0.287c-1.1-0.868-2.858-2.677-4.588-6.871
		c-0.258-0.264-1.241-6.105-8.863-8.052c-4.492-0.682-7.391,0.96-10.183-8.085c-0.261-0.258-1.153-13.243-10.079-15.733
		c-0.795-0.009-6.579-0.884-11.482-9.416c-0.256-1.059-1.764-6.639-10.685-9.935c-1.056-0.283-10.782-2.783-11.735-10.738
		c0.003-0.524,0.913-14.768-11.182-12.064c-1.967,0.441-10.071,3.586-15.75-6.025c0.011-0.793-7.478-13.054-19.179-5.547
		c-4.841,2.874-10.355,5.961-15.641,6.415c-1.055-0.011-14.73-2.837-27.009,8.903c-0.269,0.53-1.95,2.046,4.971,3.507
		c0.257,0,19.446,5.289,25.636,15.685c0.261,0.541,7.025,8.037,3.706,19.635c-14.207,27.954-47.039,10.589-60.442-8.094
		c-31.156-43.431,33.174-108.524,111.94-49.321c3.079,2.39,14.549,14.075,28.195,28.268c25.748,26.779,38.383,40.73,55.874,58.582
		c10.578,10.796,19.295,19.393,24.696,24.674c6.344,0,12.688,0.001,19.032,0.001c0-6.341,0-12.683,0-19.024
		c-3.018-3.005-6.039-6.009-9.064-9.012c-5.226-5.189-10.457-10.371-15.692-15.545c-9.123-8.794-36.924-34.808-58.781-55.687
		c-14.24-13.602-25.964-25.031-28.361-28.101c-59.405-78.501,5.908-142.615,49.487-111.564
		c18.747,13.357,36.169,46.079,8.121,60.238c-11.638,3.309-19.159-3.434-19.701-3.693c-10.432-6.17-15.739-25.294-15.739-25.55
		c-1.465-6.899-2.986-5.222-3.519-4.954c-11.779,12.239-8.944,25.868-8.933,26.919c-0.455,5.267-3.553,10.764-6.436,15.589
		c-7.533,11.66,4.77,19.125,5.566,19.115c9.644,5.66,6.487,13.735,6.044,15.696c-2.714,12.054,11.578,11.146,12.105,11.145
		c7.981,0.949,10.489,10.642,10.774,11.695c3.308,8.89,8.905,10.392,9.968,10.649c8.562,4.887,9.438,10.651,9.45,11.444
		c2.497,8.896,15.526,9.785,15.785,10.044c9.076,2.783,7.429,5.671,8.113,10.15c1.953,7.595,7.813,8.575,8.078,8.831
		c4.204,1.722,6.021,3.474,6.893,4.57c0.369,0.463,0.324,0.481,0.61,0.852c4.157,5.358,15.232,4.937,15.232,4.937
		c0-38.727,0-77.455,0-116.182c-1.693,1.126-4.294,3.16-6.561,6.447c-2.488,3.607-3.44,7.082-3.84,9.138
		c-5.023,3.379-11.219,7.82-15.89,12.094c-1.488,1.361-3.663,3.491-3.105,4.924c0.42,1.078,1.996,1.3,1.991,1.198
		c18.339,5.766,17.533,11.335,18.117,14.547c-3.202,13.838-18.153,12.451-18.762,12.261c-13.943-0.41-17.979-20.075-18.186-20.461
		c-0.302-7.475-0.118-27.65,12.926-48.097c11.341-17.776,26.449-26.426,33.31-29.827c0-9.15,0-18.301,0-27.451
		c-2.424,1.093-5.335,2.707-8.291,5.105c-6.176,5.01-9.368,10.866-10.936,14.418c-0.459,1.155-1.178,3.179-2.128,3.162
		c-0.923-0.017-1.648-1.972-2.134-3.728C244.224,11.717,164.79-0.996,133.875,47.735c-3.636,5.046-5.285,9.159-8.223,11.333
		c-9.042,7.993-23.203,7.204-23.6,7.199c-9.278-0.172-12.585-3.193-15.608-5.917c-3.56-4.445-4.949-10.123-1.405-15.943
		c4.169-5.345,8.148-1.648,11.145-0.143c3.121,2.055,6.422,1.568,9.85-0.493c6.24-3.905,4.744-9.793,3.134-11.695
		c-1.811-2.143,1.727-4.956,1.727-4.956c8.071-6.598,7.75-15.465,7.747-15.662c-1.494-7.871-4.413-2.311-4.993-1.711
		c-2.536,3.889-6.413,8.018-7.847,9.532c-5.318,5.097-15.677,7.68-20.784,9.161c-16.586,3.606-16.43,21.689-16.419,22.677
		c2.078,21.845,20.472,26.937,21.066,27.13c17.411,6.092,30.891,1.775,30.885,1.576c4.676-1.976,4.123,1.826,3.648,4.296
		C120.169,105.018,127.849,123.984,132.787,133.294z"/>
</g>
</svg>
