<?xml version="1.0" encoding="utf-8"?>
<!-- Generator: Adobe Illustrator 22.0.0, SVG Export Plug-In . SVG Version: 6.00 Build 0)  -->
<svg version="1.1" xmlns="http://www.w3.org/2000/svg" xmlns:xlink="http://www.w3.org/1999/xlink" x="0px" y="0px"
	 viewBox="0 0 283.5 283.5" enable-background="new 0 0 283.5 283.5" xml:space="preserve">
<g id="c5">
	<rect x="253.552" y="0.018" fill="#DEDEDE" width="29.713" height="29.648"/>
	<rect y="253.834" fill="#DEDEDE" width="29.713" height="29.648"/>
	<path fill="#DEDEDE" d="M86.292,174.601c0,7.513,0,15.027,0,22.54c5.797,0,11.593,0,17.39,0
		c4.476-7.162,10.416-15.864,18.055-25.264c4.411-5.428,14.479-17.352,29.464-30.564c10.914-9.623,26.078-21.375,45.789-32.415
		c0-7.513,0-15.027,0-22.54c-5.797,0-11.593,0-17.39,0c-9.532,15.096-23.868,34.369-44.686,53.326
		C117.425,155.61,100.296,166.821,86.292,174.601z"/>
	<path fill="#DEDEDE" d="M118.926,0.018c26.094,0,52.188,0,78.281,0c-0.072,9.883-0.145,19.765-0.217,29.648
		c-18.45,0-36.899,0-55.349,0c-4.488,13.861-11.854,30.804-24.183,47.988c-5.709,7.958-22.609,30.081-52.568,48.195
		c-13.563,8.201-25.965,13.259-35.159,16.404c0,18.296,0,36.593,0,54.889c-9.904,0-19.808,0-29.713,0c0-26.041,0-52.083,0-78.124
		c1.893-0.094,10.693-0.733,17.29-7.981c9.048-9.94,5.605-23.141,5.36-24.019c1.494,0.135,6.622,0.411,11.446-2.999
		c6.746-4.769,7.171-12.698,7.207-13.668c-1.565-0.444-11.496-3.44-15.988-13.333c-4.316-9.507-1.834-21.476,6.328-28.333
		c8.917-7.491,19.946-4.964,20.928-4.722c13.419,3.316,17.547,16.821,17.709,17.388c1.231-0.008,7.076-0.179,11.782-4.838
		c5.596-5.54,4.971-12.864,4.872-13.829c9.825,2.339,19.839-0.408,25.98-7.333C118.142,9.475,118.81,2.57,118.926,0.018z"/>
	<path fill="#DEDEDE" d="M164.449,283.482c-26.125,0-52.25,0-78.374,0c0.073-9.883,0.145-19.765,0.218-29.648
		c18.472,0,36.943,0,55.415,0c4.493-13.861,11.868-30.804,24.212-47.988c5.716-7.958,22.636-30.081,52.631-48.195
		c13.579-8.201,25.996-13.259,35.201-16.403c0-18.296,0-36.593,0-54.889c9.916,0,19.832,0,29.748,0c0,26.041,0,52.083,0,78.124
		c-1.895,0.094-10.705,0.733-17.31,7.981c-9.059,9.94-5.611,23.141-5.366,24.019c-1.496-0.135-6.63-0.411-11.459,2.999
		c-6.754,4.769-7.18,12.698-7.215,13.668c1.567,0.444,11.51,3.44,16.007,13.333c4.321,9.507,1.836,21.476-6.336,28.333
		c-8.927,7.491-19.97,4.964-20.953,4.722c-13.435-3.316-17.567-16.821-17.73-17.388c-1.232,0.008-7.085,0.179-11.796,4.838
		c-5.603,5.54-4.977,12.864-4.878,13.829c-9.837-2.339-19.863,0.408-26.011,7.333C165.235,274.025,164.566,280.93,164.449,283.482z"
		/>
</g>
<g id="c6">
	<path fill="#58585A" d="M57.849,145.123c46.325-23.488,79.671-60.865,95.288-101.302H283.5V29.648h-29.737V0h-14.174v29.648
		h-28.261V0h-14.174v29.648h-55.395v0h-0.185c-11.794,40.898-43.736,79.676-89.987,103.127c-7.2,3.651-14.495,6.797-21.832,9.46
		v5.66v9.085v40.144H0.018v14.173h95.703h12.753h4.259c20.621-37.564,54.516-71.299,98.596-94.317v-5.402v-10.149V86.341h29.547
		v45.021c-5.101,2.11-10.175,4.429-15.207,6.98c-46.325,23.488-79.671,60.865-95.288,101.302H0.018v14.173h29.737v29.648h14.174
		v-29.648h28.26v29.648h14.174v-29.648h51.766v0h3.814c11.794-40.898,43.736-79.676,89.987-103.127
		c7.2-3.65,14.495-6.796,21.832-9.459v-3.126v-11.61V86.341H283.5V72.168h-95.703h-15.081h-1.931
		c-20.621,37.564-54.516,71.299-98.596,94.317v6.024v9.527v15.088h-28.26v-45.546C48.597,149.61,53.24,147.46,57.849,145.123z
		 M86.364,174.584c40.252-22.637,72.095-53.664,93.386-88.243h17.404v22.54c-40.252,22.637-72.095,53.664-93.386,88.243H86.364
		V174.584z"/>
</g>
<g id="c2">
	<rect x="43.893" y="253.817" fill="#303032" width="28.237" height="29.648"/>
	<path fill="#303032" d="M43.893,151.511c0,15.182,0,30.364,0,45.546c9.422,0,18.843,0,28.265,0c0-10.213,0-20.426,0-30.639
		c14.783-7.553,35.203-20.371,54.795-38.583c21.978-20.43,35.081-40.369,43.816-55.735c37.577,0,75.154,0,112.732,0
		c0-9.449,0-18.898,0-28.346c-43.461,0-86.922,0-130.383,0c-7.347,18.202-16.072,31.844-22.848,41.045
		c-22.13,30.053-47.847,45.859-59.946,53.134C59.824,144.246,50.556,148.634,43.893,151.511z"/>
	<rect x="211.261" fill="#303032" width="28.327" height="29.648"/>
	<path fill="#303032" d="M0.205,211.297c0,9.449,0,18.898,0,28.346c43.418,0,86.837,0,130.255,0
		c3.696-9.594,9.85-22.228,19.727-36.511c15.482-22.387,32.087-36.093,41.625-43.436c11.016-8.481,27.34-19.337,49.051-28.335
		c0-15.007,0-30.014,0-45.021c-9.841,0-19.682,0-29.523,0c0,10.213,0,20.426,0,30.639c-15.181,7.883-27.199,16.099-36.038,22.838
		c-22.601,17.232-36.586,34.085-41.196,39.83c-9.674,12.056-16.573,23.185-21.28,31.65C75.286,211.297,37.746,211.297,0.205,211.297
		z"/>
</g>
<g id="c1">
	<path fill="#303032" d="M28.342,0.014c-0.003,2.275-0.275,5.516-1.521,9.161c-1.842,5.391-4.898,8.989-6.775,10.883
		c-1.892,1.879-5.487,4.937-10.874,6.78c-3.642,1.247-6.881,1.519-9.154,1.522c0,30.218,0,60.436,0,90.654
		c2.55-0.117,9.45-0.785,15.322-6c6.92-6.146,9.665-16.167,7.328-26c0.757,0.043,10.36,0.43,15.655-7
		c2.723-3.821,2.994-7.868,2.998-9.667c-1.65-0.477-11.699-3.557-15.988-13.333c-2.414-5.504-1.876-10.559-1.665-12.333
		c0.902-7.593,5.035-12.564,6.662-14.333c1.768-1.628,6.735-5.764,14.322-6.667c1.773-0.211,6.824-0.75,12.324,1.667
		c9.769,4.292,12.847,14.349,13.323,16c1.798-0.004,5.841-0.275,9.659-3c7.424-5.299,7.038-14.909,6.995-15.667
		c9.825,2.339,19.839-0.408,25.98-7.333c5.211-5.876,5.879-12.781,5.995-15.333C88.732,0.014,58.537,0.014,28.342,0.014z"/>
	<path fill="#303032" d="M255.158,283.478c0.003-2.275,0.292-5.563,1.538-9.208c1.842-5.391,4.898-8.989,6.775-10.883
		c1.892-1.879,5.487-4.937,10.874-6.78c3.642-1.247,6.881-1.519,9.154-1.522c0-30.218,0-60.436,0-90.654
		c-2.55,0.117-9.45,0.785-15.322,6c-6.92,6.146-9.665,16.167-7.328,26c-0.757-0.043-10.36-0.43-15.655,7
		c-2.723,3.821-2.994,7.868-2.998,9.667c1.65,0.477,11.699,3.557,15.988,13.333c2.414,5.504,1.876,10.559,1.665,12.333
		c-0.902,7.593-5.035,12.564-6.662,14.333c-1.768,1.628-6.735,5.764-14.322,6.667c-1.773,0.211-6.824,0.75-12.324-1.667
		c-9.769-4.292-12.847-14.349-13.323-16c-1.798,0.004-5.798,0.337-9.659,3c-8.311,5.731-7.272,14.956-7.229,15.714
		c-9.825-2.339-19.736,0.293-25.877,7.218c-5.211,5.876-5.982,12.897-6.098,15.448C194.551,283.478,224.941,283.496,255.158,283.478
		z"/>
</g>
<g id="c7">
	<path fill="#58585A" d="M0.018,28.347c15.643,0,28.325-12.691,28.325-28.346H0.018V28.347z"/>
	<path fill="#58585A" d="M283.482,255.118c-15.643,0-28.325,12.691-28.325,28.346h28.325V255.118z"/>
</g>
</svg>
