<?xml version="1.0" encoding="utf-8"?>
<!-- Generator: Adobe Illustrator 22.0.0, SVG Export Plug-In . SVG Version: 6.00 Build 0)  -->
<svg version="1.1" xmlns="http://www.w3.org/2000/svg" xmlns:xlink="http://www.w3.org/1999/xlink" x="0px" y="0px"
	 viewBox="0 0 283.5 283.5" enable-background="new 0 0 283.5 283.5" xml:space="preserve">
<g id="Capa_1">
	<path fill="#FFFFFF" stroke="#000000" stroke-width="1.6667" stroke-miterlimit="10" d="M283.522,237.131"/>
</g>
<g id="c4">
	<rect x="0.443" y="0.303" fill="#58585A" width="283.23" height="283.052"/>
</g>
<g id="c1">
	<g>
		<path fill="#303032" d="M283.673,283.355v-46.027c-15.342,15.342-30.685,30.685-46.027,46.027H283.673z"/>
		<path fill="#303032" d="M0.443,283.355h46.027c-15.342-15.342-30.685-30.685-46.027-46.027V283.355z"/>
		<path fill="#303032" d="M237.645,0.303c15.342,15.342,30.685,30.685,46.027,46.027V0.303H237.645z"/>
		<path fill="#303032" d="M0.443,46.33C15.786,30.988,31.128,15.645,46.471,0.303H0.443V46.33z"/>
	</g>
</g>
<g id="c2">
	<g>
		<path fill="#DEDEDE" d="M142.366,283.427c31.773-0.068,63.547-0.137,95.32-0.205c-12.038-14.908-26.328-30.855-43.174-46.984
			c-10.938-10.473-21.704-19.825-32.044-28.155c-3.159,4.413-6.318,8.826-9.476,13.238c-3.628,5.069-7.256,10.137-10.885,15.206
			c-0.005,0-0.01,0-0.016,0c-3.628-5.069-7.256-10.137-10.885-15.206c-3.159-4.413-6.318-8.826-9.476-13.238
			c-10.34,8.33-21.106,17.683-32.044,28.155c-16.846,16.129-31.136,32.076-43.174,46.984c31.773,0.068,63.547,0.137,95.32,0.205
			v0.001c0.089,0,0.178,0,0.267,0C142.187,283.428,142.276,283.428,142.366,283.427z"/>
		<path fill="#DEDEDE" d="M142.366-0.035c31.773,0.068,63.547,0.137,95.32,0.205c-12.038,14.908-26.328,30.855-43.174,46.984
			c-10.938,10.473-21.704,19.825-32.044,28.155c-3.159-4.413-6.318-8.826-9.476-13.238c-3.628-5.069-7.256-10.137-10.885-15.206l0,0
			c-0.005,0-0.01,0-0.016,0c-3.628,5.069-7.256,10.137-10.885,15.206c-3.159,4.413-6.318,8.826-9.476,13.238
			c-10.34-8.33-21.106-17.683-32.044-28.155C72.839,31.025,58.549,15.078,46.511,0.17c31.773-0.068,63.547-0.137,95.32-0.205v-0.001
			c0.089,0,0.178,0,0.267,0.001C142.187-0.036,142.276-0.035,142.366-0.035z"/>
		<path fill="#DEDEDE" d="M283.789,141.34c-0.068-31.773-0.137-63.547-0.205-95.32c-14.908,12.038-30.855,26.328-46.984,43.174
			c-10.473,10.938-19.825,21.704-28.155,32.044c4.413,3.159,8.826,6.318,13.238,9.476c5.069,3.628,10.137,7.256,15.206,10.885l0,0
			c0,0.005,0,0.01,0,0.016c-5.069,3.628-10.137,7.256-15.206,10.885c-4.413,3.159-8.826,6.318-13.238,9.476
			c8.33,10.34,17.683,21.106,28.155,32.044c16.129,16.846,32.076,31.136,46.984,43.174c0.068-31.773,0.137-63.547,0.205-95.32h0.001
			c0-0.089,0-0.178,0-0.267S283.79,141.429,283.789,141.34z"/>
		<path fill="#DEDEDE" d="M0.327,141.34c0.068-31.773,0.137-63.547,0.205-95.32C15.44,58.058,31.387,72.348,47.516,89.195
			c10.473,10.938,19.825,21.704,28.155,32.044c-4.413,3.159-8.826,6.318-13.238,9.476c-5.069,3.628-10.137,7.256-15.206,10.885l0,0
			c0,0.005,0,0.01,0,0.016c5.069,3.628,10.137,7.256,15.206,10.885c4.413,3.159,8.826,6.318,13.238,9.476
			c-8.33,10.34-17.683,21.106-28.155,32.044c-16.129,16.846-32.076,31.136-46.984,43.174c-0.068-31.773-0.137-63.547-0.205-95.32
			H0.326c0-0.089,0-0.178,0-0.267S0.326,141.429,0.327,141.34z"/>
	</g>
</g>
<g id="c3">
	<circle fill="#303032" cx="141.75" cy="141.75" r="30.095"/>
</g>
</svg>
