<?xml version="1.0" encoding="utf-8"?>
<!-- Generator: Adobe Illustrator 22.0.0, SVG Export Plug-In . SVG Version: 6.00 Build 0)  -->
<svg version="1.1" xmlns="http://www.w3.org/2000/svg" xmlns:xlink="http://www.w3.org/1999/xlink" x="0px" y="0px"
	 viewBox="0 0 283.5 283.5" enable-background="new 0 0 283.5 283.5" xml:space="preserve">
<g id="Capa_1">
</g>
<g id="c1">
	<path fill="#58585A" d="M0,0c33.071,0,66.142,0,99.213,0c28.346,47.244,56.693,94.488,85.039,141.732
		c-61.417,0-122.835,0-184.252,0C0,94.488,0,47.244,0,0z"/>
</g>
<g id="c2">
	<polygon fill="#DEDEDE" points="99.213,0 184.252,141.732 283.465,141.732 283.5,0 	"/>
</g>
<g id="c3">
	<path fill="#DEDEDE" d="M0,141.732c61.417,0,122.835,0,184.252,0c-28.346,47.244-56.693,94.488-85.039,141.732
		c-33.071,0-66.142,0-99.213,0C0,236.22,0,188.976,0,141.732z"/>
</g>
<g id="c4">
	<path fill="#58585A" d="M184.27,141.732c-28.346,47.244-56.693,94.488-85.039,141.732c61.417,0,122.835,0,184.252,0
		c0-47.244,0-94.488,0-141.732C250.411,141.732,217.341,141.732,184.27,141.732z"/>
</g>
</svg>
