<?xml version="1.0" encoding="utf-8"?>
<!-- Generator: Adobe Illustrator 22.0.0, SVG Export Plug-In . SVG Version: 6.00 Build 0)  -->
<svg version="1.1" xmlns="http://www.w3.org/2000/svg" xmlns:xlink="http://www.w3.org/1999/xlink" x="0px" y="0px"
	 viewBox="0 0 283.5 283.5" enable-background="new 0 0 283.5 283.5" xml:space="preserve">
<g id="c5">
	<g>
		<g>
			<path fill="#DEDEDE" d="M179.893,97.767C114.856,134.125,70.884,203.66,70.884,283.465H88.6
				c0-69.565,36.45-130.614,91.292-165.097V97.767z"/>
			<path fill="#DEDEDE" d="M226.789,96.961c17.94-5.446,36.974-8.378,56.693-8.378V70.866c-19.633,0-38.644,2.665-56.693,7.647
				V96.961z"/>
		</g>
		<path fill="#DEDEDE" d="M132.812,179.875c15.694,0,31.387,0,47.081,0c0-15.694,0-31.389,0-47.083
			c-10.923,7.559-23.427,17.902-35.385,31.873C140.075,169.843,136.2,174.957,132.812,179.875z"/>
		<path fill="#DEDEDE" d="M256.751,115.47c-7.43,1.174-14.161,2.743-20.113,4.442c0,38.927,0,77.854,0,116.781
			c-38.931,0-77.862,0-116.792,0c-2.102,7.384-4.037,16.067-5.242,25.874c-0.935,7.605-1.276,14.623-1.272,20.897
			c2.288,0,4.576,0,6.864,0c0.621-1.966,2.369-6.578,6.917-10.482c4.815-4.134,9.972-5.072,12-5.333c-0.963-1.699-2.205-4.45-2.5-8
			c-0.641-7.728,3.698-13.326,4.855-14.73c1.919,3.368,4.934,7.928,9.478,12.564c3.052,3.113,7.445,7.595,14.5,10.833
			c8.074,3.705,15.692,3.973,20.5,3.667c4.408-0.161,7.217-1.456,9-2.667c1.985-1.348,3.001-2.799,6-4.167
			c1.483-0.676,2.904-1.324,4.833-1.333c3.3-0.016,5.727,1.877,7.167,3c1.093,0.853,2.883,2.479,4.333,5.167
			c10.867,0,21.734,0,32.601,0c0.002,0.002,0.005,0.008,0.007,0.01c3.537-10.336,11.713-18.513,22.049-22.05
			c-0.002-0.002-0.006-0.006-0.008-0.008c0-10.867,0-21.734,0-32.601c-2.688-1.451-4.314-3.24-5.167-4.333
			c-1.123-1.44-3.016-3.867-3-7.167c0.009-1.929,0.657-3.35,1.333-4.833c1.367-2.999,2.818-4.015,4.167-6
			c1.211-1.783,2.505-4.592,2.667-9c0.306-4.808,0.039-12.426-3.667-20.5c-3.238-7.055-7.72-11.448-10.833-14.5
			c-4.636-4.544-9.196-7.559-12.564-9.478c1.404-1.158,7.003-5.497,14.73-4.855c3.55,0.295,6.301,1.537,8,2.5
			c0.261-2.028,1.2-7.185,5.333-12c3.904-4.548,8.516-6.296,10.482-6.917c0-2.288,0-4.576,0-6.864
			C275.639,113.382,266.642,113.907,256.751,115.47z M164.945,251.816c3.763,1.254,8.153,2.854,12.25,2.417
			c0.912-0.097,2.385-0.255,4.125-1c1.794-0.768,1.942-1.336,3.458-1.917c2.588-0.992,4.979-0.418,5.333-0.333
			c0.886,0.212,3.657,0.875,4.833,3.333c1.561,3.263-1.192,6.823-1.333,7c-2.131,2.678-5.45,3.046-7.667,3.292
			c-3.944,0.437-6.95-0.562-11-1.958c-5.006-1.726-8.603-3.848-10.167-4.833c-2.926-1.843-6.953-4.798-11-9.333
			C158.52,249.742,162.31,250.938,164.945,251.816z M257.761,164.833c0.985,1.564,3.108,5.16,4.833,10.167
			c1.396,4.05,2.395,7.056,1.958,11c-0.246,2.217-0.613,5.536-3.292,7.667c-0.177,0.141-3.737,2.895-7,1.333
			c-2.458-1.176-3.121-3.947-3.333-4.833c-0.085-0.354-0.659-2.745,0.333-5.333c0.581-1.516,1.148-1.665,1.917-3.458
			c0.745-1.74,0.903-3.213,1-4.125c0.437-4.097-1.163-8.487-2.417-12.25c-0.878-2.635-2.074-6.425-3.333-11.167
			C252.962,157.881,255.918,161.907,257.761,164.833z"/>
		<path fill="#DEDEDE" d="M29.254,20.022c2.244,2.41,5.775,5.733,10.746,8.728c4.919,2.963,8.894,4.229,14.75,6
			c3.823,1.156,9.149,2.511,15.75,2.75c3.997,0.145,5.625-0.223,7-1.25c2.881-2.152,4.329-6.958,2.5-10.5
			c-0.717-1.389-1.771-2.258-2.5-2.75c1.039-0.894,2.791-2.177,5.25-3c1.686-0.564,6.312-1.786,11.25,0.5
			c5.876,2.72,7.716,8.333,8,9.25c1.48-1.672,3.549-3.798,6.25-6c3.359-2.737,5.759-4.694,9.5-5.75
			c1.852-0.523,4.896-1.383,8.5-0.25c3.811,1.198,5.97,3.907,6.75,5c1.503-1.48,3.805-3.36,7-4.75c7.059-3.071,13.634-1.64,16-1
			c-1.388,2.816-3.549,6.73-6.75,11c-2.18,2.908-11.008,14.21-27.25,22c-3.414,1.637-10.58,5.008-20.5,6.5
			c-17.04,2.563-31.091-2.088-38.5-5.25c-0.072,0.142-0.182,0.405-0.188,0.75c-0.007,0.482,0.194,0.832,0.283,0.968
			c7.135,7.073,14.27,14.146,21.405,21.22c1.043-0.74,2.594-1.692,4.625-2.438c1.247-0.458,3.374-1.219,6.006-1.177
			c1.184,0.019,5.263,0.244,8.244,2.865c3.557,3.127,4.634,8.859,2.75,14.375c1.357,0.667,4.24,2.339,5.875,5.688
			c2.318,4.747,1.164,10.894-2.929,15.554l0,0l0,0c-4.659,4.093-10.806,5.246-15.554,2.929c-3.349-1.635-5.021-4.518-5.688-5.875
			c-5.516,1.884-11.248,0.807-14.375-2.75c-2.621-2.981-2.846-7.06-2.865-8.244c-0.042-2.632,0.719-4.759,1.177-6.006
			c0.746-2.031,1.697-3.582,2.438-4.625c-7.073-7.135-14.146-14.27-21.22-21.405c-0.136-0.089-0.486-0.29-0.968-0.283
			c-0.345,0.005-0.608,0.115-0.75,0.188c3.162,7.409,7.813,21.46,5.25,38.5c-1.492,9.919-4.863,17.086-6.5,20.5
			c-7.79,16.242-19.092,25.07-22,27.25c-4.27,3.201-8.184,5.362-11,6.75c-0.64-2.366-2.071-8.941,1-16c1.39-3.195,3.27-5.497,4.75-7
			c-1.093-0.78-3.802-2.939-5-6.75c-1.133-3.604-0.273-6.648,0.25-8.5c1.056-3.741,3.013-6.141,5.75-9.5
			c2.201-2.701,4.328-4.77,6-6.25c-0.917-0.284-6.53-2.124-9.25-8c-2.286-4.938-1.064-9.564-0.5-11.25
			c0.823-2.459,2.106-4.211,3-5.25c0.492,0.729,1.361,1.783,2.75,2.5c3.542,1.829,8.348,0.381,10.5-2.5
			c1.027-1.375,1.395-3.003,1.25-7c-0.239-6.601-1.594-11.927-2.75-15.75c-1.771-5.856-3.037-9.831-6-14.75
			c-2.995-4.971-6.318-8.502-8.728-10.746c-0.001-0.001-0.002-0.002-0.002-0.003c-5.696,3.909-12.589,6.2-20.02,6.2
			c0,36.35,0,72.7,0,109.049c0,7.587,0,15.175,0,22.762c25.475,0,50.95,0,76.425,0c6.36-11.295,14.68-23.936,25.557-36.815
			c22.56-26.71,46.992-43.634,65.262-54.01c0-25.473,0-50.946,0-76.419C123.325,0,79.388,0,35.451,0
			c0,7.429-2.29,14.321-6.198,20.017C29.253,20.019,29.254,20.02,29.254,20.022z"/>
	</g>
	
		<rect x="0.018" y="269.291" transform="matrix(6.123234e-17 -1 1 6.123234e-17 -269.2736 283.4823)" fill="#DEDEDE" width="14.173" height="14.173"/>
	
		<rect x="25.388" y="247.89" transform="matrix(6.123234e-17 -1 1 6.123234e-17 -222.502 283.4823)" fill="#DEDEDE" width="10.205" height="10.205"/>
	
		<rect x="269.309" y="0" transform="matrix(-9.201991e-11 1 -1 -9.201991e-11 283.4823 -269.3091)" fill="#DEDEDE" width="14.173" height="14.173"/>
	
		<rect x="247.908" y="25.37" transform="matrix(-9.144259e-11 1 -1 -9.144259e-11 283.4823 -222.5375)" fill="#DEDEDE" width="10.205" height="10.205"/>
	<path fill="#DEDEDE" d="M114.895,212.598c1.252-2.973,2.645-6.061,4.198-9.239c1.85-3.788,3.739-7.323,5.618-10.603
		c22.688,0,45.375,0,68.063,0c0-64.252,0-128.504,0-192.756c6.614,0,13.228,0,19.843,0c0,70.866,0,141.732,0,212.598
		C180.042,212.598,147.469,212.598,114.895,212.598z"/>
	<path fill="#DEDEDE" d="M25.53,283.465c11.102,0,22.205,0,33.307,0c-0.004-8.071,0.425-17.109,1.6-26.912
		c1.335-11.141,3.377-21.124,5.624-29.781c-22.014,0-44.029,0-66.043,0c0,10.394,0,20.787,0,31.181c4.724,0,9.449,0,14.173,0
		c0-7.087,0-14.173,0-21.26c10.866,0,21.732,0,32.598,0c0,10.866,0,21.732,0,32.598c-7.087,0-14.173,0-21.26,0
		C25.53,274.016,25.53,278.74,25.53,283.465z"/>
	<path fill="#DEDEDE" d="M283.482,25.512c0,11.102,0,22.205,0,33.307c-8.071-0.004-17.109,0.425-26.912,1.6
		c-11.141,1.335-21.124,3.377-29.781,5.624c0-22.014,0-44.029,0-66.043c10.394,0,20.787,0,31.181,0c0,4.724,0,9.449,0,14.173
		c-7.087,0-14.173,0-21.26,0c0,10.866,0,21.732,0,32.598c10.866,0,21.732,0,32.598,0c0-7.087,0-14.173,0-21.26
		C274.033,25.512,278.758,25.512,283.482,25.512z"/>
	<path fill="#DEDEDE" d="M0.018,212.598c0-6.614,0-13.228,0-19.843c25.965,0,51.931,0,77.896,0
		c-1.412,3.198-2.812,6.571-4.176,10.116c-1.284,3.34-2.442,6.587-3.487,9.726C46.84,212.598,23.429,212.598,0.018,212.598z"/>
</g>
<g id="c6">
	<path fill="#303032" d="M190.184,192.756h2.589v-68.072v-13.748V91.137v-2.555V77.889V0h-12.881v84.09
		c-40.934,21.312-74.484,54.851-95.796,95.785H0.018v12.881h77.896c-2.855,6.46-5.416,13.079-7.663,19.843H0.018v14.173h66.043
		c-4.71,18.111-7.224,37.108-7.224,56.693h12.047c0-79.803,43.973-149.331,109.009-185.69v20.598
		C125.052,152.856,88.6,213.901,88.6,283.465h12.047v0c0-19.79,3.15-38.844,8.966-56.693h103.002h4.235h2.852h7.087V109.594
		c17.849-5.816,36.903-8.964,56.693-8.964h0V88.583c-19.721,0-38.752,2.942-56.693,8.39v-18.46
		c18.049-4.982,37.059-7.647,56.693-7.647V58.819c-19.584,0-38.582,2.509-56.693,7.218V0h-14.173v101.871v13.002v97.726h-97.721
		c2.877-6.836,6.161-13.459,9.816-19.843h55.182H190.184z M132.812,179.875c12.686-18.419,28.662-34.396,47.081-47.083v47.083
		H132.812z"/>
</g>
<g id="c2">
	<path fill="#303032" d="M14.191,257.97H0.018v11.339h14.173v14.173H25.53v-14.173h21.26v-32.598H14.191V257.97z M35.592,247.908
		v10.205H25.388v-10.205H35.592z"/>
	<path fill="#303032" d="M269.309,25.53h14.173V14.191h-14.173V0.018l-11.339,0v14.173h-21.26v32.598h32.598V25.53z M247.908,35.592
		V25.388h10.205v10.205H247.908z"/>
</g>
<g id="c1">
	<path fill="#58585A" d="M167.262,76.419c-37.967,21.359-69.461,52.858-90.819,90.825H0.018v12.631h69.805h11.695h2.587
		c21.312-40.933,54.854-74.483,95.788-95.794v-0.459V69.799V0h-12.631V76.419z"/>
	<path fill="#58585A" d="M226.789,109.591v5.892v7.595v103.695H121.434c-2.222,0-4.444,0-6.667,0c-1.718,0-3.436,0-5.154,0
		c-2.961,9.112-5.763,20.152-7.423,32.843c-1.137,8.693-1.548,16.707-1.543,23.85v0h12.756v0c0-16.221,2.273-31.912,6.515-46.772
		h116.792v-4.961v-4.961v-106.86c14.86-4.245,30.548-6.526,46.772-6.526h0V100.63h0C263.693,100.63,244.638,103.775,226.789,109.591
		z"/>
</g>
<g id="c7">
	<path fill="#58585A" d="M186.018,264.607c-3.944,0.437-6.95-0.562-11-1.958c-5.006-1.726-8.603-3.848-10.167-4.833
		c-2.926-1.843-6.953-4.798-11-9.333c4.742,1.26,8.532,2.455,11.167,3.333c3.763,1.254,8.153,2.854,12.25,2.417
		c0.912-0.097,2.385-0.255,4.125-1c1.794-0.768,1.942-1.336,3.458-1.917c2.588-0.992,4.979-0.418,5.333-0.333
		c0.886,0.212,3.657,0.875,4.833,3.333c1.561,3.263-1.192,6.823-1.333,7C191.553,263.994,188.234,264.362,186.018,264.607z"/>
	<path fill="#58585A" d="M264.625,186c0.437-3.944-0.562-6.95-1.958-11c-1.726-5.006-3.848-8.603-4.833-10.167
		c-1.843-2.926-4.798-6.953-9.333-11c1.26,4.742,2.455,8.532,3.333,11.167c1.254,3.763,2.854,8.153,2.417,12.25
		c-0.097,0.912-0.255,2.385-1,4.125c-0.768,1.794-1.336,1.942-1.917,3.458c-0.992,2.588-0.418,4.979-0.333,5.333
		c0.212,0.886,0.875,3.657,3.333,4.833c3.263,1.561,6.823-1.192,7-1.333C264.012,191.536,264.379,188.217,264.625,186z"/>
	<path fill="#303032" d="M0.018,0v21.26c11.741,0,21.26-9.518,21.26-21.26H0.018z"/>
	<path fill="#303032" d="M283.482,283.465v-21.26c-11.741,0-21.26,9.518-21.26,21.26H283.482z"/>
</g>
<g id="c8">
	<path fill="#303032" d="M120.268,283.482c0.621-1.966,2.369-6.578,6.917-10.482c4.815-4.134,9.972-5.072,12-5.333
		c-0.963-1.699-2.205-4.45-2.5-8c-0.641-7.728,3.698-13.326,4.855-14.73c1.919,3.368,4.934,7.928,9.478,12.564
		c3.052,3.113,7.445,7.595,14.5,10.833c8.074,3.705,15.692,3.972,20.5,3.667c4.408-0.161,7.217-1.456,9-2.667
		c1.985-1.348,3.001-2.799,6-4.167c1.483-0.676,2.904-1.324,4.833-1.333c3.3-0.016,5.727,1.877,7.167,3
		c1.093,0.853,2.883,2.479,4.333,5.167c10.867,0,21.734,0,32.601,0c-0.73,2.146-1.401,4.778-1.715,7.821
		c-0.134,1.299-0.188,2.524-0.187,3.662C205.455,283.482,162.862,283.482,120.268,283.482z"/>
	<path fill="#303032" d="M283.482,120.268c-1.966,0.621-6.578,2.369-10.482,6.917c-4.134,4.815-5.072,9.972-5.333,12
		c-1.699-0.963-4.45-2.205-8-2.5c-7.728-0.641-13.326,3.698-14.73,4.855c3.368,1.919,7.928,4.934,12.564,9.478
		c3.113,3.052,7.595,7.445,10.833,14.5c3.705,8.074,3.973,15.692,3.667,20.5c-0.161,4.408-1.456,7.217-2.667,9
		c-1.348,1.985-2.799,3.001-4.167,6c-0.676,1.483-1.324,2.904-1.333,4.833c-0.016,3.3,1.877,5.727,3,7.167
		c0.853,1.093,2.479,2.883,5.167,4.333c0,10.867,0,21.734,0,32.601c2.146-0.73,4.778-1.401,7.821-1.715
		c1.299-0.134,2.524-0.188,3.662-0.187C283.482,205.455,283.482,162.862,283.482,120.268z"/>
	<path fill="#303032" d="M140,18.018c-3.195,1.39-5.497,3.27-7,4.75c-0.78-1.093-2.939-3.802-6.75-5
		c-3.604-1.133-6.648-0.273-8.5,0.25c-3.741,1.056-6.141,3.013-9.5,5.75c-2.701,2.202-4.77,4.328-6.25,6
		c-0.284-0.917-2.124-6.53-8-9.25c-4.938-2.286-9.564-1.064-11.25-0.5c-2.459,0.823-4.211,2.106-5.25,3
		c0.729,0.492,1.783,1.361,2.5,2.75c1.829,3.542,0.381,8.348-2.5,10.5c-1.375,1.027-3.003,1.395-7,1.25
		c-6.601-0.239-11.927-1.594-15.75-2.75c-5.856-1.771-9.831-3.037-14.75-6c-4.971-2.995-8.502-6.318-10.746-8.728
		c-0.554,0.799-1.177,1.635-1.875,2.492c-0.765,0.941-1.524,1.788-2.254,2.548c-0.03,0.03-0.045,0.045-0.045,0.045l0.045-0.045
		c0,0-0.016,0.016-0.045,0.045c-0.759,0.73-1.607,1.489-2.548,2.254c-0.858,0.698-1.694,1.32-2.492,1.875
		c2.41,2.244,5.733,5.775,8.728,10.746c2.963,4.919,4.229,8.894,6,14.75c1.156,3.823,2.511,9.149,2.75,15.75
		c0.145,3.997-0.223,5.625-1.25,7c-2.152,2.881-6.958,4.329-10.5,2.5c-1.389-0.717-2.258-1.771-2.75-2.5
		c-0.894,1.039-2.177,2.791-3,5.25c-0.564,1.686-1.786,6.312,0.5,11.25c2.72,5.876,8.333,7.716,9.25,8
		c-1.672,1.48-3.799,3.549-6,6.25c-2.737,3.359-4.694,5.759-5.75,9.5c-0.523,1.852-1.383,4.896-0.25,8.5
		c1.198,3.811,3.907,5.97,5,6.75c-1.48,1.503-3.36,3.805-4.75,7c-3.071,7.059-1.64,13.634-1,16c2.816-1.388,6.73-3.549,11-6.75
		c2.908-2.18,14.21-11.008,22-27.25c1.637-3.414,5.008-10.581,6.5-20.5c2.563-17.04-2.088-31.091-5.25-38.5
		c0.142-0.072,0.405-0.182,0.75-0.188c0.482-0.007,0.832,0.194,0.968,0.283c7.073,7.135,14.146,14.27,21.22,21.405
		c-0.74,1.043-1.692,2.594-2.438,4.625c-0.458,1.247-1.219,3.374-1.177,6.006c0.019,1.184,0.244,5.263,2.865,8.244
		c3.127,3.557,8.859,4.634,14.375,2.75c0.667,1.357,2.339,4.24,5.688,5.875c4.747,2.317,10.894,1.164,15.554-2.929l0,0l0,0
		c4.093-4.659,5.246-10.806,2.929-15.554c-1.635-3.349-4.518-5.021-5.875-5.688c1.884-5.516,0.807-11.248-2.75-14.375
		c-2.981-2.621-7.06-2.846-8.244-2.865c-2.632-0.042-4.759,0.719-6.006,1.177c-2.031,0.746-3.582,1.697-4.625,2.438
		c-7.135-7.073-14.27-14.146-21.405-21.22c-0.089-0.136-0.29-0.486-0.283-0.968c0.005-0.345,0.115-0.608,0.188-0.75
		c7.409,3.162,21.46,7.813,38.5,5.25c9.92-1.492,17.086-4.863,20.5-6.5c16.242-7.79,25.07-19.092,27.25-22
		c3.201-4.27,5.362-8.184,6.75-11C153.634,16.378,147.059,14.947,140,18.018z"/>
</g>
<g id="c9">
	<path fill="#58585A" d="M21.278,0.018c0,11.741-9.518,21.26-21.26,21.26v14.173c19.569,0,35.433-15.864,35.433-35.433H21.278z"/>
	<path fill="#58585A" d="M262.222,283.482c0-11.741,9.518-21.26,21.26-21.26v-14.173c-19.569,0-35.433,15.864-35.433,35.433H262.222
		z"/>
</g>
</svg>
