<?xml version="1.0" encoding="utf-8"?>
<!-- Generator: Adobe Illustrator 22.0.0, SVG Export Plug-In . SVG Version: 6.00 Build 0)  -->
<svg version="1.1" xmlns="http://www.w3.org/2000/svg" xmlns:xlink="http://www.w3.org/1999/xlink" x="0px" y="0px"
	 viewBox="0 0 283.5 283.5" enable-background="new 0 0 283.5 283.5" xml:space="preserve">
<g id="Capa_1">
</g>
<g id="c3">
	<rect x="0.018" y="0.018" fill-rule="evenodd" clip-rule="evenodd" fill="#DEDEDE" width="283.465" height="283.465"/>
</g>
<g id="c2">
	<g>
		<path fill-rule="evenodd" clip-rule="evenodd" fill="#58585A" d="M24.712,50.455c17.809,17.864,39.452,19.429,44.406,19.661
			c-0.222-4.932-1.739-26.558-19.563-44.377C31.743,7.93,10.131,6.411,5.196,6.189C5.429,11.171,6.993,32.681,24.712,50.455z"/>
		<path fill-rule="evenodd" clip-rule="evenodd" fill="#58585A" d="M258.788,234.443c-17.809-17.864-39.452-19.429-44.406-19.661
			c0.222,4.932,1.739,26.558,19.563,44.377c17.814,17.809,39.425,19.328,44.36,19.55
			C278.071,273.726,276.507,252.216,258.788,234.443z"/>
	</g>
</g>
<g id="c1">
	<g>
		<path fill-rule="evenodd" clip-rule="evenodd" fill="#353333" d="M94.566,119.758c17.809,17.864,39.452,19.429,44.406,19.661
			c-0.222-4.932-1.739-26.558-19.563-44.377c-17.814-17.809-39.425-19.328-44.36-19.55C75.283,80.475,76.847,101.985,94.566,119.758
			z"/>
		<path fill-rule="evenodd" clip-rule="evenodd" fill="#353333" d="M144.656,139.419c4.935-0.222,26.547-1.741,44.36-19.55
			c17.823-17.819,19.341-39.445,19.563-44.377c-4.954,0.232-26.597,1.797-44.406,19.661
			C146.453,112.927,144.89,134.437,144.656,139.419z"/>
		<path fill-rule="evenodd" clip-rule="evenodd" fill="#353333" d="M188.848,164.792c-17.809-17.864-39.452-19.429-44.406-19.661
			c0.222,4.932,1.739,26.558,19.563,44.377c17.814,17.809,39.425,19.328,44.36,19.55
			C208.131,204.076,206.567,182.566,188.848,164.792z"/>
		<path fill-rule="evenodd" clip-rule="evenodd" fill="#353333" d="M138.758,145.131c-4.935,0.222-26.547,1.741-44.36,19.55
			c-17.823,17.819-19.341,39.445-19.563,44.377c4.954-0.232,26.597-1.797,44.406-19.661
			C136.961,171.623,138.524,150.114,138.758,145.131z"/>
	</g>
</g>
</svg>
