<?xml version="1.0" encoding="utf-8"?>
<!-- Generator: Adobe Illustrator 22.0.0, SVG Export Plug-In . SVG Version: 6.00 Build 0)  -->
<svg version="1.1" xmlns="http://www.w3.org/2000/svg" xmlns:xlink="http://www.w3.org/1999/xlink" x="0px" y="0px"
	 viewBox="0 0 283.5 283.5" enable-background="new 0 0 283.5 283.5" xml:space="preserve">
<g id="c5">
	<rect transform="matrix(-1.836970e-16 1 -1 -1.836970e-16 283.5 2.842171e-14)" fill="#DEDEDE" width="283.5" height="283.5"/>
</g>
<g id="c4">
	<path fill="#353333" d="M140.314,140.314C140.305,62.825,77.489,0.01,0,0C0.757,77.159,63.155,139.557,140.314,140.314z"/>
</g>
<g id="c3">
	<path fill="#353333" d="M140.314,143.186C140.305,220.675,77.489,283.49,0,283.5C0.757,206.341,63.155,143.943,140.314,143.186z"/>
</g>
<g id="c2">
	<path fill="#353333" d="M143.186,143.186c0.01,77.489,62.825,140.305,140.314,140.314
		C282.743,206.341,220.345,143.943,143.186,143.186z"/>
</g>
<g id="c1">
	<path fill="#353333" d="M143.186,140.314C143.195,62.825,206.011,0.01,283.5,0C282.743,77.159,220.345,139.557,143.186,140.314z"/>
</g>
</svg>
