<?xml version="1.0" encoding="utf-8"?>
<!-- Generator: Adobe Illustrator 22.0.0, SVG Export Plug-In . SVG Version: 6.00 Build 0)  -->
<svg version="1.1" xmlns="http://www.w3.org/2000/svg" xmlns:xlink="http://www.w3.org/1999/xlink" x="0px" y="0px"
	 viewBox="0 0 283.5 283.5" enable-background="new 0 0 283.5 283.5" xml:space="preserve">
<g id="Capa_1">
</g>
<g id="c5">
	<rect x="0.018" y="0.018" fill-rule="evenodd" clip-rule="evenodd" fill="#DEDEDE" width="283.465" height="283.465"/>
</g>
<g id="c4">
	<g>
		<path fill-rule="evenodd" clip-rule="evenodd" fill="#353333" d="M164.064,189.742c17.809,17.864,39.452,19.429,44.406,19.661
			c-0.222-4.932-1.739-26.558-19.563-44.377c-17.814-17.809-39.425-19.328-44.36-19.55
			C144.781,150.459,146.344,171.969,164.064,189.742z"/>
		<g>
			<path fill-rule="evenodd" clip-rule="evenodd" fill="#353333" d="M144.633,278.709c4.935-0.222,26.547-1.741,44.36-19.55
				c17.823-17.819,19.341-39.445,19.563-44.377c-4.954,0.232-26.597,1.797-44.406,19.661
				C146.43,252.216,144.867,273.726,144.633,278.709z"/>
			<path fill-rule="evenodd" clip-rule="evenodd" fill="#353333" d="M214.229,209.058c4.935-0.222,26.547-1.741,44.36-19.55
				c17.823-17.819,19.341-39.445,19.563-44.377c-4.954,0.232-26.597,1.797-44.406,19.661
				C216.026,182.566,214.463,204.076,214.229,209.058z"/>
			<path fill-rule="evenodd" clip-rule="evenodd" fill="#353333" d="M233.832,258.703c17.809,17.864,39.452,19.429,44.406,19.661
				c-0.222-4.932-1.739-26.558-19.563-44.377c-17.814-17.809-39.425-19.328-44.36-19.55
				C214.549,219.419,216.112,240.929,233.832,258.703z"/>
		</g>
	</g>
</g>
<g id="c3">
	<g>
		<path fill-rule="evenodd" clip-rule="evenodd" fill="#9D9FA2" d="M74.923,209.421c4.935-0.222,26.547-1.741,44.36-19.55
			c17.823-17.819,19.341-39.445,19.563-44.377c-4.954,0.232-26.597,1.797-44.406,19.661
			C76.72,182.928,75.156,204.438,74.923,209.421z"/>
		<g>
			<path fill-rule="evenodd" clip-rule="evenodd" fill="#9D9FA2" d="M94.525,259.065c17.809,17.864,39.452,19.429,44.406,19.661
				c-0.222-4.932-1.739-26.558-19.563-44.377c-17.814-17.809-39.425-19.328-44.36-19.55
				C75.242,219.782,76.806,241.292,94.525,259.065z"/>
			<path fill-rule="evenodd" clip-rule="evenodd" fill="#9D9FA2" d="M24.586,189.415c17.809,17.864,39.452,19.429,44.406,19.661
				c-0.222-4.932-1.739-26.558-19.563-44.377c-17.814-17.809-39.425-19.328-44.36-19.55C5.302,150.131,6.866,171.641,24.586,189.415
				z"/>
			<path fill-rule="evenodd" clip-rule="evenodd" fill="#9D9FA2" d="M5.155,278.381c4.935-0.222,26.547-1.741,44.36-19.55
				c17.823-17.819,19.341-39.444,19.563-44.377c-4.954,0.232-26.597,1.797-44.406,19.661C6.952,251.889,5.388,273.399,5.155,278.381
				z"/>
		</g>
	</g>
</g>
<g id="c2">
	<g>
		<path fill-rule="evenodd" clip-rule="evenodd" fill="#9D9FA2" d="M144.59,139.419c4.935-0.222,26.547-1.741,44.36-19.55
			c17.823-17.819,19.341-39.445,19.563-44.377c-4.954,0.232-26.597,1.797-44.406,19.661
			C146.387,112.927,144.824,134.437,144.59,139.419z"/>
		<path fill-rule="evenodd" clip-rule="evenodd" fill="#9D9FA2" d="M164.021,50.453c17.809,17.864,39.452,19.429,44.406,19.661
			c-0.222-4.932-1.739-26.558-19.563-44.377c-17.814-17.809-39.425-19.328-44.36-19.55
			C144.738,11.169,146.301,32.679,164.021,50.453z"/>
		<path fill-rule="evenodd" clip-rule="evenodd" fill="#9D9FA2" d="M214.272,70.116c4.935-0.222,26.547-1.741,44.36-19.55
			c17.823-17.819,19.341-39.445,19.563-44.377c-4.954,0.232-26.597,1.797-44.406,19.661
			C216.069,43.623,214.506,65.133,214.272,70.116z"/>
		<path fill-rule="evenodd" clip-rule="evenodd" fill="#9D9FA2" d="M233.875,119.76c17.809,17.864,39.452,19.429,44.406,19.661
			c-0.222-4.932-1.739-26.558-19.563-44.377c-17.814-17.809-39.425-19.328-44.36-19.55
			C214.592,80.477,216.155,101.987,233.875,119.76z"/>
	</g>
</g>
<g id="c1">
	<g>
		<path fill-rule="evenodd" clip-rule="evenodd" fill="#353333" d="M94.548,119.741c17.809,17.864,39.452,19.429,44.406,19.661
			c-0.222-4.932-1.739-26.558-19.563-44.377c-17.814-17.809-39.425-19.328-44.36-19.55C75.265,80.457,76.829,101.967,94.548,119.741
			z"/>
		<path fill-rule="evenodd" clip-rule="evenodd" fill="#353333" d="M74.946,70.096c4.935-0.222,26.547-1.741,44.36-19.55
			c17.823-17.819,19.341-39.445,19.563-44.377c-4.954,0.232-26.597,1.797-44.406,19.661C76.743,43.604,75.179,65.114,74.946,70.096z
			"/>
		<path fill-rule="evenodd" clip-rule="evenodd" fill="#353333" d="M24.695,50.437c17.809,17.864,39.452,19.429,44.406,19.661
			c-0.222-4.932-1.739-26.558-19.563-44.377C31.725,7.912,10.113,6.393,5.178,6.171C5.411,11.153,6.975,32.663,24.695,50.437z"/>
		<path fill-rule="evenodd" clip-rule="evenodd" fill="#353333" d="M5.264,139.404c4.935-0.222,26.547-1.741,44.36-19.55
			c17.823-17.819,19.341-39.445,19.563-44.377c-4.954,0.232-26.597,1.797-44.406,19.661C7.061,112.911,5.497,134.421,5.264,139.404z
			"/>
	</g>
</g>
</svg>
