<?xml version="1.0" encoding="utf-8"?>
<!-- Generator: Adobe Illustrator 22.0.0, SVG Export Plug-In . SVG Version: 6.00 Build 0)  -->
<svg version="1.1" xmlns="http://www.w3.org/2000/svg" xmlns:xlink="http://www.w3.org/1999/xlink" x="0px" y="0px"
	 viewBox="0 0 283.5 283.5" enable-background="new 0 0 283.5 283.5" xml:space="preserve">
<g id="Capa_1">
</g>
<g id="c5">
	<polygon fill="#58585A" points="0.009,226.807 -0.009,170.079 170.07,0 226.781,0.035 	"/>
	<polygon fill="#58585A" points="-0.009,56.693 -0.009,113.386 113.377,0 56.684,0 	"/>
</g>
<g id="c6">
	<polygon fill="#303032" points="0.009,56.693 0.009,0 56.702,0 	"/>
	<polygon fill="#303032" points="0.009,113.386 0.009,170.079 170.088,0 113.395,0 	"/>
	<polygon fill="#303032" points="0,226.736 0,283.429 283.465,-0.035 226.781,0.035 	"/>
</g>
<g id="c2">
	<polygon fill="#58585A" points="170.079,283.465 85.022,198.443 113.386,170.079 226.772,283.465 	"/>
	<polygon fill="#58585A" points="56.693,283.465 28.346,255.118 56.693,226.772 113.386,283.465 	"/>
	<polygon fill="#58585A" points="283.465,170.079 198.443,85.022 170.079,113.386 283.465,226.772 	"/>
	<polygon fill="#58585A" points="283.465,56.693 255.118,28.346 226.772,56.693 283.465,113.386 	"/>
</g>
<g id="c1">
	<polygon fill="#DEDEDE" points="283.5,283.465 226.772,283.429 113.386,170.043 170.079,113.35 283.465,226.736 	"/>
	<polygon fill="#DEDEDE" points="56.693,226.736 85.022,198.407 170.079,283.429 113.386,283.429 	"/>
	<polygon fill="#DEDEDE" points="28.346,255.083 0,283.429 56.693,283.429 	"/>
	<polygon fill="#DEDEDE" points="226.772,56.657 198.443,84.986 283.465,170.043 283.465,113.35 	"/>
	<polygon fill="#DEDEDE" points="255.118,28.311 283.465,-0.035 283.465,56.657 	"/>
</g>
</svg>
