<?xml version="1.0" encoding="utf-8"?>
<!-- Generator: Adobe Illustrator 22.0.0, SVG Export Plug-In . SVG Version: 6.00 Build 0)  -->
<svg version="1.1" xmlns="http://www.w3.org/2000/svg" xmlns:xlink="http://www.w3.org/1999/xlink" x="0px" y="0px"
	 viewBox="0 0 283.5 283.5" enable-background="new 0 0 283.5 283.5" xml:space="preserve">
<g id="Capa_1">
</g>
<g id="c4">
	<rect fill-rule="evenodd" clip-rule="evenodd" fill="#DEDEDE" width="283.5" height="283.5"/>
</g>
<g id="c3">
	<g>
		<path fill-rule="evenodd" clip-rule="evenodd" fill="#58585A" d="M283.071,161.303c-2.339,1.93-5.674,5.036-8.837,9.535
			c-2.503,3.56-2.73,4.91-5.046,7.71c-4.201,5.079-7.59,5.641-10.742,8.521c-3.026,2.765-6.274,8.069-6.079,19.317
			c10.285-0.072,20.571-0.143,30.856-0.215C283.173,191.215,283.122,176.259,283.071,161.303z"/>
		<path fill-rule="evenodd" clip-rule="evenodd" fill="#58585A" d="M161.246,283.171c1.93-2.34,5.035-5.676,9.532-8.84
			c3.559-2.503,4.908-2.731,7.707-5.048c5.077-4.202,5.639-7.593,8.518-10.746c2.764-3.027,8.066-6.277,19.31-6.081
			c-0.072,10.289-0.143,20.578-0.215,30.867C191.147,283.273,176.196,283.222,161.246,283.171z"/>
	</g>
</g>
<g id="c5">
	<path fill-rule="evenodd" clip-rule="evenodd" fill="#353333" d="M283.5,115.028c0-5.365,0-10.731,0-16.096
		c-8.921,0-17.841,0-26.762,0c-1.448-4.43-3.001-8.947-4.668-13.541c-2.903-8.004-5.924-15.622-9.002-22.847
		c-1.195,0.394-2.87,0.893-4.904,1.325c-2.775,0.591-5.29,0.861-8.433,1.009c-6.5,0.306-12.698-0.051-16.337-0.334
		c-5.557,6.448-11.114,12.896-16.67,19.345c0,2.335,0,4.669,0,7.004c-4.694-0.608-9.19,1.71-11.169,5.67
		c-2.47,4.942,0.292,9.819,0.5,10.173c0.722-1.228,3.782-6.118,9.502-7.338c1.277-0.272,4.443-0.947,7.269,0.765
		c0.595,0.361,1.982,1.316,3.233,3.738c3.402,6.587,2.501,17.642,2.286,19.99c-8.47-3.721-15.795-4.61-20.285-4.82
		c-16.496-0.771-28.601,6.049-33.276,8.782c-6.966,4.072-11.884,8.661-14.953,11.926c-3.263,3.07-7.851,7.99-11.921,14.958
		c-2.732,4.677-9.549,16.787-8.779,33.288c0.21,4.491,1.099,11.819,4.818,20.292c-2.348,0.216-13.399,1.117-19.983-2.287
		c-2.421-1.251-3.376-2.639-3.736-3.234c-1.712-2.827-1.037-5.994-0.765-7.272c1.219-5.722,6.108-8.784,7.335-9.506
		c-0.354-0.208-5.229-2.971-10.169-0.5c-3.958,1.98-6.275,6.478-5.668,11.173c-2.334,0-4.668,0-7.002,0
		c-6.446,5.559-12.892,11.118-19.338,16.676c0.282,3.64,0.64,9.84,0.333,16.343c-0.148,3.144-0.419,5.66-1.009,8.436
		c-0.433,2.034-0.931,3.709-1.325,4.905c7.222,3.079,14.837,6.101,22.839,9.005c4.592,1.667,9.107,3.22,13.536,4.669
		c0,8.924,0,17.848,0,26.772c5.363,0,10.727,0,16.09,0c0.016-9.424,0.031-18.848,0.047-28.273c4.091,0,8.182,0,12.273,0
		c-0.034,5.336-0.069,10.673-0.103,16.009c5.112-5.336,10.225-10.673,15.337-16.009c0.054,9.424,0.108,18.848,0.162,28.273
		c4.781,0,9.561,0,14.342,0c-1.111-3.554-3.975-14.385,1.5-24.604c3.821-7.131,11.694-13.946,15.67-12.34
		c1.304,0.527,1.924,1.852,4.334,2.501c0.627,0.169,3.101,0.84,5.324-0.309c3.292-1.701,4.477-6.552,3.238-10.086
		c-0.938-2.675-3.099-4.087-3.736-4.49c-5.378-3.407-12.514-0.89-17.996,1.043c-3.735,1.317-9.375,3.818-15.337,8.729
		c-6.668,0-13.336,0-20.005,0c0.278-3.299,0.556-6.598,0.834-9.896c-1.183-0.246-6.166-1.141-11.169,1.834
		c-5.858,3.484-7.147,9.542-7.335,10.506c-5.235-0.703-11.713-2.047-18.838-4.669c-8.914-3.281-15.874-7.472-20.838-11.006
		c-0.028-0.484-0.215-5.167,3.568-8.248c3.15-2.566,6.783-2.173,7.435-2.091c19.392,0.391,38.783,0.782,58.175,1.172
		c-1.667-2.668-3.334-5.336-5.001-8.005c-1.971-3.849-4.486-9.617-6.113-16.98c-0.821-3.712-1.652-7.537-1.555-12.537
		c0.198-10.217,4.141-17.499,7.127-23.013c3.52-6.501,7.514-11.206,10.418-14.214c3.007-2.906,7.71-6.901,14.21-10.423
		c5.512-2.987,12.792-6.931,23.005-7.129c4.998-0.097,8.821,0.734,12.532,1.555c7.36,1.628,13.126,4.144,16.974,6.116
		c2.667,1.668,5.335,3.335,8.002,5.003c-0.391-19.398-0.781-38.797-1.172-58.195c-0.082-0.652-0.475-4.287,2.09-7.438
		c3.08-3.784,7.761-3.597,8.245-3.569c3.533,4.965,7.722,11.928,11.003,20.845c2.621,7.127,3.965,13.608,4.668,18.844
		c-0.964,0.188-7.02,1.477-10.502,7.338c-2.974,5.005-2.079,9.99-1.834,11.173c3.298-0.278,6.595-0.556,9.893-0.834
		c0,6.671,0,13.341,0,20.012c-4.909,5.964-7.409,11.606-8.726,15.342c-1.933,5.484-4.449,12.623-1.043,18.003
		c0.403,0.637,1.814,2.799,4.488,3.737c3.533,1.239,8.382,0.054,10.083-3.239c1.149-2.224,0.478-4.699,0.309-5.326
		c-0.649-2.411-1.974-3.031-2.501-4.336c-1.605-3.978,5.208-11.854,12.336-15.676c10.215-5.477,21.042-2.613,24.595-1.501
		c0-4.782,0-9.565,0-14.347c-9.421-0.054-18.842-0.108-28.263-0.162c5.335-5.114,10.669-10.228,16.004-15.342
		c-5.335,0.034-10.669,0.069-16.004,0.103c0-4.092,0-8.185,0-12.277C264.658,115.06,274.079,115.044,283.5,115.028z"/>
</g>
<g id="c6">
	<path fill-rule="evenodd" clip-rule="evenodd" fill="#58585A" d="M283.409,283.166h0.091c-0.03-0.03-0.061-0.061-0.091-0.091
		V248.75c-6.621,0.96-13.242,1.92-19.864,2.88c-0.912-4.348-1.824-8.697-2.736-13.045c2.234-0.805,4.627-1.574,7.173-2.274
		c5.591-1.537,10.796-2.428,15.426-2.925v-13.733c-4.675-0.147-11.196,0.167-18.63,2.219c-9.632,2.658-16.664,7.092-20.911,10.271
		c-2.686-2.724-5.373-5.448-8.059-8.171c3.056-3.113,6.112-6.226,9.169-9.339c-6.446,0.278-12.892,0.556-19.338,0.834
		c0.118-0.454,1.433-5.905-2.334-10.173c-2.839-3.215-7.416-4.46-11.669-3.169c-2.867-4.008-2.708-9.438,0.333-13.174
		c3.21-3.943,8.895-5.098,13.503-2.668c0.242-1.828,1.439-12.219-5.835-21.012c-1.447-1.75-8.159-9.396-18.504-9.506
		c-3.483-0.037-6.322,0.791-8.169,1.501c-1.739-1.587-3.525-3.308-5.335-5.17c-2.268-2.333-4.318-4.627-6.168-6.837
		c-9.223-0.043-18.445-0.087-27.668-0.13c-1.401,1.361-2.802,2.721-4.203,4.082l-0.001-0.001c-0.015,0.015-0.03,0.031-0.045,0.046
		c-0.015,0.015-0.031,0.03-0.046,0.045l0.001,0.001c-1.36,1.401-2.72,2.803-4.081,4.204c0.043,9.226,0.087,18.452,0.13,27.678
		c2.209,1.85,4.503,3.902,6.835,6.17c1.861,1.81,3.581,3.597,5.168,5.336c-0.709,1.847-1.537,4.687-1.5,8.171
		c0.11,10.349,7.753,17.063,9.502,18.511c8.79,7.276,19.177,6.079,21.005,5.837c-2.429-4.609-1.275-10.297,2.667-13.508
		c3.735-3.042,9.163-3.201,13.17-0.334c-1.291,4.255-0.047,8.834,3.167,11.673c4.266,3.769,9.715,2.453,10.169,2.335
		c-0.278,6.448-0.556,12.896-0.834,19.345c3.112-3.057,6.224-6.115,9.335-9.172c2.723,2.687,5.446,5.375,8.169,8.062
		c-3.177,4.249-7.61,11.283-10.267,20.919c-2.051,7.437-2.365,13.96-2.218,18.637h13.729c0.497-4.632,1.388-9.839,2.924-15.432
		c0.699-2.547,1.469-4.94,2.273-7.175c4.347,0.912,8.694,1.824,13.04,2.737c-0.96,6.624-1.92,13.247-2.879,19.871h34.313
		c0.03,0.03,0.061,0.061,0.091,0.091V283.166z"/>
</g>
<g id="c2">
	<path fill-rule="evenodd" clip-rule="evenodd" fill="#58585A" d="M171.127,71.216c-0.67-1.819-2.315-5.68-8.002-11.507
		c-8.264-8.468-16.762-12.588-19.504-13.841c-7.056-3.226-12.888-4.334-14.837-4.669c-4.302-0.741-8.025-0.881-10.836-0.834
		c0.645-1.098,1.798-3.406,1.834-6.504c0.046-3.938-1.741-6.699-2.501-7.838c-0.65-0.975-2.244-3.3-5.335-4.836
		c-1.941-0.964-3.722-1.245-4.834-1.334c0.064,0.548,0.141,1.356,0.167,2.335c0.073,2.798,0.159,6.084-1.667,8.005
		c-0.729,0.767-1.184,0.707-2.834,1.501c-1.547,0.744-6.229,2.996-7.835,6.837c-0.868,2.077-0.528,3.94,0.167,7.671
		c0.807,4.336,1.916,6.11,2.728,8.758c2.369,7.722,0.646,17.755-5.062,23.427c-1.368,1.359-2.706,2.211-3.501,2.668
		c0.594-2.336,1.211-5.815,0.956-10.013c-0.352-5.8-2.187-9.977-3.624-13.167c-1.465-3.253-4.037-7.982-8.502-12.841
		c-2.389,3.502-4.779,7.004-7.168,10.506c-1.096-0.926-2.761-2.147-5.001-3.169c-1.431-0.652-3.773-1.693-7.002-1.834
		c-2.915-0.128-5.294,0.531-6.854,1.128c-0.016-0.016-0.033-0.033-0.049-0.049c-0.006,0.002-0.014,0.005-0.02,0.007l0,0l0,0.001h0
		c0.007,0.007,0.014,0.014,0.02,0.02c-0.006,0.014-0.011,0.031-0.017,0.046c-0.014,0.006-0.031,0.011-0.046,0.017
		c-0.007-0.007-0.014-0.014-0.02-0.02v0l-0.001,0l0,0c-0.002,0.006-0.005,0.014-0.007,0.02c0.016,0.016,0.033,0.033,0.049,0.049
		c-0.596,1.561-1.256,3.94-1.128,6.856c0.142,3.23,1.182,5.572,1.834,7.004c1.021,2.241,2.242,3.906,3.167,5.003
		c-3.501,2.39-7.002,4.781-10.502,7.171c4.857,4.466,9.585,7.04,12.836,8.505c3.19,1.437,7.365,3.273,13.163,3.625
		c4.197,0.255,7.674-0.363,10.009-0.957c-0.457,0.795-1.309,2.134-2.667,3.502c-5.67,5.711-15.7,7.434-23.419,5.064
		c-2.647-0.813-4.42-1.922-8.755-2.729c-3.73-0.695-5.592-1.035-7.668-0.167c-3.84,1.606-6.091,6.291-6.835,7.838
		c-0.793,1.65-0.734,2.106-1.5,2.835c-1.92,1.826-5.205,1.741-8.002,1.668c-0.979-0.026-1.786-0.102-2.334-0.167
		c0.089,1.113,0.369,2.894,1.334,4.836c1.535,3.092,3.86,4.686,4.834,5.336c1.138,0.76,3.898,2.548,7.835,2.501
		c3.096-0.036,5.404-1.189,6.501-1.834c-0.048,2.812,0.092,6.537,0.834,10.84c0.336,1.949,1.443,7.783,4.668,14.842
		c1.253,2.743,5.371,11.244,13.836,19.511c5.825,5.689,9.684,7.334,11.503,8.005c2.511,0.925,5.619,2.028,9.502,1.334
		c4.663-0.833,9.397-4.069,11.336-9.005c0.457-1.164,1.985-5.053,0.167-9.005c-0.315-0.683-1.602-3.357-4.668-4.669
		c-0.561-0.24-4.09-1.751-7.179,0.179c-2.042,1.275-2.736,3.332-2.865,3.74c-0.692,2.192-0.118,4.537,0.042,5.128
		c0.373,1.384,0.576,1.66,0.417,1.834c-0.899,0.983-12.361-4.59-18.882-15.325c-2.194-3.611-6.427-10.579-4.403-18.793
		c0.303-1.231,1.857-7.554,7.698-11.117c5.527-3.372,11.58-2.173,15.003-1.501c4.771,0.936,8.292,2.95,10.336,4.336
		c-3.123,2.877-6.246,5.755-9.369,8.632c3.223,2.96,8.371,7.06,15.532,10.384c4.709,2.186,13.168,5.994,24.518,5.476
		c7.903-0.361,14.378-2.69,18.986-4.971c0.01,0.01,0.021,0.021,0.031,0.031l0,0l0,0c0.01-0.02,0.02-0.041,0.03-0.061
		c0.02-0.01,0.041-0.02,0.061-0.03l0,0l0,0c-0.01-0.01-0.021-0.021-0.031-0.031c2.281-4.61,4.609-11.087,4.97-18.993
		c0.518-11.354-3.289-19.816-5.474-24.526c-3.322-7.163-7.421-12.313-10.38-15.537c-2.876,3.124-5.753,6.248-8.629,9.372
		c-1.385-2.044-3.399-5.567-4.334-10.339c-0.672-3.425-1.87-9.479,1.5-15.009c3.562-5.843,9.883-7.397,11.113-7.701
		c8.211-2.024,15.177,2.21,18.786,4.405c10.731,6.523,16.302,17.989,15.319,18.888c-0.174,0.159-0.451-0.043-1.834-0.417
		c-0.591-0.159-2.935-0.734-5.126-0.042c-0.408,0.129-2.464,0.824-3.739,2.866c-1.929,3.09-0.419,6.621-0.179,7.182
		c1.312,3.066,3.984,4.355,4.668,4.669c3.95,1.819,7.839,0.291,9.002-0.167c4.934-1.94,8.169-6.676,9.002-11.34
		C173.154,76.837,172.052,73.727,171.127,71.216z"/>
</g>
<g id="c1">
	<path fill-rule="evenodd" clip-rule="evenodd" fill="#353333" d="M278.466,31.851c1.858-1.314,3.683-1.8,4.757-2.001
		c0-5.139,0-10.279,0-15.418c-5.587,1.582-11.173,3.163-16.76,4.745c-0.428-2.392-1.616-7.16-5.335-11.84
		c-3.155-3.971-6.735-6.119-8.835-7.176C219.453,0.107,186.612,0.054,153.771,0c2.222,5.521,5.231,9.058,7.168,11.005
		c5.76,5.791,12.416,7.955,16.67,9.339c3.089,1.004,5.723,1.538,7.502,1.834c0.453,2.154,1.611,5.938,4.834,9.172
		c3.835,3.847,8.426,4.739,11.277,5.293c3.795,0.738,7.006,0.507,9.061,0.21c-3.542-10.025-1.532-20.352,5.001-26.015
		c3.87-3.355,8.368-4.242,11.002-4.503c0.63,0.782,3.906,4.685,9.669,5.336c6.2,0.701,10.482-2.904,11.169-3.502
		c2.402,1.51,6.236,4.35,9.521,9.106c3.89,5.631,5.068,11.132,5.482,14.074c-2.556,1.39-5.112,2.779-7.668,4.169
		c-1.725-0.767-6.777-2.737-12.836-1.167c-3.24,0.84-5.591,2.387-7.002,3.502c-1.445,1.39-2.89,2.779-4.334,4.169
		c1.11,0.034,3.007,0.247,5.001,1.334c0.716,0.391,3.811,2.078,3.673,3.664c-0.145,1.656-3.799,2.972-8.919,3.502
		c-9.65,0.701-25.494,0.466-43.01-6.504c-8.621-3.43-25.971-10.6-38.264-28.511C144.679,9.546,142.233,3.976,140.768,0
		C109.289,0,77.81,0,46.33,0c1.66,2.79,5.713,10.453,4.918,20.761c-0.608,7.886-3.767,13.601-5.554,16.362
		c-1.872-1.619-3.744-3.237-5.616-4.856c0.314-0.712,0.698-1.798,0.834-3.168c0.069-0.698,0.177-1.793-0.167-3.085
		c-0.014-0.051-0.034-0.13-0.064-0.233c-0.444-1.518-1.154-2.097-1.936-3.435c-0.622-1.066-0.934-1.599-0.926-2.335
		c0.011-1.048,0.62-1.279,0.759-2.167c0.168-1.068-0.78-2.119-2.569-4.275c-0.876-1.056-2.092-2.387-3.766-3.562
		c-0.249-0.175-1.129-0.783-2.42-1.173c-0.48-0.145-1.556-0.47-1.73-0.175c-0.2,0.339,0.993,1.137,1.9,2.432
		c0.961,1.372,1.318,2.896,1.417,4.252c-3.178-3.096-5.166-3.508-6.418-3.252c-0.4,0.082-1.046,0.297-2.084,0.334
		c-0.619,0.022-2.001,0.07-3.334-0.584c-1.37-0.672-1.11-1.31-2.584-2.251c-0.466-0.298-1.786-1.116-3.584-1.084
		c-1.724,0.031-2.98,0.822-3.56,1.254C9.841,9.754,9.837,9.749,9.832,9.745h0C9.821,9.759,9.806,9.781,9.793,9.797
		C9.777,9.809,9.756,9.824,9.741,9.836v0C9.746,9.84,9.75,9.845,9.755,9.849c-0.432,0.58-1.223,1.837-1.254,3.562
		c-0.032,1.799,0.786,3.119,1.084,3.585c0.94,1.474,1.579,1.214,2.251,2.585c0.654,1.334,0.605,2.716,0.583,3.335
		c-0.036,1.038-0.252,1.684-0.333,2.085c-0.256,1.252,0.156,3.241,3.251,6.42c-1.356-0.099-2.879-0.456-4.251-1.417
		c-1.294-0.907-2.093-2.1-2.431-1.9c-0.295,0.174,0.03,1.25,0.175,1.73c0.39,1.291,0.998,2.172,1.173,2.421
		c1.175,1.675,2.505,2.891,3.561,3.767c2.155,1.789,3.206,2.738,4.274,2.57c0.887-0.14,1.119-0.749,2.166-0.76
		c0.737-0.008,1.269,0.304,2.335,0.926c1.338,0.782,1.916,1.493,3.434,1.937c0.103,0.03,0.182,0.051,0.233,0.064
		c1.292,0.343,2.386,0.236,3.084,0.167c1.37-0.135,2.456-0.52,3.167-0.834c1.618,1.873,3.236,3.745,4.854,5.618
		c-2.761,1.787-8.474,4.947-16.357,5.556C10.449,52.062,2.789,48.007,0,46.347c0,31.491,0,62.981,0,94.472
		c3.974,1.465,9.543,3.912,15.503,8.005c17.906,12.297,25.072,29.653,28.501,38.277c6.967,17.522,7.202,33.371,6.501,43.025
		c-0.53,5.121-1.845,8.777-3.501,8.922c-1.585,0.139-3.272-2.957-3.662-3.674c-1.087-1.995-1.299-3.893-1.334-5.003
		c-1.389,1.445-2.778,2.891-4.168,4.336c-1.115,1.411-2.661,3.763-3.501,7.004c-1.569,6.061,0.4,11.115,1.167,12.841
		c-1.389,2.557-2.778,5.114-4.168,7.671c-2.941-0.415-8.44-1.593-14.069-5.484c-4.754-3.287-7.594-7.121-9.103-9.525
		c0.598-0.687,4.202-4.971,3.501-11.173c-0.651-5.765-4.553-9.042-5.335-9.672c0.26-2.636,1.147-7.135,4.501-11.006
		c5.661-6.535,15.985-8.546,26.006-5.003c0.297-2.056,0.528-5.268-0.21-9.064c-0.554-2.851-1.446-7.444-5.292-11.281
		c-3.233-3.225-7.016-4.383-9.169-4.836c-0.296-1.779-0.83-4.414-1.834-7.504c-1.383-4.256-3.546-10.914-9.335-16.676
		c-1.947-1.938-5.483-4.948-11.002-7.171c0.054,32.852,0.107,65.705,0.161,98.558c1.056,2.101,3.204,5.682,7.173,8.838
		c4.678,3.72,9.444,4.908,11.836,5.336c-1.581,5.589-3.162,11.177-4.743,16.766c5.137,0,10.275,0,15.412,0
		c0.201-1.075,0.687-2.9,2-4.759c1.708-2.417,3.835-3.506,4.834-4.002c0.863-0.429,4.773-2.371,9.169-1.167
		c1.323,0.362,2.269,0.894,5.335,3.168c2.181,1.618,5.109,3.877,8.502,6.76c5.279,0,10.558,0,15.837,0
		c1.656-3.219,3.311-6.439,4.967-9.658c-1.433-0.646-2.867-1.292-4.3-1.938c0.945-2.001,1.889-4.002,2.834-6.003
		c-3.445-1.223-6.89-2.446-10.336-3.669c-2.223,3.891-4.445,7.782-6.668,11.673c-4.779-2.946-9.558-5.892-14.337-8.838
		c2.699-4.661,4.524-8.645,5.663-11.335c2.919-6.894,9.666-23.353,7.007-42.863l0,0c-0.555-5.945-1.872-14.666-5.335-24.681
		c-2.54-7.347-8.104-22.88-22.51-37.183c-4.611-4.578-12.276-11.163-23.5-16.681c0.077-22.681,0.155-45.362,0.232-68.042
		c5.09-0.027,10.181-0.054,15.271-0.081c0.164,2.078,0.168,5.018-0.583,8.422c-0.674,3.053-1.739,5.491-2.658,7.225
		c2.258-0.671,5.59-2.024,8.71-4.86c3.762-3.42,5.587-7.514,5.534-9.202c-0.003-0.085-0.028-0.721,0-1.584
		c0.04-1.245,0.063-1.991,0.25-2.501c0.459-1.257,2.061-1.525,3.751-2.168c0,0,0.908-0.346,2.133-1.04
		c0.68-0.385,2.589-1.478,4.035-3.129c2.075-2.37,2.6-5.215,2.754-6.738c1.523-0.153,4.367-0.679,6.736-2.755
		c1.651-1.446,2.743-3.355,3.128-4.036c0.694-1.226,1.039-2.134,1.039-2.134c0.643-1.691,0.911-3.293,2.167-3.752
		c0.511-0.187,1.256-0.21,2.501-0.25c0.863-0.028,1.499-0.003,1.584,0c1.687,0.053,5.78-1.772,9.199-5.536
		c2.835-3.122,4.188-6.455,4.858-8.713c-1.733,0.919-4.17,1.984-7.222,2.659c-3.402,0.752-6.341,0.748-8.419,0.584
		c0.027-5.092,0.054-10.184,0.08-15.277c22.673-0.077,45.346-0.155,68.018-0.232c5.517,11.228,12.099,18.896,16.676,23.509
		c14.298,14.411,29.825,19.977,37.17,22.518c10.011,3.464,18.729,4.781,24.672,5.336l0,0c19.503,2.66,35.956-4.089,42.848-7.009
		c2.689-1.14,6.671-2.965,11.331-5.665c2.945,4.781,5.89,9.561,8.835,14.342c-3.89,2.224-7.78,4.447-11.669,6.671
		c1.223,3.446,2.445,6.893,3.668,10.339c2-0.945,4.001-1.89,6.001-2.835c0.646,1.434,1.291,2.868,1.937,4.302
		c3.218-1.656,6.437-3.312,9.655-4.969c0-5.281,0-10.562,0-15.843c-2.882-3.394-5.14-6.323-6.758-8.505
		c-2.274-3.067-2.805-4.013-3.167-5.336c-1.203-4.397,0.738-8.308,1.167-9.172C274.962,35.687,276.05,33.559,278.466,31.851z"/>
</g>
</svg>
