<?xml version="1.0" encoding="utf-8"?>
<!-- Generator: Adobe Illustrator 22.0.0, SVG Export Plug-In . SVG Version: 6.00 Build 0)  -->
<svg version="1.1" xmlns="http://www.w3.org/2000/svg" xmlns:xlink="http://www.w3.org/1999/xlink" x="0px" y="0px"
	 viewBox="0 0 283.5 283.5" enable-background="new 0 0 283.5 283.5" xml:space="preserve">
<g id="Capa_1">
</g>
<g id="c10">
	<path fill="#9D9FA2" d="M283.5,61.986V283.5H62.135v-0.134C62.135,161.028,161.243,61.986,283.5,61.986z"/>
</g>
<g id="c15">
	<g>
		<path fill="#353333" d="M221.034,233.636l20.85,20.211c-61.422-46.981-119.842-39.327-119.842-39.327
			c-15.52,0.347-28.331-9.641-28.614-22.309c-0.176-7.886,3.95-16.188,11.879-19.246c7.835-3.022,12.852,2.255,12.852,2.255
			c-6.446,0.144-11.554,5.49-11.41,11.94c0.144,6.45,5.486,11.562,11.932,11.418c4.992-0.112,9.182-3.343,10.751-7.792
			c0,0,19.48-0.434,16.796,11.469l-0.544,2.533c0,0,30.238-0.919,72.505,26.414L221.034,233.636z"/>
		<path fill="#353333" d="M233.651,220.86l20.212,20.999c-46.949-61.463-39.297-119.925-39.297-119.925
			c0.347-15.53-9.634-28.35-22.294-28.633c-7.881-0.176-16.177,3.953-19.234,11.887c-3.02,7.84,2.253,12.86,2.253,12.86
			c0.144-6.45,5.486-11.562,11.932-11.418c6.446,0.144,11.554,5.49,11.41,11.94c-0.112,4.995-3.341,9.188-7.786,10.758
			c0,0-0.434,19.493,11.461,16.808l2.531-0.545c0,0-1.056,30.113,26.259,72.408L233.651,220.86z"/>
	</g>
</g>
<g id="c13">
	<g>
		<path fill="#353333" d="M242.439,253.847c0,0-36.67-35.457-49.448-46.272c-27.704-23.448-45.754-18.534-45.754-18.534
			c2.703-29.154-12.615-55.002-12.615-55.002l0.071-0.071c0,0,25.831,15.328,54.965,12.623c0,0-4.91,18.063,18.522,45.785
			c10.808,12.787,46.238,49.484,46.238,49.484L242.439,253.847z"/>
		<path fill="#353333" d="M239.463,258.558c-49.183-38.164-90.716-31.69-93.835-31.174c-3.188,0.528-18.222,2.404-33.84,14.627
			c-20.362,15.935-11.592,33.492-11.592,33.492c5.837,8.964,16.636-1.06,16.636-1.06s-11.746-7.232-1.455-18.128
			c0,0,2.599-4.081,10.533-4.737c7.934-0.656,14.337,3.998,14.793,9.494c0.457,5.496-1.381,9.729-3.226,12.256
			c-1.846,2.527,16.928,0.377,16.928,0.377s20.81,14.485,34.494-0.843c0,0,10.093-10.281,0.449-22.315c0,0,27.15-7.22,46.713,15.41
			L239.463,258.558z"/>
		<path fill="#353333" d="M266.523,235.474c-22.615-19.576-15.4-46.744-15.4-46.744c12.026,9.651,22.3-0.449,22.3-0.449
			c15.318-13.693,0.842-34.518,0.842-34.518s2.149-18.786-0.377-16.94c-2.525,1.847-6.755,3.685-12.248,3.229
			c-5.492-0.457-10.143-6.864-9.488-14.803c0.656-7.939,4.734-10.54,4.734-10.54c10.888-10.299,18.116,1.456,18.116,1.456
			s10.018-10.806,1.059-16.647c0,0-17.545-8.775-33.469,11.6c-12.215,15.629-14.09,30.673-14.617,33.863
			c-0.516,3.121-6.985,44.681,31.153,93.897L266.523,235.474z"/>
	</g>
</g>
<g id="c14">
	<g>
		<path fill="#DEDEDE" d="M248.437,246.487c-1.432-1.483-35.383-36.716-46.219-49.535c-15.926-18.841-19.917-33.896-20.552-42.955
			c-12.897-0.06-24.707-2.988-33.724-6.145c3.156,9.023,6.081,20.841,6.141,33.747c9.053,0.636,24.098,4.63,42.926,20.566
			c12.81,10.843,47.988,44.911,49.47,46.344L248.437,246.487z"/>
		<path fill="#DEDEDE" d="M155.7,266.36l2.194,1.527c0.621,0.425,15.873,10.666,25.169,0.253l0.213-0.23
			c1.358-1.486,5.095-6.563-0.007-12.93l-6.803-8.488l10.508-2.794c0.445-0.118,4.395-1.124,10.287-1.317
			c-27.864-11.212-48.04-8.501-51.033-8.005l-0.595,0.095c-10.171,1.604-19.559,5.485-27.942,11.546
			c1.966-0.718,4.31-1.272,7.081-1.502c11.565-0.955,21.623,6.208,22.434,15.969c0.205,2.473,0.069,4.726-0.277,6.743
			c1.959-0.139,4.079-0.331,6.117-0.564L155.7,266.36z"/>
		<path fill="#DEDEDE" d="M266.675,152.959c0.233-2.04,0.425-4.161,0.564-6.121c-2.016,0.347-4.267,0.483-6.739,0.277
			c-9.755-0.812-16.913-10.876-15.959-22.449c0.229-2.772,0.783-5.118,1.501-7.085c-6.057,8.389-9.935,17.783-11.538,27.961
			l-0.095,0.596c-0.495,2.995-3.204,23.184,8,51.067c0.192-5.896,1.197-9.848,1.316-10.294l2.793-10.515l8.482,6.807
			c6.362,5.105,11.436,1.366,12.921,0.007l0.23-0.213c10.406-9.302,0.172-24.564-0.253-25.186l-1.526-2.196L266.675,152.959z"/>
	</g>
</g>
<g id="c12">
	<path fill="#58585A" d="M283.5,232.381c-28.213,0-51.084,22.887-51.084,51.119H283.5V232.381z"/>
</g>
<g id="c11">
	<path fill="#DEDEDE" d="M283.5,249.421c-18.809,0-34.056,15.258-34.056,34.079H283.5V249.421z"/>
</g>
<g id="c6">
	<path fill="#DEDEDE" d="M166.149,0.006C91.175,31.098,31.07,90.99,0,166.014L0.19,0L166.149,0.006z"/>
</g>
<g id="c7">
	<path fill="#353333" d="M0.116,0l101.051,0.004c0,0-11.168,19.157-27.387,17.354c0,0-0.495,11.179-11.609,16.589
		c0,0-0.446,4.443-5.329,5.778c0-9.411-7.624-17.04-17.028-17.04c-4.702,0-8.959,1.907-12.041,4.991
		c-3.081,3.084-4.987,7.343-4.987,12.049c0,9.411,7.624,17.04,17.028,17.04c-1.334,4.886-5.774,5.333-5.774,5.333
		c-5.406,11.121-16.578,11.616-16.578,11.616C19.264,89.943,0,101.114,0,101.114L0.116,0z"/>
</g>
<g id="c9">
	<path fill="#58585A" d="M30.655,24.9l5.715,5.977l11.984,0.601C47.253,43.2,58.967,58.93,58.967,58.93S43.248,47.208,31.535,48.31
		l-0.601-11.992l-5.973-5.719L30.655,24.9z"/>
</g>
<g id="c8">
	<path fill="#9D9FA2" d="M83.283,0L0,0v83.339c0,0,9.562-2.988,7.759-19.218c0,0,8.138-0.004,13.831-4.024
		c-5.606-4.994-9.138-12.27-9.138-20.371c0-7.529,3.049-14.344,7.98-19.278c4.93-4.934,11.742-7.985,19.265-7.985
		c8.096,0,15.367,3.534,20.358,9.144c4.018-5.697,4.022-13.841,4.022-13.841C80.296,9.568,83.283,0,83.283,0z"/>
</g>
<g id="c2">
	<path fill="#DEDEDE" d="M283.387,44.929c-131.661,0-238.394,106.804-238.394,238.553H0.113l-0.001-59.931
		C23.635,111.664,111.684,23.555,223.497,0.018l59.891,0.001V44.929z"/>
</g>
<g id="c4">
	<g>
		<path fill="#353333" d="M34.169,283.482c0-18.821-15.247-34.079-34.056-34.079v34.079H34.169z"/>
		<path fill="#353333" d="M283.387,34.097c-18.809,0-34.056-15.258-34.056-34.079l34.056,0V34.097z"/>
	</g>
</g>
<g id="c5">
	<g>
		<path fill="#9D9FA2" d="M23.952,283.482H0.113v-23.855C13.279,259.627,23.952,270.307,23.952,283.482z"/>
		<path fill="#9D9FA2" d="M283.387,23.873V0.018l-23.839,0C259.548,13.193,270.221,23.873,283.387,23.873z"/>
	</g>
</g>
<g id="c3">
	<g>
		<g>
			<path fill="#9D9FA2" d="M249.281,15.223c0,0-6.768,0.996-20.299-6.298c-9.072-4.891-19.983,2.269-19.983,2.269
				s7.22-0.55,21.542,7.219C230.541,18.413,235.065,21.535,249.281,15.223z"/>
			<path fill="#9D9FA2" d="M196.523,16.836c0,0,16.638-4.345,26.805,5.645C223.328,22.48,210.133,29.074,196.523,16.836z"/>
			<path fill="#9D9FA2" d="M204.874,47.737c0,0,16.522-4.767,20.165-18.552C225.038,29.186,210.329,30.26,204.874,47.737z"/>
			<path fill="#9D9FA2" d="M250.945,21.817c0,0-6.247,2.789-13.763,16.205c-5.039,8.995-18.085,8.803-18.085,8.803
				s6.39-3.408,14.319-17.649C233.416,29.176,235.563,24.113,250.945,21.817z"/>
			<path fill="#9D9FA2" d="M211.365,29.309c0,0-5.794,8.96-12.97,10.608c-7.004,2.269-16.571-2.448-16.571-2.448
				s5.794-8.96,12.97-10.608C201.798,24.591,211.365,29.309,211.365,29.309z"/>
		</g>
		<g>
			<path fill="#9D9FA2" d="M161.037,42.439c0,0-6.037,3.22-21.233,0.915c-10.188-1.546-18.05,8.874-18.05,8.874
				s6.612-2.953,22.713-0.466C144.467,51.761,149.778,53.176,161.037,42.439z"/>
			<path fill="#9D9FA2" d="M111.907,61.746c0,0,14.202-9.701,27.138-3.723C139.045,58.023,128.842,68.68,111.907,61.746z"/>
			<path fill="#9D9FA2" d="M130.175,88.025c0,0,13.95-10.059,12.739-24.266C142.914,63.759,129.426,69.731,130.175,88.025z"/>
			<path fill="#9D9FA2" d="M164.824,48.086c0,0-4.943,4.733-7.502,19.898c-1.715,10.168-14.063,14.386-14.063,14.386
				s4.869-5.363,7.538-21.445C150.797,60.925,151.114,55.435,164.824,48.086z"/>
			<path fill="#9D9FA2" d="M130.081,68.486c0,0-2.438,10.39-8.639,14.36c-5.83,4.498-16.426,3.282-16.426,3.282
				s2.438-10.39,8.639-14.36C119.485,67.27,130.081,68.486,130.081,68.486z"/>
		</g>
		<g>
			<path fill="#9D9FA2" d="M15.404,249.34c0,0,0.995-6.775-6.291-20.32c-4.886-9.081,2.266-20.003,2.266-20.003
				s-0.55,7.227,7.212,21.564C18.591,230.581,21.71,235.11,15.404,249.34z"/>
			<path fill="#9D9FA2" d="M17.015,196.528c0,0-4.34,16.655,5.639,26.832C22.654,223.361,29.24,210.152,17.015,196.528z"/>
			<path fill="#9D9FA2" d="M47.885,204.887c0,0-4.762,16.539-18.533,20.186C29.352,225.073,30.426,210.348,47.885,204.887z"/>
			<path fill="#9D9FA2" d="M21.991,251.006c0,0,2.786-6.254,16.188-13.777c8.985-5.044,8.794-18.103,8.794-18.103
				s-3.405,6.396-17.631,14.333C29.342,233.459,24.285,235.608,21.991,251.006z"/>
			<path fill="#9D9FA2" d="M29.475,211.385c0,0,8.951-5.8,10.597-12.983c2.267-7.011-2.446-16.588-2.446-16.588
				s-8.951,5.8-10.597,12.983C24.763,201.809,29.475,211.385,29.475,211.385z"/>
		</g>
		<g>
			<path fill="#9D9FA2" d="M42.592,161.006c0,0,3.217-6.043,0.914-21.255c-1.544-10.199,8.865-18.069,8.865-18.069
				s-2.949,6.619-0.466,22.736C51.905,144.419,53.318,149.735,42.592,161.006z"/>
			<path fill="#9D9FA2" d="M61.879,111.825c0,0-9.691,14.216-3.719,27.166C58.16,138.991,68.806,128.778,61.879,111.825z"/>
			<path fill="#9D9FA2" d="M88.131,130.112c0,0-10.049,13.965-24.241,12.752C63.89,142.864,69.856,129.362,88.131,130.112z"/>
			<path fill="#9D9FA2" d="M48.234,164.796c0,0,4.728-4.948,19.877-7.509c10.157-1.717,14.371-14.077,14.371-14.077
				s-5.358,4.874-21.423,7.546C61.059,150.756,55.574,151.073,48.234,164.796z"/>
			<path fill="#9D9FA2" d="M68.612,130.018c0,0,10.379-2.441,14.346-8.648c4.493-5.836,3.279-16.443,3.279-16.443
				s-10.379,2.441-14.346,8.648C67.397,119.411,68.612,130.018,68.612,130.018z"/>
		</g>
	</g>
</g>
<g id="c1">
	<g>
		<path fill="#58585A" d="M223.591,0.018C111.779,23.556,23.677,111.67,0.155,223.557l-0.138-57.525
			C31.088,91.008,91.193,31.116,166.167,0.024L223.591,0.018"/>
		<path fill="#58585A" d="M62.117,283.482c0-122.339,99.109-221.514,221.365-221.514v-17.04
			c-131.661,0-238.394,106.804-238.394,238.553H62.117"/>
	</g>
</g>
</svg>
