<?xml version="1.0" encoding="utf-8"?>
<!-- Generator: Adobe Illustrator 22.0.0, SVG Export Plug-In . SVG Version: 6.00 Build 0)  -->
<svg version="1.1" xmlns="http://www.w3.org/2000/svg" xmlns:xlink="http://www.w3.org/1999/xlink" x="0px" y="0px"
	 viewBox="0 0 283.5 283.5" enable-background="new 0 0 283.5 283.5" xml:space="preserve">
<g id="Capa_1">
</g>
<g id="c4">
	
		<rect x="0.018" y="0.018" transform="matrix(-1 -1.224647e-16 1.224647e-16 -1 283.5 283.5)" fill="#353333" width="283.465" height="283.465"/>
	<path fill="#353333" d="M64.441,276.394l57.518-57.452v-97.107h19.492c9.843,0,26.374-0.007,42.904-0.014
		c12.602-0.005,25.204-0.011,34.846-0.013l57.521-57.454l0.002,27.527c-16.482,16.464-32.964,32.928-49.447,49.392
		c-19.69,0-66.136,0.029-85.826,0.029c0,19.668,0,66.034,0,85.702c-16.482,16.464-32.964,32.928-49.447,49.392L64.441,276.394z"/>
</g>
<g id="c6">
	<path fill="#58585A" d="M7.433,142.049c0-0.927,0-1.854,0-2.793c0-23.483,19.037-42.52,42.52-42.52c2.151,0,4.265,0.16,6.331,0.468
		v0.053c-17.867-1.815-28.867-16.542-28.867-34.889c0-19.569,15.864-35.433,35.433-35.433c17.383,0,31.843,12.518,34.856,29.031
		l-0.009-0.012c-0.308-2.065-0.468-4.18-0.468-6.331c0-23.483,19.037-42.52,42.52-42.52c0.938,0,1.735,0,2.659,0l-134.974,0
		L7.433,142.049z"/>
</g>
<g id="c5">
	<path fill="#DEDEDE" d="M64.441,276.394l57.519-57.452v-97.107h19.492c9.843,0,26.374-0.007,42.905-0.014
		c12.602-0.005,25.204-0.011,34.846-0.013l57.521-57.454h0.002V7.104l-136.979,0c-23.482,0.001-42.517,19.037-42.517,42.52
		c0,2.12,0.157,4.203,0.456,6.24c0.004,0.03,0.007,0.061,0.012,0.091l0.009,0.012c-0.006-0.035-0.015-0.069-0.021-0.103
		c-3.055-16.462-17.488-28.928-34.835-28.928c-19.569,0-35.433,15.864-35.433,35.433c0,17.523,10.04,31.736,26.509,34.558
		c-1.309-0.121-2.632-0.19-3.973-0.19c-23.483,0-42.519,19.036-42.52,42.518v0.001c0,0,0-0.001,0-0.001v2.794
		c0-0.927,0-1.854,0-2.793v137.139h57.008V276.394z"/>
</g>
<g id="c3">
	<path fill="#9D9FA2" d="M276.724,142.049c0,0.928,0,1.093,0,2.031c0,23.483-19.037,42.52-42.52,42.52
		c-2.12,0-4.203-0.157-6.24-0.456c-0.03-0.004-0.061-0.007-0.091-0.012l-0.012-0.009c0.035,0.006,0.068,0.015,0.103,0.021
		c16.462,3.055,28.928,17.488,28.928,34.835c0,19.569-15.864,35.433-35.433,35.433c-17.523,0-31.736-10.04-34.558-26.509
		c0.121,1.309,0.191,2.632,0.191,3.973c0,23.483-19.037,42.52-42.52,42.52c-0.938,0-1.254,0-2.165,0c0,0-50.402,0-50.402,0
		c16.482-16.464,32.964-32.928,49.447-49.392c0-19.668,0-66.034,0-85.702c19.69,0,66.136-0.029,85.826-0.029
		c16.482-16.464,32.964-32.928,49.447-49.392V142.049z"/>
</g>
<g id="c2">
	<path fill="#58585A" d="M142.406,276.396c0.912,0,1.227,0,2.165,0c23.483,0,42.52-19.037,42.52-42.52
		c0-2.151-0.16-4.265-0.468-6.331h-0.053c1.815,17.867,16.542,28.867,34.889,28.867c19.569,0,35.433-15.864,35.433-35.433
		c0-17.383-12.518-31.843-29.031-34.856l0.012,0.009c2.066,0.308,4.18,0.468,6.331,0.468c23.483,0,42.52-19.037,42.52-42.52
		c0-0.938,0-1.104,0-2.031l0,134.346L142.406,276.396z"/>
</g>
</svg>
