<?xml version="1.0" encoding="utf-8"?>
<!-- Generator: Adobe Illustrator 22.0.0, SVG Export Plug-In . SVG Version: 6.00 Build 0)  -->
<svg version="1.1" xmlns="http://www.w3.org/2000/svg" xmlns:xlink="http://www.w3.org/1999/xlink" x="0px" y="0px"
	 viewBox="0 0 283.5 283.5" enable-background="new 0 0 283.5 283.5" xml:space="preserve">
<g id="Capa_1">
</g>
<g id="c3">
	<path fill="#FFFFFF" d="M261.339,46.683c-10.427,0.048-18.394,1.727-21.698,2.503c-2.469,0.579-4.9,1.255-7.291,2.023
		c2.215-6.937,4.535-16.921,4.518-29.042c-0.004-2.816-0.166-5.449-0.387-7.992H47.089c-0.194,2.553-0.332,5.188-0.32,7.993
		c0.047,10.446,1.724,18.428,2.498,21.738c0.578,2.473,1.253,4.909,2.019,7.304c-6.924-2.219-16.89-4.543-28.989-4.526
		c-2.811,0.004-5.439,0.166-7.977,0.387v189.408c2.496,0.186,5.07,0.317,7.805,0.305c10.427-0.048,18.394-1.727,21.698-2.503
		c2.469-0.579,4.9-1.255,7.291-2.023c-2.215,6.937-4.534,16.921-4.518,29.043c0.004,2.816,0.166,5.449,0.387,7.992h189.392
		c0.195-2.553,0.332-5.188,0.32-7.993c-0.048-10.446-1.724-18.428-2.498-21.738c-0.578-2.473-1.253-4.909-2.019-7.304
		c6.924,2.219,16.89,4.543,28.989,4.526c2.746-0.004,5.319-0.158,7.805-0.37V46.972C266.529,46.794,264.01,46.67,261.339,46.683z"/>
</g>
<g id="c2">
	<g>
		<path fill="#9D9FA2" d="M236.481,14.173C236.012,8.774,235.164,3.969,234.204,0c16.305,0,32.61,0,48.915,0v0H49.154
			c-0.901,4.058-1.659,8.854-2.064,14.173H236.481z"/>
		<path fill="#9D9FA2" d="M283.119,49.003c-4.067-0.892-8.837-1.643-14.147-2.03v189.44c5.389-0.459,10.175-1.304,14.147-2.261
			V49.003z"/>
		<path fill="#9D9FA2" d="M14.32,236.477V47.069c-5.389,0.47-10.186,1.319-14.147,2.281v185.078
			C4.232,235.325,9.01,236.08,14.32,236.477z"/>
		<path fill="#9D9FA2" d="M46.983,269.291c0.469,5.399,1.317,10.204,2.277,14.173h185.05c0.901-4.058,1.659-8.853,2.065-14.173
			H46.983z"/>
	</g>
</g>
<g id="c7">
	<path fill="#353333" d="M164.004,151.159l0.034,0.297l0.005,0.046l0.03,0.251l0.02,0.159l0.017,0.138l0.003,0.025l0.068,0.532
		l0.004,0.036l0.012,0.087l0.027,0.208l0.04,0.296l0.042,0.294l0.002,0.017l0.04,0.279l0.088,0.588l0.045,0.293l0.01,0.058
		l0.037,0.235l0.027,0.171l0.02,0.123l0.046,0.281l0.003,0.012l0.049,0.292l0.017,0.1l0.034,0.192l0.037,0.212l0.014,0.08
		l0.052,0.292l0.006,0.03l0.049,0.261l0.026,0.14l0.027,0.15l0.048,0.251l0.008,0.039l0.056,0.29l0.014,0.071l0.043,0.218
		l0.036,0.182l0.023,0.108l0.119,0.577l0.023,0.112l0.037,0.177l0.049,0.221l0.014,0.067l0.123,0.556l0.007,0.033l0.063,0.272
		c0.534,2.329,1.162,4.621,1.884,6.871c-2.8-0.898-5.662-1.656-8.581-2.263l-0.001-0.001l-0.289-0.059l-0.108-0.021l-0.047-0.011
		c-0.237-0.048-0.474-0.094-0.712-0.141l-0.039-0.007c-0.374-0.072-0.747-0.142-1.123-0.208l-0.079-0.016l-0.04-0.006
		c-0.347-0.062-0.697-0.121-1.047-0.179l-0.123-0.02l-0.025-0.005l-0.378-0.06l-0.059-0.009c-0.385-0.06-0.771-0.118-1.158-0.173
		l-0.017-0.004l-0.37-0.051l-0.019-0.003l-0.2-0.027l-0.208-0.027l-0.088-0.012l-0.295-0.038l-0.024-0.003
		c-0.262-0.034-0.525-0.066-0.789-0.097l-0.028-0.004l-0.047-0.005l-0.296-0.034l-0.066-0.009l-0.231-0.024l-0.18-0.02l-0.117-0.013
		l-0.293-0.031l-0.004-0.001l-0.298-0.03l-0.11-0.011l-0.024-0.003c-0.254-0.024-0.509-0.047-0.763-0.071l-0.037-0.003l-0.261-0.022
		l-0.153-0.014l-0.146-0.012l-0.268-0.021l-0.034-0.002l-0.3-0.022l-0.081-0.007l-0.22-0.015l-0.195-0.014l-0.405-0.027h-0.01
		l-0.386-0.024l-0.031-0.002l-0.177-0.009l-0.24-0.014l-0.062-0.002c-1.508-0.082-3.025-0.123-4.553-0.122
		c-5.099,0.001-10.092,0.455-14.941,1.321l-0.291,0.052l-0.576,0.106l-0.006,0.002l-0.251,0.048l-0.038,0.007l-0.291,0.058
		c-0.866,0.169-1.731,0.355-2.588,0.552l-0.001-0.001c-2.324,0.535-4.613,1.166-6.86,1.888c1.959-6.12,3.245-12.541,3.765-19.179
		l0.002-0.032c0.031-0.4,0.06-0.802,0.085-1.204l0-0.011c0.018-0.278,0.035-0.556,0.049-0.833l0.004-0.062
		c0.013-0.258,0.027-0.517,0.037-0.775l0.007-0.134c0.033-0.792,0.056-1.588,0.067-2.386l0.001-0.049
		c0.006-0.406,0.008-0.812,0.008-1.219c0-2.044-0.072-4.07-0.214-6.077l-0.016-0.219l-0.007-0.083l-0.022-0.301l-0.049-0.6
		l-0.023-0.26l-0.003-0.039l-0.028-0.299l-0.023-0.255l-0.005-0.044l-0.018-0.188l-0.011-0.111l-0.03-0.298l0.001-0.005
		l-0.032-0.294l-0.012-0.117l-0.02-0.181l-0.026-0.23l-0.007-0.068l-0.035-0.298l-0.005-0.045l-0.031-0.251l-0.019-0.158
		l-0.018-0.138l-0.034-0.271l-0.002-0.026l-0.039-0.296l-0.011-0.087l-0.029-0.208l-0.027-0.2l-0.013-0.096l-0.042-0.294
		l-0.002-0.018l-0.041-0.277l-0.019-0.129l-0.023-0.166l-0.037-0.24l-0.007-0.054l-0.046-0.293l-0.009-0.059l-0.037-0.235
		l-0.028-0.17l-0.02-0.123l-0.045-0.282l-0.003-0.011c-0.044-0.264-0.09-0.529-0.137-0.794l0.001-0.002l-0.015-0.081l-0.052-0.292
		l-0.006-0.03c-0.048-0.269-0.098-0.536-0.15-0.804l-0.007-0.039l-0.058-0.289l-0.014-0.072c-0.052-0.265-0.105-0.528-0.16-0.79
		l-0.001-0.006l-0.001-0.001l-0.059-0.288l-0.024-0.111l-0.001-0.009l-0.079-0.368l-0.005-0.021l-0.014-0.067l-0.064-0.287
		l-0.009-0.043l-0.054-0.244l-0.035-0.153l-0.032-0.134c-0.533-2.328-1.162-4.621-1.883-6.872c4.706,1.511,9.59,2.623,14.614,3.293
		l0.009,0.001l0.088,0.012c0.234,0.03,0.468,0.061,0.703,0.09l0.025,0.003l0.159,0.02l0.251,0.03c0.41,0.048,0.82,0.094,1.231,0.137
		l0.003,0.001c0.397,0.041,0.796,0.079,1.194,0.114l0.039,0.003c0.385,0.035,0.772,0.066,1.159,0.095l0.081,0.005l0.219,0.016
		l0.196,0.014l0.405,0.027l0.01,0.001c0.278,0.018,0.555,0.033,0.833,0.049l0.062,0.003c1.508,0.08,3.026,0.121,4.555,0.121
		c3.263,0,6.483-0.185,9.65-0.547l0.296-0.034c0.784-0.092,1.565-0.195,2.343-0.309l0.02-0.003l0.129-0.019l0.165-0.025l0.293-0.044
		l0.294-0.046l0.273-0.044l0.033-0.004l0.278-0.046l0.281-0.046l0.012-0.003l0.292-0.049l0.1-0.016l0.191-0.034l0.011-0.002
		l0.28-0.049l0.291-0.052l0.03-0.005l0.26-0.048l0.007-0.001l0.277-0.052l0.007-0.001l0.251-0.048l0.039-0.007l0.289-0.057
		l0.072-0.014l0.219-0.043l0.288-0.058l0.289-0.06h0.001l0.286-0.06c0.378-0.08,0.755-0.163,1.13-0.247l0.033-0.008l0.272-0.062
		c2.324-0.534,4.613-1.164,6.859-1.886c-0.898,2.805-1.653,5.673-2.26,8.596l-0.001,0.002c-0.239,1.155-0.456,2.319-0.647,3.49
		l-0.02,0.123c-0.087,0.539-0.17,1.08-0.248,1.623l-0.002,0.016c-0.559,3.93-0.849,7.948-0.848,12.032
		C163.458,144.761,163.644,147.987,164.004,151.159z"/>
</g>
<g id="c4">
	<g>
		<path fill="#9D9FA2" d="M207.698,20.2c1.053,4.749,1.612,9.684,1.612,14.75c-0.001,37.427-30.285,67.767-67.643,67.767
			c-5.058,0-9.984-0.561-14.724-1.614C139.604,63.007,169.674,32.885,207.698,20.2z"/>
		<path fill="#9D9FA2" d="M35.299,73.741c37.358-0.001,67.643,30.339,67.643,67.767c0,5.067-0.56,10.002-1.612,14.751
			c-38.027-12.682-68.095-42.808-80.755-80.903C25.316,74.302,30.242,73.741,35.299,73.741z"/>
		<path fill="#9D9FA2" d="M75.629,262.822c-1.053-4.751-1.612-9.685-1.612-14.752c0.001-37.426,30.286-67.767,67.644-67.767
			c5.057,0.001,9.983,0.561,14.723,1.616C143.724,220.015,113.654,250.137,75.629,262.822z"/>
		<path fill="#9D9FA2" d="M248.028,209.282c-37.358-0.001-67.642-30.341-67.642-67.768c0.001-5.067,0.56-10.002,1.612-14.75
			c38.027,12.683,68.094,42.808,80.754,80.903C258.012,208.721,253.086,209.282,248.028,209.282z"/>
	</g>
</g>
<g id="c6">
</g>
<g id="c1">
	<g>
		<path fill="#353333" d="M234.222,0.018c1.412,5.838,2.652,13.369,2.664,22.165c0.017,12.122-2.303,22.106-4.518,29.042
			c2.391-0.768,4.822-1.443,7.291-2.023c3.304-0.776,11.271-2.455,21.698-2.503c8.633-0.039,16.132,1.053,22.126,2.388
			c0-4.361,0-8.722,0-13.083c0-11.996,0-23.991,0-35.987C267.062,0.018,250.642,0.018,234.222,0.018z"/>
		<path fill="#353333" d="M43.841,234.297c-3.304,0.776-11.271,2.455-21.698,2.503c-8.633,0.039-16.131-1.053-22.125-2.388
			c0,4.361,0,8.722,0,13.083c0,11.996,0,23.992,0,35.988c16.42,0,32.84,0,49.26,0c-1.413-5.839-2.651-13.37-2.664-22.165
			c-0.016-12.122,2.303-22.106,4.518-29.043C48.742,233.042,46.31,233.718,43.841,234.297z"/>
		<path fill="#353333" d="M46.788,22.184c-0.039-8.648,1.051-16.161,2.384-22.166c-4.353,0-8.706,0-13.059,0
			c-11.974,0-23.948,0-35.922,0c0,16.45,0,32.9,0,49.35c5.828-1.415,13.345-2.656,22.125-2.668
			c12.1-0.017,22.065,2.307,28.989,4.526c-0.766-2.395-1.441-4.831-2.019-7.304C48.511,40.611,46.835,32.63,46.788,22.184z"/>
		<path fill="#353333" d="M261.185,236.8c-12.1,0.017-22.065-2.307-28.989-4.526c0.766,2.395,1.441,4.831,2.019,7.304
			c0.774,3.31,2.45,11.292,2.498,21.738c0.039,8.649-1.051,16.161-2.384,22.166c4.353,0,8.706,0,13.06,0c11.973,0,23.948,0,35.921,0
			c0-16.45,0-32.9,0-49.35C277.482,235.547,269.965,236.788,261.185,236.8z"/>
	</g>
</g>
<g id="c5">
	<g>
		<path fill="#353333" d="M248.012,73.725c5.057-0.001,9.983,0.56,14.724,1.615c-7.512,22.605-21.154,42.403-38.951,57.415
			c-11.325-8.09-23.925-14.562-37.456-19.076l-0.016-0.005C196.91,90.12,220.549,73.724,248.012,73.725z"/>
		<path fill="#353333" d="M75.614,20.182c22.563,7.527,42.325,21.193,57.31,39.022c-8.075,11.347-14.535,23.969-19.041,37.526
			l-0.006,0.015C90.368,86.128,74.002,62.446,74.001,34.933C74.001,29.866,74.561,24.931,75.614,20.182z"/>
		<path fill="#353333" d="M35.281,209.261c-5.057,0.001-9.983-0.561-14.724-1.614c7.513-22.606,21.154-42.403,38.95-57.415
			c11.325,8.091,23.926,14.563,37.457,19.077l0.015,0.005C86.381,192.866,62.742,209.261,35.281,209.261z"/>
		<path fill="#353333" d="M207.678,262.805c-22.577-7.53-42.347-21.208-57.335-39.052c8.102-11.358,14.573-23.973,19.067-37.496
			l0.004-0.014c23.511,10.616,39.876,34.299,39.875,61.811C209.29,253.121,208.73,258.055,207.678,262.805z"/>
	</g>
</g>
</svg>
