<?xml version="1.0" encoding="utf-8"?>
<!-- Generator: Adobe Illustrator 22.0.0, SVG Export Plug-In . SVG Version: 6.00 Build 0)  -->
<svg version="1.1" xmlns="http://www.w3.org/2000/svg" xmlns:xlink="http://www.w3.org/1999/xlink" x="0px" y="0px"
	 viewBox="0 0 283.5 283.5" enable-background="new 0 0 283.5 283.5" xml:space="preserve">
<g id="c1">
	<rect x="0.018" y="0.018" fill="#DEDEDE" width="283.465" height="283.465"/>
</g>
<g id="c3">
	<g>
		<circle fill="#9D9FA2" cx="15.572" cy="59.7" r="9.217"/>
		<circle fill="#9D9FA2" cx="59.7" cy="15.572" r="9.217"/>
	</g>
	<g>
		<circle fill="#9D9FA2" cx="223.765" cy="15.572" r="9.217"/>
		<circle fill="#9D9FA2" cx="267.893" cy="59.7" r="9.217"/>
	</g>
	<circle fill="#9D9FA2" cx="267.893" cy="223.765" r="9.217"/>
	<circle fill="#9D9FA2" cx="223.765" cy="267.893" r="9.217"/>
	<g>
		<circle fill="#9D9FA2" cx="15.572" cy="223.765" r="9.217"/>
		<circle fill="#9D9FA2" cx="59.7" cy="267.893" r="9.217"/>
	</g>
</g>
<g id="c4">
	<g>
		
			<rect x="9.45" y="80.216" transform="matrix(0.7071 -0.7071 0.7071 0.7071 -51.6765 44.1785)" fill="#58585A" width="36.079" height="8.505"/>
		
			<rect x="66.429" y="23.238" transform="matrix(0.7071 -0.7071 0.7071 0.7071 5.3019 67.7797)" fill="#58585A" width="36.079" height="8.505"/>
	</g>
	<g>
		
			<rect x="194.744" y="9.45" transform="matrix(0.7071 -0.7071 0.7071 0.7071 38.8464 148.7632)" fill="#58585A" width="8.505" height="36.079"/>
		
			<rect x="251.722" y="66.429" transform="matrix(0.7071 -0.7071 0.7071 0.7071 15.2451 205.7417)" fill="#58585A" width="8.505" height="36.079"/>
	</g>
	<g>
		
			<rect x="180.957" y="251.722" transform="matrix(0.7071 -0.7071 0.7071 0.7071 -122.7168 215.6848)" fill="#58585A" width="36.079" height="8.505"/>
		
			<rect x="237.935" y="194.744" transform="matrix(0.7071 -0.7071 0.7071 0.7071 -65.7383 239.2861)" fill="#58585A" width="36.079" height="8.505"/>
	</g>
	<g>
		
			<rect x="23.238" y="180.957" transform="matrix(0.7071 -0.7071 0.7071 0.7071 -132.66 77.7229)" fill="#58585A" width="8.505" height="36.079"/>
		
			<rect x="80.216" y="237.935" transform="matrix(0.7071 -0.7071 0.7071 0.7071 -156.2612 134.7014)" fill="#58585A" width="8.505" height="36.079"/>
	</g>
</g>
<g id="c5">
	
		<rect x="8.142" y="102.595" transform="matrix(0.7092 -0.705 0.705 0.7092 -64.8593 56.4424)" fill="#353333" width="55.703" height="8.504"/>
	
		<rect x="78.996" y="31.741" transform="matrix(0.705 -0.7092 0.7092 0.705 5.9949 86.3977)" fill="#353333" width="55.703" height="8.504"/>
	<g>
		
			<rect x="172.401" y="8.142" transform="matrix(0.7092 -0.705 0.705 0.7092 25.9914 135.0023)" fill="#353333" width="8.504" height="55.703"/>
		
			<rect x="243.255" y="78.996" transform="matrix(0.705 -0.7092 0.7092 0.705 -2.7592 207.0611)" fill="#353333" width="8.504" height="55.703"/>
	</g>
	<g>
		
			<rect x="148.802" y="243.255" transform="matrix(0.705 -0.7092 0.7092 0.705 -123.4227 198.3069)" fill="#353333" width="55.703" height="8.504"/>
		
			<rect x="219.656" y="172.401" transform="matrix(0.7092 -0.705 0.705 0.7092 -52.5685 225.853)" fill="#353333" width="55.703" height="8.504"/>
	</g>
	<g>
		
			<rect x="31.741" y="148.802" transform="matrix(0.705 -0.7092 0.7092 0.705 -114.6685 77.6435)" fill="#353333" width="8.504" height="55.703"/>
		
			<rect x="102.595" y="219.656" transform="matrix(0.7092 -0.705 0.705 0.7092 -143.4192 147.2931)" fill="#353333" width="8.504" height="55.703"/>
	</g>
</g>
<g id="c6">
	<path fill="#58585A" d="M251.992,141.75L141.75,251.992L31.508,141.75L141.75,31.508L251.992,141.75z M141.75,239.966
		l98.216-98.215L141.75,43.534L43.534,141.75L141.75,239.966z"/>
</g>
<g id="c8">
	
		<rect x="72.385" y="72.317" transform="matrix(0.7071 -0.7071 0.7071 0.7071 -58.7178 141.8527)" fill="#9D9FA2" width="138.976" height="138.976"/>
</g>
<g id="c2">
	<polygon fill="#353333" points="6.014,0.018 119.399,113.403 113.386,119.417 0,6.031 0,0.018 	"/>
	<polygon fill="#353333" points="6.014,283.482 119.399,170.097 113.386,164.083 0,277.469 0,283.482 	"/>
	<polygon fill="#353333" points="283.465,277.469 170.079,164.083 164.065,170.097 277.451,283.482 283.465,283.482 	"/>
	<polygon fill="#353333" points="277.451,0.018 164.065,113.403 170.079,119.417 283.465,6.031 283.465,0.018 	"/>
</g>
<g id="c9">
	<g>
		<circle fill="#353333" cx="141.732" cy="86.65" r="9.217"/>
		<circle fill="#353333" cx="196.892" cy="141.732" r="9.217"/>
		<circle fill="#353333" cx="86.65" cy="141.732" r="9.217"/>
		<circle fill="#353333" cx="141.732" cy="196.892" r="9.217"/>
	</g>
</g>
<g id="c10">
	<circle fill="#58585A" cx="141.75" cy="141.732" r="9.217"/>
</g>
</svg>
