<?xml version="1.0" encoding="utf-8"?>
<!-- Generator: Adobe Illustrator 22.0.0, SVG Export Plug-In . SVG Version: 6.00 Build 0)  -->
<svg version="1.1" xmlns="http://www.w3.org/2000/svg" xmlns:xlink="http://www.w3.org/1999/xlink" x="0px" y="0px"
	 viewBox="0 0 283.5 283.5" enable-background="new 0 0 283.5 283.5" xml:space="preserve">
<g id="c2">
	<path fill="#DEDEDE" d="M141.75,283.482C188.994,189.176,236.238,94.87,283.482,0.564c-47.244,0-94.488,0-141.732,0
		C141.75,94.87,141.75,189.176,141.75,283.482z"/>
</g>
<g id="c1">
	<path fill="#58585A" d="M283.482,0.018C236.238,94.324,188.994,188.63,141.75,282.936c47.244,0,94.488,0,141.732,0
		C283.482,188.63,283.482,94.324,283.482,0.018z"/>
</g>
<g id="c3">
	<path fill="#58585A" d="M141.75,0.018C94.506,94.324,47.262,188.63,0.018,282.936c47.244,0,94.488,0,141.732,0
		C141.75,188.63,141.75,94.324,141.75,0.018z"/>
</g>
<g id="c4">
	<path fill="#DEDEDE" d="M0.018,283.482C47.262,189.176,94.506,94.87,141.75,0.564c-47.244,0-94.488,0-141.732,0
		C0.018,94.87,0.018,189.176,0.018,283.482z"/>
</g>
</svg>
