<?xml version="1.0" encoding="utf-8"?>
<!-- Generator: Adobe Illustrator 22.0.0, SVG Export Plug-In . SVG Version: 6.00 Build 0)  -->
<svg version="1.1" xmlns="http://www.w3.org/2000/svg" xmlns:xlink="http://www.w3.org/1999/xlink" x="0px" y="0px"
	 viewBox="0 0 283.5 283.5" enable-background="new 0 0 283.5 283.5" xml:space="preserve">
<g id="Capa_1">
</g>
<g id="c7">
	<rect x="111.754" y="111.761" fill="#58585A" width="62.978" height="62.978"/>
</g>
<g id="c6">
	<path fill="#DEDEDE" d="M80.259,80.266v125.967h124.463V80.266H80.259z M174.732,174.739h-62.978v-62.978h62.978V174.739z"/>
</g>
<g id="c5">
	<path fill="#58585A" d="M47.233,47.241v190.502h188.998V47.241H47.233z M204.722,206.233H80.259V80.266h124.463V206.233z"/>
</g>
<g id="c4">
	<g>
		<path fill="#353333" d="M141.925,0C126.113,15.812,110.3,31.625,94.488,47.437c31.496,0,62.992,0,94.488,0
			C173.293,31.625,157.609,15.812,141.925,0z"/>
		<path fill="#353333" d="M141.539,283.465c15.812-15.812,31.625-31.625,47.437-47.437c-31.496,0-62.992,0-94.488,0
			C110.172,251.84,125.856,267.652,141.539,283.465z"/>
		<path fill="#353333" d="M47.437,188.976c0-31.496,0-62.992,0-94.488C31.625,110.301,15.812,126.113,0,141.926
			C15.812,157.609,31.625,173.293,47.437,188.976z"/>
		<path fill="#353333" d="M236.027,94.488c0,31.496,0,62.992,0,94.488c15.812-15.812,31.625-31.625,47.437-47.437
			C267.652,125.856,251.839,110.172,236.027,94.488z"/>
	</g>
</g>
<g id="c3">
	<g>
		<path fill="#DEDEDE" d="M0,47.437c15.812,15.684,31.625,31.367,47.437,47.051c-0.068-15.749-0.136-31.498-0.204-47.248
			c15.752,0.066,31.503,0.131,47.255,0.197C78.805,31.625,63.121,15.812,47.437,0C31.625,15.812,15.812,31.625,0,47.437z"/>
		<path fill="#DEDEDE" d="M236.027,94.488c15.812-15.684,31.625-31.367,47.437-47.051C267.652,31.625,251.84,15.812,236.027,0
			c-15.684,15.812-31.367,31.625-47.051,47.437c15.749-0.068,31.498-0.136,47.248-0.204
			C236.158,62.985,236.093,78.737,236.027,94.488z"/>
		<path fill="#DEDEDE" d="M236.231,236.224c-15.752-0.066-31.503-0.131-47.255-0.197c15.684,15.812,31.367,31.625,47.051,47.437
			c15.812-15.812,31.625-31.625,47.437-47.437c-15.812-15.684-31.625-31.367-47.437-47.051
			C236.095,204.726,236.163,220.475,236.231,236.224z"/>
		<path fill="#DEDEDE" d="M47.437,188.976C31.625,204.66,15.812,220.344,0,236.027c15.812,15.812,31.625,31.625,47.437,47.437
			c15.684-15.812,31.367-31.625,47.051-47.437c-15.749,0.068-31.498,0.136-47.248,0.204
			C47.306,220.48,47.372,204.728,47.437,188.976z"/>
	</g>
</g>
<g id="c2">
	<g>
		<polygon fill="#58585A" points="141.732,0.193 188.976,47.437 236.414,0 141.925,0 141.539,0 47.051,0 94.488,47.437 		"/>
		<polygon fill="#58585A" points="0.193,141.732 47.437,94.488 0,47.051 0,141.539 0,141.926 0,236.414 47.437,188.976 		"/>
		<polygon fill="#58585A" points="141.732,283.271 94.488,236.027 47.051,283.465 47.058,283.472 141.546,283.472 141.918,283.472 
			236.407,283.472 236.414,283.465 188.976,236.027 		"/>
		<polygon fill="#58585A" points="236.027,94.488 283.271,141.732 236.027,188.976 283.464,236.414 283.464,141.925 
			283.464,141.539 283.464,47.051 		"/>
	</g>
</g>
<g id="c1">
	<g>
		<polygon fill="#353333" points="0.018,47.451 47.455,0.014 0.018,0.014 		"/>
		<polygon fill="#353333" points="0.018,283.486 47.448,283.486 47.455,283.479 0.018,236.041 		"/>
		<polygon fill="#353333" points="236.052,283.486 283.482,283.486 283.482,236.042 236.045,283.479 		"/>
		<polygon fill="#353333" points="236.045,0.014 283.482,47.451 283.482,0.014 		"/>
	</g>
</g>
</svg>
