<?xml version="1.0" encoding="utf-8"?>
<!-- Generator: Adobe Illustrator 22.0.0, SVG Export Plug-In . SVG Version: 6.00 Build 0)  -->
<svg version="1.1" xmlns="http://www.w3.org/2000/svg" xmlns:xlink="http://www.w3.org/1999/xlink" x="0px" y="0px"
	 viewBox="0 0 283.5 283.5" enable-background="new 0 0 283.5 283.5" xml:space="preserve">
<g id="Capa_1" display="none">
	<rect x="157.482" y="157.493" display="inline" fill="#6A6967" width="125.983" height="125.968"/>
	<rect x="220.473" y="220.477" display="inline" fill="#DEDEDE" width="62.986" height="62.979"/>
	<path display="inline" fill="#353333" d="M283.459,94.484c-62.998,0-125.996,0-188.994,0c0,62.991,0,125.983,0,188.974
		c21.006,0.002,42.011,0.004,63.017,0.006c0-41.989,0-83.979,0-125.968c41.994,0,83.988,0,125.983,0
		C283.463,136.492,283.461,115.488,283.459,94.484z"/>
</g>
<g id="c6">
	<rect x="157.517" y="157.52" fill="#6A6967" width="125.983" height="125.968"/>
</g>
<g id="c7">
	<rect x="220.509" y="220.512" fill="#DEDEDE" width="62.986" height="62.979"/>
</g>
<g id="c5">
	<path fill="#353333" d="M283.494,94.52c-62.998,0-125.996,0-188.994,0c0,62.991,0,125.983,0,188.974
		c21.006,0.002,42.011,0.004,63.017,0.006c0-41.989,0-83.979,0-125.968c41.994,0,83.988,0,125.983,0
		C283.498,136.528,283.496,115.524,283.494,94.52z"/>
</g>
<g id="c4">
	<g>
		<path fill="#DEDEDE" d="M188.965,94.456C220.454,62.971,251.942,31.485,283.431,0c0.009,31.494,0.019,62.988,0.028,94.481
			C251.961,94.473,220.463,94.464,188.965,94.456z"/>
		<path fill="#DEDEDE" d="M94.498,188.974C62.999,220.449,31.499,251.924,0,283.399c31.488,0.019,62.977,0.038,94.465,0.057
			C94.476,251.962,94.487,220.468,94.498,188.974z"/>
	</g>
</g>
<g id="c3">
	<path fill="#DEDEDE" d="M0,94.424C31.499,62.95,62.999,31.475,94.498,0c31.489,31.485,62.978,62.97,94.467,94.455
		c-31.5,0.008-63,0.017-94.5,0.025c0.011,31.497,0.022,62.995,0.033,94.493C62.999,157.457,31.499,125.941,0,94.424z"/>
</g>
<g id="c2">
	<g>
		<polygon fill="#6A6967" points="94.499,0 94.498,0 188.965,94.456 283.431,0 283.431,0 		"/>
		<polygon fill="#6A6967" points="0,94.55 0,283.399 0.032,283.43 94.498,188.974 0.032,94.518 		"/>
	</g>
</g>
<g id="c1">
	<path fill="#353333" d="M0,0v94.424l0.032,0.032c2.402-2.402,4.805-4.804,7.207-7.206C36.325,58.167,65.412,29.084,94.498,0
		c0,0,0,0,0,0H0z"/>
</g>
</svg>
