<?xml version="1.0" encoding="utf-8"?>
<!-- Generator: Adobe Illustrator 22.0.0, SVG Export Plug-In . SVG Version: 6.00 Build 0)  -->
<svg version="1.1" xmlns="http://www.w3.org/2000/svg" xmlns:xlink="http://www.w3.org/1999/xlink" x="0px" y="0px"
	 viewBox="0 0 283.5 283.5" enable-background="new 0 0 283.5 283.5" xml:space="preserve">
<g id="c1">
	<rect x="0.082" y="0.019" fill="#5A595B" width="283.401" height="283.457"/>
</g>
<g id="c2">
	<path fill="#DEDEDE" d="M77.853,4.962c-9.872,2.804-22.965,6.522-36.582,17.155C25.939,34.09,18.633,48.043,15.11,54.95
		C8.575,67.762,6.232,78.936,3.796,90.554c-1.183,5.64-3.298,15.73-3.715,27.393c-0.258,7.214-0.167,23.624,9.03,50.999
		c6.921,20.599,15.566,46.688,38.825,72.498c8.556,9.494,26.973,27.709,51.988,36.999c11.897,4.418,20.31,4.969,24.661,5.032
		c12.201,0.176,21.409-3.069,28.66-5.699c5.473-1.985,14.261-5.641,30.326-16.333c20.462-13.618,35.048-26.884,42.49-33.999
		c18.021-17.229,28.739-31.474,30.993-34.499c9.541-12.808,14.605-19.277,18.996-29.999c6.328-15.455,7.416-29.394,7.431-37.832
		c0.007-4.13-0.229-14.633-3.765-27.499c-7.685-27.961-25.129-45.883-33.159-53.165c-13.899-12.604-27.373-18.524-42.49-25.166
		c-15.145-6.654-27.415-9.885-34.607-11.746c-13.025-3.37-29.365-7.485-51.04-7.519C108.838,0.003,95.037,0.082,77.853,4.962z"/>
</g>
</svg>
