<?xml version="1.0" encoding="utf-8"?>
<!-- Generator: Adobe Illustrator 22.0.0, SVG Export Plug-In . SVG Version: 6.00 Build 0)  -->
<svg version="1.1" xmlns="http://www.w3.org/2000/svg" xmlns:xlink="http://www.w3.org/1999/xlink" x="0px" y="0px"
	 viewBox="0 0 283.5 283.5" enable-background="new 0 0 283.5 283.5" xml:space="preserve">
<g id="Capa_1">
</g>
<g id="c1">
	<rect x="0.071" y="0.071" fill="#DEDEDE" width="283.359" height="283.359"/>
</g>
<g id="c6">
	<path fill="#6A6967" d="M283.394,283.394c0.018,0,0.035,0,0.053,0c-0.017-0.022-0.036-0.044-0.053-0.066c0-20.863,0-41.727,0-62.59
		c0-6.475,0-12.95,0-19.424c-5.664-12.311-11.777-24.93-18.378-37.804c-4.307-8.401-8.646-16.565-12.995-24.491
		c1.694,0.076,6.673,0.079,11.496-3.249c5.885-4.061,7.367-10.206,7.747-12.245c1.305-7.007-1.686-12.382-2.499-13.745
		c2.009-1.876,5.039-5.231,6.997-10.246c3.696-9.465,0.909-18.016,0-20.492c-2.278-0.045-5.436,0.158-8.997,1.25
		c-5.796,1.778-9.675,4.996-11.679,6.937c0.818,1.615,1.815,3.831,2.682,6.558c0.337,1.06,1.763,5.686,1.999,10.746
		c0.527,11.307-5.099,20.315-5.373,20.742c-6.374,9.925-15.984,13.339-18.868,14.245c2.406,2.757,5.624,6.569,9.247,11.246
		c2.322,2.997,10.487,13.597,16.744,24.491c4.786,8.333,11.824,22.705,16.494,43.484c-1.864,0.69-3.728,1.381-5.592,2.071
		c-3.801-7.438-7.601-14.876-11.402-22.313c-2.624,0.781-6.613,1.649-11.496,1.499c-3.624-0.111-9.144-0.825-14.994-3.749
		c-9.6-4.797-14.19-12.592-15.494-14.994c-2.301-4.238-6.7-14.388-3.249-25.99c1.594-5.359,4.322-9.207,6.248-11.496
		c-2.339-3.344-5.812-7.599-10.746-11.746c-4.667-3.923-9.19-6.531-12.745-8.247c-1.71,3.361-3.838,8.696-4.248,15.494
		c-0.192,3.175-0.559,10.874,3.749,18.993c1.675,3.157,3.58,5.478,4.998,6.997c-0.99,1.393-2.272,3.489-3.249,6.248
		c-1.909,5.389-1.483,9.998-1.25,11.746c0.49,3.663,1.71,6.551,2.749,8.497c0.668,1.654,3.135,7.168,9.247,10.246
		c3.3,1.663,6.385,1.971,8.247,1.999c-0.251,1.219-0.851,4.94,1.179,8.668c2.294,4.213,6.393,5.58,8.229,6.192
		c6.427,2.143,12.138-0.338,13.712-1.088c0.492-0.297,8.822-5.154,16.116-1.027c2.582,1.461,4.133,3.538,4.998,4.998
		c-3.332,1.333-6.664,2.666-9.996,3.999c-2.486,1.187-5.297,2.733-8.247,4.748c-2.986,2.041-5.48,4.13-7.524,6.057
		c-0.006-0.005-0.012-0.01-0.018-0.015c-0.113,0.116-0.23,0.241-0.344,0.361c-0.12,0.115-0.244,0.231-0.361,0.344
		c0.005,0.006,0.01,0.012,0.014,0.018c-1.927,2.044-4.016,4.538-6.057,7.524c-2.016,2.95-3.562,5.761-4.748,8.247
		c-1.333,3.332-2.666,6.664-3.999,9.996c-1.46-0.865-3.537-2.416-4.998-4.998c-4.127-7.294,0.73-15.624,1.027-16.115
		c0.749-1.574,3.231-7.286,1.088-13.712c-0.612-1.836-1.979-5.935-6.192-8.229c-3.728-2.03-7.449-1.429-8.668-1.179
		c-0.028-1.862-0.337-4.947-1.999-8.247c-3.079-6.111-8.592-8.579-10.246-9.247c-1.946-1.039-4.834-2.259-8.497-2.749
		c-1.747-0.233-6.356-0.66-11.746,1.25c-2.758,0.977-4.855,2.259-6.248,3.249c-1.519-1.418-3.84-3.323-6.997-4.998
		c-8.119-4.307-15.818-3.94-18.993-3.749c-6.798,0.41-12.134,2.539-15.494,4.248c1.716,3.555,4.324,8.078,8.247,12.745
		c4.147,4.934,8.401,8.407,11.746,10.746c2.289-1.926,6.136-4.653,11.496-6.248c11.602-3.451,21.752,0.948,25.99,3.249
		c2.402,1.304,10.198,5.894,14.994,15.494c2.923,5.851,3.638,11.371,3.749,14.994c0.149,4.883-0.719,8.871-1.499,11.496
		c7.438,3.801,14.876,7.601,22.313,11.402c-0.69,1.864-1.381,3.728-2.071,5.592c-20.779-4.67-35.151-11.708-43.484-16.494
		c-10.894-6.257-21.493-14.422-24.491-16.744c-4.677-3.622-8.488-6.841-11.246-9.247c-0.906,2.884-4.32,12.494-14.245,18.868
		c-0.427,0.274-9.435,5.9-20.742,5.373c-5.06-0.236-9.686-1.662-10.746-1.999c-2.727-0.867-4.943-1.864-6.558-2.682
		c-1.941,2.004-5.159,5.882-6.937,11.679c-1.092,3.561-1.295,6.719-1.25,8.997c2.476,0.909,11.027,3.696,20.492,0
		c5.015-1.958,8.371-4.988,10.246-6.997c1.363,0.813,6.738,3.804,13.745,2.499c2.039-0.38,8.184-1.862,12.245-7.747
		c3.328-4.822,3.325-9.802,3.249-11.496c7.926,4.35,16.09,8.688,24.491,12.995c12.874,6.601,25.493,12.714,37.804,18.378
		c6.475,0,12.95,0,19.424,0c20.863,0,41.725,0,62.587,0c0.023,0.017,0.046,0.036,0.069,0.053
		C283.394,283.429,283.394,283.412,283.394,283.394z"/>
</g>
<g id="c11">
	<path fill="#353333" d="M283.395,283.326c0.035-4.077,0.07-8.155,0.105-12.232c-6.038-6.323-12.076-12.645-18.114-18.968
		c-0.373-0.349-3.416-3.1-7.617-2.399c-2.855,0.476-4.592,2.268-5.147,2.895c-0.627,0.555-2.419,2.291-2.895,5.147
		c-0.701,4.201,2.05,7.244,2.399,7.617c6.323,6.038,12.645,12.076,18.968,18.114c4.075-0.035,8.15-0.07,12.225-0.105
		c0.025,0.017,0.051,0.035,0.075,0.052c0-0.017,0-0.035,0-0.052c0.017,0,0.035,0,0.052,0
		C283.43,283.372,283.412,283.349,283.395,283.326z"/>
</g>
<g id="c10">
	<path fill="#9D9FA2" d="M258.019,216.74c-4.403-2.448-9.024-1.479-10.533-1.163c-4.082,0.856-4.293,2.424-9.211,3.505
		c-1.598,0.351-3.82,0.821-6.621,0.531c-2.051-0.212-6.806-0.704-10.121-4.623c-3.778-4.467-2.903-10.096-2.749-10.996
		c-1.862-0.028-4.947-0.337-8.247-1.999c-6.111-3.079-8.579-8.592-9.247-10.246c-0.111,0.833-0.384,2.111-1.125,3.499
		c-0.651,1.219-1.425,2.079-1.999,2.624l0,0c-0.098,0.098-0.196,0.196-0.295,0.295c-0.545,0.574-1.405,1.349-2.624,1.999
		c-1.388,0.741-2.666,1.014-3.499,1.125c1.654,0.668,7.167,3.135,10.246,9.247c1.663,3.3,1.971,6.385,1.999,8.247
		c0.9-0.154,6.529-1.029,10.996,2.749c3.919,3.315,4.411,8.07,4.623,10.121c0.29,2.801-0.18,5.023-0.531,6.621
		c-1.081,4.918-2.649,5.129-3.505,9.211c-0.316,1.509-1.285,6.13,1.163,10.533c1.511,2.718,3.711,4.249,4.998,4.998
		c0.77-2.297,1.894-5.313,3.499-8.747c1.178-2.521,2.682-5.704,5.248-9.496c1.47-2.173,3.563-4.94,6.403-7.886
		c2.947-2.841,5.714-4.933,7.886-6.403c3.792-2.566,6.976-4.07,9.496-5.248c3.434-1.605,6.45-2.729,8.747-3.499
		C262.268,220.451,260.737,218.251,258.019,216.74z"/>
</g>
<g id="c9">
	<g>
		<path fill="#353333" d="M226.531,149.64c-1.41,1.837-3.547,5.101-4.623,9.621c-2.772,11.643,4.006,21.081,5.248,22.742
			c4.971,6.646,11.345,9.109,12.745,9.621c7.284,2.666,13.599,1.46,15.994,0.875c-2.622-6.19-6.236-13.397-11.246-20.992
			C238.534,162.235,232.078,155.022,226.531,149.64z"/>
		<path fill="#353333" d="M149.64,226.531c1.837-1.41,5.101-3.547,9.621-4.623c11.643-2.772,21.081,4.006,22.742,5.248
			c6.646,4.971,9.109,11.345,9.621,12.745c2.666,7.284,1.46,13.599,0.875,15.994c-6.19-2.622-13.397-6.236-20.992-11.246
			C162.235,238.534,155.022,232.078,149.64,226.531z"/>
	</g>
</g>
<g id="c8">
	<g>
		<path fill="#353333" d="M248.273,87.788c-3.205,3.447-6.974,8.273-10.121,14.62c-6.348,12.803-6.689,24.794-6.373,31.238
			c2.358-0.397,6.089-1.342,9.871-3.874c9.542-6.388,11.129-17.453,11.496-19.993C254.748,98.685,249.824,90.235,248.273,87.788z"/>
		<path fill="#353333" d="M87.788,248.273c3.447-3.205,8.273-6.974,14.62-10.121c12.803-6.348,24.794-6.689,31.238-6.373
			c-0.397,2.358-1.342,6.089-3.874,9.871c-6.388,9.542-17.453,11.129-19.993,11.496C98.685,254.748,90.235,249.824,87.788,248.273z"
			/>
	</g>
</g>
<g id="c5">
	<path fill="#9D9FA2" d="M102.542,35.022c-3.897,0.347-6.91,1.674-7.872,2.124c-2.652,1.24-4.547,2.89-7.497,5.373
		c-1.654,1.392-1.328,1.246-3.749,3.374c-5.973,5.249-7.707,5.927-8.747,6.248c-2.55,0.786-4.623,0.562-5.123,0.5
		c-2.494-0.309-4.307-1.357-5.248-1.999c-7.039-6.997-14.078-13.995-21.117-20.992c-0.209-0.194-2.346-2.114-5.123-1.499
		c-1.759,0.389-2.784,1.575-3.079,1.944c-1.212,1.517-1.235,3.167-1.219,3.674c-0.507-0.016-2.157,0.007-3.674,1.219
		c-0.369,0.295-1.555,1.32-1.944,3.079c-0.614,2.777,1.305,4.914,1.499,5.123c6.997,7.039,13.995,14.078,20.992,21.117
		c0.642,0.941,1.69,2.754,1.999,5.248c0.062,0.5,0.286,2.573-0.5,5.123c-0.32,1.04-0.998,2.774-6.248,8.747
		c-2.127,2.421-1.982,2.095-3.374,3.749c-2.483,2.95-4.133,4.845-5.373,7.497c-0.45,0.962-1.777,3.975-2.124,7.872
		c-0.688,7.728,2.942,13.741,4.373,15.869c1.728-0.417,4.096-1.126,6.747-2.374c6.288-2.96,10.049-7.011,11.246-8.372
		c3.322-3.778,4.922-7.304,6.123-10.121c1.475-3.461,3.299-8.841,3.874-15.869c0.376,1.123,1.277,3.292,3.374,5.123
		c3.142,2.744,6.807,2.837,8.247,2.874c4.033,0.103,7.013-1.515,8.29-2.319c0.005,0.004,0.01,0.008,0.015,0.012
		c0.006-0.009,0.014-0.023,0.02-0.033c0.01-0.006,0.024-0.014,0.033-0.02c-0.004-0.005-0.008-0.01-0.012-0.014
		c0.804-1.277,2.422-4.257,2.32-8.291c-0.037-1.44-0.13-5.105-2.874-8.247c-1.831-2.096-4.001-2.998-5.123-3.374
		c7.028-0.574,12.408-2.398,15.869-3.874c2.817-1.201,6.343-2.801,10.121-6.123c1.361-1.197,5.412-4.958,8.372-11.246
		c1.248-2.652,1.957-5.019,2.374-6.747C116.283,37.964,110.27,34.334,102.542,35.022z"/>
</g>
<g id="c7">
	<path fill="#6A6967" d="M64.675,64.675c0.054,0.032,0.099,0.058,0.127,0.074c-0.262-0.415-0.546-0.845-0.835-1.278
		c-1.981-3.352-7.179-12.007-10.532-16.329c-0.685-0.883-1.877-2.338-3.749-2.624c-1.724-0.263-3.223,0.589-3.999,1.125l0,0l0,0l0,0
		l0,0c-0.535,0.757-1.436,2.282-1.169,4.043c0.282,1.864,1.727,3.053,2.624,3.749c4.686,3.635,14.466,9.44,17.056,10.961
		c0.183,0.134,0.37,0.276,0.55,0.406C64.724,64.759,64.7,64.717,64.675,64.675z"/>
</g>
<g id="c4">
	<g>
		<path fill="#9D9FA2" d="M29.819,0.053c4.891,4.499,11.45,9.388,19.861,13.264c11.306,5.209,20.828,6.224,28.371,6.961
			c12.892,1.26,19.103-0.567,20.867-1.125c3.763-1.19,8.812-2.86,12.745-7.747c3.449-4.285,4.344-8.935,4.623-11.353
			c-3.999,0-7.997,0-11.996,0c-0.709,1.335-1.961,3.313-4.052,5.187c-0.799,0.716-3.99,3.451-9.08,4.475
			c-4.078,0.82-7.454,0.156-9.288-0.362c-1.47-0.415-4.427-1.284-7.292-3.859c-2.199-1.977-3.403-4.112-4.026-5.441
			C56.975,0.053,43.397,0.053,29.819,0.053z"/>
		<path fill="#9D9FA2" d="M0.053,29.819c4.499,4.891,9.388,11.45,13.264,19.861c5.209,11.306,6.224,20.828,6.961,28.371
			c1.26,12.892-0.567,19.103-1.125,20.867c-1.19,3.763-2.86,8.812-7.747,12.745c-4.285,3.449-8.935,4.344-11.353,4.623
			c0-3.999,0-7.997,0-11.996c1.335-0.709,3.313-1.961,5.187-4.052c0.716-0.799,3.451-3.99,4.475-9.08
			c0.82-4.078,0.156-7.454-0.362-9.288c-0.415-1.47-1.284-4.427-3.859-7.292c-1.977-2.199-4.112-3.403-5.441-4.026
			C0.053,56.975,0.053,43.397,0.053,29.819z"/>
	</g>
</g>
<g id="c3">
	<g>
		<path fill="#353333" d="M70.554,0.053c0.703,1.482,2.208,4.135,5.123,6.355c3.788,2.885,7.69,3.312,9.621,3.499
			c1.798,0.173,6.408,0.554,11.325-2.107c4.559-2.467,6.818-6.159,7.667-7.747C93.045,0.053,81.799,0.053,70.554,0.053z"/>
		<path fill="#353333" d="M0.053,70.554c1.482,0.703,4.135,2.208,6.355,5.123c2.885,3.788,3.312,7.69,3.499,9.621
			c0.173,1.798,0.554,6.408-2.107,11.325c-2.467,4.559-6.159,6.818-7.747,7.667C0.053,93.045,0.053,81.799,0.053,70.554z"/>
	</g>
</g>
<g id="c2">
	<path fill="#353333" d="M116.287,0.053c-0.36,2.536-1.547,8.266-6.248,12.977c-3.024,3.031-6.189,4.324-8.649,5.299
		c-6.874,2.726-12.774,2.533-19.835,2.228c-4.685-0.202-11.882-0.559-20.976-3.231c-11.843-3.48-19.942-8.841-23.087-11.063
		c-3.308-2.338-5.884-4.557-7.673-6.21c-9.904,0-19.808,0-29.713,0C0.088,0.035,0.071,0.018,0.053,0c0,0.018,0,0.035,0,0.053
		c-0.018,0-0.035,0-0.053,0c0.015,0.046,0.035,0.103,0.053,0.155c0,9.87,0,19.74,0,29.61c1.652,1.789,3.872,4.365,6.21,7.673
		c2.222,3.145,7.583,11.244,11.063,23.087c2.672,9.094,3.029,16.291,3.231,20.976c0.305,7.061,0.498,12.962-2.228,19.835
		c-0.975,2.459-2.268,5.624-5.299,8.649c-4.711,4.701-10.441,5.888-12.977,6.248c0,5.248,0,10.496,0,15.744
		c3.898-0.889,12.323-3.399,19.6-10.871c6.597-6.773,8.849-14.132,9.871-17.618c1.974-6.733,1.821-12.046,1.624-18.868
		c-0.103-3.569-0.496-10.236-2.749-20.617c-3.053-14.07-7.223-24.348-10.621-32.613C14.89,24.419,10.827,15.422,5.252,5.252
		c10.17,5.575,19.167,9.638,26.191,12.527c8.264,3.398,18.543,7.568,32.613,10.621c10.382,2.253,17.048,2.646,20.617,2.749
		c6.821,0.197,12.135,0.35,18.868-1.624c3.487-1.023,10.845-3.275,17.618-9.871c7.472-7.277,9.982-15.702,10.871-19.6
		C126.783,0.053,121.535,0.053,116.287,0.053z"/>
</g>
</svg>
