<?xml version="1.0" encoding="utf-8"?>
<!-- Generator: Adobe Illustrator 22.0.0, SVG Export Plug-In . SVG Version: 6.00 Build 0)  -->
<svg version="1.1" xmlns="http://www.w3.org/2000/svg" xmlns:xlink="http://www.w3.org/1999/xlink" x="0px" y="0px"
	 viewBox="0 0 283.5 283.5" enable-background="new 0 0 283.5 283.5" xml:space="preserve">
<g id="Capa_1">
</g>
<g id="c1">
	<path fill="#FFFFFF" stroke="#000000" stroke-width="3.3338" stroke-miterlimit="10" d="M61.291,27.807"/>
	<path fill="#FFFFFF" stroke="#000000" stroke-width="3.3338" stroke-miterlimit="10" d="M255.672,222.292"/>
	<path fill="#FFFFFF" stroke="#000000" stroke-width="3.3338" stroke-miterlimit="10" d="M222.173,255.808"/>
	<g>
		<path fill="#353333" d="M283.424,271.453v-20.81c0-3.047,0.06-6.033,0.06-9.08c-4.014,3.306-8.087,6.55-12.101,9.856l0,0
			c0,6.678,0,13.356,0,20.034H251.36v0c-3.304,4.016-6.608,8.032-9.911,12.047c3.304,0,6.608,0,9.911,0h32.14
			C283.475,279.484,283.449,275.469,283.424,271.453z"/>
		<path fill="#353333" d="M42.273,0.076L42.273,0.076C28.281,0.051,14.289,0.025,0.297,0l0,0l0,0v32.157c0,3.306,0,6.611,0,9.917
			c4.014-3.306,8.027-6.611,12.041-9.917h0V12.123c6.675,0,13.349,0,20.024,0C35.665,8.107,38.969,4.092,42.273,0.076z"/>
	</g>
	<path fill="#FFFFFF" stroke="#000000" stroke-width="3.3338" stroke-miterlimit="10" d="M27.793,61.324"/>
</g>
<g id="c6">
	<path fill="#FFFFFF" stroke="#000000" stroke-width="3.3338" stroke-miterlimit="10" d="M255.672,222.252"/>
	<g>
		<path fill="#6A6967" d="M283.5-0.04h-28.917c0,15.809,12.878,28.625,28.763,28.625c0.052,0,0.102-0.004,0.154-0.004V-0.04z"/>
		<path fill="#6A6967" d="M0,283.5h28.483c0-15.655-12.684-28.346-28.331-28.346c-0.051,0-0.101,0.004-0.152,0.004L0,283.5z"/>
	</g>
	<path fill="#FFFFFF" stroke="#000000" stroke-width="3.3338" stroke-miterlimit="10" d="M27.793,61.284"/>
</g>
<g id="c11">
	<path fill="#FFFFFF" stroke="#000000" stroke-width="3.3338" stroke-miterlimit="10" d="M61.291,27.768"/>
	<path fill="#FFFFFF" stroke="#000000" stroke-width="3.3338" stroke-miterlimit="10" d="M255.672,222.252"/>
	<path fill="#FFFFFF" stroke="#000000" stroke-width="3.3338" stroke-miterlimit="10" d="M222.173,255.768"/>
	<g>
		<path fill="#9D9FA2" d="M271.348,271.453c0.025,0,0.051,0,0.076,0c-0.025-0.032-0.051-0.064-0.076-0.095
			c0-6.646,0-13.293,0-19.939c-2.243-0.616-5.753-1.915-9.013-4.833c-5.035-4.508-6.455-10.176-7.663-15
			c-0.848-3.388-1.772-8.837-0.999-15.667c-1.321-0.525-3.073-1.036-5.164-1.167c-5.565-0.348-9.744,2.231-11.327,3.333
			c-1.366-1.055-3.135-2.164-5.33-3c-7.221-2.75-13.941-0.608-16.421,0.335c-0.013-0.01-0.027-0.021-0.04-0.032
			c-0.007,0.017-0.014,0.037-0.021,0.055c-0.018,0.007-0.038,0.014-0.055,0.021c0.011,0.011,0.023,0.023,0.034,0.034
			c-0.942,2.477-3.088,9.206-0.337,16.436c0.836,2.197,1.944,3.967,2.998,5.333c-1.102,1.584-3.68,5.765-3.332,11.333
			c0.131,2.092,0.641,3.845,1.166,5.167c6.826-0.773,12.273,0.151,15.658,1c4.821,1.208,10.487,2.629,14.992,7.667
			c2.917,3.262,4.215,6.774,4.831,9.018c6.649,0,13.299,0,19.948,0c0.025,0.025,0.051,0.051,0.076,0.076
			C271.348,271.503,271.348,271.478,271.348,271.453z"/>
		<path fill="#9D9FA2" d="M68.119,68.03c0.943-2.483,3.083-9.206,0.335-16.429c-0.836-2.197-1.944-3.967-2.998-5.333
			c1.102-1.584,3.68-5.765,3.332-11.333c-0.131-2.092-0.641-3.845-1.166-5.167c-6.826,0.773-12.273-0.151-15.658-1
			c-4.821-1.209-10.487-2.629-14.992-7.667c-2.917-3.262-4.215-6.774-4.831-9.018c-6.642,0-13.283,0-19.925,0
			c-0.033-0.025-0.066-0.051-0.099-0.076c0,0.025,0,0.051,0,0.076c-0.025,0-0.051,0-0.076,0c0.025,0.025,0.051,0.051,0.076,0.076
			c0,6.653,0,13.306,0,19.959c2.243,0.616,5.753,1.915,9.013,4.833c5.035,4.508,6.455,10.176,7.663,15
			c0.848,3.388,1.772,8.837,0.999,15.667c1.321,0.525,3.073,1.036,5.164,1.167c5.565,0.348,9.744-2.231,11.327-3.333
			c1.366,1.055,3.135,2.164,5.33,3c7.226,2.752,13.952,0.605,16.427-0.338c0.011,0.011,0.023,0.023,0.034,0.034
			c0.007-0.017,0.014-0.037,0.021-0.055c0.018-0.007,0.038-0.014,0.055-0.021C68.14,68.057,68.13,68.044,68.119,68.03z"/>
	</g>
	<path fill="#FFFFFF" stroke="#000000" stroke-width="3.3338" stroke-miterlimit="10" d="M27.793,61.284"/>
</g>
<g id="c10">
	<path fill="#FFFFFF" stroke="#000000" stroke-width="3.3338" stroke-miterlimit="10" d="M61.291,27.768"/>
	<path fill="#FFFFFF" stroke="#000000" stroke-width="3.3338" stroke-miterlimit="10" d="M255.672,222.252"/>
	<path fill="#FFFFFF" stroke="#000000" stroke-width="3.3338" stroke-miterlimit="10" d="M222.173,255.768"/>
	<path fill="#353333" d="M271.33,200.918c-1.776-5.307-4.329-8.774-6.497-11.667c-4.709-6.284-9.434-10.002-14.159-13.667
		c-4.529-3.512-10.743-8.271-19.989-12.5c-10.136-4.635-18.543-6.177-24.154-7.167c-7.843-1.384-19.469-2.595-33.649-1
		c0.556-7.035,1.657-14.956,3.665-23.5c3.844-16.357,9.758-29.667,15.204-39.621c-0.123,0.072-0.25,0.149-0.376,0.224
		c0.1-0.1,0.2-0.2,0.3-0.3c-9.949,5.45-23.251,11.367-39.6,15.212c-8.54,2.009-16.456,3.11-23.487,3.667
		c1.594-14.187,0.383-25.82-0.999-33.667c-0.989-5.613-2.53-14.026-7.163-24.167c-4.226-9.251-8.416-16.119-11.926-20.65
		c-3.662-4.728-7.946-8.805-14.226-13.516c-2.891-2.169-6.356-4.723-11.66-6.5c-1.672-0.56-6.463-2.027-12.826-1.833
		c-3.075,0.094-9.357,0.358-16.158,4.167c-6.164,3.452-9.738,8.125-11.49,10.827c1.792,0.892,3.93,1.809,6.396,2.598
		c2.754,0.882,5.278,1.4,7.431,1.708c1.026-1.191,2.705-2.867,5.159-4.3c1.446-0.844,5.068-2.717,9.994-2.765
		c3.281-0.032,5.685,0.76,7.663,1.432c7.216,2.449,10.525,7.022,11.593,8.183c4.248,4.618,7.116,9.462,7.897,12.15
		c-0.573,0.153-7.203,2.033-8.677,7.591c-0.229,0.863-0.415,2.123-0.161,3.71c1.725-0.496,7.421-1.896,13.502,0.865
		c5.618,2.551,8.214,7.133,9.328,9.167c3.258,5.948,2.99,11.473,2.665,19.333c-0.251,6.079-0.61,15.331-1.043,28.973
		c-13.635,0.433-22.881,0.792-28.957,1.044c-7.856,0.325-13.379,0.593-19.323-2.667c-2.032-1.114-6.612-3.712-9.162-9.333
		c-2.76-6.084-1.36-11.782-0.864-13.509c-1.586-0.254-2.846-0.068-3.708,0.161c-5.555,1.474-7.434,8.108-7.587,8.681
		c-2.687-0.781-7.545-2.583-12.16-6.833c-1.16-1.069-5.715-5.447-8.162-12.667c-0.671-1.979-1.463-4.384-1.431-7.667
		c0.048-4.928,1.92-8.553,2.763-9.999c1.432-2.455,3.107-4.135,4.297-5.162c-0.308-2.154-0.826-4.68-1.708-7.435
		c-0.789-2.467-1.705-4.606-2.597-6.399c-2.701,1.753-7.371,5.329-10.821,11.496c-3.807,6.805-4.071,13.09-4.164,16.167
		c-0.193,6.367,1.272,11.16,1.832,12.833c1.776,5.307,4.329,8.774,6.497,11.667c4.709,6.284,9.434,10.002,14.159,13.667
		c4.529,3.512,10.743,8.271,19.989,12.5c10.136,4.635,18.543,6.177,24.154,7.167c7.843,1.384,19.469,2.595,33.649,1
		c-0.556,7.035-1.657,14.956-3.665,23.5c-3.844,16.357-9.758,29.667-15.204,39.621c0.123-0.072,0.25-0.149,0.376-0.224
		c-0.1,0.1-0.2,0.2-0.3,0.3c9.949-5.45,23.251-11.367,39.6-15.212c8.54-2.009,16.456-3.11,23.487-3.667
		c-1.594,14.187-0.383,25.82,0.999,33.667c0.989,5.613,2.53,14.026,7.163,24.167c4.226,9.251,8.983,15.469,12.493,20
		c3.662,4.728,7.379,9.456,13.659,14.167c2.891,2.169,6.356,4.723,11.66,6.5c1.672,0.56,6.463,2.027,12.826,1.833
		c3.075-0.094,9.357-0.358,16.158-4.167c6.164-3.452,9.738-8.125,11.49-10.827c-1.792-0.892-3.93-1.809-6.396-2.598
		c-2.754-0.882-5.278-1.4-7.431-1.708c-1.026,1.191-2.705,2.867-5.159,4.3c-1.446,0.844-5.068,2.717-9.994,2.765
		c-3.281,0.032-5.685-0.76-7.663-1.432c-7.216-2.449-11.592-7.006-12.66-8.167c-4.248-4.618-6.049-9.479-6.83-12.167
		c0.573-0.153,7.203-2.033,8.677-7.591c0.229-0.863,0.415-2.123,0.161-3.71c-1.725,0.496-7.421,1.896-13.502-0.865
		c-5.618-2.551-8.214-7.133-9.328-9.167c-3.258-5.948-2.99-11.473-2.665-19.333c0.251-6.079,0.61-15.331,1.043-28.973
		c13.635-0.433,22.881-0.792,28.957-1.044c7.856-0.325,13.379-0.593,19.323,2.667c2.032,1.114,6.612,3.712,9.162,9.333
		c2.76,6.084,1.36,11.782,0.864,13.509c1.586,0.254,2.846,0.068,3.708-0.161c5.555-1.474,7.434-8.108,7.587-8.681
		c2.687,0.781,7.545,2.583,12.16,6.833c1.16,1.069,5.715,5.447,8.162,12.667c0.671,1.979,1.463,4.384,1.431,7.667
		c-0.048,4.928-1.92,8.553-2.763,9.999c-1.432,2.455-3.107,4.135-4.297,5.162c0.308,2.154,0.826,4.68,1.708,7.435
		c0.789,2.467,1.705,4.606,2.597,6.399c2.701-1.753,7.371-5.329,10.821-11.496c3.807-6.805,4.071-13.09,4.164-16.167
		C273.356,207.384,271.89,202.591,271.33,200.918z M141.383,161.768c-11.012,1.809-15.709,3.133-18.49,4
		c-3.215,1.002-5.889,2.004-7.867,2.796c-0.1,0.1-0.199,0.199-0.299,0.299c0.075-0.125,0.151-0.252,0.223-0.375
		c0.758-1.889,1.77-4.582,2.794-7.871c0.866-2.783,2.19-7.483,3.998-18.5c0.777-4.738,1.668-10.791,2.454-17.895
		c7.099-0.787,13.15-1.677,17.885-2.455c11.012-1.809,15.709-3.133,18.49-4c3.215-1.002,5.889-2.004,7.867-2.796
		c0.1-0.1,0.199-0.199,0.299-0.299c-0.075,0.125-0.151,0.252-0.223,0.375c-0.758,1.889-1.77,4.582-2.794,7.871
		c-0.866,2.783-2.19,7.483-3.998,18.5c-0.777,4.738-1.667,10.791-2.454,17.895C152.169,160.1,146.118,160.99,141.383,161.768z"/>
	<path fill="#FFFFFF" stroke="#000000" stroke-width="3.3338" stroke-miterlimit="10" d="M27.793,61.284"/>
</g>
<g id="c9">
	<path fill="#FFFFFF" stroke="#000000" stroke-width="3.3338" stroke-miterlimit="10" d="M61.291,27.768"/>
	<path fill="#FFFFFF" stroke="#000000" stroke-width="3.3338" stroke-miterlimit="10" d="M255.672,222.252"/>
	<path fill="#FFFFFF" stroke="#000000" stroke-width="3.3338" stroke-miterlimit="10" d="M222.173,255.768"/>
	<path fill="#FFFFFF" stroke="#000000" stroke-width="3.3338" stroke-miterlimit="10" d="M27.793,61.284"/>
	<g>
		<path fill="#DEDEDE" d="M257.999,201.084c-5.249-10.807-15.899-14.835-18.819-15.832c-0.24,1.144-0.825,3.091-2.385,4.917
			c-3.268,3.823-8.09,3.922-8.911,3.926c0.469-1.58,1.027-4.178,0.725-7.363c-0.478-5.039-2.825-8.523-3.916-9.951
			c-3.177-4.156-7.126-5.814-9.097-6.612c-2.316-0.938-4.896-1.568-12.393-1.747c-9.067-0.216-14.237,0.492-26.33,0.977
			c-3.053,0.122-5.554,0.19-7.193,0.229c-0.033-0.024-0.067-0.048-0.1-0.072c-0.001,0.023-0.001,0.051-0.002,0.074
			c-0.023,0.001-0.051,0.001-0.074,0.002c0.024,0.024,0.048,0.048,0.072,0.072c-0.038,1.639-0.107,4.153-0.229,7.224
			c-0.484,12.1-1.192,17.273-0.976,26.344c0.179,7.501,0.809,10.083,1.746,12.4c0.798,1.973,2.454,5.923,6.608,9.102
			c1.427,1.092,4.909,3.44,9.945,3.918c3.182,0.302,5.779-0.256,7.359-0.725c-0.004,0.821-0.102,5.646-3.924,8.916
			c-1.824,1.561-3.77,2.146-4.914,2.386c0.997,2.921,5.023,13.577,15.824,18.829c2.679,1.303,8.201,3.988,15.16,2.505
			c6.04-1.288,9.843-5.009,11.322-6.633c-1.703-0.255-3.657-0.446-5.821-0.483c-2.164-0.037-4.124,0.087-5.835,0.283
			c-0.641-1.81-1.921-6.244-0.379-11.36c0.667-2.214,1.675-3.931,2.544-5.14c-1.338-1.894-4.436-6.839-4.334-13.653
			c0.053-3.483,0.924-6.298,1.693-8.172c1.873-0.77,4.687-1.641,8.168-1.694c6.81-0.103,11.752,2.997,13.646,4.336
			c1.209-0.87,2.925-1.878,5.138-2.545c5.113-1.543,9.545-0.262,11.354,0.379c-0.196,1.712-0.32,3.673-0.283,5.838
			c0.037,2.165,0.229,4.12,0.483,5.824c1.623-1.48,5.342-5.285,6.629-11.328C261.985,209.29,259.301,203.764,257.999,201.084z"/>
		<path fill="#DEDEDE" d="M115.093,80.264c-0.179-7.501-0.809-10.083-1.746-12.4c-0.798-1.973-2.454-5.923-6.608-9.102
			c-1.427-1.092-4.909-3.44-9.945-3.918c-3.182-0.302-5.779,0.256-7.359,0.725c-0.157-0.886-0.348-2.687,0.425-4.677
			c0.85-2.188,2.39-3.38,3.498-4.239c1.754-1.358,3.549-2.036,4.914-2.386c-0.997-2.921-5.023-13.577-15.824-18.829
			c-2.679-1.303-8.201-3.988-15.16-2.505c-6.04,1.288-9.843,5.009-11.322,6.633c1.703,0.255,3.657,0.446,5.821,0.483
			c2.164,0.037,4.124-0.087,5.835-0.283c0.641,1.81,1.921,6.244,0.379,11.36c-0.667,2.214-1.675,3.931-2.544,5.14
			c1.338,1.894,4.436,6.839,4.334,13.653c-0.053,3.483-0.924,6.298-1.693,8.172c-1.873,0.77-4.687,1.641-8.168,1.694
			c-6.81,0.103-11.752-2.997-13.646-4.336c-1.209,0.87-2.925,1.878-5.138,2.545c-5.113,1.543-9.545,0.262-11.354-0.379
			c0.196-1.712,0.32-3.673,0.283-5.838c-0.037-2.165-0.229-4.12-0.483-5.824c-1.623,1.48-5.342,5.285-6.63,11.328
			c-1.483,6.962,1.201,12.488,2.503,15.168c5.249,10.807,15.9,14.835,18.819,15.832c0.319-1.286,0.973-3.12,2.385-4.917
			c0.807-1.027,2.102-2.673,4.458-3.527c1.883-0.682,3.564-0.541,4.453-0.399c-0.469,1.58-1.027,4.178-0.725,7.363
			c0.478,5.039,2.825,8.523,3.916,9.951c3.177,4.156,7.126,5.814,9.097,6.612c2.316,0.938,4.896,1.568,12.393,1.747
			c9.067,0.216,14.237-0.492,26.33-0.977c3.069-0.123,5.582-0.191,7.22-0.23c0.024,0.024,0.048,0.048,0.072,0.072
			c0.001-0.023,0.001-0.051,0.002-0.074c0.023-0.001,0.051-0.001,0.074-0.002c-0.023-0.034-0.048-0.069-0.072-0.103
			c0.039-1.64,0.107-4.141,0.229-7.193C114.601,94.509,115.309,89.336,115.093,80.264z"/>
		<path fill="#DEDEDE" d="M168.096,115.314c0.114-0.114,0.228-0.228,0.342-0.343c-3.38,1.352-7.217,2.68-11.487,3.826
			c-4.359,1.17-7.863,1.77-14.87,2.97c-5.594,0.958-9.788,1.512-12.035,1.793c-2.286,0.286-4.245,0.499-5.759,0.653
			c-0.028-0.02-0.055-0.04-0.083-0.06c-0.002,0.022-0.005,0.047-0.007,0.069c-0.022,0.002-0.047,0.005-0.069,0.007
			c0.021,0.021,0.041,0.041,0.062,0.062c-0.155,1.518-0.369,3.486-0.655,5.784c-0.281,2.249-0.834,6.444-1.792,12.041
			c-1.034,6.044-1.687,9.852-2.969,14.878c-1.179,4.625-2.423,8.447-3.405,11.226c-0.114,0.114-0.228,0.228-0.342,0.343
			c3.38-1.352,7.217-2.68,11.487-3.826c4.359-1.17,7.863-1.77,14.87-2.97c5.594-0.958,9.788-1.512,12.035-1.793
			c2.297-0.287,4.263-0.501,5.781-0.656c0.021,0.021,0.041,0.041,0.062,0.062c0.002-0.022,0.005-0.047,0.007-0.069
			c0.022-0.002,0.047-0.005,0.069-0.007c-0.02-0.027-0.04-0.054-0.06-0.082c0.154-1.516,0.368-3.476,0.653-5.764
			c0.281-2.249,0.834-6.444,1.792-12.041c1.2-7.011,1.8-10.517,2.969-14.878c1.145-4.272,2.472-8.111,3.824-11.493
			C168.377,115.134,168.235,115.226,168.096,115.314z"/>
	</g>
</g>
<g id="c8">
	<path fill="#FFFFFF" stroke="#000000" stroke-width="3.3338" stroke-miterlimit="10" d="M61.291,27.768"/>
	<path fill="#FFFFFF" stroke="#000000" stroke-width="3.3338" stroke-miterlimit="10" d="M255.672,222.252"/>
	<path fill="#FFFFFF" stroke="#000000" stroke-width="3.3338" stroke-miterlimit="10" d="M222.173,255.768"/>
	<path fill="#FFFFFF" stroke="#000000" stroke-width="3.3338" stroke-miterlimit="10" d="M27.793,61.284"/>
	<path fill="#353333" d="M11.734,257.581c3.835,1.706,6.558,3.919,8.251,5.536l0,0l0.463,0.463l0,0l0,0
		c1.616,1.694,3.828,4.419,5.533,8.255c2.128,4.789,2.487,9.104,2.502,11.664c23.252,0,46.504,0,69.757,0
		c-0.221-1.531-0.388-4.433,1.333-6.732c2.688-3.591,8.188-3.316,11.161-3.167c7.587,0.38,8.173,3.699,16.491,4.333
		c7.542,0.575,10.495-1.891,11.327-2.667c1.123-1.048,1.783-2.19,2.165-3c-1.776-0.531-4.052-1.395-6.497-2.833
		c-2.462-1.449-4.332-3.031-5.664-4.333c1.868-1.276,4.382-3.261,6.83-6.167c1.287-1.528,5.499-6.806,7.163-14.333
		c2.194-9.927-0.244-22.868-9.328-30.833c-5.826-5.109-12.419-6.446-15.325-7c-2.686-0.512-8.313-1.516-15.159,0.5
		c-2.477,0.73-8.597,2.615-13.203,8.023c-2.975,3.494-2.326,4.944-6.334,10.275c-1.411,1.877-3.924,5.22-7.282,7.702
		c-6.415,4.742-14.094,4.999-18.657,4.667c1.33,2.044,4.18,5.753,9.162,8.167c8.118,3.933,15.88,1.512,17.824,0.833
		c2.959-1.034,5.143-2.472,6.497-3.5c0.663,0.944,2.545,3.359,5.997,4.667c3.764,1.426,7.042,0.642,8.118,0.335
		c-0.854-1.63-2.019-4.194-2.788-7.502c-1.092-4.697-2.398-10.136,0.666-14.333c3.076-4.213,8.391-4.79,10.328-5
		c1.806-0.196,5.56-0.603,9.162,1.667c3.696,2.329,4.948,6.038,5.497,7.667c2.526,7.485-0.95,14.411-1.999,16.5
		c-3.407,6.788-8.887,10.047-10.828,11.167c-5.61,3.236-10.782,3.623-15.825,4c-5.836,0.437-10.691-0.188-13.993-0.833
		c-0.148,1.294-0.23,3.466,0.5,6c0.666,2.314,1.741,3.995,2.499,5c-17.768,0-35.537,0-53.305,0
		c5.045-5.471,10.09-10.942,15.135-16.412c-7.251-0.292-14.501-0.583-21.752-0.875c-0.024,0.006-0.053,0.013-0.079,0.019
		c0.001-0.033,0.003-0.068,0.004-0.095c-0.292-7.255-0.583-14.509-0.875-21.764c-5.468,5.048-10.936,10.095-16.404,15.143
		c0-17.778,0-35.556,0-53.333c1.004,0.758,2.684,1.833,4.997,2.5c2.532,0.73,4.703,0.648,5.997,0.5
		c-0.645-3.304-1.269-8.161-0.833-14c0.377-5.045,0.764-10.22,3.998-15.833c1.119-1.942,4.376-7.424,11.161-10.833
		c2.088-1.049,9.01-4.527,16.491-2c1.627,0.55,5.334,1.802,7.663,5.5c2.269,3.604,1.862,7.36,1.666,9.167
		c-0.21,1.938-0.787,7.256-4.997,10.333c-4.195,3.066-9.631,1.759-14.326,0.667c-3.306-0.769-5.868-1.935-7.498-2.789
		c-0.307,1.077-1.09,4.356,0.335,8.123c1.307,3.454,3.721,5.337,4.664,6c-1.027,1.354-2.465,3.54-3.498,6.5
		c-0.679,1.945-3.098,9.711,0.833,17.833c2.413,4.985,6.119,7.836,8.162,9.167c-0.332-4.565-0.076-12.248,4.664-18.667
		c2.481-3.36,5.821-5.874,7.698-7.286c5.328-4.01,6.777-3.36,10.269-6.337c5.406-4.608,7.29-10.732,8.019-13.211
		c2.015-6.849,1.011-12.479,0.5-15.167c-0.553-2.908-1.89-9.504-6.996-15.333c-7.962-9.089-20.895-11.528-30.817-9.333
		c-7.523,1.664-12.799,5.879-14.326,7.167c-2.904,2.449-4.888,4.964-6.163,6.833c-1.302-1.332-2.883-3.203-4.331-5.667
		c-1.438-2.446-2.301-4.723-2.832-6.5c-0.81,0.383-1.951,1.043-2.998,2.167c-0.776,0.832-3.24,3.787-2.665,11.333
		c0.634,8.323,3.951,8.909,4.331,16.5c0.149,2.974,0.424,8.477-3.165,11.167c-2.298,1.722-5.198,1.555-6.728,1.333
		c0,23.265,0,46.529,0,69.794C2.635,255.093,6.947,255.452,11.734,257.581z"/>
</g>
<g id="c5">
	<path fill="#FFFFFF" stroke="#000000" stroke-width="3.3338" stroke-miterlimit="10" d="M61.291,27.75"/>
	<path fill="#FFFFFF" stroke="#000000" stroke-width="3.3338" stroke-miterlimit="10" d="M255.672,222.234"/>
	<path fill="#FFFFFF" stroke="#000000" stroke-width="3.3338" stroke-miterlimit="10" d="M222.173,255.75"/>
	<path fill="#FFFFFF" stroke="#000000" stroke-width="3.3338" stroke-miterlimit="10" d="M27.793,61.266"/>
	<path fill="#DEDEDE" d="M0.076,185.266c1.57,0.079,5.453,0.054,7.978-2.564c3.084-3.197,2.288-8.337,1.69-12.196
		c-0.999-6.451-3.127-6.564-3.998-13.124c-0.435-3.275-1.015-8.186,1.988-11.861c1.176-1.439,2.563-2.274,3.568-2.755
		c0.595,1.981,1.591,4.554,3.31,7.282c1.287,2.043,2.655,3.657,3.853,4.885c1.16-1.698,2.917-3.95,5.434-6.198
		c1.863-1.664,8.309-7.263,18.386-8.468c2.505-0.3,12.175-1.31,21.318,4.775c11.032,7.342,14.675,20.603,13.682,30.673
		c-0.251,2.542-1.221,12.389-8.348,18.219c-2.943,2.407-3.805,1.569-8.528,4.687c-3.124,2.063-9.459,6.245-12.794,13.98
		c-1.025,2.376-2.639,7.112-1.999,13.667c-1.954-1.284-5.679-4.132-8.162-9.167c-0.735-1.49-3.909-8.336-1.499-16.5
		c1.083-3.669,2.907-6.296,4.164-7.833c-0.937-0.679-4.091-3.144-5.152-7.615c-0.682-2.875-0.19-5.286,0.153-6.508
		c2.034,1.155,5.46,2.77,9.959,3.345c4.039,0.516,8.907,1.137,12.76-1.961c5.255-4.225,4.366-11.944,4.236-12.938
		c-0.179-1.371-0.685-4.88-3.431-7.858c-4.64-5.031-11.851-4.396-14.224-4.187c-6.905,0.608-11.471,4.452-13.458,6.173
		c-5.5,4.763-7.535,10.39-8.388,12.866c-1.763,5.118-1.753,9.446-1.744,13.849c0.01,4.373,0.505,7.99,0.965,10.501
		c-1.294,0.148-3.465,0.23-5.997-0.5c-2.313-0.667-3.993-1.742-4.997-2.5c0,17.778,0,35.556,0,53.333
		c5.468-5.048,10.936-10.095,16.404-15.143c0.292,7.255,0.583,14.509,0.875,21.764l0,0l0,0l0,0
		c7.276,0.317,14.552,0.634,21.828,0.951c-5.045,5.471-10.09,10.942-15.135,16.412c17.768,0,35.537,0,53.305,0
		c-0.758-1.005-1.832-2.686-2.499-5c-0.73-2.534-0.647-4.706-0.5-6c2.509,0.461,6.125,0.956,10.495,0.966
		c4.401,0.01,8.726,0.019,13.841-1.744c2.474-0.853,8.099-2.889,12.859-8.392c1.72-1.988,5.562-6.557,6.17-13.465
		c0.209-2.375,0.843-9.589-4.185-14.232c-2.976-2.748-6.483-3.254-7.853-3.433c-0.994-0.13-8.709-1.019-12.931,4.238
		c-3.096,3.855-2.475,8.726-1.96,12.767c0.574,4.501,2.189,7.929,3.343,9.964c-1.221,0.343-3.631,0.835-6.504,0.153
		c-4.469-1.061-6.932-4.217-7.611-5.154c-1.536,1.258-4.163,3.083-7.829,4.167c-8.159,2.411-15.002-0.765-16.491-1.5
		c-5.032-2.485-7.879-6.211-9.162-8.167c6.551,0.641,11.284-0.975,13.659-2c6.931-2.992,10.948-8.621,13.972-12.801
		c3.731-5.156,3.005-6.094,5.747-9.045c6.091-6.555,14.93-7.582,17.146-7.84c10.528-1.223,23.509,2.937,30.656,13.69
		c6.081,9.148,5.072,18.823,4.772,21.329c-1.205,10.083-6.801,16.532-8.464,18.396c-2.247,2.518-4.498,4.277-6.195,5.437
		c1.227,1.198,2.841,2.567,4.882,3.855c2.726,1.72,5.298,2.717,7.278,3.312c-0.481,1.005-1.315,2.393-2.754,3.569
		c-3.673,3.004-8.581,2.424-11.854,1.989c-6.556-0.871-6.67-3.001-13.117-4c-3.857-0.598-8.995-1.394-12.19,1.691
		c-2.616,2.526-2.641,6.411-2.562,7.982c47.724,0,95.449,0,143.173,0c3.304-4.016,6.608-8.031,9.911-12.047
		c-0.342-1.642-1.112-4.284-2.998-7.018c-2.418-3.504-5.411-5.334-7-6.16c-1.349,2.098-3.625,5.118-7.179,7.928
		c-1.155,0.914-5.82,4.473-13.014,6.211c-1.517,0.366-8.884,2.038-17.945-0.328c-9.829-2.566-15.878-8.376-21.622-14.031
		c-2.135-2.102-11.154-11.212-18.209-26.602c-7.398-16.137-8.488-30.127-8.976-37.221c-0.596-8.663-0.118-15.985,0.496-21.298
		c-6.806,0.53-14.41,1.57-22.586,3.439c-16.738,3.827-30.346,9.865-40.501,15.44c-0.114,0.114-0.228,0.228-0.341,0.341
		c0.088-0.139,0.179-0.279,0.266-0.417c5.572-10.161,11.607-23.776,15.432-40.523c1.868-8.181,2.908-15.788,3.438-22.598
		c-5.311,0.615-12.628,1.093-21.287,0.496c-7.09-0.488-21.073-1.579-37.201-8.981c-15.382-7.059-24.488-16.083-26.588-18.219
		c-5.651-5.747-11.458-11.799-14.023-21.633c-2.365-9.066-0.694-16.438-0.328-17.955c1.737-7.198,5.295-11.865,6.208-13.021
		c2.809-3.556,5.827-5.833,7.924-7.183c-0.825-1.59-2.655-4.585-6.157-7.004c-2.732-1.887-5.373-2.658-7.014-3
		c-4.014,3.306-8.027,6.611-12.041,9.917C0.076,89.766,0.076,137.516,0.076,185.266z"/>
</g>
<g id="c7">
	<path fill="#FFFFFF" stroke="#000000" stroke-width="3.3338" stroke-miterlimit="10" d="M61.291,27.75"/>
	<path fill="#FFFFFF" stroke="#000000" stroke-width="3.3338" stroke-miterlimit="10" d="M255.672,222.234"/>
	<path fill="#DEDEDE" d="M283.484,98.255c-1.57-0.079-5.209-0.805-7.734,1.813c-3.084,3.197-2.531,9.088-1.934,12.947
		c0.999,6.451,3.127,6.564,3.998,13.124c0.435,3.275,1.015,8.186-1.988,11.861c-1.176,1.439-2.563,2.274-3.568,2.755
		c-0.595-1.981-1.591-4.554-3.31-7.282c-1.287-2.043-2.655-3.657-3.853-4.885c-1.16,1.698-2.917,3.95-5.434,6.198
		c-1.863,1.664-8.309,7.263-18.386,8.468c-2.505,0.3-12.175,1.31-21.318-4.775c-10.748-7.153-14.895-20.153-13.682-30.673
		c0.886-7.681,4.711-14.348,7.706-17.028c2.019-1.806,4.607-3.437,4.607-3.437c2.236-1.409,4.006-2.183,4.564-2.441
		c4.005-1.858,9.78-6.99,12.794-13.98c1.025-2.376,2.639-7.112,1.999-13.667c1.954,1.284,5.679,4.132,8.162,9.167
		c0.735,1.49,3.909,8.336,1.499,16.5c-1.083,3.669-2.907,6.296-4.164,7.833c0.937,0.679,4.091,3.144,5.152,7.615
		c0.682,2.875,0.19,5.286-0.153,6.508c-2.034-1.155-5.46-2.77-9.959-3.345c-4.039-0.516-8.907-1.137-12.76,1.961
		c-5.255,4.225-4.366,11.944-4.236,12.938c0.179,1.371,0.685,4.88,3.431,7.858c4.64,5.031,11.851,4.396,14.224,4.187
		c6.905-0.608,11.471-4.452,13.458-6.173c5.5-4.763,7.535-10.39,8.388-12.866c1.763-5.118,1.753-9.446,1.744-13.849
		c-0.01-4.373-0.505-7.99-0.965-10.501c1.294-0.148,3.465-0.23,5.997,0.5c2.313,0.667,3.993,1.742,4.997,2.5
		c0-17.778,0-35.556,0-53.333c-5.468,5.048-10.936,10.095-16.404,15.143c-0.292-7.255-0.583-14.509-0.875-21.764
		c-0.016-0.016-0.031-0.031-0.047-0.047c-0.01-0.01-0.019-0.019-0.029-0.029c-7.251-0.292-14.501-0.583-21.752-0.875
		c5.045-5.471,10.09-10.942,15.135-16.412c-17.768,0-35.537,0-53.305,0c0.758,1.005,1.832,2.686,2.499,5
		c0.73,2.534,0.647,4.706,0.5,6c-2.509-0.461-6.125-0.956-10.495-0.966c-4.401-0.01-8.726-0.019-13.841,1.744
		c-2.474,0.853-8.099,2.889-12.859,8.392c-1.72,1.988-5.562,6.557-6.17,13.465c-0.209,2.375-0.843,9.589,4.185,14.232
		c2.976,2.748,6.483,3.254,7.853,3.433c0.994,0.13,8.709,1.019,12.931-4.238c3.096-3.855,2.475-8.726,1.96-12.767
		c-0.574-4.501-2.189-7.929-3.343-9.964c1.221-0.343,3.631-0.835,6.504-0.153c4.469,1.061,6.932,4.217,7.611,5.154
		c1.536-1.258,4.163-3.083,7.829-4.167c8.159-2.411,15.002,0.765,16.491,1.5c5.032,2.485,7.879,6.211,9.162,8.167
		c-6.551-0.641-11.284,0.975-13.659,2c-6.931,2.992-10.948,8.621-13.972,12.801c-3.731,5.156-3.005,6.094-5.747,9.045
		c-6.091,6.555-14.93,7.582-17.146,7.84c-10.528,1.223-23.509-2.937-30.656-13.69c-6.081-9.148-5.072-18.823-4.772-21.329
		c1.205-10.083,6.801-16.532,8.464-18.396c2.247-2.518,4.498-4.277,6.195-5.437c-1.227-1.198-2.841-2.567-4.882-3.855
		c-2.726-1.72-5.298-2.717-7.278-3.312c0.481-1.005,1.315-2.393,2.754-3.569c4.686-2.394,8.252-2.503,12.263-1.928
		c7.644,1.095,6.261,2.94,12.709,3.939c3.857,0.598,8.995,1.394,12.19-1.691c2.616-2.526,2.641-6.411,2.562-7.982
		c-47.724,0-95.449,0-143.173,0c-3.304,4.016-6.608,8.031-9.911,12.047c0.342,1.642,1.112,4.284,2.998,7.018
		c2.418,3.504,5.411,5.334,7,6.16c1.349-2.098,3.625-5.118,7.179-7.928c1.155-0.914,5.82-4.473,13.014-6.211
		c1.517-0.366,8.884-2.038,17.945,0.328c9.829,2.566,15.878,8.376,21.622,14.031c2.135,2.102,11.154,11.212,18.209,26.602
		c7.398,16.137,8.488,30.127,8.976,37.221c0.596,8.663,0.118,15.985-0.496,21.298c6.806-0.53,14.41-1.57,22.586-3.439
		c16.738-3.827,30.346-9.865,40.501-15.44c0.114-0.114,0.228-0.228,0.341-0.341c-0.088,0.139-0.179,0.279-0.266,0.417
		c-5.572,10.161-11.607,23.776-15.432,40.523c-1.868,8.181-2.908,15.788-3.438,22.598c5.311-0.615,12.628-1.093,21.287-0.496
		c7.09,0.488,21.073,1.579,37.201,8.981c15.382,7.059,24.488,16.083,26.588,18.219c5.651,5.747,11.458,11.799,14.023,21.633
		c2.365,9.066,0.694,16.438,0.328,17.955c-1.737,7.198-5.295,11.865-6.208,13.021c-2.809,3.556-5.827,5.833-7.924,7.183
		c0.825,1.59,2.655,4.585,6.157,7.004c2.732,1.887,5.373,2.658,7.014,3c4.014-3.306,8.027-6.611,12.041-9.917
		C283.484,193.755,283.484,146.005,283.484,98.255z"/>
	<path fill="#FFFFFF" stroke="#000000" stroke-width="3.3338" stroke-miterlimit="10" d="M222.173,255.75"/>
	<path fill="#FFFFFF" stroke="#000000" stroke-width="3.3338" stroke-miterlimit="10" d="M27.793,61.266"/>
</g>
<g id="c4">
	<path fill="#FFFFFF" stroke="#000000" stroke-width="3.3338" stroke-miterlimit="10" d="M61.291,27.75"/>
	<path fill="#FFFFFF" stroke="#000000" stroke-width="3.3338" stroke-miterlimit="10" d="M255.672,222.234"/>
	<path fill="#353333" d="M271.731,25.937c-3.835-1.706-6.558-3.919-8.251-5.536l0,0l-0.463-0.463l0,0l0,0
		c-1.616-1.694-3.828-4.419-5.533-8.255c-2.128-4.789-2.487-9.104-2.502-11.664c-23.252,0-46.504,0-69.757,0
		c0.221,1.531,0.388,4.433-1.333,6.732c-2.688,3.591-8.188,3.316-11.161,3.167c-7.587-0.38-8.173-3.699-16.491-4.333
		c-7.542-0.575-10.495,1.891-11.327,2.667c-1.123,1.048-1.783,2.19-2.165,3c1.776,0.531,4.052,1.395,6.497,2.833
		c2.462,1.449,4.332,3.031,5.664,4.333c-1.868,1.276-4.382,3.261-6.83,6.167c-1.287,1.528-5.499,6.806-7.163,14.333
		c-2.194,9.927,0.244,22.868,9.328,30.833c5.826,5.109,12.419,6.446,15.325,7c2.686,0.512,8.313,1.516,15.159-0.5
		c2.477-0.73,8.597-2.615,13.203-8.023c2.975-3.494,2.326-4.944,6.334-10.275c1.411-1.877,3.924-5.22,7.282-7.702
		c6.415-4.742,14.094-4.999,18.657-4.667c-1.33-2.044-4.18-5.753-9.162-8.167c-8.118-3.933-15.88-1.512-17.824-0.833
		c-2.959,1.034-5.143,2.472-6.497,3.5c-0.663-0.944-2.545-3.359-5.997-4.667c-3.764-1.426-7.042-0.642-8.118-0.335
		c0.854,1.63,2.019,4.194,2.788,7.502c1.092,4.697,2.398,10.136-0.666,14.333c-3.076,4.213-8.391,4.79-10.328,5
		c-1.806,0.196-5.56,0.603-9.162-1.667c-3.696-2.329-4.948-6.038-5.497-7.667c-2.526-7.485,0.95-14.411,1.999-16.5
		c3.407-6.788,8.887-10.047,10.828-11.167c5.61-3.236,10.782-3.623,15.825-4c5.836-0.437,10.691,0.188,13.993,0.833
		c0.148-1.294,0.23-3.466-0.5-6c-0.666-2.314-1.741-3.995-2.499-5c17.768,0,35.537,0,53.305,0
		c-5.045,5.471-10.09,10.942-15.135,16.412c7.277,0.285,14.554,0.571,21.832,0.856c0.29,7.286,0.581,14.573,0.871,21.859
		c5.468-5.048,10.936-10.095,16.404-15.143c0,17.778,0,35.556,0,53.333c-1.004-0.758-2.684-1.833-4.997-2.5
		c-2.532-0.73-4.703-0.648-5.997-0.5c0.645,3.304,1.269,8.161,0.833,14c-0.377,5.045-0.764,10.22-3.998,15.833
		c-1.119,1.942-4.376,7.424-11.161,10.833c-2.088,1.049-9.01,4.527-16.491,2c-1.627-0.55-5.334-1.802-7.663-5.5
		c-2.269-3.604-1.862-7.36-1.666-9.167c0.21-1.938,0.787-7.256,4.997-10.333c4.195-3.066,9.631-1.759,14.326-0.667
		c3.306,0.769,5.868,1.935,7.498,2.789c0.307-1.077,1.09-4.356-0.335-8.123c-1.307-3.454-3.721-5.337-4.664-6
		c1.027-1.354,2.465-3.54,3.498-6.5c0.679-1.945,3.098-9.711-0.833-17.833c-2.413-4.985-6.119-7.836-8.162-9.167
		c0.27,4.195,0.065,11.91-4.664,18.667c-2.397,3.425-5.425,5.844-6.821,6.946c-5.332,4.206-7.27,3.456-11.146,6.677
		c-5.469,4.545-7.3,10.766-8.019,13.211c-2.015,6.849-1.011,12.479-0.5,15.167c0.553,2.908,1.89,9.504,6.996,15.333
		c7.962,9.089,20.895,11.528,30.817,9.333c7.523-1.664,12.799-5.879,14.326-7.167c2.904-2.449,4.888-4.964,6.163-6.833
		c1.302,1.332,2.883,3.203,4.331,5.667c1.438,2.446,2.301,4.723,2.832,6.5c0.81-0.383,1.951-1.043,2.998-2.167
		c0.776-0.832,3.24-3.787,2.665-11.333c-0.634-8.323-3.951-8.909-4.331-16.5c-0.149-2.974-0.424-8.477,3.165-11.167
		c2.298-1.722,5.198-1.555,6.728-1.333c0-23.265,0.111-46.684,0.111-69.949C280.941,28.27,276.517,28.066,271.731,25.937z"/>
	<path fill="#FFFFFF" stroke="#000000" stroke-width="3.3338" stroke-miterlimit="10" d="M222.173,255.75"/>
	<path fill="#FFFFFF" stroke="#000000" stroke-width="3.3338" stroke-miterlimit="10" d="M27.793,61.266"/>
</g>
</svg>
