<?xml version="1.0" encoding="utf-8"?>
<!-- Generator: Adobe Illustrator 22.0.0, SVG Export Plug-In . SVG Version: 6.00 Build 0)  -->
<svg version="1.1" xmlns="http://www.w3.org/2000/svg" xmlns:xlink="http://www.w3.org/1999/xlink" x="0px" y="0px"
	 viewBox="0 0 283.5 283.5" enable-background="new 0 0 283.5 283.5" xml:space="preserve">
<g id="Capa_1">
</g>
<g id="c4">
	<rect fill="#DEDEDE" width="283.5" height="283.5"/>
</g>
<g id="c3">
	<g>
		<path fill="#6A6967" d="M234.071,50.136c-2.918,1.171-5.898,2.422-8.934,3.761c-4.173,1.841-8.159,3.717-11.955,5.605
			c-6.871-3.122-13.742-6.244-20.613-9.366c3.136,6.909,6.273,13.818,9.409,20.727c-3.136,6.924-6.272,13.848-9.407,20.773
			c6.916-3.098,13.833-6.197,20.749-9.295c6.917,3.098,13.834,6.197,20.75,9.295c-3.199-6.934-6.398-13.867-9.597-20.801
			C227.673,63.935,230.872,57.035,234.071,50.136z"/>
		<path fill="#6A6967" d="M92.099,50.136c-2.918,1.171-5.898,2.422-8.934,3.761c-4.173,1.841-8.159,3.717-11.955,5.605
			c-6.871-3.122-13.742-6.244-20.613-9.366c3.136,6.909,6.273,13.818,9.409,20.727c-3.136,6.924-6.272,13.848-9.407,20.773
			c6.916-3.098,13.833-6.197,20.749-9.295c6.917,3.098,13.834,6.197,20.75,9.295c-3.199-6.934-6.398-13.867-9.597-20.801
			C85.701,63.935,88.9,57.036,92.099,50.136z"/>
		<path fill="#6A6967" d="M92.339,191.869c-2.918,1.171-5.898,2.422-8.934,3.761c-4.173,1.841-8.159,3.717-11.955,5.605
			c-6.871-3.122-13.742-6.244-20.613-9.366c3.136,6.909,6.273,13.818,9.409,20.727c-3.136,6.924-6.272,13.848-9.407,20.773
			c6.916-3.098,13.833-6.197,20.749-9.295c6.917,3.098,13.834,6.197,20.75,9.295c-3.199-6.934-6.398-13.867-9.597-20.801
			C85.941,205.669,89.14,198.769,92.339,191.869z"/>
		<path fill="#6A6967" d="M234.072,191.867c-2.918,1.171-5.898,2.422-8.934,3.761c-4.173,1.841-8.159,3.717-11.955,5.605
			c-6.871-3.122-13.742-6.244-20.613-9.366c3.136,6.909,6.273,13.818,9.409,20.727c-3.136,6.924-6.272,13.848-9.407,20.773
			c6.916-3.098,13.833-6.197,20.749-9.295c6.917,3.098,13.834,6.197,20.75,9.295c-3.199-6.934-6.398-13.867-9.597-20.801
			C227.673,205.666,230.872,198.767,234.072,191.867z"/>
	</g>
</g>
<g id="c2">
	<g>
		<polygon fill="#353333" points="155.559,108.994 192.121,91.617 174.736,128.171 212.871,141.73 174.736,155.291 192.116,191.836 
			155.567,174.466 142.006,212.6 128.446,174.467 91.895,191.845 109.273,155.291 71.139,141.733 109.266,128.176 91.891,91.617 
			128.441,108.99 142.006,70.867 		"/>
		<polygon fill="#353333" points="212.863,283.501 212.871,283.498 174.736,269.938 192.121,233.384 155.558,250.761 
			142.005,212.635 128.441,250.758 91.891,233.384 109.266,269.944 71.139,283.501 		"/>
		<polygon fill="#353333" points="71.147,0.001 71.139,0.004 109.274,13.563 91.889,50.117 128.452,32.74 142.005,70.867 
			155.569,32.743 192.12,50.117 174.744,13.558 212.871,0.001 		"/>
		<polygon fill="#353333" points="0.273,212.593 0.276,212.601 13.835,174.465 50.389,191.851 33.012,155.287 71.139,141.734 
			33.016,128.17 50.389,91.619 13.83,108.995 0.273,70.867 		"/>
		<polygon fill="#353333" points="283.737,70.874 283.735,70.867 270.175,109.002 233.621,91.617 250.998,128.18 212.871,141.733 
			250.995,155.298 233.621,191.848 270.18,174.473 283.737,212.6 		"/>
		<polygon fill="#353333" points="283.738,0.001 212.879,0.001 212.871,0.004 251.007,13.563 233.622,50.117 270.184,32.74 
			283.737,70.867 283.738,70.866 		"/>
		<polygon fill="#353333" points="0.273,0.001 0.273,70.86 0.276,70.867 13.835,32.732 50.389,50.117 33.012,13.554 71.139,0.001 
			71.138,0.001 		"/>
		<polygon fill="#353333" points="0.273,283.465 71.131,283.465 71.139,283.462 33.004,269.903 50.389,233.349 13.826,250.726 
			0.273,212.599 0.273,212.6 		"/>
		<polygon fill="#353333" points="283.737,283.465 283.737,212.606 283.735,212.598 270.175,250.734 233.621,233.349 
			250.998,269.912 212.871,283.465 212.872,283.465 		"/>
	</g>
</g>
<g id="c1">
	<g>
		<path fill="#9D9FA2" d="M128.445,109.008c-1.325,5.068-2.65,10.136-3.974,15.204c-5.067,1.327-10.134,2.655-15.201,3.982
			c2.645,4.519,5.29,9.039,7.935,13.558c-2.643,4.519-5.285,9.038-7.928,13.557c5.064,1.327,10.128,2.654,15.193,3.981
			c1.327,5.065,2.654,10.13,3.981,15.195c4.519-2.643,9.038-5.287,13.557-7.93c4.521,2.643,9.042,5.286,13.564,7.929
			c1.174-4.918,2.348-9.836,3.522-14.755c5.216-1.473,10.431-2.947,15.647-4.42c-2.643-4.519-5.286-9.038-7.929-13.557
			c2.643-4.521,5.286-9.042,7.929-13.563c-5.065-1.325-10.129-2.65-15.194-3.975c-1.328-5.067-2.656-10.134-3.984-15.202
			c-4.518,2.646-9.036,5.291-13.555,7.937C137.487,114.302,132.966,111.655,128.445,109.008z"/>
		<path fill="#9D9FA2" d="M0.28,166.56c4.521,2.643,9.042,5.286,13.564,7.929c1.174-4.918,2.348-9.836,3.522-14.755
			c5.216-1.473,10.431-2.947,15.647-4.42c-2.643-4.519-5.286-9.038-7.929-13.557c2.643-4.521,5.286-9.042,7.929-13.563
			c-5.065-1.325-10.129-2.65-15.194-3.975c-1.328-5.067-2.656-10.135-3.984-15.202c-4.518,2.646-9.036,5.291-13.555,7.937
			c-0.001,0-0.001-0.001-0.002-0.001v49.608C0.279,166.56,0.279,166.56,0.28,166.56z"/>
		<path fill="#9D9FA2" d="M25.088,283.482c2.642-4.519,5.283-9.037,7.925-13.556c-5.065-1.325-10.129-2.65-15.194-3.975
			c-1.328-5.067-2.656-10.135-3.984-15.202c-4.518,2.646-9.036,5.291-13.555,7.937c-0.001-0.001-0.002-0.001-0.003-0.002v24.797
			H25.088z"/>
		<path fill="#9D9FA2" d="M159.333,265.95c-1.328-5.067-2.656-10.134-3.984-15.202c-4.518,2.646-9.036,5.291-13.555,7.937
			c-4.521-2.647-9.042-5.294-13.563-7.941c-1.325,5.068-2.649,10.136-3.974,15.204c-5.067,1.327-10.134,2.655-15.201,3.982
			c2.644,4.517,5.287,9.035,7.931,13.552h49.613c2.642-4.519,5.284-9.038,7.926-13.558
			C169.463,268.6,164.398,267.275,159.333,265.95z"/>
		<path fill="#9D9FA2" d="M266.207,265.948c-5.067,1.327-10.134,2.655-15.201,3.982c2.644,4.518,5.288,9.035,7.932,13.553h24.804
			v-24.799c-4.52-2.646-9.04-5.293-13.56-7.939C268.857,255.812,267.532,260.88,266.207,265.948z"/>
		<path fill="#9D9FA2" d="M266.207,124.217c-5.067,1.327-10.134,2.655-15.201,3.982c2.645,4.519,5.29,9.039,7.935,13.558
			c-2.643,4.519-5.285,9.038-7.928,13.557c5.064,1.327,10.128,2.654,15.193,3.981c1.327,5.065,2.654,10.13,3.981,15.194
			c4.518-2.643,9.036-5.286,13.555-7.928v-49.609c-4.52-2.646-9.04-5.293-13.56-7.939
			C268.857,114.081,267.532,119.149,266.207,124.217z"/>
		<path fill="#9D9FA2" d="M0.278,0.019v24.81c0.001-0.001,0.002-0.001,0.003-0.002c4.521,2.643,9.042,5.286,13.564,7.929
			c1.174-4.918,2.348-9.836,3.522-14.755c5.216-1.473,10.431-2.947,15.647-4.42c-2.643-4.519-5.286-9.038-7.929-13.557
			c0.001-0.002,0.002-0.004,0.003-0.006H0.278z"/>
		<path fill="#9D9FA2" d="M109.603,13.582c5.064,1.327,10.128,2.654,15.193,3.981c1.327,5.065,2.654,10.13,3.981,15.194
			c4.519-2.643,9.038-5.287,13.557-7.93c4.521,2.643,9.042,5.286,13.564,7.929c1.174-4.918,2.348-9.836,3.522-14.755
			c5.216-1.473,10.431-2.947,15.647-4.42c-2.643-4.519-5.286-9.038-7.929-13.557c0.001-0.002,0.002-0.004,0.003-0.006h-49.613
			c0.001,0.002,0.002,0.004,0.003,0.006C114.888,4.543,112.245,9.063,109.603,13.582z"/>
		<path fill="#9D9FA2" d="M251.013,13.581c5.064,1.327,10.128,2.654,15.193,3.981c1.327,5.065,2.654,10.13,3.981,15.194
			c4.518-2.643,9.036-5.286,13.555-7.928V0.019h-24.803c0.001,0.002,0.002,0.003,0.003,0.005
			C256.298,4.543,253.656,9.062,251.013,13.581z"/>
	</g>
</g>
</svg>
