<?xml version="1.0" encoding="utf-8"?>
<!-- Generator: Adobe Illustrator 22.0.0, SVG Export Plug-In . SVG Version: 6.00 Build 0)  -->
<svg version="1.1" xmlns="http://www.w3.org/2000/svg" xmlns:xlink="http://www.w3.org/1999/xlink" x="0px" y="0px"
	 viewBox="0 0 283.5 283.5" enable-background="new 0 0 283.5 283.5" xml:space="preserve">
<g id="Capa_1">
</g>
<g id="c3">
	<g>
		<path fill="#353333" d="M51.008,90.76c6.73-3.833,13.46-7.666,20.19-11.498c6.507,3.819,13.015,7.638,19.522,11.457
			c-3.688-6.612-7.375-13.223-11.063-19.835c3.687-6.611,7.373-13.222,11.06-19.833c-6.506,3.818-13.012,7.637-19.519,11.455
			c-6.89-3.993-13.781-7.987-20.671-11.98c4.791,6.598,9.582,13.196,14.373,19.793C60.269,77.133,55.638,83.947,51.008,90.76z"/>
		<path fill="#353333" d="M90.719,192.781c-6.612,3.688-13.223,7.375-19.835,11.063c-6.611-3.687-13.222-7.373-19.832-11.06
			c3.818,6.506,7.636,13.012,11.455,19.519c-3.994,6.89-7.987,13.781-11.98,20.671c6.598-4.791,13.196-9.582,19.793-14.373
			c6.814,4.631,13.627,9.262,20.441,13.892c-3.833-6.73-7.666-13.46-11.498-20.19C83.081,205.795,86.9,199.288,90.719,192.781z"/>
		<path fill="#353333" d="M232.493,192.739c-6.73,3.833-13.46,7.666-20.19,11.498c-6.507-3.819-13.015-7.638-19.522-11.457
			c3.688,6.612,7.375,13.223,11.063,19.835c-3.687,6.611-7.373,13.222-11.06,19.833c6.506-3.818,13.013-7.636,19.519-11.455
			c6.89,3.993,13.781,7.987,20.671,11.98c-4.791-6.598-9.582-13.196-14.373-19.794C223.231,206.367,227.862,199.553,232.493,192.739
			z"/>
		<path fill="#353333" d="M192.781,90.719c6.612-3.688,13.223-7.375,19.835-11.063c6.611,3.687,13.222,7.373,19.833,11.06
			c-3.818-6.506-7.637-13.013-11.455-19.519c3.993-6.89,7.987-13.781,11.98-20.671c-6.598,4.791-13.196,9.582-19.793,14.373
			c-6.814-4.631-13.627-9.262-20.441-13.892c3.833,6.73,7.666,13.46,11.498,20.19C200.419,77.704,196.6,84.212,192.781,90.719z"/>
	</g>
</g>
<g id="c2">
	<path fill="#DEDEDE" d="M283.481,0.018v62.361l0,0.001l-11.926-33.552L239.38,44.12l15.299-32.167L221.12,0.02l0.007-0.002h-17.015
		l-33.551,11.93l15.29,32.172l-32.164-15.289L141.75,62.38l-11.926-33.552L97.648,44.12l15.299-32.167L79.388,0.02l0.007-0.002
		H62.38l0.001,0L28.829,11.945L44.121,44.12L11.954,28.821L0.021,62.38l-0.002-0.007V0.018H0.018v283.465h283.465V0.018H283.481z
		 M213.181,64.9c6.598-4.791,13.196-9.582,19.793-14.373c-3.993,6.89-7.987,13.781-11.98,20.671
		c3.818,6.506,7.637,13.012,11.455,19.519c-6.611-3.687-13.222-7.373-19.833-11.06c-6.612,3.688-13.223,7.375-19.835,11.063
		c3.819-6.507,7.638-13.015,11.457-19.522c-3.833-6.73-7.666-13.46-11.498-20.19C199.554,55.638,206.368,60.269,213.181,64.9z
		 M97.65,97.648l32.164,15.289l11.937-33.549l11.927,33.552l32.175-15.292l-15.299,32.167l33.559,11.932l-33.559,11.934
		l15.295,32.159l-32.163-15.286l-11.934,33.558l-11.932-33.557l-32.165,15.293l15.292-32.167L79.388,141.75l33.551-11.93
		L97.65,97.648z M71.198,62.506c6.506-3.818,13.013-7.637,19.519-11.455c-3.687,6.611-7.373,13.222-11.06,19.833
		c3.688,6.612,7.375,13.223,11.063,19.835c-6.507-3.819-13.015-7.638-19.522-11.457c-6.73,3.833-13.46,7.666-20.19,11.498
		c4.631-6.814,9.261-13.627,13.892-20.441c-4.791-6.598-9.582-13.196-14.373-19.793C57.417,54.519,64.308,58.513,71.198,62.506z
		 M0.019,79.388l11.93,33.552l32.172-15.29l-15.289,32.164L62.38,141.75l-33.551,11.927l15.292,32.175l-32.167-15.299L0.021,204.112
		l-0.002-0.007V79.388z M62.374,283.482H0.019v-62.361l0-0.001l11.927,33.552l32.175-15.292l-15.299,32.167l33.559,11.932
		L62.374,283.482z M50.527,232.973c3.993-6.89,7.987-13.781,11.98-20.671c-3.818-6.506-7.637-13.013-11.455-19.519
		c6.611,3.687,13.222,7.373,19.832,11.06c6.612-3.688,13.223-7.375,19.835-11.063c-3.819,6.507-7.638,13.015-11.457,19.522
		c3.833,6.73,7.666,13.46,11.498,20.19c-6.814-4.631-13.627-9.261-20.441-13.892C63.722,223.391,57.125,228.182,50.527,232.973z
		 M204.105,283.482H79.388l33.551-11.93L97.65,239.38l32.164,15.289l11.937-33.549l11.927,33.552l32.175-15.292l-15.299,32.167
		l33.559,11.932L204.105,283.482z M192.784,232.448c3.687-6.611,7.373-13.222,11.06-19.833c-3.688-6.612-7.375-13.223-11.063-19.835
		c6.507,3.819,13.015,7.638,19.522,11.457c6.73-3.833,13.46-7.666,20.19-11.498c-4.631,6.814-9.262,13.627-13.892,20.441
		c4.791,6.598,9.582,13.196,14.373,19.794c-6.89-3.993-13.781-7.987-20.671-11.98C205.797,224.812,199.291,228.63,192.784,232.448z
		 M283.481,283.482h-62.361l-0.001,0l33.551-11.927L239.38,239.38l32.167,15.299l11.932-33.559l0.002,0.007V283.482z
		 M283.481,204.112l-11.93-33.552l-32.172,15.29l15.289-32.164L221.12,141.75l33.551-11.927L239.38,97.648l32.167,15.299
		l11.932-33.559l0.002,0.007V204.112z"/>
</g>
<g id="c1">
	<g>
		<polygon fill="#6A6967" points="44.121,239.38 11.946,254.672 0.019,221.12 0.019,221.121 0.019,283.482 62.374,283.482 
			62.38,283.48 28.822,271.547 		"/>
		<polygon fill="#6A6967" points="185.852,97.648 153.677,112.94 141.75,79.388 129.814,112.937 97.649,97.648 112.94,129.82 
			79.388,141.75 112.946,153.681 97.654,185.849 129.818,170.556 141.75,204.112 153.685,170.555 185.847,185.841 170.553,153.681 
			204.112,141.748 170.553,129.815 		"/>
		<polygon fill="#6A6967" points="185.852,239.38 153.677,254.672 141.75,221.12 129.814,254.669 97.649,239.38 112.94,271.552 
			79.388,283.482 204.105,283.482 204.112,283.48 170.553,271.547 		"/>
		<polygon fill="#6A6967" points="79.388,0.02 112.947,11.953 97.648,44.12 129.823,28.828 141.75,62.38 153.686,28.831 
			185.851,44.12 170.56,11.948 204.112,0.018 79.395,0.018 		"/>
		<polygon fill="#6A6967" points="11.954,170.553 44.121,185.852 28.829,153.677 62.38,141.75 28.832,129.814 44.121,97.649 
			11.949,112.94 0.019,79.388 0.019,204.105 0.021,204.112 		"/>
		<polygon fill="#6A6967" points="271.547,112.947 239.379,97.648 254.671,129.823 221.12,141.75 254.668,153.686 239.379,185.851 
			271.551,170.561 283.481,204.112 283.481,79.395 283.479,79.388 		"/>
		<polygon fill="#6A6967" points="221.126,0.018 221.12,0.02 254.678,11.953 239.38,44.12 271.554,28.828 283.481,62.38 
			283.481,62.379 283.481,0.018 		"/>
		<polygon fill="#6A6967" points="11.954,28.821 44.121,44.12 28.829,11.945 62.38,0.018 62.38,0.018 0.019,0.018 0.019,62.373 
			0.021,62.38 		"/>
		<polygon fill="#6A6967" points="271.547,254.679 239.379,239.38 254.671,271.555 221.12,283.482 221.121,283.482 283.481,283.482 
			283.481,221.127 283.479,221.12 		"/>
	</g>
</g>
</svg>
