<?xml version="1.0" encoding="utf-8"?>
<!-- Generator: Adobe Illustrator 22.0.0, SVG Export Plug-In . SVG Version: 6.00 Build 0)  -->
<svg version="1.1" xmlns="http://www.w3.org/2000/svg" xmlns:xlink="http://www.w3.org/1999/xlink" x="0px" y="0px"
	 viewBox="0 0 283.5 283.5" enable-background="new 0 0 283.5 283.5" xml:space="preserve">
<g id="c1_1_">
	<path fill="#FFFFFF" stroke="#000000" stroke-width="1.6584" stroke-miterlimit="10" d="M141.078,141.732"/>
	<path fill="#FFFFFF" stroke="#000000" stroke-width="1.6626" stroke-miterlimit="10" d="M283.5,283.464"/>
</g>
<g id="c2">
	<rect x="0.051" y="0.019" fill="#DEDEDE" width="283.397" height="283.463"/>
</g>
<g id="c5">
	<path fill="#9D9FA2" d="M14.435,283.466c0,0,103.231-40.965,63.731-79.298c-37.659-36.547-78.064,64.968-78.064,64.968v14.329
		L14.435,283.466z"/>
	<path fill="#9D9FA2" d="M269.167,283.466c0,0-103.231-40.965-63.731-79.298c37.659-36.547,78.064,64.968,78.064,64.968v14.329
		L269.167,283.466z"/>
	<path fill="#9D9FA2" d="M269.167,0c0,0-103.231,40.965-63.731,79.298C243.095,115.845,283.5,14.33,283.5,14.33V0.001L269.167,0z"/>
	<path fill="#9D9FA2" d="M14.435,0c0,0,103.231,40.965,63.731,79.298C40.507,115.845,0.103,14.33,0.103,14.33V0.001L14.435,0z"/>
	<path fill="#FFFFFF" stroke="#000000" stroke-width="1.6584" stroke-miterlimit="10" d="M141.078,141.733"/>
	<path fill="#FFFFFF" stroke="#000000" stroke-width="1.6626" stroke-miterlimit="10" d="M283.5,283.465"/>
</g>
<g id="c9">
	<path fill="#353333" d="M0.103,269.136L0,247.621c0,0,9.473-8.827,12.571-11.78c2.055-1.952,2.56-6.981,2.304-10.253
		c-0.948-12.191,6.278-22.787,6.455-23.109c17.64-31.88,51.108-15.834,51.108-16.089c3.748,2.584,8.264,0,8.264,0
		c3.333-3.452,24.762-21.807,27.164-29.364c1.146-3.607-10.85-8.827-17.078,7.93c-0.262,0.515-3.625,7.759-7.766-1.817
		c-1.337-2.606-1.305-8.783-1.662-11.55c-0.1-0.301-12.049-1.633-13.928-7.406c-0.343-1.055-0.343-3.842,0-4.896
		c1.879-5.772,13.828-7.105,13.928-7.406c0.356-2.768,0.325-8.944,1.662-11.55c4.14-9.575,7.504-2.332,7.766-1.817
		c6.229,16.757,18.224,11.537,17.078,7.93c-2.402-7.558-23.831-25.913-27.164-29.365c0,0-4.516-2.583-8.264,0
		c0-0.256-33.468,15.791-51.108-16.09c-0.177-0.321-7.403-10.918-6.455-23.108c0.256-3.273-0.249-8.301-2.304-10.254
		c-3.098-2.952-12.468-11.78-12.468-11.78V14.331L28.872,41.14c4.5,4.281,4.152,11.526,3.813,17.263
		c-0.022,0.361,0,21.288,24.781,23.104c0.256,0,13.165,0.779,9.552-8.569c-0.262,0-0.78-4.673-10.325-6.745
		c-0.263,0-13.939-5.195-8.005-16.875c0-0.192,0.736-0.928,0.925-0.928c11.652-5.949,16.834,7.762,16.834,8.024
		c2.067,9.57,6.729,10.089,6.729,10.352c9.324,3.621,8.548-9.32,8.548-9.576c-1.812-24.844-22.686-24.865-23.047-24.844
		c-5.723,0.341-12.948,0.689-17.22-3.822L14.435,0.002h21.503c0,0,9.046,9.073,11.99,12.18c1.948,2.058,6.964,2.565,10.229,2.308
		c12.159-0.95,22.73,6.293,23.05,6.471c31.801,17.683,15.794,51.235,16.051,51.235c-2.579,3.759,0,8.285,0,8.285
		c3.441,3.341,21.752,24.824,29.291,27.232c3.596,1.149,8.803-10.878-7.912-17.122c-0.513-0.261-7.739-3.633,1.812-7.783
		c2.602-1.342,8.76-1.31,11.521-1.667c0.301-0.1,1.629-12.078,7.388-13.962c1.051-0.344,3.831-0.344,4.882,0
		c5.759,1.883,7.088,13.862,7.389,13.962c2.759,0.357,8.922,0.325,11.521,1.667c9.552,4.151,2.327,7.522,1.813,7.783
		c-16.715,6.244-11.508,18.271-7.91,17.122c7.537-2.408,25.849-23.891,29.29-27.232c0,0,2.578-4.526,0-8.285
		c0.256,0-15.75-33.551,16.051-51.235c0.319-0.178,10.89-7.421,23.049-6.471c3.264,0.257,8.281-0.25,10.228-2.308
		c2.946-3.107,11.991-12.18,11.991-12.18h21.503l-27.023,28.521c-4.272,4.511-11.497,4.163-17.22,3.822
		c-0.362-0.021-21.235,0-23.047,24.844c0,0.256-0.777,13.197,8.547,9.576c0-0.263,4.663-0.782,6.73-10.352
		c0-0.246,4.554-12.311,14.725-8.917c2.884,0.963,3.253,1.593,4.102,4.403c2.988,9.882-8.824,14.295-9.071,14.295
		c-9.547,2.073-10.065,6.745-10.326,6.745c-3.613,9.348,9.296,8.569,9.552,8.569c24.78-1.816,24.803-22.743,24.78-23.104
		c-0.339-5.737-0.686-12.981,3.814-17.263L283.5,14.331v21.515c0,0-9.371,8.828-12.468,11.78c-2.055,1.953-2.562,6.982-2.305,10.254
		c0.95,12.19-6.276,22.787-6.454,23.108c-17.639,31.881-51.107,15.834-51.107,16.09c-3.749-2.583-8.263,0-8.263,0
		c-3.335,3.452-24.763,21.807-27.165,29.365c-1.147,3.606,10.851,8.826,17.08-7.93c0.26-0.515,3.623-7.759,7.764,1.817
		c1.337,2.606,1.305,8.782,1.663,11.55c0.098,0.301,12.048,1.634,13.926,7.406c0.343,1.055,0.343,3.841,0,4.896
		c-1.878,5.773-13.828,7.105-13.926,7.406c-0.357,2.767-0.325,8.944-1.663,11.55c-4.141,9.575-7.504,2.332-7.764,1.817
		c-6.23-16.757-18.227-11.537-17.08-7.93c2.402,7.557,23.83,25.912,27.165,29.364c0,0,4.514,2.584,8.263,0
		c0,0.255,33.468-15.791,51.107,16.089c0.178,0.322,7.404,10.918,6.454,23.109c-0.256,3.273,0.251,8.301,2.305,10.253
		c3.098,2.953,12.468,11.78,12.468,11.78v21.515l-28.769-26.807c-4.5-4.282-4.153-11.527-3.814-17.263
		c0.023-0.363,0-21.288-24.78-23.105c-0.256,0-13.166-0.779-9.552,8.568c0.262,0,0.779,4.673,10.326,6.746
		c0.261,0,13.938,5.195,8.004,16.875c0,0.192-0.736,0.929-0.926,0.929c-11.651,5.948-16.833-7.762-16.833-8.025
		c-2.067-9.57-6.73-10.09-6.73-10.351c-9.324-3.623-8.547,9.319-8.547,9.576c1.812,24.842,22.686,24.865,23.047,24.842
		c5.723-0.34,12.948-0.689,17.22,3.823l27.023,28.521h-21.503c0,0-9.045-9.073-11.991-12.179c-1.947-2.059-6.964-2.566-10.228-2.31
		c-12.16,0.951-22.73-6.292-23.049-6.47c-31.801-17.683-15.795-51.235-16.051-51.235c2.578-3.758,0-8.284,0-8.284
		c-3.441-3.342-21.753-24.824-29.29-27.233c-3.598-1.149-8.805,10.878,7.91,17.123c0.514,0.26,7.739,3.632-1.813,7.783
		c-2.599,1.342-8.761,1.31-11.521,1.667c-0.301,0.099-1.63,12.079-7.389,13.962c-1.051,0.343-3.831,0.343-4.882,0
		c-5.759-1.883-7.088-13.863-7.388-13.962c-2.761-0.357-8.92-0.325-11.521-1.667c-9.552-4.152-2.325-7.523-1.812-7.783
		c16.715-6.245,11.508-18.272,7.912-17.123c-7.539,2.409-25.85,23.891-29.291,27.233c0,0-2.579,4.526,0,8.284
		c-0.257,0,15.75,33.552-16.051,51.235c-0.32,0.178-10.891,7.421-23.05,6.47c-3.264-0.256-8.281,0.251-10.229,2.31
		c-2.943,3.106-11.99,12.179-11.99,12.179H14.435l27.023-28.521c4.272-4.512,11.497-4.163,17.22-3.823
		c0.361,0.023,21.235,0,23.047-24.842c0-0.258,0.776-13.199-8.548-9.576c0,0.261-4.662,0.781-6.729,10.351
		c0,0.262-5.182,13.973-16.834,8.025c-0.196,0-0.925-0.744-0.925-0.929c-5.934-11.68,7.742-16.875,8.005-16.875
		c9.545-2.073,10.064-6.746,10.325-6.746c3.613-9.347-9.296-8.568-9.552-8.568c-24.781,1.817-24.803,22.742-24.781,23.105
		c0.339,5.736,0.687,12.98-3.813,17.263L0.103,269.136z"/>
	<path fill="#FFFFFF" stroke="#000000" stroke-width="1.6584" stroke-miterlimit="10" d="M141.078,141.733"/>
	<path fill="#FFFFFF" stroke="#000000" stroke-width="1.6626" stroke-miterlimit="10" d="M283.5,283.465"/>
</g>
<g id="c6">
	<path fill="#6A6967" d="M269.419,110.424c-3.008,3.136-4.149,6.859-5.118,12.079c-5.207,0.972-8.92,2.116-12.049,5.131
		c-1.586,1.528-5.458,7.654-5.42,14.117c0.037,6.156,3.909,12.66,5.42,14.116c3.128,3.015,6.842,4.159,12.049,5.131
		c0.969,5.22,2.11,8.943,5.118,12.079c2.977,3.104,7.427,5.647,14.081,6.58V163.01v-5.857v-0.455v-14.947h0v0v0v0h0v-14.947v-0.455
		v-5.857v-16.647C276.846,104.777,272.396,107.32,269.419,110.424z"/>
	<path fill="#6A6967" d="M109.919,14.103c3.12,3.009,6.822,4.15,12.015,5.12c0.967,5.208,2.104,8.923,5.104,12.052
		c1.52,1.586,7.613,5.46,14.041,5.421c6.123-0.037,12.592-3.91,14.04-5.421c2.999-3.129,4.137-6.843,5.104-12.052
		c5.192-0.97,8.895-2.111,12.015-5.12c3.087-2.978,5.617-7.429,6.545-14.084h-16.558h-5.826h-0.452h-14.867v0h0h0h0v0l-14.867,0
		h-0.452h-5.826h-16.558C104.302,6.674,106.832,11.125,109.919,14.103z"/>
	<path fill="#6A6967" d="M14.111,173.077c2.993-3.136,4.128-6.859,5.092-12.079c5.181-0.972,8.875-2.116,11.987-5.131
		c1.578-1.528,5.431-7.654,5.392-14.117c-0.037-6.156-3.89-12.66-5.392-14.116c-3.112-3.015-6.807-4.159-11.987-5.131
		c-0.965-5.22-2.1-8.943-5.092-12.079c-2.962-3.104-7.389-5.647-14.009-6.58v16.647v5.857v0.455l0,14.947h0v0v0v0h0v14.947v0.455
		v5.857v16.647C6.722,178.724,11.15,176.181,14.111,173.077z"/>
	<path fill="#6A6967" d="M172.237,269.398c-3.12-3.009-6.822-4.15-12.015-5.12c-0.967-5.208-2.104-8.923-5.104-12.052
		c-1.52-1.586-7.613-5.46-14.041-5.421c-6.123,0.037-12.592,3.91-14.04,5.421c-2.999,3.129-4.137,6.843-5.104,12.052
		c-5.192,0.97-8.895,2.111-12.015,5.119c-3.087,2.978-5.617,7.429-6.545,14.084l16.558,0h5.826h0.452l14.867,0v0h0h0h0v0l14.867,0
		h0.452h5.826l16.558,0C177.854,276.827,175.324,272.376,172.237,269.398z"/>
	<path fill="#FFFFFF" stroke="#000000" stroke-width="1.6626" stroke-miterlimit="10" d="M283.5,283.482"/>
</g>
</svg>
