<?xml version="1.0" encoding="utf-8"?>
<!-- Generator: Adobe Illustrator 22.0.0, SVG Export Plug-In . SVG Version: 6.00 Build 0)  -->
<svg version="1.1" xmlns="http://www.w3.org/2000/svg" xmlns:xlink="http://www.w3.org/1999/xlink" x="0px" y="0px"
	 viewBox="0 0 283.5 283.5" enable-background="new 0 0 283.5 283.5" xml:space="preserve">
<g id="Capa_1">
</g>
<g id="C8">
	<g>
		<path fill="#9D9FA2" d="M230.695,196.107c1.3,10.434,2.864,20.415,4.614,29.919c1.563,7.767,4.776,23.635,5.186,24.746
			c0.055,0.148,0.213,0.576,0.445,0.585c0.241,0.009,0.438-0.437,0.507-0.592c0.484-1.094,3.527-16.347,5.184-24.739
			c1.75-9.504,3.314-19.485,4.614-29.919c2.397-19.239,3.558-37.32,3.892-54c-4.722,0-9.444,0-14.166,0c-4.722,0-9.444,0-14.166,0
			C227.137,158.787,228.298,176.868,230.695,196.107z"/>
		<path fill="#9D9FA2" d="M174.002,196.107c1.3,10.434,2.864,20.415,4.614,29.919c1.563,7.767,4.776,23.635,5.186,24.746
			c0.055,0.148,0.213,0.576,0.445,0.585c0.241,0.009,0.438-0.437,0.507-0.592c0.484-1.094,3.527-16.347,5.184-24.739
			c1.75-9.504,3.314-19.485,4.614-29.919c2.397-19.239,3.558-37.32,3.892-54c-4.722,0-9.444,0-14.166,0c-4.722,0-9.444,0-14.166,0
			C170.444,158.787,171.605,176.868,174.002,196.107z"/>
	</g>
</g>
<g id="C7">
	<g>
		<path fill="#DEDEDE" d="M194.537,88.107c-1.3-10.434-2.864-20.415-4.614-29.919c-1.563-7.767-4.776-23.635-5.186-24.746
			c-0.055-0.148-0.213-0.576-0.445-0.585c-0.241-0.009-0.438,0.437-0.507,0.592c-0.484,1.094-3.527,16.347-5.184,24.739
			c-1.75,9.504-3.314,19.485-4.614,29.919c-2.397,19.239-3.558,37.32-3.892,54c4.722,0,9.444,0,14.166,0c4.722,0,9.444,0,14.166,0
			C198.095,125.428,196.934,107.346,194.537,88.107z"/>
		<path fill="#DEDEDE" d="M251.23,88.107c-1.3-10.434-2.864-20.415-4.614-29.919c-1.563-7.767-4.776-23.635-5.186-24.746
			c-0.055-0.148-0.213-0.576-0.445-0.585c-0.241-0.009-0.438,0.437-0.507,0.592c-0.484,1.094-3.527,16.347-5.184,24.739
			c-1.75,9.504-3.314,19.485-4.614,29.919c-2.397,19.239-3.558,37.32-3.892,54c4.722,0,9.444,0,14.166,0c4.722,0,9.444,0,14.166,0
			C254.788,125.428,253.627,107.346,251.23,88.107z"/>
	</g>
</g>
<g id="C6">
	<g>
		<path fill="#DEDEDE" d="M88.963,195.75c1.3,10.434,2.864,20.415,4.614,29.919c1.563,7.767,4.776,23.635,5.186,24.746
			c0.055,0.148,0.213,0.576,0.445,0.585c0.241,0.009,0.438-0.437,0.507-0.592c0.484-1.094,3.527-16.347,5.184-24.739
			c1.75-9.504,3.314-19.485,4.614-29.919c2.397-19.239,3.558-37.32,3.892-54c-4.722,0-9.444,0-14.166,0c-4.722,0-9.444,0-14.166,0
			C85.405,158.43,86.566,176.511,88.963,195.75z"/>
		<path fill="#DEDEDE" d="M32.27,195.75c1.3,10.434,2.864,20.415,4.614,29.919c1.563,7.767,4.776,23.635,5.186,24.746
			c0.055,0.148,0.213,0.576,0.445,0.585c0.241,0.009,0.438-0.437,0.507-0.592c0.484-1.094,3.527-16.347,5.184-24.739
			c1.75-9.504,3.314-19.485,4.614-29.919c2.397-19.239,3.558-37.32,3.892-54c-4.722,0-9.444,0-14.166,0c-4.722,0-9.444,0-14.166,0
			C28.712,158.43,29.873,176.511,32.27,195.75z"/>
	</g>
</g>
<g id="C5">
	<g>
		<path fill="#9D9FA2" d="M52.805,87.75c-1.3-10.434-2.864-20.415-4.614-29.919c-1.563-7.767-4.776-23.635-5.186-24.746
			c-0.055-0.148-0.213-0.576-0.445-0.585c-0.241-0.009-0.438,0.437-0.507,0.592c-0.484,1.094-3.527,16.347-5.184,24.739
			c-1.75,9.504-3.314,19.485-4.614,29.919c-2.397,19.239-3.558,37.32-3.892,54c4.722,0,9.444,0,14.166,0c4.722,0,9.444,0,14.166,0
			C56.363,125.07,55.202,106.989,52.805,87.75z"/>
		<path fill="#9D9FA2" d="M109.498,87.75c-1.3-10.434-2.864-20.415-4.614-29.919c-1.563-7.767-4.776-23.635-5.186-24.746
			c-0.055-0.148-0.213-0.576-0.445-0.585c-0.241-0.009-0.438,0.437-0.507,0.592c-0.484,1.094-3.527,16.347-5.184,24.739
			c-1.75,9.504-3.314,19.485-4.614,29.919c-2.397,19.239-3.558,37.32-3.892,54c4.722,0,9.444,0,14.166,0c4.722,0,9.444,0,14.166,0
			C113.056,125.07,111.895,106.989,109.498,87.75z"/>
	</g>
</g>
<g id="c4">
	<path fill="#9D9FA2" d="M141.732,283.482V141.75h-28.346c-0.334,16.68-1.495,34.761-3.892,54
		c-1.3,10.434-2.864,20.415-4.614,29.919c-1.657,8.393-4.7,23.646-5.184,24.739c-0.069,0.155-0.266,0.601-0.507,0.592
		c-0.232-0.009-0.39-0.437-0.445-0.585c-0.41-1.11-3.622-16.979-5.186-24.746c-1.75-9.504-3.314-19.485-4.614-29.919
		c-2.397-19.239-3.558-37.32-3.892-54h-28.36c-0.334,16.68-1.495,34.761-3.892,54c-1.3,10.434-2.864,20.415-4.614,29.919
		c-1.657,8.393-4.7,23.646-5.184,24.739c-0.068,0.155-0.266,0.601-0.506,0.592c-0.232-0.009-0.39-0.437-0.445-0.585
		c-0.41-1.11-3.622-16.979-5.186-24.746c-1.75-9.504-3.314-19.485-4.614-29.919c-2.397-19.239-3.558-37.32-3.892-54H0v141.732
		H141.732z"/>
</g>
<g id="c3">
	<path fill="#9D9FA2" d="M141.75,0v141.732h28.346c0.334-16.68,1.495-34.761,3.892-54c1.3-10.434,2.864-20.415,4.614-29.919
		c1.657-8.393,4.7-23.646,5.184-24.739c0.069-0.155,0.266-0.601,0.507-0.592c0.232,0.009,0.39,0.437,0.445,0.585
		c0.41,1.11,3.622,16.979,5.186,24.746c1.75,9.504,3.314,19.485,4.614,29.919c2.397,19.239,3.558,37.32,3.892,54h28.36
		c0.334-16.68,1.495-34.761,3.892-54c1.3-10.434,2.864-20.415,4.614-29.919c1.657-8.393,4.7-23.646,5.184-24.739
		c0.068-0.155,0.266-0.601,0.506-0.592c0.232,0.009,0.39,0.437,0.445,0.585c0.41,1.11,3.622,16.979,5.186,24.746
		c1.75,9.504,3.314,19.485,4.614,29.919c2.397,19.239,3.558,37.32,3.892,54h28.36V0H141.75z"/>
</g>
<g id="c2">
	<path fill="#6A6967" d="M283.482,283.482V141.75h-28.346c-0.334,16.68-1.495,34.761-3.892,54
		c-1.3,10.434-2.864,20.415-4.614,29.919c-1.657,8.393-4.7,23.646-5.184,24.739c-0.069,0.155-0.266,0.601-0.507,0.592
		c-0.232-0.009-0.39-0.437-0.445-0.585c-0.41-1.11-3.622-16.979-5.186-24.746c-1.75-9.504-3.314-19.485-4.614-29.919
		c-2.397-19.239-3.558-37.32-3.892-54h-28.36c-0.334,16.68-1.495,34.761-3.892,54c-1.3,10.434-2.864,20.415-4.614,29.919
		c-1.657,8.393-4.7,23.646-5.184,24.739c-0.068,0.155-0.266,0.601-0.506,0.592c-0.232-0.009-0.39-0.437-0.445-0.585
		c-0.41-1.11-3.622-16.979-5.186-24.746c-1.75-9.504-3.314-19.485-4.614-29.919c-2.397-19.239-3.558-37.32-3.892-54h-28.36v141.732
		H283.482z"/>
</g>
<g id="c1">
	<path fill="#6A6967" d="M0,0v141.732h28.346c0.334-16.68,1.495-34.761,3.892-54c1.3-10.434,2.864-20.415,4.614-29.919
		c1.657-8.393,4.7-23.646,5.184-24.739c0.069-0.155,0.266-0.601,0.507-0.592c0.232,0.009,0.39,0.437,0.445,0.585
		c0.41,1.11,3.622,16.979,5.186,24.746c1.75,9.504,3.314,19.485,4.614,29.919c2.397,19.239,3.558,37.32,3.892,54h28.36
		c0.334-16.68,1.495-34.761,3.892-54c1.3-10.434,2.864-20.415,4.614-29.919c1.657-8.393,4.7-23.646,5.184-24.739
		c0.068-0.155,0.266-0.601,0.506-0.592c0.232,0.009,0.39,0.437,0.445,0.585c0.41,1.11,3.622,16.979,5.186,24.746
		c1.75,9.504,3.314,19.485,4.614,29.919c2.397,19.239,3.558,37.32,3.892,54h28.36V0H0z"/>
</g>
</svg>
