<?xml version="1.0" encoding="utf-8"?>
<!-- Generator: Adobe Illustrator 22.0.0, SVG Export Plug-In . SVG Version: 6.00 Build 0)  -->
<svg version="1.1" xmlns="http://www.w3.org/2000/svg" xmlns:xlink="http://www.w3.org/1999/xlink" x="0px" y="0px"
	 viewBox="0 0 283.5 283.5" enable-background="new 0 0 283.5 283.5" xml:space="preserve">
<g id="Capa_1">
</g>
<g id="c4">
	<rect x="0.018" y="0.018" fill="#DEDEDE" width="283.465" height="283.465"/>
</g>
<g id="c3">
	<g>
		<path fill="#6A6967" d="M86.989,185.933c-1.951,1.298-2.302,2.433-5.546,7.943c-2.309,3.922-4.014,6.799-6.293,9.788
			c-1.949,2.556-47.698,47.504-48.069,48.339c-0.134,0.301-0.679,1.526-0.164,2.248c0.513,0.72,2.027,0.867,3.54,0.019
			c1.592-1.265,53.129-50.393,55.545-52.008c4.318-2.887,5.882-2.468,8.656-4.562c2.785-2.102,6.513-6.53,5.194-9.901
			c-1.052-2.687-4.823-3.457-5.737-3.607C90.573,183.608,87.819,185.381,86.989,185.933z"/>
		<path fill="#6A6967" d="M68.821,172.185c-1.686,1.615-1.838,2.803-4.083,8.829c-1.598,4.289-39.066,61.02-42.313,65.112
			c-0.275,0.28-0.777,0.869-1,1.762c-0.08,0.322-0.407,1.633,0.215,2.268c0.62,0.633,2.121,0.531,3.455-0.562
			c1.341-1.523,43.4-58.962,45.486-60.969c3.729-3.587,5.324-3.427,7.679-5.97c2.365-2.553,5.262-7.579,3.413-10.723
			c-1.474-2.505-5.279-2.653-6.195-2.653C71.928,169.279,69.538,171.498,68.821,172.185z"/>
		<path fill="#6A6967" d="M47.77,161.792c-0.286,0.392-0.51,0.753-0.696,1.135c-1.73,3.568-1.753,7.242-1.741,8.248
			c0,0,0.004,0.298-2.49,11.375c-2.461,10.931-25.849,55.97-28.545,61.148c-0.294,1.408,0.034,2.672,0.813,3.108
			c1.185,0.663,3.11-0.729,3.356-1.214c0.92-1.816,1.838-3.633,2.756-5.453c9.738-19.312,19.221-38.587,28.454-57.818
			c0,0,1.223-2.507,2.937-4.864c3.064-4.212,4.692-4.364,6.575-7.294c1.891-2.942,3.852-8.394,1.41-11.098
			c-1.946-2.155-5.786-1.564-6.704-1.388C50.338,158.363,48.36,160.985,47.77,161.792z"/>
		<path fill="#6A6967" d="M24.797,155.711c-0.207,0.447-0.358,0.85-0.466,1.266c-0.621,2.405-0.288,3.786-0.071,8.396
			c0.06,1.263,0.089,1.913,0.062,2.867c-0.051,1.794-0.257,3.147-0.401,4.048c-1.405,8.765-2.161,11.704-2.161,11.704
			c-1.243,5.378-6.212,27.302-13.138,57.383c-0.156,0.417-0.327,1.09-0.181,1.875c0.084,0.447,0.261,1.395,0.99,1.694
			c0.575,0.235,1.181-0.06,1.438-0.185c1.202-0.585,1.54-1.931,1.607-2.223c3.003-11.817,6.161-23.793,9.482-35.92
			c2.902-10.596,5.853-21.03,8.846-31.3c0,0,0.711-2.703,1.939-5.363c2.196-4.755,3.78-5.248,5.061-8.502
			c1.286-3.268,2.139-8.998-0.826-11.115c-2.363-1.688-6.055-0.299-6.93,0.068C26.658,151.824,25.221,154.799,24.797,155.711z"/>
		<path fill="#6A6967" d="M18.017,154.482c0.056,0.489,0.072,0.919,0.043,1.348c-0.169,2.477-0.92,3.685-2.58,7.994
			c-0.455,1.18-0.687,1.789-0.963,2.703c-0.517,1.719-0.748,3.068-0.895,3.969c-1.43,8.761-1.639,11.787-1.639,11.787
			c-0.515,5.495-2.71,27.863-5.619,58.587c0.017,0.445-0.033,1.137-0.42,1.837c-0.22,0.398-0.687,1.243-1.474,1.299
			c-0.62,0.044-1.102-0.425-1.307-0.624c-0.956-0.931-0.854-2.314-0.825-2.613c0.875-12.158,1.652-24.515,2.322-37.067
			c0.585-10.967,1.073-21.795,1.47-32.481c0,0,0.177-2.788-0.15-5.698c-0.586-5.2-1.935-6.163-2.125-9.653
			c-0.191-3.505,0.806-9.211,4.289-10.296c2.776-0.865,5.843,1.607,6.559,2.229C17.476,150.211,17.902,153.484,18.017,154.482z"/>
		<path fill="#6A6967" d="M110.194,212.573c-1.584,1.72-2.769,1.896-8.751,4.264c-4.258,1.685-7.383,2.931-10.704,4.724
			c-2.84,1.533-54.473,39.727-55.361,39.968c-0.32,0.087-1.624,0.44-2.27-0.17c-0.644-0.608-0.568-2.113,0.501-3.469
			c1.498-1.373,58.158-44.621,60.126-46.749c3.519-3.804,3.331-5.398,5.83-7.806c2.51-2.418,7.481-5.419,10.655-3.631
			c2.53,1.425,2.745,5.231,2.761,6.148C113.043,209.405,110.868,211.841,110.194,212.573z"/>
		<path fill="#6A6967" d="M121.259,232.385c-1.861,1.413-3.071,1.388-9.421,2.701c-4.52,0.934-66.708,29.287-71.273,31.865
			c-0.32,0.228-0.982,0.633-1.907,0.72c-0.333,0.031-1.691,0.159-2.234-0.544c-0.541-0.701-0.219-2.155,1.07-3.3
			c1.718-1.089,65.288-33.833,67.6-35.582c4.132-3.125,4.206-4.71,7.093-6.642c2.899-1.941,8.346-4.039,11.215-1.766
			c2.287,1.811,1.875,5.559,1.74,6.457C124.62,229.77,122.051,231.783,121.259,232.385z"/>
		<path fill="#6A6967" d="M128.549,254.527c-0.433,0.223-0.827,0.389-1.236,0.514c-3.819,1.17-7.493,0.653-8.497,0.492
			c0,0-0.297-0.047-11.731,0.767c-11.283,0.803-59.719,17.086-65.289,18.965c-1.45,0.081-2.665-0.426-2.986-1.253
			c-0.489-1.258,1.185-2.938,1.706-3.107c1.949-0.634,3.9-1.266,5.853-1.897c20.726-6.698,41.378-13.151,61.949-19.366
			c0,0,2.685-0.829,5.291-2.161c4.659-2.381,5.049-3.953,8.253-5.366c3.217-1.419,8.953-2.538,11.295,0.25
			c1.867,2.222,0.713,5.896,0.401,6.769C132.352,252.516,129.442,254.068,128.549,254.527z"/>
		<path fill="#6A6967" d="M131.241,277.595c-0.476,0.139-0.901,0.229-1.332,0.275c-2.493,0.263-3.826-0.261-8.403-1.135
			c-1.254-0.239-1.9-0.361-2.857-0.472c-1.8-0.208-3.183-0.2-4.105-0.188c-8.963,0.119-12.009,0.438-12.009,0.438
			c-5.554,0.447-28.184,2.17-59.247,4.64c-0.44,0.093-1.137,0.164-1.9-0.092c-0.435-0.146-1.357-0.455-1.551-1.213
			c-0.153-0.597,0.229-1.148,0.391-1.382c0.758-1.093,2.151-1.232,2.453-1.255c12.243-1.247,24.668-2.623,37.268-4.137
			c11.008-1.323,21.862-2.718,32.557-4.176c0,0,2.804-0.309,5.639-1.131c5.068-1.469,5.788-2.951,9.225-3.739
			c3.452-0.791,9.301-0.805,10.993,2.404c1.348,2.557-0.57,5.975-1.063,6.78C135.393,276.33,132.213,277.311,131.241,277.595z"/>
	</g>
	<g>
		<path fill="#6A6967" d="M185.933,86.989c1.298-1.951,2.433-2.302,7.943-5.546c3.922-2.309,6.799-4.014,9.788-6.293
			c2.556-1.949,47.504-47.698,48.339-48.069c0.301-0.134,1.526-0.679,2.248-0.164c0.72,0.513,0.867,2.027,0.019,3.54
			c-1.265,1.592-50.393,53.129-52.008,55.545c-2.887,4.318-2.468,5.882-4.562,8.656c-2.102,2.785-6.53,6.513-9.901,5.194
			c-2.687-1.052-3.457-4.823-3.607-5.737C183.608,90.573,185.381,87.819,185.933,86.989z"/>
		<path fill="#6A6967" d="M172.185,68.821c1.615-1.686,2.803-1.838,8.829-4.083c4.289-1.598,61.02-39.066,65.112-42.313
			c0.28-0.275,0.869-0.777,1.762-1c0.322-0.08,1.633-0.407,2.268,0.215c0.633,0.62,0.531,2.121-0.562,3.455
			c-1.523,1.341-58.962,43.4-60.969,45.486c-3.587,3.729-3.427,5.324-5.97,7.679c-2.553,2.365-7.579,5.262-10.723,3.413
			c-2.505-1.474-2.653-5.279-2.653-6.195C169.279,71.928,171.498,69.538,172.185,68.821z"/>
		<path fill="#6A6967" d="M161.792,47.77c0.392-0.286,0.753-0.51,1.135-0.696c3.568-1.73,7.242-1.753,8.248-1.741
			c0,0,0.298,0.004,11.375-2.49c10.931-2.461,55.97-25.849,61.148-28.545c1.408-0.294,2.672,0.034,3.108,0.813
			c0.663,1.185-0.729,3.11-1.214,3.356c-1.816,0.92-3.633,1.838-5.453,2.756c-19.312,9.738-38.587,19.221-57.818,28.454
			c0,0-2.507,1.223-4.864,2.937c-4.212,3.064-4.364,4.692-7.294,6.575c-2.942,1.891-8.394,3.852-11.098,1.41
			c-2.155-1.946-1.564-5.786-1.388-6.704C158.363,50.338,160.985,48.36,161.792,47.77z"/>
		<path fill="#6A6967" d="M155.711,24.797c0.447-0.207,0.85-0.358,1.266-0.466c2.405-0.621,3.786-0.288,8.396-0.071
			c1.263,0.06,1.913,0.089,2.867,0.062c1.794-0.051,3.147-0.257,4.048-0.401c8.765-1.405,11.704-2.161,11.704-2.161
			c5.378-1.243,27.302-6.212,57.383-13.138c0.417-0.156,1.09-0.327,1.875-0.181c0.447,0.084,1.395,0.261,1.694,0.99
			c0.235,0.575-0.06,1.181-0.185,1.438c-0.585,1.202-1.931,1.54-2.223,1.607c-11.817,3.003-23.793,6.161-35.92,9.482
			c-10.596,2.902-21.03,5.853-31.3,8.846c0,0-2.703,0.711-5.363,1.939c-4.755,2.196-5.248,3.78-8.502,5.061
			c-3.268,1.286-8.998,2.139-11.115-0.826c-1.688-2.363-0.299-6.055,0.068-6.93C151.824,26.658,154.799,25.221,155.711,24.797z"/>
		<path fill="#6A6967" d="M154.482,18.017c0.489,0.056,0.919,0.072,1.348,0.043c2.477-0.169,3.685-0.92,7.994-2.58
			c1.18-0.455,1.789-0.687,2.703-0.963c1.719-0.517,3.068-0.748,3.969-0.895c8.761-1.43,11.787-1.639,11.787-1.639
			c5.495-0.515,27.863-2.71,58.587-5.619c0.445,0.017,1.137-0.033,1.837-0.42c0.398-0.22,1.243-0.687,1.299-1.474
			c0.044-0.62-0.425-1.102-0.624-1.307c-0.931-0.956-2.314-0.854-2.613-0.825c-12.158,0.875-24.515,1.652-37.067,2.322
			c-10.967,0.585-21.795,1.073-32.481,1.47c0,0-2.788,0.177-5.698-0.15c-5.2-0.586-6.163-1.935-9.653-2.125
			c-3.505-0.191-9.211,0.806-10.296,4.289c-0.865,2.776,1.607,5.843,2.229,6.559C150.211,17.476,153.484,17.902,154.482,18.017z"/>
		<path fill="#6A6967" d="M212.573,110.194c1.72-1.584,1.896-2.769,4.264-8.751c1.685-4.258,2.931-7.383,4.724-10.704
			c1.533-2.84,39.727-54.473,39.968-55.361c0.087-0.32,0.44-1.624-0.17-2.27c-0.608-0.644-2.113-0.568-3.469,0.501
			c-1.373,1.498-44.621,58.158-46.749,60.126c-3.804,3.519-5.398,3.331-7.806,5.83c-2.418,2.51-5.419,7.481-3.631,10.655
			c1.425,2.53,5.231,2.745,6.148,2.761C209.405,113.043,211.841,110.868,212.573,110.194z"/>
		<path fill="#6A6967" d="M232.385,121.259c1.413-1.861,1.388-3.071,2.701-9.421c0.934-4.52,29.287-66.708,31.865-71.273
			c0.228-0.32,0.633-0.982,0.72-1.907c0.031-0.333,0.159-1.691-0.544-2.234c-0.701-0.541-2.155-0.219-3.3,1.07
			c-1.089,1.718-33.833,65.288-35.582,67.6c-3.125,4.132-4.71,4.206-6.642,7.093c-1.941,2.899-4.039,8.346-1.766,11.215
			c1.811,2.287,5.559,1.875,6.457,1.74C229.77,124.62,231.783,122.051,232.385,121.259z"/>
		<path fill="#6A6967" d="M254.527,128.549c0.223-0.433,0.389-0.827,0.514-1.236c1.17-3.819,0.653-7.493,0.492-8.497
			c0,0-0.047-0.297,0.767-11.731c0.803-11.283,17.086-59.719,18.965-65.289c0.081-1.45-0.426-2.665-1.253-2.986
			c-1.258-0.489-2.938,1.185-3.107,1.706c-0.634,1.949-1.266,3.9-1.897,5.853c-6.698,20.726-13.151,41.378-19.366,61.949
			c0,0-0.829,2.685-2.161,5.291c-2.381,4.659-3.953,5.049-5.366,8.253c-1.419,3.217-2.538,8.953,0.25,11.295
			c2.222,1.867,5.896,0.713,6.769,0.401C252.516,132.352,254.068,129.442,254.527,128.549z"/>
		<path fill="#6A6967" d="M277.595,131.241c0.139-0.476,0.229-0.901,0.275-1.332c0.263-2.493-0.261-3.826-1.135-8.403
			c-0.239-1.254-0.361-1.9-0.472-2.857c-0.208-1.8-0.2-3.183-0.188-4.105c0.119-8.963,0.438-12.009,0.438-12.009
			c0.447-5.554,2.17-28.184,4.64-59.247c0.093-0.44,0.164-1.137-0.092-1.9c-0.146-0.435-0.455-1.357-1.213-1.551
			c-0.597-0.153-1.148,0.229-1.382,0.391c-1.093,0.758-1.232,2.151-1.255,2.453c-1.247,12.243-2.623,24.668-4.137,37.268
			c-1.323,11.008-2.718,21.862-4.176,32.557c0,0-0.309,2.804-1.131,5.639c-1.469,5.068-2.951,5.788-3.739,9.225
			c-0.791,3.452-0.805,9.301,2.404,10.993c2.557,1.348,5.975-0.57,6.78-1.063C276.33,135.393,277.311,132.213,277.595,131.241z"/>
	</g>
	<g>
		<path fill="#6A6967" d="M97.567,86.93c-1.298-1.951-2.433-2.302-7.943-5.546c-3.922-2.309-6.799-4.014-9.788-6.293
			c-2.556-1.949-47.504-47.698-48.339-48.069c-0.301-0.134-1.526-0.679-2.248-0.164c-0.72,0.513-0.867,2.027-0.019,3.54
			c1.265,1.592,50.393,53.129,52.008,55.545c2.887,4.318,2.468,5.882,4.562,8.656c2.102,2.785,6.53,6.513,9.901,5.194
			c2.687-1.052,3.457-4.823,3.607-5.737C99.892,90.514,98.119,87.76,97.567,86.93z"/>
		<path fill="#6A6967" d="M111.315,68.762c-1.615-1.686-2.803-1.838-8.829-4.083c-4.289-1.598-61.02-39.066-65.112-42.313
			c-0.28-0.275-0.869-0.777-1.762-1c-0.322-0.08-1.633-0.407-2.268,0.215c-0.633,0.62-0.531,2.121,0.562,3.455
			c1.523,1.341,58.962,43.4,60.969,45.486c3.587,3.729,3.427,5.324,5.97,7.679c2.553,2.365,7.579,5.262,10.723,3.413
			c2.506-1.474,2.653-5.279,2.653-6.195C114.221,71.869,112.002,69.479,111.315,68.762z"/>
		<path fill="#6A6967" d="M121.708,47.711c-0.392-0.286-0.753-0.51-1.135-0.696c-3.568-1.73-7.242-1.753-8.248-1.741
			c0,0-0.298,0.004-11.375-2.49C90.019,40.324,44.98,16.936,39.802,14.24c-1.408-0.294-2.672,0.034-3.108,0.813
			c-0.663,1.185,0.729,3.11,1.214,3.356c1.816,0.92,3.633,1.838,5.453,2.756c19.312,9.738,38.587,19.221,57.818,28.454
			c0,0,2.507,1.223,4.864,2.937c4.212,3.064,4.364,4.692,7.294,6.575c2.942,1.891,8.394,3.852,11.098,1.41
			c2.155-1.946,1.565-5.786,1.388-6.704C125.137,50.279,122.515,48.301,121.708,47.711z"/>
		<path fill="#6A6967" d="M127.789,24.739c-0.447-0.207-0.85-0.358-1.266-0.466c-2.405-0.621-3.786-0.288-8.396-0.071
			c-1.263,0.06-1.913,0.089-2.867,0.062c-1.794-0.051-3.147-0.257-4.048-0.401c-8.765-1.405-11.704-2.161-11.704-2.161
			c-5.378-1.243-27.302-6.212-57.383-13.138c-0.418-0.156-1.09-0.327-1.875-0.181c-0.447,0.084-1.395,0.261-1.694,0.99
			c-0.235,0.575,0.06,1.181,0.185,1.438c0.585,1.202,1.931,1.54,2.223,1.607c11.817,3.003,23.793,6.161,35.92,9.482
			c10.596,2.902,21.03,5.853,31.3,8.846c0,0,2.703,0.711,5.363,1.939c4.755,2.196,5.248,3.78,8.502,5.061
			c3.268,1.286,8.998,2.139,11.115-0.826c1.688-2.363,0.299-6.055-0.068-6.93C131.676,26.599,128.701,25.162,127.789,24.739z"/>
		<path fill="#6A6967" d="M129.018,17.958c-0.489,0.056-0.919,0.072-1.348,0.043c-2.477-0.169-3.685-0.92-7.994-2.58
			c-1.18-0.455-1.789-0.687-2.703-0.963c-1.719-0.517-3.068-0.748-3.969-0.895c-8.761-1.43-11.787-1.639-11.787-1.639
			c-5.495-0.515-27.863-2.71-58.587-5.619c-0.445,0.017-1.137-0.033-1.837-0.42c-0.398-0.22-1.243-0.687-1.299-1.474
			c-0.044-0.62,0.425-1.102,0.624-1.307c0.931-0.956,2.314-0.854,2.613-0.825c12.158,0.875,24.515,1.652,37.067,2.322
			c10.967,0.585,21.795,1.073,32.481,1.47c0,0,2.788,0.177,5.698-0.15c5.2-0.586,6.163-1.935,9.653-2.125
			c3.505-0.191,9.211,0.806,10.296,4.289c0.865,2.776-1.607,5.843-2.229,6.559C133.289,17.417,130.016,17.843,129.018,17.958z"/>
		<path fill="#6A6967" d="M70.927,110.135c-1.72-1.584-1.896-2.769-4.264-8.751c-1.685-4.258-2.931-7.383-4.724-10.704
			c-1.533-2.84-39.727-54.473-39.968-55.361c-0.087-0.32-0.44-1.624,0.17-2.27c0.608-0.644,2.113-0.568,3.469,0.501
			c1.373,1.498,44.621,58.158,46.749,60.126c3.804,3.519,5.398,3.331,7.806,5.83c2.418,2.51,5.419,7.481,3.631,10.655
			c-1.425,2.53-5.231,2.745-6.148,2.761C74.095,112.985,71.659,110.809,70.927,110.135z"/>
		<path fill="#6A6967" d="M51.115,121.201c-1.413-1.861-1.388-3.071-2.701-9.421c-0.934-4.52-29.287-66.708-31.865-71.273
			c-0.228-0.32-0.633-0.982-0.72-1.907c-0.031-0.333-0.159-1.691,0.544-2.234c0.701-0.541,2.155-0.219,3.3,1.07
			c1.089,1.718,33.833,65.288,35.582,67.6c3.125,4.132,4.71,4.206,6.642,7.093c1.941,2.899,4.039,8.346,1.766,11.215
			c-1.811,2.287-5.559,1.875-6.457,1.74C53.73,124.561,51.717,121.992,51.115,121.201z"/>
		<path fill="#6A6967" d="M28.973,128.49c-0.223-0.433-0.389-0.827-0.514-1.236c-1.17-3.819-0.653-7.493-0.492-8.497
			c0,0,0.047-0.297-0.767-11.731C26.397,95.743,10.114,47.307,8.234,41.737c-0.081-1.45,0.426-2.665,1.253-2.986
			c1.258-0.489,2.938,1.185,3.107,1.706c0.634,1.949,1.266,3.9,1.897,5.853c6.698,20.726,13.151,41.378,19.366,61.949
			c0,0,0.829,2.685,2.161,5.291c2.381,4.659,3.953,5.049,5.366,8.253c1.419,3.217,2.538,8.953-0.25,11.295
			c-2.222,1.867-5.896,0.713-6.769,0.401C30.984,132.294,29.432,129.383,28.973,128.49z"/>
		<path fill="#6A6967" d="M5.905,131.182c-0.139-0.476-0.229-0.901-0.275-1.332c-0.263-2.493,0.261-3.826,1.135-8.403
			c0.239-1.254,0.361-1.9,0.472-2.857c0.208-1.8,0.2-3.183,0.188-4.105c-0.119-8.963-0.438-12.009-0.438-12.009
			c-0.447-5.554-2.17-28.184-4.64-59.247c-0.093-0.44-0.164-1.137,0.092-1.9c0.146-0.435,0.455-1.357,1.213-1.551
			c0.597-0.153,1.148,0.229,1.382,0.391c1.093,0.758,1.232,2.151,1.255,2.453c1.247,12.243,2.623,24.668,4.137,37.268
			c1.323,11.008,2.718,21.862,4.176,32.557c0,0,0.309,2.804,1.131,5.639c1.469,5.068,2.951,5.788,3.739,9.226
			c0.791,3.452,0.805,9.301-2.404,10.993c-2.557,1.348-5.975-0.57-6.78-1.063C7.17,135.334,6.189,132.154,5.905,131.182z"/>
	</g>
	<g>
		<path fill="#6A6967" d="M196.511,185.874c1.951,1.298,2.302,2.433,5.546,7.943c2.309,3.922,4.014,6.799,6.293,9.788
			c1.949,2.556,47.698,47.504,48.069,48.339c0.134,0.301,0.679,1.526,0.164,2.248c-0.513,0.72-2.027,0.867-3.54,0.019
			c-1.592-1.265-53.129-50.393-55.545-52.008c-4.318-2.887-5.882-2.468-8.656-4.562c-2.785-2.102-6.513-6.53-5.194-9.901
			c1.052-2.687,4.823-3.457,5.737-3.607C192.927,183.549,195.681,185.322,196.511,185.874z"/>
		<path fill="#6A6967" d="M214.679,172.126c1.686,1.615,1.838,2.803,4.083,8.829c1.598,4.289,39.066,61.02,42.313,65.112
			c0.275,0.28,0.777,0.869,1,1.762c0.08,0.322,0.407,1.633-0.215,2.268c-0.62,0.633-2.121,0.531-3.454-0.562
			c-1.341-1.523-43.4-58.962-45.486-60.969c-3.729-3.587-5.324-3.427-7.679-5.97c-2.365-2.553-5.262-7.579-3.413-10.723
			c1.474-2.505,5.279-2.653,6.195-2.653C211.572,169.22,213.962,171.439,214.679,172.126z"/>
		<path fill="#6A6967" d="M235.73,161.733c0.286,0.392,0.51,0.753,0.696,1.135c1.73,3.568,1.753,7.242,1.741,8.248
			c0,0-0.004,0.298,2.49,11.375c2.461,10.931,25.849,55.97,28.545,61.148c0.294,1.408-0.034,2.672-0.813,3.108
			c-1.185,0.663-3.11-0.729-3.356-1.214c-0.92-1.816-1.838-3.633-2.756-5.453c-9.738-19.312-19.221-38.587-28.454-57.818
			c0,0-1.223-2.507-2.937-4.864c-3.064-4.212-4.692-4.364-6.575-7.294c-1.891-2.942-3.852-8.394-1.41-11.098
			c1.946-2.155,5.786-1.564,6.704-1.388C233.162,158.304,235.14,160.926,235.73,161.733z"/>
		<path fill="#6A6967" d="M258.703,155.652c0.207,0.447,0.358,0.85,0.466,1.266c0.621,2.405,0.288,3.786,0.071,8.396
			c-0.06,1.263-0.089,1.913-0.062,2.867c0.051,1.794,0.257,3.147,0.401,4.048c1.405,8.765,2.161,11.704,2.161,11.704
			c1.243,5.378,6.212,27.302,13.138,57.383c0.156,0.417,0.327,1.09,0.181,1.875c-0.084,0.447-0.261,1.395-0.99,1.694
			c-0.575,0.235-1.181-0.06-1.438-0.185c-1.202-0.585-1.54-1.931-1.607-2.223c-3.003-11.817-6.161-23.793-9.482-35.92
			c-2.902-10.596-5.853-21.03-8.846-31.3c0,0-0.711-2.703-1.939-5.363c-2.196-4.755-3.781-5.248-5.061-8.502
			c-1.286-3.268-2.139-8.998,0.826-11.115c2.363-1.688,6.055-0.299,6.93,0.068C256.842,151.765,258.279,154.74,258.703,155.652z"/>
		<path fill="#6A6967" d="M265.483,154.423c-0.056,0.489-0.072,0.919-0.043,1.348c0.169,2.477,0.92,3.685,2.58,7.994
			c0.455,1.18,0.687,1.789,0.963,2.703c0.517,1.719,0.748,3.068,0.895,3.969c1.43,8.761,1.639,11.787,1.639,11.787
			c0.515,5.495,2.71,27.863,5.619,58.587c-0.017,0.445,0.033,1.137,0.42,1.837c0.22,0.398,0.687,1.243,1.474,1.299
			c0.62,0.044,1.102-0.425,1.307-0.624c0.956-0.931,0.854-2.314,0.825-2.613c-0.875-12.158-1.652-24.515-2.322-37.067
			c-0.585-10.967-1.073-21.795-1.47-32.481c0,0-0.177-2.788,0.15-5.698c0.586-5.2,1.935-6.163,2.125-9.653
			c0.191-3.505-0.806-9.211-4.289-10.296c-2.776-0.865-5.843,1.607-6.559,2.229C266.024,150.152,265.598,153.426,265.483,154.423z"
			/>
		<path fill="#6A6967" d="M173.306,212.514c1.584,1.72,2.769,1.896,8.751,4.264c4.258,1.685,7.383,2.931,10.704,4.724
			c2.84,1.533,54.473,39.727,55.361,39.968c0.32,0.087,1.624,0.44,2.27-0.17c0.644-0.608,0.568-2.113-0.501-3.469
			c-1.498-1.373-58.158-44.621-60.126-46.749c-3.519-3.804-3.331-5.398-5.83-7.806c-2.51-2.418-7.481-5.419-10.655-3.631
			c-2.53,1.425-2.745,5.231-2.761,6.148C170.457,209.346,172.632,211.782,173.306,212.514z"/>
		<path fill="#6A6967" d="M162.241,232.326c1.861,1.413,3.071,1.388,9.421,2.701c4.52,0.934,66.708,29.287,71.273,31.865
			c0.32,0.228,0.982,0.633,1.907,0.72c0.333,0.031,1.691,0.159,2.234-0.544c0.541-0.701,0.219-2.155-1.07-3.3
			c-1.718-1.089-65.288-33.833-67.6-35.582c-4.132-3.125-4.206-4.71-7.093-6.642c-2.899-1.941-8.346-4.039-11.215-1.766
			c-2.287,1.811-1.875,5.559-1.74,6.457C158.88,229.711,161.449,231.724,162.241,232.326z"/>
		<path fill="#6A6967" d="M154.951,254.468c0.433,0.223,0.827,0.389,1.236,0.514c3.819,1.17,7.493,0.653,8.497,0.492
			c0,0,0.297-0.047,11.731,0.767c11.283,0.803,59.719,17.086,65.289,18.965c1.45,0.081,2.665-0.426,2.986-1.253
			c0.489-1.258-1.185-2.938-1.706-3.107c-1.949-0.634-3.9-1.266-5.853-1.897c-20.726-6.698-41.378-13.151-61.949-19.366
			c0,0-2.685-0.829-5.291-2.161c-4.659-2.381-5.049-3.953-8.253-5.366c-3.217-1.419-8.953-2.538-11.295,0.25
			c-1.867,2.222-0.713,5.896-0.401,6.769C151.148,252.457,154.058,254.009,154.951,254.468z"/>
		<path fill="#6A6967" d="M152.259,277.536c0.476,0.139,0.901,0.229,1.332,0.275c2.493,0.263,3.826-0.261,8.403-1.135
			c1.253-0.239,1.9-0.361,2.857-0.472c1.8-0.208,3.183-0.2,4.105-0.188c8.963,0.119,12.009,0.438,12.009,0.438
			c5.554,0.447,28.184,2.17,59.247,4.64c0.44,0.093,1.137,0.164,1.9-0.092c0.435-0.146,1.357-0.455,1.551-1.213
			c0.153-0.597-0.229-1.148-0.391-1.382c-0.758-1.093-2.151-1.232-2.453-1.255c-12.243-1.247-24.668-2.623-37.268-4.137
			c-11.008-1.323-21.862-2.718-32.557-4.176c0,0-2.804-0.309-5.639-1.131c-5.068-1.469-5.788-2.951-9.226-3.739
			c-3.452-0.791-9.301-0.805-10.993,2.404c-1.348,2.557,0.57,5.975,1.063,6.78C148.107,276.271,151.287,277.252,152.259,277.536z"/>
	</g>
</g>
<g id="c2">
</g>
<g id="c1">
	<g>
		<path fill="#353333" d="M0.018,0.018l0,34.654c19.139,0,34.654-15.515,34.654-34.654L0.018,0.018z"/>
		<path fill="#353333" d="M0.018,283.482v-34.654c19.139,0,34.654,15.515,34.654,34.654H0.018z"/>
		<path fill="#353333" d="M283.482,283.482v-34.654c-19.139,0-34.654,15.515-34.654,34.654H283.482z"/>
		<path fill="#353333" d="M283.482,0.018v34.654c-19.139,0-34.654-15.515-34.654-34.654H283.482z"/>
	</g>
</g>
</svg>
