<?xml version="1.0" encoding="utf-8"?>
<!-- Generator: Adobe Illustrator 22.0.0, SVG Export Plug-In . SVG Version: 6.00 Build 0)  -->
<svg version="1.1" xmlns="http://www.w3.org/2000/svg" xmlns:xlink="http://www.w3.org/1999/xlink" x="0px" y="0px"
	 viewBox="0 0 283.5 283.5" enable-background="new 0 0 283.5 283.5" xml:space="preserve">
<g id="Capa_1">
</g>
<g id="c1">
	<rect x="0.11" y="0.07" fill="#DEDEDE" width="283.419" height="283.374"/>
</g>
<g id="c6">
	<path fill="#353333" d="M283.491,283.423c-0.03-37.779-0.06-75.557-0.091-113.336c-1.927,0.779-5.18,2.409-7.908,5.704
		c-3.179,3.839-3.949,7.893-4.666,11.663c-0.963,5.063-0.564,9.142-0.333,11.33c0.302,2.868,0.847,5.252,1.333,6.998
		c-2.555,1.888-5.11,3.777-7.665,5.665c-3.046-4.403-6.287-7.419-8.665-9.33c-2.406-1.934-6.056-4.813-11.665-6.665
		c-4.472-1.476-8.399-1.708-10.998-1.666c-1.167,2.598-2.747,7.045-2.666,12.663c0.111,7.757,3.325,13.298,5.332,16.661
		c4.928,8.258,11.635,12.77,12.998,13.662c3.112,2.037,6.7,3.748,13.998,8.664c2.178,1.467,4.077,2.809,5.333,5.332
		c1.277,2.567,1.817,6.216,0.333,9.664c-0.967,2.247-2.465,3.645-3.335,4.343c-0.001-0.001-0.003-0.003-0.004-0.004
		c-0.006,0.008-0.014,0.017-0.02,0.025c-0.008,0.006-0.017,0.015-0.025,0.021c0,0.002,0.001,0.005,0.002,0.008
		c-0.699,0.871-2.096,2.365-4.341,3.332c-3.448,1.484-7.098,0.944-9.665-0.333c-2.523-1.255-3.865-3.154-5.332-5.332
		c-4.916-7.297-6.628-10.884-8.665-13.996c-0.892-1.363-5.405-8.069-13.664-12.996c-3.364-2.007-8.905-5.22-16.664-5.332
		c-5.619-0.081-10.066,1.499-12.665,2.666c-0.042,2.598,0.19,6.526,1.666,10.996c1.852,5.608,4.732,9.258,6.666,11.663
		c1.912,2.378,4.928,5.619,9.332,8.664c-1.889,2.555-3.777,5.109-5.666,7.664c-1.746-0.486-4.13-1.031-6.999-1.333
		c-2.188-0.23-6.268-0.629-11.331,0.333c-3.771,0.717-7.825,1.487-11.665,4.665c-3.295,2.727-4.926,5.98-5.705,7.907
		c37.785,0.03,75.569,0.06,113.354,0.091c-0.032-0.033-0.065-0.065-0.097-0.098C283.385,283.397,283.445,283.412,283.491,283.423z"
		/>
</g>
<g id="c11">
	<path fill="#9D9FA2" d="M283.188,170.042c-10.6,0.078-39.229,1.711-66.78,21.751c-21.808,15.863-32.155,35.414-36.097,43.923
		c-9.173,19.799-10.485,37.691-10.491,47.676c0.8-1.956,2.441-5.183,5.705-7.907c3.869-3.229,7.919-4,11.665-4.665
		c7.154-1.27,13.548-0.331,18.33,1c1.889-2.555,3.777-5.109,5.666-7.664c-2.952-1.854-9.184-6.33-13.463-14.594
		c-3.586-6.925-4.146-13.313-4.2-16.729c1.65-0.753,4.06-1.671,7.076-2.2c1.057-0.186,6.498-1.08,13.172,0.682
		c11.917,3.145,19.114,12.475,22.745,17.18c1.113,1.442,1.959,2.681,2.502,3.506c2.242,4.544,4.458,8.036,6.163,10.489
		c1.421,2.043,2.406,3.248,3.986,4.327c0.949,0.647,3.655,2.439,7.3,2.208c3.955-0.25,6.52-2.724,8.053-4.202
		c1.322-1.275,3.22-3.104,3.981-6.215c0.947-3.87-0.524-7.033-0.931-7.84c-1.421-2.818-3.674-4.283-5.333-5.332
		c-7.447-4.711-10.571-6.373-13.998-8.664c-1.957-1.308-6.805-4.608-11.021-10.302c-2.109-2.848-5.954-8.176-6.982-16.132
		c-0.963-7.456,1.034-13.462,2.339-16.551c2.599-0.042,6.527,0.19,10.998,1.666c5.609,1.851,9.259,4.731,11.665,6.665
		c2.379,1.912,5.619,4.927,8.665,9.33c2.555-1.888,5.11-3.777,7.666-5.665c-1.95-6.646-1.777-12.163-1.423-15.427
		c0.482-4.454,1.059-9.786,5.089-14.564C277.974,172.544,281.192,170.876,283.188,170.042z"/>
</g>
<g id="c10">
	<path fill="#353333" d="M283.188,170.042V153.04c-72.003,0-130.373,58.361-130.373,130.352h17.005
		C169.82,220.79,220.577,170.042,283.188,170.042z"/>
</g>
<g id="c9">
	<path fill="#FFFFFF" stroke="#000000" stroke-width="3.3333" stroke-miterlimit="10" d="M60.533,209.115"/>
	<g>
		<path fill="#353333" d="M263.808,63.255c-2.235-3.415-4.761-5.74-6.629-7.198c-2.521-1.967-8.765-6.767-16.667-6.131
			c-9.001,0.724-18.123,8.351-19.197,18.161c-0.075,0.688-0.862,9.152,5.333,15.328c1.042,1.039,6.082,6.065,12.998,5.165
			c3.239-0.421,5.584-1.973,6.798-2.923c0.356-0.498,1.851-2.513,3.109-2.228c1.313,0.297,2.212,3.065,1.754,6.983
			c0,10.147,0,20.294,0,30.441c-65.796,12.917-117.625,64.742-130.544,130.53c-10.151,0-20.301,0-30.452,0
			c-3.919,0.458-6.687-0.441-6.985-1.753c-0.285-1.257,1.73-2.753,2.228-3.108c0.95-1.215,2.502-3.559,2.923-6.797
			c0.9-6.915-4.127-11.954-5.166-12.996c-6.178-6.193-14.642-5.407-15.331-5.332c-9.812,1.074-17.44,10.195-18.164,19.194
			c-0.636,7.901,4.165,14.144,6.132,16.665c1.458,1.868,3.783,4.394,7.199,6.628c4.596,3.006,9.014,4.076,11.665,4.502
			c14.503,0,29.007,0,43.51,0c4.605,0,9.209,0,13.814,0h3.257c7.074-70.094,62.813-125.818,132.918-132.891v-3.262
			c0-4.606,0-9.212,0-13.818c0-14.499,0-28.998,0-43.497C267.885,72.267,266.815,67.85,263.808,63.255z"/>
		<path fill="#353333" d="M19.629,220.371c2.235,3.415,4.761,5.74,6.629,7.198c2.521,1.967,8.765,6.767,16.667,6.131
			c9.001-0.724,18.123-8.351,19.197-18.161c0.075-0.688,0.862-9.152-5.333-15.328c-1.042-1.039-6.082-6.065-12.998-5.165
			c-3.239,0.421-5.584,1.973-6.798,2.923c-0.356,0.498-1.851,2.513-3.109,2.228c-1.313-0.297-2.212-3.065-1.754-6.983
			c0-10.147,0-20.294,0-30.441c65.796-12.917,117.625-64.742,130.544-130.53c10.151,0,20.301,0,30.452,0
			c3.919-0.458,6.687,0.441,6.985,1.753c0.285,1.257-1.73,2.753-2.228,3.108c-0.95,1.215-2.502,3.559-2.923,6.797
			c-0.9,6.915,4.127,11.954,5.166,12.996c6.178,6.193,14.642,5.407,15.331,5.332c9.812-1.074,17.44-10.195,18.164-19.194
			c0.636-7.901-4.165-14.144-6.132-16.665c-1.458-1.868-3.783-4.394-7.199-6.628c-4.596-3.006-9.014-4.076-11.665-4.502
			c-14.503,0-29.007,0-43.51,0c-4.605,0-9.209,0-13.814,0h-3.257C140.97,85.335,85.231,141.058,15.125,148.132v3.262
			c0,4.606,0,9.212,0,13.818c0,14.499,0,28.998,0,43.497C15.552,211.359,16.622,215.776,19.629,220.371z"/>
	</g>
	<path fill="#FFFFFF" stroke="#000000" stroke-width="3.3333" stroke-miterlimit="10" d="M60.574,209.051"/>
	<path fill="#FFFFFF" stroke="#000000" stroke-width="3.3333" stroke-miterlimit="10" d="M60.574,209.051"/>
	<path fill="#FFFFFF" stroke="#000000" stroke-width="3.3333" stroke-miterlimit="10" d="M60.574,209.051"/>
	<path fill="#FFFFFF" stroke="#000000" stroke-width="3.3333" stroke-miterlimit="10" d="M60.533,209.115"/>
	<path fill="#FFFFFF" stroke="#000000" stroke-width="3.3333" stroke-miterlimit="10" d="M60.533,209.115"/>
</g>
<g id="c8">
	<path fill="#FFFFFF" stroke="#000000" stroke-width="3.3333" stroke-miterlimit="10" d="M60.533,209.115"/>
	<path fill="#FFFFFF" stroke="#000000" stroke-width="3.3333" stroke-miterlimit="10" d="M60.574,209.051"/>
	<g>
		<path fill="#DEDEDE" d="M32.171,162.71c5.199-1.016,12.313-2.669,20.527-5.426c7.501-2.518,35.406-12.501,61.08-36.625
			c35.072-32.956,45.695-73.244,48.938-88.478c11.645,0.042,23.291,0.084,34.936,0.125c1.043-0.044,1.96,0.424,2.292,1.183
			c0.308,0.705,0.011,1.431-0.073,1.635c-0.341,0.835-0.992,1.176-1.555,1.624c-0.93,0.74-1.338,1.544-2.124,3.095
			c-1.211,2.389-1.344,4.667-1.294,5.531c0.091,1.58,0.541,5.698,3.571,9.66c2.656,3.471,5.908,5.013,7.4,5.611
			c-4.562,2.579-12.548,6.27-23.064,7.051c-6.03,0.448-11.202-0.187-15.101-0.995c-1.057,2.03-2.601,4.738-4.749,7.748
			c-2.412,3.38-3.493,4.208-3.249,4.998c0.489,1.59,6.059,2.137,25.746-1.25c2.731-0.29,5.162,1.444,5.69,3.802
			c0.419,1.868-0.407,3.903-2.089,5.131c-3.766,3.293-8.771,6.985-15.111,10.166c-2.279,1.143-9.122,4.425-18.665,6.357
			c-2.647,0.536-4.906,0.847-6.569,1.036c-0.883,6.197-2.004,12.731-3.423,19.554c-1.273,6.117-2.672,11.921-4.144,17.399
			c-12.134,2.366-24.267,4.733-36.401,7.099c-0.616,5.797-2.177,14.015-6.337,23.023c-2.914,6.31-6.309,11.288-9.26,14.982
			c-0.362,0.672-1.688,2.931-4.434,3.877c-0.719,0.248-2.611,0.9-4.215,0.106c-2.136-1.057-3.222-4.408-2.249-8.135
			c2.91-14.484,3.326-22.102,1.25-22.855c-0.611-0.222-1.439,0.151-2.483,1.12c-1.863,1.738-4.238,3.617-7.189,5.302
			c-1.057,0.603-2.087,1.125-3.076,1.576c0.835,4.254,1.52,10.314,0.663,17.473c-0.605,5.057-1.818,9.319-3.027,12.617
			c-1.231,2.69-2.462,5.38-3.693,8.07c-0.351-0.819-3.758-8.456-11.084-10.377c-3.944-1.034-7.804-0.092-7.995-0.043
			c-1.617,0.412-2.601,0.663-3.613,1.514c-1.37,1.153-1.518,2.337-2.923,2.758c-0.069,0.021-1.498,0.429-2.324-0.334
			c-0.447-0.413-0.526-0.992-0.585-1.924c-0.068-1.066-0.109-2.539,0.009-4.338C32.171,183.003,32.171,172.856,32.171,162.71z"/>
		<path fill="#DEDEDE" d="M251.328,120.847c-5.199,1.016-12.313,2.669-20.527,5.426c-7.501,2.518-35.406,12.501-61.08,36.625
			c-35.072,32.956-45.695,73.244-48.938,88.478c-11.645-0.042-23.291-0.084-34.936-0.125c-1.043,0.044-1.96-0.424-2.292-1.183
			c-0.308-0.705-0.011-1.431,0.073-1.635c0.341-0.835,0.992-1.176,1.555-1.624c0.93-0.74,1.338-1.544,2.124-3.095
			c1.211-2.389,1.344-4.667,1.294-5.531c-0.091-1.58-0.541-5.698-3.571-9.66c-2.656-3.471-5.908-5.013-7.4-5.611
			c4.562-2.579,12.548-6.27,23.064-7.051c6.03-0.448,11.202,0.187,15.101,0.995c1.057-2.03,2.601-4.738,4.749-7.748
			c2.412-3.38,3.493-4.208,3.249-4.998c-0.489-1.59-6.059-2.137-25.746,1.25c-2.731,0.29-5.162-1.444-5.69-3.802
			c-0.419-1.868,0.407-3.903,2.089-5.131c3.766-3.293,8.771-6.985,15.111-10.166c2.279-1.143,9.122-4.425,18.665-6.357
			c2.647-0.536,4.906-0.847,6.569-1.036c0.883-6.197,2.004-12.731,3.423-19.554c1.273-6.117,2.672-11.921,4.144-17.399
			c12.134-2.366,24.267-4.733,36.401-7.099c0.616-5.797,2.177-14.015,6.337-23.023c2.914-6.31,6.309-11.288,9.26-14.982
			c0.362-0.672,1.688-2.931,4.434-3.877c0.719-0.248,2.611-0.9,4.215-0.106c2.136,1.057,3.222,4.408,2.249,8.135
			c-2.91,14.484-3.326,22.102-1.25,22.855c0.611,0.222,1.439-0.151,2.483-1.12c1.863-1.738,4.238-3.618,7.189-5.302
			c1.057-0.603,2.087-1.125,3.076-1.576c-0.835-4.254-1.52-10.315-0.663-17.473c0.605-5.057,1.818-9.319,3.027-12.617
			c1.231-2.69,2.462-5.38,3.693-8.07c0.351,0.819,3.758,8.456,11.084,10.377c3.944,1.034,7.804,0.092,7.995,0.043
			c1.617-0.412,2.601-0.663,3.613-1.514c1.37-1.153,1.518-2.337,2.923-2.758c0.069-0.021,1.498-0.429,2.324,0.334
			c0.447,0.413,0.526,0.992,0.585,1.924c0.068,1.066,0.109,2.539-0.009,4.338C251.328,100.553,251.328,110.7,251.328,120.847z"/>
	</g>
	<path fill="#FFFFFF" stroke="#000000" stroke-width="3.3333" stroke-miterlimit="10" d="M60.574,209.051"/>
	<path fill="#FFFFFF" stroke="#000000" stroke-width="3.3333" stroke-miterlimit="10" d="M60.574,209.051"/>
	<path fill="#FFFFFF" stroke="#000000" stroke-width="3.3333" stroke-miterlimit="10" d="M60.533,209.115"/>
	<path fill="#FFFFFF" stroke="#000000" stroke-width="3.3333" stroke-miterlimit="10" d="M60.533,209.115"/>
</g>
<g id="c5">
	<path fill="#FFFFFF" stroke="#000000" stroke-width="3.3333" stroke-miterlimit="10" d="M60.542,209.115"/>
	<path fill="#FFFFFF" stroke="#000000" stroke-width="3.3333" stroke-miterlimit="10" d="M60.583,209.051"/>
	<path fill="#FFFFFF" stroke="#000000" stroke-width="3.3333" stroke-miterlimit="10" d="M60.583,209.051"/>
	<g>
		<path fill="#9D9FA2" d="M141.82,142.073L141.82,142.073L141.82,142.073c0,0-0.006-0.008-0.33-0.329
			c-5.039,1.128-10.206,2.214-15.498,3.249c-7.264,1.42-14.352,2.663-21.247,3.749c-0.955,8.254-3.594,20.138-11.248,31.99
			c-2.043,3.163-4.191,5.935-6.314,8.349c-2.273,1.959-4.945,2.641-6.684,1.647c-1.762-1.006-2.041-3.43-2.25-5.248
			c-0.295-2.569,0.175-4.028,1-7.997c1.166-5.613,1.516-8.91,1.5-11.996c-0.015-2.739-0.053-5.283-1.25-5.748
			c-1.111-0.432-2.469,1.221-4.999,3.249c-2.865,2.296-5.62,3.783-7.749,4.748c0.815,4.142,1.474,9.928,0.75,16.745
			c-1.029,9.688-4.383,17.056-6.807,21.414c0.706,1.69,1.892,5.16,1.521,9.627c-0.265,3.197-1.231,5.748-2.131,7.536
			c-0.501,0.496-1.002,0.992-1.502,1.489c0.283-0.183,0.645-0.398,1.044-0.623c-0.225,0.398-0.441,0.76-0.623,1.043
			c0.648-0.57,1.302-1.157,1.952-1.733c1.757-0.828,4.15-1.658,7.075-1.9c4.468-0.37,7.939,0.815,9.629,1.521
			c4.36-2.423,11.729-5.777,21.418-6.806c6.818-0.724,12.605-0.065,16.747,0.75c0.966-2.129,2.452-4.883,4.749-7.748
			c2.029-2.53,3.681-3.887,3.249-4.998c-0.465-1.197-3.009-1.235-5.749-1.25c-3.087-0.016-6.384,0.334-11.998,1.5
			c-3.97,0.825-5.429,1.295-7.999,1c-1.819-0.209-4.243-0.488-5.249-2.249c-0.994-1.739-0.312-4.41,1.648-6.683
			c2.415-2.122,5.188-4.27,8.351-6.313c11.854-7.653,23.739-10.291,31.995-11.246c1.086-6.894,2.329-13.98,3.749-21.243
			C139.605,152.278,140.692,147.112,141.82,142.073z"/>
		<path fill="#9D9FA2" d="M141.716,141.427c0,0,0.006,0.008,0.33,0.329c5.039-1.128,10.206-2.214,15.498-3.249
			c7.264-1.42,14.352-2.663,21.247-3.749c0.955-8.254,3.594-20.138,11.248-31.99c2.043-3.163,4.191-5.935,6.314-8.349
			c2.273-1.959,4.945-2.641,6.684-1.647c1.762,1.006,2.04,3.43,2.25,5.248c0.295,2.569-0.175,4.028-1,7.997
			c-1.166,5.613-1.516,8.91-1.5,11.996c0.015,2.739,0.053,5.283,1.25,5.748c1.111,0.432,2.469-1.221,4.999-3.249
			c2.865-2.296,5.62-3.783,7.749-4.748c-0.815-4.142-1.474-9.928-0.75-16.745c1.029-9.688,4.383-17.056,6.807-21.414
			c-0.706-1.69-1.892-5.16-1.521-9.627c0.265-3.197,1.231-5.748,2.131-7.536c0.501-0.496,1.002-0.992,1.502-1.489
			c-0.283,0.183-0.645,0.398-1.044,0.623c0.225-0.398,0.441-0.76,0.623-1.043c-0.648,0.57-1.302,1.157-1.952,1.733
			c-1.757,0.828-4.15,1.658-7.075,1.9c-4.468,0.37-7.939-0.815-9.629-1.521c-4.36,2.423-11.729,5.777-21.418,6.806
			c-6.818,0.724-12.605,0.065-16.747-0.75c-0.966,2.129-2.452,4.884-4.749,7.748c-2.029,2.53-3.681,3.887-3.249,4.998
			c0.465,1.197,3.009,1.235,5.749,1.25c3.087,0.016,6.384-0.334,11.998-1.5c3.97-0.825,5.429-1.295,7.999-1
			c1.819,0.209,4.243,0.488,5.249,2.249c0.994,1.739,0.312,4.41-1.648,6.683c-2.415,2.122-5.188,4.27-8.351,6.313
			c-11.854,7.653-23.739,10.291-31.995,11.246c-1.086,6.894-2.329,13.98-3.749,21.243
			C143.93,131.223,142.844,136.389,141.716,141.427z"/>
	</g>
	<path fill="#FFFFFF" stroke="#000000" stroke-width="3.3333" stroke-miterlimit="10" d="M60.583,209.051"/>
	<path fill="#FFFFFF" stroke="#000000" stroke-width="3.3333" stroke-miterlimit="10" d="M60.542,209.115"/>
	<path fill="#FFFFFF" stroke="#000000" stroke-width="3.3333" stroke-miterlimit="10" d="M60.542,209.115"/>
</g>
<g id="c7">
	<path fill="#FFFFFF" stroke="#000000" stroke-width="3.3333" stroke-miterlimit="10" d="M60.533,209.115"/>
	<path fill="#FFFFFF" stroke="#000000" stroke-width="3.3333" stroke-miterlimit="10" d="M60.574,209.051"/>
	<path fill="#FFFFFF" stroke="#000000" stroke-width="3.3333" stroke-miterlimit="10" d="M60.574,209.051"/>
	<path fill="#FFFFFF" stroke="#000000" stroke-width="3.3333" stroke-miterlimit="10" d="M60.574,209.051"/>
	<g>
		<path fill="#9D9FA2" d="M41.921,272.949c-4.32-4.778-11.144-6.1-16.448-4.484c-1.913,0.582-3.36,1.465-4.303,2.144
			c-0.537,0.221-2.755,1.059-5.066,0.048c-0.882-0.386-1.51-0.924-1.92-1.352c-0.429-0.409-0.967-1.038-1.353-1.919
			c-1.011-2.311-0.173-4.528,0.048-5.065c0.679-0.943,1.562-2.39,2.144-4.302c1.616-5.303,0.294-12.126-4.485-16.446
			c-4.082-3.69-8.954-3.987-10.49-4.017c0,15.294,0,30.588,0,45.882c15.297,0,30.593,0,45.89,0
			C45.909,281.902,45.612,277.031,41.921,272.949z"/>
		<path fill="#9D9FA2" d="M241.596,10.551c4.32,4.778,11.144,6.1,16.448,4.484c1.913-0.583,3.36-1.465,4.303-2.144
			c0.537-0.221,2.755-1.059,5.066-0.048c0.882,0.386,1.51,0.924,1.92,1.352c0.429,0.409,0.967,1.038,1.353,1.919
			c1.011,2.311,0.173,4.528-0.048,5.065c-0.679,0.943-1.562,2.39-2.144,4.302c-1.616,5.303-0.294,12.126,4.485,16.446
			c4.082,3.69,8.954,3.987,10.49,4.017c0-15.294,0-30.588,0-45.882c-15.297,0-30.593,0-45.89,0
			C237.609,1.599,237.905,6.469,241.596,10.551z"/>
	</g>
	<path fill="#FFFFFF" stroke="#000000" stroke-width="3.3333" stroke-miterlimit="10" d="M60.533,209.115"/>
	<path fill="#FFFFFF" stroke="#000000" stroke-width="3.3333" stroke-miterlimit="10" d="M60.533,209.115"/>
</g>
<g id="c4">
	<path fill="#FFFFFF" stroke="#000000" stroke-width="3.3333" stroke-miterlimit="10" d="M60.533,209.115"/>
	<path fill="#FFFFFF" stroke="#000000" stroke-width="3.3333" stroke-miterlimit="10" d="M60.574,209.051"/>
	<path fill="#FFFFFF" stroke="#000000" stroke-width="3.3333" stroke-miterlimit="10" d="M60.574,209.051"/>
	<path fill="#FFFFFF" stroke="#000000" stroke-width="3.3333" stroke-miterlimit="10" d="M60.574,209.051"/>
	<path fill="#FFFFFF" stroke="#000000" stroke-width="3.3333" stroke-miterlimit="10" d="M60.533,209.115"/>
	<path fill="#FFFFFF" stroke="#000000" stroke-width="3.3333" stroke-miterlimit="10" d="M60.533,209.115"/>
	<path fill="#353333" d="M105.767,19.438c-3.407-6.507-9.065-9.25-10.665-9.997c-5.425-2.534-10.321-2.297-14.998-1.999
		c-6.426,0.409-10.133,1.977-13.498,2.832c-6.017,1.53-15.03,1.824-27.902-3.977c1.168,2.055,3.127,4.983,6.239,7.809
		c4.378,3.976,8.793,5.71,12.165,6.998c2.457,0.939,5.958,2.041,10.332,2.666c0.002,0.383,0.049,2.381,1.666,3.999
		c1.618,1.618,3.616,1.665,3.999,1.666c0.734-1.209,1.993-2.987,3.999-4.665c1.87-1.565,3.806-3.185,6.666-3.332
		c0.647-0.033,3.978-0.127,6.332,2.333c2.678,2.798,2.434,7.167,1,9.997c-1.58,3.12-4.612,4.336-6.332,4.998
		c-4.107,1.582-8.552,1.491-15.997-0.583c-7.707-2.147-13.786-5.069-18.664-7.748C39.805,24.777,30.877,19.765,23.798,9.594
		c-2.688-3.862-4.365-7.375-5.351-9.705c-6.149,0-12.299,0-18.448,0c0,6.148,0,12.297,0,18.445c2.33,0.986,5.844,2.663,9.706,5.35
		c10.173,7.077,15.185,16.004,20.844,26.307c2.679,4.877,5.601,10.955,7.749,18.661c2.074,7.445,2.165,11.888,0.583,15.995
		c-0.663,1.72-1.879,4.751-4.999,6.331c-2.831,1.434-7.2,1.678-9.998-1c-2.46-2.354-2.366-5.684-2.333-6.331
		c0.147-2.859,1.768-4.795,3.333-6.665c1.679-2.006,3.457-3.265,4.666-3.999c-0.002-0.383-0.049-2.381-1.666-3.999
		c-1.618-1.617-3.616-1.665-3.999-1.666c-0.625-4.373-1.727-7.873-2.666-10.33c-1.288-3.371-3.022-7.785-6.999-12.163
		c-2.827-3.112-5.755-5.07-7.81-6.238c5.802,12.87,5.508,21.881,3.978,27.897c-0.856,3.365-2.424,7.071-2.833,13.496
		c-0.297,4.676-0.534,9.571,2,14.995c0.747,1.6,3.49,7.256,9.998,10.663c5.54,2.9,10.708,2.547,13.331,2.333
		c2.518-0.205,6.925-0.62,11.332-3.665c3.71-2.564,5.582-5.705,6.332-6.998c0.763-1.314,2.35-4.113,2.789-8.006
		c0.158-1.402,0.104-2.386-0.456-7.323c-0.346-3.051-0.685-5.841-1-8.331c-0.013-0.152-0.178-2.527,1.544-3.744
		c1.35-0.953,2.946-0.551,3.622-0.38c1.166,0.294,2.218,0.943,3.83,2.7c1.225,1.335,2.883,3.429,4.336,6.422
		c2.015,3.789,5.48,9.113,11.22,13.978c10.768,9.126,22.679,10.82,27.555,11.233c-0.413-4.875-2.107-16.785-11.234-27.55
		c-4.866-5.739-10.191-9.204-13.981-11.218c-2.994-1.453-5.088-3.11-6.423-4.335c-1.757-1.612-2.406-2.664-2.7-3.829
		c-0.171-0.676-0.573-2.272,0.38-3.621c1.217-1.722,3.592-1.557,3.744-1.544c2.49,0.315,5.281,0.654,8.332,1
		c4.938,0.56,5.921,0.614,7.324,0.456c3.893-0.439,6.693-2.026,8.007-2.788c1.293-0.75,4.434-2.622,6.999-6.331
		c3.046-4.406,3.461-8.812,3.666-11.33C108.314,30.144,108.668,24.977,105.767,19.438z"/>
</g>
<g id="C12">
	<g>
		<path fill="#353333" d="M0.006,219.31c21.377,21.373,42.754,42.747,64.13,64.12c-6.08,0-12.16,0-18.241,0
			c-0.044-2.245-0.51-6.089-3.161-9.437c-4.736-5.982-14.427-7.831-19.162-4.823c-0.958,0.609-2.197,1.724-4.242,1.907
			c-0.347,0.031-3.256,0.247-5.19-1.78c-2.272-2.38-1.497-6.069-1.305-6.985c0.583-2.773,1.917-3.094,2.575-6.166
			c0.449-2.094,0.224-3.787,0.067-4.894c-0.194-1.369-0.925-6.007-4.983-9.689c-4.268-3.872-9.272-4.016-10.49-4.017
			C0.006,231.469,0.006,225.389,0.006,219.31z"/>
		<path fill="#353333" d="M283.425,64.177c-21.377-21.373-42.754-42.747-64.13-64.12c6.08,0,12.16,0,18.241,0
			c0.044,2.245,0.51,6.089,3.161,9.437c4.736,5.982,14.427,7.831,19.162,4.823c0.958-0.609,2.197-1.724,4.242-1.907
			c0.348-0.031,3.256-0.247,5.19,1.78c2.272,2.38,1.497,6.069,1.305,6.985c-0.583,2.773-1.917,3.094-2.575,6.166
			c-0.449,2.094-0.224,3.787-0.067,4.894c0.194,1.369,0.925,6.007,4.983,9.689c4.268,3.872,9.272,4.016,10.49,4.017
			C283.425,52.018,283.425,58.098,283.425,64.177z"/>
	</g>
</g>
</svg>
