<?xml version="1.0" encoding="utf-8"?>
<!-- Generator: Adobe Illustrator 22.0.0, SVG Export Plug-In . SVG Version: 6.00 Build 0)  -->
<svg version="1.1" xmlns="http://www.w3.org/2000/svg" xmlns:xlink="http://www.w3.org/1999/xlink" x="0px" y="0px"
	 viewBox="0 0 283.5 283.5" enable-background="new 0 0 283.5 283.5" xml:space="preserve">
<g id="c1">
	<rect x="0.018" y="0.018" fill="#F2F1E6" width="283.465" height="283.465"/>
	<path fill="#F2F1E6" d="M110.2,111.36c5.387,8.272,12.112,17.273,20.484,26.367c3.728,4.049,7.439,7.744,11.066,11.11
		c2.362-2.362,4.725-4.724,7.087-7.087c-4.531-4.626-9.773-9.506-15.784-14.403C125.018,120.801,117.237,115.553,110.2,111.36z"/>
</g>
<g id="c2">
	<path fill="#9D9FA2" d="M21.278,0.018c0.198,24.595,3.846,66.749,25.776,112.829c14.973,31.461,33.524,54.364,47.953,69.452
		c2.999-1.663,5.999-3.327,8.998-4.99c-16.553-16.841-43.366-48.696-59.505-96.275c-10.935-32.237-13.303-60.882-13.3-81.016
		C27.892,0.018,24.585,0.018,21.278,0.018z"/>
	<path fill="#9D9FA2" d="M68.049,0.018c0.05,20.105,2.872,56.308,22.357,95.654c13.855,27.977,31.209,47.596,43.982,59.847
		c2.454-2.228,4.908-4.455,7.362-6.683c-12.532-11.621-33.211-33.792-47.751-67.803C79.533,47.197,77.743,17.082,77.97,0.018
		C74.663,0.018,71.356,0.018,68.049,0.018z"/>
	<path fill="#9D9FA2" d="M249.214,202.685c6.443,1.079,13.5,1.947,21.104,2.429c4.59,0.291,8.985,0.416,13.165,0.415
		c0,3.307,0,6.614,0,9.921c-5.462-0.035-10.101-0.224-13.705-0.429c-2.451-0.139-4.497-0.29-5.904-0.401
		c-4.541-0.358-8.423-0.78-11.445-1.149c-0.491-1.799-1.012-3.631-1.568-5.492C250.321,206.174,249.772,204.409,249.214,202.685z"/>
	<path fill="#9D9FA2" d="M260.084,251.386c4.118,0.299,8.37,0.535,12.752,0.693c3.636,0.131,7.187,0.203,10.647,0.222
		c0,3.307,0,6.614,0,9.921c-3.617-0.086-7.255-0.161-10.915-0.225c-4.84-0.084-7.687-0.121-9.972-0.142
		c-0.574-0.005-1.051-0.009-1.377-0.012C260.84,258.358,260.462,254.872,260.084,251.386z"/>
	<path fill="#9D9FA2" d="M150.572,214.491c6.863,4.274,14.686,8.676,23.463,12.895c9.39,4.514,18.273,8.049,26.352,10.837
		c0.421,1.819,0.825,3.698,1.207,5.633c0.405,2.053,0.763,4.057,1.08,6.006c-10.301-3.482-21.753-8.023-33.887-13.992
		c-10.203-5.02-19.282-10.26-27.237-15.348C144.557,218.512,147.564,216.501,150.572,214.491z"/>
</g>
<g id="c3">
	<path fill="#DEDEDE" d="M31.199,0.018c-0.007,19.698,2.251,46.678,11.957,76.956c15.924,49.674,43.787,82.926,60.848,100.335
		c4.578-2.688,9.406-5.762,14.385-9.274c5.978-4.217,11.302-8.451,15.999-12.515c-14.399-13.856-38.425-40.73-53.365-81.703
		C70.2,44.136,68.046,17.756,68.049,0.018C55.766,0.018,43.482,0.018,31.199,0.018z"/>
	<path fill="#DEDEDE" d="M252.428,213.472c1.896,6.826,3.663,14.227,5.162,22.168c1.031,5.461,1.849,10.719,2.494,15.745
		c4.118,0.299,8.37,0.535,12.752,0.693c3.636,0.131,7.187,0.203,10.647,0.222c0-12.283,0-24.567,0-36.85
		c-4.381-0.026-8.955-0.159-13.705-0.429C263.68,214.675,257.888,214.138,252.428,213.472z"/>
	<path fill="#DEDEDE" d="M182.299,188.494c-4.676,4.472-9.865,9.11-15.591,13.792c-5.556,4.543-10.97,8.596-16.136,12.205
		c7.732,4.819,16.67,9.792,26.809,14.479c8.114,3.751,15.844,6.785,23.006,9.253c-1.696-8.013-4.175-17.164-7.857-27.023
		C189.311,202.582,185.763,195.001,182.299,188.494z"/>
</g>
<g id="c4">
	<path fill="#353333" d="M0.018,262.222c24.595-0.198,66.749-3.846,112.829-25.776c31.461-14.973,54.364-33.524,69.452-47.953
		c-1.663-2.999-3.327-5.999-4.99-8.998c-16.841,16.553-48.696,43.366-96.275,59.505c-32.237,10.935-60.883,13.303-81.016,13.3
		C0.018,255.608,0.018,258.915,0.018,262.222z"/>
	<path fill="#353333" d="M0.018,215.451c20.105-0.05,56.308-2.872,95.654-22.357c27.977-13.855,47.596-31.209,59.847-43.982
		c-2.228-2.454-4.455-4.908-6.683-7.362c-12.865,13.483-37.654,35.86-75.49,50.309c-29.757,11.363-56.198,13.475-73.329,13.471
		C0.018,208.836,0.018,212.144,0.018,215.451z"/>
	<path fill="#353333" d="M205.53,0.018c0.016,12.47-1.099,28.308-5.207,46.165c-4.78,20.78-12.051,37.508-18.45,49.64
		c2.428,2.377,4.855,4.753,7.283,7.13c7.434-13.103,16.271-32.056,21.59-56.145c3.993-18.087,4.914-34.134,4.705-46.79
		C212.144,0.018,208.837,0.018,205.53,0.018z"/>
	<path fill="#353333" d="M252.301,0.018c0.05,15.324-1.304,34.289-6.123,55.47c-7.673,33.726-21.081,59.667-31.893,76.873
		c1.043,1.487,2.089,3.013,3.138,4.578c1.013,1.512,1.993,3.009,2.94,4.488c0.14-0.139,0.28-0.279,0.42-0.418
		c0.032-0.047,0.082-0.12,0.142-0.208c30.341-44.708,37.513-88.309,39.128-99.453c1.482-10.228,2.808-24.332,2.169-41.329
		C258.915,0.018,255.608,0.018,252.301,0.018z"/>
</g>
<g id="c5">
	<path fill="#9D9FA2" d="M0,252.314c19.698,0.007,46.678-2.251,76.956-11.957c49.674-15.924,82.926-43.787,100.335-60.848
		c-2.688-4.578-5.762-9.406-9.274-14.385c-4.217-5.978-8.451-11.302-12.515-15.999c-13.856,14.399-40.73,38.425-81.703,53.365
		C44.118,213.313,17.738,215.467,0,215.464C0,227.747,0,240.031,0,252.314z"/>
	<path fill="#9D9FA2" d="M215.451,0c12.283,0,24.567,0,36.85,0c0.106,16.924-1.505,40.028-8.748,66.329
		c-7.926,28.781-19.734,50.997-29.268,66.013c-4.339-5.988-9.315-12.279-15.011-18.691c-3.411-3.84-6.799-7.408-10.119-10.717
		c7.094-12.485,15.515-30.395,20.897-53.106C214.678,30.317,215.669,13.127,215.451,0z"/>
</g>
<g id="c6">
	<path fill="#58585A" d="M262.222,283.482c-0.088-22.846-3.29-90.916-51.868-156.581c0,0-48.638-65.631-126.001-92.598
		c-0.493-0.172-0.998-0.346-0.998-0.346c-1.114-0.383-2.147-0.73-3.086-1.039c0.31,2.017,0.659,4.086,1.052,6.203
		c0.374,2.014,0.77,3.973,1.183,5.875c19.016,6.586,45.547,18.305,72.663,39.514c25.952,20.298,42.135,41.228,50.175,52.656
		c4.537,6.448,16.395,23.962,26.802,49.15c14.68,35.53,19.505,69.468,20.158,97.166
		C255.608,283.482,258.915,283.482,262.222,283.482z"/>
	<path fill="#58585A" d="M215.367,283.391c-0.053-15.005-1.666-35.877-8.524-59.691c-8.452-29.349-21.046-49.884-26.592-58.318
		c-26.059-39.623-60.311-61.093-80.196-71.418c1.377,2.675,2.876,5.435,4.507,8.26c1.849,3.202,3.71,6.216,5.554,9.044
		c7.826,4.652,18.085,11.509,28.953,21.173c5.723,5.09,26.6,24.283,43.146,55.961c19.998,38.286,23.094,74.558,23.231,94.988
		C208.753,283.391,212.06,283.391,215.367,283.391z"/>
	<path fill="#58585A" d="M34.286,81.046c-6.443-1.079-13.5-1.947-21.104-2.429c-4.59-0.291-8.985-0.416-13.165-0.415
		c0-3.307,0-6.614,0-9.921c5.462,0.035,10.101,0.224,13.705,0.429c2.451,0.139,4.497,0.29,5.904,0.401
		c4.541,0.358,8.423,0.78,11.445,1.149c0.491,1.799,1.012,3.631,1.568,5.492C33.179,77.558,33.728,79.323,34.286,81.046z"/>
	<path fill="#58585A" d="M23.461,33.73c-0.379-0.027-0.758-0.053-1.138-0.08c-3.757-0.285-7.646-0.511-11.659-0.664
		c-3.65-0.139-7.201-0.21-10.647-0.222c0-3.307,0-6.614,0-9.921c3.618,0.086,7.256,0.161,10.915,0.225
		c3.261,0.056,6.507,0.103,9.736,0.139c0.553,0.011,1.105,0.021,1.658,0.032c0.147,1.66,0.312,3.346,0.496,5.057
		C23.02,30.14,23.234,31.952,23.461,33.73z"/>
</g>
<g id="c8">
	<path fill="#353333" d="M252.428,283.482c-0.462-22.825-4.899-104.291-67.826-172.11C147.713,71.615,106.268,53.301,82.63,44.997
		c1.803,8.295,4.397,17.684,8.181,27.76c2.987,7.953,6.237,15.061,9.454,21.299c17.861,9.125,46.506,26.849,71.187,58.799
		c40.915,52.967,44.002,110.167,44.125,130.627C227.861,283.482,240.145,283.482,252.428,283.482z"/>
	<path fill="#353333" d="M31.072,70.142c-1.9-6.887-3.668-14.349-5.166-22.35c-1.006-5.374-1.809-10.554-2.444-15.512
		c-0.288-0.02-0.576-0.04-0.864-0.059c-3.843-0.295-7.823-0.528-11.932-0.685c-3.649-0.139-7.2-0.21-10.647-0.222
		c0,12.283,0,24.567,0,36.85c4.381,0.026,8.955,0.159,13.705,0.429C19.82,68.939,25.612,69.476,31.072,70.142z"/>
</g>
</svg>
