<?xml version="1.0" encoding="utf-8"?>
<!-- Generator: Adobe Illustrator 22.0.0, SVG Export Plug-In . SVG Version: 6.00 Build 0)  -->
<svg version="1.1" xmlns="http://www.w3.org/2000/svg" xmlns:xlink="http://www.w3.org/1999/xlink" x="0px" y="0px"
	 viewBox="0 0 283.5 283.5" enable-background="new 0 0 283.5 283.5" xml:space="preserve">
<g id="c1">
	
		<rect x="0.034" y="0.002" transform="matrix(-1.836970e-16 1 -1 -1.836970e-16 283.4344 -0.0159)" fill="#DEDEDE" width="283.383" height="283.415"/>
</g>
<g id="c3">
	<path fill="#58585A" d="M283.45,283.482c0-0.011,0-0.021,0-0.032c0.011,0,0.021,0,0.032,0c-0.01-0.014-0.022-0.029-0.032-0.044
		c-0.006-17.886-0.012-35.773-0.018-53.659c-11.305,0.229-20.89-0.678-28.227-1.749c-6.175-0.902-14.517-2.162-24.996-5.748
		c-5.57-1.907-10.131-3.919-13.457-5.521c0.067,0.067,0.135,0.135,0.202,0.202c-0.077-0.056-0.157-0.115-0.234-0.17
		c1.603,3.325,3.615,7.885,5.522,13.455c3.587,10.477,4.847,18.818,5.749,24.993c1.071,7.336,1.978,16.92,1.75,28.224
		c17.892,0.006,35.785,0.012,53.677,0.018C283.429,283.461,283.44,283.472,283.45,283.482z"/>
</g>
<g id="c4">
	<path fill="#353333" d="M209.837,237.372c-1.477-4.634-3.179-9.43-5.142-14.353c-5.93-14.872-12.919-27.577-19.82-38.165
		c0,0,0,0,0,0l0,0c10.589,6.9,23.296,13.889,38.17,19.818c4.924,1.963,9.72,3.664,14.355,5.141
		c-3.855-10.874-7.581-24.636-9.355-40.798c-1.001-9.119-1.219-17.516-1-24.993c-10.811,2.415-25.405,4.567-42.659,3.999
		c-17.839-0.588-32.684-3.891-43.502-7.155c0,0,0,0,0,0l0,0c3.264,10.817,6.568,25.66,7.156,43.497
		c0.569,17.252-1.584,31.844-3.999,42.654c7.478-0.219,15.876-0.002,24.996,1C185.198,229.792,198.962,233.518,209.837,237.372z"/>
</g>
<g id="c5">
	<path fill="#9D9FA2" d="M56.725,237.668V98.176c4.302-2.489,8.426-5.251,12.348-8.263c4.335-3.331,8.021-6.659,11.106-9.742
		c0,0,0,0,0,0c0.003-0.003,0.005-0.005,0.008-0.008c0.006-0.006,0.012-0.011,0.017-0.017c0,0,0-0.001,0-0.001
		c6.972-6.976,13.036-14.857,18.007-23.45h139.507l45.763,45.758V62.376l-33.38-33.377c-0.214-0.214-0.429-0.429-0.643-0.643
		h-27.237H109.812H80.736h-0.551C75.917,40.425,69.018,51.251,60.151,60.12c-8.87,8.865-19.697,15.764-31.767,20.031v0.551v29.073
		v112.396v27.234c0.214,0.214,0.429,0.429,0.643,0.643l33.38,33.377h40.081L56.725,237.668z"/>
</g>
<g id="c6">
	<path fill="#353333" d="M283.415,0c0.017,20.786,0.033,41.572,0.05,62.358c-11.341-11.34-22.682-22.68-34.024-34.02
		c-56.241,0-112.482,0-168.723,0c-2.666,7.135-8.461,19.81-20.585,31.764C48.128,71.939,35.512,77.55,28.366,80.134
		c0,56.418,0,112.836,0,169.254c11.341,11.34,22.682,22.68,34.024,34.02C41.593,283.4,20.797,283.391,0,283.383
		c0-75.569,0-151.138,0-226.706c5.789,0.104,19.144-0.486,32.064-9.205C55.531,31.636,56.616,3.118,56.683,0
		C132.26,0,207.838,0,283.415,0z"/>
</g>
<g id="c8">
	<path fill="#9D9FA2" d="M0.018,0v56.677c31.305,0,56.683-25.375,56.683-56.677H0.018z"/>
</g>
</svg>
