<?xml version="1.0" encoding="utf-8"?>
<!-- Generator: Adobe Illustrator 22.0.0, SVG Export Plug-In . SVG Version: 6.00 Build 0)  -->
<svg version="1.1" xmlns="http://www.w3.org/2000/svg" xmlns:xlink="http://www.w3.org/1999/xlink" x="0px" y="0px"
	 viewBox="0 0 283.5 283.5" enable-background="new 0 0 283.5 283.5" xml:space="preserve">
<g id="c1">
	<path fill="#DEDEDE" d="M163.057,0.237c40.077,40.072,80.154,80.144,120.23,120.216c0.059-40.151,0.118-80.302,0.178-120.453
		C243.329,0.079,203.193,0.158,163.057,0.237z"/>
	<path fill="#DEDEDE" d="M283.28,162.997c-40.072,40.077-80.144,80.154-120.216,120.23c40.131,0.079,80.262,0.158,120.394,0.237
		C283.398,243.309,283.339,203.153,283.28,162.997z"/>
	<path fill="#DEDEDE" d="M120.513,0.237C80.382,0.158,40.25,0.079,0.119,0c0.059,40.156,0.118,80.312,0.178,120.468
		C40.369,80.391,80.441,40.314,120.513,0.237z"/>
	<path fill="#DEDEDE" d="M0.112,283.464c40.136-0.079,80.272-0.158,120.408-0.237c-40.077-40.072-80.154-80.144-120.23-120.216
		C0.23,203.162,0.171,243.313,0.112,283.464z"/>
</g>
<g id="c3">
	<polygon fill="#353333" points="163.057,0.237 283.287,120.453 262.022,141.636 141.792,21.421 	"/>
	<polygon fill="#353333" points="283.287,162.997 163.071,283.227 141.888,261.963 262.104,141.732 	"/>
	<path fill="#353333" d="M249.975,141.738l-6.013-6.013L142.354,34.117l-6.58-6.58c-0.015-0.015-0.029-0.029-0.044-0.043
		c2.115-2.124,4.143-4.16,5.966-5.992L120.513,0.237L0.297,120.468c7.061,7.088,14.122,14.176,21.183,21.265
		c20.063-20.021,40.126-40.042,60.189-60.062l60.069,60.069c-20.057,20.029-40.115,40.058-60.172,60.086l-60.004-59.997
		L0.297,163.011l120.23,120.216l21.265-21.183l-6.058-6.057c36.076-36.079,72.152-72.157,108.228-108.236L249.975,141.738z
		 M87.846,208.105c19.968-20.118,39.936-40.236,59.904-60.353l4.625-4.625l1.389-1.389L87.679,75.654
		c2.004-2.005,4.007-4.011,6.01-6.016l72.101,72.101c-24.061,24.042-48.122,48.085-72.183,72.127L87.846,208.105z M99.649,219.906
		c24.052-24.051,48.103-48.103,72.155-72.154l4.389-4.389l1.624-1.624L99.699,63.621c2.003-2.006,4.007-4.01,6.01-6.016
		l84.134,84.134c-28.078,28.042-56.157,56.084-84.235,84.126L99.649,219.906z M117.65,237.905l-5.918-5.918
		c28.042-28.079,56.083-56.157,84.125-84.236l5.767-5.767l0.246-0.246L111.721,51.59c0,0,2.408-2.416,6.004-6.025
		c0.003,0.004,0.006,0.008,0.009,0.011l96.162,96.162C181.814,173.794,149.732,205.85,117.65,237.905z M129.734,249.988
		l-6.083-6.082c32.086-32.051,64.172-64.102,96.259-96.153l5.678-5.678l0.335-0.335l-94.386-94.386l-7.789-7.789
		c2.004-2.004,4.009-4.009,6.013-6.013l108.188,108.188C201.877,177.822,165.806,213.905,129.734,249.988z"/>
</g>
<g id="c4">
	
		<rect x="39.21" y="99.245" transform="matrix(0.7069 -0.7073 0.7073 0.7069 -76.3128 99.3529)" fill="#9D9FA2" width="85.011" height="85.011"/>
	<polygon fill="#9D9FA2" points="87.686,75.66 153.782,141.756 87.686,207.852 93.699,213.865 159.795,147.77 163.233,144.331 
		165.808,141.756 93.699,69.647 	"/>
	<polygon fill="#9D9FA2" points="99.712,63.634 177.835,141.756 99.712,219.879 105.725,225.892 183.848,147.77 188.833,142.784 
		189.861,141.756 105.725,57.621 	"/>
	<polygon fill="#9D9FA2" points="111.739,51.608 201.887,141.756 111.739,231.905 117.752,237.918 207.901,147.769 213.371,142.299 
		213.914,141.756 117.752,45.594 	"/>
	<polygon fill="#9D9FA2" points="123.765,39.581 225.94,141.756 123.765,243.931 129.778,249.944 231.953,147.769 237.967,141.756 
		231.953,135.743 129.778,33.568 	"/>
	<polygon fill="#9D9FA2" points="255.972,135.777 141.771,21.576 135.791,27.555 249.993,141.756 135.791,255.958 141.805,261.971 
		262.018,141.758 256.005,135.744 	"/>
</g>
<g id="c5">
	<path fill="#9D9FA2" d="M120.513,0.237c7.093,7.077,14.186,14.154,21.279,21.231c7.088-7.077,14.176-14.154,21.265-21.231
		C148.875,0.237,134.694,0.237,120.513,0.237z"/>
	<path fill="#9D9FA2" d="M163.16,283.227c-7.093-7.077-14.186-14.154-21.279-21.231c-7.088,7.077-14.176,14.154-21.265,21.231
		C134.797,283.227,148.978,283.227,163.16,283.227z"/>
	<path fill="#9D9FA2" d="M283.232,162.908c-7.077-7.088-14.154-14.176-21.231-21.265c7.077-7.093,14.154-14.186,21.231-21.279
		C283.232,134.546,283.232,148.727,283.232,162.908z"/>
	<path fill="#9D9FA2" d="M0,120.494c0,14.181,0,28.362,0,42.544c7.104-7.093,14.208-14.186,21.313-21.279
		C14.208,134.67,7.104,127.582,0,120.494z"/>
</g>
</svg>
