<?xml version="1.0" encoding="utf-8"?>
<!-- Generator: Adobe Illustrator 22.0.0, SVG Export Plug-In . SVG Version: 6.00 Build 0)  -->
<svg version="1.1" xmlns="http://www.w3.org/2000/svg" xmlns:xlink="http://www.w3.org/1999/xlink" x="0px" y="0px"
	 viewBox="0 0 283.5 283.5" enable-background="new 0 0 283.5 283.5" xml:space="preserve">
<g id="c1">
	<rect x="0.251" y="0.018" fill="#DEDEDE" width="283.465" height="283.465"/>
</g>
<g id="c3">
	<path fill="#9D9FA2" d="M78.675,78.779c-1.992-6.232-3.935-13.263-4.008-20.56c0.652-23.501,15.845-42.467,36.581-48.79
		c0-3.521,0-6.396,0-9.414h-13.53v1.869C77.172,11.945,63.14,33.573,63.14,58.219c0,1.509,0,3.018,0,4.527c-1.503,0-3.007,0-4.51,0
		c-24.555,0-45.601,14.084-55.623,35.209H0v14.084c3.007,0,7.016,0,10.022,0c6.013-21.628,25.557-36.718,48.608-37.221
		C65.145,74.818,72.661,76.264,78.675,78.779"/>
	<path fill="#9D9FA2" d="M204.452,78.562c6.241-1.989,13.282-3.929,20.589-4.003c23.535,0.651,42.528,15.822,48.86,36.529
		c3.526,0,6.405,0,9.427,0V97.577h-1.872c-10.074-20.516-31.734-34.527-56.415-34.527c-1.511,0-3.022,0-4.533,0
		c0-1.501,0-3.002,0-4.504c0-24.519-14.104-45.536-35.26-55.543V0h-14.104c0,3.002,0,7.006,0,10.008
		c21.659,6.005,36.771,25.52,37.274,48.538C208.419,65.051,206.97,72.557,204.452,78.562"/>
	<path fill="#9D9FA2" d="M204.774,204.702c1.992,6.232,3.935,13.263,4.008,20.56c-0.652,23.501-15.845,42.467-36.581,48.79
		c0,3.521,0,6.396,0,9.414h13.53v-1.869c20.545-10.06,34.577-31.688,34.577-56.334c0-1.509,0-3.018,0-4.527c1.503,0,3.007,0,4.51,0
		c24.555,0,45.601-14.084,55.623-35.209h3.007v-14.084c-3.007,0-7.016,0-10.022,0c-6.013,21.628-25.557,36.718-48.608,37.221
		C218.304,208.663,210.787,207.216,204.774,204.702"/>
	<path fill="#9D9FA2" d="M78.876,204.424c-6.241,1.989-13.282,3.929-20.589,4.003c-23.535-0.651-42.528-15.822-48.86-36.529
		c-3.526,0-6.405,0-9.427,0v13.511h1.872c10.074,20.516,31.734,34.527,56.415,34.527c1.511,0,3.022,0,4.533,0
		c0,1.501,0,3.002,0,4.504c0,24.519,14.104,45.536,35.26,55.543v3.002h14.104c0-3.002,0-7.006,0-10.008
		c-21.659-6.005-36.771-25.52-37.274-48.538C74.909,217.934,76.358,210.429,78.876,204.424"/>
</g>
<g id="c4">
	<g>
		<path fill="#353333" d="M105.635,107.796c2.005,0,11.025-4.024,15.033-7.545c6.514-5.533,7.016-14.084,7.016-16.096
			c0-8.048-5.011-15.592-10.523-18.61c-1.503-1.006-3.007-1.509-6.013-3.521c-4.51-3.018-6.514-6.036-7.016-7.042
			c-1.002-1.509-2.005-3.018-2.506-4.024c-0.501,0.503-2.506,2.515-2.506,5.03c-0.501,3.521,1.002,7.042,4.009,9.557
			c-0.501,0-3.007,0.503-4.51,2.012c-2.506,2.515-2.005,6.539-2.005,7.042c0.501-0.503,3.508-3.018,8.018-2.515
			c1.002,0,3.508,0.503,6.013,2.515c0.501,0,3.508,3.521,3.007,8.048c-0.501,3.521-2.506,5.533-3.508,6.539
			c-4.009,4.024-11.024,4.024-15.033,1.006c-1.002-1.006-1.503-2.012-2.506-3.018c-3.007-5.03-5.011-9.054-6.514-15.09
			c-2.005-10.563,1.002-19.113,2.506-22.634c1.002-2.012,3.508-8.551,9.521-15.09c1.503-1.509,5.512-5.533,12.528-9.557
			c5.011-2.515,9.521-4.024,13.029-5.03V8.708l0,0l0,0V0.363h-12.527v9.414c-4.51,1.509-10.023,3.961-15.034,7.482
			c-2.005,1.509-12.528,9.054-18.04,23.137c-3.218,8.626-3.549,15.628-3.508,18.61c0.125,9.158,3.065,16.206,4.009,20.119
			c-4.009-1.509-11.025-4.024-20.044-4.024c-3.007,0-10.523,0.503-18.541,3.521c-14.031,6.036-21.548,16.096-23.051,18.61
			c-3.508,5.03-5.512,10.563-7.016,15.09c-3.007,0-7.016,0-10.022,0c0,4.527,0,8.551,0,13.078c2.506,0,6.013,0,8.519,0l0,0l0,0
			h11.025c0.501-3.521,2.005-8.048,4.51-13.078c3.508-7.042,8.018-11.066,9.02-12.575c6.514-6.036,13.029-9.054,15.033-9.557
			c3.508-1.509,12.027-4.527,22.049-2.515c6.013,1.006,10.022,3.521,15.033,6.539c1.002,0.503,2.005,1.509,3.007,2.515
			c3.007,4.024,3.007,11.066-1.002,15.09c-0.501,0.503-2.506,3.018-6.013,3.521c-4.51,0.503-8.018-3.018-8.018-3.018
			c-2.005-2.515-2.506-5.03-2.506-6.036c-0.501-4.527,2.005-7.545,2.506-8.048c-0.501,0-4.009-0.503-7.016,2.012
			c-2.005,2.012-2.005,4.024-2.005,4.527c-2.506-3.018-6.013-5.03-9.02-4.527c-2.506,0.503-4.51,2.012-5.011,2.515
			c1.002,0.503,2.506,1.006,4.009,2.515c1.002,0.503,4.009,3.018,7.016,7.042c2.005,2.515,2.506,4.024,3.508,6.036
			c3.007,5.533,10.523,10.06,18.541,10.563c2.005,0,10.523,0,16.036-7.042C102.127,118.861,105.635,109.808,105.635,107.796z"/>
	</g>
	<g>
		<path fill="#353333" d="M175.641,105.93c0,2.002,4.03,11.009,7.556,15.012c5.541,6.505,14.104,7.006,16.119,7.006
			c8.059,0,15.615-5.004,18.637-10.508c1.007-1.501,1.511-3.002,3.526-6.005c3.022-4.504,6.044-6.505,7.052-7.006
			c1.511-1.001,3.022-2.002,4.03-2.502c-0.504-0.5-2.519-2.502-5.037-2.502c-3.526-0.5-7.052,1.001-9.57,4.003
			c0-0.5-0.504-3.002-2.015-4.504c-2.519-2.502-6.548-2.002-7.052-2.002c0.504,0.5,3.022,3.503,2.519,8.006
			c0,1.001-0.504,3.503-2.519,6.005c0,0.5-3.526,3.503-8.059,3.002c-3.526-0.5-5.541-2.502-6.548-3.503
			c-4.03-4.003-4.03-11.009-1.007-15.012c1.007-1.001,2.015-1.501,3.022-2.502c5.037-3.002,9.067-5.004,15.111-6.505
			c10.578-2.002,19.141,1.001,22.667,2.502c2.015,1.001,8.563,3.503,15.111,9.508c1.511,1.501,5.541,5.504,9.57,12.51
			c2.519,5.004,4.03,9.508,5.037,13.01h11.082l0,0l0,0h8.357v-12.509h-9.427c-1.511-4.504-3.967-10.008-7.493-15.012
			c-1.511-2.002-9.067-12.51-23.171-18.014c-8.638-3.213-15.651-3.544-18.637-3.503c-9.171,0.125-16.23,3.061-20.148,4.003
			c1.511-4.003,4.03-11.009,4.03-20.016c0-3.002-0.504-10.508-3.526-18.515c-6.044-14.011-16.119-21.517-18.637-23.018
			c-5.037-3.503-10.578-5.504-15.111-7.006c0-3.002,0-7.006,0-10.008c-4.533,0-8.563,0-13.096,0c0,2.502,0,6.005,0,8.507l0,0l0,0
			v11.009c3.526,0.5,8.059,2.002,13.096,4.504c7.052,3.503,11.082,8.006,12.593,9.007c6.044,6.505,9.067,13.01,9.57,15.012
			c1.511,3.503,4.533,12.01,2.519,22.017c-1.007,6.005-3.526,10.008-6.548,15.012c-0.504,1.001-1.511,2.002-2.519,3.002
			c-4.03,3.002-11.082,3.002-15.111-1.001c-0.504-0.5-3.022-2.502-3.526-6.005c-0.504-4.504,3.022-8.006,3.022-8.006
			c2.519-2.002,5.037-2.502,6.044-2.502c4.533-0.5,7.556,2.002,8.059,2.502c0-0.5,0.504-4.003-2.015-7.006
			c-2.015-2.002-4.03-2.002-4.533-2.002c3.022-2.502,5.037-6.005,4.533-9.007c-0.504-2.502-2.015-4.504-2.519-5.004
			c-0.504,1.001-1.007,2.502-2.519,4.003c-0.504,1.001-3.022,4.003-7.052,7.006c-2.519,2.002-4.03,2.502-6.044,3.503
			c-5.541,3.002-10.074,10.508-10.578,18.515c0,2.002,0,10.508,7.052,16.013C164.559,102.427,173.626,105.93,175.641,105.93z"/>
	</g>
	<g>
		<path fill="#353333" d="M177.613,176.378c-2.005,0-11.025,4.024-15.033,7.545c-6.514,5.533-7.016,14.084-7.016,16.096
			c0,8.048,5.011,15.593,10.523,18.61c1.503,1.006,3.007,1.509,6.013,3.521c4.51,3.018,6.514,6.036,7.016,7.042
			c1.002,1.509,2.005,3.018,2.506,4.024c0.501-0.503,2.506-2.515,2.506-5.03c0.501-3.521-1.002-7.042-4.009-9.557
			c0.501,0,3.007-0.503,4.51-2.012c2.506-2.515,2.005-6.539,2.005-7.042c-0.501,0.503-3.508,3.018-8.018,2.515
			c-1.002,0-3.508-0.503-6.013-2.515c-0.501,0-3.508-3.521-3.007-8.048c0.501-3.521,2.506-5.533,3.508-6.539
			c4.009-4.024,11.024-4.024,15.033-1.006c1.002,1.006,1.503,2.012,2.506,3.018c3.007,5.03,5.011,9.054,6.514,15.09
			c2.005,10.563-1.002,19.113-2.506,22.634c-1.002,2.012-3.508,8.551-9.521,15.09c-1.503,1.509-5.512,5.533-12.528,9.557
			c-5.011,2.515-9.521,4.024-13.029,5.03v11.066l0,0l0,0v8.345h12.527v-9.414c4.51-1.509,10.023-3.961,15.034-7.482
			c2.005-1.509,12.528-9.054,18.04-23.137c3.218-8.626,3.549-15.628,3.508-18.61c-0.125-9.158-3.065-16.206-4.009-20.119
			c4.009,1.509,11.025,4.024,20.044,4.024c3.007,0,10.523-0.503,18.541-3.521c14.031-6.036,21.548-16.096,23.051-18.61
			c3.508-5.03,5.512-10.563,7.016-15.09c3.007,0,7.016,0,10.022,0c0-4.527,0-8.551,0-13.078c-2.506,0-6.013,0-8.519,0l0,0l0,0
			h-11.025c-0.501,3.521-2.005,8.048-4.51,13.078c-3.508,7.042-8.018,11.066-9.02,12.575c-6.514,6.036-13.029,9.054-15.033,9.557
			c-3.508,1.509-12.027,4.527-22.049,2.515c-6.013-1.006-10.022-3.521-15.033-6.539c-1.002-0.503-2.005-1.509-3.007-2.515
			c-3.007-4.024-3.007-11.066,1.002-15.09c0.501-0.503,2.506-3.018,6.013-3.521c4.51-0.503,8.018,3.018,8.018,3.018
			c2.005,2.515,2.506,5.03,2.506,6.036c0.501,4.527-2.005,7.545-2.506,8.048c0.501,0,4.009,0.503,7.016-2.012
			c2.005-2.012,2.005-4.024,2.005-4.527c2.506,3.018,6.013,5.03,9.02,4.527c2.506-0.503,4.51-2.012,5.011-2.515
			c-1.002-0.503-2.506-1.006-4.009-2.515c-1.002-0.503-4.009-3.018-7.016-7.042c-2.005-2.515-2.506-4.024-3.508-6.036
			c-3.007-5.533-10.523-10.06-18.541-10.563c-2.005,0-10.523,0-16.036,7.042C181.121,165.312,177.613,174.366,177.613,176.378z"/>
	</g>
	<g>
		<path fill="#353333" d="M107.488,177.749c0-2.002-4.03-11.009-7.556-15.012c-5.541-6.505-14.104-7.006-16.119-7.006
			c-8.059,0-15.615,5.004-18.637,10.508c-1.007,1.501-1.511,3.002-3.526,6.005c-3.022,4.504-6.044,6.505-7.052,7.006
			c-1.511,1.001-3.022,2.002-4.03,2.502c0.504,0.5,2.519,2.502,5.037,2.502c3.526,0.5,7.052-1.001,9.57-4.003
			c0,0.5,0.504,3.002,2.015,4.504c2.519,2.502,6.548,2.002,7.052,2.002c-0.504-0.5-3.022-3.503-2.519-8.006
			c0-1.001,0.504-3.503,2.519-6.005c0-0.5,3.526-3.503,8.059-3.002c3.526,0.5,5.541,2.502,6.548,3.503
			c4.03,4.003,4.03,11.009,1.007,15.012c-1.007,1.001-2.015,1.501-3.022,2.502c-5.037,3.002-9.067,5.004-15.111,6.505
			c-10.578,2.002-19.141-1.001-22.667-2.502c-2.015-1.001-8.563-3.503-15.111-9.508c-1.511-1.501-5.541-5.504-9.57-12.51
			c-2.519-5.004-4.03-9.508-5.037-13.01H8.258l0,0l0,0H-0.1v12.509h9.427c1.511,4.504,3.967,10.008,7.493,15.012
			c1.511,2.002,9.067,12.51,23.171,18.014c8.638,3.213,15.651,3.544,18.637,3.503c9.171-0.125,16.23-3.061,20.148-4.003
			c-1.511,4.003-4.03,11.009-4.03,20.016c0,3.002,0.504,10.508,3.526,18.515c6.044,14.011,16.119,21.517,18.637,23.018
			c5.037,3.503,10.578,5.504,15.111,7.006c0,3.002,0,7.006,0,10.008c4.533,0,8.563,0,13.096,0c0-2.502,0-6.005,0-8.507l0,0l0,0
			v-11.009c-3.526-0.5-8.059-2.002-13.096-4.504c-7.052-3.503-11.082-8.006-12.593-9.007c-6.044-6.505-9.067-13.01-9.57-15.012
			c-1.511-3.503-4.533-12.01-2.519-22.017c1.007-6.005,3.526-10.008,6.548-15.012c0.504-1.001,1.511-2.002,2.519-3.002
			c4.03-3.002,11.082-3.002,15.111,1.001c0.504,0.5,3.022,2.502,3.526,6.005c0.504,4.504-3.022,8.006-3.022,8.006
			c-2.519,2.002-5.037,2.502-6.044,2.502c-4.533,0.5-7.556-2.002-8.059-2.502c0,0.5-0.504,4.003,2.015,7.006
			c2.015,2.002,4.03,2.002,4.533,2.002c-3.022,2.502-5.037,6.005-4.533,9.007c0.504,2.502,2.015,4.504,2.519,5.004
			c0.504-1.001,1.007-2.502,2.519-4.003c0.504-1.001,3.022-4.003,7.052-7.006c2.519-2.002,4.03-2.502,6.044-3.503
			c5.541-3.002,10.074-10.508,10.578-18.515c0-2.002,0-10.508-7.052-16.013C118.569,181.252,109.503,177.749,107.488,177.749z"/>
	</g>
</g>
<g id="c5">
	<path fill="#9D9FA2" d="M60.376,134.713c-5.499-1.499-8.999-4.998-10.999-6.498c-3.5-2.999-5.499-6.498-7.999-9.997
		c-1.5-1.999-2.5-3.499-2.999-4.998c-5.999,5.498-6.999,9.497-6.999,11.996c0,2.499,0.5,4.998-0.5,5.998c-1,1-2.5,0-5.499-0.5
		c0,0-2.999,0-5.999,1.499c-4.5,1.999-6.999,6.998-7.499,9.497c1,2.499,3.5,7.498,7.499,9.497c3,1.499,5.999,1.499,5.999,1.499
		c3,0,4.5-1.499,5.499-0.5c1,1,0.5,3.499,0.5,5.998c0,2.499,1,6.498,6.999,11.996c0.5-1,1.5-2.999,2.999-4.998
		c2-3.499,4.5-6.498,7.999-9.997c2-1.999,5.499-4.998,10.999-6.498c3.5-1,6.499-1,8.499-0.5c0-1.999,0-3.999-0.5-6.498
		c0-1.999,0-3.999,0.5-6.498C66.376,135.713,63.876,135.713,60.376,134.713z"/>
	<path fill="#9D9FA2" d="M132.866,221.051c-1.5,5.498-4.999,8.997-6.499,10.996c-2.999,3.499-6.499,5.498-9.999,7.997
		c-2,1.5-3.5,2.499-4.999,2.999c5.499,5.998,9.499,6.998,11.999,6.998c2.5,0,4.999-0.5,5.999,0.5c1,1,0,2.499-0.5,5.498
		c0,0,0,2.999,1.5,5.998c2,4.499,6.999,6.998,9.499,7.498c2.5-1,7.499-3.499,9.499-7.498c1.5-2.999,1.5-5.998,1.5-5.998
		c0-2.999-1.5-4.499-0.5-5.498c1-1,3.5-0.5,5.999-0.5c2.5,0,6.499-1,11.999-6.998c-1-0.5-3-1.5-4.999-2.999
		c-3.5-1.999-6.499-4.499-9.999-7.997c-2-1.999-4.999-5.498-6.499-10.996c-1-3.499-1-6.498-0.5-8.497c-2,0-3.999,0-6.499,0.5
		c-2,0-3.999,0-6.499-0.5C133.866,214.553,133.866,217.552,132.866,221.051z"/>
	<path fill="#9D9FA2" d="M134.617,61.87c-1.5-5.498-4.999-8.997-6.499-10.996c-2.999-3.499-6.499-5.498-9.999-7.997
		c-2-1.499-3.5-2.499-4.999-2.999c5.499-5.998,9.499-6.998,11.999-6.998c2.5,0,4.999,0.5,5.999-0.5c1-1,0-2.499-0.5-5.498
		c0,0,0-2.999,1.5-5.998c2-4.499,6.999-6.998,9.499-7.498c2.5,1,7.499,3.499,9.499,7.498c1.5,2.999,1.5,5.998,1.5,5.998
		c0,2.999-1.5,4.499-0.5,5.498c1,1,3.5,0.5,5.999,0.5s6.499,1,11.999,6.998c-1,0.5-2.999,1.499-4.999,2.999
		c-3.5,1.999-6.499,4.499-9.999,7.997c-2,1.999-4.999,5.498-6.499,10.996c-1,3.499-1,6.498-0.5,8.497c-2,0-3.999,0-6.499-0.5
		c-2,0-3.999,0-6.499,0.5C135.617,68.368,135.617,65.369,134.617,61.87z"/>
	<path fill="#9D9FA2" d="M223.359,148.458c5.499,1.499,8.999,4.998,10.999,6.498c3.5,2.999,5.499,6.498,7.999,9.997
		c1.5,1.999,2.5,3.499,2.999,4.998c5.999-5.498,6.999-9.497,6.999-11.996c0-2.499-0.5-4.998,0.5-5.998c1-1,2.5,0,5.499,0.5
		c0,0,2.999,0,5.999-1.499c4.5-1.999,6.999-6.998,7.499-9.497c-1-2.499-3.5-7.498-7.499-9.497c-3-1.499-5.999-1.499-5.999-1.499
		c-3,0-4.5,1.499-5.499,0.5c-1-1-0.5-3.499-0.5-5.998c0-2.499-1-6.498-6.999-11.996c-0.5,1-1.5,2.999-2.999,4.998
		c-2,3.499-4.5,6.498-7.999,9.997c-2,1.999-5.499,4.998-10.999,6.498c-3.5,1-6.499,1-8.499,0.5c0,1.999,0,3.999,0.5,6.498
		c0,1.999,0,3.999-0.5,6.498C216.86,147.459,219.859,147.459,223.359,148.458z"/>
</g>
<g id="c6">
	<path fill="#353333" d="M184.963,141.711c0-1-0.5-3.499-2-5.498c-2-2.499-5.999-3.499-9.499-2.499c0-0.5,0-3.499-2.5-5.498
		c-1.5-1-3-1-3.5-1c0,0.5-1.5,3.999-4.999,5.498c-2,1-3.999,0.5-4.5,0.5c-2.5-0.5-4.5-1.999-4.999-2.499c-0.5-0.5-2-2.499-2.5-4.998
		c0-0.5-0.5-2.499,0.5-4.499c1.5-3.499,4.999-4.499,5.499-4.998c0-0.5,0-1.999-1-3.499c-2-2.499-5.499-2.499-5.499-2.499
		c1-3.499,0-6.998-2.5-9.497c-2-1.999-4.5-1.999-5.499-1.999c-1,0-3.5,0.5-5.499,1.999c-2.5,1.999-3.5,5.998-2.5,9.497
		c-0.5,0-3.5,0-5.499,2.499c-1,1.499-1,2.999-1,3.499c0.5,0,3.999,1.499,5.499,4.998c1,1.999,0.5,3.999,0.5,4.499
		c-0.5,2.499-2,4.499-2.5,4.998c-0.5,0.5-2.5,1.999-4.999,2.499c-0.5,0-2.5,0.5-4.5-0.5c-3.5-1.5-4.5-4.998-4.999-5.498
		c-0.5,0-2,0-3.5,1c-2.5,1.999-2.5,5.498-2.5,5.498c-3.5-1-6.999,0-9.499,2.499c-2,1.999-2,4.499-2,5.498c0,1,0.5,3.499,2,5.498
		c2,2.499,5.999,3.499,9.499,2.499c0,0.5,0,3.499,2.5,5.498c1.5,1,2.999,1,3.5,1c0-0.5,1.5-3.999,4.999-5.498c2-1,3.999-0.5,4.5-0.5
		c2.5,0.5,4.5,1.999,4.999,2.499c0.5,0.5,2,2.499,2.5,4.998c0,0.5,0.5,2.499-0.5,4.499c-1.5,3.499-4.999,4.499-5.499,4.998
		c0,0.5,0,1.999,1,3.499c2,2.499,5.499,2.499,5.499,2.499c-1,3.499,0,6.998,2.5,9.497c2,1.999,4.5,1.999,5.499,1.999l0,0
		c1,0,3.5-0.5,5.499-1.999c2.5-1.999,3.5-5.998,2.5-9.497c0.5,0,3.5,0,5.499-2.499c1-1.499,1-2.999,1-3.499
		c-0.5,0-3.999-1.5-5.499-4.998c-1-1.999-0.5-3.999-0.5-4.499c0.5-2.499,2-4.499,2.5-4.998c0.5-0.5,2.5-1.999,4.999-2.499
		c0.5,0,2.5-0.5,4.5,0.5c3.5,1.499,4.5,4.998,4.999,5.498c0.5,0,2,0,3.5-1c2.5-1.999,2.5-5.498,2.5-5.498c3.5,1,6.999,0,9.499-2.499
		C184.463,145.209,184.963,142.71,184.963,141.711"/>
</g>
</svg>
