<?xml version="1.0" encoding="utf-8"?>
<!-- Generator: Adobe Illustrator 22.0.0, SVG Export Plug-In . SVG Version: 6.00 Build 0)  -->
<svg version="1.1" xmlns="http://www.w3.org/2000/svg" xmlns:xlink="http://www.w3.org/1999/xlink" x="0px" y="0px"
	 viewBox="0 0 283.5 283.5" enable-background="new 0 0 283.5 283.5" xml:space="preserve">
<g id="c1">
	<g>
		<path fill="#353333" d="M0.018,260.533c3.828,3.828,7.656,7.656,11.485,11.484c3.328-3.327,6.656-6.655,9.984-9.982
			c-7.156-7.181-14.313-14.361-21.469-21.542V260.533z"/>
		<polygon fill="#353333" points="283.5,0 0.018,283.5 20.062,283.5 283.502,20.117 		"/>
		<polygon fill="#353333" points="41.57,241.957 0.018,200.415 0.018,220.454 31.548,251.977 		"/>
		<polygon fill="#353333" points="61.614,221.918 0.018,160.336 0.018,180.375 51.592,231.938 		"/>
		<polygon fill="#353333" points="81.658,201.878 0.018,120.256 0.018,140.296 71.635,211.898 		"/>
		<polygon fill="#353333" points="101.701,181.839 0.018,80.177 0.018,100.217 91.679,191.858 		"/>
		<polygon fill="#353333" points="121.745,161.799 0.018,40.098 0.018,60.138 111.723,171.819 		"/>
		<polygon fill="#353333" points="141.789,141.759 0.034,0.035 0.018,0.035 0.018,20.059 131.767,151.779 		"/>
		<polygon fill="#353333" points="161.833,121.72 40.172,0.086 20.128,0.086 151.811,131.74 		"/>
		<polygon fill="#353333" points="181.877,101.68 80.272,0.098 60.228,0.098 171.855,111.7 		"/>
		<polygon fill="#353333" points="221.965,61.601 160.448,0.098 140.404,0.098 211.943,71.621 		"/>
		<polygon fill="#353333" points="242.009,41.562 200.536,0.098 180.492,0.098 231.987,51.581 		"/>
		<polygon fill="#353333" points="262.053,21.522 240.624,0.098 220.58,0.098 252.031,31.542 		"/>
	</g>
	<path fill="#353333" d="M283.5,0c-7.625-0.021-15.269,0.021-22.895,0l11.438,11.534L283.5,0z"/>
	<path fill="#9D9FA2" d="M100.316,0.098"/>
	<polygon fill="#353333" points="191.899,91.661 201.921,81.641 120.36,0.098 100.316,0.098 	"/>
</g>
<g id="c3">
	<path fill="#58585A" d="M23.454,260.057l8.076-8.074C21.02,241.475,10.51,230.968,0,220.46v20.04
		c7.156,7.181,14.313,14.361,21.469,21.542C22.131,261.38,22.792,260.719,23.454,260.057z"/>
	<polygon fill="#58585A" points="51.574,231.944 0,180.381 0,200.421 41.552,241.963 	"/>
	<polygon fill="#58585A" points="71.618,211.904 0,140.302 0,160.342 61.596,221.924 	"/>
	<polygon fill="#58585A" points="91.662,191.864 0,100.223 0,120.262 81.64,201.884 	"/>
	<polygon fill="#58585A" points="111.706,171.825 0,60.144 0,80.183 101.684,181.845 	"/>
	<polygon fill="#58585A" points="131.75,151.785 0,20.065 0,40.104 121.728,161.805 	"/>
	<path fill="#9D9FA2" d="M100.299,0.104"/>
	<polygon fill="#58585A" points="0,260.539 0,283.506 11.485,272.024 	"/>
</g>
<g id="c4">
	<g>
		<polygon fill="#9D9FA2" points="151.799,131.743 20.128,0.101 0.084,0.101 141.777,141.762 		"/>
		<polygon fill="#9D9FA2" points="171.843,111.703 60.216,0.101 40.172,0.101 161.821,121.723 		"/>
		<path fill="#9D9FA2" d="M191.887,91.664L100.304,0.101c-6.681,0-13.363,0-20.044,0c33.868,33.861,67.737,67.722,101.605,101.583
			L191.887,91.664z"/>
		<polygon fill="#9D9FA2" points="211.931,71.624 140.392,0.101 120.348,0.101 201.909,81.644 		"/>
		<polygon fill="#9D9FA2" points="231.975,51.584 180.48,0.101 160.436,0.101 221.953,61.604 		"/>
		<polygon fill="#9D9FA2" points="252.019,31.545 220.568,0.101 200.524,0.101 241.997,41.565 		"/>
		<polygon fill="#9D9FA2" points="272.063,11.505 260.593,0.003 240.612,0.101 262.041,21.525 		"/>
	</g>
	<path fill="#9D9FA2" d="M100.304,0.101"/>
</g>
<g id="c5">
	<g>
		<polygon fill="#DEDEDE" points="283.482,200.482 200.44,283.506 220.484,283.506 283.482,220.521 		"/>
		<polygon fill="#DEDEDE" points="283.482,80.244 80.176,283.506 100.22,283.506 283.482,100.284 		"/>
		<polygon fill="#DEDEDE" points="283.485,20.123 20.044,283.506 40.088,283.506 283.485,40.163 		"/>
	</g>
	<polygon fill="#DEDEDE" points="283.482,260.6 283.489,283.506 260.572,283.506 	"/>
	<polygon fill="#DEDEDE" points="140.308,283.506 160.352,283.506 283.482,160.403 283.489,140.357 	"/>
</g>
<g id="c6">
	<g>
		<polygon fill="#58585A" points="283.567,220.521 220.568,283.506 240.612,283.506 283.567,240.561 		"/>
		<polygon fill="#58585A" points="283.567,160.403 160.436,283.506 180.48,283.506 283.567,180.442 		"/>
		<polygon fill="#58585A" points="283.567,100.284 100.304,283.506 120.348,283.506 283.567,120.323 		"/>
		<polygon fill="#58585A" points="283.569,40.163 40.172,283.506 60.216,283.506 283.567,60.205 		"/>
	</g>
	<path fill="#9D9FA2" d="M100.383,0.104"/>
</g>
<g id="c8">
	<g>
		<polygon fill="#9D9FA2" points="283.482,240.561 240.528,283.506 260.572,283.506 283.482,260.6 		"/>
		<polygon fill="#9D9FA2" points="283.482,180.442 180.396,283.506 200.44,283.506 283.482,200.482 		"/>
		<polygon fill="#9D9FA2" points="283.482,120.323 120.264,283.506 140.308,283.506 221.585,202.247 283.489,140.357 		"/>
		<polygon fill="#9D9FA2" points="283.482,60.205 60.132,283.506 80.176,283.506 283.482,80.244 		"/>
	</g>
</g>
</svg>
