<?xml version="1.0" encoding="utf-8"?>
<!-- Generator: Adobe Illustrator 22.0.0, SVG Export Plug-In . SVG Version: 6.00 Build 0)  -->
<svg version="1.1" xmlns="http://www.w3.org/2000/svg" xmlns:xlink="http://www.w3.org/1999/xlink" x="0px" y="0px"
	 viewBox="0 0 283.5 283.5" enable-background="new 0 0 283.5 283.5" xml:space="preserve">
<g id="Capa_1">
</g>
<g id="C4">
	<rect x="0" y="0" fill="#DEDEDE" width="283.5" height="283.5"/>
</g>
<g id="c2">
	<path fill="#353333" d="M256.278,264.697c0.263,0.238,0.179,0.674-0.156,0.791c-2.85,1.002-12.789,4.238-25.297,5.397
		c-2.352,0.218-8.057-13.089-23.872-4.567c-0.667,0.359-13.531-17.249-27.438,5.438c-0.527,0.859-5.748-3.366-7.217-1.305
		c-3.158,4.43-8.157,4.764-8.283,3.93c-1.875-12.375,4.375-11.25,1.265-15.772c-1.796-2.612-4.597-4.332-3.349-5.02
		c3.708-2.042,6.98-4.116,5.592-6.258c-1.717-2.649-13.516-2.105-16.481-1.925c-0.387,0.024-0.97-0.159-0.914-0.542
		c1.095-7.483-8.491-3.827-8.405-9.15c0.046-2.872,5.063-2.393,11.311-4.675c3.855-1.408-0.581-6.055,0.605-6.825
		c3.083-2,10.615,4.24,16.75,6.583c4.633,1.77,6.106-6.314,6.304-6.867c0.221-0.617,13.446,9.7,17.863,0.117
		c3.597-7.805-11.542-31.042-50.042-10.542c-14.307,7.618-23.216,35.254-17.42,53.374c0.921,2.881-3.705-2.249-9.205,2.501
		c-3.085,2.664,4-7.625-8.125-10.5c-1.513-0.359-8.165,3.99-7.643,10.693c0.268,3.432-10.647,0.923-11.842,0.439
		c-2.929-1.189-4.986-2.665-5.265-4.382c-0.938-5.75,11.375,1.125,5.125-21.813c-1.442-5.294-12.875-5.938-18.281-3.63
		c-4.717,2.013-12.075,5.002-19.219,26.193c-2.049,6.077-8.875-0.625-13.625,1.625c-5.596,2.651-12.875,9-15.375,5.5
		c-2.74-3.836,2.5-14.125,10.061-20.599c2.84-2.431-7.596-2.876-6.579-5.263c6.393-15.013,32.315-19.753,30.702-27.193
		c-1.428-6.584-14.847-10.462-30.097-11.587c-4.695-0.346,2.296-6.903-0.837-10.484c-7-8-8.076-5.803-8.375-9.75
		c-0.18-2.373,4.795-3.022,12.259-2.545c1.285,0.082,2.533-0.519,3.233-1.6c1.711-2.643,4.258-8.355,12.383-6.48
		c12.386,2.858,29.685,18.143,32.875,12.625c4.625-8-4.533-8.279-8.276-11.199c-2.946-2.298-1.321-4.547-2.974-6.051
		c-1.308-1.19-7.709-2.094-8-3.5c-0.795-3.846,3.021-4.665,5.249-4.742c0.471-0.016,0.8-0.469,0.673-0.923
		c-0.417-1.491-0.394-3.447,1.203-3.397c12.631,0.394,17.188,4.25,28.938,10.5c1.032,0.549,1.515-5.664,4.125-4.625
		c19.938,7.938,33.313-24.572,2.797-28.26c-11.775-1.423-32.925,2.066-50.86,15.531c-1.247,0.936-5.892,2.996-9.333,1.583
		c-2.797-1.148,1.5-7.833-11.583-5.667c-7.324,1.213-8.942-4.482-7.896-5.551c2.16-2.208,2.931-5.422,12.063-10.615
		c2.758-1.568-0.684-4.866,0.333-7.25c2.689-6.302,11.417,7.833,18.917-5.75c0.567-1.026,0.25-7.25-6.583-7
		c-3.421,0.125-9.662,4.123-15.833,4.083c-1.427-0.009-4.333-3.167-3.167-5.5c1.167-2.335,0-5.667-3.167-8.417
		c-4.572-3.97-5.371-6.727-4.667-8.083c0.571-1.101,4.583,1.083,11.25-0.917c1.753-0.526,2.687-1.612,3.748-2.51
		c0.735-0.623,1.847-0.514,2.463,0.226c3.255,3.909,12.581,14.125,21.772,2.854c0.601-0.737-2.232-14.32-17.816-16.487
		c-8.402-1.168-11.281-6.241-19.5-7.083c-6.817-0.698-7.25-9-5.105-11.42c3.401-3.836,5.902-3.627,5.438-6.33
		c-0.646-3.76-13.053-6.038-15.417-11.167c-1.591-3.453,1.815-6.67,7.874-10.699c0.379-0.252,0.488-0.759,0.238-1.138
		c-1.522-2.309-6.423-8.887-3.497-18.691c0.328-1.1,8.658-0.396,16.718,7.07c1.864,1.727,5.518-1.04,12.313-1.688
		c3.644-0.347,3.875,4.125,7.5,16.687c0.7,2.427,12.524-8.342,13.875-6.812c2.375,2.688-2.375,4.812,9.313,27.5
		c3.062,5.944,10.908,12.662,17.5,9.438c5.75-2.813,0-19.688-10.563-21.063c-1.549-0.202,4.629-3.579,2.05-7.783
		c-4.563-7.438-9.05-10.217-8.738-22.342c0.037-1.42-0.458-1.333,17,8.938c2.013,1.184,4.25,1.25,7,0.188
		c2.48-0.958,5.313-9,8.125-7c2.585,1.838,1.938,5.5,5.813,5.375c3.063-0.099,11.089-3.256,12.481-2.213
		c4.707,3.525-3.043,6.775-10.043,30.088c-1.91,6.361-0.361,18.18,13.883,9.586c0.141-0.085,0.74-0.449,1.214-0.736
		c0.234-0.142,0.525,0.059,0.471,0.327c-1.472,7.297-6.932,39.808,3.455,50.636c3.477,3.625,7.352,11.125,22.352,8.875
		c5.204-0.781,2.79-13.464-1.901-17.478c0,0-5.349-4.772-11.286-4.897c-0.601-0.013,1.364-2.322-0.13-6.323
		c-0.16-0.43-0.495-0.771-0.913-0.96c-1.585-0.719-6.207-4.154-6.207-12.779c0-2.968,6.966,0.685,10.313-0.938
		c2.336-1.132,2.032-10.248,3.688-8.5c1.125,1.188,17.688,14.25,21.125,1.313c2.595-9.765-8.446-18.143-25.5-16.438
		c-2.5,0.25,0.906-3.588,3-8.563c3.5-8.313-8.706-13.071-9-16.25c-0.313-3.375,2.09-7.436,21.375-4.375
		c3.938,0.625-0.75-6.313,9-6.25c6.284,0.04,10.091,5.639,9.563,12.521c-0.015,0.189,3.16-1.206,5.292,0.125
		c2.104,1.313-1.267,6.391,9.181,8.65c3.083,0.667,6.027-1.484,9.175-9.644c1.147-2.975,8.227-1.09,14.352-0.215
		c2.863,0.409-6.375,9.5,2.125,14.625c3.346,2.017,3.375,7.625,19.25-17.25c3.867-6.059,5.125-2.625,11.25-0.875
		c2.911,0.832,9.875-14.262,20.375-14.25c2.362,0.003-1.728,16.563-0.929,19.05c0.783,2.439,3.804-2.175,3.804,3.825
		c0,2.485-2.125,6.875-13.125,13.375c-2.687,1.588,3.072,4.541,4.125,6c0.756,1.047,2.772,6.686-6.5,11.375
		c-10.875,5.5-34.01,18.361-37.125,26c-1.235,3.029,0.232,9.714,19.732,8.964c4.031-0.155-1.184,7.644,2.64,8.917
		c11.252,3.744,14.169-2.089,31.169,3.286c2.682,0.848-5.357,4.285-4.735,6.837c0.944,3.871-0.848,8.454,0.11,9.579
		c3.19,3.745-7.417,0.792-8.542,2.292c-1.651,2.202,0.284,4.544-2.5,5.292c-5.583,1.5-13.667-10.833-18.167-11
		c-11.006-0.408-36.833,6.833-31.802,45.57c0.898,6.91,3.866,13.415,11.968,18.263c2.664,1.594,8.833,3.167,14-4.833
		c1.169-1.81-1.833-9.167-0.083-10.667c1.482-1.271,5.583-3.167,4.083-5.917c-2.489-4.563-6.167-10-6.583-12.083
		c-0.145-0.723-1.25-3.5,2.333-5.083c1.573-0.695-3.791-15.767-1.917-15.167c3.336,1.068,10.363,1.074,13.083,3.167
		c1.764,1.357,2.417,1.167,4.667,15.75c0.268,1.739,4.333,0.079,15.583-7.671c3.173-2.186,3.398,7.933,3.05,12.762
		c-0.216,3.006,7.616,7.493,8.866,14.159c1.304,6.956-14.719-0.1-15.239,6.343c-0.678,8.407,6.655,5.24,8.822,8.907
		c1.099,1.861-0.861,5.029-4.722,8.948c-3.628,3.682-10.958,2.842-11.5,11.575c-0.357,5.743,6.055,6.394,16.389,0.228
		c2.819-1.682,6.752,6.13,6.325,12.917c-0.361,5.753-4.911,10.204-4.909,13.417c0.011,12.929,1.012,19.397-0.083,18.75
		c-16.5-9.75-22.457-28.374-24.5-43.917c-2.125-16.167,4.974-28.452-2.292-25.458c-17.75,7.313-17.223,24.969-17.317,26.926
		c-0.019,0.392-0.448,0.62-0.784,0.418c-7.209-4.335-27.486-25.634-32.774-61.801c-4.561-31.199,15.959-69.241,15.5-68.917
		c-35.667,25.25-34.167,75.417-34.167,75.417c-58.5-55.5-91.333-66.167-91.333-66.167c9.25,15.5,26.34,35.136,35.75,46.75
		c17.083,21.083,36.75,36.083,36.75,36.083s-45.615,11.808-58.124,33.831c-0.262,0.462,0.132,1.369,0.573,1.073
		c9.458-6.341,67.074-35.165,121.117,20.424c0.726,0.747,0.416,1.999-0.579,2.308c-6.36,1.976-24.565,8.549-26.487,19.531
		C191.201,253.754,224.514,235.86,256.278,264.697z"/>
</g>
</svg>
