<?xml version="1.0" encoding="utf-8"?>
<!-- Generator: Adobe Illustrator 22.0.0, SVG Export Plug-In . SVG Version: 6.00 Build 0)  -->
<svg version="1.1" xmlns="http://www.w3.org/2000/svg" xmlns:xlink="http://www.w3.org/1999/xlink" x="0px" y="0px"
	 viewBox="0 0 283.5 283.5" enable-background="new 0 0 283.5 283.5" xml:space="preserve">
<g id="Capa_1">
</g>
<g id="c1">
	<rect fill="#DEDEDE" width="283.465" height="283.465"/>
</g>
<g id="C4">
	<path fill="#6A6967" d="M117.506,153.379c-9.461,2.012-23.56,6.604-36.958,17.658c-28.23,23.29-31.089,56.902-31.516,63.431
		c6.529-0.427,40.141-3.287,63.431-31.516c11.054-13.398,15.646-27.496,17.657-36.958
		C124.616,163.348,120.152,158.884,117.506,153.379z"/>
	<path fill="#6A6967" d="M202.951,171.036c-13.398-11.054-27.496-15.646-36.958-17.658c-2.645,5.505-7.11,9.97-12.615,12.615
		c2.012,9.461,6.604,23.56,17.658,36.958c23.29,28.23,56.902,31.089,63.431,31.516C234.04,227.938,231.181,194.327,202.951,171.036z
		"/>
	<path fill="#6A6967" d="M171.036,80.549c-11.054,13.398-15.646,27.496-17.658,36.958c5.505,2.645,9.97,7.11,12.615,12.615
		c9.461-2.012,23.56-6.604,36.958-17.658c28.23-23.29,31.089-56.902,31.516-63.431C227.938,49.46,194.327,52.319,171.036,80.549z"/>
	<path fill="#6A6967" d="M130.121,117.506c-2.012-9.461-6.604-23.56-17.657-36.958c-23.29-28.23-56.902-31.089-63.431-31.516
		c0.427,6.529,3.287,40.141,31.516,63.431c13.398,11.054,27.496,15.646,36.958,17.658
		C120.152,124.616,124.616,120.152,130.121,117.506z"/>
</g>
<g id="c2">
	<path fill="#353333" d="M130.177,117.481c3.505-1.675,7.429-2.614,11.573-2.614c4.144,0,8.068,0.939,11.573,2.614
		c0.022-0.01,0.045-0.018,0.066-0.028c1.881-8.821,6.008-21.648,15.499-34.182c-3.551-11.62-14.357-20.072-27.139-20.072
		s-23.588,8.453-27.139,20.072c9.491,12.533,13.618,25.361,15.499,34.182C130.132,117.463,130.155,117.472,130.177,117.481z"/>
	<path fill="#353333" d="M153.323,166.019c-3.505,1.675-7.429,2.614-11.573,2.614c-4.144,0-8.068-0.939-11.573-2.614
		c-0.022,0.01-0.045,0.018-0.066,0.028c-1.881,8.821-6.008,21.648-15.499,34.182c3.551,11.62,14.357,20.072,27.139,20.072
		c12.782,0,23.588-8.453,27.139-20.072c-9.491-12.533-13.618-25.361-15.499-34.182C153.368,166.037,153.345,166.028,153.323,166.019
		z"/>
	<path fill="#353333" d="M166.019,130.177c1.675,3.505,2.614,7.429,2.614,11.573c0,4.144-0.939,8.068-2.614,11.573
		c0.01,0.022,0.018,0.045,0.028,0.066c8.821,1.881,21.648,6.008,34.182,15.499c11.62-3.551,20.072-14.357,20.072-27.139
		c0-12.782-8.453-23.588-20.072-27.139c-12.533,9.491-25.361,13.618-34.182,15.499C166.037,130.132,166.028,130.155,166.019,130.177
		z"/>
	<path fill="#353333" d="M117.481,153.323c-1.675-3.505-2.614-7.429-2.614-11.573c0-4.144,0.939-8.068,2.614-11.573
		c-0.01-0.022-0.018-0.045-0.028-0.066c-8.821-1.881-21.648-6.008-34.182-15.499c-11.62,3.551-20.072,14.357-20.072,27.139
		s8.453,23.588,20.072,27.139c12.533-9.491,25.361-13.618,34.182-15.499C117.463,153.368,117.472,153.345,117.481,153.323z"/>
</g>
<g id="c5">
	<circle fill="#9D9FA2" cx="141.75" cy="141.75" r="26.883"/>
</g>
</svg>
