<?xml version="1.0" encoding="utf-8"?>
<!-- Generator: Adobe Illustrator 22.0.0, SVG Export Plug-In . SVG Version: 6.00 Build 0)  -->
<svg version="1.1" xmlns="http://www.w3.org/2000/svg" xmlns:xlink="http://www.w3.org/1999/xlink" x="0px" y="0px"
	 viewBox="0 0 283.5 283.5" enable-background="new 0 0 283.5 283.5" xml:space="preserve">
<g id="Capa_1">
</g>
<g id="c1">
	<rect y="0.062" fill="#DEDEDE" width="283.364" height="283.438"/>
</g>
<g id="C4">
	<polygon fill="#353333" points="283.482,283.349 283.482,251.58 274.099,260.94 260.829,260.94 260.829,274.178 251.636,283.349 	
		"/>
</g>
<g id="c2">
	<path fill="#9D9FA2" d="M251.301,283.349l9.327-9.304v-13.238h13.27l9.383-9.36c0-7.999,0-15.998,0-23.996
		c-4.668-4.851-9.335-9.703-14.003-14.554c-2.485,6.233-4.97,12.465-7.455,18.698c-6.526-3.263-13.053-6.525-19.579-9.788
		c1.096,8.037,2.192,16.074,3.289,24.111c-7.847-1.149-15.694-2.299-23.542-3.448c4.094,6.783,8.188,13.565,12.282,20.348
		c-7.237,2.11-14.474,4.22-21.711,6.33c5.894,4.734,11.788,9.468,17.683,14.201H251.301z"/>
	<path fill="none" stroke="#000000" stroke-miterlimit="10" d="M225.14,72.128"/>
</g>
<g id="c5">
	<g>
		<path fill="#6A6967" d="M222.42,242.684c7.705,1.128,15.409,2.257,23.114,3.385c-1.067-7.823-2.134-15.646-3.201-23.469
			l-35.576-35.49c-3.594-3.585-9.421-3.585-13.014,0l-7.008,6.991c-3.594,3.585-3.594,9.398,0,12.983L222.42,242.684z"/>
		<path fill="#6A6967" d="M242.245,221.958c6.526,3.263,13.053,6.525,19.579,9.788c2.485-6.232,4.97-12.465,7.455-18.697
			c4.668,4.851,9.335,9.703,14.003,14.554V152.16h-4.956c-5.082,0-9.202,4.11-9.202,9.18v51.536l-19.919-47.971
			c-1.945-4.684-7.328-6.909-12.024-4.968l-9.157,3.784c-4.696,1.94-6.925,7.31-4.98,11.994L242.245,221.958z"/>
		<path fill="#6A6967" d="M230.148,283.423c-5.862-4.708-11.724-9.416-17.586-14.124c7.237-2.11,14.474-4.22,21.711-6.33
			c-4.094-6.783-8.188-13.566-12.282-20.348h0l-46.682-19.289c-4.696-1.94-10.079,0.284-12.024,4.968l-3.793,9.134
			c-1.945,4.684,0.285,10.054,4.98,11.994l48.089,19.87H160.9c-5.082,0-9.203,4.11-9.203,9.18v4.943H230.148z"/>
	</g>
</g>
<g id="c11">
	<path fill="none" stroke="#000000" stroke-miterlimit="10" d="M117.016,190.814"/>
	<g>
		<path fill="#353333" d="M174.51,155.523c-6.276,0.575-12.553,1.15-18.829,1.725c-0.621,6.717-1.241,13.434-1.862,20.151
			c6.235,5.584,12.469,11.168,18.704,16.752c5.614-1.026,11.228-2.053,16.841-3.079c1.127-5.922,2.254-11.844,3.381-17.767
			C186.667,167.378,180.588,161.451,174.51,155.523z"/>
		<path fill="#353333" d="M92.21,93.718c-0.53,6.582-1.061,13.164-1.591,19.746c6.235,5.584,12.469,11.168,18.704,16.752
			c5.614-1.026,11.228-2.053,16.841-3.079c0.945-5.7,1.89-11.399,2.836-17.099c-6.004-5.842-12.009-11.685-18.013-17.527
			C104.728,92.914,98.469,93.316,92.21,93.718z"/>
	</g>
	<g>
		<path fill="#353333" d="M268.315,117.957c0,8.286,0,16.572,0,24.857c4.917,2.993,9.834,5.986,14.752,8.978v-47.009
			C278.15,109.175,273.232,113.566,268.315,117.957z"/>
		<path fill="#353333" d="M117.565,268.629c-4.402,4.905-8.804,9.811-13.206,14.716h47.124c-3-4.905-6-9.811-9-14.716
			C134.177,268.629,125.871,268.629,117.565,268.629z"/>
	</g>
	<g>
		<path fill="#353333" d="M0.018,178.606c4.917-4.391,9.835-8.782,14.752-13.173c0-8.286,0-16.572,0-24.857
			c-4.917-2.993-9.835-5.986-14.752-8.978V178.606z"/>
		<path fill="#353333" d="M131.903,0.045c3,4.905,6,9.811,9,14.716c8.306,0,16.612,0,24.918,0
			c4.402-4.905,8.804-9.811,13.206-14.716H131.903z"/>
	</g>
</g>
<g id="c3">
	<path fill="none" stroke="#000000" stroke-miterlimit="10" d="M117.016,189.8"/>
	<path fill="none" stroke="#000000" stroke-miterlimit="10" d="M225.14,72.128"/>
	<g>
		<path fill="#6A6967" d="M229.204,57.224c2.688-6.83,5.376-13.66,8.065-20.49c-3.73-4.789-7.459-9.577-11.189-14.366
			c-6.235,0.528-12.469,1.056-18.704,1.584c-2.902,6.809-5.804,13.618-8.706,20.427c3.689,5.492,7.379,10.983,11.068,16.475
			C216.227,59.644,222.715,58.434,229.204,57.224z"/>
		<path fill="#6A6967" d="M241.314,86.325c-5.488,3.616-10.976,7.231-16.464,10.846c1.451,6.193,2.901,12.386,4.352,18.579
			c6.708,2.92,13.416,5.84,20.125,8.761c4.762-3.444,9.523-6.887,14.285-10.331c-0.58-6.492-1.16-12.984-1.741-19.477
			C255.018,91.91,248.166,89.117,241.314,86.325z"/>
		<path fill="#6A6967" d="M198.669,44.378c-2.819-6.795-5.637-13.591-8.456-20.386c-6.155-0.784-12.309-1.569-18.464-2.353
			c-3.874,4.889-7.748,9.778-11.622,14.668c2.846,6.597,5.692,13.193,8.538,19.79c6.448,1.567,12.896,3.135,19.344,4.702
			C191.563,55.325,195.116,49.852,198.669,44.378z"/>
		<path fill="#6A6967" d="M241.314,86.325c6.839-2.6,13.678-5.2,20.516-7.799c0.718-6.131,1.436-12.262,2.154-18.393
			c-4.825-3.841-9.649-7.682-14.474-11.523c-6.769,2.871-13.537,5.743-20.306,8.614c-1.285,6.377-2.57,12.754-3.855,19.131
			C230.671,79.678,235.992,83.002,241.314,86.325z"/>
		<path fill="#6A6967" d="M168.666,56.097c-6.794-2.664-13.587-5.327-20.381-7.991c-4.762,3.444-9.523,6.887-14.285,10.331
			c0.58,6.492,1.16,12.984,1.741,19.477c6.817,2.961,13.633,5.922,20.45,8.882c5.524-3.783,11.047-7.567,16.571-11.35
			C171.396,68.996,170.031,62.546,168.666,56.097z"/>
		<path fill="#6A6967" d="M168.299,115.896c-2.688,6.83-5.376,13.66-8.065,20.49c3.729,4.789,7.459,9.578,11.189,14.366
			c6.235-0.528,12.469-1.056,18.704-1.584c2.902-6.809,5.804-13.618,8.706-20.427c-3.689-5.492-7.379-10.983-11.068-16.475
			C181.277,113.477,174.788,114.687,168.299,115.896z"/>
		<path fill="#6A6967" d="M198.834,128.742c2.819,6.795,5.637,13.591,8.456,20.386c6.155,0.784,12.31,1.569,18.464,2.353
			c3.874-4.889,7.748-9.778,11.622-14.668c-2.725-7.021-5.45-14.042-8.174-21.064c-6.569-1.143-13.138-2.286-19.708-3.428
			C205.941,117.795,202.387,123.269,198.834,128.742z"/>
		<path fill="#6A6967" d="M156.19,86.796c-6.839,2.6-13.678,5.2-20.516,7.799c-0.718,6.131-1.436,12.262-2.154,18.393
			c4.825,3.841,9.649,7.682,14.474,11.523c6.769-2.871,13.537-5.743,20.306-8.614c1.285-6.377,2.57-12.754,3.855-19.131
			C166.833,93.442,161.511,90.119,156.19,86.796z"/>
	</g>
	<g>
		<path fill="#6A6967" d="M111.537,209.419c5.488-3.615,10.976-7.231,16.464-10.846c6.852,2.793,13.705,5.586,20.557,8.378
			c0.58,6.492,1.16,12.984,1.741,19.477c-4.762,3.444-9.523,6.887-14.285,10.331c-6.708-2.92-13.416-5.84-20.125-8.761
			C114.438,221.805,112.987,215.612,111.537,209.419z"/>
		<path fill="#6A6967" d="M96.425,173.101c-3.689-5.492-7.379-10.983-11.068-16.475c2.902-6.809,5.804-13.618,8.707-20.427
			c6.235-0.528,12.47-1.056,18.704-1.584c3.73,4.789,7.459,9.577,11.189,14.366c-2.688,6.83-5.376,13.66-8.065,20.49
			C109.402,170.682,102.914,171.892,96.425,173.101z"/>
		<path fill="#6A6967" d="M74.696,173.047c-6.448-1.567-12.896-3.135-19.344-4.702c-2.846-6.597-5.692-13.193-8.538-19.79
			c3.874-4.889,7.748-9.778,11.622-14.668c6.155,0.784,12.309,1.569,18.464,2.353c2.819,6.795,5.637,13.591,8.456,20.386
			C81.803,162.1,78.25,167.573,74.696,173.047z"/>
		<path fill="#6A6967" d="M112.036,188.603c1.285-6.377,2.57-12.754,3.855-19.131c6.769-2.871,13.537-5.743,20.306-8.614
			c4.825,3.841,9.649,7.682,14.474,11.523c-0.718,6.131-1.436,12.262-2.154,18.393c-6.839,2.6-13.678,5.2-20.516,7.799
			C122.679,195.249,117.358,191.926,112.036,188.603z"/>
		<path fill="#6A6967" d="M59.448,187.693c-5.524,3.783-11.047,7.567-16.571,11.35c-6.816-2.961-13.633-5.922-20.45-8.882
			c-0.58-6.492-1.16-12.984-1.741-19.477c4.762-3.444,9.523-6.887,14.285-10.331c6.794,2.664,13.587,5.327,20.381,7.991
			C56.718,174.794,58.083,181.244,59.448,187.693z"/>
		<path fill="#6A6967" d="M74.453,224.515c3.689,5.492,7.379,10.983,11.068,16.475c-2.902,6.809-5.804,13.618-8.707,20.427
			c-6.235,0.528-12.47,1.056-18.704,1.584c-3.73-4.789-7.459-9.577-11.189-14.366c2.688-6.83,5.376-13.66,8.065-20.49
			C61.475,226.934,67.964,225.725,74.453,224.515z"/>
		<path fill="#6A6967" d="M96.181,224.57c6.569,1.143,13.138,2.286,19.708,3.428c2.725,7.021,5.45,14.042,8.174,21.064
			c-3.874,4.889-7.748,9.778-11.622,14.668c-6.155-0.784-12.309-1.569-18.464-2.353c-2.819-6.795-5.637-13.591-8.456-20.386
			C89.074,235.516,92.628,230.043,96.181,224.57z"/>
		<path fill="#6A6967" d="M58.841,209.013c-1.285,6.377-2.57,12.754-3.855,19.131c-6.769,2.871-13.537,5.743-20.306,8.614
			c-4.825-3.841-9.649-7.682-14.474-11.523c0.718-6.131,1.436-12.262,2.154-18.393c6.839-2.6,13.678-5.2,20.516-7.799
			C48.198,202.367,53.52,205.69,58.841,209.013z"/>
	</g>
</g>
<g id="c6">
	<path fill="none" stroke="#000000" stroke-miterlimit="10" d="M117.016,190.814"/>
	<path fill="none" stroke="#000000" stroke-miterlimit="10" d="M225.14,73.142"/>
	<path fill="#9D9FA2" d="M127.853,198.573c-5.321-3.323-10.643-6.646-15.964-9.97c1.285-6.377,2.57-12.754,3.855-19.131
		c-6.489,1.21-12.978,2.42-19.467,3.629c-3.689-5.492-7.379-10.983-11.068-16.475c-3.553,5.473-7.107,10.947-10.66,16.42
		c-6.448-1.567-12.896-3.135-19.344-4.702c1.365,6.45,2.73,12.899,4.095,19.349c-5.524,3.783-11.047,7.567-16.571,11.35
		c5.321,3.323,10.643,6.647,15.964,9.97c-1.285,6.377-2.57,12.754-3.855,19.131c6.489-1.21,12.978-2.42,19.467-3.629
		c3.689,5.492,7.379,10.983,11.068,16.475c3.553-5.473,7.107-10.947,10.66-16.42c6.569,1.143,13.138,2.286,19.708,3.428
		c-1.451-6.193-2.901-12.386-4.352-18.579C116.877,205.804,122.365,202.188,127.853,198.573z M106.962,207.466l-8.915,3.684
		l-3.693,8.894l-8.915-3.684l-8.915,3.684l-3.693-8.894l-8.915-3.684l3.693-8.894l-3.693-8.894l8.915-3.684l3.693-8.894l8.915,3.684
		l8.915-3.684l3.693,8.894l8.915,3.684l-3.693,8.894L106.962,207.466z"/>
	<path fill="#9D9FA2" d="M241.252,86.312c-5.321-3.323-10.643-6.646-15.964-9.97c1.285-6.377,2.57-12.754,3.855-19.131
		c-6.489,1.21-12.978,2.42-19.467,3.629c-3.689-5.492-7.379-10.983-11.068-16.475c-3.553,5.473-7.107,10.947-10.66,16.42
		c-6.448-1.567-12.896-3.135-19.344-4.702c1.365,6.45,2.73,12.899,4.095,19.349c-5.524,3.783-11.047,7.567-16.571,11.35
		c5.321,3.323,10.643,6.647,15.964,9.97c-1.285,6.377-2.57,12.754-3.855,19.131c6.489-1.21,12.978-2.42,19.467-3.629
		c3.689,5.492,7.379,10.983,11.068,16.475c3.553-5.473,7.107-10.947,10.66-16.42c6.569,1.143,13.138,2.286,19.708,3.428
		c-1.451-6.193-2.901-12.386-4.352-18.579C230.276,93.543,235.764,89.928,241.252,86.312z M220.362,95.206l-8.915,3.684
		l-3.693,8.894l-8.915-3.684l-8.915,3.684l-3.693-8.894l-8.915-3.684l3.693-8.894l-3.693-8.894l8.915-3.684l3.693-8.894l8.915,3.684
		l8.915-3.684l3.693,8.894l8.915,3.684l-3.693,8.894L220.362,95.206z"/>
</g>
<g id="c7">
	<path fill="none" stroke="#000000" stroke-miterlimit="10" d="M117.016,189.8"/>
	<path fill="none" stroke="#000000" stroke-miterlimit="10" d="M225.14,72.128"/>
	<polygon fill="#353333" points="220.214,77.418 211.298,73.735 207.606,64.841 198.69,68.525 189.775,64.841 186.082,73.735 
		177.167,77.418 180.86,86.312 177.167,95.206 186.082,98.89 189.775,107.783 198.69,104.099 207.606,107.783 211.299,98.89 
		220.214,95.206 216.521,86.312 	"/>
	<polygon fill="#353333" points="98.047,185.748 94.354,176.854 85.439,180.538 76.523,176.854 72.831,185.748 63.915,189.432 
		67.608,198.325 63.915,207.219 72.831,210.903 76.523,219.796 85.439,216.112 94.354,219.796 98.047,210.903 106.962,207.219 
		103.269,198.325 106.962,189.432 	"/>
</g>
<g id="c8">
	<g>
		<path fill="#6A6967" d="M60.879,40.739c-7.705-1.128-15.409-2.257-23.114-3.385C38.833,45.177,39.9,53,40.967,60.823l35.576,35.49
			c3.594,3.585,9.421,3.585,13.014,0l7.008-6.991c3.594-3.585,3.594-9.398,0-12.983L60.879,40.739z"/>
		<path fill="#6A6967" d="M41.054,61.465c-6.526-3.263-13.053-6.525-19.579-9.788c-2.485,6.232-4.97,12.465-7.455,18.697
			c-4.668-4.851-9.335-9.703-14.003-14.554v75.443h4.956c5.082,0,9.202-4.11,9.202-9.18V70.547l19.919,47.971
			c1.945,4.684,7.328,6.909,12.024,4.968l9.157-3.784c4.696-1.94,6.925-7.31,4.98-11.994L41.054,61.465z"/>
		<path fill="#6A6967" d="M53.151,0c5.862,4.708,11.724,9.416,17.586,14.124c-7.237,2.11-14.474,4.22-21.711,6.33
			c4.094,6.783,8.188,13.566,12.282,20.348h0l46.682,19.289c4.696,1.94,10.079-0.284,12.024-4.968l3.793-9.134
			c1.945-4.684-0.285-10.054-4.98-11.994l-48.089-19.87h51.662c5.082,0,9.203-4.11,9.203-9.18V0H53.151z"/>
	</g>
</g>
<g id="c9">
	<path fill="#9D9FA2" d="M49.327,20.71c7.237-2.11,14.474-4.22,21.711-6.33C65.144,9.646,59.25,4.912,53.356,0.178
		c-7.074,0.01-14.147,0.021-21.221,0.031l-9.162,9.14v13.238H9.702l-9.383,9.36c0,8.043,0,16.086,0,24.13
		c4.668,4.851,9.335,9.703,14.003,14.554c2.485-6.233,4.97-12.465,7.455-18.698c6.526,3.263,13.053,6.525,19.579,9.788
		c-1.096-8.037-2.192-16.074-3.289-24.111c7.847,1.149,15.694,2.299,23.542,3.448C57.515,34.275,53.421,27.492,49.327,20.71z"/>
	<path fill="none" stroke="#000000" stroke-miterlimit="10" d="M225.14,72.128"/>
</g>
<g id="c10">
	<polygon fill="#353333" points="0.319,0.178 0.319,31.947 9.702,22.587 22.972,22.587 22.972,9.349 32.166,0.178 	"/>
</g>
</svg>
