<?xml version="1.0" encoding="utf-8"?>
<!-- Generator: Adobe Illustrator 22.0.0, SVG Export Plug-In . SVG Version: 6.00 Build 0)  -->
<svg version="1.1" xmlns="http://www.w3.org/2000/svg" xmlns:xlink="http://www.w3.org/1999/xlink" x="0px" y="0px"
	 viewBox="0 0 283.5 283.5" enable-background="new 0 0 283.5 283.5" xml:space="preserve">
<g id="Capa_1" display="none">
	<path display="inline" fill="#FFFFFF" stroke="#000000" stroke-width="3.3333" stroke-miterlimit="10" d="M200.11,119.287
		c0.055-0.667-0.097-1.221-0.221-1.563C200.039,118.765,200.113,119.286,200.11,119.287z"/>
	<path display="inline" fill="#FFFFFF" stroke="#000000" stroke-width="3.3333" stroke-miterlimit="10" d="M160.116,86.56
		c-5.001,3.225-7.535,4.875-9.18,6.667c-0.997,1.086-1.919,2.108-2.585,3.76c-0.707,1.754-0.75,3.28-0.749,4.581
		c0.002,2.461,0.064,3.956,0.172,5.207c0.245,2.836,0.433,2.867,0.515,4.299c0.046,0.786,0.388,8.134-3.41,10.069
		c-0.725,0.369-1.45,0.465-2.023,0.471c-0.008,0-0.015,0-0.023,0c-0.573-0.006-1.298-0.101-2.023-0.471
		c-3.799-1.934-3.456-9.282-3.411-10.069c0.083-1.432,0.271-1.463,0.516-4.299c0.108-1.251,0.17-2.746,0.171-5.207
		c0.001-1.301-0.041-2.827-0.749-4.581c-0.666-1.652-1.588-2.674-2.585-3.76c-1.645-1.792-4.179-3.442-9.18-6.667
		c-0.085-0.055-0.637-0.383-1.743-1.04c-1.701-1.012-2.232-1.361-3.049-1.428c-0.667-0.054-1.222,0.098-1.563,0.221
		c-0.002,0.005-0.004,0.01-0.004,0.01c-0.33,0.159-0.831,0.443-1.263,0.954c-0.53,0.625-0.659,1.247-1.147,3.165
		c-0.317,1.246-0.475,1.869-0.496,1.968c-1.256,5.816-1.88,8.773-1.777,11.204c0.064,1.473,0.135,2.847,0.832,4.486
		c0.74,1.739,1.789,2.849,2.711,3.768c1.742,1.739,2.843,2.752,3.804,3.561c2.178,1.832,2.334,1.721,3.405,2.674
		c0.588,0.524,6.028,5.477,4.71,9.531c-0.252,0.774-0.698,1.354-1.098,1.763c-0.409,0.4-0.99,0.846-1.764,1.097
		c-4.055,1.318-9.009-4.121-9.534-4.709c-0.954-1.071-0.843-1.226-2.675-3.404c-0.809-0.961-1.822-2.062-3.561-3.803
		c-0.92-0.921-2.029-1.97-3.769-2.71c-1.64-0.697-3.014-0.768-4.488-0.831c-2.431-0.104-5.389,0.52-11.206,1.776
		c-0.099,0.021-0.722,0.18-1.968,0.496c-1.919,0.488-2.541,0.617-3.166,1.146c-0.511,0.433-0.795,0.933-0.949,1.261
		c-0.005,0.002-0.01,0.004-0.015,0.006c-0.123,0.341-0.276,0.896-0.221,1.563c0.067,0.817,0.416,1.348,1.428,3.049
		c0.657,1.105,0.986,1.657,1.041,1.742c3.225,5,4.876,7.533,6.668,9.178c1.087,0.998,2.109,1.918,3.761,2.584
		c1.754,0.707,3.281,0.749,4.582,0.749c2.462-0.002,3.956-0.064,5.208-0.171c2.836-0.245,2.867-0.433,4.299-0.516
		c0.787-0.045,8.137-0.389,10.071,3.41c0.365,0.716,0.461,1.431,0.47,2c-0.009,0.569-0.105,1.284-0.47,2
		c-1.935,3.798-9.285,3.455-10.071,3.409c-1.432-0.082-1.463-0.27-4.299-0.515c-1.252-0.108-2.746-0.17-5.208-0.172
		c-1.302-0.001-2.828,0.041-4.582,0.749c-1.653,0.666-2.674,1.587-3.761,2.585c-1.792,1.645-3.443,4.178-6.668,9.178
		c-0.055,0.085-0.384,0.637-1.041,1.742c-1.012,1.701-1.361,2.232-1.428,3.049c-0.055,0.667,0.098,1.221,0.221,1.563
		c0.005,0.002,0.01,0.004,0.015,0.006c0.154,0.329,0.438,0.829,0.949,1.261c0.625,0.53,1.247,0.659,3.166,1.146
		c1.246,0.317,1.87,0.475,1.968,0.496c5.817,1.256,8.775,1.88,11.206,1.776c1.474-0.063,2.848-0.135,4.488-0.832
		c1.74-0.74,2.85-1.789,3.769-2.71c1.74-1.741,2.753-2.842,3.561-3.803c1.832-2.178,1.721-2.334,2.675-3.404
		c0.524-0.588,5.479-6.026,9.534-4.709c0.774,0.252,1.354,0.697,1.764,1.097c0.4,0.409,0.846,0.989,1.098,1.763
		c1.318,4.053-4.122,9.007-4.71,9.531c-1.071,0.954-1.226,0.843-3.405,2.675c-0.962,0.809-2.063,1.821-3.804,3.56
		c-0.922,0.92-1.971,2.029-2.711,3.769c-0.697,1.639-0.768,3.013-0.832,4.486c-0.104,2.43,0.52,5.388,1.777,11.204
		c0.021,0.099,0.18,0.722,0.496,1.968c0.487,1.918,0.616,2.54,1.147,3.165c0.432,0.51,0.933,0.795,1.261,0.949l0.006,0.015
		c0.341,0.124,0.896,0.276,1.563,0.221c0.817-0.067,1.348-0.416,3.049-1.427c1.106-0.657,1.658-0.986,1.743-1.041
		c5.001-3.224,7.535-4.875,9.18-6.666c0.997-1.087,1.919-2.109,2.585-3.761c0.707-1.753,0.75-3.279,0.749-4.581
		c-0.002-2.461-0.063-3.956-0.171-5.207c-0.245-2.835-0.433-2.867-0.516-4.298c-0.045-0.786-0.388-8.134,3.411-10.069
		c0.725-0.369,1.45-0.465,2.023-0.471c0.008,0,0.015,0,0.023,0c0.572,0.007,1.298,0.102,2.023,0.471
		c3.798,1.934,3.456,9.282,3.41,10.069c-0.082,1.432-0.271,1.463-0.515,4.298c-0.108,1.251-0.17,2.746-0.172,5.207
		c-0.001,1.302,0.041,2.828,0.749,4.581c0.666,1.652,1.588,2.674,2.585,3.761c1.646,1.792,4.179,3.442,9.18,6.666
		c0.085,0.055,0.637,0.383,1.742,1.041c1.702,1.012,2.233,1.361,3.05,1.427c0.667,0.055,1.222-0.097,1.563-0.221l0.005-0.015
		c0.329-0.154,0.829-0.439,1.262-0.949c0.53-0.625,0.659-1.247,1.147-3.165c0.317-1.246,0.475-1.869,0.496-1.968
		c1.256-5.815,1.88-8.774,1.777-11.204c-0.063-1.474-0.135-2.847-0.832-4.486c-0.74-1.74-1.79-2.849-2.71-3.769
		c-1.742-1.739-2.843-2.752-3.804-3.56c-2.179-1.832-2.334-1.721-3.405-2.675c-0.588-0.524-6.028-5.477-4.71-9.531
		c0.251-0.774,0.697-1.354,1.097-1.763c0.409-0.401,0.99-0.846,1.764-1.097c4.055-1.317,9.009,4.121,9.533,4.709
		c0.954,1.07,0.843,1.226,2.675,3.404c0.808,0.961,1.821,2.062,3.561,3.803c0.92,0.921,2.029,1.97,3.77,2.71
		c1.639,0.697,3.014,0.768,4.487,0.832c2.431,0.104,5.39-0.52,11.207-1.776c0.099-0.021,0.722-0.18,1.968-0.496
		c1.919-0.488,2.541-0.616,3.166-1.146c0.51-0.432,0.795-0.932,0.949-1.261c0.005-0.002,0.01-0.004,0.015-0.006
		c0.124-0.341,0.276-0.896,0.221-1.563c-0.067-0.817-0.416-1.348-1.428-3.049c-0.657-1.105-0.986-1.658-1.041-1.742
		c-3.225-5-4.876-7.533-6.668-9.178c-1.087-0.997-2.109-1.918-3.761-2.585c-1.754-0.707-3.28-0.749-4.582-0.749
		c-2.462,0.002-3.956,0.064-5.209,0.172c-2.836,0.245-2.867,0.433-4.299,0.515c-0.786,0.046-8.136,0.389-10.071-3.409
		c-0.365-0.716-0.462-1.431-0.47-2c0.009-0.569,0.105-1.284,0.47-2c1.935-3.798,9.285-3.455,10.071-3.41
		c1.432,0.082,1.463,0.271,4.299,0.516c1.252,0.108,2.747,0.17,5.209,0.171c1.301,0.001,2.828-0.041,4.582-0.749
		c1.652-0.666,2.675-1.587,3.761-2.584c1.792-1.645,3.443-4.178,6.668-9.178c0.055-0.085,0.384-0.637,1.041-1.742
		c1.012-1.701,1.361-2.232,1.428-3.049c0,0-0.081-0.522-0.236-1.568c-0.154-0.329-0.438-0.829-0.949-1.261
		c-0.625-0.53-1.248-0.659-3.166-1.146c-1.246-0.316-1.869-0.475-1.968-0.496c-5.817-1.255-8.775-1.88-11.207-1.776
		c-1.473,0.063-2.848,0.134-4.487,0.831c-1.741,0.74-2.85,1.789-3.77,2.71c-1.74,1.742-2.753,2.842-3.561,3.803
		c-1.832,2.178-1.721,2.333-2.675,3.404c-0.524,0.588-5.479,6.027-9.533,4.709c-0.774-0.251-1.354-0.697-1.763-1.097
		c-0.4-0.409-0.846-0.989-1.098-1.763c-1.318-4.054,4.122-9.007,4.71-9.531c1.071-0.953,1.226-0.843,3.405-2.674
		c0.961-0.809,2.062-1.822,3.804-3.561c0.921-0.92,1.97-2.029,2.71-3.768c0.697-1.639,0.769-3.013,0.832-4.486
		c0.104-2.43-0.521-5.388-1.777-11.204c-0.021-0.099-0.18-0.722-0.496-1.968c-0.488-1.918-0.617-2.541-1.147-3.165
		c-0.433-0.51-0.933-0.795-1.262-0.949c0,0-0.004-0.01-0.005-0.015c-0.341-0.123-0.896-0.275-1.563-0.221
		c-0.817,0.067-1.348,0.416-3.05,1.428C160.753,86.177,160.2,86.506,160.116,86.56z M153.708,141.305
		c0,6.002-4.867,10.867-10.87,10.867c-6.003,0-10.87-4.865-10.87-10.867c0-6.002,4.867-10.867,10.87-10.867
		C148.841,130.438,153.708,135.304,153.708,141.305z"/>
	
		<ellipse display="inline" fill="#FFFFFF" stroke="#000000" stroke-width="3.3333" stroke-miterlimit="10" cx="142.838" cy="141.305" rx="10.87" ry="10.867"/>
</g>
<g id="c1">
	<g>
		<path fill="#DEDEDE" d="M111.344,283.5c-0.008-7.529-0.859-47.582-33.344-79.472c-31.568-30.989-70.175-31.845-77.965-31.849
			V283.5H111.344z"/>
		<path fill="#DEDEDE" d="M283.5,172.185c-7.529,0.008-47.582,0.859-79.472,33.344c-30.989,31.568-31.845,70.175-31.849,77.965
			H283.5V172.185z"/>
		<path fill="#DEDEDE" d="M172.156,0c0.008,7.529,0.859,47.582,33.344,79.472c31.568,30.989,70.175,31.845,77.965,31.849V0H172.156z
			"/>
		<path fill="#DEDEDE" d="M0.029,111.315c7.529-0.008,47.582-0.859,79.472-33.344C110.49,46.403,111.346,7.796,111.35,0.006H0.029
			V111.315z"/>
	</g>
</g>
<g id="C4">
	<g>
		<path fill="#6A6967" d="M0.026,43.186c-0.001,20.696,0.001,41.396,0,62.092c5.779-4.705,7.371-9.172,7.904-11.464
			c0.888-3.821,0.824-6.469,0.824-6.469c-0.073-2.729-0.717-6.627,0.447-8.654c0.499-0.869,1.237-1.359,1.237-1.359
			c0.366-0.167,1.031-0.441,1.895-0.632c4.124-0.912,7.046,1.352,9.366-0.13c0.209-0.134,0.773-0.503,1.137-1.206
			c0.528-1.022,0.285-2.07,0.226-2.323c-0.36-1.548-1.637-2.307-2.592-3.144c-3.782-3.313-3.709-8.903-3.702-9.186
			c0.025-0.925,0.105-2.895,1.433-4.857c1.244-1.837,2.915-2.684,3.696-3.019l-0.003-0.007c0.792-0.316,2.569-0.894,4.74-0.475
			c2.327,0.449,3.775,1.786,4.446,2.422c0.205,0.194,4.206,4.097,3.873,9.115c-0.084,1.267-0.452,2.708,0.388,4.056
			c0.137,0.22,0.706,1.135,1.802,1.484c0.754,0.24,1.414,0.102,1.656,0.049c2.689-0.592,3.156-4.26,6.717-6.531
			c0.746-0.476,1.411-0.752,1.787-0.893c0,0,0.869-0.174,1.836,0.087c2.256,0.611,4.554,3.824,6.431,5.806
			c0,0,1.825,1.918,5.154,3.993c1.996,1.245,6.27,3.287,13.683,2.53c0.306-2.415,0.662-8.041-2.482-13.739
			c-1.247-2.259-2.723-3.95-3.991-5.155c-1.982-1.878-5.193-4.177-5.804-6.434c-0.262-0.968-0.087-1.836-0.087-1.836
			c0.141-0.377,0.417-1.042,0.892-1.788c2.271-3.562,5.937-4.029,6.529-6.719c0.053-0.242,0.19-0.903-0.05-1.657
			c-0.349-1.096-1.263-1.665-1.483-1.802c-1.348-0.839-2.788-0.472-4.055-0.388c-5.016,0.334-8.918-3.669-9.112-3.874
			c-0.636-0.671-1.973-2.12-2.421-4.447c-0.418-2.173,0.16-3.95,0.475-4.743c0.337-0.784,1.184-2.449,3.015-3.69
			c1.962-1.329,3.931-1.408,4.855-1.433c0.282-0.008,5.87-0.08,9.183,3.703c0.836,0.956,1.595,2.233,3.142,2.593
			c0.252,0.059,1.302,0.302,2.323-0.226c0.703-0.364,1.073-0.927,1.206-1.137c1.481-2.322-0.781-5.245,0.13-9.37
			c0.191-0.864,0.466-1.53,0.632-1.896c0,0,0.491-0.738,1.36-1.237c2.026-1.164,5.923-0.52,8.651-0.446c0,0,2.646,0.064,6.466-0.824
			c2.291-0.533,6.764-2.121,11.468-7.902h-62.07c0,2.89-0.289,18.164-12.614,30.509C18.219,42.891,2.916,43.185,0.026,43.186z"/>
		<path fill="#6A6967" d="M0.026,240.314c-0.001-20.696,0.001-41.396,0-62.092c5.779,4.705,7.371,9.172,7.904,11.464
			c0.888,3.822,0.824,6.469,0.824,6.469c-0.073,2.729-0.717,6.627,0.447,8.654c0.499,0.869,1.237,1.359,1.237,1.359
			c0.366,0.167,1.031,0.441,1.895,0.632c4.124,0.912,7.046-1.352,9.366,0.13c0.209,0.134,0.773,0.503,1.137,1.206
			c0.528,1.022,0.285,2.07,0.226,2.323c-0.36,1.548-1.637,2.307-2.592,3.144c-3.782,3.313-3.709,8.903-3.702,9.186
			c0.025,0.925,0.105,2.895,1.433,4.857c1.244,1.837,2.915,2.684,3.696,3.019l-0.003,0.007c0.792,0.316,2.569,0.894,4.74,0.475
			c2.327-0.449,3.775-1.786,4.446-2.422c0.205-0.194,4.206-4.097,3.873-9.115c-0.084-1.267-0.452-2.708,0.388-4.056
			c0.137-0.22,0.706-1.135,1.802-1.484c0.754-0.24,1.414-0.102,1.656-0.049c2.689,0.592,3.156,4.26,6.717,6.531
			c0.746,0.476,1.411,0.752,1.787,0.893c0,0,0.869,0.174,1.836-0.087c2.256-0.611,4.554-3.824,6.431-5.806
			c0,0,1.825-1.918,5.154-3.993c1.996-1.245,6.27-3.287,13.683-2.529c0.306,2.415,0.662,8.041-2.482,13.739
			c-1.247,2.259-2.723,3.95-3.991,5.155c-1.982,1.878-5.193,4.177-5.804,6.434c-0.262,0.968-0.087,1.836-0.087,1.836
			c0.141,0.377,0.417,1.042,0.892,1.788c2.271,3.562,5.937,4.029,6.529,6.719c0.053,0.242,0.19,0.903-0.05,1.657
			c-0.349,1.096-1.263,1.665-1.483,1.802c-1.348,0.839-2.788,0.472-4.055,0.388c-5.016-0.334-8.918,3.669-9.112,3.874
			c-0.636,0.671-1.973,2.12-2.421,4.447c-0.418,2.172,0.16,3.95,0.475,4.743c0.337,0.784,1.184,2.449,3.015,3.69
			c1.962,1.329,3.931,1.408,4.855,1.433c0.282,0.008,5.87,0.08,9.183-3.703c0.836-0.956,1.595-2.233,3.142-2.593
			c0.252-0.059,1.302-0.302,2.323,0.226c0.703,0.363,1.073,0.927,1.206,1.137c1.481,2.322-0.781,5.245,0.13,9.37
			c0.191,0.864,0.466,1.53,0.632,1.896c0,0,0.491,0.738,1.36,1.237c2.026,1.164,5.923,0.52,8.651,0.446c0,0,2.646-0.064,6.466,0.824
			c2.291,0.533,6.764,2.121,11.468,7.902h-62.07c0-2.89-0.289-18.164-12.614-30.509C18.219,240.609,2.916,240.315,0.026,240.314z"/>
		<path fill="#6A6967" d="M283.474,43.186c0.001,20.696-0.001,41.396,0,62.092c-5.779-4.705-7.371-9.172-7.904-11.464
			c-0.888-3.821-0.824-6.469-0.824-6.469c0.073-2.729,0.717-6.627-0.447-8.654c-0.499-0.869-1.237-1.359-1.237-1.359
			c-0.366-0.167-1.031-0.441-1.895-0.632c-4.124-0.912-7.046,1.352-9.366-0.13c-0.209-0.134-0.773-0.503-1.137-1.206
			c-0.528-1.022-0.285-2.07-0.226-2.323c0.36-1.548,1.637-2.307,2.592-3.144c3.782-3.313,3.709-8.903,3.702-9.186
			c-0.025-0.925-0.105-2.895-1.433-4.857c-1.244-1.837-2.915-2.684-3.696-3.019l0.003-0.007c-0.792-0.316-2.569-0.894-4.74-0.475
			c-2.327,0.449-3.775,1.786-4.446,2.422c-0.205,0.194-4.206,4.097-3.873,9.115c0.084,1.267,0.452,2.708-0.388,4.056
			c-0.137,0.22-0.706,1.135-1.802,1.484c-0.754,0.24-1.414,0.102-1.656,0.049c-2.689-0.592-3.156-4.26-6.717-6.531
			c-0.746-0.476-1.411-0.752-1.787-0.893c0,0-0.869-0.174-1.836,0.087c-2.256,0.611-4.554,3.824-6.431,5.806
			c0,0-1.825,1.918-5.154,3.993c-1.996,1.245-6.27,3.287-13.683,2.53c-0.306-2.415-0.662-8.041,2.482-13.739
			c1.247-2.259,2.723-3.95,3.991-5.155c1.982-1.878,5.193-4.177,5.804-6.434c0.262-0.968,0.087-1.836,0.087-1.836
			c-0.141-0.377-0.417-1.042-0.892-1.788c-2.271-3.562-5.937-4.029-6.529-6.719c-0.053-0.242-0.19-0.903,0.05-1.657
			c0.349-1.096,1.263-1.665,1.483-1.802c1.348-0.839,2.788-0.472,4.055-0.388c5.016,0.334,8.918-3.669,9.112-3.874
			c0.636-0.671,1.973-2.12,2.421-4.447c0.418-2.173-0.16-3.95-0.475-4.743c-0.337-0.784-1.184-2.449-3.015-3.69
			c-1.962-1.329-3.931-1.408-4.855-1.433c-0.282-0.008-5.87-0.08-9.183,3.703c-0.836,0.956-1.595,2.233-3.142,2.593
			c-0.252,0.059-1.302,0.302-2.323-0.226c-0.703-0.364-1.073-0.927-1.206-1.137c-1.481-2.322,0.781-5.245-0.13-9.37
			c-0.191-0.864-0.466-1.53-0.632-1.896c0,0-0.491-0.738-1.36-1.237c-2.026-1.164-5.923-0.52-8.651-0.446
			c0,0-2.646,0.064-6.466-0.824c-2.291-0.533-6.764-2.121-11.468-7.902l62.07,0c0,2.89,0.289,18.164,12.614,30.509
			C265.281,42.891,280.584,43.185,283.474,43.186z"/>
		<path fill="#6A6967" d="M283.474,240.314c0.001-20.696-0.001-41.396,0-62.092c-5.779,4.705-7.371,9.172-7.904,11.464
			c-0.888,3.822-0.824,6.469-0.824,6.469c0.073,2.729,0.717,6.627-0.447,8.654c-0.499,0.869-1.237,1.359-1.237,1.359
			c-0.366,0.167-1.031,0.441-1.895,0.632c-4.124,0.912-7.046-1.352-9.366,0.13c-0.209,0.134-0.773,0.503-1.137,1.206
			c-0.528,1.022-0.285,2.07-0.226,2.323c0.36,1.548,1.637,2.307,2.592,3.144c3.782,3.313,3.709,8.903,3.702,9.186
			c-0.025,0.925-0.105,2.895-1.433,4.857c-1.244,1.837-2.915,2.684-3.696,3.019l0.003,0.007c-0.792,0.316-2.569,0.894-4.74,0.475
			c-2.327-0.449-3.775-1.786-4.446-2.422c-0.205-0.194-4.206-4.097-3.873-9.115c0.084-1.267,0.452-2.708-0.388-4.056
			c-0.137-0.22-0.706-1.135-1.802-1.484c-0.754-0.24-1.414-0.102-1.656-0.049c-2.689,0.592-3.156,4.26-6.717,6.531
			c-0.746,0.476-1.411,0.752-1.787,0.893c0,0-0.869,0.174-1.836-0.087c-2.256-0.611-4.554-3.824-6.431-5.806
			c0,0-1.825-1.918-5.154-3.993c-1.996-1.245-6.27-3.287-13.683-2.529c-0.306,2.415-0.662,8.041,2.482,13.739
			c1.247,2.259,2.723,3.95,3.991,5.155c1.982,1.878,5.193,4.177,5.804,6.434c0.262,0.968,0.087,1.836,0.087,1.836
			c-0.141,0.377-0.417,1.042-0.892,1.788c-2.271,3.562-5.937,4.029-6.529,6.719c-0.053,0.242-0.19,0.903,0.05,1.657
			c0.349,1.096,1.263,1.665,1.483,1.802c1.348,0.839,2.788,0.472,4.055,0.388c5.016-0.334,8.918,3.669,9.112,3.874
			c0.636,0.671,1.973,2.12,2.421,4.447c0.418,2.172-0.16,3.95-0.475,4.743c-0.337,0.784-1.184,2.449-3.015,3.69
			c-1.962,1.329-3.931,1.408-4.855,1.433c-0.282,0.008-5.87,0.08-9.183-3.703c-0.836-0.956-1.595-2.233-3.142-2.593
			c-0.252-0.059-1.302-0.302-2.323,0.226c-0.703,0.363-1.073,0.927-1.206,1.137c-1.481,2.322,0.781,5.245-0.13,9.37
			c-0.191,0.864-0.466,1.53-0.632,1.896c0,0-0.491,0.738-1.36,1.237c-2.026,1.164-5.923,0.52-8.651,0.446
			c0,0-2.646-0.064-6.466,0.824c-2.291,0.533-6.764,2.121-11.468,7.902h62.07c0-2.89,0.289-18.164,12.614-30.509
			C265.281,240.609,280.584,240.315,283.474,240.314z"/>
	</g>
</g>
<g id="c2">
	<g>
		<path fill="#353333" d="M43.177,0.019C28.799,0.023,14.421,0.028,0.043,0.034C0.037,14.418,0.031,28.801,0.026,43.186
			c2.872,0,18.177-0.288,30.531-12.662C42.887,18.174,43.177,2.901,43.177,0.019z"/>
		<path fill="#353333" d="M43.177,283.481c-14.378-0.005-28.756-0.01-43.134-0.015c-0.006-14.385-0.011-28.768-0.017-43.152
			c2.872,0,18.177,0.288,30.531,12.662C42.887,265.326,43.177,280.599,43.177,283.481z"/>
		<path fill="#353333" d="M240.323,0.019c14.378,0.005,28.756,0.01,43.134,0.015c0.006,14.385,0.011,28.768,0.017,43.152
			c-2.872,0-18.177-0.288-30.531-12.662C240.613,18.174,240.323,2.901,240.323,0.019z"/>
		<path fill="#353333" d="M240.323,283.481c14.378-0.005,28.756-0.01,43.134-0.015c0.006-14.385,0.011-28.768,0.017-43.152
			c-2.872,0-18.177,0.288-30.531,12.662C240.613,265.326,240.323,280.599,240.323,283.481z"/>
	</g>
</g>
<g id="c5">
	<path fill="#DEDEDE" d="M147.124,283.5c17.986-134.842,136.34-136.562,136.34-136.562v-10.321c0,0-118.355-1.72-136.34-136.562
		h-10.749C118.39,134.897,0.035,136.617,0.035,136.617v10.321c0,0,118.355,1.72,136.34,136.562H147.124z"/>
	<g>
		<path fill="#353333" d="M136.374,0.028c-4.186-0.003-8.372-0.006-12.557-0.009c-0.02,8.664-1.091,52.206-36.278,87.462
			C52.128,122.961,8.31,123.84,0.026,123.849c0.003,4.247,0.005,8.494,0.008,12.741c9.109-0.009,57.38-0.969,96.386-40.053
			C135.405,57.475,136.365,9.16,136.374,0.028z"/>
		<path fill="#353333" d="M136.374,283.473c-4.186,0.003-8.372,0.006-12.557,0.009c-0.02-8.664-1.091-52.206-36.278-87.462
			C52.128,160.539,8.31,159.66,0.026,159.651c0.003-4.247,0.005-8.494,0.008-12.741c9.109,0.009,57.38,0.969,96.386,40.053
			C135.405,226.025,136.365,274.34,136.374,283.473z"/>
		<path fill="#353333" d="M147.126,0.028c4.186-0.003,8.372-0.006,12.557-0.009c0.02,8.664,1.091,52.206,36.278,87.462
			c35.411,35.481,79.229,36.359,87.513,36.368c-0.003,4.247-0.005,8.494-0.008,12.741c-9.109-0.009-57.38-0.969-96.386-40.053
			C148.095,57.475,147.135,9.16,147.126,0.028z"/>
		<path fill="#353333" d="M147.126,283.473c4.186,0.003,8.372,0.006,12.557,0.009c0.02-8.664,1.091-52.206,36.278-87.462
			c35.411-35.481,79.229-36.359,87.513-36.368c-0.003-4.247-0.005-8.494-0.008-12.741c-9.109,0.009-57.38,0.969-96.386,40.053
			C148.095,226.025,147.135,274.34,147.126,283.473z"/>
	</g>
</g>
<g id="c3">
	<g>
		<path fill="#6A6967" d="M123.817,0.019c-4.165-0.003-8.325,0.003-12.49,0c-0.008,7.529-0.859,47.582-33.344,79.472
			C46.415,110.48,7.808,111.336,0.018,111.34c0.003,4.18,0.005,8.36,0.008,12.54c8.27-0.008,52.096-0.879,87.511-36.325
			C122.932,52.128,123.809,8.301,123.817,0.019z"/>
		<path fill="#6A6967" d="M123.817,283.481c-4.165,0.003-8.325-0.003-12.49,0c-0.008-7.529-0.859-47.582-33.344-79.472
			C46.415,173.02,7.808,172.164,0.018,172.16c0.003-4.18,0.005-8.36,0.008-12.54c8.27,0.008,52.096,0.879,87.511,36.325
			C122.932,231.372,123.809,275.199,123.817,283.481z"/>
		<path fill="#6A6967" d="M159.683,0.019c4.165-0.003,8.325,0.003,12.49,0c0.008,7.529,0.859,47.582,33.344,79.472
			c31.568,30.989,70.175,31.845,77.965,31.849c-0.003,4.18-0.005,8.36-0.008,12.54c-8.27-0.008-52.096-0.879-87.511-36.325
			C160.568,52.128,159.691,8.301,159.683,0.019z"/>
		<path fill="#6A6967" d="M159.683,283.481c4.165,0.003,8.325-0.003,12.49,0c0.008-7.529,0.859-47.582,33.344-79.472
			c31.568-30.989,70.175-31.845,77.965-31.849c-0.003-4.18-0.005-8.36-0.008-12.54c-8.27,0.008-52.096,0.879-87.511,36.325
			C160.568,231.372,159.691,275.199,159.683,283.481z"/>
	</g>
</g>
<g id="c6">
	<path fill="#6A6967" d="M159.022,86.999c-5.001,3.225-7.535,4.875-9.18,6.667c-0.997,1.086-1.919,2.108-2.585,3.76
		c-0.707,1.754-0.75,3.28-0.749,4.581c0.002,2.461,0.064,3.956,0.172,5.207c0.245,2.836,0.433,2.867,0.515,4.299
		c0.046,0.786,0.388,8.134-3.41,10.069c-0.725,0.369-1.45,0.465-2.023,0.471c-0.008,0-0.015,0-0.023,0
		c-0.573-0.006-1.298-0.101-2.023-0.471c-3.799-1.934-3.456-9.282-3.411-10.069c0.083-1.432,0.271-1.463,0.516-4.299
		c0.108-1.251,0.17-2.746,0.171-5.207c0.001-1.301-0.041-2.827-0.749-4.581c-0.666-1.652-1.588-2.674-2.585-3.76
		c-1.645-1.792-4.179-3.442-9.18-6.667c-0.085-0.055-0.637-0.383-1.743-1.04c-1.701-1.012-2.232-1.361-3.049-1.428
		c-0.667-0.054-1.222,0.098-1.563,0.221c-0.002,0.005-0.004,0.01-0.004,0.01c-0.33,0.159-0.831,0.443-1.263,0.954
		c-0.53,0.625-0.659,1.247-1.147,3.165c-0.317,1.246-0.475,1.869-0.496,1.968c-1.256,5.816-1.88,8.773-1.777,11.204
		c0.064,1.473,0.135,2.847,0.832,4.486c0.74,1.739,1.789,2.849,2.711,3.768c1.742,1.739,2.843,2.752,3.804,3.561
		c2.178,1.832,2.334,1.721,3.405,2.674c0.588,0.524,6.028,5.477,4.71,9.531c-0.252,0.774-0.698,1.354-1.098,1.763
		c-0.409,0.4-0.99,0.846-1.764,1.097c-4.055,1.318-9.009-4.121-9.534-4.709c-0.954-1.071-0.843-1.226-2.675-3.404
		c-0.809-0.961-1.822-2.062-3.561-3.803c-0.92-0.921-2.029-1.97-3.769-2.71c-1.64-0.697-3.014-0.768-4.488-0.831
		c-2.431-0.104-5.389,0.52-11.206,1.776c-0.099,0.021-0.722,0.18-1.968,0.496c-1.919,0.488-2.541,0.617-3.166,1.146
		c-0.511,0.433-0.795,0.933-0.949,1.261c-0.005,0.002-0.01,0.004-0.015,0.006c-0.123,0.341-0.276,0.896-0.221,1.563
		c0.067,0.817,0.416,1.348,1.428,3.049c0.657,1.105,0.986,1.657,1.041,1.742c3.225,5,4.876,7.533,6.668,9.178
		c1.087,0.998,2.109,1.918,3.761,2.584c1.754,0.707,3.281,0.749,4.582,0.749c2.462-0.002,3.956-0.064,5.208-0.171
		c2.836-0.245,2.867-0.433,4.299-0.516c0.787-0.045,8.137-0.389,10.071,3.41c0.365,0.716,0.461,1.431,0.47,2
		c-0.009,0.569-0.105,1.284-0.47,2c-1.935,3.798-9.285,3.455-10.071,3.409c-1.432-0.082-1.463-0.27-4.299-0.515
		c-1.252-0.108-2.746-0.17-5.208-0.172c-1.302-0.001-2.828,0.041-4.582,0.749c-1.653,0.666-2.674,1.587-3.761,2.585
		c-1.792,1.645-3.443,4.178-6.668,9.178c-0.055,0.085-0.384,0.637-1.041,1.742c-1.012,1.701-1.361,2.232-1.428,3.049
		c-0.055,0.667,0.098,1.221,0.221,1.563c0.005,0.002,0.01,0.004,0.015,0.006c0.154,0.329,0.438,0.829,0.949,1.261
		c0.625,0.53,1.247,0.659,3.166,1.146c1.246,0.317,1.87,0.475,1.968,0.496c5.817,1.256,8.775,1.88,11.206,1.776
		c1.474-0.063,2.848-0.135,4.488-0.832c1.74-0.74,2.85-1.789,3.769-2.71c1.74-1.741,2.753-2.842,3.561-3.803
		c1.832-2.178,1.721-2.334,2.675-3.404c0.524-0.588,5.479-6.026,9.534-4.709c0.774,0.252,1.354,0.697,1.764,1.097
		c0.4,0.409,0.846,0.989,1.098,1.763c1.318,4.053-4.122,9.007-4.71,9.531c-1.071,0.954-1.226,0.843-3.405,2.675
		c-0.962,0.809-2.063,1.821-3.804,3.56c-0.922,0.92-1.971,2.029-2.711,3.769c-0.697,1.639-0.768,3.013-0.832,4.486
		c-0.104,2.43,0.52,5.388,1.777,11.204c0.021,0.099,0.18,0.722,0.496,1.968c0.487,1.918,0.616,2.54,1.147,3.165
		c0.432,0.51,0.933,0.795,1.261,0.949l0.006,0.015c0.341,0.124,0.896,0.276,1.563,0.221c0.817-0.067,1.348-0.416,3.049-1.427
		c1.106-0.657,1.658-0.986,1.743-1.041c5.001-3.224,7.535-4.875,9.18-6.666c0.997-1.087,1.919-2.109,2.585-3.76
		c0.707-1.753,0.75-3.279,0.749-4.581c-0.002-2.461-0.063-3.956-0.171-5.207c-0.245-2.835-0.433-2.867-0.516-4.298
		c-0.045-0.786-0.388-8.134,3.411-10.069c0.725-0.369,1.45-0.465,2.023-0.471c0.008,0,0.015,0,0.023,0
		c0.572,0.007,1.298,0.102,2.023,0.471c3.798,1.934,3.456,9.282,3.41,10.069c-0.082,1.432-0.271,1.463-0.515,4.298
		c-0.108,1.251-0.17,2.746-0.172,5.207c-0.001,1.302,0.041,2.828,0.749,4.581c0.666,1.652,1.588,2.674,2.585,3.76
		c1.646,1.792,4.179,3.442,9.18,6.666c0.085,0.055,0.637,0.383,1.742,1.041c1.702,1.012,2.233,1.361,3.05,1.427
		c0.667,0.055,1.222-0.097,1.563-0.221l0.005-0.015c0.329-0.154,0.829-0.439,1.262-0.949c0.53-0.625,0.659-1.247,1.147-3.165
		c0.317-1.246,0.475-1.869,0.496-1.968c1.256-5.815,1.88-8.774,1.777-11.204c-0.063-1.474-0.135-2.847-0.832-4.486
		c-0.74-1.74-1.79-2.849-2.71-3.769c-1.742-1.739-2.843-2.752-3.804-3.56c-2.179-1.832-2.334-1.721-3.405-2.675
		c-0.588-0.524-6.028-5.477-4.71-9.531c0.251-0.774,0.697-1.354,1.097-1.763c0.409-0.401,0.99-0.846,1.764-1.097
		c4.055-1.317,9.009,4.121,9.533,4.709c0.954,1.07,0.843,1.226,2.675,3.404c0.808,0.961,1.821,2.062,3.561,3.803
		c0.92,0.921,2.029,1.97,3.77,2.71c1.639,0.697,3.014,0.768,4.487,0.832c2.431,0.104,5.39-0.52,11.207-1.776
		c0.099-0.021,0.722-0.18,1.968-0.496c1.919-0.488,2.541-0.616,3.166-1.146c0.51-0.432,0.795-0.932,0.949-1.261
		c0.005-0.002,0.01-0.004,0.015-0.006c0.124-0.341,0.276-0.896,0.221-1.563c-0.067-0.817-0.416-1.348-1.428-3.049
		c-0.657-1.105-0.986-1.658-1.041-1.742c-3.225-5-4.876-7.533-6.668-9.178c-1.087-0.997-2.109-1.918-3.761-2.585
		c-1.754-0.707-3.28-0.749-4.582-0.749c-2.462,0.002-3.956,0.064-5.208,0.172c-2.836,0.245-2.867,0.433-4.299,0.515
		c-0.786,0.046-8.136,0.389-10.071-3.409c-0.365-0.716-0.462-1.431-0.47-2c0.009-0.569,0.105-1.284,0.47-2
		c1.935-3.798,9.285-3.455,10.071-3.41c1.432,0.082,1.464,0.271,4.299,0.516c1.252,0.108,2.747,0.17,5.208,0.171
		c1.301,0.001,2.828-0.041,4.582-0.749c1.652-0.666,2.675-1.587,3.761-2.584c1.792-1.645,3.443-4.178,6.668-9.178
		c0.055-0.085,0.384-0.637,1.041-1.742c1.012-1.701,1.361-2.232,1.428-3.049c0,0-0.081-0.522-0.236-1.568
		c-0.154-0.329-0.439-0.829-0.949-1.261c-0.625-0.53-1.248-0.659-3.166-1.146c-1.246-0.316-1.869-0.475-1.968-0.496
		c-5.817-1.255-8.775-1.88-11.207-1.776c-1.473,0.063-2.848,0.134-4.487,0.831c-1.741,0.74-2.85,1.789-3.77,2.71
		c-1.74,1.742-2.753,2.842-3.561,3.803c-1.832,2.178-1.721,2.333-2.675,3.404c-0.524,0.588-5.479,6.027-9.533,4.709
		c-0.774-0.251-1.354-0.697-1.763-1.097c-0.4-0.409-0.846-0.989-1.098-1.763c-1.318-4.054,4.122-9.007,4.71-9.531
		c1.071-0.953,1.226-0.843,3.405-2.674c0.961-0.809,2.062-1.822,3.804-3.561c0.921-0.92,1.97-2.029,2.71-3.768
		c0.697-1.639,0.769-3.013,0.832-4.486c0.104-2.43-0.521-5.388-1.777-11.204c-0.021-0.099-0.18-0.722-0.496-1.968
		c-0.487-1.918-0.617-2.541-1.147-3.165c-0.433-0.51-0.933-0.795-1.262-0.949c0,0-0.004-0.01-0.005-0.015
		c-0.341-0.123-0.896-0.275-1.563-0.221c-0.817,0.067-1.348,0.416-3.05,1.428C159.659,86.616,159.107,86.945,159.022,86.999z
		 M152.614,141.744c0,6.002-4.867,10.867-10.87,10.867c-6.003,0-10.87-4.865-10.87-10.867c0-6.002,4.867-10.867,10.87-10.867
		C147.747,130.877,152.614,135.743,152.614,141.744z"/>
</g>
<g id="c7">
	<ellipse fill="#DEDEDE" cx="141.744" cy="141.75" rx="10.87" ry="10.867"/>
</g>
</svg>
