<?xml version="1.0" encoding="utf-8"?>
<!-- Generator: Adobe Illustrator 22.0.0, SVG Export Plug-In . SVG Version: 6.00 Build 0)  -->
<svg version="1.1" xmlns="http://www.w3.org/2000/svg" xmlns:xlink="http://www.w3.org/1999/xlink" x="0px" y="0px"
	 viewBox="0 0 283.5 283.5" enable-background="new 0 0 283.5 283.5" xml:space="preserve">
<g id="c1">
	<path fill="#9D9FA2" d="M141.75,283.482V141.75c-8.564,0-17.128,0-25.692,0l0,0c-0.043,13.331-1.759,35.007-11.541,59.482
		c-10.063,25.178-24.294,42.392-33.633,52.098c-9.339-9.706-23.57-26.92-33.633-52.098c-9.782-24.475-11.498-46.151-11.541-59.482
		H0.018v141.732H141.75z"/>
</g>
<g id="c3">
	<path fill="#DEDEDE" d="M25.71,141.75c0.043,13.331,1.759,35.007,11.541,59.482c10.063,25.178,24.294,42.392,33.633,52.098
		c9.339-9.706,23.57-26.92,33.633-52.098c9.782-24.475,11.498-46.151,11.541-59.482C101.052,141.75,40.715,141.75,25.71,141.75z"/>
</g>
<g id="c4">
	<path fill="#DEDEDE" d="M283.482,283.482V141.75c-8.564,0-17.128,0-25.692,0l0,0c-0.043,13.331-1.759,35.007-11.541,59.482
		c-10.063,25.178-24.294,42.392-33.633,52.098c-9.339-9.706-23.57-26.92-33.633-52.098c-9.782-24.475-11.498-46.151-11.541-59.482
		H141.75v141.732H283.482z"/>
</g>
<g id="c5">
	<path fill="#9D9FA2" d="M167.443,141.75c0.043,13.331,1.759,35.007,11.541,59.482c10.063,25.178,24.294,42.392,33.633,52.098
		c9.339-9.706,23.57-26.92,33.633-52.098c9.782-24.475,11.498-46.151,11.541-59.482C242.785,141.75,182.448,141.75,167.443,141.75z"
		/>
</g>
<g id="c6">
	<path fill="#9D9FA2" d="M141.75,0.018V141.75c8.564,0,17.128,0,25.692,0l0,0c0.043-13.331,1.759-35.007,11.541-59.482
		c10.063-25.178,24.294-42.392,33.633-52.098c9.339,9.706,23.57,26.92,33.633,52.098c9.782,24.475,11.498,46.151,11.541,59.482
		h25.693V0.018H141.75z"/>
</g>
<g id="c7">
	<path fill="#DEDEDE" d="M257.79,141.732c-0.043-13.331-1.759-35.007-11.541-59.482c-10.063-25.178-24.294-42.392-33.633-52.098
		c-9.339,9.706-23.57,26.92-33.633,52.098c-9.782,24.475-11.498,46.151-11.541,59.482
		C182.448,141.732,242.785,141.732,257.79,141.732z"/>
</g>
<g id="c8">
	<path fill="#DEDEDE" d="M0.018,0.018V141.75c8.564,0,17.128,0,25.692,0l0,0c0.043-13.331,1.759-35.007,11.541-59.482
		C47.313,57.09,61.545,39.876,70.884,30.17c9.339,9.706,23.57,26.92,33.633,52.098c9.782,24.475,11.498,46.151,11.541,59.482h25.693
		V0.018H0.018z"/>
</g>
<g id="c9">
	<path fill="#9D9FA2" d="M116.057,141.75c-0.043-13.331-1.759-35.007-11.541-59.482C94.454,57.09,80.223,39.876,70.884,30.17
		c-9.339,9.706-23.57,26.92-33.633,52.098c-9.782,24.475-11.498,46.151-11.541,59.482C40.715,141.75,101.052,141.75,116.057,141.75z
		"/>
</g>
</svg>
