<?xml version="1.0" encoding="utf-8"?>
<!-- Generator: Adobe Illustrator 22.0.0, SVG Export Plug-In . SVG Version: 6.00 Build 0)  -->
<svg version="1.1" xmlns="http://www.w3.org/2000/svg" xmlns:xlink="http://www.w3.org/1999/xlink" x="0px" y="0px"
	 viewBox="0 0 283.5 283.5" enable-background="new 0 0 283.5 283.5" xml:space="preserve">
<g id="c17">
	<rect y="0" fill="#DEDEDE" width="283.576" height="283.576"/>
</g>
<g id="c18">
	<path fill="#DEDEDE" d="M0.026,36.02c19.677-0.786,35.536-16.416,36.683-35.999l-36.683,0L0.026,36.02l0-0.293L0.026,36.02z"/>
</g>
<g id="c15">
	<path fill="#6A6967" d="M0.026,36.02l0,247.459h8.505L8.535,51.045c21.441-4.653,38.419-21.275,43.588-42.52l231.351,0V0.021
		l-246.765,0C35.562,19.604,19.704,35.235,0.026,36.02z"/>
</g>
<g id="c14">
	<g>
		<path fill="#353333" d="M59.467,14.482c-1.913-0.054-4.805,3.604-1.501,7.507c3.303,3.904,17.567,13.513,26.425,31.231
			c0,0,3.453,7.808,22.821,6.907c19.368-0.901,24.623-3.604,24.623-3.604s-8.858-7.761-20.419-20.472S87.431,15.27,59.467,14.482z"
			/>
		<path fill="#353333" d="M94.148,17.184c9.575,7.079,17.868,7.207,37.687,29.129c0,0,18.918,16.216,34.608,10.06
			c0,0-16.132-15.228-23.047-26.126c-5.18-8.164-22.296-14.602-27.476-14.752c-5.783-0.168-23.141,0-23.141,0
			S93.711,16.861,94.148,17.184z"/>
		<path fill="#353333" d="M134.5,16.734c0,0,14.226,6.456,27.363,24.549c3.361,4.629,16.741,11.411,28.715,5.405l3.322-2.027
			c0,0-18.599-20.72-21.827-22.222c0,0-9.159-6.231-19.068-7.582S134.838,15.232,134.5,16.734z"/>
		<path fill="#353333" d="M167.719,14.369c0,0,41.552-3.941,61.483,17.342c0,0-20.194,6.344-32.881,0
			C179.495,23.298,167.719,14.369,167.719,14.369z"/>
		<path fill="#353333" d="M210.959,14.369c0.16-1.375,52.7-0.288,68.239,15.428c0.904,0.914-8.445,2.027-18.355,1.914
			c0,0-7.657,2.581-11.486,0.338C227.325,19.136,210.819,15.58,210.959,14.369z"/>
	</g>
	<g>
		<path fill="#353333" d="M14.221,59.499c-0.055-1.935,3.645-4.86,7.594-1.519s13.67,17.771,31.592,26.733
			c0,0,7.898,3.493,6.987,23.087s-3.645,24.91-3.645,24.91s-7.851-8.961-20.709-20.657S15.019,87.788,14.221,59.499z"/>
		<path fill="#353333" d="M16.955,94.584c7.161,9.687,7.29,18.076,29.465,38.126c0,0,16.403,19.138,10.176,35.01
			c0,0-15.404-16.32-26.428-23.315c-8.259-5.24-14.771-22.556-14.923-27.796c-0.17-5.85,0-23.41,0-23.41
			S16.628,94.141,16.955,94.584z"/>
		<path fill="#353333" d="M16.739,134.5c0,0,6.456,14.226,24.548,27.364c4.629,3.361,11.411,16.741,5.405,28.716l-2.027,3.322
			c0,0-20.72-18.599-22.221-21.828c0,0-6.231-9.159-7.582-19.069S15.237,134.837,16.739,134.5z"/>
		<path fill="#353333" d="M14.374,167.72c0,0-3.941,41.553,17.342,61.485c0,0,6.343-20.195,0-32.882
			C23.303,179.497,14.374,167.72,14.374,167.72z"/>
		<path fill="#353333" d="M14.374,210.962c-1.375,0.16-0.288,52.702,15.427,68.242c0.914,0.904,2.027-8.446,1.914-18.355
			c0,0,2.581-7.658,0.338-11.486C19.141,227.328,15.584,210.821,14.374,210.962z"/>
	</g>
</g>
<g id="c11">
	<path fill="#FFFFFF" stroke="#000000" stroke-width="3.3333" stroke-miterlimit="10" d="M120.416,283.476"/>
	<path fill="#FFFFFF" stroke="#000000" stroke-width="3.3333" stroke-miterlimit="10" d="M120.434,283.494"/>
	<path fill="#FFFFFF" stroke="#000000" stroke-width="3.3333" stroke-miterlimit="10" d="M120.416,283.479"/>
	<path fill="#FFFFFF" stroke="#000000" stroke-width="3.3333" stroke-miterlimit="10" d="M120.416,283.479"/>
	<path fill="#9D9FA2" d="M199.254,62.46c0,0,12.306,0.82,16.059-11.943c0,0,0.15-3.528-1.652-6.832
		c-1.802-3.303,2.627-5.48,5.78-5.856c3.153-0.375,15.84,0.15,12.011,10.736c0,0-6.456,12.612-9.984,15.465
		c0,0-0.375,1.727,1.652,0.375c2.027-1.351,10.81-5.18,17.792-20.345c0,0,4.88-4.805,10.885,1.051s-2.027,11.411-2.027,11.411
		s-9.684,9.309-22.596,14.114c0,0-3.641,2.44-2.89,3.979c0.751,1.539,5.893,0.488,5.893,0.488s11.636-5.067,19.593-11.148
		c7.958-6.081,15.84-7.132,21.62-3.679c0,0,5.405,8.859-10.36,13.889c-15.765,5.03-24.773,5.48-31.004,6.156
		s-4.88,3.641-0.094,3.697s40.857-2.909,44.31,11.148c0,0,1.126,7.451-10.96,6.625c0,0-4.054,0.676-20.269-8.483
		c0,0-14.113-6.156-18.017-3.078c0,0-2.609,2.684,12.706,7.019s19.087,13.344,19.087,13.344s2.308,6.757-6.587,9.065
		c0,0-5.349,2.027-9.515-7.263c0,0-17.771-15.77-16.778-11.599c0.282,1.182,12.612,10.529,11.43,19.932
		c-1.182,9.403-12.893,6.025-12.893,6.025s-2.646-0.957-2.815-8.164c-0.169-7.207-6.531-14.977-7.714-15.315
		c-1.182-0.338-6.644-3.266-9.909-2.083c-3.266,1.182-13.344-3.904-9.665-10.135c3.678-6.231,0-17.492,0-17.492
		s-6.381,0.3-3.303-2.102S199.254,62.46,199.254,62.46z"/>
	<path fill="#9D9FA2" d="M101.844,200.514c0,0-4.016,15.615,17.004,18.543c0,0,13.438-0.375,7.732,11.336
		c-5.705,11.711-18.317-0.995-18.317-0.995l-5.856-5.462c0,0-2.14-1.577-0.45,2.027c1.689,3.604,5.228,10.811,12.692,15.709
		s6.038,8.765,2.678,13.006c-3.359,4.242-7.789,1.239-7.789,1.239s-6.306-4.129-10.285-14.114s-3.979-14.414-7.207-16.741
		c-3.228-2.327-1.971,6.25-1.971,6.25s2.196,10.304,11.317,27.646c0,0,3.04,12.838-4.729,14.977S85.516,257.72,85.516,257.72
		s-1.689-12.838-1.351-29.166c0,0-1.013-6.644-2.928-0.732c-1.914,5.912-2.59,44.988-19.03,44.312c0,0-10.81-5.856,5.518-27.927
		c0,0,9.384-13.889,7.207-20.42c0,0-4.617,0.488-11.373,17.042c0,0-10.923,18.806-18.693,10.36c0,0-6.193-7.432,1.013-11.599
		s17.454-10.923,19.143-18.018c0,0,0.525-1.614-8.483,5.293c-9.008,6.907-12.687,5.48-15.615,3.003
		c-2.928-2.477-6.756-18.168,5.48-15.916c12.237,2.252,14.939-7.808,14.939-7.808s1.877-8.258,1.802-9.309
		c-0.075-1.051,4.129-9.534,9.534-8.633c5.405,0.901,24.023,1.952,24.023,1.952S102.332,192.106,101.844,200.514z"/>
	<path fill="#FFFFFF" stroke="#000000" stroke-width="3.3333" stroke-miterlimit="10" d="M120.424,283.479"/>
</g>
<g id="c13">
	<path fill="#6A6967" d="M36.358,41.905l6.982-6.907c0,0,36.559,42.116,69.891,47.822c33.331,5.706,41.664-6.606,41.664-6.606
		v-9.384l6.831,0.038c0,0,3.979,15.503,14.338,12.575c0,0-0.826-7.958,2.027-10.886c2.853-2.928,15.239-7.132,18.993-18.693
		c0,0,1.164-2.158,2.965,1.107c1.802,3.266,2.515,11.505-9.872,20.214c0,0-1.276,2.102,2.477,1.126
		c3.754-0.976,8.783-5.18,12.762-5.48s7.732,0.526,8.708,1.577c0.976,1.051-0.601,6.606-6.681,8.784s-12.987,3.604-12.987,6.006
		s6.381,0.826,6.381,0.826s13.513-2.628,17.642,5.405c0,0-2.778,7.357-16.516,4.354c0,0-7.807-3.604-9.309-0.901
		c0,0-1.351,2.29,7.132,5.668c8.483,3.378,8.089,9.178,8.089,9.178s0.394,6.644-2.871,7.601c0,0-5.124-11.43-14.414-12.443
		s-12.499-2.646-13.513-6.25c-1.013-3.604-1.126-6.813-1.126-6.813s-8.333-0.394-10.078,16.103h-6.419
		c0,0,0.094-10.867-9.065-11.167c-9.159-0.3-41.965,0.751-51.874-4.73c0,0,8.558,11.486,18.618,16.741c0,0,5.217,2.421,9.271-0.957
		c4.054-3.378,4.054-3.378,4.054-3.378l4.448,4.279c0,0-8.277,11.205-0.845,20.439l-6.25,6.194c0,0-8.333-7.151-20.325,1.126
		l-4.898-4.617c0,0,10.191-6.869,3.284-15.503c-6.907-8.633-14.263-15.972-14.263-15.972s5.18,17.624,4.955,28.772
		s-0.676,23.16-0.676,23.16s1.576,7.582,9.534,7.582h1.952l-0.15,6.982c0,0-13.288-0.375-16.14,10.285
		c0,0,12.462-1.501,12.161,10.51c-0.3,12.012,11.186,17.492,12.912,17.567s-1.426,4.204-7.732,3.303S96.79,195.28,96.415,192.803
		c-0.375-2.477-3.266-2.271-3.416,0.075c-0.15,2.346,1.426,8.258,2.44,10.229c1.013,1.971-0.788,12.443-4.729,14.527
		c0,0-6.982-1.408-5.687-18.243c0,0,0.882-5.762-0.619-5.95s-3.266,4.917-3.266,4.917s-3.66,14.658-10.416,14.714
		c0,0-6.587-2.027-0.732-14.527c5.856-12.5,1.745-9.009,1.745-9.009s-5.949,9.384-14.207,10.435s-6.531-3.604-6.531-3.604
		s9.384-4.092,13.513-11.374c4.129-7.282,4.805-9.835,9.159-10.06c4.354-0.225,7.432,0,7.432,0v-4.054
		c0,0-4.955-9.459-12.762-10.736l0.3-6.025c0,0,9.534,1.896,12.837-4.636c3.303-6.531,3.453-12.687,3.453-12.687
		s2.778-13.889-1.727-28.153c-4.504-14.264-14.414-31.981-24.473-43.543S36.358,41.905,36.358,41.905z"/>
</g>
<g id="c9">
	<path fill="#FFFFFF" stroke="#000000" stroke-width="3.3333" stroke-miterlimit="10" d="M120.416,283.479"/>
	<path fill="#FFFFFF" stroke="#000000" stroke-width="3.3333" stroke-miterlimit="10" d="M120.434,283.497"/>
	<path fill="#9D9FA2" d="M134.454,133.701c0,0-7.282,5.706,1.051,12.687c8.333,6.982,15.164,10.06,17.717,14.114
		c0,0,0.976,2.571-2.233,1.107c-3.209-1.464-20.776-13.57-25.167-12.275c-4.392,1.295-5.687,5.687-5.687,5.687
		s-2.308,7.263,5.067,9.91c7.376,2.646,18.411,4.167,21.733,6.25c3.322,2.083,1.239,2.421,0.056,2.309s-25.787-2.477-25.787-2.477
		s-5.912,1.013-5.405,9.178c0.507,8.164,10.078,6.475,10.078,6.475l20.382-2.421c0,0,2.14-0.45,2.196,0.957
		s-1.858,1.609-1.858,1.609l-21.902,6.049c0,0-8.727,3.153-3.66,11.824s16.666-0.901,16.666-0.901s13.529-8.953,15.66-7.601
		c2.131,1.351-8.454,8.446-8.454,8.446s-18.524,10.754-11.598,18.581c6.925,7.826,12.837,0.282,12.837,0.282l13.306-16.967
		c0,0,1.201-1.764,1.989-1.051c0.788,0.713,0.188,1.952,0.188,1.952l-11.035,20.007c0,0-4.054,9.234,5.518,11.261
		c9.572,2.027,11.673-14.827,11.673-14.827s3.528-14.789,5.405-15.015s-1.727,27.627-1.727,27.627s0.3,7.808,9.084,6.606
		c8.783-1.201,6.381-9.835,6.381-9.835l-2.327-21.546c0,0-0.225-2.477,0.525-2.477c0.751,0,1.426,0.375,2.102,2.628
		c0.676,2.252,6.456,23.348,6.456,23.348s3.603,6.832,11.11,2.177s1.727-11.937,1.727-11.937l-9.909-17.342
		c0,0-1.426-1.952-0.45-2.928c0.976-0.976,2.853,0.826,3.678,1.952c0.826,1.126,14.414,18.168,14.414,18.168
		s5.78,4.429,10.585-1.126s1.089-11.43-4.823-15.09s-14.582-11.148-14.582-11.148s-0.788-0.957-0.282-1.802
		c0.507-0.845,3.941,1.239,3.941,1.239l17.948,10.51c0,0,7.163,3.848,10.935-3.585c3.772-7.432-4.279-10.698-4.279-10.698
		l-23.704-7.263c0,0-1.576-1.858,0.507-1.914c2.083-0.056,24.773,3.191,26.875,2.59c2.102-0.601,5.255-2.553,5.856-8.183
		c0.601-5.631-6.043-7.47-6.043-7.47s-20.494,2.14-27.194,2.59c0,0-0.957-1.914,3.209-2.984s22.972-6.55,22.972-6.55
		s4.204-1.877,2.477-9.459c-1.727-7.582-9.984-4.655-9.984-4.655l-20.607,11.599c0,0-5.48,1.539-1.914-2.177
		s19.669-14.827,20.494-17.079c0.826-2.252,0.075-6.456-2.027-8.558c-2.102-2.102-5.03-3.679-9.309-1.802
		c0,0-8.783,9.004-16.215,20.08c0,0-4.016,3.4-2.44-1.443c1.576-4.842,12.049-20.664,12.049-20.664s2.928-7.601-5.349-10.529
		c-8.277-2.928-10.303,6.475-10.303,6.475l-6.419,21.677c0,0-1.914,2.365-1.858-1.126s3.322-22.015,2.534-26.182
		c-0.788-4.167-8.07-5.255-8.07-5.255s-6.869-1.089-7.882,8.558c0,0,2.965,15.39,2.74,22.747c0,0-0.188,3.904-1.989,0.601
		c-1.802-3.303-7.319-24.924-7.319-24.924s-3.153-5.33-11.561-1.652c0,0-5.48,4.204-1.652,10.736
		c3.829,6.531,10.979,20.12,10.979,20.12s0.882,3.604-2.797,0.375c-3.678-3.228-12.75-19.744-18.011-20.195
		C136.481,131.224,134.454,133.701,134.454,133.701z"/>
	<path fill="#FFFFFF" stroke="#000000" stroke-width="3.3333" stroke-miterlimit="10" d="M120.416,283.482"/>
	<path fill="#FFFFFF" stroke="#000000" stroke-width="3.3333" stroke-miterlimit="10" d="M120.416,283.482"/>
	<path fill="#FFFFFF" stroke="#000000" stroke-width="3.3333" stroke-miterlimit="10" d="M120.424,283.482"/>
</g>
<g id="c10">
	<path fill="#FFFFFF" stroke="#000000" stroke-width="3.3333" stroke-miterlimit="10" d="M120.416,283.476"/>
	<path fill="#FFFFFF" stroke="#000000" stroke-width="3.3333" stroke-miterlimit="10" d="M120.434,283.494"/>
	<path fill="#FFFFFF" stroke="#000000" stroke-width="3.3333" stroke-miterlimit="10" d="M120.416,283.479"/>
	<path fill="#353333" d="M181.103,152.352c0,0-7.172,6.834-21.373,7.732c0,0,1.421,11.996-7.281,21.532
		c0,0,10.391,6.849,12.294,19.118c0,0,13.186-2.303,22.612,2.307c0,0,5.945-10.635,15.902-16.241c0,0-5.002-12.469-2.782-22.559
		C200.475,164.242,187.501,161.157,181.103,152.352z"/>
	<path fill="#FFFFFF" stroke="#000000" stroke-width="3.3333" stroke-miterlimit="10" d="M120.416,283.479"/>
	<path fill="#FFFFFF" stroke="#000000" stroke-width="3.3333" stroke-miterlimit="10" d="M120.424,283.479"/>
</g>
<g id="c12">
	<path fill="#6A6967" d="M173.914,163.932c0,0-2.17,5.567-9.699,9.688c0,0,3.843,6.189,1.527,13.623c0,0,7.427,1.084,11.603,7.3
		c0,0,6.614-4.629,12.942-4.52c0,0,0.529-7.33,4.535-12.937c0,0-5.92-5.532-7.287-11.612
		C187.536,165.474,179.66,167.106,173.914,163.932z"/>
</g>
<g id="c8">
	<path fill="#FFFFFF" stroke="#000000" stroke-width="3.3333" stroke-miterlimit="10" d="M120.416,283.479"/>
	<path fill="#353333" d="M283.466,121.086c0.522,4.88-11.37,14.086-15.17,19.069c-5.28,6.922,4.814,23.761,6.728,28.547
		c1.914,4.786-0.338,4.448-0.338,4.448c-13.963-12.781-24.21-8.446-24.21-8.446s6.419,2.778,4.767,22.597
		c-1.652,19.819-29.766,46.658-29.766,46.658s-19.781,17.304-36.447,20.382s-23.197-4.279-23.197-4.279
		c-4.354,11.261,5.18,20.345,7.207,23.048c2.027,2.703-0.45,2.477-0.45,2.477s-2.627-0.901-16.44-7.207
		c-13.813-6.306-19.518,2.327-23.197,6.381c-3.678,4.054-11.636,8.718-11.636,8.718h162.149V121.086z"/>
	<path fill="#FFFFFF" stroke="#000000" stroke-width="3.3333" stroke-miterlimit="10" d="M120.434,283.497"/>
	<path fill="#FFFFFF" stroke="#000000" stroke-width="3.3333" stroke-miterlimit="10" d="M120.416,283.482"/>
	<path fill="#FFFFFF" stroke="#000000" stroke-width="3.3333" stroke-miterlimit="10" d="M120.416,283.482"/>
	<path fill="#FFFFFF" stroke="#000000" stroke-width="3.3333" stroke-miterlimit="10" d="M120.424,283.482"/>
</g>
<g id="c7">
	<path fill="#FFFFFF" stroke="#000000" stroke-width="3.3333" stroke-miterlimit="10" d="M120.416,283.482"/>
	<path fill="#FFFFFF" stroke="#000000" stroke-width="3.3333" stroke-miterlimit="10" d="M120.434,283.5"/>
	<path fill="#6A6967" d="M275.364,202.637c-14.258,32.213-40.251,58.096-72.573,72.254l0.001,0.002v8.608h-11.621v-14.584
		c36.947-11.863,66.172-40.962,78.211-77.832h14.102v11.553L275.364,202.637z"/>
	<path fill="#FFFFFF" stroke="#000000" stroke-width="3.3333" stroke-miterlimit="10" d="M120.416,283.485"/>
	<path fill="#FFFFFF" stroke="#000000" stroke-width="3.3333" stroke-miterlimit="10" d="M120.416,283.485"/>
	<path fill="#FFFFFF" stroke="#000000" stroke-width="3.3333" stroke-miterlimit="10" d="M120.424,283.485"/>
</g>
<g id="c5">
	<path fill="#DEDEDE" d="M233.863,283.48l49.611-49.605v-31.256l-8.119,0c-14.258,32.213-40.251,58.096-72.573,72.254l0.001,0.002
		v8.607L233.863,283.48z"/>
</g>
<g id="c6">
	<g>
		<circle fill="#353333" cx="237.344" cy="267.394" r="4.252"/>
		<circle fill="#353333" cx="267.416" cy="237.325" r="4.252"/>
		<path fill="#353333" d="M226.01,283.476c0-4.231-3.43-7.661-7.661-7.661c-4.231,0-7.661,3.43-7.661,7.661H226.01z"/>
		<path fill="#353333" d="M283.5,225.992c-4.232,0-7.662-3.429-7.662-7.66s3.43-7.66,7.662-7.66V225.992z"/>
		<circle fill="#353333" cx="252.74" cy="252.713" r="4.252"/>
	</g>
</g>
<g id="c4">
	<polygon fill="#353333" points="283.5,233.869 233.889,283.474 283.5,283.474 	"/>
</g>
<g id="c3">
	<path fill="#FFFFFF" stroke="#000000" stroke-width="3.3333" stroke-miterlimit="10" d="M120.416,283.476"/>
	<polygon fill="#9D9FA2" points="283.482,243.892 243.794,283.576 283.482,283.576 	"/>
	<path fill="#FFFFFF" stroke="#000000" stroke-width="3.3333" stroke-miterlimit="10" d="M120.434,283.494"/>
	<path fill="#FFFFFF" stroke="#000000" stroke-width="3.3333" stroke-miterlimit="10" d="M120.416,283.479"/>
	<path fill="#FFFFFF" stroke="#000000" stroke-width="3.3333" stroke-miterlimit="10" d="M120.416,283.479"/>
	<path fill="#FFFFFF" stroke="#000000" stroke-width="3.3333" stroke-miterlimit="10" d="M120.424,283.479"/>
</g>
<g id="c2">
	<path fill="#353333" d="M252.74,283.5c1.157-1.324,5.714-9.069,16.374-8.619c3.929,0.166,7.127,1.881,9.52,3.752
		c-1.871-2.393-3.587-5.591-3.753-9.52c-0.451-10.66,7.293-15.218,8.617-16.376l0.002,30.761L252.74,283.5z"/>
	<path fill="#353333" d="M30.76,0c-1.157,1.324-5.714,9.069-16.374,8.618c-3.929-0.166-7.127-1.882-9.52-3.753
		c1.871,2.393,3.586,5.591,3.752,9.521C9.068,25.046,1.324,29.604,0,30.761V0L30.76,0z"/>
</g>
<g id="c1_1_">
</g>
</svg>
