<?xml version="1.0" encoding="utf-8"?>
<!-- Generator: Adobe Illustrator 22.0.0, SVG Export Plug-In . SVG Version: 6.00 Build 0)  -->
<svg version="1.1" xmlns="http://www.w3.org/2000/svg" xmlns:xlink="http://www.w3.org/1999/xlink" x="0px" y="0px"
	 viewBox="0 0 283.5 283.5" enable-background="new 0 0 283.5 283.5" xml:space="preserve">
<g id="c1_1_">
</g>
<g id="c9">
	<rect x="0.019" y="0.001" fill="#DEDEDE" width="283.462" height="283.462"/>
</g>
<g id="c5">
	<g>
		<path fill="#353333" d="M50.711,141.732c3.341,2.398,6.655,5.173,9.864,8.381c7.515,7.513,12.649,15.6,16.153,23.266
			l65.005-31.647l-65.005-31.647c-3.503,7.667-8.638,15.753-16.153,23.266C57.365,136.56,54.052,139.334,50.711,141.732"/>
		<path fill="#353333" d="M141.732,50.711c2.398,3.341,5.173,6.655,8.381,9.864c7.513,7.515,15.6,12.649,23.266,16.153
			l-31.647,65.005l-31.647-65.005c7.667-3.503,15.753-8.638,23.266-16.153C136.56,57.365,139.334,54.052,141.732,50.711"/>
		<path fill="#353333" d="M232.754,141.733c-3.341-2.398-6.655-5.173-9.864-8.381c-7.515-7.513-12.649-15.6-16.153-23.266
			l-65.005,31.647l65.005,31.647c3.503-7.667,8.638-15.753,16.153-23.266C226.099,146.905,229.413,144.13,232.754,141.733"/>
		<path fill="#353333" d="M141.733,232.754c-2.398-3.341-5.173-6.655-8.381-9.864c-7.513-7.515-15.6-12.649-23.266-16.153
			l31.647-65.005l31.647,65.005c-7.667,3.503-15.753,8.638-23.266,16.153C146.905,226.099,144.13,229.413,141.733,232.754"/>
	</g>
</g>
<g id="c6">
	<g>
		<path fill="#6A6967" d="M85.817,85.817c-0.56,4.418-2.241,10.312-4.597,17.048c0,0,40.483,18.817,40.483,18.817
			s-18.933-40.426-18.933-40.426C96.023,83.62,90.241,85.257,85.817,85.817z"/>
		<path fill="#6A6967" d="M197.647,85.817c0.56,4.418,2.241,10.312,4.597,17.048c0,0-40.483,18.817-40.483,18.817
			s18.933-40.426,18.933-40.426C187.442,83.62,193.224,85.257,197.647,85.817z"/>
		<path fill="#6A6967" d="M197.647,197.647c0.56-4.418,2.241-10.312,4.597-17.048c0,0-40.483-18.817-40.483-18.817
			s18.933,40.426,18.933,40.426C187.442,199.845,193.224,198.208,197.647,197.647z"/>
		<path fill="#6A6967" d="M85.817,197.647c-0.56-4.418-2.241-10.312-4.597-17.048c0,0,40.483-18.817,40.483-18.817
			s-18.933,40.426-18.933,40.426C96.023,199.845,90.241,198.208,85.817,197.647z"/>
	</g>
</g>
<g id="c7">
	<circle fill="#9D9FA2" cx="141.732" cy="141.732" r="28.346"/>
</g>
<g id="c8">
	<circle fill="#353333" cx="141.732" cy="141.732" r="17.717"/>
</g>
<g id="c4">
	<g>
		<path fill="#9D9FA2" d="M94.191,26.062C78.37,41.878,77.008,61.075,76.808,65.469c4.374-0.203,23.552-1.575,39.334-17.404
			c15.773-15.82,17.094-34.989,17.285-39.367C129.008,8.912,109.933,10.325,94.191,26.062z"/>
		<path fill="#9D9FA2" d="M26.507,93.746C42.323,77.925,61.52,76.563,65.914,76.363c-0.203,4.374-1.575,23.552-17.404,39.334
			c-15.82,15.773-34.989,17.094-39.367,17.285C9.357,128.563,10.77,109.488,26.507,93.746z"/>
		<path fill="#9D9FA2" d="M190.163,26.062c15.822,15.817,17.183,35.013,17.383,39.408c-4.374-0.203-23.552-1.575-39.334-17.404
			c-15.773-15.82-17.094-34.989-17.285-39.367C155.346,8.912,174.421,10.325,190.163,26.062z"/>
		<path fill="#9D9FA2" d="M257.848,93.746c-15.817-15.822-35.013-17.183-39.408-17.383c0.203,4.374,1.575,23.552,17.404,39.334
			c15.82,15.773,34.989,17.094,39.367,17.285C274.998,128.563,273.585,109.488,257.848,93.746z"/>
		<path fill="#9D9FA2" d="M190.163,257.403c15.822-15.817,17.183-35.013,17.383-39.408c-4.374,0.203-23.552,1.575-39.334,17.404
			c-15.773,15.82-17.094,34.989-17.285,39.367C155.346,274.553,174.421,273.14,190.163,257.403z"/>
		<path fill="#9D9FA2" d="M257.848,189.718c-15.817,15.822-35.013,17.183-39.408,17.383c0.203-4.374,1.575-23.552,17.404-39.334
			c15.82-15.773,34.989-17.094,39.367-17.285C274.998,154.901,273.585,173.976,257.848,189.718z"/>
		<path fill="#9D9FA2" d="M94.191,257.403c-15.822-15.817-17.183-35.013-17.383-39.408c4.374,0.203,23.552,1.575,39.334,17.404
			c15.773,15.82,17.094,34.989,17.285,39.367C129.008,274.553,109.933,273.14,94.191,257.403z"/>
		<path fill="#9D9FA2" d="M26.507,189.718c15.817,15.822,35.013,17.183,39.408,17.383c-0.203-4.374-1.575-23.552-17.404-39.334
			c-15.82-15.773-34.989-17.094-39.367-17.285C9.357,154.901,10.77,173.976,26.507,189.718z"/>
	</g>
</g>
<g id="c3">
	<g>
		<path fill="#6A6967" d="M26.073,47.958c15.795,15.843,34.99,17.231,39.384,17.437c-0.197-4.374-1.543-23.554-17.35-39.358
			C32.308,10.243,13.141,8.896,8.764,8.699C8.971,13.118,10.358,32.195,26.073,47.958z"/>
		<path fill="#6A6967" d="M257.427,47.958c-15.795,15.843-34.99,17.231-39.384,17.437c0.197-4.374,1.543-23.554,17.35-39.358
			c15.799-15.795,34.966-17.142,39.343-17.339C274.529,13.118,273.142,32.195,257.427,47.958z"/>
		<path fill="#6A6967" d="M257.427,235.506c-15.795-15.843-34.99-17.231-39.384-17.437c0.197,4.374,1.543,23.554,17.35,39.358
			c15.799,15.795,34.966,17.142,39.343,17.339C274.529,270.347,273.142,251.27,257.427,235.506z"/>
		<path fill="#6A6967" d="M26.073,235.506c15.795-15.843,34.99-17.231,39.384-17.437c-0.197,4.374-1.543,23.554-17.35,39.358
			c-15.799,15.795-34.966,17.142-39.343,17.339C8.971,270.347,10.358,251.27,26.073,235.506z"/>
	</g>
</g>
<g id="c2">
	<g>
		<path fill="#353333" d="M90.782,0.001l-39.873,0c4.16,2.757,8.307,6.018,12.293,10.003c2.885,2.884,5.419,5.852,7.644,8.849
			c2.225-2.997,4.759-5.965,7.644-8.849C82.476,6.019,86.623,2.758,90.782,0.001z"/>
		<path fill="#353333" d="M0.001,90.782l0-39.873c2.757,4.16,6.018,8.307,10.003,12.293c2.884,2.885,5.852,5.419,8.849,7.644
			c-2.997,2.225-5.965,4.759-8.849,7.644C6.019,82.476,2.758,86.623,0.001,90.782z"/>
		<path fill="#353333" d="M192.682,0.001l39.873,0c-4.16,2.757-8.307,6.018-12.293,10.003c-2.885,2.884-5.419,5.852-7.644,8.849
			c-2.225-2.997-4.759-5.965-7.644-8.849C200.989,6.019,196.842,2.758,192.682,0.001z"/>
		<path fill="#353333" d="M283.463,90.782V50.909c-2.757,4.16-6.018,8.307-10.003,12.293c-2.884,2.885-5.852,5.419-8.849,7.644
			c2.997,2.225,5.965,4.759,8.849,7.644C277.445,82.476,280.706,86.623,283.463,90.782z"/>
		<path fill="#353333" d="M192.682,283.463h39.873c-4.16-2.757-8.307-6.018-12.293-10.003c-2.885-2.884-5.419-5.852-7.644-8.849
			c-2.225,2.997-4.759,5.965-7.644,8.849C200.989,277.445,196.842,280.706,192.682,283.463z"/>
		<path fill="#353333" d="M283.463,192.682v39.873c-2.757-4.16-6.018-8.307-10.003-12.293c-2.884-2.885-5.852-5.419-8.849-7.644
			c2.997-2.225,5.965-4.759,8.849-7.644C277.445,200.989,280.706,196.842,283.463,192.682z"/>
		<path fill="#353333" d="M90.782,283.463H50.909c4.16-2.757,8.307-6.018,12.293-10.003c2.885-2.884,5.419-5.852,7.644-8.849
			c2.225,2.997,4.759,5.965,7.644,8.849C82.476,277.445,86.623,280.706,90.782,283.463z"/>
		<path fill="#353333" d="M0.001,192.682l0,39.873c2.757-4.16,6.018-8.307,10.003-12.293c2.884-2.885,5.852-5.419,8.849-7.644
			c-2.997-2.225-5.965-4.759-8.849-7.644C6.019,200.989,2.758,196.842,0.001,192.682z"/>
	</g>
</g>
</svg>
