<?xml version="1.0" encoding="utf-8"?>
<!-- Generator: Adobe Illustrator 22.0.0, SVG Export Plug-In . SVG Version: 6.00 Build 0)  -->
<svg version="1.1" xmlns="http://www.w3.org/2000/svg" xmlns:xlink="http://www.w3.org/1999/xlink" x="0px" y="0px"
	 viewBox="0 0 283.5 283.5" enable-background="new 0 0 283.5 283.5" xml:space="preserve">
<g id="c1_1_">
</g>
<g id="c5">
	<g>
		<path fill="#DEDEDE" d="M0,70.902c30.709,0,61.417,0,92.126,0c-14.173,23.622-28.346,47.244-42.52,70.866
			c-16.535,0-33.071,0-49.606,0C0,118.146,0,94.524,0,70.902z"/>
		<path fill="#DEDEDE" d="M141.732,70.902c30.709,0,61.417,0,92.126,0c-14.173,23.622-28.346,47.244-42.52,70.866
			c-16.535,0-33.071,0-49.606,0C141.732,118.146,141.732,94.524,141.732,70.902z"/>
		<path fill="#DEDEDE" d="M0,212.634c30.709,0,61.417,0,92.126,0c-14.173,23.622-28.346,47.244-42.52,70.866
			c-16.535,0-33.071,0-49.606,0C0,259.878,0,236.256,0,212.634z"/>
		<path fill="#DEDEDE" d="M141.732,212.634c30.709,0,61.417,0,92.126,0c-14.173,23.622-28.346,47.244-42.52,70.866
			c-16.535,0-33.071,0-49.606,0C141.732,259.878,141.732,236.256,141.732,212.634z"/>
	</g>
</g>
<g id="c6">
	<g>
		<path fill="#DEDEDE" d="M283.5,0c-30.709,0-61.417,0-92.126,0c14.173,23.622,28.346,47.244,42.52,70.866
			c16.535,0,33.071,0,49.606,0C283.5,47.244,283.5,23.622,283.5,0z"/>
		<path fill="#DEDEDE" d="M141.768,0C111.059,0,80.35,0,49.642,0c14.173,23.622,28.346,47.244,42.52,70.866
			c16.535,0,33.071,0,49.606,0C141.768,47.244,141.768,23.622,141.768,0z"/>
		<path fill="#DEDEDE" d="M283.5,141.732c-30.709,0-61.417,0-92.126,0c14.173,23.622,28.346,47.244,42.52,70.866
			c16.535,0,33.071,0,49.606,0C283.5,188.976,283.5,165.354,283.5,141.732z"/>
		<path fill="#DEDEDE" d="M141.768,141.732c-30.709,0-61.417,0-92.126,0c14.173,23.622,28.346,47.244,42.52,70.866
			c16.535,0,33.071,0,49.606,0C141.768,188.976,141.768,165.354,141.768,141.732z"/>
	</g>
</g>
<g id="c4">
	<g>
		<path fill="#6A6967" d="M92.161,70.866c-14.173,23.622-28.346,47.244-42.52,70.866c30.709,0,61.417,0,92.126,0
			c0-23.622,0-47.244,0-70.866C125.232,70.866,108.697,70.866,92.161,70.866z"/>
		<path fill="#6A6967" d="M233.894,70.866c-14.173,23.622-28.346,47.244-42.52,70.866c30.709,0,61.417,0,92.126,0
			c0-23.622,0-47.244,0-70.866C266.965,70.866,250.429,70.866,233.894,70.866z"/>
		<path fill="#6A6967" d="M92.161,212.598c-14.173,23.622-28.346,47.244-42.52,70.866c30.709,0,61.417,0,92.126,0
			c0-23.622,0-47.244,0-70.866C125.232,212.598,108.697,212.598,92.161,212.598z"/>
		<path fill="#6A6967" d="M233.894,212.598c-14.173,23.622-28.346,47.244-42.52,70.866c30.709,0,61.417,0,92.126,0
			c0-23.622,0-47.244,0-70.866C266.965,212.598,250.429,212.598,233.894,212.598z"/>
	</g>
</g>
<g id="c2">
	<g>
		<path fill="#353333" d="M0,0c16.535,0,33.071,0,49.606,0c14.173,23.622,28.346,47.244,42.52,70.866c-30.709,0-61.417,0-92.126,0
			C0,47.244,0,23.622,0,0z"/>
		<path fill="#353333" d="M141.732,0c16.535,0,33.071,0,49.606,0c14.173,23.622,28.346,47.244,42.52,70.866
			c-30.709,0-61.417,0-92.126,0C141.732,47.244,141.732,23.622,141.732,0z"/>
		<path fill="#353333" d="M0,141.732c16.535,0,33.071,0,49.606,0c14.173,23.622,28.346,47.244,42.52,70.866
			c-30.709,0-61.417,0-92.126,0C0,188.976,0,165.354,0,141.732z"/>
		<path fill="#353333" d="M141.732,141.732c16.535,0,33.071,0,49.606,0c14.173,23.622,28.346,47.244,42.52,70.866
			c-30.709,0-61.417,0-92.126,0C141.732,188.976,141.732,165.354,141.732,141.732z"/>
	</g>
</g>
</svg>
