<?xml version="1.0" encoding="utf-8"?>
<!-- Generator: Adobe Illustrator 22.0.0, SVG Export Plug-In . SVG Version: 6.00 Build 0)  -->
<svg version="1.1" xmlns="http://www.w3.org/2000/svg" xmlns:xlink="http://www.w3.org/1999/xlink" x="0px" y="0px"
	 viewBox="0 0 283.5 283.5" enable-background="new 0 0 283.5 283.5" xml:space="preserve">
<g id="c1">
	<rect x="0.018" y="0.018" fill="#DEDEDE" width="283.465" height="283.465"/>
</g>
<g id="c2">
	<g>
		<path fill="#6A6967" d="M91.763,94.309c-22.578,0.457-45.155,0.913-67.733,1.37c15.7,16.288,31.4,32.575,47.1,48.863
			c23.622,0,47.244,0,70.866,0C125.252,127.798,108.508,111.053,91.763,94.309z"/>
		<path fill="#6A6967" d="M92.01,194.528c0.457,22.578,0.913,45.155,1.37,67.733c16.288-15.7,32.575-31.4,48.863-47.1
			c0-23.622,0-47.244,0-70.866C125.498,161.04,108.754,177.784,92.01,194.528z"/>
		<path fill="#6A6967" d="M192.229,194.282c22.578-0.457,45.155-0.913,67.733-1.37c-15.7-16.288-31.4-32.575-47.1-48.863
			c-23.622,0-47.244,0-70.866,0C158.741,160.793,175.485,177.538,192.229,194.282z"/>
		<path fill="#6A6967" d="M191.983,94.063c-0.457-22.578-0.913-45.155-1.37-67.733c-16.288,15.7-32.575,31.4-48.863,47.1
			c0,23.622,0,47.244,0,70.866C158.494,127.551,175.239,110.807,191.983,94.063z"/>
	</g>
</g>
<g id="c3">
	<g>
		<path fill="#353333" d="M141.822,73.43c-16.288-15.642-32.575-31.284-48.863-46.926c-0.415,22.619-0.831,45.238-1.246,67.857
			c16.703,16.703,33.406,33.406,50.11,50.11C141.822,120.79,141.822,97.11,141.822,73.43z"/>
		<path fill="#353333" d="M71.131,144.47c-15.642,16.288-31.284,32.575-46.926,48.863c22.619,0.415,45.238,0.831,67.857,1.246
			c16.703-16.703,33.406-33.406,50.11-50.11C118.491,144.47,94.811,144.47,71.131,144.47z"/>
		<path fill="#353333" d="M142.171,215.161c16.288,15.642,32.575,31.284,48.863,46.926c0.415-22.619,0.831-45.238,1.246-67.857
			c-16.703-16.703-33.406-33.406-50.11-50.11C142.171,167.801,142.171,191.481,142.171,215.161z"/>
		<path fill="#353333" d="M212.862,144.121c15.642-16.288,31.284-32.575,46.926-48.863c-22.619-0.415-45.238-0.831-67.857-1.246
			c-16.703,16.703-33.406,33.406-50.11,50.11C165.502,144.121,189.182,144.121,212.862,144.121z"/>
	</g>
</g>
</svg>
