<?xml version="1.0" encoding="utf-8"?>
<!-- Generator: Adobe Illustrator 22.0.0, SVG Export Plug-In . SVG Version: 6.00 Build 0)  -->
<svg version="1.1" xmlns="http://www.w3.org/2000/svg" xmlns:xlink="http://www.w3.org/1999/xlink" x="0px" y="0px"
	 viewBox="0 0 283.5 283.5" enable-background="new 0 0 283.5 283.5" xml:space="preserve">
<g id="c1">
	<rect fill="#DEDEDE" width="283.465" height="283.465"/>
	<g>
		<polygon fill="#353333" points="283.465,240.528 240.528,283.465 260.572,283.465 283.465,260.572 		"/>
		<polygon fill="#353333" points="283.465,200.44 200.44,283.465 220.484,283.465 283.465,220.484 		"/>
		<polygon fill="#353333" points="283.465,160.352 160.352,283.465 180.396,283.465 283.465,180.396 		"/>
		<polygon fill="#353333" points="283.399,120.329 120.264,283.465 140.308,283.465 221.585,202.187 283.399,140.373 		"/>
		<polygon fill="#353333" points="283.399,80.242 80.176,283.465 100.22,283.465 283.399,100.285 		"/>
		<polygon fill="#353333" points="283.399,40.154 40.088,283.465 60.132,283.465 283.399,60.198 		"/>
		<polygon fill="#353333" points="283.399,0.066 0,283.465 20.044,283.465 283.399,20.11 		"/>
	</g>
	<g>
		<polygon fill="#9D9FA2" points="283.465,220.484 220.484,283.465 240.528,283.465 283.465,240.528 		"/>
		<polygon fill="#9D9FA2" points="283.465,180.396 180.396,283.465 200.44,283.465 283.465,200.44 		"/>
		<polygon fill="#9D9FA2" points="283.399,100.285 100.22,283.465 120.264,283.465 283.399,120.329 		"/>
		<polygon fill="#9D9FA2" points="283.399,60.198 60.132,283.465 80.176,283.465 283.399,80.242 		"/>
		<polygon fill="#9D9FA2" points="283.399,20.11 20.044,283.465 40.088,283.465 283.399,40.154 		"/>
		<polygon fill="#9D9FA2" points="140.308,283.465 160.352,283.465 283.465,160.352 283.399,140.373 		"/>
		<polygon fill="#9D9FA2" points="260.572,283.465 283.465,283.465 283.465,260.572 		"/>
	</g>
</g>
<g id="c2">
	<g>
		<polygon fill="#353333" points="283.482,240.528 240.545,283.465 260.589,283.465 283.482,260.572 		"/>
		<polygon fill="#353333" points="283.482,200.44 200.457,283.465 220.501,283.465 283.482,220.484 		"/>
		<polygon fill="#353333" points="283.482,160.352 160.369,283.465 180.413,283.465 283.482,180.396 		"/>
		<polygon fill="#353333" points="283.417,120.329 120.282,283.465 140.326,283.465 221.603,202.187 283.417,140.373 		"/>
		<polygon fill="#353333" points="283.417,80.242 80.194,283.465 100.238,283.465 283.417,100.285 		"/>
		<polygon fill="#353333" points="283.417,40.154 40.106,283.465 60.15,283.465 283.417,60.198 		"/>
		<polygon fill="#353333" points="283.417,0.066 0.018,283.465 20.062,283.465 283.417,20.11 		"/>
	</g>
</g>
<g id="c3">
	<g>
		<polygon fill="#9D9FA2" points="283.482,220.501 220.501,283.482 240.545,283.482 283.482,240.545 		"/>
		<polygon fill="#9D9FA2" points="283.482,180.413 180.413,283.482 200.457,283.482 283.482,200.457 		"/>
		<polygon fill="#9D9FA2" points="283.417,100.303 100.238,283.482 120.282,283.482 283.417,120.347 		"/>
		<polygon fill="#9D9FA2" points="283.417,60.215 60.15,283.482 80.194,283.482 283.417,80.259 		"/>
		<polygon fill="#9D9FA2" points="283.417,20.127 20.062,283.482 40.106,283.482 283.417,40.171 		"/>
		<polygon fill="#9D9FA2" points="140.326,283.482 160.369,283.482 283.482,160.369 283.417,140.391 		"/>
		<polygon fill="#9D9FA2" points="260.589,283.482 283.482,283.482 283.482,260.589 		"/>
	</g>
</g>
</svg>
