<?xml version="1.0" encoding="utf-8"?>
<!-- Generator: Adobe Illustrator 22.0.0, SVG Export Plug-In . SVG Version: 6.00 Build 0)  -->
<svg version="1.1" xmlns="http://www.w3.org/2000/svg" xmlns:xlink="http://www.w3.org/1999/xlink" x="0px" y="0px"
	 viewBox="0 0 283.5 283.5" enable-background="new 0 0 283.5 283.5" xml:space="preserve">
<g id="c1">
	<rect x="0.023" y="0.018" fill="#DEDEDE" width="283.459" height="283.436"/>
</g>
<g id="c3">
	<polygon fill="#9D9FA2" points="283.453,47.236 236.213,0 283.465,0 	"/>
	<polygon fill="#9D9FA2" points="0.023,47.236 47.263,0 0.011,0 	"/>
	<polygon fill="#9D9FA2" points="0.023,236.228 47.263,283.465 0.011,283.465 	"/>
	<polygon fill="#9D9FA2" points="283.453,236.228 236.213,283.465 283.465,283.465 	"/>
</g>
<g id="c4">
	<polygon fill="#353333" points="0.006,188.952 94.486,188.952 47.246,141.715 	"/>
	<polygon fill="#353333" points="47.246,236.188 141.727,236.188 94.486,188.952 	"/>
	<polygon fill="#353333" points="94.498,283.436 188.978,283.436 141.738,236.199 	"/>
	<polygon fill="#353333" points="141.738,236.199 236.219,236.199 188.978,188.963 	"/>
	<polygon fill="#353333" points="188.978,188.963 283.459,188.963 236.219,141.727 	"/>
	<polygon fill="#353333" points="283.453,94.484 188.973,94.484 236.213,141.721 	"/>
	<polygon fill="#353333" points="236.213,47.248 141.732,47.248 188.973,94.484 	"/>
	<polygon fill="#353333" points="188.961,0 94.481,0 141.721,47.236 	"/>
	<polygon fill="#353333" points="141.721,47.236 47.24,47.236 94.481,94.473 	"/>
	<polygon fill="#353333" points="94.481,94.473 0,94.473 47.24,141.709 	"/>
</g>
<g id="c5">
	
		<rect x="74.949" y="74.944" transform="matrix(0.7071 -0.7071 0.7071 0.7071 -58.7111 141.7613)" fill="#DEDEDE" width="133.614" height="133.606"/>
</g>
<g id="c6">
	
		<rect x="108.353" y="108.347" transform="matrix(0.7071 -0.7071 0.7071 0.7071 -58.7131 141.7622)" fill="#9D9FA2" width="66.805" height="66.805"/>
</g>
</svg>
