<?xml version="1.0" encoding="utf-8"?>
<!-- Generator: Adobe Illustrator 22.0.0, SVG Export Plug-In . SVG Version: 6.00 Build 0)  -->
<svg version="1.1" xmlns="http://www.w3.org/2000/svg" xmlns:xlink="http://www.w3.org/1999/xlink" x="0px" y="0px"
	 viewBox="0 0 283.5 283.5" enable-background="new 0 0 283.5 283.5" xml:space="preserve">
<g id="c1">
	<g>
		<polygon fill="#DEDEDE" points="236.892,92.833 236.892,46.613 190.672,46.613 190.672,46.238 236.892,0.018 63.798,0.018 
			31.908,31.908 95.688,31.908 64.058,63.533 64.323,63.798 128.103,63.798 96.213,95.688 159.467,95.688 127.838,127.313 
			128.103,127.578 191.882,127.578 159.992,159.467 223.242,159.467 191.617,191.092 191.882,191.357 255.662,191.357 
			223.772,223.247 283.482,223.247 283.482,46.613 283.292,46.613 237.077,92.833 		"/>
		<polygon fill="#DEDEDE" points="46.608,190.667 46.608,236.887 92.823,236.887 92.823,237.262 46.608,283.482 223.242,283.482 
			223.242,223.777 191.882,255.137 191.882,191.357 191.617,191.092 159.467,223.247 159.467,159.992 128.103,191.357 
			128.103,127.578 127.838,127.313 95.688,159.467 95.688,96.213 64.323,127.578 64.323,63.798 64.058,63.533 31.908,95.688 
			31.908,31.908 0.018,63.798 0.018,236.887 0.203,236.887 46.423,190.667 		"/>
	</g>
</g>
<g id="c2">
	<g>
		<polygon fill="#9D9FA2" points="63.798,0.018 0.018,0.018 0.018,63.798 31.908,31.908 		"/>
		<polygon fill="#9D9FA2" points="95.688,31.908 31.908,31.908 31.908,95.688 64.058,63.533 		"/>
		<polygon fill="#9D9FA2" points="128.103,63.798 64.323,63.798 64.323,127.578 95.688,96.213 95.688,95.688 96.213,95.688 		"/>
		<polygon fill="#9D9FA2" points="159.467,95.688 96.213,95.688 95.688,96.213 95.688,159.467 127.838,127.313 		"/>
		<polygon fill="#9D9FA2" points="191.882,127.578 128.103,127.578 128.103,191.357 159.467,159.992 159.467,159.467 
			159.992,159.467 		"/>
		<polygon fill="#9D9FA2" points="223.242,159.467 159.992,159.467 159.467,159.992 159.467,223.247 191.617,191.092 		"/>
		<polygon fill="#9D9FA2" points="255.662,191.357 191.882,191.357 191.882,255.137 223.242,223.777 223.242,223.247 
			223.772,223.247 		"/>
	</g>
</g>
<g id="c3">
	<g>
		<polygon fill="#6A6967" points="283.482,0.018 236.892,0.018 190.672,46.238 190.672,46.613 236.892,46.613 236.892,92.833 
			237.077,92.833 283.292,46.613 283.482,46.613 283.482,0.023 		"/>
		<polygon fill="#6A6967" points="46.608,190.667 46.423,190.667 0.203,236.887 0.018,236.887 0.018,283.477 0.018,283.482 
			46.608,283.482 92.823,237.262 92.823,236.887 46.608,236.887 		"/>
	</g>
</g>
<g id="c4">
	<polygon fill="#353333" points="283.482,223.247 223.772,223.247 223.242,223.777 223.242,283.482 283.482,283.482 	"/>
</g>
</svg>
