<?xml version="1.0" encoding="utf-8"?>
<!-- Generator: Adobe Illustrator 22.0.0, SVG Export Plug-In . SVG Version: 6.00 Build 0)  -->
<svg version="1.1" xmlns="http://www.w3.org/2000/svg" xmlns:xlink="http://www.w3.org/1999/xlink" x="0px" y="0px"
	 viewBox="0 0 283.5 283.5" enable-background="new 0 0 283.5 283.5" xml:space="preserve">
<g id="c7">
	<polygon fill="#9D9FA2" points="0.053,283.465 283.447,0.035 0,0.035 	"/>
</g>
<g id="c1">
	<path fill="#DEDEDE" d="M283.394,283.772V33C143.798,33,30.634,145.275,30.634,283.772H283.394z"/>
</g>
<g id="c12">
	<path fill="#353333" d="M282.915,262.206c0.127,0,0.252,0.007,0.378,0.01c0.069-0.029,0.139-0.06,0.208-0.089
		c-0.062-0.846-0.309-2.592-1.521-4.322c-1.88-2.684-4.707-3.362-5.409-3.509c-0.054-0.307-0.802-4.177-4.386-5.702
		c-2.428-1.033-4.66-0.352-5.263-0.146c0.424,1.248,1.348,4.517,0.292,8.48c-0.872,3.274-2.661,5.417-3.691,6.467
		c-0.986,0.948-3.114,2.733-6.376,3.601c-3.943,1.05-7.208,0.137-8.479-0.292c-0.206,0.603-0.887,2.835,0.146,5.264
		c1.525,3.584,5.395,4.332,5.702,4.386c0.231,0.911,1.017,3.506,3.509,5.41c1.373,1.049,2.752,1.496,3.635,1.702
		C261.659,271.724,271.175,262.206,282.915,262.206z"/>
</g>
<g id="c3">
	<g>
		<path fill="#353333" d="M258.969,212.987c1.402-0.913,2.469-1.903,3.249-2.75c1.54,0.565,3.384,1.113,5.499,1.5
			c2.998,0.548,5.649,0.608,7.749,0.5c-0.541-2.486-0.833-4.621-1-6.25c-0.453-4.41-0.656-6.663,0.5-8.999
			c0.376-0.759,1.326-2.614,3.499-3.75c2.151-1.124,4.226-0.878,4.981-0.75V89.208c-1.735,0.743-5.104,2.519-7.731,6.286
			c-3.006,4.312-3.24,8.66-3.249,10.249c-1.861,0.169-4.482,0.19-7.499-0.5c-2.01-0.46-3.689-1.12-4.999-1.75
			c-0.291,2.102-0.459,4.946,0,8.249c0.612,4.404,2.088,7.817,3.249,9.999c-1.644,0.881-3.311,1.797-4.999,2.75
			c-1.622,0.916-3.205,1.834-4.749,2.75c1.685,0.534,5.065,1.895,7.499,5.25c2.112,2.912,4.4,8.55,1.75,11.999
			c-1.144,1.49-3.172,2.522-5.249,2.5c-6.504-0.069-10.712-10.446-11.748-12.999c-1.523-3.754-2.045-7.082-2.25-9.249
			c-1.16,0.03-4.229,0.268-6.999,2.5c-4.709,3.794-4.298,9.922-4.249,10.499c-1.749-0.928-3.993-2.353-6.249-4.5
			c-1.759-1.674-3.059-3.345-3.999-4.75c-1.164,0.955-3.286,2.978-4.499,6.25c-2.151,5.801,0.246,10.969,0.75,11.999
			c-1.681,1.205-3.947,3.13-5.999,6c-1.439,2.012-2.379,3.939-2.999,5.5c1.527,1.548,3.509,3.307,5.999,5
			c2.063,1.402,4.027,2.456,5.749,3.25c-1.18,0.978-3.796,3.428-4.999,7.5c-0.346,1.171-1.146,4.012-0.25,7.5
			c0.611,2.379,1.757,4.066,2.5,5c0.764-1.714,2.242-4.385,4.999-6.75c1.325-1.137,2.635-1.936,3.749-2.5
			c0.225,1.747,0.809,4.525,2.5,7.5c1.312,2.308,2.84,3.943,3.999,5c0.832-2.361,2.978-7.27,7.999-10.249
			c1.888-1.12,5.677-3.369,8.998-1.75c0.108,0.053,2.58,1.306,3.249,4c0.777,3.127-1.449,5.887-2.749,7.5
			c-3.924,4.865-9.738,6.122-12.248,6.5c1.276,1.419,3.08,3.144,5.499,4.75c1.915,1.27,3.73,2.144,5.249,2.75
			c0.255,1.874,0.646,3.979,1.25,6.25c0.598,2.251,1.297,4.258,2,6C254.25,215.198,256.566,214.553,258.969,212.987z"/>
		<path fill="#353333" d="M212.978,258.984c-0.913,1.402-1.903,2.469-2.749,3.25c0.565,1.54,1.113,3.385,1.5,5.5
			c0.548,2.998,0.608,5.649,0.5,7.75c-2.486-0.541-4.62-0.833-6.249-1c-4.41-0.453-6.662-0.656-8.998,0.5
			c-0.759,0.376-2.614,1.326-3.749,3.5c-1.124,2.151-0.878,4.226-0.75,4.982H89.214c0.743-1.735,2.519-5.105,6.285-7.732
			c4.312-3.007,8.659-3.241,10.248-3.25c0.169-1.862,0.19-4.483-0.5-7.5c-0.46-2.01-1.12-3.689-1.75-5
			c2.102-0.291,4.945-0.459,8.248,0c4.404,0.612,7.816,2.088,9.998,3.25c0.881-1.644,1.797-3.312,2.749-5
			c0.916-1.622,1.833-3.206,2.749-4.75c0.534,1.685,1.894,5.065,5.249,7.5c2.912,2.113,8.549,4.4,11.998,1.75
			c1.489-1.145,2.522-3.172,2.5-5.25c-0.069-6.504-10.444-10.714-12.998-11.749c-3.754-1.523-7.081-2.046-9.248-2.25
			c0.03-1.16,0.268-4.23,2.5-7c3.794-4.71,9.92-4.298,10.498-4.25c-0.928-1.749-2.352-3.994-4.499-6.25
			c-1.674-1.759-3.344-3.059-4.749-4c0.955-1.164,2.978-3.286,6.249-4.5c5.8-2.152,10.968,0.246,11.998,0.75
			c1.205-1.681,3.13-3.947,5.999-6c2.012-1.439,3.938-2.379,5.499-3c1.548,1.527,3.307,3.51,4.999,6
			c1.402,2.063,2.456,4.028,3.249,5.75c0.978-1.18,3.428-3.797,7.499-5c1.171-0.346,4.012-1.146,7.499-0.25
			c2.379,0.611,4.065,1.757,4.999,2.5c-1.714,0.764-4.384,2.242-6.749,5c-1.137,1.325-1.936,2.636-2.5,3.75
			c1.747,0.225,4.524,0.809,7.499,2.5c2.308,1.312,3.943,2.84,4.999,4c-2.361,0.832-7.269,2.979-10.248,7.999
			c-1.12,1.888-3.368,5.677-1.75,8.999c0.053,0.108,1.305,2.58,3.999,3.25c3.127,0.777,5.886-1.449,7.499-2.75
			c4.864-3.925,6.122-9.739,6.499-12.249c1.419,1.276,3.144,3.08,4.749,5.5c1.27,1.915,2.144,3.73,2.749,5.25
			c1.874,0.255,3.979,0.646,6.249,1.25c2.251,0.598,4.257,1.297,5.999,2C215.188,254.264,214.544,256.58,212.978,258.984z"/>
	</g>
</g>
<g id="c4">
	<path fill="#6A6967" d="M214.049,231.573c3,6.045,4.074,11.554,4.494,15.194c3.543,1.08,7.085,2.16,10.628,3.24
		c-6.006,9.727-9.474,21.187-9.474,33.458h7.085c0-15.65,6.341-29.819,16.594-40.077c10.257-10.253,24.423-16.595,40.071-16.595
		v-7.086c-12.27,0-23.728,3.469-33.454,9.475c-1.08-3.543-2.159-7.086-3.239-10.629c-3.64-0.42-9.148-1.494-15.192-4.495
		c-5.53-2.745-9.468-6.091-11.962-8.568c-11.039-13.902-17.634-31.493-17.634-50.626c0-45.006,36.48-81.491,81.481-81.491V59.201
		c-52.827,0-95.651,42.83-95.651,95.663c0,15.572,3.724,30.272,10.325,43.264c-12.99-6.602-27.688-10.327-43.258-10.327
		c-52.827,0-95.651,42.83-95.651,95.663h14.171c0-45.006,36.48-81.491,81.481-81.491c19.131,0,36.719,6.595,50.62,17.636
		C207.959,222.104,211.304,226.042,214.049,231.573z"/>
</g>
<g id="c5">
	<path fill="#6A6967" d="M46.516,210.08c4.728-15.29,10.551-28.846,16.666-40.649c0,0.007-0.001,0.013-0.001,0.02
		c0.011-0.027,0.025-0.059,0.036-0.086c1.377-2.656,2.769-5.225,4.166-7.702c0.028-0.04,0.053-0.08,0.081-0.12
		c1.594-2.278,9.278-13.262,15.789-11.551c2.819,0.741,4.536,3.63,5.499,5.25c2.053,3.454,1.24,5.394,2.999,9.249
		c0,0,1.816,3.98,5.249,6.75c6.879,5.549,17.039,2.683,18.497,2.25c-0.803-2.388-1.81-6.351-1.5-11.249
		c0.256-4.036,0.575-9.077,4.499-12.999c0.705-0.704,4.684-4.529,10.748-4.25c0.621,0.029,7.491,0.445,10.498,5.5
		c2.723,4.578,0.64,10.211-1.5,15.999c-1.102,2.979-2.362,5.28-3.249,6.75c1.247,0.971,3.372,2.313,6.249,2.75
		c7.472,1.134,12.974-4.907,13.497-5.5c1.788,1.036,4.405,2.278,7.749,3c4.517,0.975,8.363,0.567,10.785,0.094
		c0.071,0.051,0.143,0.105,0.213,0.156c0.014-0.066,0.028-0.139,0.042-0.208c0.069-0.014,0.141-0.028,0.208-0.042
		c-0.051-0.07-0.105-0.143-0.156-0.213c0.472-2.423,0.88-6.268-0.094-10.786c-0.721-3.344-1.964-5.961-2.999-7.75
		c0.593-0.523,6.633-6.026,5.499-13.499c-0.437-2.877-1.779-5.003-2.749-6.25c-1.47,0.888-3.77,2.148-6.749,3.25
		c-5.787,2.14-11.419,4.224-15.997,1.5c-5.054-3.007-5.47-9.878-5.499-10.499c-0.279-6.065,3.545-10.044,4.249-10.749
		c3.921-3.925,8.962-4.244,12.998-4.5c4.898-0.31,8.86,0.697,11.248,1.5c0.433-1.458,3.299-11.619-2.25-18.499
		c-2.769-3.433-6.749-5.25-6.749-5.25c-3.855-1.76-5.795-0.947-9.248-3c-1.619-0.963-4.508-2.68-5.249-5.5
		c-1.71-6.511,9.272-14.197,11.55-15.791c0.04-0.028,0.08-0.053,0.12-0.081c2.478-1.398,5.046-2.789,7.702-4.166
		c0.028-0.011,0.059-0.025,0.086-0.036c-0.006,0-0.013,0.001-0.02,0.001c11.802-6.115,25.356-11.94,40.644-16.668
		c29.157-9.018,54.901-11.05,73.376-11.038V15.625c-19.6-0.027-47.501,2.089-79.281,11.931
		c-34.176,10.584-59.789,26.063-76.326,37.897c0.902,2.873,1.78,6.562,2.154,10.905c0.227,2.647,0.226,5.09,0.099,7.293
		c-0.179,1.673-0.358,3.345-0.537,5.018c-0.012,0.077-0.023,0.16-0.036,0.236c-0.615,3.65-1.913,8.852-4.855,14.533
		c-1.637,3.161-4.399,7.677-8.971,12.254c-4.576,4.572-9.091,7.334-12.251,8.971c-5.68,2.942-10.881,4.24-14.531,4.855
		c-0.076,0.012-0.159,0.023-0.236,0.036c-1.673,0.179-3.345,0.358-5.018,0.537c-2.203,0.127-4.645,0.129-7.292-0.099
		c-4.343-0.373-8.03-1.252-10.903-2.154c-11.832,16.538-27.309,42.155-37.892,76.335c-9.841,31.784-11.957,59.688-11.93,79.29H35.48
		C35.468,264.987,37.5,239.241,46.516,210.08z"/>
</g>
<g id="c6">
	<path fill="#353333" d="M65.489,127.839c0.518,0.167,1.044,0.329,1.586,0.484c0,0,6.704,1.889,13.585,1.889
		c5.128,0,10.074-0.778,14.726-2.223c9.937-3.086,16.692-8.713,20.315-12.276l0,0l0.041-0.041l0,0
		c8.958-8.974,14.498-21.362,14.498-35.045c0-6.882-1.888-13.587-1.888-13.587c-0.154-0.542-0.317-1.068-0.484-1.586
		c43.859-31.367,97.576-49.828,155.606-49.828V0.035c-66.931,0-128.441,23.207-176.93,62.011c0.001,0,0.001,0,0.002,0
		c1.609,2.313,3.948,6.291,5.187,11.74c0.045,0.198,0.084,0.392,0.125,0.587c0.318,1.688,0.67,4.05,0.67,6.252
		c0,8.795-3.561,16.758-9.318,22.527l0,0l0,0c-0.008,0.008-0.016,0.016-0.024,0.024c-5.768,5.758-13.73,9.319-22.524,9.319
		c-2.202,0-4.564-0.352-6.251-0.67c-0.195-0.041-0.389-0.08-0.587-0.125c-5.449-1.239-9.426-3.578-11.739-5.188
		c0-0.001,0-0.001,0-0.002C23.284,155.008,0.08,216.525,0.08,283.465h15.588C15.667,225.427,34.126,171.704,65.489,127.839z"/>
</g>
<g id="c8">
	<path fill="#6A6967" d="M0.143,144.991c2.512-3.06,6.368-8.572,8.54-16.416c1.694-6.115,1.749-11.428,1.5-14.999
		c1,0.528,2.406,1.134,4.166,1.5c2.29,0.477,4.242,0.351,5.526,0.163c0.087-3.328-0.112-7.421-1.027-11.996
		c-1.536-7.676-4.468-13.596-6.832-17.499c1.931-0.434,4.39-0.709,7.165-0.333c9.477,1.283,14.863,9.103,15.997,10.833
		c1.292-1.347,2.82-3.217,4.166-5.666c2.16-3.93,2.893-7.607,3.166-9.999c1.749-0.189,4.418-0.695,7.332-2.167
		c3.558-1.797,5.809-4.192,6.999-5.666c-1.704-1.832-4.114-4.074-7.332-6.166c-3.378-2.197-6.553-3.52-8.998-4.333
		c0.496-1.74,0.984-4.133,1-7c0.013-2.386-0.304-4.426-0.667-6c-3.543,1.306-7.487,2.988-11.665,5.166
		c-4.215,2.198-7.879,4.491-10.998,6.666c-1.443-1.959-2.392-3.722-2.999-5c-0.852-1.792-1.447-3.045-1.666-4.833
		c-0.165-1.342-0.063-2.539,0.12-3.509c8.228-2.338,15.585-6.747,21.471-12.628l0,0c0.003-0.003,0.006-0.007,0.009-0.01
		c0.003-0.003,0.006-0.005,0.008-0.008l0,0c2.279-2.278,5.08-5.525,7.635-9.847c2.132-3.607,3.821-7.507,4.991-11.626
		c0.97-0.183,2.167-0.284,3.508-0.12c1.788,0.22,3.04,0.815,4.832,1.667c1.278,0.607,3.041,1.557,4.999,3
		c-2.175,3.119-4.468,6.784-6.665,10.999c-2.178,4.179-3.86,8.123-5.166,11.666c1.574,0.363,3.614,0.68,5.999,0.667
		c2.866-0.016,5.259-0.504,6.999-1c0.813,2.445,2.136,5.621,4.333,8.999c2.092,3.218,4.333,5.629,6.166,7.333
		c1.474-1.19,3.868-3.441,5.666-7c1.472-2.914,1.977-5.584,2.166-7.333c2.392-0.273,6.069-1.006,9.998-3.166
		c2.449-1.346,4.319-2.874,5.666-4.166c-1.729-1.134-9.548-6.52-10.831-15.999c-0.376-2.776-0.1-5.235,0.333-7.166
		c3.902,2.365,9.822,5.297,17.497,6.833c4.575,0.916,8.667,1.114,11.995,1.027c0.187-1.285,0.313-3.236-0.163-5.527
		c-0.366-1.76-0.972-3.166-1.5-4.166c3.57,0.25,8.883,0.194,14.997-1.5c7.843-2.173,13.354-6.029,16.414-8.541
		C113.204,0.1,81.418,0.075,49.632,0.051c0-0.005,0-0.01,0-0.015h-3.195C43.934,0.024,41.43,0.012,38.927,0
		c0.026,0.03,0.05,0.058,0.076,0.088c-0.014,10.737-4.369,20.457-11.404,27.497c-7.04,7.036-16.758,11.391-27.493,11.405
		c-0.03-0.026-0.058-0.05-0.088-0.076c0.012,2.504,0.024,5.007,0.035,7.511v3.196c0.005,0,0.01,0,0.015,0
		C0.093,81.411,0.118,113.201,0.143,144.991z"/>
</g>
<g id="c10">
	<path fill="#353333" d="M0.027,0.035v21.259c11.739,0,21.256-9.518,21.256-21.259H0.027z"/>
</g>
<g id="c11">
	<path fill="#6A6967" d="M5.481,28.121c3.524-0.739,6.387,0.129,7.608,0.58c0.485-1.244,1.272-2.879,2.557-4.58
		c1.506-1.993,3.128-3.326,4.322-4.159c0,0,0.001,0.001,0.001,0.001c0.001-0.002,0.003-0.003,0.004-0.005
		c0.002-0.001,0.004-0.003,0.005-0.004c0,0-0.001-0.001-0.001-0.001c0.833-1.195,2.165-2.817,4.158-4.323
		c1.701-1.286,3.336-2.072,4.58-2.557c-0.451-1.221-1.319-4.085-0.58-7.609c0.548-2.611,1.742-4.466,2.5-5.464
		c-3.212,0-6.425,0-9.637,0c-0.002,1.686-0.201,4.033-1.073,6.669c-1.331,4.021-3.574,6.741-5.016,8.223
		c-1.482,1.443-4.201,3.686-8.222,5.017c-2.636,0.873-4.983,1.071-6.668,1.073c0,3.213,0,6.426,0,9.638
		C1.016,29.863,2.87,28.668,5.481,28.121z"/>
</g>
</svg>
