<?xml version="1.0" encoding="utf-8"?>
<!-- Generator: Adobe Illustrator 22.0.0, SVG Export Plug-In . SVG Version: 6.00 Build 0)  -->
<svg version="1.1" xmlns="http://www.w3.org/2000/svg" xmlns:xlink="http://www.w3.org/1999/xlink" x="0px" y="0px"
	 viewBox="0 0 283.5 283.5" enable-background="new 0 0 283.5 283.5" xml:space="preserve">
<g id="c1">
	<rect x="0.039" y="0.238" fill="#DEDEDE" width="283.399" height="283.227"/>
</g>
<g id="c2">
	<g>
		<g>
			<path fill="#353333" d="M135.746,47.938c0,0-2.661,22.636-37.836,59.849c-23.583,24.95-10.021,66.249-10.021,66.249
				s4.487-23.703,41.875-63.049C129.764,110.987,143.722,99.136,135.746,47.938z"/>
			<path fill="#353333" d="M114.816,221.633c0,0-7.092-43.131,20.56-66.527C135.376,155.106,148.962,190.049,114.816,221.633z"/>
			<path fill="#353333" d="M141.75,203.547c0,0,16.451,18.488,15.703,35.554c0.748,17.066-15.703,35.554-15.703,35.554
				s-16.451-18.488-15.703-35.554C125.299,222.035,141.75,203.547,141.75,203.547z"/>
			<path fill="#353333" d="M135.327,118.264c0,0,8.159,12.682-17.848,47.359c-10.984,14.645-9.926,47.359-9.926,47.359
				s-17.546-20.833-8.718-44.595S135.327,118.264,135.327,118.264z"/>
			<path fill="#353333" d="M147.714,48.24c0,0,2.661,22.636,37.836,59.849c23.583,24.95,10.021,66.249,10.021,66.249
				s-4.487-23.703-41.875-63.049C153.696,111.289,139.738,99.438,147.714,48.24z"/>
			<path fill="#353333" d="M168.684,221.633c0,0,7.092-43.131-20.56-66.527C148.124,155.106,134.538,190.049,168.684,221.633z"/>
			<path fill="#353333" d="M148.173,118.264c0,0-8.159,12.682,17.848,47.359c10.984,14.645,9.926,47.359,9.926,47.359
				s17.546-20.833,8.718-44.595C175.837,144.626,148.173,118.264,148.173,118.264z"/>
		</g>
		<g>
			<path fill="#353333" d="M283.482,264.727c0,0-16.451-18.488-15.703-35.554c-0.748-17.066,15.703-35.554,15.703-35.554V264.727z"
				/>
			<path fill="#353333" d="M275.364,38.333c0,0-2.661,22.636-37.836,59.849c-23.583,24.95-10.021,66.249-10.021,66.249
				s4.487-23.703,41.875-63.049C269.382,101.382,283.34,89.531,275.364,38.333z"/>
			<path fill="#353333" d="M255.002,212.204c0,0-7.092-43.131,20.56-66.527C275.562,145.677,289.148,180.621,255.002,212.204z"/>
			<path fill="#353333" d="M276,108.836c0,0,8.159,12.682-17.848,47.359c-10.983,14.645-9.926,47.359-9.926,47.359
				s-17.546-20.833-8.718-44.595C248.336,135.197,276,108.836,276,108.836z"/>
		</g>
		<g>
			<path fill="#353333" d="M0.018,264.727c0,0,16.451-18.488,15.703-35.554c0.748-17.066-15.703-35.554-15.703-35.554V264.727z"/>
			<path fill="#353333" d="M8.136,38.333c0,0,2.661,22.636,37.836,59.849c23.583,24.95,10.021,66.249,10.021,66.249
				s-4.487-23.703-41.875-63.049C14.118,101.382,0.16,89.531,8.136,38.333z"/>
			<path fill="#353333" d="M28.498,212.204c0,0,7.092-43.131-20.56-66.527C7.938,145.677-5.648,180.621,28.498,212.204z"/>
			<path fill="#353333" d="M7.5,108.836c0,0-8.159,12.682,17.848,47.359c10.984,14.645,9.926,47.359,9.926,47.359
				s17.546-20.833,8.718-44.595S7.5,108.836,7.5,108.836z"/>
		</g>
	</g>
</g>
<g id="c3">
	<g>
		<g>
			<g>
				<path fill="#6A6967" d="M232.205,0.264c-22.233,31.463-14.746,43.1-14.746,43.1s22.516-21.455,33.404-43.1L232.205,0.264z"/>
				<path fill="#6A6967" d="M171.21,0.264c10.888,21.645,33.404,43.1,33.404,43.1s7.487-11.638-14.746-43.1L171.21,0.264z"/>
				<path fill="#6A6967" d="M261.95,0c0,0,2.449,9.659-30.282,46.46c-20.876,23.472-13.353,60.311-13.353,60.311
					s0.164-6.423,37.552-45.769C255.867,61.001,269.926,51.198,261.95,0z"/>
				<path fill="#6A6967" d="M157.186,0c0,0-2.449,9.659,30.282,46.46c20.876,23.472,13.353,60.311,13.353,60.311
					s-0.164-6.423-37.552-45.769C163.268,61.001,149.21,51.198,157.186,0z"/>
			</g>
			<g>
				<path fill="#6A6967" d="M210.416,236.078c0,0-16.451-18.488-15.703-35.554c-0.748-17.066,15.703-35.554,15.703-35.554
					s16.451,18.488,15.703,35.554C226.867,217.59,210.416,236.078,210.416,236.078z"/>
				<path fill="#6A6967" d="M232.41,283.465c0.976-1.381,2.009-2.8,3.103-4.258c10.984-14.645,9.926-47.359,9.926-47.359
					s17.546,20.833,8.718,44.595c-0.864,2.325-1.908,4.675-3.089,7.022L232.41,283.465z"/>
				<path fill="#6A6967" d="M170.59,283.465c-1.181-2.348-2.225-4.698-3.089-7.023c-8.828-23.761,8.718-44.595,8.718-44.595
					s-1.058,32.714,9.926,47.359c1.094,1.458,2.127,2.877,3.103,4.258H170.59z"/>
				<path fill="#6A6967" d="M216.363,283.203c0,0-8.607-42.854,18.202-67.21C234.566,215.993,249.375,250.437,216.363,283.203z"/>
				<path fill="#6A6967" d="M204.469,283.203c0,0,8.607-42.854-18.202-67.21C186.267,215.993,171.457,250.437,204.469,283.203z"/>
			</g>
		</g>
		<g>
			<g>
				<path fill="#6A6967" d="M51.26,0.264c22.233,31.463,14.746,43.1,14.746,43.1S43.49,21.909,32.602,0.264L51.26,0.264z"/>
				<path fill="#6A6967" d="M112.255,0.264c-10.888,21.645-33.404,43.1-33.404,43.1s-7.488-11.638,14.746-43.1L112.255,0.264z"/>
				<path fill="#6A6967" d="M21.515,0c0,0-2.449,9.659,30.282,46.46c20.876,23.472,13.353,60.311,13.353,60.311
					s-0.164-6.423-37.552-45.769C27.597,61.001,13.539,51.198,21.515,0z"/>
				<path fill="#6A6967" d="M126.279,0c0,0,2.449,9.659-30.282,46.46C75.121,69.932,82.645,106.77,82.645,106.77
					s0.164-6.423,37.552-45.769C120.196,61.001,134.255,51.198,126.279,0z"/>
			</g>
			<g>
				<path fill="#6A6967" d="M73.048,236.078c0,0,16.451-18.488,15.703-35.554c0.748-17.066-15.703-35.554-15.703-35.554
					s-16.451,18.488-15.703,35.554C56.598,217.59,73.048,236.078,73.048,236.078z"/>
				<path fill="#6A6967" d="M51.055,283.465c-0.976-1.381-2.009-2.8-3.103-4.258c-10.984-14.645-9.926-47.359-9.926-47.359
					s-17.546,20.833-8.718,44.595c0.864,2.325,1.908,4.675,3.089,7.022L51.055,283.465z"/>
				<path fill="#6A6967" d="M112.875,283.465c1.181-2.348,2.225-4.698,3.089-7.023c8.828-23.761-8.718-44.595-8.718-44.595
					s1.058,32.714-9.926,47.359c-1.094,1.458-2.127,2.877-3.103,4.258H112.875z"/>
				<path fill="#6A6967" d="M67.101,283.203c0,0,8.607-42.854-18.202-67.21C48.899,215.993,34.09,250.437,67.101,283.203z"/>
				<path fill="#6A6967" d="M78.996,283.203c0,0-8.607-42.854,18.202-67.21C97.198,215.993,112.007,250.437,78.996,283.203z"/>
			</g>
		</g>
	</g>
</g>
</svg>
