<?xml version="1.0" encoding="utf-8"?>
<!-- Generator: Adobe Illustrator 22.0.0, SVG Export Plug-In . SVG Version: 6.00 Build 0)  -->
<svg version="1.1" xmlns="http://www.w3.org/2000/svg" xmlns:xlink="http://www.w3.org/1999/xlink" x="0px" y="0px"
	 viewBox="0 0 283.5 283.5" enable-background="new 0 0 283.5 283.5" xml:space="preserve">
<g id="c2">
	<path fill="#353333" d="M0.018,246.891c2.878,5.36,7.719,12.76,15.582,19.676c13.659,12.014,28.489,15.573,35.572,16.78
		c-17.051,0-34.102,0-51.154,0C0.018,271.196,0.018,259.044,0.018,246.891z"/>
	<path fill="#353333" d="M241.465,283.348c4.246-1.993,9.744-4.96,15.656-9.301c3.373-2.476,8.44-6.24,13.354-11.967
		c3.711-4.325,9.476-12.266,13.007-24.394c0,15.221,0,30.441,0,45.662C269.476,283.348,255.471,283.348,241.465,283.348z"/>
	<path fill="#353333" d="M191.504,161.516c0.072-3.912-0.898-6.924-1.612-9.078c-0.399-1.204-4.658-22.05-5.411-27.746
		c-0.618-4.672-2.945-7.948-7.598-14.498c-2.006-2.823-4.314-6.025-8.289-9.32c-4.349-3.605-8.092-5.165-8.979-5.523
		c-0.688-0.278-2.863-1.128-5.871-1.726c-6.878-1.367-12.685-0.339-15.541,0.345c-4.846,1.16-9.228,2.21-12.778,5.868
		c-1.371,1.413-3.063,3.674-5.871,15.534c-2.946,12.442-1.531,11.845-3.454,16.915c-0.708,1.867-1.407,3.208-1.981,4.274
		c-3.024,5.62-3.143,5.928-4.187,7.539c-0.708,1.094-0.946,1.374-1.858,2.819c-0.906,1.436-1.547,2.548-1.99,3.318
		c-1.005,1.748-1.524,2.649-2.152,3.988c-0.214,0.456-0.431,0.93-0.845,1.889c-0.759,1.757-1.139,2.636-1.17,2.71
		c-0.362,0.86-1.502,3.572-2.223,6.043c-0.575,1.974-1.486,5.096-1.201,8.988c0.233,3.188,1.166,5.517,1.673,6.752
		c0.677,1.65,3.949,9.104,11.948,13.199c4.841,2.478,8.98,2.496,15.606,2.484c8.362-0.015,15.324-1.961,19.266-3.091
		c1.597-0.458,2.929-0.904,5.591-1.799c4.866-1.636,9.713-3.453,14.981-5.608c10.451-4.275,12.778-5.906,14.16-6.904
		c3.105-2.243,6.351-4.942,8.289-9.665C191.397,165.831,191.481,162.779,191.504,161.516z M177.228,167.841
		c-2.728,2.872-15.784,7.201-21.412,9.666c-0.216,0.095-0.432,0.185-0.649,0.273c-4.478,1.81-12.115,3.696-14.735,4.403
		c-1.656,0.447-2.582,0.412-6.029,0.502c-2.036,0.053-4.986,0.15-8.634,0.345c-3.578-0.31-6.24-1.383-7.837-2.18
		c-1.916-0.955-3.882-1.936-5.5-4.167c-0.431-0.594-2.096-3.012-2.204-6.425c-0.095-2.986,0.861-5.239,3.108-8.975
		c3.221-5.355,5.623-9.07,6.216-10.011c5.607-8.888,7.17-19.567,7.943-24.854c0.64-4.372,0.8-8.124,3.799-11.046
		c1.294-1.26,3.018-2.012,6.466-3.514c4.77-2.079,7.155-3.118,10.456-3.044c3.446,0.077,5.982,1.281,7.598,2.071
		c10.115,4.946,17.675,18.62,18.995,21.057c2.813,10.081,3.603,18.434,3.799,24.164
		C178.826,162.425,179.137,165.831,177.228,167.841z"/>
	<path fill="#353333" d="M251.826,126.073c-1.227-8.26-2.739-18.074-7.253-30.377c-3.489-9.508-6.429-17.293-13.469-25.199
		c-5.874-6.597-11.804-10.138-19.686-14.843c-5.334-3.185-12.373-7.388-22.448-10.356c-7.323-2.157-8.845-1.481-20.226-4.451
		c-9.365-2.444-9.521-3.212-16.036-4.869c-6.165-1.568-17.065-4.239-30.737-2.762c-4.806,0.52-14.082,1.608-24.175,6.904
		c-4.969,2.607-4.007,3.018-14.505,9.666c-11.934,7.557-13.978,7.532-16.577,11.391c-2.654,3.941-3.036,8.726-3.799,18.295
		c-0.766,9.603,0.269,10.86-0.345,21.057c-0.577,9.573-0.866,14.36-3.108,20.021c-1.682,4.246-2.706,4.728-10.015,16.569
		c-4.535,7.347-6.802,11.02-7.598,12.772c-6.449,14.204-4.382,28.139-3.799,31.758c0.694,4.305,2.304,8.623,5.526,17.26
		c3.494,9.367,6.135,16.446,11.397,24.854c3.643,5.821,7.368,11.772,14.505,17.605c1.814,1.483,7.799,6.186,16.923,9.665
		c5.123,1.954,9.687,2.932,13.124,3.452c15.541,0.168,31.081,0.336,46.622,0.504c6.525,0.498,16.372,0.506,27.675-2.568
		c7.693-2.093,12.711-4.734,22.749-10.017c11.842-6.232,22.077-11.62,33.155-21.747c6.405-5.856,11.798-10.877,16.232-19.331
		c1.48-2.823,4.467-9.105,6.562-23.819C253.384,171.413,255.734,152.391,251.826,126.073z M230.068,194.422
		c-1.042,1.83-2.691,4.662-5.871,7.249c-6.006,4.885-10.617,3.336-18.649,6.559c-8.318,3.337-7.09,6.493-15.887,11.046
		c-8.482,4.39-10.392,1.854-21.758,5.523c-13.251,4.277-13.06,8.508-26.247,12.772c-10.278,3.323-18.849,3.498-22.103,3.452
		c-7.443-0.106-19.469-0.277-30.046-7.594c-3.769-2.607-3.719-3.607-18.649-25.89c-10.683-15.943-12.667-18.354-14.16-24.509
		c-0.81-3.342-2.628-12.536,0.345-23.128c1.028-3.661,2.029-5.356,10.015-18.986c7.743-13.214,11.624-19.845,12.088-21.057
		c3.87-10.106,4.784-20.527,5.526-28.996c0.445-5.074,0.474-8.428,1.727-14.153c2.296-10.489,4.705-14.127,6.216-15.879
		c0.797-0.925,3.337-3.711,8.231-6.006c9.997-4.688,16.152-0.916,33.213-0.898c13.124,0.014,15.53-2.212,30.046-1.381
		c4.504,0.258,8.967,0.743,14.16,2.071c3.615,0.925,9.668,2.521,16.232,6.559c6.968,4.286,11.013,9.17,14.505,13.463
		c1.834,2.254,8.095,10.259,12.778,22.783c2.472,6.611,3.605,12.922,5.871,25.545c1.137,6.334,1.794,11.127,3.108,20.712
		c1.624,11.848,2.495,17.89,2.763,23.819C234.352,185.83,231.661,191.625,230.068,194.422z"/>
	<path fill="#353333" d="M0.018,121.93c2.962-7.708,6.615-12.918,9.365-16.224c4.839-5.818,8.427-7.598,11.742-13.808
		c1.331-2.493,2.448-5.382,3.799-12.772c4.178-22.856,0.72-26.967,4.835-36.936c3.408-8.256,8.849-13.312,13.469-17.605
		c8.141-7.564,15.975-10.995,24.175-14.498c8.464-3.616,21.071-7.984,37.299-10.069c-34.895,0-69.79,0-104.685,0
		C0.018,40.655,0.018,81.293,0.018,121.93z"/>
	<path fill="#353333" d="M211.419,0.018c15.545,3.725,27.362,6.385,37.58,8.521c7.281,1.522,14.517,2.939,18.714,8.797
		c0.387,0.541,0.248,0.42,5.871,10.701c3.345,6.116,3.666,6.656,4.49,8.285c1.438,2.845,3.413,7.043,5.409,12.427
		c0-16.244,0-32.487,0-48.731C259.461,0.018,235.44,0.018,211.419,0.018z"/>
</g>
<g id="c1">
	<path fill="#9D9FA2" d="M178.592,156.087c-0.196-5.73-0.986-14.083-3.799-24.164c-2.704-5.221-5.652-9.108-7.935-11.753
		c-3.171-3.674-6.085-6.982-11.06-9.304c-2.049-0.956-4.394-2-7.598-2.071c-3.301-0.074-5.686,0.966-10.456,3.044
		c-3.448,1.503-5.172,2.254-6.466,3.514c-2.999,2.922-3.159,6.674-3.799,11.046c-0.774,5.287-2.336,15.966-7.943,24.854
		c-0.593,0.941-2.995,4.656-6.216,10.011c-2.247,3.736-3.203,5.989-3.108,8.975c0.108,3.413,1.773,5.831,2.204,6.425
		c1.618,2.231,3.584,3.211,5.5,4.167c1.598,0.797,4.26,1.87,7.837,2.18c4.194-0.354,6.895-0.389,8.634-0.345
		c0.564,0.014,0.626,0.013,0.953,0.012c1.048-0.005,4.3-0.084,9.742-1.847c1.456-0.472,6.487-2.171,8-2.5
		c0.025-0.005,0.135-0.029,0.286-0.065c0.452-0.107,1.291-0.327,2.311-0.729c0.047-0.018,0.087-0.035,0.121-0.049
		c0.788-0.324,18.685-6.794,21.412-9.666C179.12,165.814,178.808,162.407,178.592,156.087z M164.777,159.884
		c-2.901,5.39-8.44,7.358-10.361,7.94c-2.282,0.772-5.601,1.617-9.67,1.726c-4.381,0.118-7.965-0.662-10.361-1.381
		c-0.924-0.077-4.626-0.487-6.907-3.452c-3.019-3.924-1.121-9.166-0.691-10.356c1.312-3.624,3.021-3.514,6.216-8.285
		c1.043-1.558,3.501-5.511,4.835-10.701c1.815-7.064,0.114-10.835,2.329-12.052c2.376-1.305,6.507,1.835,7.686,2.732
		c2.937,2.233,3.265,3.994,6.216,7.249c3.451,3.806,4.839,3.422,7.259,5.963C165.662,143.814,168.596,152.789,164.777,159.884z"/>
	<path fill="#9D9FA2" d="M233.504,167.479c-0.268-5.929-1.139-11.971-2.763-23.819c-1.314-9.585-1.971-14.377-3.108-20.712
		c-2.266-12.622-3.399-18.933-5.871-25.545c-4.683-12.523-10.944-20.529-12.778-22.783c-3.492-4.292-7.537-9.177-14.505-13.463
		c-6.564-4.037-12.617-5.634-16.232-6.559c-5.193-1.328-9.656-1.813-14.16-2.071c-14.517-0.831-16.923,1.394-30.046,1.381
		c-17.061-0.018-23.215-3.79-33.213,0.898c-4.893,2.295-7.433,5.081-8.231,6.006c-1.511,1.753-3.921,5.39-6.216,15.879
		c-1.253,5.725-1.282,9.079-1.727,14.153c-0.742,8.47-1.655,18.89-5.526,28.996c-0.464,1.212-4.345,7.843-12.088,21.057
		c-7.986,13.63-8.988,15.325-10.015,18.986c-2.973,10.592-1.156,19.787-0.345,23.128c1.493,6.154,3.477,8.566,14.16,24.509
		c14.931,22.283,14.881,23.283,18.649,25.89c10.577,7.317,22.603,7.488,30.046,7.594c3.254,0.046,11.825-0.129,22.103-3.452
		c13.188-4.264,12.997-8.495,26.247-12.772c11.365-3.669,13.276-1.133,21.758-5.523c8.797-4.553,7.569-7.709,15.887-11.046
		c8.033-3.223,12.643-1.673,18.649-6.559c3.18-2.587,4.829-5.419,5.871-7.249C231.644,191.607,234.334,185.812,233.504,167.479z
		 M218.999,160.575c-0.98,19.218,0.013,22.953-3.454,26.235c-1.69,1.6-4.695,2.447-10.706,4.142
		c-7.998,2.255-8.845,1.058-13.124,2.762c-6.065,2.415-5.959,5.458-14.505,12.082c-5.087,3.943-9.422,6.195-12.778,7.94
		c-4.784,2.486-10.965,5.698-19.686,7.594c-12.155,2.643-21.97,1.149-26.938,0.345c-3.895-0.63-7.522-1.24-12.088-3.107
		c-7.471-3.054-12.214-7.33-15.887-10.701c-5.514-5.061-9.773-8.97-12.778-15.534c-4.406-9.622-3.25-18.682-2.418-25.199
		c1.265-9.911,4.685-17.131,7.253-22.438c4.706-9.728,6.321-8.627,10.015-16.569c6.738-14.486,6.588-29.379,6.562-30.722
		c-0.16-8.157-1.826-13.225,1.036-21.057c1.093-2.99,2.242-6.133,5.18-8.63c4.086-3.471,8.319-2.877,23.83-2.416
		c19.99,0.594,16.815,0.035,21.827,0.883c14.509,2.455,24.84,8.311,28.906,10.815c9.991,6.153,16.145,13.001,18.339,15.572
		c3.509,4.112,5.84,7.74,7.253,10.011c1.942,3.123,4.871,7.89,7.253,14.498c1.182,3.28,0.815,3.088,3.454,13.463
		c2.782,10.937,3.335,11.719,3.799,15.534C219.822,150.002,219.479,151.166,218.999,160.575z"/>
	<g>
		<path fill="#9D9FA2" d="M278.055,36.304c-0.823-1.629-1.145-2.169-4.49-8.285c-5.623-10.281-5.484-10.16-5.871-10.701
			c-4.197-5.858-11.433-7.275-18.714-8.797C238.763,6.385,226.946,3.725,211.401,0H104.685C88.457,2.085,75.85,6.453,67.386,10.069
			c-8.201,3.504-16.034,6.934-24.175,14.498c-4.62,4.293-10.061,9.349-13.469,17.605c-4.115,9.969-0.657,14.08-4.835,36.936
			c-1.351,7.39-2.468,10.28-3.799,12.772c-3.315,6.21-6.903,7.99-11.742,13.808c-2.75,3.306-6.403,8.516-9.365,16.224v124.961
			c2.878,5.36,7.719,12.76,15.582,19.676c13.659,12.014,28.489,15.573,35.572,16.78h42.008c-14.504-4.022-25.329-9.88-32.338-14.364
			c-11.157-7.137-21.635-13.84-27.974-26.58c-3.202-6.435-1.947-7.575-7.253-20.712c-5.382-13.325-7.371-13.88-10.361-22.093
			c-5.13-14.09-4.385-26.489-3.799-36.246c0.679-11.303,1.23-20.481,6.562-30.722c2.684-5.157,6.275-9.995,12.433-18.295
			c7.976-10.75,9.821-11.652,11.397-16.569c2.344-7.314,0.029-10.827,0-21.747c0,0-0.032-12.113,3.454-23.473
			C53,27.374,91.797,15.38,113.319,12.485c16.437-2.211,32.406-0.408,42.134,0.69c5.621,0.635,14.37,1.655,25.557,4.488
			c6.936,1.757,23.026,6.291,41.789,16.569c9.28,5.084,21.685,11.994,34.881,24.854c12.803,12.477,20.863,25.207,25.785,34.52
			V48.731C281.468,43.347,279.493,39.149,278.055,36.304z"/>
		<path fill="#9D9FA2" d="M248.195,250.941c-6.2,4.782-11.679,7.24-22.635,12.157c-3.181,1.428-11.156,4.908-27.04,9.948
			c-9.681,3.072-22.484,6.781-37.887,10.284c26.938,0,53.876,0,80.814,0c3.41-1.59,7.971-3.973,12.994-7.42
			c5.176-3.551,12.881-8.938,19.598-18.452c2.9-4.108,6.821-10.692,9.425-19.79c0-17.183,0-34.366,0-51.549
			c-3.148,15.286-8.33,27.047-12.491,34.907C265.56,231.253,259.928,241.892,248.195,250.941z"/>
	</g>
</g>
<g id="c3">
	<path fill="#58585A" d="M219.362,146.094c-0.109-0.846-0.211-1.522-0.306-2.031c-0.468-2.503-1.267-4.754-3.493-13.503
		c-2.639-10.375-2.271-10.183-3.454-13.463c-2.382-6.608-5.311-11.375-7.253-14.498c-1.358-2.184-3.732-5.881-7.253-10.011
		c-2.344-2.749-9.16-10.327-20.401-16.797c-3.843-2.212-13.466-7.323-26.844-9.59c-4.737-0.803-1.975-0.293-21.827-0.883
		c-15.511-0.461-19.744-1.055-23.83,2.416c-2.939,2.496-4.087,5.64-5.18,8.63c-2.862,7.832-1.196,12.9-1.036,21.057
		c0.026,1.343,0.176,16.237-6.562,30.722c-3.694,7.943-5.31,6.841-10.015,16.569c-2.567,5.307-5.987,12.527-7.253,22.438
		c-0.832,6.518-1.989,15.578,2.418,25.199c3.006,6.563,7.265,10.473,12.778,15.534c3.672,3.371,8.415,7.647,15.887,10.701
		c4.566,1.867,8.192,2.476,12.088,3.107c4.969,0.804,14.783,2.298,26.938-0.345c8.721-1.896,14.902-5.109,19.686-7.594
		c3.357-1.744,7.691-3.997,12.778-7.94c8.546-6.624,8.44-9.667,14.505-12.082c4.278-1.704,5.126-0.506,13.124-2.762
		c6.011-1.695,9.016-2.542,10.706-4.142c0.505-0.479,0.916-0.967,1.252-1.511c3.603-5.842,0.903-12.569,2.202-24.724
		C219.387,157.129,220.19,152.491,219.362,146.094z M181.718,178.888c-4.207,3.378-7.874,4.623-14.16,6.904
		c-18.595,6.749-23.772,8.787-28.293,9.511c-1.337,0.214-2.36,0.26-3.272,0.339c-9.146,0.79-16.315,1.386-22.311-1.042
		c-8.501-3.443-15.271-13.244-15.25-22.25c0.013-5.34,2.415-11.011,4-14.75c1.641-3.873,3.652-7.363,3.652-7.363
		c1.428-2.48,1.601-2.402,3.848-6.137c1.226-2.038,2.213-3.872,4.187-7.539c0.574-1.066,1.272-2.407,1.981-4.274
		c1.923-5.07,0.508-4.473,3.454-16.915c2.808-11.86,4.5-14.121,5.871-15.534c3.55-3.659,7.932-4.708,12.778-5.868
		c2.856-0.684,8.664-1.713,15.541-0.345c3.008,0.598,5.184,1.448,5.871,1.726c0.888,0.359,4.63,1.918,8.979,5.523
		c3.975,3.295,6.283,6.497,8.289,9.32c4.653,6.551,6.98,9.826,7.598,14.498c0.551,4.167,3.524,23.966,5.314,27.542
		c0.056,0.111,0.074,0.141,0.098,0.204c0.475,1.253,3.141,8.647,0.381,16.081C188.422,173.505,184.955,176.289,181.718,178.888z"/>
	<path fill="#58585A" d="M257.697,59.105c-13.196-12.86-25.601-19.77-34.881-24.854c-18.763-10.278-34.852-14.813-41.789-16.569
		c-11.186-2.833-19.935-3.853-25.557-4.488c-9.728-1.098-25.697-2.901-42.134-0.69C91.815,15.398,53.018,27.391,45.3,52.546
		c-3.485,11.36-3.454,23.473-3.454,23.473c0.029,10.921,2.344,14.433,0,21.747c-1.576,4.917-3.421,5.82-11.397,16.569
		c-6.158,8.3-9.749,13.139-12.433,18.295c-5.331,10.242-5.883,19.42-6.562,30.722c-0.586,9.756-1.331,22.156,3.799,36.246
		c2.99,8.213,4.979,8.768,10.361,22.093c5.306,13.137,4.051,14.277,7.253,20.712c6.339,12.74,16.817,19.443,27.974,26.58
		c7.086,4.533,18.065,10.473,32.809,14.498c21.988-0.045,43.976-0.09,65.964-0.134c28.758-6.036,50.838-13.933,65.964-20.232
		c12.203-5.082,19.247-8.862,26.247-15.189c12.319-11.135,18.205-24.468,22.794-34.865c4.753-10.768,7.367-20.241,8.863-26.925
		c0-30.838,0-61.675,0-92.513C278.56,84.312,270.5,71.582,257.697,59.105z M252.516,177.507
		c-2.095,14.714-5.082,20.996-6.562,23.819c-4.433,8.454-9.827,13.475-16.232,19.331c-11.078,10.128-21.313,15.515-33.155,21.747
		c-10.038,5.283-15.056,7.925-22.749,10.017c-11.303,3.075-21.15,3.067-27.675,2.568c-15.541-0.168-31.081-0.336-46.622-0.504
		c-3.437-0.52-8.001-1.498-13.124-3.452c-9.124-3.48-15.108-8.183-16.923-9.665c-7.137-5.833-10.862-11.784-14.505-17.605
		c-5.262-8.408-7.903-15.488-11.397-24.854c-3.221-8.636-4.832-12.955-5.526-17.26c-0.583-3.619-2.65-17.554,3.799-31.758
		c0.795-1.752,3.063-5.425,7.598-12.772c7.309-11.841,8.333-12.323,10.015-16.569c2.243-5.662,2.531-10.448,3.108-20.021
		c0.615-10.197-0.421-11.454,0.345-21.057c0.763-9.57,1.145-14.355,3.799-18.295c2.599-3.859,4.643-3.835,16.577-11.391
		c10.498-6.647,9.536-7.058,14.505-9.666c10.093-5.296,19.369-6.384,24.175-6.904c13.672-1.478,24.572,1.193,30.737,2.762
		c6.516,1.657,6.672,2.425,16.036,4.869c11.381,2.97,12.903,2.294,20.226,4.451c10.075,2.968,17.114,7.171,22.448,10.356
		c7.881,4.706,13.812,8.247,19.686,14.843c7.04,7.907,9.98,15.691,13.469,25.199c4.514,12.303,6.026,22.117,7.253,30.377
		C255.734,152.391,253.384,171.413,252.516,177.507z"/>
	<path fill="#58585A" d="M140.186,123.341c-2.216,1.217-0.514,4.988-2.329,12.052c-1.334,5.19-3.792,9.144-4.835,10.701
		c-3.195,4.77-4.905,4.661-6.216,8.285c-0.431,1.19-2.328,6.432,0.691,10.356c2.281,2.965,5.983,3.375,6.907,3.452
		c2.395,0.719,5.98,1.499,10.361,1.381c4.069-0.109,7.389-0.954,9.67-1.726c1.92-0.582,7.46-2.549,10.361-7.94
		c3.818-7.095,0.885-16.07-3.447-20.617c-2.42-2.54-3.808-2.157-7.259-5.963c-2.952-3.255-3.279-5.016-6.216-7.249
		C146.693,125.176,142.562,122.036,140.186,123.341z"/>
</g>
</svg>
