<?xml version="1.0" encoding="utf-8"?>
<!-- Generator: Adobe Illustrator 22.0.0, SVG Export Plug-In . SVG Version: 6.00 Build 0)  -->
<svg version="1.1" xmlns="http://www.w3.org/2000/svg" xmlns:xlink="http://www.w3.org/1999/xlink" x="0px" y="0px"
	 viewBox="0 0 283.5 283.5" enable-background="new 0 0 283.5 283.5" xml:space="preserve">
<g id="c1">
	
		<rect x="0.026" y="0.046" transform="matrix(6.123234e-17 -1 1 6.123234e-17 -0.0043 283.49)" fill="#DEDEDE" width="283.435" height="283.402"/>
</g>
<g id="c4">
	<path fill="#9D9FA2" d="M234.224,264.887C105.74,198.894,82.831,82.197,82.831,82.197c131.393,42.33,180.023,148.9,180.023,148.9
		C220.076,95.048,283.5,0.065,283.5,0.065l0,283.435l-283.402,0v-0.006c128.076-57.807,234.116-18.199,234.116-18.199"/>
	<path fill="#FFFFFF" stroke="#000000" stroke-width="3.3333" stroke-miterlimit="10" d="M151.562,211.728"/>
</g>
<g id="c3">
	<path fill="#353333" d="M283.443,240.949c-23.478,0-42.51,19.035-42.51,42.515h42.532L283.443,240.949z"/>
</g>
<g id="c2">
	<path fill="#6A6967" d="M251.508,283.317c0-17.61,14.274-31.886,31.883-31.886l0.074,32.034L251.508,283.317z"/>
</g>
<g id="c5">
	<path fill="#FFFFFF" stroke="#000000" stroke-width="3.3333" stroke-miterlimit="10" d="M148.562,209.728"/>
	<path fill="#353333" d="M234.183,265.146C110.397,194.434,82.846,82.126,82.846,82.126
		c130.54,42.082,179.993,148.836,179.993,148.836C224.079,96.301,283.482,5.936,283.482,5.936V0.03l-6.856,0.01
		c-1.371,2.629-5.632,11.154-6.892,13.779c-0.12-0.055-0.241-0.107-0.365-0.157c-4.355-1.753-9.308,0.355-11.061,4.71
		c-1.733,4.304,0.307,9.191,4.56,10.997c-2.199,5.442-4.18,10.853-5.96,16.217c-4.213-1.37-8.827,0.74-10.507,4.911
		c-1.754,4.354,0.355,9.306,4.711,11.059c0.311,0.125,0.626,0.231,0.942,0.317c-1.497,5.647-2.784,11.218-3.887,16.689
		c-3.9-0.73-7.902,1.362-9.441,5.183c-1.754,4.354,0.355,9.306,4.711,11.059c0.613,0.247,1.237,0.417,1.862,0.515
		c-0.842,5.952-1.477,11.746-1.939,17.35c-3.555-0.22-7.006,1.827-8.409,5.311c-1.754,4.354,0.355,9.306,4.711,11.059
		c0.91,0.366,1.846,0.564,2.774,0.608c-0.166,6.199-0.136,12.074,0.03,17.57c-3.257,0.113-6.299,2.105-7.595,5.322
		c-1.754,4.354,0.355,9.306,4.711,11.059c1.27,0.511,2.591,0.694,3.868,0.589c1.072,12.428,2.648,21.587,3.525,26.345
		c0.148,0.805-0.907,1.238-1.379,0.567c-7.672-10.918-15.864-20.921-24.358-30.076c0.029-0.027,0.058-0.055,0.086-0.083
		c3.364-3.275,3.436-8.656,0.161-12.019c-3.275-3.363-8.658-3.435-12.022-0.161c-0.047,0.046-0.094,0.093-0.14,0.14
		c-4.185-4.023-8.418-7.857-12.673-11.511c0.017-0.02,0.033-0.04,0.05-0.06c2.98-3.627,2.456-8.983-1.172-11.963
		c-3.628-2.98-8.985-2.455-11.965,1.172c-0.035,0.043-0.07,0.086-0.104,0.129c-4.582-3.525-9.162-6.851-13.71-9.988
		c0.028-0.041,0.056-0.082,0.083-0.124c2.573-3.927,1.474-9.195-2.453-11.767s-9.197-1.474-11.77,2.453
		c-0.032,0.048-0.063,0.097-0.093,0.146c-5.005-3.091-9.931-5.954-14.737-8.604c0.019-0.035,0.038-0.07,0.056-0.106
		c2.164-4.166,0.54-9.297-3.627-11.46c-4.167-2.163-9.299-0.54-11.463,3.626c-0.017,0.032-0.033,0.065-0.05,0.097
		c-5.367-2.627-10.498-4.969-15.322-7.048c0.016-0.037,0.031-0.073,0.045-0.11c1.749-4.356-0.365-9.305-4.722-11.054
		s-9.307,0.365-11.056,4.721c-0.015,0.038-0.03,0.075-0.044,0.113c-6.596-2.45-12.124-4.252-16.265-5.506l0.001,0
		c0.156-0.645,0.239-1.318,0.239-2.011c0-4.694-3.806-8.499-8.501-8.499s-8.501,3.805-8.501,8.499c0,4.694,3.806,8.499,8.501,8.499
		c0.659,0,1.3-0.075,1.915-0.218c1.445,5.58,3.068,11.041,4.847,16.378c-4.296,1.647-6.513,6.431-4.961,10.787
		c1.576,4.422,6.439,6.729,10.861,5.154l0.002-0.001c2.15,5.275,4.443,10.416,6.853,15.417c-0.043,0.022-0.086,0.044-0.13,0.067
		c-4.153,2.19-5.744,7.331-3.554,11.483c2.19,4.152,7.359,5.722,11.512,3.532c2.888,5.185,5.885,10.198,8.957,15.035
		c-0.104,0.067-0.207,0.136-0.308,0.208c-3.838,2.704-4.756,8.007-2.051,11.844c2.705,3.837,8.009,4.755,11.846,2.051l0.007-0.005
		c3.393,4.762,6.831,9.32,10.273,13.666c-3.484,2.784-4.238,7.837-1.634,11.53c2.705,3.837,8.009,4.755,11.846,2.051
		c0.232-0.163,0.453-0.336,0.664-0.518c3.936,4.502,7.819,8.716,11.586,12.632c-2.918,2.865-3.417,7.503-0.984,10.954
		c2.705,3.837,8.009,4.755,11.846,2.051c0.442-0.311,0.845-0.657,1.209-1.031c12.299,11.636,22.185,19.327,26.713,22.692
		c0.691,0.513,0.23,1.591-0.624,1.474l-21.787,0.293c0.128-1.275-0.032-2.599-0.522-3.877c-1.678-4.384-6.592-6.579-10.977-4.901
		c-3.24,1.24-5.284,4.246-5.454,7.5c-5.493-0.261-11.368-0.393-17.57-0.335c-0.028-0.928-0.209-1.867-0.56-2.783
		c-1.678-4.384-6.592-6.579-10.977-4.901c-3.509,1.342-5.615,4.757-5.457,8.314c-5.612,0.365-11.417,0.898-17.383,1.637
		c-0.087-0.627-0.247-1.254-0.483-1.871c-1.678-4.384-6.592-6.579-10.977-4.901c-3.848,1.472-6.009,5.437-5.347,9.348
		c-5.49,1.007-11.083,2.197-16.757,3.596c-0.081-0.318-0.181-0.634-0.301-0.947c-1.678-4.384-6.592-6.579-10.977-4.901
		c-4.2,1.607-6.39,6.183-5.094,10.419c-5.394,1.686-10.84,3.572-16.32,5.676c-1.732-4.283-6.583-6.408-10.917-4.75
		c-4.385,1.678-6.579,6.592-4.902,10.976c0.048,0.124,0.098,0.247,0.15,0.367c-2.647,1.215-11.484,5.376-14.137,6.701v7.027h5.92
		C5.937,283.465,99.401,230.962,234.183,265.146z"/>
</g>
<g id="c6">
	<path fill="#353333" d="M283.423,0.03l-10.395,7.051l-38.98,0.096l-0.026,0c-3.527,27.919-27.357,49.511-56.231,49.511
		c-28.894,0-52.739-21.623-56.238-49.571l-54.569,0c-3.437,31.367-28.449,56.254-59.897,59.54l-0.001-0.009c0,0,0,53.515,0,53.514
		c28.101,3.357,49.887,27.276,49.887,56.284c0,29.005-21.782,52.922-49.878,56.283l-0.009,39.155l-0.066,2.626L0,280.695V0.03
		h283.402"/>
	<path fill="#FFFFFF" stroke="#000000" stroke-width="3.3333" stroke-miterlimit="10" d="M148.545,209.728"/>
</g>
<g id="c7">
	<g>
		<path fill="#6A6967" d="M0.028,226.034v-99.202c27.391,0,49.595,22.207,49.595,49.601S27.419,226.034,0.028,226.034"/>
		<path fill="#6A6967" d="M227.415,0c0,27.394-22.205,49.601-49.595,49.601S128.224,27.394,128.224,0"/>
		<path fill="#6A6967" d="M0.137,60.26c33.217,0,60.145-26.896,60.145-60.073L0.059,0.03L0.137,60.26z"/>
	</g>
</g>
<g id="c8">
	<path fill="#FFFFFF" stroke="#000000" stroke-width="3.3333" stroke-miterlimit="10" d="M148.545,209.728"/>
	<path fill="#353333" d="M39.01,0.178c0,21.524-17.446,38.972-38.968,38.972V0.03L39.01,0.178z"/>
</g>
<g id="c9">
	<path fill="#FFFFFF" stroke="#000000" stroke-width="3.3333" stroke-miterlimit="10" d="M148.545,209.728"/>
	<g>
		<path fill="#9D9FA2" d="M220.185,0c0,23.48-19.033,42.515-42.51,42.515S135.164,23.48,135.164,0H220.185z"/>
		<path fill="#9D9FA2" d="M0,134.087c23.478,0,42.51,19.035,42.51,42.515S23.478,219.118,0,219.118V134.087z"/>
		<path fill="#9D9FA2" d="M0.115,49.779c27.391,0,49.595-22.207,49.595-49.601L0.042,0.03L0.115,49.779z"/>
	</g>
</g>
<g id="c10">
	<path fill="#6A6967" d="M32.016,0.195c0,17.61-14.274,31.886-31.883,31.886L0.059,0.048L32.016,0.195z"/>
</g>
</svg>
