<?xml version="1.0" encoding="utf-8"?>
<!-- Generator: Adobe Illustrator 22.0.0, SVG Export Plug-In . SVG Version: 6.00 Build 0)  -->
<svg version="1.1" xmlns="http://www.w3.org/2000/svg" xmlns:xlink="http://www.w3.org/1999/xlink" x="0px" y="0px"
	 viewBox="0 0 283.5 283.5" enable-background="new 0 0 283.5 283.5" xml:space="preserve">
<g id="c1">
	<rect x="0" y="86.615" fill="#DCD9D5" width="283.099" height="196.885"/>
</g>
<g id="c2">
	
		<rect x="134.111" y="-62.6" transform="matrix(-1.836970e-16 1 -1 -1.836970e-16 220.8803 -62.6164)" fill="#6A6967" width="15.275" height="283.465"/>
	
		<rect x="134.127" y="-105.057" transform="matrix(-1.836970e-16 1 -1 -1.836970e-16 178.4397 -105.0891)" fill="#6A6967" width="15.275" height="283.465"/>
</g>
<g id="c3">
	<path fill="#DCD9D5" d="M0.008,0c0,9.679,0,19.359,0,29.038c94.444-0.151,188.887-0.302,283.331-0.453
		c0.045-9.522,0.089-19.045,0.134-28.567C188.984,0.012,94.496,0.006,0.008,0z"/>
	<rect x="0.008" y="44.313" fill="#DCD9D5" width="283.449" height="27.182"/>
</g>
<g id="c4">
	<path fill="#6A6967" d="M141.758,95.223c4.606,4.424,9.212,8.849,13.817,13.273c-1.554,7.853-3.107,15.706-4.661,23.559
		c3-6.439,6.336-11.344,8.988-14.766c2.108-2.72,4.213-5.441,7.657-8.461c5.515-4.836,10.879-7.329,13.649-8.461
		c2.27-0.928,7.708-2.948,14.981-3.484c11.803-0.869,21.001,2.737,24.968,4.314c6.066,2.412,6.136,3.603,16.978,8.295
		c7.319,3.168,10.216,3.893,13.649,3.65c5.635-0.398,10.458-3.246,11.652-3.982c4.909-3.026,5.941-5.82,7.657-5.309
		c2.548,0.759,4.014,8.026,1.46,13.417c-2.229,4.704-7.007,6.901-12.613,9.479c-3.388,1.558-6.375,2.456-8.489,2.986
		c1.623,3.521,5.758,13.712,3.163,26.546c-0.37,1.827-2.841,13.267-12.484,22.564c-4.486,4.325-9.461,7.14-11.806,8.362
		c-0.306,0.16-0.366,0.187-0.585,0.296c0,0-0.178,0.088-0.592,0.301c-6.623,3.407-10.836,7.632-10.836,7.632
		c-1.305,1.309-3.558,3.603-5.493,7.217c-1.79,3.345-2.389,6.105-3.246,10.203c-0.634,3.033-1.315,7.27-1.498,12.443
		c-3.94-0.116-6.324-1.594-7.341-2.339c-2.02-1.479-3.325-3.488-3.895-4.38c-1.862-2.916-1.594-4.246-2.857-4.814
		c-1.791-0.806-3.733,1.236-6.63,2.575c-2.486,1.149-6.22,2.032-11.735,0.932c-0.651-1.533-1.488-4.072-1.47-7.278
		c0.013-2.371,0.029-5.151,1.748-7.715c1.035-1.544,2.332-2.478,1.997-3.484c-0.217-0.652-0.957-0.843-2.122-1.369
		c0,0-1.652-0.745-4.397-2.737c-3.078-2.234-3.66-6.574-3.745-7.217c-0.764-5.781,3.209-9.913,3.745-10.452
		c4.435,4.695,8.915,6.571,11.357,7.366c3.702,1.206,6.827,1.268,10.614,1.344c2.484,0.05,6.952,0.114,11.985-0.995
		c11.707-2.582,19.215-9.917,21.073-11.821c7.701-7.891,10.038-16.442,10.486-18.167c0.831-3.199,2.319-9.226,0.499-16.674
		c-0.585-2.395-2.249-8.838-7.99-14.31c-4.661-4.443-9.649-5.995-12.731-6.915c-16.593-4.954-31.449,2.92-33.959,4.301
		c-6.789,3.738-10.674,8.11-14.856,12.817c-4.687,5.275-16.123,19.529-19.35,40.192c-0.328,2.101-1.336,9.161-0.624,18.292
		c0.384,4.924,0.731,8.984,2.622,14.102c2.7,7.307,6.684,11.761,7.615,12.775c3.164,3.444,6.416,5.639,8.739,6.968
		c-2.122,1.866-4.245,3.733-6.367,5.599c-2.068,0.12-5.667,0.611-9.488,2.738c-5.705,3.176-8.331,8.009-9.24,9.913
		c-0.909-1.904-3.534-6.737-9.24-9.913c-3.821-2.127-7.42-2.618-9.488-2.738c-2.122-1.866-4.245-3.733-6.367-5.599
		c2.323-1.329,5.575-3.524,8.739-6.968c0.931-1.014,4.916-5.468,7.615-12.775c1.891-5.118,2.238-9.179,2.622-14.102
		c0.711-9.131-0.296-16.19-0.624-18.292c-3.227-20.663-14.663-34.917-19.35-40.192c-4.182-4.707-8.066-9.079-14.856-12.817
		c-2.51-1.382-17.366-9.255-33.959-4.301c-3.082,0.92-8.069,2.471-12.731,6.915c-5.74,5.472-7.404,11.915-7.99,14.31
		c-1.82,7.448-0.331,13.475,0.499,16.674c0.448,1.726,2.786,10.276,10.486,18.167c1.858,1.904,9.366,9.24,21.073,11.821
		c5.033,1.11,9.5,1.045,11.985,0.995c3.787-0.076,6.912-0.138,10.614-1.344c2.442-0.795,6.923-2.671,11.357-7.366
		c0.536,0.54,4.509,4.671,3.745,10.452c-0.085,0.643-0.667,4.983-3.745,7.217c-2.745,1.992-4.397,2.737-4.397,2.737
		c-1.165,0.526-1.905,0.716-2.122,1.369c-0.335,1.006,0.962,1.94,1.997,3.484c1.719,2.563,1.734,5.344,1.748,7.715
		c0.018,3.206-0.819,5.745-1.47,7.278c-5.515,1.1-9.249,0.217-11.735-0.932c-2.898-1.339-4.839-3.381-6.63-2.575
		c-1.263,0.569-0.995,1.899-2.857,4.814c-0.57,0.892-1.875,2.901-3.895,4.38c-1.017,0.745-3.401,2.223-7.341,2.339
		c-0.183-5.173-0.864-9.41-1.498-12.443c-0.856-4.099-1.455-6.859-3.246-10.203c-1.935-3.614-4.188-5.908-5.493-7.217
		c0,0-4.213-4.225-10.836-7.632c-0.415-0.213-0.592-0.301-0.592-0.301c-0.219-0.109-0.279-0.137-0.585-0.296
		c-2.345-1.222-7.32-4.037-11.806-8.362c-9.643-9.296-12.114-20.736-12.484-22.564c-2.595-12.834,1.54-23.025,3.163-26.546
		c-2.115-0.53-5.102-1.429-8.489-2.986c-5.605-2.577-10.384-4.775-12.613-9.479c-2.554-5.391-1.088-12.657,1.46-13.417
		c1.716-0.511,2.748,2.283,7.657,5.309c1.194,0.736,6.017,3.583,11.652,3.982c3.433,0.243,6.33-0.482,13.649-3.65
		c10.842-4.693,10.912-5.884,16.978-8.295c3.966-1.577,13.164-5.183,24.968-4.314c7.273,0.536,12.711,2.556,14.981,3.484
		c2.77,1.132,8.134,3.626,13.649,8.461c3.444,3.02,5.548,5.742,7.657,8.461c2.653,3.422,5.989,8.327,8.988,14.766
		c-1.554-7.853-3.107-15.706-4.661-23.559C132.546,104.071,137.152,99.647,141.758,95.223z"/>
</g>
<g id="c5">
	<path fill="#6A6967" d="M134.335,283.5c0.195-1.922,0.326-4.669-0.039-7.923c-0.322-2.872-1.199-10.675-6.203-16.839
		c-7.995-9.847-22.266-10.263-25.176-10.347c-1.599-0.047-5.653-0.032-13.763-0.003c-2.582,0.009-4.712,0.022-6.141,0.032
		c-2.132-4.575-4.797-9.579-8.138-14.796c-2.159-3.371-4.346-6.433-6.484-9.197l0,0c-0.027-0.032-4.124-4.818-8.95-9.024
		c-24.189-21.08-51.916-22.136-59.424-22.179V283.5H134.335z"/>
	<path fill="#6A6967" d="M149.198,283.5c-0.195-1.922-0.326-4.669,0.039-7.923c0.322-2.872,1.199-10.675,6.203-16.839
		c7.995-9.847,22.266-10.263,25.176-10.347c1.599-0.047,5.653-0.032,13.763-0.003c2.582,0.009,4.712,0.022,6.141,0.032
		c2.133-4.575,4.797-9.579,8.138-14.796c2.159-3.371,4.346-6.433,6.484-9.197l0,0c0.027-0.032,4.124-4.818,8.95-9.024
		c24.189-21.08,51.916-22.136,59.424-22.179V283.5H149.198z"/>
</g>
<g id="c6">
	<path fill="#DCD9D5" d="M76.251,283.492c-38.117-0.002-73.149,0.007-76.235,0.008c0-25.326,0-50.652,0-75.978
		c6.76,0.164,29.639,1.559,49.814,19.028c15.36,13.3,21.265,29.088,23.425,36.128c8.934-0.045,17.867-0.09,26.801-0.135
		c1.031-0.113,9.43-0.892,15.312,5.196c0,0,4.507,4.665,4.994,11.116c0.119,1.572,0.018,3.332,0.018,3.332
		c-0.028,0.485-0.066,0.924-0.108,1.313C119.242,283.499,98.261,283.494,76.251,283.492z"/>
	<path fill="#DCD9D5" d="M207.281,283.492c38.117-0.002,73.149,0.007,76.235,0.008c0-25.326,0-50.652,0-75.978
		c-6.76,0.164-29.639,1.559-49.814,19.028c-15.36,13.3-21.265,29.088-23.425,36.128c-8.934-0.045-17.867-0.09-26.801-0.135
		c-1.031-0.113-9.43-0.892-15.312,5.196c0,0-4.507,4.665-4.994,11.116c-0.119,1.572-0.018,3.332-0.018,3.332
		c0.028,0.485,0.066,0.924,0.108,1.313C164.29,283.499,185.271,283.494,207.281,283.492z"/>
</g>
<g id="c7">
	<path fill="#6A6967" d="M56.443,283.5c-18.809-0.003-37.618-0.006-56.427-0.009c0.01-18.745,0.021-37.49,0.031-56.235
		c3.913-0.044,23.233,0.144,39.189,15.328C56.369,258.889,56.483,279.975,56.443,283.5z"/>
	<path fill="#6A6967" d="M227.089,283.5c18.809-0.003,37.618-0.006,56.427-0.009c-0.01-18.745-0.021-37.49-0.031-56.235
		c-3.913-0.044-23.233,0.144-39.189,15.328C227.163,258.889,227.049,279.975,227.089,283.5z"/>
</g>
<g id="c8">
	<path fill="#DCD9D5" d="M0.008,283.5c0-7.67,0-15.341,0-23.011c1.201-1.608,3.857-4.664,8.323-6.346
		c0.782-0.294,8.64-3.103,15.646,1.327c2.722,1.722,4.168,3.825,4.494,4.314c4.693,7.042,1.235,15.382,0.999,15.926
		c-1.822,4.188-4.889,6.625-6.616,7.778C15.238,283.492,7.623,283.496,0.008,283.5z"/>
	<path fill="#DCD9D5" d="M283.508,283.5c0-7.67,0-15.341,0-23.011c-1.201-1.608-3.857-4.664-8.323-6.346
		c-0.782-0.294-8.64-3.103-15.646,1.327c-2.722,1.722-4.168,3.825-4.494,4.314c-4.693,7.042-1.235,15.382-0.999,15.926
		c1.822,4.188,4.889,6.625,6.616,7.778C268.278,283.492,275.893,283.496,283.508,283.5z"/>
</g>
</svg>
