<?xml version="1.0" encoding="utf-8"?>
<!-- Generator: Adobe Illustrator 22.0.0, SVG Export Plug-In . SVG Version: 6.00 Build 0)  -->
<svg version="1.1" xmlns="http://www.w3.org/2000/svg" xmlns:xlink="http://www.w3.org/1999/xlink" x="0px" y="0px"
	 viewBox="0 0 283.5 283.5" enable-background="new 0 0 283.5 283.5" xml:space="preserve">
<g id="c2">
	<path fill-rule="evenodd" clip-rule="evenodd" fill="#9D9FA2" d="M72.463,283.465l76.851-77.278c0,0,16.958-14.893,2.068-34.916
		l-19.523-19.857l19.688-20.354l21.343,19.692c0,0,16.214,12.742,30.608,0.993c0,0,80.077-80.092,80.077-80.092V33.917
		l-66.51,65.654c0,0-28.044,21.223-64.525-3.475l-56.583,55.353c0,0,23.576,39.467,4.715,64.04L35.402,283.5h37.06L72.463,283.465z"
		/>
	<polygon fill-rule="evenodd" clip-rule="evenodd" fill="#9D9FA2" points="110.258,283.465 190.293,204.531 190.293,188.645 
		204.894,188.645 283.482,109.547 283.482,147.441 149.221,283.465 	"/>
	<polygon fill-rule="evenodd" clip-rule="evenodd" fill="#9D9FA2" points="184.958,283.465 283.482,185.667 283.482,223.52 
		224.665,283.465 	"/>
</g>
<g id="c1">
	<polygon fill-rule="evenodd" clip-rule="evenodd" fill="#353333" points="283.652,283.465 283.652,223.52 224.836,283.465 	"/>
	<path fill-rule="evenodd" clip-rule="evenodd" fill="#353333" d="M283.652,109.547l-78.588,79.099h-14.601v15.886l-80.036,78.933
		H72.54l76.851-77.278c0,0,16.958-14.893,2.068-34.916l-19.523-19.857l19.688-20.354l21.343,19.692c0,0,16.214,12.742,30.608,0.993
		l80.077-80.092V109.547z"/>
	<path fill-rule="evenodd" clip-rule="evenodd" fill="#353333" d="M283.67,33.886L217.14,99.548c0,0-28.052,21.225-64.545-3.475
		l-56.601,55.359c0,0,23.584,39.472,4.717,64.048L35.421,283.5H0.17l37.982-39.72c0,0-24.577-27.804-6.454-64.048l135.544-137.53
		c0,0,27.804-37.982,78.198-5.461L283.67,0V33.886z M223.842,57.718l-26.376,23.646c0,0-16.074,5.027-24.266-6.268l23.335-23.211
		C196.535,51.884,211.182,44.437,223.842,57.718z M53.065,194.627l23.211-23.335c11.295,8.192,6.268,24.266,6.268,24.266
		l-23.646,26.376C45.617,209.274,53.065,194.627,53.065,194.627z"/>
	<polygon fill-rule="evenodd" clip-rule="evenodd" fill="#353333" points="149.391,283.465 283.652,147.441 283.652,185.667 
		185.128,283.465 	"/>
</g>
<g id="c3">
	<polygon fill-rule="evenodd" clip-rule="evenodd" fill="#DEDEDE" points="0.031,0 0.031,59.945 58.848,0 	"/>
	<path fill-rule="evenodd" clip-rule="evenodd" fill="#DEDEDE" d="M245.232,36.739C194.838,4.22,167.034,42.2,167.034,42.2
		L31.49,179.721c-18.122,36.242,6.454,64.044,6.454,64.044l-37.982,39.717l0-112.201L170.509,0l112.953,0L245.232,36.739z"/>
	<g>
		<path fill-rule="evenodd" clip-rule="evenodd" fill="#DEDEDE" d="M223.582,57.738l-26.368,23.643c0,0-16.069,5.026-24.259-6.267
			l23.328-23.208C196.283,51.905,210.925,44.459,223.582,57.738z"/>
		<path fill-rule="evenodd" clip-rule="evenodd" fill="#DEDEDE" d="M52.857,194.63l23.204-23.332
			c11.292,8.191,6.266,24.263,6.266,24.263l-23.638,26.373C45.411,209.275,52.857,194.63,52.857,194.63z"/>
	</g>
	<polygon fill-rule="evenodd" clip-rule="evenodd" fill="#DEDEDE" points="0.031,97.798 0.031,136.023 134.293,0 98.556,0 	"/>
</g>
<g id="c4">
	<polygon fill-rule="evenodd" clip-rule="evenodd" fill="#58585A" points="0.103,136.023 0.034,171.281 170.581,0 134.365,0 	"/>
	<polygon fill-rule="evenodd" clip-rule="evenodd" fill="#58585A" points="0.103,59.945 0.103,97.798 98.628,0 58.92,0 	"/>
</g>
</svg>
