<?xml version="1.0" encoding="utf-8"?>
<!-- Generator: Adobe Illustrator 22.0.0, SVG Export Plug-In . SVG Version: 6.00 Build 0)  -->
<svg version="1.1" xmlns="http://www.w3.org/2000/svg" xmlns:xlink="http://www.w3.org/1999/xlink" x="0px" y="0px"
	 viewBox="0 0 283.465 283.465" enable-background="new 0 0 283.465 283.465" xml:space="preserve">
<g id="c1">
	<rect x="0" y="0" fill="#DEDEDE" width="283.465" height="283.465"/>
</g>
<g id="c2">
	<path fill="#58585A" d="M283.465,146.726c-7.274,3.326-12.124,17.874-12.168,18.052c-1.784,7.271-16.304,5.73-17.597,7.99
		c-2.166,0.998,6.077,13.567,11.831,30.863c5.27,15.84,8.805,35.27,8.082,46.337c-0.092,1.414-5.381,0.055-8.415,5.532
		c-2.364,4.268-13.873-12.478-24.996-32.07c-5.577-9.822-9.065-19.267-14.997-26.08c-3.962-4.55-5.999,8.735-11.794,5.39
		c-9.619-5.553-18.326-24.606-27.445-16.624c-7.995,9.105,11.089,17.799,16.65,27.403c3.351,5.786-9.955,7.82-5.398,11.776
		c6.823,5.923,16.283,9.406,26.121,14.974c19.622,11.106,36.394,22.596,32.12,24.957c-5.486,3.029-4.125,8.31-5.541,8.402
		c-11.084,0.722-30.544-2.808-46.409-8.069c-17.323-5.745-29.912-13.976-30.911-11.813c-2.264,1.292-0.721,15.789-8.003,17.57
		c-0.179,0.044-14.749,4.886-18.08,12.149h136.951V146.726z"/>
</g>
<g id="c3">
	<path fill="#9D9FA2" d="M225.319,257.618c0,0-57.002-10.226-61.156-32.646c-1.666-8.994,2.5-19.487,11.165-18.655
		c6.29,0.604,13.767,5.349,13.998,10.993c0.333,8.161-8.015,5.306-6.332,11.659C184.493,234.633,212.155,248.791,225.319,257.618z"
		/>
	<path fill="#9D9FA2" d="M256.841,223.893c0,0-10.231-56.975-32.661-61.127c-8.998-1.666-19.497,2.498-18.663,11.159
		c0.605,6.287,5.352,13.761,10.998,13.991c8.165,0.333,5.308-8.011,11.665-6.329C233.845,183.086,248.009,210.735,256.841,223.893z"
		/>
</g>
<g id="c4">
	<path fill="#9D9FA2" d="M265.184-0.136c1.505,86.361-24.581,115.36-24.581,115.36c-10.535-7.833-24.246-14.999-24.246-14.999
		c-6.187-79.164-52.088-96.33-52.088-96.33c-30.698,11.916-65.478,57.131-75.515,85.514l0.324,0.323
		c-29.75,7.877-77.26,43.122-85.179,74.941c0,0,17.223,45.748,96.651,51.915c0,0,7.19,13.666,15.049,24.166
		c0,0-29.079,25.351-115.728,23.851l-0.017,18.713h115.243c0,0,34.112-14.232,50.917-35.231c0,0-33.36-36.499-31.186-41.332
		c0,0,29.606-15.118,42.824-29.683l0,0c14.46-13.383,28.837-42.682,28.837-42.682c4.849-2.167,41.469,31.082,41.469,31.082
		c21.069-16.749,35.348-50.748,35.348-50.748V-0.136H265.184z"/>
</g>
<g id="c5">
	<g>
		<path fill="#303032" d="M-0.138,283.318l0-8.227c29.735-0.749,97.973-0.248,128.218-32.977c0,0-39.627-38.438-31.294-122.134
			l18.575-4.5c-15.016,80.632,26.209,118.972,38.672,129.965c0,0-24.33,27.898-75.988,37.873L-0.138,283.318z"/>
		<path fill="#303032" d="M283.283-0.145l-8.231,0c-0.75,29.721-0.252,97.927-32.996,128.157c0,0-38.08-39.01-121.816-30.684
			l-4.877,17.967c80.67-15.006,119.028,26.2,130.025,38.658c0,0,27.912-24.317,37.894-75.95L283.283-0.145z"/>
	</g>
	<path fill="#303032" d="M165.711,16.268c0,0-32.896,13.59-70.406,79.065c-65.506,37.493-79.059,70.414-79.059,70.414
		c30.661,40.974,81.653,42.14,81.653,42.14l-3.833-11.159c-50.825-9.327-60.656-33.478-60.656-33.478
		c9.332-18.655,56.761-58.192,73.255-56.564l-0.043-0.043c-1.625-16.488,37.928-63.891,56.591-73.218
		c0,0,24.163,9.827,33.494,60.628l11.165,3.831C207.871,97.882,206.704,46.915,165.711,16.268z"/>
	<path fill="#303032" d="M132.815,199.321c0,0-1.838-4.179-4.249-13.491c0,0,32.669-14.362,56.414-59c0,0,6.242,1.01,14.573,5.034
		C199.553,131.865,186.056,170.756,132.815,199.321z"/>
</g>
<g id="c7">
	<path fill="#DEDEDE" d="M87.472,124.861c-34.327,24.151-42.493,37.143-42.493,37.143c14.331,20.154,47.325,23.985,47.325,23.985
		C85.972,169.999,87.472,124.861,87.472,124.861z"/>
	<path fill="#DEDEDE" d="M124.601,86.474c24.486-34.081,37.561-42.119,37.561-42.119c20.027,14.514,23.547,47.528,23.547,47.528
		C169.772,85.402,124.601,86.474,124.601,86.474z"/>
	<path fill="#DEDEDE" d="M125.715,175.912c0,0-7.249-28.125-1.441-53.774c0,0,25.562-2.19,51.932,2.807
		C176.207,124.944,159.46,156.299,125.715,175.912z"/>
</g>
<g id="c8">
	<path fill="#58585A" d="M-0.283,181.163c14.98,0.874,23.853,28.981,33.227,32.646c3.873,1.514,11.46-1.439,11.679,3.001
		c0.333,6.746-4.87,5.254-4.68,9.657c0.25,5.788,14.622,16.344,35.661,15.657c3.142-0.103-5.666-11.305,0.396-19.425
		c2.842-3.808,19.559,0.75,16.935,13.429c-1.583,7.647-14.06,15.615-29.328,14.324c-24.687-2.087-35.827-7.495-49.658-17.655
		c-0.963-0.707,4.624,19.945-14.23,22.985V181.163z"/>
	<path fill="#58585A" d="M181.019-0.139c0.874,14.98,28.981,23.853,32.646,33.227c1.514,3.873-1.439,11.46,3.001,11.679
		c6.746,0.333,5.254-4.87,9.657-4.68c5.788,0.25,16.344,14.623,15.657,35.661c-0.103,3.142-11.305-5.666-19.425,0.396
		c-3.808,2.842,0.75,19.559,13.429,16.935c7.647-1.583,15.615-14.06,14.324-29.328c-2.087-24.687-7.495-35.827-17.655-49.658
		c-0.707-0.963,19.945,4.624,22.985-14.23H181.019z"/>
</g>
<g id="c9">
	<path fill="#303032" d="M138.665,0.002c-67.844,0-67.844,0-138.663,0c0,70.818,0,70.818,0,138.661c0,0,13.584,2.744,15.579-10.476
		c0.573-3.796-5.943-5.242-9.728-10.975c-0.815-1.235-0.382-3.243-0.748-10.975C4.622,96.023,5.53,94.517,7.335,94.967
		c5.69,1.419,6.489,1.546,7.748,7.841c2.307,11.536,9.047,10.363,11.474,10.663c5.051,0.624,12.222-4.552,11.723-12.471
		c-0.35-5.559-6.362-9.256-10.725-9.229c-3.52,0.022-6.689,2.596-10.975-0.811c-2.432-1.933-6.984-3.554-8.356-8.73
		c-1.206-4.548-1.255-3.126-1.122-18.145c0.118-13.294-0.186-15.921,1.497-20.951c1.564-4.675,3.755-9.887,8.231-11.723
		c9.728-3.991,14.625,6.668,13.22,9.478c-1.122,2.245-6.797-0.686-8.73,3.242c-2.473,5.026,1.621,11.723,0,19.455
		c-0.834,3.977-4.197,4.749-3.741,7.483c0.561,3.365,7.21,6.382,9.88,6.648c8.139,0.81,14.154-0.991,16.808-2.408
		c2.363-1.261,6.371-3.4,6.236-5.986c-0.158-3.016-5.808-3.884-6.236-7.981c-0.144-1.379,0.294-3.216,1.497-3.991
		c2.808-1.809,10.084,1.982,13.718,7.732c4.506,7.128,0.806,13.138,4.739,16.462c3.916,3.309,13.019,1.945,15.523-1.805
		c3.749-2.503,5.114-11.606,1.805-15.523c-3.324-3.933-9.334-0.233-16.462-4.739c-5.75-3.634-9.542-10.91-7.732-13.718
		c0.775-1.202,2.612-1.64,3.991-1.497c4.097,0.428,4.965,6.078,7.982,6.236c2.586,0.135,4.725-3.872,5.986-6.236
		c1.417-2.654,3.218-8.669,2.408-16.808c-0.266-2.671-3.283-9.319-6.648-9.88c-2.734-0.456-3.506,2.907-7.483,3.741
		c-7.732,1.621-14.429-2.473-19.455,0c-3.928,1.933-0.998,7.607-3.243,8.73c-2.81,1.405-13.469-3.492-9.478-13.219
		c1.836-4.476,7.048-6.667,11.723-8.231c5.03-1.683,7.658-1.379,20.952-1.497c15.02-0.133,13.598-0.083,18.146,1.122
		c5.176,1.372,6.797,5.924,8.73,8.356c3.407,4.286,0.832,7.455,0.811,10.975c-0.027,4.363,3.67,10.375,9.229,10.725
		c7.919,0.499,13.095-6.672,12.471-11.723c-0.3-2.427,0.873-9.166-10.663-11.473c-6.296-1.259-6.423-2.058-7.841-7.748
		c-0.45-1.805,1.056-2.713,11.271-2.229c7.732,0.366,9.74-0.067,10.975,0.748c5.733,3.784,7.179,10.3,10.975,9.727
		C141.409,13.585,138.665,0.002,138.665,0.002z"/>
</g>
</svg>
