<?xml version="1.0" encoding="utf-8"?>
<!-- Generator: Adobe Illustrator 22.0.0, SVG Export Plug-In . SVG Version: 6.00 Build 0)  -->
<svg version="1.1" xmlns="http://www.w3.org/2000/svg" xmlns:xlink="http://www.w3.org/1999/xlink" x="0px" y="0px"
	 viewBox="0 0 283.5 283.5" enable-background="new 0 0 283.5 283.5" xml:space="preserve">
<g id="c1">
	<polygon fill="#9D9FA2" points="283.482,283.464 283.482,0 0.018,283.464 	"/>
</g>
<g id="c10">
	<polygon fill="#DEDEDE" points="0.018,0 0.018,283.464 283.482,0 	"/>
</g>
<g id="c3">
	<path fill="#FFFFFF" stroke="#000000" stroke-width="0.1417" stroke-miterlimit="10" d="M61.203,255.689"/>
	<path fill="#353333" d="M283.482,283.482V180.018l-9.609-18.021c2.528-2.41,4.103-5.811,4.103-9.58
		c0-4.952-2.72-9.268-6.747-11.538c0.102,0.608,0.154,1.233,0.154,1.87c0,3.481-1.578,6.593-4.057,8.66
		c-8.596-12.247-22.967-20.548-39.033-20.548c-6.043,0-11.798,1.553-16.87,4.27c-4.189,2.478-7.898,5.916-10.768,10.246
		c-9.056,13.659-6.719,31.554,4.74,42.484c2.779,2.596,5.291,4.848,7.601,6.815c3.493,2.975,5.046,3.701,10.375,7.708
		c1.877,1.411,5.469,2.932,6.376,7.008c1.78,7.992,2.47,16.794,2.71,17.396c5.926-3.685,9.208-9.196,9.629-15.56
		c0.38-5.75-1.128-7.904-2.078-11.369c4.255-4.121,6-9.935,6-16.381c0-7.87-3.95-14.803-9.946-18.857
		c0.371,1.245,0.571,2.564,0.571,3.929c0,7.577-6.142,13.719-13.719,13.719s-13.719-6.142-13.719-13.719
		c0-11.741,10.337-21.689,22.078-21.689c18.395,0,33.307,14.912,33.307,33.307c0,7.368-2.397,14.174-6.448,19.69l16.844-4.252
		v51.024l-16.844-14.173v25.625l-0.051,0.051h-25.625l14.173,16.844h-51.024l4.252-16.844c-5.516,4.05-12.322,6.448-19.69,6.448
		c-18.395,0-33.307-14.912-33.307-33.307c0-11.741,9.947-22.078,21.689-22.078c7.577,0,13.719,6.142,13.719,13.719
		s-6.142,13.719-13.719,13.719c-1.366,0-2.685-0.2-3.929-0.571c4.053,5.996,10.987,9.946,18.857,9.946c6.447,0,12.26-1.745,16.381-6
		c3.465,0.95,5.619,2.458,11.369,2.078c6.364-0.421,11.875-3.703,15.56-9.629c-0.602-0.24-9.404-0.93-17.396-2.71
		c-4.075-0.908-5.597-4.5-7.008-6.376c-4.007-5.329-4.733-6.882-7.708-10.375c-1.968-2.31-4.219-4.821-6.815-7.601
		c-10.93-11.459-28.825-13.796-42.484-4.74c-4.329,2.87-7.767,6.579-10.246,10.768c-2.717,5.072-4.27,10.827-4.27,16.87
		c0,16.066,8.3,30.437,20.548,39.033c-2.067,2.479-5.18,4.057-8.66,4.057c-0.637,0-1.262-0.053-1.87-0.154
		c2.269,4.027,6.586,6.747,11.538,6.747c3.769,0,7.169-1.575,9.58-4.103l18.021,9.609H283.482z"/>
</g>
<g id="c2">
	<path fill="#6A6967" d="M283.465,283.464h-28.346c0-15.655,12.624-28.346,28.196-28.346c0.051,0,0.1,0.004,0.151,0.004V283.464z"/>
</g>
<g id="c4">
	<path fill="#FFFFFF" stroke="#000000" stroke-width="0.1417" stroke-miterlimit="10" d="M255.635,61.309"/>
	<path fill="#FFFFFF" stroke="#000000" stroke-width="0.1417" stroke-miterlimit="10" d="M61.203,255.689"/>
	<polygon fill="#6A6967" points="29.782,267.892 42.538,283.482 0.018,283.482 0.018,240.963 15.609,253.718 15.609,267.892 	"/>
	<path fill="#FFFFFF" stroke="#000000" stroke-width="0.1417" stroke-miterlimit="10" d="M27.696,222.191"/>
	<path fill="#FFFFFF" stroke="#000000" stroke-width="0.1417" stroke-miterlimit="10" d="M222.128,27.811"/>
	<polygon fill="#6A6967" points="267.892,29.782 283.482,42.537 283.482,0.018 240.963,0.018 253.719,15.608 267.892,15.608 	"/>
</g>
<g id="c7">
	
		<ellipse transform="matrix(0.7311 -0.6823 0.6823 0.7311 -121.198 108.4609)" fill="#DEDEDE" cx="76.983" cy="207.97" rx="58.748" ry="37.45"/>
	
		<ellipse transform="matrix(0.7311 -0.6823 0.6823 0.7311 4.0093 162.8268)" fill="#DEDEDE" cx="208.55" cy="76.328" rx="58.748" ry="37.45"/>
	<path fill="#FFFFFF" stroke="#000000" stroke-width="0.1417" stroke-miterlimit="10" d="M257.012,61.309"/>
	<path fill="#FFFFFF" stroke="#000000" stroke-width="0.1417" stroke-miterlimit="10" d="M62.58,255.689"/>
	<path fill="#FFFFFF" stroke="#000000" stroke-width="0.1417" stroke-miterlimit="10" d="M29.073,222.191"/>
	<path fill="#FFFFFF" stroke="#000000" stroke-width="0.1417" stroke-miterlimit="10" d="M223.505,27.811"/>
</g>
<g id="c5">
	<path fill="#6A6967" d="M95.334,95.409c2.33,1.064,17.22,7.464,28.736,11.345c13.167,4.437,28.491,7.655,28.491,7.655l-0.111-5.086
		c0-31.726,14.347-59.709,35.939-79.682c9.122-8.438,21.093-13.962,34.501-13.962c9.95,0,19.216,2.929,26.982,7.973
		c-2.777,3.87-6.613,7.072-11.002,9.303c-4.567-2.145-9.667-3.344-15.046-3.344c-13.494,0-25.227,7.543-31.211,18.644l0.039,0.007
		c5.138,0.178,9.416,3.739,10.674,8.525c-11.454,0-21.516,6.794-25.987,16.571c-5.678,12.885-8.966,27.035-9.12,41.995l0.002,0.002
		c14.959-0.154,29.11-3.441,41.995-9.12c9.777-4.471,16.571-14.533,16.571-25.987c4.786,1.259,8.348,5.537,8.525,10.674l0.007,0.039
		c11.1-5.984,18.644-17.716,18.644-31.211c0-5.38-1.199-10.479-3.344-15.046c2.231-4.388,5.433-8.224,9.303-11.002
		c5.043,7.766,7.973,17.032,7.973,26.982c0,13.408-5.524,25.379-13.962,34.501c-19.973,21.592-47.956,35.939-79.682,35.939
		l-5.086-0.111c0,0,3.217,15.325,7.655,28.491c3.882,11.519,10.284,26.414,11.346,28.738c-2.324-1.062-17.219-7.464-28.738-11.346
		c-13.167-4.437-28.491-7.655-28.491-7.655l0.111,5.086c0,31.726-14.347,59.709-35.939,79.682
		c-9.122,8.438-21.093,13.962-34.501,13.962c-9.95,0-19.216-2.929-26.982-7.973c2.777-3.87,6.613-7.072,11.002-9.303
		c4.567,2.145,9.667,3.344,15.046,3.344c13.494,0,25.227-7.543,31.211-18.644l-0.039-0.007c-5.138-0.178-9.416-3.739-10.674-8.525
		c11.454,0,21.516-6.794,25.987-16.571c5.678-12.885,8.966-27.035,9.12-41.995l-0.002-0.002c-14.959,0.154-29.11,3.441-41.995,9.12
		c-9.777,4.471-16.571,14.533-16.571,25.987c-4.786-1.259-8.348-5.537-8.525-10.674l-0.007-0.039
		c-11.1,5.984-18.644,17.716-18.644,31.211c0,5.38,1.199,10.479,3.344,15.046c-2.231,4.388-5.433,8.224-9.303,11.002
		c-5.043-7.766-7.973-17.032-7.973-26.982c0-13.408,5.524-25.379,13.962-34.501c19.973-21.592,47.956-35.939,79.682-35.939
		l5.086,0.111c0,0-3.217-15.325-7.655-28.491C102.797,112.63,96.397,97.74,95.334,95.409"/>
	<path fill="#FFFFFF" stroke="#000000" stroke-width="0.1417" stroke-miterlimit="10" d="M255.635,61.309"/>
	<path fill="#FFFFFF" stroke="#000000" stroke-width="0.1417" stroke-miterlimit="10" d="M61.203,255.689"/>
	<path fill="#FFFFFF" stroke="#000000" stroke-width="0.1417" stroke-miterlimit="10" d="M27.696,222.191"/>
	<path fill="#FFFFFF" stroke="#000000" stroke-width="0.1417" stroke-miterlimit="10" d="M222.127,27.811"/>
</g>
<g id="c6">
	<path fill="#FFFFFF" stroke="#000000" stroke-width="0.1417" stroke-miterlimit="10" d="M255.617,61.291"/>
	<path fill="#FFFFFF" stroke="#000000" stroke-width="0.1417" stroke-miterlimit="10" d="M61.185,255.671"/>
	<path fill="#FFFFFF" stroke="#000000" stroke-width="0.1417" stroke-miterlimit="10" d="M27.678,222.173"/>
	<path fill="#FFFFFF" stroke="#000000" stroke-width="0.1417" stroke-miterlimit="10" d="M222.11,27.793"/>
	<path fill="#353333" d="M29.764,267.949c3.286-12.018,16.016-20.753,29.077-20.753c0.462-1.398,0.711-2.893,0.711-4.446
		c0-2.528-0.662-4.902-1.822-6.957c6.209-3.712,10.368-10.497,10.368-18.257c0-0.675-0.031-1.343-0.093-2.002
		c-0.659-0.062-1.327-0.093-2.002-0.093c-7.76,0-14.545,4.159-18.257,10.368c-2.055-1.16-4.429-1.822-6.957-1.822
		c-1.553,0-3.048,0.25-4.446,0.711c0,13.061-8.735,25.791-20.753,29.077v14.173H29.764z"/>
	<path fill="#353333" d="M267.949,29.764c-12.018,3.286-20.753,16.016-20.753,29.077c-1.398,0.462-2.893,0.711-4.446,0.711
		c-2.528,0-4.902-0.662-6.957-1.822c-3.712,6.209-10.497,10.368-18.257,10.368c-0.675,0-1.343-0.031-2.002-0.093
		c-0.062-0.659-0.093-1.327-0.093-2.002c0-7.76,4.159-14.545,10.368-18.257c-1.16-2.055-1.822-4.429-1.822-6.957
		c0-1.553,0.25-3.048,0.711-4.446c13.061,0,25.791-8.735,29.077-20.753h14.173V29.764z"/>
</g>
<g id="c8">
	<path fill="#353333" d="M0.018,0l103.464,0l18.021,9.609c2.41-2.528,5.811-4.103,9.58-4.103c4.952,0,9.268,2.72,11.538,6.747
		c-0.608-0.102-1.233-0.154-1.87-0.154c-3.481,0-6.593,1.578-8.66,4.057c12.247,8.596,20.548,22.967,20.548,39.033
		c0,6.043-1.553,11.798-4.27,16.87c-2.478,4.189-5.916,7.898-10.246,10.768c-13.659,9.056-31.554,6.719-42.484-4.74
		c-2.596-2.779-4.848-5.291-6.815-7.601c-2.975-3.493-3.701-5.046-7.708-10.375c-1.411-1.877-2.932-5.469-7.008-6.376
		c-7.992-1.78-16.794-2.47-17.396-2.71c3.685-5.926,9.196-9.208,15.56-9.629c5.75-0.38,7.904,1.128,11.369,2.078
		c4.121-4.255,9.935-6,16.381-6c7.87,0,14.803,3.95,18.857,9.946c-1.245-0.372-2.564-0.571-3.929-0.571
		c-7.577,0-13.719,6.142-13.719,13.719s6.142,13.719,13.719,13.719c11.741,0,21.689-10.337,21.689-22.078
		c0-18.395-14.912-33.307-33.307-33.307c-7.368,0-14.174,2.397-19.69,6.448l4.252-16.844H36.868l14.173,16.844H25.417l-0.051,0.051
		v25.625L8.522,36.85v51.024l16.844-4.252c-4.05,5.516-6.448,12.322-6.448,19.69c0,18.395,14.912,33.307,33.307,33.307
		c11.741,0,22.078-9.947,22.078-21.689c0-7.577-6.142-13.719-13.719-13.719s-13.719,6.142-13.719,13.719
		c0,1.366,0.2,2.685,0.571,3.929c-5.996-4.053-9.946-10.987-9.946-18.857c0-6.447,1.745-12.26,6-16.381
		c-0.95-3.465-2.458-5.619-2.078-11.369c0.421-6.364,3.703-11.875,9.629-15.56c0.24,0.602,0.93,9.404,2.71,17.396
		c0.908,4.075,4.5,5.597,6.376,7.008c5.329,4.007,6.882,4.733,10.375,7.708c2.31,1.968,4.821,4.219,7.601,6.815
		c11.459,10.93,13.796,28.825,4.74,42.484c-2.87,4.329-6.579,7.767-10.768,10.246c-5.072,2.717-10.827,4.27-16.87,4.27
		c-16.066,0-30.437-8.3-39.033-20.548c-2.479,2.067-4.057,5.18-4.057,8.66c0,0.637,0.053,1.262,0.154,1.87
		c-4.027-2.269-6.747-6.586-6.747-11.538c0-3.769,1.575-7.169,4.103-9.58l-9.609-18.021V0z"/>
	<path fill="#FFFFFF" stroke="#000000" stroke-width="0.1417" stroke-miterlimit="10" d="M27.696,222.173"/>
	<path fill="#FFFFFF" stroke="#000000" stroke-width="0.1417" stroke-miterlimit="10" d="M222.127,27.793"/>
</g>
<g id="c9">
	<path fill="#FFFFFF" stroke="#000000" stroke-width="0.1417" stroke-miterlimit="10" d="M27.696,222.173"/>
	<path fill="#6A6967" d="M0.018,0l0,28.346c15.655,0,28.346-12.624,28.346-28.196c0-0.051-0.004-0.1-0.004-0.151L0.018,0z"/>
</g>
<g id="c11">
	<path fill="#DEDEDE" d="M119.577,118.274c1.513,0.584,11.207,4.046,18.767,6.001c8.643,2.235,18.815,3.52,18.815,3.52
		s1.285,10.172,3.52,18.815c1.955,7.561,5.418,17.258,6.001,18.768c-1.51-0.583-11.207-4.046-18.768-6.001
		c-8.643-2.235-18.815-3.52-18.815-3.52s-1.285-10.172-3.52-18.815C123.621,129.482,120.16,119.788,119.577,118.274"/>
</g>
</svg>
