<?xml version="1.0" encoding="utf-8"?>
<!-- Generator: Adobe Illustrator 22.0.0, SVG Export Plug-In . SVG Version: 6.00 Build 0)  -->
<svg version="1.1" xmlns="http://www.w3.org/2000/svg" xmlns:xlink="http://www.w3.org/1999/xlink" x="0px" y="0px"
	 viewBox="0 0 283.5 283.5" enable-background="new 0 0 283.5 283.5" xml:space="preserve">
<g id="c1">
	<path fill="#DEDEDE" d="M79.941,0.097c41.627-0.073,83.253-0.146,124.88-0.22c26.286,26.468,52.571,52.936,78.857,79.404
		c0.005,41.318,0.011,82.636,0.016,123.954c-13.771,13.781-27.542,27.561-41.313,41.342c-12.902,12.921-25.804,25.843-38.706,38.764
		c-41.338,0-82.676,0-124.014,0c-12.351-12.287-24.701-24.573-37.052-36.86c-14.127-14.402-28.254-28.803-42.381-43.205
		c0-41.144,0-82.288,0-123.432C26.8,53.262,53.37,26.679,79.941,0.097z"/>
</g>
<g id="c2">
	<g>
		<path fill="#353333" d="M283.376,0c0.035,20.08,0.071,40.161,0.106,60.242c-6.645-6.645-13.29-13.29-19.934-19.934
			c3.994-3.994,7.988-7.988,11.982-11.982c-6.681-6.681-13.363-13.363-20.044-20.044c-3.994,3.994-7.988,7.988-11.982,11.982
			C236.823,13.509,230.141,6.754,223.46,0C243.432,0,263.404,0,283.376,0z"/>
		<path fill="#353333" d="M0.018,0.106C20.098,0.071,40.179,0.035,60.259,0c-6.645,6.645-13.29,13.29-19.934,19.934
			c-3.994-3.994-7.988-7.988-11.982-11.982C21.661,14.634,14.98,21.315,8.299,27.996c3.994,3.994,7.988,7.988,11.982,11.982
			C13.527,46.66,6.772,53.341,0.018,60.022C0.018,40.05,0.018,20.078,0.018,0.106z"/>
		<path fill="#353333" d="M0.124,283.464c-0.035-20.08-0.071-40.161-0.106-60.242c6.645,6.645,13.29,13.29,19.934,19.934
			c-3.994,3.994-7.988,7.988-11.982,11.982c6.681,6.681,13.363,13.363,20.044,20.044c3.994-3.994,7.988-7.988,11.982-11.982
			c6.681,6.754,13.363,13.509,20.044,20.263C40.068,283.464,20.096,283.464,0.124,283.464z"/>
		<path fill="#353333" d="M283.482,283.358c-20.08,0.035-40.161,0.071-60.242,0.106c6.645-6.645,13.29-13.29,19.934-19.934
			c3.994,3.994,7.988,7.988,11.982,11.982c6.681-6.681,13.363-13.363,20.044-20.044c-3.994-3.994-7.988-7.988-11.982-11.982
			c6.754-6.681,13.509-13.363,20.263-20.044C283.482,243.414,283.482,263.386,283.482,283.358z"/>
	</g>
</g>
<g id="c3">
	<g>
		<path fill="#6A6967" d="M283.442,80.026C256.767,53.351,230.091,26.675,203.416,0c6.681,0,13.363,0,20.044,0
			c6.681,6.754,13.363,13.509,20.044,20.263c3.994-3.994,7.988-7.988,11.982-11.982c6.681,6.681,13.363,13.363,20.044,20.044
			c-3.994,3.994-7.988,7.988-11.982,11.982c6.645,6.645,13.29,13.29,19.934,19.934C283.469,66.836,283.455,73.431,283.442,80.026z"
			/>
		<path fill="#6A6967" d="M80.044,0.04C53.368,26.716,26.693,53.391,0.018,80.066c0-6.681,0-13.363,0-20.044
			c6.754-6.681,13.509-13.363,20.263-20.044c-3.994-3.994-7.988-7.988-11.982-11.982c6.681-6.681,13.363-13.363,20.044-20.044
			c3.994,3.994,7.988,7.988,11.982,11.982C46.97,13.29,53.615,6.645,60.259,0C66.854,0.014,73.449,0.027,80.044,0.04z"/>
		<path fill="#6A6967" d="M0.058,203.438c26.675,26.675,53.351,53.351,80.026,80.026c-6.681,0-13.363,0-20.044,0
			c-6.681-6.754-13.363-13.509-20.044-20.263c-3.994,3.994-7.988,7.988-11.982,11.982c-6.681-6.681-13.363-13.363-20.044-20.044
			c3.994-3.994,7.988-7.988,11.982-11.982c-6.645-6.645-13.29-13.29-19.934-19.934C0.031,216.628,0.045,210.033,0.058,203.438z"/>
		<path fill="#6A6967" d="M203.456,283.424c26.675-26.675,53.351-53.351,80.026-80.026c0,6.681,0,13.363,0,20.044
			c-6.754,6.681-13.509,13.363-20.263,20.044c3.994,3.994,7.988,7.988,11.982,11.982c-6.681,6.681-13.363,13.363-20.044,20.044
			c-3.994-3.994-7.988-7.988-11.982-11.982c-6.645,6.645-13.29,13.29-19.934,19.934
			C216.646,283.451,210.051,283.437,203.456,283.424z"/>
	</g>
</g>
<g id="c4">
	<g>
		<path fill="#353333" d="M166.51,223.265c-5.135-16.714-10.269-33.427-15.404-50.141c-1.257,0.381-2.722,0.74-4.371,0.994
			c-1.86,0.286-3.544,0.376-4.985,0.369h0l0,0c-1.441,0.007-3.125-0.083-4.985-0.369c-1.648-0.254-3.114-0.613-4.371-0.994
			c-5.135,16.714-10.269,33.427-15.404,50.141c1.006,0.306,2.052,0.604,3.136,0.889c1.384,0.363,2.725,0.677,4.018,0.949
			c-0.098,1.146-0.545,7.652,4.291,13.192c5.152,5.902,12.236,6.052,13.316,6.056h0h0c1.08-0.004,8.164-0.154,13.316-6.056
			c4.835-5.54,4.389-12.046,4.291-13.192c1.292-0.272,2.634-0.586,4.018-0.949C164.458,223.869,165.504,223.572,166.51,223.265z"/>
		<path fill="#353333" d="M116.99,60.45c5.135,16.714,10.269,33.427,15.404,50.141c1.257-0.381,2.722-0.74,4.371-0.994
			c1.86-0.286,3.544-0.376,4.985-0.369h0l0,0c1.441-0.007,3.125,0.083,4.985,0.369c1.648,0.254,3.114,0.613,4.371,0.994
			c5.135-16.714,10.269-33.427,15.404-50.141c-1.006-0.306-2.052-0.604-3.136-0.889c-1.384-0.363-2.725-0.677-4.018-0.949
			c0.098-1.146,0.545-7.652-4.291-13.192c-5.152-5.902-12.236-6.052-13.316-6.056h0h0c-1.08,0.004-8.164,0.154-13.316,6.056
			c-4.835,5.54-4.389,12.046-4.291,13.192c-1.292,0.272-2.634,0.586-4.018,0.949C119.042,59.846,117.996,60.143,116.99,60.45z"/>
		<path fill="#353333" d="M223.158,117.097c-16.714,5.135-33.427,10.269-50.141,15.404c0.381,1.257,0.74,2.722,0.994,4.371
			c0.286,1.86,0.376,3.544,0.369,4.985v0l0,0c0.007,1.441-0.083,3.125-0.369,4.985c-0.254,1.648-0.613,3.114-0.994,4.371
			c16.714,5.135,33.427,10.269,50.141,15.404c0.306-1.006,0.604-2.052,0.889-3.136c0.363-1.384,0.677-2.725,0.949-4.018
			c1.146,0.098,7.652,0.545,13.192-4.291c5.902-5.152,6.052-12.236,6.056-13.316v0v0c-0.004-1.08-0.154-8.164-6.056-13.316
			c-5.54-4.835-12.046-4.389-13.192-4.291c-0.272-1.292-0.586-2.634-0.949-4.018C223.762,119.149,223.464,118.104,223.158,117.097z"
			/>
		<path fill="#353333" d="M60.342,166.618c16.714-5.135,33.427-10.269,50.141-15.404c-0.381-1.257-0.74-2.722-0.994-4.371
			c-0.286-1.86-0.376-3.544-0.369-4.985v0l0,0c-0.007-1.441,0.083-3.125,0.369-4.985c0.254-1.648,0.613-3.114,0.994-4.371
			c-16.714-5.135-33.427-10.269-50.141-15.404c-0.306,1.006-0.604,2.052-0.889,3.136c-0.363,1.384-0.677,2.725-0.949,4.018
			c-1.146-0.098-7.652-0.545-13.192,4.291c-5.902,5.152-6.052,12.236-6.056,13.316v0v0c0.004,1.08,0.154,8.164,6.056,13.316
			c5.54,4.835,12.046,4.389,13.192,4.291c0.272,1.292,0.586,2.634,0.949,4.018C59.738,164.566,60.036,165.612,60.342,166.618z"/>
		<path fill="#353333" d="M216.822,181.913c-15.449-8.188-30.898-16.375-46.347-24.563c-0.62,1.158-1.402,2.448-2.388,3.793
			c-1.113,1.518-2.24,2.772-3.264,3.786l0,0l0,0c-1.014,1.024-2.268,2.151-3.786,3.264c-1.345,0.986-2.635,1.768-3.793,2.388
			c8.188,15.449,16.375,30.898,24.563,46.347c0.928-0.495,1.878-1.024,2.846-1.589c1.235-0.722,2.406-1.448,3.512-2.17
			c0.741,0.88,5.026,5.796,12.362,6.294c7.817,0.531,12.932-4.373,13.698-5.133l0,0l0,0c0.76-0.766,5.664-5.881,5.133-13.698
			c-0.498-7.336-5.414-11.621-6.294-12.362c0.722-1.106,1.448-2.277,2.17-3.512C215.798,183.791,216.327,182.842,216.822,181.913z"
			/>
		<path fill="#353333" d="M66.678,101.802c15.449,8.188,30.898,16.375,46.347,24.563c0.62-1.158,1.402-2.448,2.388-3.793
			c1.113-1.518,2.24-2.772,3.264-3.786l0,0l0,0c1.014-1.024,2.268-2.151,3.786-3.264c1.345-0.986,2.635-1.768,3.793-2.388
			c-8.188-15.449-16.375-30.898-24.563-46.347c-0.928,0.495-1.878,1.024-2.846,1.589c-1.235,0.722-2.406,1.448-3.512,2.17
			c-0.741-0.88-5.026-5.796-12.362-6.294c-7.817-0.531-12.932,4.373-13.698,5.133l0,0l0,0c-0.76,0.766-5.664,5.881-5.133,13.698
			c0.498,7.336,5.414,11.621,6.294,12.362c-0.722,1.106-1.448,2.277-2.17,3.512C67.702,99.924,67.173,100.874,66.678,101.802z"/>
		<path fill="#353333" d="M181.806,66.785c-8.188,15.449-16.375,30.898-24.563,46.347c1.158,0.62,2.448,1.402,3.793,2.388
			c1.518,1.113,2.772,2.24,3.786,3.264l0,0l0,0c1.024,1.014,2.151,2.268,3.264,3.786c0.986,1.345,1.768,2.635,2.388,3.793
			c15.449-8.188,30.898-16.375,46.347-24.563c-0.495-0.928-1.024-1.878-1.589-2.846c-0.722-1.235-1.448-2.406-2.17-3.512
			c0.88-0.741,5.796-5.026,6.294-12.362c0.531-7.817-4.373-12.932-5.133-13.698l0,0l0,0c-0.766-0.76-5.881-5.664-13.698-5.133
			c-7.336,0.498-11.621,5.414-12.362,6.294c-1.106-0.722-2.277-1.448-3.512-2.17C183.684,67.809,182.734,67.28,181.806,66.785z"/>
		<path fill="#353333" d="M101.694,216.93c8.188-15.449,16.375-30.898,24.563-46.347c-1.158-0.62-2.448-1.402-3.793-2.388
			c-1.518-1.113-2.772-2.24-3.786-3.264l0,0l0,0c-1.024-1.014-2.151-2.268-3.264-3.786c-0.986-1.345-1.768-2.635-2.388-3.793
			c-15.449,8.188-30.898,16.375-46.347,24.563c0.495,0.928,1.024,1.878,1.589,2.846c0.722,1.235,1.448,2.406,2.17,3.512
			c-0.88,0.741-5.796,5.026-6.294,12.362c-0.531,7.817,4.373,12.932,5.133,13.698l0,0l0,0c0.766,0.76,5.881,5.664,13.698,5.133
			c7.336-0.498,11.621-5.414,12.362-6.294c1.106,0.722,2.277,1.448,3.512,2.17C99.816,215.906,100.766,216.435,101.694,216.93z"/>
	</g>
</g>
<g id="c5">
	<circle fill="#6A6967" cx="141.75" cy="141.732" r="19.843"/>
</g>
</svg>
