<?xml version="1.0" encoding="utf-8"?>
<!-- Generator: Adobe Illustrator 22.0.0, SVG Export Plug-In . SVG Version: 6.00 Build 0)  -->
<svg version="1.1" xmlns="http://www.w3.org/2000/svg" xmlns:xlink="http://www.w3.org/1999/xlink" x="0px" y="0px"
	 viewBox="0 0 283.465 283.465" enable-background="new 0 0 283.465 283.465" xml:space="preserve">
<g id="c1">
	<polygon fill="#58585A" points="283.465,0 150.01,0 0,0 0,283.465 283.465,283.465 	"/>
</g>
<g id="c2">
	<rect x="14.173" y="14.173" fill="#DEDEDE" width="255.118" height="255.118"/>
</g>
<g id="c3">
	<ellipse fill="#DEDEDE" cx="93.451" cy="93.813" rx="35.771" ry="35.671"/>
	<ellipse fill="#DEDEDE" cx="190.014" cy="93.813" rx="35.771" ry="35.671"/>
	<ellipse fill="#DEDEDE" cx="93.451" cy="189.652" rx="35.771" ry="35.671"/>
	<ellipse fill="#DEDEDE" cx="190.014" cy="189.652" rx="35.771" ry="35.671"/>
	<ellipse fill="#DEDEDE" cx="142.622" cy="141.116" rx="35.771" ry="35.671"/>
</g>
<g id="c4">
	<path fill="#58585A" d="M190.014,141.732c-0.122,0-0.241,0.008-0.363,0.009c0-0.003,0-0.005,0-0.008c0-0.004,0-0.007,0-0.01
		C189.773,141.724,189.893,141.732,190.014,141.732c26.465,0,47.919-21.454,47.919-47.919c0-26.465-21.454-47.92-47.919-47.92
		c-26.465,0-47.92,21.455-47.92,47.92c0,0.003,0,0.006,0,0.009c-0.121-0.001-0.24-0.009-0.362-0.009
		c-0.122,0-0.242,0.008-0.363,0.009c0-0.003,0-0.006,0-0.009c0-26.465-21.454-47.92-47.918-47.92
		c-26.465,0-47.92,21.455-47.92,47.92c0,26.465,21.455,47.919,47.92,47.919c0.122,0,0.241-0.009,0.362-0.009c0,0.003,0,0.006,0,0.01
		c0,0.003,0,0.005,0,0.008c-0.121-0.001-0.24-0.009-0.362-0.009c-26.465,0-47.92,21.455-47.92,47.92
		c0,26.465,21.455,47.919,47.92,47.919c26.465,0,47.918-21.453,47.918-47.919c0-0.003,0-0.006,0-0.009
		c0.122,0.001,0.241,0.009,0.363,0.009c0.122,0,0.241-0.008,0.362-0.009c0,0.003,0,0.006,0,0.009
		c0,26.465,21.455,47.919,47.92,47.919c26.465,0,47.919-21.453,47.919-47.919C237.933,163.187,216.479,141.732,190.014,141.732z
		 M190.014,58.042c19.755,0,35.77,16.015,35.77,35.771c0,19.755-16.015,35.77-35.77,35.77c-0.649,0-1.294-0.02-1.936-0.054
		c-4.343-16.54-17.303-29.579-33.793-34.044c-0.026-0.555-0.043-1.111-0.043-1.672C154.243,74.057,170.258,58.042,190.014,58.042z
		 M93.451,129.584c-19.756,0-35.771-16.015-35.771-35.77c0-19.756,16.015-35.771,35.771-35.771c19.755,0,35.77,16.015,35.77,35.771
		c0,0.561-0.017,1.118-0.043,1.673c-16.489,4.466-29.45,17.504-33.793,34.044C94.746,129.564,94.101,129.584,93.451,129.584z
		 M93.451,225.422c-19.756,0-35.771-16.015-35.771-35.77c0-19.756,16.015-35.771,35.771-35.771c0.649,0,1.294,0.02,1.935,0.054
		c4.343,16.539,17.303,29.579,33.793,34.044c0.026,0.555,0.043,1.112,0.043,1.673C129.222,209.407,113.206,225.422,93.451,225.422z
		 M106.851,141.017c0-19.756,16.015-35.771,35.771-35.771c19.755,0,35.77,16.015,35.77,35.771c0,19.755-16.015,35.771-35.77,35.771
		C122.866,176.787,106.851,160.772,106.851,141.017z M190.014,225.422c-19.756,0-35.771-16.015-35.771-35.77
		c0-0.561,0.017-1.118,0.043-1.673c16.49-4.466,29.451-17.505,33.793-34.044c0.642-0.034,1.286-0.054,1.936-0.054
		c19.755,0,35.77,16.015,35.77,35.771C225.785,209.407,209.77,225.422,190.014,225.422z"/>
</g>
</svg>
