<?xml version="1.0" encoding="utf-8"?>
<!-- Generator: Adobe Illustrator 22.0.0, SVG Export Plug-In . SVG Version: 6.00 Build 0)  -->
<svg version="1.1" xmlns="http://www.w3.org/2000/svg" xmlns:xlink="http://www.w3.org/1999/xlink" x="0px" y="0px"
	 viewBox="0 0 283.465 283.465" enable-background="new 0 0 283.465 283.465" xml:space="preserve">
<g id="c1">
	<rect x="0" fill="#DEDEDE" width="283.464" height="283.464"/>
</g>
<g id="c2">
	<path fill="#58585A" d="M24.705,283.465c-0.021-0.674,0.013-1.727,0.375-2.928c0.668-2.218,1.931-3.206,3.5-5.5
		c0.651-0.951,1.544-2.405,2.375-4.375c1.065-0.218,2.633-0.573,4.5-1.125c4.513-1.333,6.769-2,8.75-4
		c0.663-0.67,2.362-2.385,2.875-5c0.478-2.434-0.448-3.732,0.125-7.75c0.16-1.119,0.381-2.071,1.125-2.875
		c0.938-1.014,2.197-1.241,3-1.375c2.137-0.356,4.231,0.162,7.5,1c1.174,0.301,2.032,0.563,2.875,0.125
		c1.01-0.525,1.34-1.715,1.5-2.25c0.524-1.756,1.557-4.319,3.75-8.25c6.765-3.794,12.815-5.455,16.875-6.25
		c3.291-0.644,7.615-1.454,13.25-0.75c3.572,0.446,6.472,1.351,8.5,2.125c0.03,1.138,0.238,3.138,1.375,5.25
		c0.547,1.016,2.468,4.584,6.5,5.375c2.941,0.577,5.323-0.654,6.125-1.125c3.98-2.338,4.564-6.835,4.625-7.375
		c0.684-6.05-4.704-10.038-5-10.25c-0.454-0.325-4.051-2.841-7.875-2.75c-0.362,0.009-2,0.071-3.875-0.5
		c-0.861-0.262-1.646-0.619-2.375-1.25c-0.471-0.408-0.793-0.821-1-1.125c-1.125-2.167-2.25-4.333-3.375-6.5
		c-3.167,0.542-6.333,1.083-9.5,1.625c-1.165-0.906-2.888-2.139-5.125-3.375c-2.079-1.149-3.141-1.721-4.25-1.625
		c-1.434,0.124-1.885,0.999-5.375,4.125c-2.25,2.016-3.573,3.006-5,3.875c-2.144,1.306-3.33,1.612-4.5,1.5
		c-1.174-0.112-2.081-0.622-2.638-1.013l0,0l0,0c-0.391-0.558-0.901-1.464-1.013-2.638c-0.112-1.17,0.194-2.356,1.5-4.5
		c0.869-1.427,1.859-2.75,3.875-5c3.126-3.49,4.001-3.941,4.125-5.375c0.096-1.109-0.476-2.171-1.625-4.25
		c-1.236-2.237-2.469-3.96-3.375-5.125c0.542-3.167,1.083-6.333,1.625-9.5c-2.167-1.125-4.333-2.25-6.5-3.375
		c-0.304-0.207-0.717-0.529-1.125-1c-0.631-0.729-0.988-1.514-1.25-2.375c-0.571-1.875-0.509-3.513-0.5-3.875
		c0.091-3.824-2.425-7.421-2.75-7.875c-0.212-0.296-4.2-5.684-10.25-5c-0.54,0.061-5.037,0.645-7.375,4.625
		c-0.471,0.802-1.702,3.184-1.125,6.125c0.791,4.032,4.359,5.953,5.375,6.5c2.112,1.137,4.112,1.345,5.25,1.375
		c0.774,2.028,1.679,4.928,2.125,8.5c0.704,5.635-0.106,9.959-0.75,13.25c-0.795,4.06-2.456,10.11-6.25,16.875
		c-3.931,2.193-6.494,3.226-8.25,3.75c-0.535,0.16-1.725,0.49-2.25,1.5c-0.438,0.843-0.176,1.701,0.125,2.875
		c0.838,3.269,1.356,5.363,1,7.5c-0.134,0.803-0.361,2.062-1.375,3c-0.804,0.744-1.756,0.965-2.875,1.125
		c-4.018,0.573-5.316-0.353-7.75,0.125c-2.615,0.513-4.33,2.212-5,2.875c-2,1.981-2.667,4.237-4,8.75
		c-0.552,1.867-0.907,3.435-1.125,4.5c-1.97,0.831-3.424,1.724-4.375,2.375c-2.294,1.569-3.282,2.832-5.5,3.5
		c-1.201,0.362-2.254,0.396-2.928,0.375v24.705H24.705z"/>
	<path fill="#58585A" d="M24.705,0c-0.021,0.674,0.013,1.727,0.375,2.928c0.668,2.218,1.931,3.206,3.5,5.5
		c0.651,0.951,1.544,2.405,2.375,4.375c1.065,0.218,2.633,0.573,4.5,1.125c4.513,1.333,6.769,2,8.75,4
		c0.663,0.67,2.362,2.385,2.875,5c0.478,2.434-0.448,3.732,0.125,7.75c0.16,1.119,0.381,2.071,1.125,2.875
		c0.938,1.014,2.197,1.241,3,1.375c2.137,0.356,4.231-0.162,7.5-1c1.174-0.301,2.032-0.563,2.875-0.125
		c1.01,0.525,1.34,1.715,1.5,2.25c0.524,1.756,1.557,4.319,3.75,8.25c6.765,3.794,12.815,5.455,16.875,6.25
		c3.291,0.644,7.615,1.454,13.25,0.75c3.572-0.446,6.472-1.351,8.5-2.125c0.03-1.138,0.238-3.138,1.375-5.25
		c0.547-1.016,2.468-4.584,6.5-5.375c2.941-0.577,5.323,0.654,6.125,1.125c3.98,2.338,4.564,6.835,4.625,7.375
		c0.684,6.05-4.704,10.038-5,10.25c-0.454,0.325-4.051,2.841-7.875,2.75c-0.362-0.009-2-0.071-3.875,0.5
		c-0.861,0.262-1.646,0.619-2.375,1.25c-0.471,0.408-0.793,0.821-1,1.125c-1.125,2.167-2.25,4.333-3.375,6.5
		c-3.167-0.542-6.333-1.083-9.5-1.625c-1.165,0.906-2.888,2.139-5.125,3.375c-2.079,1.149-3.141,1.721-4.25,1.625
		c-1.434-0.124-1.885-0.999-5.375-4.125c-2.25-2.016-3.573-3.006-5-3.875c-2.144-1.306-3.33-1.612-4.5-1.5
		c-1.174,0.112-2.081,0.622-2.638,1.013l0,0l0,0c-0.391,0.557-0.901,1.464-1.013,2.638c-0.112,1.17,0.194,2.356,1.5,4.5
		c0.869,1.427,1.859,2.75,3.875,5c3.126,3.49,4.001,3.941,4.125,5.375c0.096,1.109-0.476,2.171-1.625,4.25
		c-1.236,2.237-2.469,3.96-3.375,5.125c0.542,3.167,1.083,6.333,1.625,9.5c-2.167,1.125-4.333,2.25-6.5,3.375
		c-0.304,0.207-0.717,0.529-1.125,1c-0.631,0.729-0.988,1.514-1.25,2.375c-0.571,1.875-0.509,3.513-0.5,3.875
		c0.091,3.824-2.425,7.421-2.75,7.875c-0.212,0.296-4.2,5.684-10.25,5c-0.54-0.061-5.037-0.645-7.375-4.625
		c-0.471-0.802-1.702-3.184-1.125-6.125c0.791-4.032,4.359-5.953,5.375-6.5c2.112-1.137,4.112-1.345,5.25-1.375
		c0.774-2.028,1.679-4.928,2.125-8.5c0.704-5.635-0.106-9.959-0.75-13.25c-0.795-4.06-2.456-10.11-6.25-16.875
		c-3.931-2.193-6.494-3.226-8.25-3.75c-0.535-0.16-1.725-0.49-2.25-1.5c-0.438-0.843-0.176-1.701,0.125-2.875
		c0.838-3.269,1.356-5.363,1-7.5c-0.134-0.803-0.361-2.062-1.375-3c-0.804-0.744-1.756-0.965-2.875-1.125
		c-4.018-0.573-5.316,0.353-7.75-0.125c-2.615-0.513-4.33-2.212-5-2.875c-2-1.981-2.667-4.237-4-8.75
		c-0.552-1.867-0.907-3.435-1.125-4.5c-1.97-0.831-3.424-1.724-4.375-2.375c-2.294-1.569-3.282-2.832-5.5-3.5
		C1.727,24.718,0.674,24.683,0,24.705V0H24.705z"/>
	<path fill="#58585A" d="M283.465,24.705c-0.674-0.021-1.727,0.013-2.928,0.375c-2.218,0.668-3.206,1.931-5.5,3.5
		c-0.951,0.651-2.405,1.544-4.375,2.375c-0.218,1.065-0.573,2.633-1.125,4.5c-1.333,4.513-2,6.769-4,8.75
		c-0.67,0.663-2.385,2.362-5,2.875c-2.434,0.478-3.732-0.448-7.75,0.125c-1.119,0.16-2.071,0.381-2.875,1.125
		c-1.014,0.938-1.241,2.197-1.375,3c-0.356,2.137,0.162,4.231,1,7.5c0.301,1.174,0.563,2.032,0.125,2.875
		c-0.525,1.01-1.715,1.34-2.25,1.5c-1.756,0.524-4.319,1.557-8.25,3.75c-3.794,6.765-5.455,12.815-6.25,16.875
		c-0.644,3.291-1.454,7.615-0.75,13.25c0.446,3.572,1.351,6.472,2.125,8.5c1.138,0.03,3.138,0.238,5.25,1.375
		c1.016,0.547,4.584,2.468,5.375,6.5c0.577,2.941-0.654,5.323-1.125,6.125c-2.338,3.98-6.835,4.564-7.375,4.625
		c-6.05,0.684-10.038-4.704-10.25-5c-0.325-0.454-2.841-4.051-2.75-7.875c0.009-0.362,0.071-2-0.5-3.875
		c-0.262-0.861-0.619-1.646-1.25-2.375c-0.408-0.471-0.821-0.793-1.125-1c-2.167-1.125-4.333-2.25-6.5-3.375
		c0.542-3.167,1.083-6.333,1.625-9.5c-0.906-1.165-2.139-2.888-3.375-5.125c-1.149-2.079-1.721-3.141-1.625-4.25
		c0.124-1.434,0.999-1.885,4.125-5.375c2.016-2.25,3.006-3.573,3.875-5c1.306-2.144,1.612-3.33,1.5-4.5
		c-0.112-1.174-0.622-2.081-1.013-2.638c-0.558-0.391-1.464-0.901-2.638-1.013c-1.17-0.112-2.356,0.194-4.5,1.5
		c-1.427,0.869-2.75,1.859-5,3.875c-3.49,3.126-3.941,4.001-5.375,4.125c-1.109,0.096-2.171-0.476-4.25-1.625
		c-2.237-1.236-3.96-2.469-5.125-3.375c-3.167,0.542-6.333,1.083-9.5,1.625c-1.125-2.167-2.25-4.333-3.375-6.5
		c-0.207-0.304-0.529-0.717-1-1.125c-0.729-0.631-1.514-0.988-2.375-1.25c-1.875-0.571-3.513-0.509-3.875-0.5
		c-3.824,0.091-7.421-2.425-7.875-2.75c-0.296-0.212-5.684-4.2-5-10.25c0.061-0.54,0.645-5.037,4.625-7.375
		c0.802-0.471,3.184-1.702,6.125-1.125c4.032,0.791,5.953,4.359,6.5,5.375c1.137,2.112,1.345,4.112,1.375,5.25
		c2.028,0.774,4.928,1.679,8.5,2.125c5.635,0.704,9.959-0.106,13.25-0.75c4.06-0.795,10.11-2.456,16.875-6.25
		c2.193-3.931,3.226-6.494,3.75-8.25c0.16-0.535,0.49-1.725,1.5-2.25c0.843-0.438,1.701-0.176,2.875,0.125
		c3.269,0.838,5.363,1.356,7.5,1c0.803-0.134,2.062-0.361,3-1.375c0.744-0.804,0.965-1.756,1.125-2.875
		c0.573-4.018-0.353-5.316,0.125-7.75c0.513-2.615,2.212-4.33,2.875-5c1.981-2,4.237-2.667,8.75-4
		c1.867-0.552,3.435-0.907,4.5-1.125c0.831-1.97,1.724-3.424,2.375-4.375c1.569-2.294,2.832-3.282,3.5-5.5
		c0.362-1.201,0.396-2.254,0.375-2.928h24.705V24.705z"/>
	<path fill="#58585A" d="M283.465,258.76c-0.674,0.021-1.727-0.013-2.928-0.375c-2.218-0.668-3.206-1.931-5.5-3.5
		c-0.951-0.651-2.405-1.544-4.375-2.375c-0.218-1.065-0.573-2.633-1.125-4.5c-1.333-4.513-2-6.769-4-8.75
		c-0.67-0.663-2.385-2.362-5-2.875c-2.434-0.478-3.732,0.448-7.75-0.125c-1.119-0.16-2.071-0.381-2.875-1.125
		c-1.014-0.938-1.241-2.197-1.375-3c-0.356-2.137,0.162-4.231,1-7.5c0.301-1.174,0.563-2.032,0.125-2.875
		c-0.525-1.01-1.715-1.34-2.25-1.5c-1.756-0.524-4.319-1.557-8.25-3.75c-3.794-6.765-5.455-12.815-6.25-16.875
		c-0.644-3.291-1.454-7.615-0.75-13.25c0.446-3.572,1.351-6.472,2.125-8.5c1.138-0.03,3.138-0.238,5.25-1.375
		c1.016-0.547,4.584-2.468,5.375-6.5c0.577-2.941-0.654-5.323-1.125-6.125c-2.338-3.98-6.835-4.564-7.375-4.625
		c-6.05-0.684-10.038,4.704-10.25,5c-0.325,0.454-2.841,4.051-2.75,7.875c0.009,0.362,0.071,2-0.5,3.875
		c-0.262,0.861-0.619,1.646-1.25,2.375c-0.408,0.471-0.821,0.793-1.125,1c-2.167,1.125-4.333,2.25-6.5,3.375
		c0.542,3.167,1.083,6.333,1.625,9.5c-0.906,1.165-2.139,2.888-3.375,5.125c-1.149,2.079-1.721,3.141-1.625,4.25
		c0.124,1.434,0.999,1.885,4.125,5.375c2.016,2.25,3.006,3.573,3.875,5c1.306,2.144,1.612,3.33,1.5,4.5
		c-0.112,1.174-0.622,2.081-1.013,2.638c-0.558,0.391-1.464,0.901-2.638,1.013c-1.17,0.112-2.356-0.194-4.5-1.5
		c-1.427-0.869-2.75-1.859-5-3.875c-3.49-3.126-3.941-4.001-5.375-4.125c-1.109-0.096-2.171,0.476-4.25,1.625
		c-2.237,1.236-3.96,2.469-5.125,3.375c-3.167-0.542-6.333-1.083-9.5-1.625c-1.125,2.167-2.25,4.333-3.375,6.5
		c-0.207,0.304-0.529,0.717-1,1.125c-0.729,0.631-1.514,0.988-2.375,1.25c-1.875,0.571-3.513,0.509-3.875,0.5
		c-3.824-0.091-7.421,2.425-7.875,2.75c-0.296,0.212-5.684,4.2-5,10.25c0.061,0.54,0.645,5.037,4.625,7.375
		c0.802,0.471,3.184,1.702,6.125,1.125c4.032-0.791,5.953-4.359,6.5-5.375c1.137-2.112,1.345-4.112,1.375-5.25
		c2.028-0.774,4.928-1.679,8.5-2.125c5.635-0.704,9.959,0.106,13.25,0.75c4.06,0.795,10.11,2.456,16.875,6.25
		c2.193,3.931,3.226,6.494,3.75,8.25c0.16,0.535,0.49,1.725,1.5,2.25c0.843,0.438,1.701,0.176,2.875-0.125
		c3.269-0.838,5.363-1.356,7.5-1c0.803,0.134,2.062,0.361,3,1.375c0.744,0.804,0.965,1.756,1.125,2.875
		c0.573,4.018-0.353,5.316,0.125,7.75c0.513,2.615,2.212,4.33,2.875,5c1.981,2,4.237,2.667,8.75,4
		c1.867,0.552,3.435,0.907,4.5,1.125c0.831,1.97,1.724,3.424,2.375,4.375c1.569,2.294,2.832,3.282,3.5,5.5
		c0.362,1.201,0.396,2.254,0.375,2.928h24.705V258.76z"/>
</g>
<g id="c3">
	<path fill="#9D9FA2" d="M0.417,93.58c0.707-0.233,1.787-0.454,2.803,0c0.841,0.376,1.172,1.006,2.25,2.75
		c1.381,2.234,2.071,3.351,2.75,4.125c1.278,1.457,2.64,2.221,3.375,2.625c2.317,1.273,3.201,0.846,6.875,2.25
		c3.177,1.215,3.676,1.978,3.875,2.5c0.471,1.238-0.192,2.557-0.625,3.375c-2.145,4.057-5.079,8.037-7,10.5
		c-0.328,0.343-1.593,1.744-1.625,3.875c-0.02,1.365,0.475,2.392,0.75,2.875c0.385,0.258,0.979,0.587,1.75,0.75
		c1.918,0.405,3.426-0.538,6.375-2.25c0,0,3.363-1.952,9-4.25c0.802-0.327,2.112-0.84,3.125-0.25c0.819,0.477,1.082,1.464,1.25,2.25
		c0.311,1.454,0.726,4.231,0.375,8.5c0.408,0.318,1.096,0.831,2,1.375c4.424,2.666,7.525,2.201,9.375,4.75
		c0.33,0.454,0.775,1.219,1,2.403c-0.225,1.184-0.67,1.948-1,2.403c-1.85,2.549-4.951,2.084-9.375,4.75
		c-0.904,0.544-1.592,1.057-2,1.375c0.351,4.269-0.064,7.046-0.375,8.5c-0.168,0.786-0.431,1.773-1.25,2.25
		c-1.013,0.59-2.323,0.077-3.125-0.25c-5.637-2.298-9-4.25-9-4.25c-2.949-1.712-4.458-2.655-6.375-2.25
		c-0.771,0.163-1.365,0.492-1.75,0.75c-0.275,0.483-0.77,1.51-0.75,2.875c0.032,2.131,1.297,3.532,1.625,3.875
		c1.921,2.463,4.855,6.443,7,10.5c0.433,0.818,1.096,2.137,0.625,3.375c-0.199,0.522-0.698,1.285-3.875,2.5
		c-3.674,1.404-4.558,0.977-6.875,2.25c-0.735,0.404-2.097,1.168-3.375,2.625c-0.679,0.774-1.369,1.891-2.75,4.125
		c-1.078,1.744-1.409,2.374-2.25,2.75c-1.016,0.454-2.096,0.233-2.803,0V93.58z"/>
	<path fill="#9D9FA2" d="M190.302,0c0.233,0.707,0.454,1.787,0,2.803c-0.376,0.841-1.006,1.172-2.75,2.25
		c-2.234,1.381-3.351,2.071-4.125,2.75c-1.457,1.278-2.221,2.64-2.625,3.375c-1.273,2.317-0.846,3.201-2.25,6.875
		c-1.215,3.177-1.978,3.676-2.5,3.875c-1.238,0.471-2.557-0.192-3.375-0.625c-4.057-2.145-8.037-5.079-10.5-7
		c-0.343-0.328-1.744-1.593-3.875-1.625c-1.365-0.02-2.392,0.475-2.875,0.75c-0.258,0.385-0.587,0.979-0.75,1.75
		c-0.405,1.918,0.538,3.426,2.25,6.375c0,0,1.952,3.363,4.25,9c0.327,0.802,0.84,2.112,0.25,3.125
		c-0.477,0.819-1.464,1.082-2.25,1.25c-1.454,0.311-4.231,0.726-8.5,0.375c-0.318,0.408-0.831,1.096-1.375,2
		c-2.666,4.424-2.201,7.525-4.75,9.375c-0.454,0.33-1.219,0.775-2.403,1c-1.184-0.225-1.948-0.67-2.403-1
		c-2.549-1.85-2.084-4.951-4.75-9.375c-0.544-0.904-1.057-1.592-1.375-2c-4.269,0.351-7.046-0.064-8.5-0.375
		c-0.786-0.168-1.773-0.431-2.25-1.25c-0.59-1.013-0.077-2.323,0.25-3.125c2.298-5.637,4.25-9,4.25-9
		c1.712-2.949,2.655-4.458,2.25-6.375c-0.163-0.771-0.492-1.365-0.75-1.75c-0.483-0.275-1.51-0.77-2.875-0.75
		c-2.131,0.032-3.532,1.297-3.875,1.625c-2.463,1.921-6.443,4.855-10.5,7c-0.818,0.433-2.137,1.096-3.375,0.625
		c-0.522-0.199-1.285-0.698-2.5-3.875c-1.404-3.674-0.977-4.558-2.25-6.875c-0.404-0.735-1.168-2.097-2.625-3.375
		c-0.774-0.679-1.891-1.369-4.125-2.75c-1.744-1.078-2.374-1.409-2.75-2.25c-0.454-1.016-0.233-2.096,0-2.803H190.302z"/>
	<path fill="#9D9FA2" d="M283.881,189.885c-0.707,0.233-1.787,0.454-2.803,0c-0.841-0.376-1.172-1.006-2.25-2.75
		c-1.381-2.234-2.071-3.351-2.75-4.125c-1.278-1.457-2.64-2.221-3.375-2.625c-2.317-1.273-3.201-0.846-6.875-2.25
		c-3.177-1.215-3.676-1.978-3.875-2.5c-0.471-1.238,0.192-2.557,0.625-3.375c2.145-4.057,5.079-8.037,7-10.5
		c0.328-0.343,1.593-1.744,1.625-3.875c0.02-1.365-0.475-2.392-0.75-2.875c-0.385-0.258-0.979-0.587-1.75-0.75
		c-1.918-0.405-3.426,0.538-6.375,2.25c0,0-3.363,1.952-9,4.25c-0.802,0.327-2.112,0.84-3.125,0.25
		c-0.819-0.477-1.082-1.464-1.25-2.25c-0.311-1.454-0.726-4.231-0.375-8.5c-0.408-0.318-1.096-0.831-2-1.375
		c-4.424-2.666-7.525-2.201-9.375-4.75c-0.33-0.454-0.775-1.219-1-2.403c0.225-1.184,0.67-1.948,1-2.403
		c1.85-2.549,4.951-2.084,9.375-4.75c0.904-0.544,1.592-1.057,2-1.375c-0.351-4.269,0.064-7.046,0.375-8.5
		c0.168-0.786,0.431-1.773,1.25-2.25c1.013-0.59,2.323-0.077,3.125,0.25c5.637,2.298,9,4.25,9,4.25
		c2.949,1.712,4.458,2.655,6.375,2.25c0.771-0.163,1.365-0.492,1.75-0.75c0.275-0.483,0.77-1.51,0.75-2.875
		c-0.032-2.131-1.297-3.532-1.625-3.875c-1.921-2.463-4.855-6.443-7-10.5c-0.433-0.818-1.096-2.137-0.625-3.375
		c0.199-0.522,0.698-1.285,3.875-2.5c3.674-1.404,4.558-0.977,6.875-2.25c0.735-0.404,2.097-1.168,3.375-2.625
		c0.679-0.774,1.369-1.891,2.75-4.125c1.078-1.744,1.409-2.374,2.25-2.75c1.016-0.454,2.096-0.233,2.803,0V189.885z"/>
	<path fill="#9D9FA2" d="M190.302,283.465c0.233-0.707,0.454-1.787,0-2.803c-0.376-0.841-1.006-1.172-2.75-2.25
		c-2.234-1.381-3.351-2.071-4.125-2.75c-1.457-1.278-2.221-2.64-2.625-3.375c-1.273-2.317-0.846-3.201-2.25-6.875
		c-1.215-3.177-1.978-3.676-2.5-3.875c-1.238-0.471-2.557,0.192-3.375,0.625c-4.057,2.145-8.037,5.079-10.5,7
		c-0.343,0.328-1.744,1.593-3.875,1.625c-1.365,0.02-2.392-0.475-2.875-0.75c-0.258-0.385-0.587-0.979-0.75-1.75
		c-0.405-1.918,0.538-3.426,2.25-6.375c0,0,1.952-3.363,4.25-9c0.327-0.802,0.84-2.112,0.25-3.125
		c-0.477-0.819-1.464-1.082-2.25-1.25c-1.454-0.311-4.231-0.726-8.5-0.375c-0.318-0.408-0.831-1.096-1.375-2
		c-2.666-4.424-2.201-7.525-4.75-9.375c-0.454-0.33-1.219-0.775-2.403-1c-1.184,0.225-1.948,0.67-2.403,1
		c-2.549,1.85-2.084,4.951-4.75,9.375c-0.544,0.904-1.057,1.592-1.375,2c-4.269-0.351-7.046,0.064-8.5,0.375
		c-0.786,0.168-1.773,0.431-2.25,1.25c-0.59,1.013-0.077,2.323,0.25,3.125c2.298,5.637,4.25,9,4.25,9
		c1.712,2.949,2.655,4.457,2.25,6.375c-0.163,0.771-0.492,1.365-0.75,1.75c-0.483,0.275-1.51,0.77-2.875,0.75
		c-2.131-0.032-3.532-1.297-3.875-1.625c-2.463-1.921-6.443-4.855-10.5-7c-0.818-0.433-2.137-1.096-3.375-0.625
		c-0.522,0.199-1.285,0.698-2.5,3.875c-1.404,3.674-0.977,4.558-2.25,6.875c-0.404,0.735-1.168,2.097-2.625,3.375
		c-0.774,0.679-1.891,1.369-4.125,2.75c-1.744,1.078-2.374,1.409-2.75,2.25c-0.454,1.016-0.233,2.096,0,2.803H190.302z"/>
</g>
<g id="c4">
	<path fill="#9D9FA2" d="M214.286,145.385c-1.606,1.362-3.392,0.88-6.5,1.75c-2.078,0.582-3.71,1.478-4.875,2.25
		c-0.146,0.364-0.346,0.923-0.5,1.625c-0.402,1.832-0.033,2.569-0.5,3.875c-0.222,0.619-0.569,1.591-1.375,2
		c-1.312,0.666-2.617-0.778-5.125-1.625c-0.535-0.181-4.225-1.371-7.875,0.125c-0.785,0.322-3.397,1.392-4.75,4.25
		c-1.582,3.341-0.214,6.525,0,7c0.28,0.623,1.024,2.278,2.75,3.375c2.469,1.569,4.295,0.31,6.875,2.125
		c0.661,0.465,1.707,1.223,1.908,2.466c0.282,1.738-1.274,3.279-1.408,3.409c-1.116,1.076-1.86,0.694-2.5,1.75
		c-0.65,1.072-0.49,2.466-0.467,2.641c0.014,0.11,0.054,0.391,0.2,0.865c0.447,1.454,1.199,2.478,1.393,2.744
		c0.376,0.515,1.97,2.698,2.625,3.875c0.61,1.097,1.23,2.804,1.112,5.388c-2.909,0.087-4.525-0.632-5.388-1.112
		c-1.177-0.655-3.36-2.249-3.875-2.625c-0.265-0.194-1.29-0.946-2.744-1.393c-0.474-0.146-0.754-0.186-0.865-0.2
		c-0.176-0.022-1.569-0.183-2.641,0.467c-1.056,0.64-0.674,1.384-1.75,2.5c-0.129,0.134-1.67,1.69-3.409,1.408
		c-1.243-0.201-2.002-1.247-2.466-1.908c-1.815-2.58-0.556-4.406-2.125-6.875c-1.097-1.726-2.752-2.47-3.375-2.75
		c-0.475-0.214-3.659-1.582-7,0c-2.858,1.353-3.928,3.965-4.25,4.75c-1.496,3.65-0.306,7.34-0.125,7.875
		c0.847,2.508,2.291,3.813,1.625,5.125c-0.409,0.806-1.381,1.153-2,1.375c-1.306,0.467-2.043,0.098-3.875,0.5
		c-0.702,0.154-1.261,0.354-1.625,0.5c-0.772,1.165-1.668,2.797-2.25,4.875c-0.87,3.108-0.388,4.894-1.75,6.5
		c-0.885,1.043-2.194,1.571-3.653,1.804c-1.459-0.233-2.768-0.761-3.653-1.804c-1.362-1.606-0.88-3.392-1.75-6.5
		c-0.582-2.078-1.478-3.71-2.25-4.875c-0.364-0.146-0.923-0.346-1.625-0.5c-1.832-0.402-2.569-0.033-3.875-0.5
		c-0.619-0.222-1.591-0.569-2-1.375c-0.666-1.312,0.778-2.617,1.625-5.125c0.181-0.535,1.371-4.225-0.125-7.875
		c-0.322-0.785-1.392-3.397-4.25-4.75c-3.341-1.582-6.525-0.214-7,0c-0.623,0.28-2.278,1.024-3.375,2.75
		c-1.569,2.469-0.31,4.295-2.125,6.875c-0.465,0.661-1.223,1.707-2.466,1.908c-1.738,0.282-3.279-1.274-3.409-1.408
		c-1.076-1.116-0.694-1.86-1.75-2.5c-1.072-0.65-2.466-0.49-2.641-0.467c-0.11,0.014-0.391,0.054-0.865,0.2
		c-1.454,0.447-2.478,1.199-2.744,1.393c-0.515,0.376-2.698,1.97-3.875,2.625c-0.863,0.48-2.479,1.198-5.388,1.112l0,0l0,0
		c-0.118-2.584,0.502-4.291,1.112-5.388c0.655-1.177,2.249-3.36,2.625-3.875c0.194-0.265,0.946-1.29,1.393-2.744
		c0.146-0.474,0.186-0.754,0.2-0.865c0.022-0.176,0.183-1.569-0.467-2.641c-0.64-1.056-1.384-0.674-2.5-1.75
		c-0.134-0.129-1.69-1.67-1.408-3.409c0.201-1.243,1.247-2.002,1.908-2.466c2.58-1.815,4.406-0.556,6.875-2.125
		c1.726-1.097,2.47-2.752,2.75-3.375c0.214-0.475,1.582-3.659,0-7c-1.353-2.858-3.965-3.928-4.75-4.25
		c-3.65-1.496-7.34-0.306-7.875-0.125c-2.508,0.847-3.813,2.291-5.125,1.625c-0.806-0.409-1.153-1.381-1.375-2
		c-0.467-1.306-0.098-2.043-0.5-3.875c-0.154-0.702-0.354-1.261-0.5-1.625c-1.165-0.772-2.797-1.668-4.875-2.25
		c-3.108-0.87-4.894-0.388-6.5-1.75c-1.043-0.885-1.571-2.194-1.804-3.653c0.233-1.459,0.761-2.768,1.804-3.653
		c1.606-1.362,3.392-0.88,6.5-1.75c2.078-0.582,3.71-1.478,4.875-2.25c0.146-0.364,0.346-0.923,0.5-1.625
		c0.402-1.832,0.033-2.569,0.5-3.875c0.222-0.619,0.569-1.591,1.375-2c1.312-0.666,2.617,0.778,5.125,1.625
		c0.535,0.181,4.225,1.371,7.875-0.125c0.785-0.322,3.397-1.392,4.75-4.25c1.582-3.341,0.214-6.525,0-7
		c-0.28-0.623-1.024-2.278-2.75-3.375c-2.469-1.569-4.295-0.31-6.875-2.125c-0.661-0.465-1.707-1.223-1.908-2.466
		c-0.282-1.738,1.274-3.279,1.408-3.409c1.116-1.076,1.86-0.694,2.5-1.75c0.65-1.072,0.49-2.466,0.467-2.641
		c-0.014-0.11-0.054-0.391-0.2-0.865c-0.447-1.454-1.199-2.478-1.393-2.744c-0.376-0.515-1.97-2.698-2.625-3.875
		c-0.61-1.097-1.23-2.804-1.112-5.388l0,0l0,0c2.584-0.118,4.291,0.502,5.388,1.112c1.177,0.655,3.36,2.249,3.875,2.625
		c0.265,0.194,1.29,0.946,2.744,1.393c0.474,0.146,0.754,0.186,0.865,0.2c0.176,0.022,1.569,0.183,2.641-0.467
		c1.056-0.64,0.674-1.384,1.75-2.5c0.129-0.134,1.67-1.69,3.409-1.408c1.243,0.201,2.002,1.247,2.466,1.908
		c1.815,2.58,0.556,4.406,2.125,6.875c1.097,1.726,2.752,2.47,3.375,2.75c0.475,0.214,3.659,1.582,7,0
		c2.858-1.353,3.928-3.965,4.25-4.75c1.496-3.65,0.306-7.34,0.125-7.875c-0.847-2.508-2.291-3.813-1.625-5.125
		c0.409-0.806,1.381-1.153,2-1.375c1.306-0.467,2.043-0.098,3.875-0.5c0.702-0.154,1.261-0.354,1.625-0.5
		c0.772-1.165,1.668-2.797,2.25-4.875c0.87-3.108,0.388-4.894,1.75-6.5c0.885-1.043,2.194-1.571,3.653-1.804
		c1.459,0.233,2.768,0.761,3.653,1.804c1.362,1.606,0.88,3.392,1.75,6.5c0.582,2.078,1.478,3.71,2.25,4.875
		c0.364,0.146,0.923,0.346,1.625,0.5c1.832,0.402,2.569,0.033,3.875,0.5c0.619,0.222,1.591,0.569,2,1.375
		c0.666,1.312-0.778,2.617-1.625,5.125c-0.181,0.535-1.371,4.225,0.125,7.875c0.322,0.785,1.392,3.397,4.25,4.75
		c3.341,1.582,6.525,0.214,7,0c0.623-0.28,2.278-1.024,3.375-2.75c1.569-2.469,0.31-4.295,2.125-6.875
		c0.465-0.661,1.223-1.707,2.466-1.908c1.738-0.282,3.279,1.274,3.409,1.408c1.076,1.116,0.694,1.86,1.75,2.5
		c1.072,0.65,2.466,0.49,2.641,0.467c0.11-0.014,0.391-0.054,0.865-0.2c1.454-0.447,2.478-1.199,2.744-1.393
		c0.515-0.376,2.698-1.97,3.875-2.625c1.097-0.61,2.804-1.23,5.388-1.112c0.087,2.909-0.632,4.525-1.112,5.388
		c-0.655,1.177-2.249,3.36-2.625,3.875c-0.194,0.265-0.946,1.29-1.393,2.744c-0.146,0.474-0.186,0.754-0.2,0.865
		c-0.022,0.176-0.183,1.569,0.467,2.641c0.64,1.056,1.384,0.674,2.5,1.75c0.134,0.129,1.69,1.67,1.408,3.409
		c-0.201,1.243-1.247,2.002-1.908,2.466c-2.58,1.815-4.406,0.556-6.875,2.125c-1.726,1.097-2.47,2.752-2.75,3.375
		c-0.214,0.475-1.582,3.659,0,7c1.353,2.858,3.965,3.928,4.75,4.25c3.65,1.496,7.34,0.306,7.875,0.125
		c2.508-0.847,3.813-2.291,5.125-1.625c0.806,0.409,1.153,1.381,1.375,2c0.467,1.306,0.098,2.043,0.5,3.875
		c0.154,0.702,0.354,1.261,0.5,1.625c1.165,0.772,2.797,1.668,4.875,2.25c3.108,0.87,4.894,0.388,6.5,1.75
		c1.043,0.885,1.571,2.194,1.804,3.653C215.857,143.191,215.33,144.5,214.286,145.385z"/>
</g>
<g id="c5">
	<path fill="#58585A" d="M167.286,139.517c-0.328-0.207-1.111-0.647-4.625-0.938c-0.656-0.054-2.018-0.154-3.875-0.375
		c-1.301-0.155-1.986-0.268-2.438-0.813c-0.508-0.614-0.432-1.428-0.375-2.125c0.105-1.287,0.221-3.086,0.282-5.504
		c0.025-0.326,0.02-0.816-0.157-1.371c-0.091-0.284-0.207-0.521-0.317-0.71c-0.139-0.082-0.385-0.213-0.71-0.317
		c-0.554-0.177-1.045-0.182-1.371-0.157c-2.418,0.061-4.218,0.177-5.504,0.282c-0.697,0.057-1.511,0.133-2.125-0.375
		c-0.545-0.451-0.657-1.137-0.813-2.438c-0.221-1.857-0.321-3.219-0.375-3.875c-0.29-3.514-0.73-4.297-0.938-4.625
		c-0.588-0.931-1.38-1.49-1.943-1.812c-0.181,0-0.362,0-0.544,0c-0.564,0.322-1.355,0.881-1.943,1.812
		c-0.207,0.328-0.647,1.111-0.938,4.625c-0.054,0.656-0.154,2.018-0.375,3.875c-0.155,1.301-0.268,1.986-0.813,2.438
		c-0.614,0.508-1.428,0.432-2.125,0.375c-1.287-0.105-3.086-0.221-5.504-0.282c-0.326-0.025-0.816-0.02-1.371,0.157
		c-0.284,0.091-0.521,0.207-0.71,0.317l0,0l0,0c-0.11,0.188-0.226,0.425-0.317,0.71c-0.177,0.554-0.182,1.045-0.157,1.371
		c0.061,2.418,0.177,4.218,0.282,5.504c0.057,0.697,0.133,1.511-0.375,2.125c-0.451,0.545-1.137,0.657-2.438,0.813
		c-1.857,0.221-3.219,0.321-3.875,0.375c-3.514,0.29-4.297,0.73-4.625,0.938c-0.931,0.588-1.49,1.38-1.812,1.943
		c0,0.181,0,0.362,0,0.544c0.322,0.564,0.881,1.355,1.812,1.943c0.328,0.207,1.111,0.647,4.625,0.938
		c0.656,0.054,2.018,0.154,3.875,0.375c1.301,0.155,1.986,0.268,2.438,0.813c0.508,0.614,0.432,1.428,0.375,2.125
		c-0.105,1.287-0.221,3.086-0.282,5.504c-0.025,0.326-0.02,0.816,0.157,1.371c0.091,0.284,0.207,0.521,0.317,0.71l0,0v0
		c0.188,0.11,0.425,0.226,0.71,0.317c0.554,0.177,1.045,0.182,1.371,0.157c2.418-0.061,4.218-0.177,5.504-0.282
		c0.697-0.057,1.511-0.133,2.125,0.375c0.545,0.451,0.657,1.137,0.813,2.438c0.221,1.857,0.321,3.219,0.375,3.875
		c0.29,3.514,0.73,4.297,0.938,4.625c0.588,0.931,1.38,1.49,1.943,1.812c0.181,0,0.362,0,0.544,0
		c0.564-0.322,1.355-0.881,1.943-1.812c0.207-0.328,0.647-1.111,0.938-4.625c0.054-0.656,0.154-2.018,0.375-3.875
		c0.155-1.301,0.268-1.986,0.813-2.438c0.614-0.508,1.428-0.432,2.125-0.375c1.287,0.105,3.086,0.221,5.504,0.282
		c0.326,0.025,0.816,0.02,1.371-0.157c0.284-0.091,0.521-0.207,0.71-0.317c0.11-0.188,0.226-0.425,0.317-0.71
		c0.177-0.554,0.182-1.045,0.157-1.371c-0.061-2.418-0.177-4.218-0.282-5.504c-0.057-0.697-0.133-1.511,0.375-2.125
		c0.451-0.545,1.137-0.657,2.438-0.813c1.857-0.221,3.219-0.321,3.875-0.375c3.514-0.29,4.297-0.73,4.625-0.938
		c0.931-0.588,1.49-1.38,1.812-1.943c0-0.181,0-0.362,0-0.544C168.777,140.897,168.217,140.105,167.286,139.517z"/>
</g>
</svg>
