<?xml version="1.0" encoding="utf-8"?>
<!-- Generator: Adobe Illustrator 22.0.0, SVG Export Plug-In . SVG Version: 6.00 Build 0)  -->
<svg version="1.1" xmlns="http://www.w3.org/2000/svg" xmlns:xlink="http://www.w3.org/1999/xlink" x="0px" y="0px"
	 viewBox="0 0 283.5 283.5" enable-background="new 0 0 283.5 283.5" xml:space="preserve">
<g id="c1">
	<g>
		<polygon fill-rule="evenodd" clip-rule="evenodd" fill="#6A6967" points="94.506,48.347 141.751,70.883 141.751,0.018 
			94.506,0.018 		"/>
		<polygon fill-rule="evenodd" clip-rule="evenodd" fill="#6A6967" points="47.262,260.945 94.506,283.482 141.751,283.482 
			141.751,257.689 47.262,212.617 		"/>
		<polygon fill-rule="evenodd" clip-rule="evenodd" fill="#6A6967" points="47.262,119.213 94.506,141.75 94.506,190.078 
			141.751,212.617 141.751,115.957 47.262,70.883 		"/>
		<polygon fill-rule="evenodd" clip-rule="evenodd" fill="#6A6967" points="188.995,0.018 188.995,48.347 236.238,70.883 
			236.238,119.213 283.482,141.75 283.482,45.092 		"/>
		<polygon fill-rule="evenodd" clip-rule="evenodd" fill="#6A6967" points="188.995,190.078 236.238,212.617 236.238,260.945 
			283.482,283.482 283.482,186.824 188.995,141.75 		"/>
	</g>
</g>
<g id="c2">
	<g>
		<polygon fill-rule="evenodd" clip-rule="evenodd" fill="#DEDEDE" points="47.262,70.865 141.751,115.94 236.238,70.865 
			188.995,48.329 141.751,70.865 94.506,48.329 		"/>
		<polygon fill-rule="evenodd" clip-rule="evenodd" fill="#DEDEDE" points="188.995,190.061 141.751,212.599 94.506,190.061 
			47.262,212.599 141.751,257.671 236.238,212.599 		"/>
		<polygon fill-rule="evenodd" clip-rule="evenodd" fill="#DEDEDE" points="188.995,283.465 283.482,283.465 236.238,260.927 		"/>
		<polygon fill-rule="evenodd" clip-rule="evenodd" fill="#DEDEDE" points="0.018,283.465 94.506,283.465 47.262,260.927 		"/>
		<polygon fill-rule="evenodd" clip-rule="evenodd" fill="#DEDEDE" points="188.995,0 283.482,45.074 283.482,0 		"/>
		<polygon fill-rule="evenodd" clip-rule="evenodd" fill="#DEDEDE" points="0.018,0 0.018,45.074 94.506,0 		"/>
		<polygon fill-rule="evenodd" clip-rule="evenodd" fill="#DEDEDE" points="188.995,141.732 283.482,186.806 283.482,141.732 
			236.238,119.195 		"/>
		<polygon fill-rule="evenodd" clip-rule="evenodd" fill="#DEDEDE" points="47.262,119.195 0.018,141.732 0.018,186.806 
			94.506,141.732 		"/>
	</g>
</g>
<g id="c3">
	<g>
		<polygon fill-rule="evenodd" clip-rule="evenodd" fill="#353333" points="188.995,0 141.751,0 141.751,70.865 188.995,48.329 		
			"/>
		<polygon fill-rule="evenodd" clip-rule="evenodd" fill="#353333" points="141.751,283.465 188.995,283.465 236.238,260.927 
			236.238,212.599 141.751,257.671 		"/>
		<polygon fill-rule="evenodd" clip-rule="evenodd" fill="#353333" points="141.751,115.94 141.751,212.599 188.995,190.061 
			188.995,141.732 236.238,119.195 236.238,70.865 		"/>
		<polygon fill-rule="evenodd" clip-rule="evenodd" fill="#353333" points="0.018,141.732 47.262,119.195 47.262,70.865 
			94.506,48.329 94.506,0 0.018,45.074 		"/>
		<polygon fill-rule="evenodd" clip-rule="evenodd" fill="#353333" points="0.018,283.465 47.262,260.927 47.262,212.599 
			94.506,190.061 94.506,141.732 0.018,186.806 		"/>
	</g>
</g>
</svg>
