<?xml version="1.0" encoding="utf-8"?>
<!-- Generator: Adobe Illustrator 22.0.0, SVG Export Plug-In . SVG Version: 6.00 Build 0)  -->
<svg version="1.1" xmlns="http://www.w3.org/2000/svg" xmlns:xlink="http://www.w3.org/1999/xlink" x="0px" y="0px"
	 viewBox="0 0 283.5 283.5" enable-background="new 0 0 283.5 283.5" xml:space="preserve">
<g id="c4">
	<polygon fill="#9E9FA2" points="141.653,141.806 -0.024,0.056 -0.024,283.556 	"/>
</g>
<g id="c3">
	<polygon fill="#DEDEDE" points="141.847,141.647 0.171,283.397 283.524,283.397 	"/>
</g>
<g id="c2">
	<polygon fill="#9E9FA2" points="141.847,141.806 283.524,283.556 283.524,0.056 	"/>
</g>
<g id="c1">
	<polygon fill="#DEDEDE" points="141.806,141.653 283.482,-0.097 0.13,-0.097 	"/>
</g>
<g id="c5">
	<path fill="#353333" d="M0.379,212.982c23.586-23.613,47.226-47.297,70.812-70.91C47.577,118.458,23.864,94.762,0.25,71.149
		L0.379,212.982z"/>
	<path fill="#353333" d="M212.742,283.414c-23.613-23.586-47.297-47.226-70.91-70.812c-23.613,23.614-47.309,47.327-70.923,70.941
		L212.742,283.414z"/>
	<path fill="#353333" d="M283.596,212.629c-23.614-23.613-47.327-47.309-70.941-70.923c23.586-23.613,47.226-47.297,70.812-70.91
		L283.596,212.629z"/>
	<path fill="#353333" d="M212.9,0.068c-23.601,23.626-47.285,47.352-70.886,70.978c-23.6-23.598-47.273-47.25-70.873-70.849
		L212.9,0.068z"/>
</g>
<g id="c6">
	<path fill="#9E9FA2" d="M106.407-0.072c11.792,11.759,23.644,23.674,35.436,35.433c11.793-11.773,23.609-23.661,35.402-35.434
		C153.66-0.058,129.992-0.085,106.407-0.072z"/>
	<path fill="#DEDEDE" d="M283.541,106.134c-11.753,11.799-23.662,23.656-35.415,35.455c11.767,11.799,23.649,23.622,35.416,35.42
		C283.528,153.411,283.555,129.731,283.541,106.134z"/>
	<path fill="#9E9FA2" d="M177.342,283.366c-11.792-11.759-23.644-23.674-35.436-35.433c-11.793,11.773-23.609,23.661-35.402,35.434
		C130.089,283.353,153.757,283.38,177.342,283.366z"/>
	<path fill="#DEDEDE" d="M0.154,177.009c11.753-11.799,23.662-23.656,35.415-35.455c-11.767-11.799-23.649-23.621-35.416-35.42
		C0.167,129.731,0.14,153.411,0.154,177.009z"/>
</g>
</svg>
