<?xml version="1.0" encoding="utf-8"?>
<!-- Generator: Adobe Illustrator 22.0.0, SVG Export Plug-In . SVG Version: 6.00 Build 0)  -->
<svg version="1.1" xmlns="http://www.w3.org/2000/svg" xmlns:xlink="http://www.w3.org/1999/xlink" x="0px" y="0px"
	 viewBox="0 0 283.5 283.5" enable-background="new 0 0 283.5 283.5" xml:space="preserve">
<g id="c1">
	<g>
		<path fill="#9D9FA2" d="M283.448,84.961c-18.862,18.891-37.768,37.84-56.63,56.73c18.885,18.892,37.75,37.783,56.635,56.674
			C283.43,160.583,283.47,122.744,283.448,84.961z"/>
		<path fill="#9D9FA2" d="M0.005,198.371c18.862-18.891,37.784-37.849,56.646-56.74c-18.885-18.892-37.75-37.783-56.635-56.674
			C0.04,122.739-0.017,160.588,0.005,198.371z"/>
	</g>
</g>
<g id="c2">
	<g>
		<path fill="#DEDEDE" d="M141.737,141.733c47.201-47.212,94.526-94.508,141.726-141.72c-28.337,0.044-56.785-0.044-85.123,0
			c-18.892,18.885-37.741,37.731-56.632,56.616c-18.891-18.862-37.804-37.754-56.695-56.616C56.676,0.001,28.36,0.019,0.023,0.008
			C47.224,47.165,94.536,94.575,141.737,141.733L141.737,141.733z"/>
		<path fill="#DEDEDE" d="M141.737,141.733C94.536,188.945,47.224,236.228,0.023,283.44c28.337-0.044,56.746,0.056,85.084,0.013
			c18.892-18.885,37.78-37.744,56.671-56.629c18.891,18.862,37.804,37.754,56.695,56.616c28.337,0.011,56.652-0.006,84.99,0.005
			C236.262,236.287,188.937,188.89,141.737,141.733L141.737,141.733z"/>
	</g>
</g>
<g id="c3">
	<g>
		<path fill="#6A6967" d="M141.719,141.733c47.158-47.201,94.569-94.519,141.726-141.72c-0.011,28.337,0.011,56.621,0,84.958
			c-18.862,18.891-37.765,37.836-56.627,56.727c18.885,18.892,37.75,37.783,56.635,56.674c0.044,28.337-0.051,56.743-0.008,85.08
			C236.233,236.252,188.931,188.933,141.719,141.733"/>
		<path fill="#6A6967" d="M141.719,141.733c-47.158,47.201-94.556,94.519-141.714,141.72c0.011-28.337-0.011-56.545,0-84.882
			c18.862-18.891,37.784-37.849,56.646-56.74c-18.885-18.892-37.75-37.783-56.635-56.674c-0.044-28.337,0.032-56.81-0.012-85.148
			C47.217,47.209,94.507,94.532,141.719,141.733L141.719,141.733z"/>
	</g>
</g>
<g id="c4">
	<g>
		<path fill="#9D9FA2" d="M198.34,0.006c-37.783,0.022-75.545-0.022-113.327,0c18.891,18.862,37.804,37.754,56.695,56.616
			C160.6,37.738,179.449,18.891,198.34,0.006z"/>
		<path fill="#9D9FA2" d="M85.107,283.446c37.783-0.022,75.584,0.01,113.366-0.013c-18.891-18.862-37.804-37.754-56.695-56.616
			C122.886,245.702,103.998,264.561,85.107,283.446z"/>
	</g>
</g>
</svg>
