<?xml version="1.0" encoding="utf-8"?>
<!-- Generator: Adobe Illustrator 22.0.0, SVG Export Plug-In . SVG Version: 6.00 Build 0)  -->
<svg version="1.1" xmlns="http://www.w3.org/2000/svg" xmlns:xlink="http://www.w3.org/1999/xlink" x="0px" y="0px"
	 viewBox="0 0 283.465 283.465" enable-background="new 0 0 283.465 283.465" xml:space="preserve">
<g id="c1">
	<path fill="none" stroke="#000000" stroke-width="0.1496" stroke-miterlimit="10" d="M211.693,0c23.924,0,47.848,0,71.771,0
		c0,23.924,0,47.848,0,71.771C212.9,142.336,142.336,212.9,71.771,283.465c-23.924,0-47.848,0-71.771,0c0-23.924,0-47.848,0-71.771
		C70.564,141.129,141.129,70.564,211.693,0z"/>
	<path fill="#DEDEDE" d="M0,72.158c0,46.512,0,93.023,0,139.535C70.564,141.129,141.129,70.564,211.693,0
		C165.182,0,118.67,0,72.158,0c18.712,18.712,37.424,37.424,56.135,56.135c-23.735,0.318-47.47,0.635-71.206,0.953
		c-0.318,23.735-0.635,47.47-0.953,71.206C37.424,109.582,18.712,90.87,0,72.158z"/>
	<path fill="#DEDEDE" d="M283.465,211.306c0-46.512,0-93.023,0-139.535C212.9,142.336,142.336,212.9,71.771,283.465
		c46.512,0,93.023,0,139.535,0c-18.712-18.712-37.424-37.423-56.135-56.135c23.735-0.318,47.471-0.635,71.206-0.953
		c0.318-23.735,0.635-47.47,0.953-71.206C246.041,173.883,264.753,192.594,283.465,211.306z"/>
</g>
<g id="c2">
	<path fill="#58585A" d="M0,211.693c23.924,23.924,47.848,47.848,71.771,71.771c-23.924,0-47.848,0-71.771,0
		C0,259.541,0,235.617,0,211.693z"/>
	<path fill="#58585A" d="M211.693,0c23.924,23.924,47.848,47.848,71.771,71.771c0-23.924,0-47.848,0-71.771
		C259.541,0,235.617,0,211.693,0z"/>
</g>
<g id="c3">
	
		<rect x="-7.957" y="90.982" transform="matrix(0.7071 -0.7071 0.7071 0.7071 -58.7074 141.7323)" fill="#9D9FA2" width="299.379" height="101.5"/>
</g>
<g id="c4">
	<path fill="#58585A" d="M0,0c0,24.053,0,48.106,0,72.158c18.712,18.712,37.424,37.423,56.135,56.135
		c0.318-23.735,0.635-47.47,0.953-71.206C38.059,38.059,19.029,19.029,0,0z"/>
	<path fill="#58585A" d="M283.465,283.465c0-24.053,0-48.106,0-72.158c-18.712-18.712-37.424-37.423-56.135-56.135
		c-0.318,23.735-0.635,47.47-0.953,71.206C245.406,245.406,264.435,264.435,283.465,283.465z"/>
</g>
<g id="c5">
	<path fill="#9D9FA2" d="M0,0c24.053,0,48.106,0,72.158,0c18.712,18.712,37.423,37.424,56.135,56.135
		c-23.735,0.318-47.47,0.635-71.206,0.953C38.059,38.059,19.029,19.029,0,0z"/>
	<path fill="#9D9FA2" d="M283.465,283.465c-24.053,0-48.106,0-72.158,0c-18.712-18.712-37.423-37.423-56.135-56.135
		c23.735-0.318,47.47-0.635,71.206-0.953C245.406,245.406,264.435,264.435,283.465,283.465z"/>
</g>
</svg>
