<?xml version="1.0" encoding="utf-8"?>
<!-- Generator: Adobe Illustrator 22.0.0, SVG Export Plug-In . SVG Version: 6.00 Build 0)  -->
<svg version="1.1" xmlns="http://www.w3.org/2000/svg" xmlns:xlink="http://www.w3.org/1999/xlink" x="0px" y="0px"
	 viewBox="0 0 283.5 283.5" enable-background="new 0 0 283.5 283.5" xml:space="preserve">
<g id="c1">
	<g>
		<path fill="#6A6967" d="M179.591,0.034c-12.596,34.246-25.191,68.492-37.787,102.738C129.376,68.465,116.948,34.158,104.52-0.15
			C84.363-0.199,64.207-0.248,44.05-0.298c32.558,45.139,65.116,90.277,97.674,135.416c32.778-44.979,65.557-89.957,98.335-134.936
			C219.903,0.133,199.747,0.083,179.591,0.034z"/>
		<path fill="#6A6967" d="M0.068,103.792c34.246,12.596,68.492,25.191,102.738,37.787c-34.307,12.428-68.615,24.856-102.922,37.284
			c-0.049,20.156-0.099,40.313-0.148,60.469c45.139-32.558,90.277-65.116,135.416-97.674C90.174,108.879,45.195,76.101,0.216,43.322
			C0.167,63.479,0.118,83.635,0.068,103.792z"/>
		<path fill="#6A6967" d="M103.826,283.314c12.596-34.246,25.191-68.492,37.787-102.738c12.428,34.307,24.856,68.615,37.284,102.922
			c20.156,0.049,40.313,0.099,60.469,0.148c-32.558-45.139-65.116-90.277-97.674-135.416
			c-32.779,44.979-65.557,89.957-98.335,134.936C63.513,283.215,83.67,283.265,103.826,283.314z"/>
		<path fill="#6A6967" d="M283.348,179.556c-34.246-12.596-68.492-25.191-102.738-37.787
			c34.307-12.428,68.615-24.856,102.922-37.284c0.049-20.156,0.099-40.313,0.148-60.469
			c-45.139,32.558-90.277,65.116-135.416,97.674c44.979,32.779,89.957,65.557,134.936,98.336
			C283.25,219.869,283.299,199.713,283.348,179.556z"/>
	</g>
</g>
<g id="c2">
	<g>
		<path fill="#9D9FA2" d="M141.732,0c-6.256,0-12.512,0-18.768,0c6.256,17.138,12.512,34.277,18.768,51.415
			C147.988,34.277,154.244,17.138,160.5,0C154.244,0,147.988,0,141.732,0z"/>
		<path fill="#9D9FA2" d="M0,141.732c0,6.256,0,12.512,0,18.768c17.138-6.256,34.277-12.512,51.415-18.768
			C34.277,135.476,17.138,129.22,0,122.965C0,129.22,0,135.476,0,141.732z"/>
		<path fill="#9D9FA2" d="M141.732,283.465c6.256,0,12.512,0,18.768,0c-6.256-17.138-12.512-34.277-18.768-51.415
			c-6.256,17.138-12.512,34.277-18.768,51.415C129.22,283.465,135.476,283.465,141.732,283.465z"/>
		<path fill="#9D9FA2" d="M283.465,141.732c0-6.256,0-12.512,0-18.768c-17.138,6.256-34.277,12.512-51.415,18.768
			c17.138,6.256,34.277,12.512,51.415,18.768C283.465,154.244,283.465,147.988,283.465,141.732z"/>
	</g>
</g>
<g id="c3">
	<g>
		<path fill="#9D9FA2" d="M79.711,79.529C60.563,53.019,41.415,26.51,22.268,0C14.851,0,7.434,0,0.018,0c0,7.417,0,14.833,0,22.25
			c26.51,19.148,53.019,38.296,79.529,57.444c-0.952-1.065-1.921-2.137-2.885-3.207C77.679,77.501,78.695,78.515,79.711,79.529z"/>
		<path fill="#9D9FA2" d="M77.382,205.94c0.722-0.723,1.443-1.446,2.165-2.169c-26.51,19.148-53.019,38.296-79.529,57.444
			c0,7.417,0,14.833,0,22.25c7.417,0,14.833,0,22.25,0c19.148-26.51,38.296-53.019,57.444-79.529
			C78.939,204.592,78.158,205.275,77.382,205.94z"/>
		<path fill="#9D9FA2" d="M203.789,203.935c19.148,26.51,38.296,53.019,57.444,79.529c7.417,0,14.833,0,22.25,0
			c0-7.417,0-14.833,0-22.25c-26.51-19.148-53.019-38.296-79.529-57.444c0.952,1.065,1.921,2.137,2.885,3.207
			C205.821,205.964,204.805,204.95,203.789,203.935z"/>
	</g>
	<path fill="#9D9FA2" d="M261.232,0c-19.148,26.51-38.296,53.019-57.444,79.529c0.435-0.434,0.87-0.868,1.305-1.302
		c-0.38,0.489-0.766,0.981-1.141,1.467c26.51-19.148,53.019-38.296,79.529-57.444c0-7.417,0-14.833,0-22.25
		C276.066,0,268.649,0,261.232,0z"/>
</g>
<g id="c4">
	<g>
		<path fill="#DEDEDE" d="M160.5,0c-6.167,16.896-12.335,33.793-18.502,50.689c-0.177,0-0.354,0-0.531,0l0,0l0,0
			C135.299,33.793,129.132,16.896,122.965,0c-6.256,0-12.512,0-18.768,0c12.512,34.277,25.024,68.554,37.535,102.83
			C154.244,68.554,166.756,34.277,179.268,0C173.012,0,166.756,0,160.5,0z"/>
		<path fill="#DEDEDE" d="M0,122.965c16.896,6.167,33.793,12.335,50.689,18.502c0,0.177,0,0.354,0,0.531l0,0l0,0
			C33.793,148.165,16.896,154.333,0,160.5c0,6.256,0,12.512,0,18.768c34.277-12.512,68.554-25.024,102.83-37.535
			C68.554,129.22,34.277,116.709,0,104.197C0,110.453,0,116.709,0,122.965z"/>
		<path fill="#DEDEDE" d="M122.965,283.465c6.167-16.896,12.335-33.793,18.502-50.689c0.177,0,0.354,0,0.531,0l0,0l0,0
			c6.167,16.896,12.335,33.793,18.502,50.689c6.256,0,12.512,0,18.768,0c-12.512-34.277-25.024-68.554-37.535-102.83
			c-12.512,34.277-25.024,68.554-37.535,102.83C110.453,283.465,116.709,283.465,122.965,283.465z"/>
		<path fill="#DEDEDE" d="M283.465,160.5c-16.896-6.167-33.793-12.335-50.689-18.502c0-0.177,0-0.354,0-0.531l0,0l0,0
			c16.896-6.167,33.793-12.335,50.689-18.502c0-6.256,0-12.512,0-18.768c-34.277,12.512-68.554,25.024-102.83,37.535
			c34.277,12.512,68.554,25.024,102.83,37.535C283.465,173.012,283.465,166.756,283.465,160.5z"/>
	</g>
</g>
<g id="c5">
	<path fill="#DEDEDE" d="M283.482,22.268c-26.707,19.29-53.414,38.581-80.121,57.871c19.29-26.707,38.581-53.414,57.871-80.121
		c-7.159,0-14.318,0-21.477,0c-32.668,45.059-65.337,90.118-98.005,135.176C109.082,90.135,76.413,45.076,43.745,0.018
		c-7.159,0-14.318,0-21.477,0c19.29,26.707,38.581,53.414,57.871,80.121C53.432,60.848,26.725,41.558,0.018,22.268
		c0,7.159,0,14.318,0,21.477c45.059,32.668,90.118,65.337,135.176,98.005c-45.059,32.668-90.118,65.337-135.176,98.005
		c0,7.159,0,14.318,0,21.477c26.707-19.29,53.414-38.581,80.121-57.871c-19.29,26.707-38.581,53.414-57.871,80.121
		c7.159,0,14.318,0,21.477,0c32.668-45.059,65.337-90.118,98.005-135.176c32.668,45.059,65.337,90.118,98.005,135.176
		c7.159,0,14.318,0,21.477,0c-19.29-26.707-38.581-53.414-57.871-80.121c26.707,19.29,53.414,38.581,80.121,57.871
		c0-7.159,0-14.318,0-21.477c-45.059-32.668-90.118-65.337-135.176-98.005c45.059-32.668,90.118-65.337,135.176-98.005
		C283.482,36.586,283.482,29.427,283.482,22.268z"/>
</g>
</svg>
