<?xml version="1.0" encoding="utf-8"?>
<!-- Generator: Adobe Illustrator 22.0.0, SVG Export Plug-In . SVG Version: 6.00 Build 0)  -->
<svg version="1.1" xmlns="http://www.w3.org/2000/svg" xmlns:xlink="http://www.w3.org/1999/xlink" x="0px" y="0px"
	 viewBox="0 0 283.5 283.5" enable-background="new 0 0 283.5 283.5" xml:space="preserve">
<g id="c1">
	<rect x="0.018" y="0.018" fill="#DEDEDE" width="283.465" height="283.465"/>
</g>
<g id="c2">
	<path fill="#6A6967" d="M198.443,0c28.346,68.947,56.693,137.894,85.039,206.841c0-34.583,0-69.167,0-103.75
		C269.309,68.727,255.136,34.364,240.963,0C226.789,0,212.616,0,198.443,0z"/>
	<path fill="#6A6967" d="M0.018,198.425c68.947,28.346,137.894,56.693,206.841,85.039c-34.583,0-69.167,0-103.75,0
		c-34.364-14.173-68.727-28.346-103.091-42.52C0.018,226.772,0.018,212.598,0.018,198.425z"/>
</g>
<g id="c3">
	<path fill="#6A6967" d="M85.057,0.018c-28.346,0-56.693,0-85.039,0c0,28.346,0,56.693,0,85.039
		c91.614,66.142,183.227,132.283,274.841,198.425c2.875,0,5.749,0,8.624,0c0-2.875,0-5.749,0-8.624
		C217.341,183.245,151.199,91.631,85.057,0.018z"/>
</g>
</svg>
