<?xml version="1.0" encoding="utf-8"?>
<!-- Generator: Adobe Illustrator 22.0.0, SVG Export Plug-In . SVG Version: 6.00 Build 0)  -->
<svg version="1.1" xmlns="http://www.w3.org/2000/svg" xmlns:xlink="http://www.w3.org/1999/xlink" x="0px" y="0px"
	 viewBox="0 0 283.5 283.5" enable-background="new 0 0 283.5 283.5" xml:space="preserve">
<g id="c1">
	<path fill-rule="evenodd" clip-rule="evenodd" fill="#9D9FA2" d="M236.693,181.358c-0.285-4.916-3.398-8.4-6.557-10.888
		c-1.465,6.394-5.767,26.542-12.208,28.553c-11.051-9.934,4.147-20.694-16.024-23.145c-1.78,3.151-3.784,6.244-4.092,9.741
		c-4.137-2.338-9.694-1.183-11.978-0.936c-0.021,0.279-0.056,0.604-0.094,0.972c-0.367,0.039-0.692,0.072-0.971,0.094
		c-0.246,2.288-1.399,7.855,0.935,11.999c-3.49,0.309-6.579,2.315-9.724,4.099c2.447,20.206,13.187,4.982,23.105,16.051
		c-2.007,6.453-22.121,10.762-28.505,12.23c2.484,3.164,5.962,6.283,10.869,6.569c-1.154,4.812-1.52,7.39-0.354,14.729
		c8.496,3.917,11.42,3.847,15.679,3.268c-0.735,8.666,4.389,14.045,4.389,14.045c4.493-12.474,10.272-19.903,14.57-24.06
		c8.279-8.014,18.425-0.045,26.272,7.704c0.77,0.761,1.518,1.519,2.24,2.26c2.033,14.433,10.54,19.238,17.739,14.362
		c2.146-1.454,5.877-5.246,7.173-7.295c4.517-7.141-0.348-15.445-14.546-17.451c-0.738-0.724-1.496-1.473-2.255-2.245
		c-7.736-7.86-15.691-18.023-7.691-26.316c4.15-4.304,11.565-10.093,24.019-14.594c0,0-5.369-5.132-14.022-4.396
		c0.579-4.267,0.65-7.195-3.262-15.705C244.072,179.834,241.498,180.201,236.693,181.358z"/>
	<path fill-rule="evenodd" clip-rule="evenodd" fill="#FFFFFF" stroke="#050505" stroke-width="1.6667" stroke-miterlimit="10" d="
		M283.482,54.762"/>
</g>
<g id="c2">
	<path fill-rule="evenodd" clip-rule="evenodd" fill="#6A6967" d="M252.253,241.996c0.759,0.772,1.517,1.521,2.255,2.245
		c14.198,2.006,19.063,10.31,14.546,17.451c-1.295,2.049-5.027,5.841-7.173,7.295c-7.199,4.876-15.707,0.072-17.739-14.362
		c-0.722-0.741-1.47-1.5-2.24-2.26c-6.678,8.62-10.813,19.378-11.261,31.099h52.656v-52.747
		C271.599,231.166,260.858,235.308,252.253,241.996z"/>
	<path fill-rule="evenodd" clip-rule="evenodd" fill="#FFFFFF" stroke="#050505" stroke-width="1.6667" stroke-miterlimit="10" d="
		M283.381,54.744"/>
</g>
<g id="c3">
	<path fill-rule="evenodd" clip-rule="evenodd" fill="#DEDEDE" d="M283.417,209.077c0,0-1.256-8.615-18.38-27.872
		c-18.242-20.513-53.032-23.669-75.61-9.466c-6.151,3.868-13.718,11.45-17.581,17.611c-14.178,22.615-11.028,57.465,9.45,75.737
		c17.298,15.435,25.778,18.044,27.304,18.412h22.159c0.447-11.721,4.582-22.479,11.261-31.099
		c-7.847-7.749-17.993-15.718-26.272-7.704c-4.297,4.157-10.076,11.585-14.57,24.06c0,0-5.123-5.379-4.389-14.045
		c-4.259,0.579-7.182,0.649-15.679-3.268c-1.166-7.338-0.8-9.917,0.354-14.729c-4.907-0.286-8.385-3.405-10.869-6.569
		c6.384-1.468,26.498-5.777,28.505-12.229c-9.918-11.069-20.658,4.155-23.105-16.051c3.146-1.784,6.234-3.79,9.724-4.099
		c-2.334-4.144-1.181-9.71-0.935-11.999c0.278-0.022,0.604-0.055,0.97-0.094c0.038-0.368,0.073-0.693,0.094-0.972
		c2.284-0.248,7.841-1.402,11.978,0.936c0.308-3.497,2.312-6.589,4.092-9.741c20.172,2.451,4.974,13.21,16.024,23.145
		c6.441-2.01,10.743-22.159,12.208-28.553c3.159,2.488,6.272,5.971,6.557,10.888c4.805-1.157,7.379-1.524,14.705-0.356
		c3.911,8.511,3.841,11.439,3.262,15.705c8.652-0.735,14.022,4.396,14.022,4.396c-12.453,4.501-19.869,10.29-24.018,14.594
		c-8,8.293-0.045,18.456,7.691,26.316c8.606-6.689,19.346-10.83,31.046-11.279V283.5h0.083v-74.438
		C283.472,209.067,283.445,209.072,283.417,209.077z"/>
</g>
<g id="c4">
	<path fill-rule="evenodd" clip-rule="evenodd" fill="#6A6967" d="M178.669,283.5h29.932c-1.526-0.368-10.006-2.977-27.305-18.412
		c-20.478-18.273-23.628-53.123-9.45-75.737c3.863-6.161,11.43-13.743,17.581-17.611c22.577-14.204,57.367-11.047,75.61,9.466
		c17.124,19.257,18.38,27.872,18.38,27.872v-30.503c0,0-19.955-35.769-72.461-28.402c-18.952,2.658-32.02,10.318-40.984,19.69
		c-9.356,8.979-17.004,22.069-19.657,41.053C142.963,263.51,178.669,283.5,178.669,283.5z"/>
	<path fill-rule="evenodd" clip-rule="evenodd" fill="#FFFFFF" stroke="#050505" stroke-width="1.6667" stroke-miterlimit="10" d="
		M283.5,54.779"/>
</g>
<g id="c5">
	<path fill-rule="evenodd" clip-rule="evenodd" fill="#DEDEDE" d="M150.256,210.897c2.654-18.984,10.302-32.074,19.657-41.053
		c8.963-9.372,22.032-17.032,40.983-19.69c52.506-7.366,72.461,28.402,72.461,28.402c0.028,0.053,0.055,0.107,0.083,0.16V96.868
		c-103.064,0-186.614,83.55-186.614,186.614h81.783C178.61,283.482,142.904,263.493,150.256,210.897z"/>
	<path fill-rule="evenodd" clip-rule="evenodd" fill="#FFFFFF" stroke="#050505" stroke-width="1.6667" stroke-miterlimit="10" d="
		M283.441,54.762"/>
</g>
<g id="c6">
	<g>
		<path fill-rule="evenodd" clip-rule="evenodd" fill="#9D9FA2" d="M120.067,272.961c-10.572-5.506-16.466,2.459-16.918,10.521
			h43.698c0,0,18.903-16.3-0.523-28.926C126.892,241.934,120.067,272.961,120.067,272.961z"/>
		<path fill-rule="evenodd" clip-rule="evenodd" fill="#9D9FA2" d="M272.855,119.913c0,0-30.974,6.837-18.373,26.301
			c12.605,19.459,28.876,0.525,28.876,0.525v-43.043C275.176,103.431,267.002,108.56,272.855,119.913z"/>
	</g>
	<path fill-rule="evenodd" clip-rule="evenodd" fill="#FFFFFF" stroke="#050505" stroke-width="1.6667" stroke-miterlimit="10" d="
		M283.441,54.762"/>
</g>
<g id="c7">
	<polygon fill="#FFFFFF" points="61.1,89.842 61.101,89.843 61.101,89.842 	"/>
	<path fill-rule="evenodd" clip-rule="evenodd" fill="#FFFFFF" stroke="#050505" stroke-width="1.6667" stroke-miterlimit="10" d="
		M19.878,181.697"/>
	<g>
		<path fill-rule="evenodd" clip-rule="evenodd" fill="#6A6967" d="M229.077-0.358c-3.151,0-6.302,0-9.452,0
			c0.009,4.507,0.526,26.387,17.985,44.399c18.332,18.913,41.587,19.371,45.757,19.38c-0.003-3.029-0.006-6.058-0.009-9.087
			c-5.22-0.106-16.149-1.045-27.543-7.876c-14.483-8.683-20.665-21.458-22.658-26.128c-1.093-3.298-2.134-7.12-2.916-11.412
			C229.632,5.581,229.273,2.468,229.077-0.358z"/>
		<path fill-rule="evenodd" clip-rule="evenodd" fill="#6A6967" d="M238.848,80.305c-17.16-9.572-26.835-22.054-30.537-27.28
			c-15.4-21.737-16.924-44.212-17.025-53.383c-3.081,0.003-6.163,0.006-9.244,0.009c-0.08,5.337,0.252,12.429,1.89,20.588
			c0.835,4.159,3.049,13.775,8.689,24.999c4.699,9.352,10.124,16.531,14.678,21.676c-21.38,8.01-57.329,24.574-88.455,56.8
			c-17.141,17.747-28.266,35.529-31.713,41.206c-9.504,15.652-15.829,30.176-20.08,41.86c-3.627-3.206-7.806-6.43-12.594-9.455
			c-20.426-12.905-41.314-15.48-54.398-15.781c0.003,3.145,0.006,6.291,0.009,9.436l0,0c6.591-0.005,14.856,0.685,24.027,3.175
			c19.659,5.336,32.994,16.091,39.974,22.723c-1.556,4.709-3.038,9.918-4.307,15.592c-1.699,7.601-2.705,14.65-3.274,20.948
			c-2.524-4.81-6.305-10.562-11.972-16.012C27.958,221.483,7.25,219.632,0.067,219.328c0.001,3.149,0.001,6.299,0.002,9.448
			c5.765,0.078,18.911,1.059,30.969,9.705c1.316,0.943,8.048,5.871,14.039,14.706c2.768,4.082,4.591,7.838,5.773,10.651
			c1.295,2.595,2.797,6.345,3.522,11.053c0.486,3.159,0.501,5.959,0.349,8.216c2.662,0,5.324,0,7.986,0
			c0.18-22.773,3.786-62.268,26.04-103.862c12.103-22.622,26.412-39.676,38.501-51.712c32.311-32.167,67.161-46.79,87.069-53.427
			c3.47,3.281,7.829,6.893,13.158,10.349c7.91,5.129,15.415,8.262,21.374,10.221c-7.637,1.452-17.947,3.886-29.716,8.152
			c-38.003,13.778-62.05,36.095-70.541,44.534c-29.965,29.782-42.099,61.575-46.236,73.86c-8.478,25.173-9.933,47.282-9.79,61.885
			c3.154,0,6.307,0,9.461,0c-0.187-13.358,1.028-33.48,8.477-56.435c2.436-7.506,13.71-40.494,44.642-71.642
			c26.39-26.574,53.342-37.966,59.124-40.33c28.726-11.746,54.262-13.033,69.089-12.678c0-3.273,0-6.546,0-9.82
			C274.804,92.072,257.41,90.66,238.848,80.305z"/>
	</g>
	<path fill-rule="evenodd" clip-rule="evenodd" fill="#FFFFFF" stroke="#050505" stroke-width="1.6667" stroke-miterlimit="10" d="
		M283.441,54.386"/>
</g>
<g id="c8">
	<path fill-rule="evenodd" clip-rule="evenodd" fill="#9D9FA2" d="M92.57,283.482c-0.143-14.603,1.313-36.712,9.79-61.885
		c4.137-12.285,16.271-44.078,46.236-73.86c8.491-8.439,32.538-30.756,70.541-44.534c11.768-4.267,22.079-6.701,29.716-8.152
		c-5.958-1.959-13.464-5.092-21.374-10.221c-5.329-3.455-9.688-7.067-13.158-10.349c-19.908,6.637-54.758,21.26-87.069,53.427
		c-12.09,12.036-26.398,29.09-38.501,51.712c-22.253,41.593-25.86,81.089-26.04,103.862H92.57z"/>
	<path fill-rule="evenodd" clip-rule="evenodd" fill="#9D9FA2" d="M283.387,63.806c-4.169-0.009-27.425-0.467-45.757-19.38
		c-17.459-18.013-17.976-39.892-17.985-44.399l-28.339,0c0.101,9.171,1.626,31.646,17.025,53.383
		c3.702,5.226,13.377,17.708,30.537,27.28c18.563,10.355,35.956,11.768,44.51,11.897L283.387,63.806z"/>
	<path fill-rule="evenodd" clip-rule="evenodd" fill="#9D9FA2" d="M0.059,219.703L0.059,219.703
		c7.178,0.303,27.893,2.151,44.457,18.079c5.667,5.45,9.448,11.202,11.972,16.012c0.57-6.298,1.575-13.346,3.274-20.948
		c1.269-5.674,2.751-10.883,4.307-15.592c-6.979-6.632-20.315-17.387-39.974-22.723c-9.171-2.489-17.436-3.179-24.027-3.175l0,0
		C0.065,200.805,0.062,210.254,0.059,219.703z"/>
	<path fill-rule="evenodd" clip-rule="evenodd" fill="#FFFFFF" stroke="#050505" stroke-width="1.6667" stroke-miterlimit="10" d="
		M19.878,182.072"/>
	<path fill-rule="evenodd" clip-rule="evenodd" fill="#FFFFFF" stroke="#050505" stroke-width="1.6667" stroke-miterlimit="10" d="
		M283.441,54.762"/>
</g>
<g id="c9">
	<g>
		<path fill-rule="evenodd" clip-rule="evenodd" fill="#6A6967" d="M274.96,77.752c0,5.524,4.199,8.29,8.397,8.291V69.452
			C279.16,69.454,274.96,72.223,274.96,77.752z"/>
		<path fill-rule="evenodd" clip-rule="evenodd" fill="#6A6967" d="M207.299,97.105c0-4.645-3.762-8.414-8.397-8.414
			c-4.636,0-8.4,3.769-8.4,8.414c0,4.649,3.765,8.418,8.4,8.418C203.537,105.523,207.299,101.754,207.299,97.105z"/>
		<path fill-rule="evenodd" clip-rule="evenodd" fill="#6A6967" d="M135.916,147.562c4.639,0,8.399-3.767,8.399-8.418
			c0-4.649-3.76-8.413-8.399-8.413c-4.638,0-8.395,3.764-8.395,8.413C127.522,143.795,131.279,147.562,135.916,147.562z"/>
		<path fill-rule="evenodd" clip-rule="evenodd" fill="#6A6967" d="M205.459,8.435c4.638,0,8.399-3.762,8.399-8.408h-16.806
			C197.055,4.67,200.818,8.435,205.459,8.435z"/>
		<path fill-rule="evenodd" clip-rule="evenodd" fill="#6A6967" d="M86.034,201.499c0,4.65,3.767,8.419,8.402,8.419
			c4.634,0,8.398-3.768,8.398-8.419c0-4.645-3.764-8.414-8.399-8.414C89.801,193.085,86.034,196.853,86.034,201.499z"/>
		<path fill-rule="evenodd" clip-rule="evenodd" fill="#6A6967" d="M85.872,283.482c-0.002-4.202-2.769-8.404-8.294-8.404
			c-5.521,0-8.285,4.202-8.287,8.404H85.872z"/>
		<path fill-rule="evenodd" clip-rule="evenodd" fill="#6A6967" d="M0.059,213.943c4.64,0,8.717-3.692,8.717-8.344
			c0-4.645-4.077-8.49-8.717-8.49V213.943z"/>
	</g>
	<path fill-rule="evenodd" clip-rule="evenodd" fill="#FFFFFF" stroke="#050505" stroke-width="1.6667" stroke-miterlimit="10" d="
		M19.878,182.072"/>
	<path fill-rule="evenodd" clip-rule="evenodd" fill="#FFFFFF" stroke="#050505" stroke-width="1.6667" stroke-miterlimit="10" d="
		M283.441,54.762"/>
</g>
<g id="c10">
	<polygon fill="#FFFFFF" points="61.1,90.218 61.101,90.219 61.101,90.218 	"/>
	<g>
		<path fill-rule="evenodd" clip-rule="evenodd" fill="#DEDEDE" d="M192.621,45.614c-4.312-8.578-6.755-16.477-8.192-22.683
			c-34.469-0.02-68.938-0.04-103.407-0.06c-0.18,0.131-0.367,0.276-0.547,0.409c-3.52,16.271-12.422,26.911-12.422,26.911
			s27.896,28.076,31.835,31.887c3.936,3.814,13.775,0,13.775,0c-1.177,4.211-6.302,9.98-6.302,9.98
			c1.199,1.941,2.008,4.266,2.208,6.594c0.345,3.275-0.605,6.352-3.121,8.535c-2.181,2.522-4.663,2.883-7.933,2.538
			c-2.323-0.2-4.646-1.012-6.583-2.212c0,0-5.761,5.134-9.963,6.312c0,0,3.807-9.855,0-13.797
			c-3.805-3.946-31.834-31.89-31.834-31.89s-10.644,8.935-26.914,12.454c-0.022,0.03-0.047,0.061-0.069,0.092
			c0.007,34.627,0.015,69.255,0.022,103.882c5.461,1.311,11.839,3.307,18.678,6.411c11.008,4.997,19.356,11.115,25.197,16.18
			c3.907-10.719,9.168-22.763,16.314-35.429c8.783-15.568,17.433-26.795,22.121-32.571c2.62-3.228,6.986-8.428,12.616-14.295
			c13.727-14.306,34.861-32.591,64.202-47.053c5.977-2.946,14.443-6.792,24.995-10.518
			C202.824,62.234,197.365,55.052,192.621,45.614z"/>
		<path fill-rule="evenodd" clip-rule="evenodd" fill="#DEDEDE" d="M23.175,283.473c0-16.4,0-32.8,0-49.2
			c1.987,0.938,4.778,2.408,7.862,4.583c9.376,6.615,14.133,14.597,16.582,18.806c2.503,4.302,5.423,9.431,6.627,16.892
			c0.587,3.635,0.59,6.734,0.473,8.927C44.205,283.479,33.69,283.476,23.175,283.473z"/>
		<path fill-rule="evenodd" clip-rule="evenodd" fill="#DEDEDE" d="M283.376,22.931c-16.033,0.134-32.066,0.267-48.099,0.401
			c1.894,4.394,5.824,11.857,13.526,18.507c1.571,1.356,8.205,6.916,18.72,10.26c6.363,2.023,11.945,2.535,15.835,2.613
			C283.364,44.118,283.37,33.524,283.376,22.931z"/>
	</g>
	<path fill-rule="evenodd" clip-rule="evenodd" fill="#FFFFFF" stroke="#050505" stroke-width="1.6667" stroke-miterlimit="10" d="
		M19.878,182.072"/>
	<path fill-rule="evenodd" clip-rule="evenodd" fill="#FFFFFF" stroke="#050505" stroke-width="1.6667" stroke-miterlimit="10" d="
		M283.441,54.762"/>
</g>
<g id="c11">
	<polygon fill="#FFFFFF" points="61.159,90.236 61.16,90.236 61.16,90.236 	"/>
	<g>
		<path fill-rule="evenodd" clip-rule="evenodd" fill="#6A6967" d="M80.628,22.949c34.62,0,69.241,0,103.861,0
			c-0.84-3.51-1.584-7.575-2.019-12.115c-0.377-3.942-0.456-7.566-0.369-10.789H81.043c0.542,3.063,0.96,6.823,0.907,11.116
			C81.894,15.765,81.313,19.755,80.628,22.949z"/>
		<path fill-rule="evenodd" clip-rule="evenodd" fill="#6A6967" d="M229.136,0.035c-0.006,2.958,0.23,6.548,1.027,10.554
			c1.046,5.263,2.726,9.568,4.263,12.768c16.336-0.136,32.673-0.272,49.009-0.408c-0.006-7.635-0.012-15.27-0.018-22.904
			C265.323,0.042,247.23,0.039,229.136,0.035z"/>
		<path fill-rule="evenodd" clip-rule="evenodd" fill="#6A6967" d="M23.235,234.29c-3.331-1.545-7.764-3.201-13.15-4.2
			c-3.734-0.692-7.107-0.917-9.956-0.921c-0.001,3.427-0.001,6.854-0.002,10.282c-0.002,14.683-0.005,29.366-0.007,44.049
			c7.705-0.003,15.411-0.006,23.116-0.009C23.235,267.091,23.235,250.691,23.235,234.29z"/>
		<path fill-rule="evenodd" clip-rule="evenodd" fill="#6A6967" d="M23.235,184.582c-0.007-34.627-0.015-69.255-0.022-103.882
			c-3.209,0.679-7.203,1.253-11.802,1.314c-4.36,0.057-8.179-0.361-11.291-0.906v100.829c3.453,0.05,7.233,0.257,11.282,0.708
			C15.715,183.126,19.674,183.811,23.235,184.582z"/>
	</g>
	<path fill-rule="evenodd" clip-rule="evenodd" fill="#FFFFFF" stroke="#050505" stroke-width="1.6667" stroke-miterlimit="10" d="
		M19.937,182.09"/>
	<path fill-rule="evenodd" clip-rule="evenodd" fill="#FFFFFF" stroke="#050505" stroke-width="1.6667" stroke-miterlimit="10" d="
		M283.5,54.78"/>
</g>
<g id="c12">
	<polygon fill="#FFFFFF" points="61.1,90.218 61.101,90.219 61.101,90.218 	"/>
	<path fill-rule="evenodd" clip-rule="evenodd" fill="#9D9FA2" d="M50.136,68.138c0,0,28.029,27.945,31.834,31.89
		c3.807,3.943,0,13.797,0,13.797c4.202-1.178,9.963-6.312,9.963-6.312c1.937,1.2,4.259,2.012,6.583,2.212
		c3.269,0.345,5.752-0.017,7.933-2.539c2.516-2.183,3.466-5.261,3.121-8.535c-0.2-2.328-1.009-4.653-2.208-6.594
		c0,0,5.125-5.77,6.302-9.981c0,0-9.839,3.814-13.775,0c-3.939-3.811-31.835-31.887-31.835-31.887s9.661-11.508,12.841-28.914
		c1.166-6.382,1.461-13.558,0.089-21.249L70.213,0.03c1.499,17.171-11.906,39.503-32.009,38.208
		c1.293,20.136-21,33.565-38.142,32.064L0.059,81.091c7.818,1.4,15.104,1.068,21.564-0.155
		C38.802,77.685,50.136,68.138,50.136,68.138z"/>
	<path fill-rule="evenodd" clip-rule="evenodd" fill="#FFFFFF" stroke="#050505" stroke-width="1.6667" stroke-miterlimit="10" d="
		M19.878,182.072"/>
	<path fill-rule="evenodd" clip-rule="evenodd" fill="#FFFFFF" stroke="#050505" stroke-width="1.6667" stroke-miterlimit="10" d="
		M283.441,54.762"/>
</g>
<g id="c13">
	<path fill-rule="evenodd" clip-rule="evenodd" fill="#DEDEDE" d="M70.134,0.008C64.536,0.007,58.938,0.006,53.34,0.005l0,0l0,0
		c0,0,5.767,12.593-5.76,20.09c-3.819,2.483-10.626,1.444-16.358-1.574c-1.656-0.87-3.193-1.583-4.61-2.141
		c-11.581-4.56-15.069,1.187-7.962,14.733c4.257,8.115,3.149,13.38,1.571,16.387c-3.026,5.765-13.612,6.043-20.149,5.662
		C0.048,58.868,0.024,64.575,0,70.281c17.14,1.491,39.417-11.935,38.124-32.064C58.227,39.511,71.632,17.18,70.134,0.008z"/>
</g>
<g id="c14">
	<path fill-rule="evenodd" clip-rule="evenodd" fill="#6A6967" d="M0,53.162c6.53,0.389,17.202,0.132,20.241-5.658
		c1.578-3.006,2.686-8.272-1.571-16.387c-7.107-13.546-3.62-19.293,7.962-14.733c1.417,0.558,2.954,1.27,4.61,2.141
		c5.732,3.018,12.539,4.057,16.358,1.574c11.526-7.498,5.76-20.09,5.76-20.09C35.678,0.006,17.681,0.008,0,0.005
		C-0.105,17.726,0.105,35.442,0,53.162z"/>
</g>
</svg>
