<?xml version="1.0" encoding="utf-8"?>
<!-- Generator: Adobe Illustrator 22.0.0, SVG Export Plug-In . SVG Version: 6.00 Build 0)  -->
<svg version="1.1" xmlns="http://www.w3.org/2000/svg" xmlns:xlink="http://www.w3.org/1999/xlink" x="0px" y="0px"
	 viewBox="0 0 283.5 283.5" enable-background="new 0 0 283.5 283.5" xml:space="preserve">
<g id="c1">
	<path fill="#DEDEDE" d="M283.346,85.537L197.878,0.071c0.029-0.024,0.058-0.048,0.087-0.071H0v197.888
		c0.014-0.015,0.028-0.03,0.042-0.044l85.468,85.466c-0.049,0.024-0.098,0.048-0.147,0.072h65.78
		c0.045-72.998,59.235-132.161,132.245-132.161V85.531C283.387,85.531,283.36,85.535,283.346,85.537z M11.378,103.446
		c-0.959-1.991-3.138-6.651-2.638-12.358c0.394-4.494,2.372-8.762,3.098-10.222c0.017-0.034,0.031-0.062,0.04-0.081
		c2.485-4.97,2.445-4.782,2.666-5.248c0.957-2.023,0.948-3.961,0.937-6.311c-0.013-2.795-0.582-4.907-0.947-6.227
		c-0.384-1.385-0.575-2.077-1.031-2.979c-0.277-0.547-0.756-1.237-1.166-2.374c-0.268-0.742-0.399-1.119-0.281-1.36
		c0.442-0.9,3.318-0.527,5.321,0.09c3.244,0.999,5.415,3.012,6.471,4.11c3.545,3.688,4.155,7.089,8.859,16.301
		c0.211,0.412,0.653,1.272,1.361,2.341c1.226,1.851,2.709,4.09,5.387,5.574c1.14,0.631,3.454,1.91,6.332,1.333
		c0.488-0.098,2.334-0.519,3.916-2.083c2.141-2.116,2.373-4.916,2.499-6.748c0.093-1.354,0.182-5.363-3.999-13.413
		c-0.292-0.563-0.313-0.581-4.86-7.914c-0.008-0.013-0.015-0.024-0.023-0.037c0,0,0.009-0.005,0.014-0.008
		c-0.358,0.164-0.744,0.317-1.163,0.446c-0.546,0.167-5.441,1.588-8.442-1.43l-0.001-0.001l-0.037-0.042l-0.001-0.001
		c-3.018-3.002-1.597-7.896-1.43-8.442c0.535-1.746,1.466-2.967,2.067-3.643c0.124-0.125,0.248-0.25,0.373-0.375
		c-0.105,0.105-0.21,0.211-0.314,0.316c-0.032-0.037-0.063-0.074-0.095-0.112c-1.55-1.797-3.084-3.328-3.601-3.842
		c-0.966-0.961-2.11-1.952-4.397-3.933c-1.966-1.703-2.916-2.467-4.277-2.499c-0.32-0.007-1.136-0.015-1.924,0.514
		c-0.133,0.09-1.156,0.8-1.298,2.013c-0.138,1.182,0.649,2.099,1.416,2.999c0.459,0.539,0.916,0.919,1.25,1.166
		c-0.285,0.651-0.807,1.613-1.749,2.499c-2.435,2.292-5.595,2.124-6.165,2.083c-3.149-0.229-5.787-2.28-7.082-4.749
		c-2.314-4.414,0.25-8.947,0.75-9.83c1.089-1.922,2.508-3.124,3.416-3.777c-1.413-1.397-3.343-3.699-4.638-6.998
		c-0.662-1.687-1.661-4.32-1.29-7.751c0.207-1.919,0.772-3.44,1.227-4.431c0.992-0.454,2.512-1.02,4.431-1.227
		c3.431-0.37,6.065,0.628,7.752,1.29c3.3,1.295,5.601,3.224,6.998,4.638c0.653-0.907,1.854-2.327,3.777-3.416
		c0.883-0.5,5.417-3.064,9.831-0.75c2.469,1.294,4.52,3.932,4.749,7.081c0.042,0.57,0.21,3.729-2.083,6.165
		c-0.887,0.942-1.849,1.464-2.499,1.749c-0.247-0.334-0.627-0.79-1.166-1.25c-0.9-0.767-1.817-1.554-2.999-1.416
		c-1.213,0.141-1.923,1.164-2.013,1.298c-0.529,0.787-0.521,1.604-0.514,1.924c0.032,1.361,0.796,2.311,2.499,4.277
		c1.982,2.287,2.973,3.431,3.934,4.397c0.514,0.517,2.045,2.051,3.842,3.601c0.038,0.032,0.074,0.063,0.112,0.095
		c0.02-0.02,0.039-0.039,0.059-0.059c0.676-0.601,1.897-1.531,3.643-2.067c0.546-0.167,5.441-1.588,8.442,1.43l0.001,0.001
		l0.042,0.037l0.001,0.001c3.018,3.001,1.597,7.896,1.43,8.442c-0.129,0.419-0.282,0.804-0.446,1.163
		c0.002-0.005,0.005-0.009,0.008-0.014c0.013,0.008,0.024,0.015,0.037,0.023c7.333,4.547,7.352,4.567,7.915,4.86
		c8.05,4.181,12.059,4.092,13.413,3.999c1.832-0.126,4.632-0.359,6.748-2.499c1.564-1.582,1.985-3.427,2.083-3.916
		c0.578-2.877-0.701-5.192-1.333-6.331c-1.484-2.679-3.723-4.162-5.574-5.387c-1.069-0.708-1.928-1.15-2.341-1.361
		c-9.212-4.704-12.614-5.313-16.301-8.859c-1.098-1.055-3.111-3.227-4.11-6.47c-0.617-2.002-0.99-4.879-0.09-5.321
		c0.241-0.118,0.618,0.013,1.36,0.281c1.137,0.41,1.827,0.889,2.374,1.166c0.902,0.456,1.594,0.648,2.979,1.031
		c1.32,0.366,3.431,0.935,6.227,0.947c2.349,0.011,4.288,0.02,6.311-0.937c0.467-0.221,0.278-0.181,5.248-2.666h0
		c0.019-0.009,0.047-0.023,0.081-0.04c1.459-0.725,5.728-2.704,10.222-3.098c5.706-0.5,10.367,1.679,12.358,2.638
		c5.514,2.656,8.601,6.471,10.358,8.692c1.89,2.39,4.93,6.324,6.137,12.385c1.072,5.383,0.157,9.711-0.25,11.33
		c-1.606,6.385-5.248,10.331-6.665,11.83c-3.127,3.306-6.258,5.123-9.414,6.915c-3.045,1.728-5.747,2.861-7.692,3.582
		c0.52,1.392,1.271,3.462,2.111,5.998c1.842,5.566,2.769,8.418,3.082,11.83c0.25,2.721,0.478,5.552-0.805,8.831
		c-0.832,2.125-1.994,3.66-2.838,4.616l0,0c-0.955,0.845-2.491,2.007-4.616,2.839c-3.279,1.283-6.11,1.055-8.831,0.805
		c-3.412-0.314-6.264-1.241-11.83-3.082c-2.536-0.839-4.606-1.591-5.998-2.11c-0.721,1.945-1.854,4.647-3.582,7.692
		c-1.792,3.156-3.609,6.287-6.915,9.414c-1.498,1.417-5.444,5.059-11.83,6.665c-1.619,0.407-5.947,1.322-11.33,0.25
		c-6.062-1.208-9.996-4.247-12.385-6.137C17.849,112.047,14.035,108.96,11.378,103.446z M40.811,223.601
		c-11.316-4.332-15.357-15.995-16.079-18.078c-0.23-0.664-0.396-1.218-0.5-1.583c-0.214-0.749-2.345-9.597-2.749-16.578
		c-0.224-3.871-0.12-10.679,0.664-19.626l0-0.002c0.064-0.731,0.133-1.478,0.207-2.236c0.009-0.093,0.018-0.185,0.027-0.279
		c0.074-0.753,0.151-1.518,0.234-2.298c0.005-0.046,0.01-0.094,0.015-0.14c0.081-0.755,0.167-1.524,0.257-2.303
		c0.009-0.079,0.018-0.157,0.027-0.237c0.091-0.782,0.188-1.578,0.288-2.383c0.017-0.14,0.035-0.28,0.053-0.42
		c0.103-0.815,0.21-1.638,0.323-2.475c0.007-0.049,0.014-0.099,0.021-0.149c0.108-0.798,0.222-1.608,0.34-2.426
		c0.021-0.147,0.042-0.293,0.063-0.441c0.121-0.831,0.247-1.673,0.379-2.523c0.026-0.169,0.053-0.339,0.079-0.509
		c0.138-0.883,0.279-1.773,0.428-2.676c0.008-0.005,0.016-0.01,0.025-0.015C85.607,135.99,133.765,88.896,145.585,28.759
		c0.223-1.302,0.446-2.604,0.669-3.905c19.566-3.227,34.563-3.786,41.125-3.407c6.981,0.404,15.829,2.535,16.579,2.749
		c0.365,0.104,0.919,0.27,1.583,0.5c2.083,0.722,13.746,4.763,18.078,16.079c0.742,1.938,2.42,6.338,1.416,11.996
		c-0.963,5.432-3.852,9.026-5.219,10.529l-0.001,0c-2.736,3.358-6.903,5.504-11.572,5.504c-8.241,0-14.921-6.68-14.921-14.92
		c0-2.472,0.605-4.801,1.669-6.854c0.001-0.005,0.004-0.014,0.005-0.019c0.259-0.919,0.516-1.127,0.505-1.695
		c0-0.012-0.001-0.029-0.001-0.05c0,0-0.016-0.374-0.186-0.741c-0.414-0.895-2.409-1.194-2.409-1.194
		c-2.77-0.415-5.996-0.557-6.974-0.596c-3.317-0.086-6.165,0.024-8.411,0.179c0,0-5.895,0.406-10.888,1.477
		c-0.678,0.145-1.331,0.3-1.331,0.3c-0.87,0.209-1.621,0.406-2.25,0.578c-15.783,57.045-60.707,101.977-117.749,117.771
		c-0.171,0.628-0.368,1.378-0.577,2.246c0,0-0.155,0.652-0.3,1.33c-1.071,4.993-1.477,10.888-1.477,10.888
		c-0.155,2.245-0.265,5.093-0.179,8.41c0.038,0.978,0.181,4.204,0.595,6.974c0,0,0.299,1.995,1.194,2.409
		c0.367,0.169,0.741,0.186,0.741,0.186l0.05,0.002c0.568,0.011,0.776-0.245,1.695-0.505l0.018-0.005
		c2.053-1.064,4.382-1.669,6.854-1.669c8.241,0,14.921,6.68,14.921,14.92c0,4.669-2.146,8.835-5.504,11.571l0.001,0.001
		c-1.503,1.366-5.097,4.255-10.529,5.219C47.149,226.021,42.748,224.343,40.811,223.601z M261.241,115.646l0,0.002
		c-0.064,0.73-0.133,1.477-0.207,2.236c-0.009,0.093-0.018,0.186-0.027,0.279c-0.074,0.753-0.151,1.518-0.234,2.297
		c-0.005,0.046-0.01,0.094-0.015,0.14c-0.081,0.756-0.167,1.524-0.257,2.303c-0.009,0.079-0.018,0.157-0.027,0.237
		c-0.091,0.782-0.188,1.578-0.288,2.383c-0.017,0.14-0.035,0.28-0.053,0.42c-0.103,0.815-0.21,1.638-0.323,2.475
		c-0.007,0.049-0.014,0.099-0.021,0.149c-0.108,0.798-0.222,1.608-0.34,2.426c-0.021,0.147-0.042,0.293-0.063,0.441
		c-0.121,0.831-0.247,1.673-0.379,2.523c-0.026,0.169-0.053,0.339-0.079,0.509c-0.138,0.883-0.279,1.773-0.428,2.676
		c-0.008,0.005-0.016,0.01-0.025,0.015c-60.693,10.232-108.851,57.326-120.671,117.463c-0.223,1.302-0.446,2.604-0.669,3.905
		c-19.566,3.227-34.563,3.786-41.125,3.407c-6.982-0.404-15.829-2.535-16.579-2.749c-0.365-0.104-0.919-0.27-1.583-0.5
		c-2.083-0.722-13.746-4.763-18.078-16.078c-0.742-1.938-2.42-6.338-1.416-11.996c0.963-5.432,3.853-9.026,5.219-10.529l0.001,0.001
		c2.736-3.358,6.902-5.504,11.572-5.504c8.24,0,14.921,6.68,14.921,14.92c0,2.472-0.605,4.801-1.669,6.854l-0.005,0.018
		c-0.259,0.92-0.516,1.128-0.505,1.695l0.001,0.05c0,0,0.016,0.374,0.186,0.741c0.414,0.895,2.409,1.194,2.409,1.194
		c2.77,0.415,5.996,0.557,6.974,0.596c3.317,0.085,6.166-0.024,8.411-0.179c0,0,5.895-0.406,10.888-1.477
		c0.678-0.145,1.33-0.3,1.33-0.3c0.87-0.209,1.621-0.406,2.25-0.578c15.783-57.045,60.707-101.977,117.749-117.771
		c0.172-0.628,0.368-1.378,0.577-2.246c0,0,0.155-0.653,0.3-1.33c1.071-4.994,1.477-10.888,1.477-10.888
		c0.155-2.245,0.264-5.094,0.179-8.411c-0.038-0.978-0.181-4.204-0.596-6.974c0,0-0.299-1.995-1.194-2.409
		c-0.367-0.17-0.741-0.186-0.741-0.186l-0.05-0.001c-0.568-0.011-0.776,0.245-1.7,0.506c0,0-0.009,0.002-0.014,0.004
		c-2.053,1.064-4.382,1.669-6.854,1.669c-8.241,0-14.921-6.68-14.921-14.92c0-4.669,2.146-8.836,5.504-11.571l-0.001-0.001
		c1.503-1.366,5.097-4.255,10.529-5.219c5.659-1.003,10.059,0.674,11.997,1.416c11.316,4.332,15.357,15.995,16.079,18.078
		c0.23,0.664,0.396,1.218,0.5,1.583c0.214,0.749,2.345,9.597,2.749,16.579C262.129,99.89,262.025,106.698,261.241,115.646z"/>
</g>
<g id="c2">
	<g>
		<path fill="#6A6967" d="M19.709,41.464c0.942-0.887,1.464-1.849,1.75-2.499c-0.334-0.247-0.79-0.627-1.25-1.166
			c-0.767-0.9-1.554-1.817-1.416-2.999c0.142-1.213,1.164-1.923,1.298-2.013c0.787-0.529,1.604-0.521,1.924-0.514
			c1.361,0.032,2.311,0.796,4.277,2.499c2.287,1.982,3.431,2.973,4.397,3.933c0.517,0.514,2.051,2.045,3.601,3.842
			c0.032,0.038,0.063,0.075,0.095,0.112c1.36-1.369,2.72-2.739,4.081-4.108l0.002-0.002l0.002-0.002
			c1.369-1.36,2.739-2.72,4.108-4.081c-0.038-0.032-0.075-0.063-0.112-0.095c-1.797-1.55-3.328-3.084-3.842-3.601
			c-0.961-0.966-1.952-2.11-3.934-4.397c-1.703-1.965-2.468-2.916-2.499-4.277c-0.007-0.32-0.015-1.136,0.514-1.924
			c0.09-0.133,0.8-1.156,2.013-1.298c1.182-0.138,2.099,0.649,2.999,1.416c0.539,0.459,0.919,0.916,1.166,1.25
			c0.651-0.285,1.613-0.808,2.499-1.749c2.293-2.435,2.124-5.595,2.083-6.165c-0.229-3.149-2.28-5.787-4.749-7.081
			c-4.414-2.314-8.948,0.25-9.831,0.75c-1.922,1.089-3.124,2.508-3.777,3.416c-1.397-1.413-3.698-3.343-6.998-4.638
			c-1.687-0.662-4.32-1.661-7.752-1.29C8.439,4.991,6.919,5.556,5.927,6.01C5.473,7.002,4.907,8.522,4.7,10.442
			c-0.37,3.431,0.628,6.065,1.29,7.752c1.295,3.3,3.225,5.601,4.638,6.998c-0.907,0.653-2.327,1.854-3.416,3.777
			c-0.5,0.883-3.064,5.417-0.75,9.83c1.294,2.469,3.932,4.52,7.081,4.749C14.114,43.588,17.274,43.757,19.709,41.464z"/>
		<path fill="#6A6967" d="M119.86,32.538c-1.208-6.061-4.247-9.996-6.137-12.385c-1.757-2.221-4.844-6.036-10.358-8.692
			c-1.991-0.959-6.651-3.138-12.358-2.638c-4.494,0.394-8.762,2.372-10.222,3.098c-0.034,0.017-0.062,0.031-0.081,0.04h0
			c-4.97,2.485-4.782,2.445-5.249,2.666c-2.023,0.957-3.961,0.948-6.311,0.937c-2.795-0.013-4.907-0.582-6.227-0.947
			c-1.385-0.383-2.077-0.575-2.979-1.031c-0.547-0.277-1.237-0.756-2.374-1.166c-0.742-0.268-1.119-0.399-1.36-0.281
			c-0.9,0.442-0.527,3.318,0.09,5.321c0.999,3.244,3.012,5.415,4.11,6.47c3.688,3.545,7.089,4.155,16.301,8.859
			c0.412,0.211,1.272,0.653,2.341,1.361c1.85,1.226,4.09,2.709,5.574,5.387c0.632,1.14,1.911,3.454,1.333,6.331
			c-0.098,0.489-0.519,2.334-2.083,3.916c-2.116,2.141-4.916,2.373-6.748,2.499c-1.354,0.093-5.363,0.182-13.413-3.999
			c-0.563-0.292-0.581-0.313-7.915-4.86c-0.013-0.008-0.024-0.015-0.037-0.023c-0.521,1.142-1.17,1.978-1.629,2.495
			c-1.381,1.39-2.762,2.781-4.144,4.171c-1.39,1.381-2.781,2.762-4.171,4.144c-0.516,0.459-1.352,1.108-2.495,1.629
			c0.008,0.013,0.015,0.024,0.023,0.037c4.547,7.333,4.568,7.352,4.86,7.914c4.181,8.049,4.092,12.059,3.999,13.413
			c-0.126,1.832-0.359,4.632-2.499,6.748c-1.582,1.563-3.427,1.985-3.916,2.083c-2.877,0.578-5.192-0.701-6.332-1.333
			c-2.679-1.484-4.162-3.723-5.387-5.574c-0.708-1.069-1.15-1.928-1.361-2.341c-4.704-9.212-5.313-12.613-8.859-16.301
			c-1.055-1.098-3.227-3.111-6.47-4.11c-2.002-0.617-4.879-0.99-5.321-0.09c-0.118,0.242,0.013,0.618,0.281,1.36
			c0.41,1.137,0.89,1.827,1.166,2.374c0.456,0.902,0.648,1.594,1.031,2.979c0.366,1.32,0.935,3.431,0.947,6.227
			c0.011,2.349,0.02,4.287-0.937,6.311c-0.221,0.466-0.181,0.278-2.666,5.248c-0.009,0.019-0.023,0.047-0.04,0.081
			c-0.725,1.459-2.704,5.728-3.098,10.222c-0.5,5.706,1.679,10.366,2.638,12.357c2.656,5.514,6.471,8.601,8.692,10.358
			c2.39,1.89,6.324,4.929,12.385,6.137c5.383,1.072,9.711,0.157,11.33-0.25c6.386-1.606,10.332-5.248,11.83-6.665
			c3.306-3.127,5.123-6.258,6.915-9.414c1.729-3.045,2.861-5.747,3.582-7.692c1.392,0.52,3.462,1.271,5.998,2.111
			c5.566,1.842,8.418,2.769,11.83,3.082c2.721,0.25,5.552,0.478,8.831-0.805c2.125-0.832,3.66-1.994,4.616-2.838l0,0
			c0.845-0.955,2.007-2.491,2.838-4.616c1.283-3.279,1.055-6.11,0.805-8.831c-0.314-3.412-1.241-6.264-3.082-11.83
			c-0.839-2.536-1.591-4.606-2.111-5.998c1.945-0.721,4.648-1.854,7.692-3.582c3.156-1.792,6.287-3.609,9.414-6.915
			c1.417-1.498,5.059-5.444,6.665-11.83C120.018,42.249,120.933,37.921,119.86,32.538z"/>
	</g>
</g>
<g id="c3">
	<path fill="#9D9FA2" d="M54.783,33.81l-0.001-0.001l-0.042-0.037l-0.001-0.001c-3.002-3.018-7.896-1.597-8.442-1.43
		c-1.746,0.535-2.967,1.466-3.643,2.067c-1.389,1.38-2.778,2.759-4.167,4.139l-0.002,0.002l-0.002,0.002
		c-1.38,1.39-2.76,2.779-4.14,4.168c-0.601,0.676-1.531,1.897-2.067,3.643c-0.167,0.546-1.588,5.44,1.43,8.442l0.001,0.001
		l0.037,0.042l0.001,0.001c3.002,3.018,7.896,1.597,8.442,1.43c1.746-0.535,2.967-1.466,3.643-2.067
		c1.39-1.381,2.781-2.762,4.171-4.144l0,0l0,0l0,0c1.381-1.39,2.762-2.781,4.144-4.171c0.601-0.676,1.531-1.897,2.067-3.643
		C56.38,41.706,57.801,36.812,54.783,33.81z"/>
</g>
<g id="c4">
	<g>
		<g>
			<path fill="#6A6967" d="M261.94,96.055c-0.404-6.981-2.535-15.829-2.749-16.579c-0.104-0.365-0.27-0.919-0.5-1.583
				c-0.722-2.083-4.763-13.746-16.079-18.078c-1.938-0.742-6.338-2.42-11.997-1.416c-5.432,0.963-9.026,3.852-10.529,5.219
				l0.001,0.001c-3.358,2.736-5.504,6.902-5.504,11.571c0,8.24,6.68,14.92,14.921,14.92c2.472,0,4.801-0.605,6.854-1.669
				c0.005-0.001,0.014-0.004,0.014-0.004c0.924-0.261,1.132-0.517,1.7-0.506l0.05,0.001c0,0,0.374,0.016,0.741,0.186
				c0.896,0.414,1.194,2.409,1.194,2.409c0.415,2.77,0.557,5.996,0.596,6.974c0.085,3.317-0.024,6.165-0.179,8.411
				c0,0-0.406,5.895-1.477,10.888c-0.145,0.678-0.3,1.33-0.3,1.33c-0.209,0.868-0.405,1.618-0.577,2.246
				c-57.042,15.794-101.966,60.725-117.749,117.771c-0.628,0.172-1.38,0.369-2.25,0.578c0,0-0.652,0.155-1.33,0.3
				c-4.994,1.071-10.888,1.477-10.888,1.477c-2.245,0.155-5.094,0.264-8.411,0.179c-0.978-0.039-4.204-0.181-6.974-0.596
				c0,0-1.995-0.299-2.409-1.194c-0.169-0.367-0.186-0.741-0.186-0.741l-0.001-0.05c-0.011-0.568,0.245-0.776,0.505-1.695
				l0.005-0.018c1.064-2.053,1.669-4.382,1.669-6.854c0-8.24-6.68-14.92-14.921-14.92c-4.669,0-8.836,2.146-11.572,5.504
				l-0.001-0.001c-1.366,1.503-4.255,5.097-5.219,10.529c-1.003,5.658,0.674,10.058,1.416,11.996
				c4.332,11.315,15.995,15.357,18.078,16.078c0.664,0.23,1.218,0.396,1.583,0.5c0.749,0.214,9.597,2.345,16.579,2.749
				c6.562,0.38,21.559-0.18,41.125-3.407c0.223-1.302,0.446-2.604,0.669-3.905c11.82-60.137,59.979-107.231,120.671-117.463
				c0.008-0.005,0.016-0.01,0.025-0.015c0.149-0.903,0.29-1.793,0.428-2.676c0.026-0.17,0.053-0.34,0.079-0.509
				c0.131-0.851,0.258-1.692,0.379-2.523c0.022-0.148,0.042-0.294,0.063-0.441c0.118-0.818,0.232-1.628,0.34-2.426
				c0.007-0.049,0.014-0.099,0.021-0.149c0.113-0.837,0.22-1.661,0.323-2.475c0.018-0.14,0.036-0.281,0.053-0.42
				c0.101-0.805,0.197-1.601,0.288-2.383c0.009-0.08,0.018-0.157,0.027-0.237c0.09-0.78,0.176-1.548,0.257-2.303
				c0.005-0.047,0.01-0.094,0.015-0.14c0.083-0.78,0.161-1.544,0.234-2.297c0.009-0.093,0.018-0.186,0.027-0.279
				c0.073-0.758,0.143-1.506,0.207-2.236l0-0.002C262.061,106.734,262.164,99.926,261.94,96.055z"/>
			<path fill="#6A6967" d="M63.371,219.833c3.358-2.736,5.504-6.903,5.504-11.571c0-8.24-6.68-14.92-14.921-14.92
				c-2.472,0-4.801,0.605-6.854,1.669l-0.018,0.005c-0.92,0.259-1.128,0.516-1.695,0.505l-0.05-0.002c0,0-0.374-0.016-0.741-0.186
				c-0.896-0.414-1.194-2.409-1.194-2.409c-0.415-2.77-0.557-5.996-0.596-6.974c-0.086-3.317,0.024-6.165,0.179-8.41
				c0,0,0.406-5.895,1.477-10.888c0.145-0.678,0.3-1.33,0.3-1.33c0.209-0.868,0.406-1.618,0.577-2.246
				c57.042-15.794,101.966-60.726,117.749-117.771c0.628-0.172,1.38-0.369,2.25-0.578c0,0,0.653-0.155,1.331-0.3
				c4.994-1.07,10.888-1.477,10.888-1.477c2.245-0.155,5.094-0.265,8.411-0.179c0.978,0.038,4.204,0.181,6.974,0.596
				c0,0,1.995,0.299,2.409,1.194c0.169,0.367,0.186,0.741,0.186,0.741c0.001,0.021,0.001,0.038,0.001,0.05
				c0.011,0.568-0.245,0.776-0.505,1.695c-0.001,0.005-0.004,0.013-0.005,0.019c-1.064,2.053-1.669,4.382-1.669,6.854
				c0,8.24,6.68,14.92,14.921,14.92c4.669,0,8.836-2.146,11.572-5.504l0.001,0c1.367-1.503,4.256-5.097,5.219-10.529
				c1.004-5.659-0.674-10.059-1.416-11.996c-4.332-11.315-15.995-15.357-18.078-16.079c-0.664-0.23-1.218-0.396-1.583-0.5
				c-0.749-0.214-9.597-2.345-16.579-2.749c-6.562-0.38-21.559,0.18-41.125,3.407c-0.223,1.302-0.446,2.604-0.669,3.905
				C133.8,88.932,85.642,136.026,24.949,146.258c-0.008,0.005-0.016,0.01-0.025,0.015c-0.149,0.903-0.29,1.793-0.428,2.676
				c-0.027,0.17-0.053,0.34-0.079,0.509c-0.131,0.851-0.258,1.692-0.379,2.523c-0.022,0.148-0.042,0.294-0.063,0.441
				c-0.118,0.818-0.232,1.628-0.34,2.426c-0.007,0.049-0.014,0.099-0.021,0.149c-0.113,0.837-0.22,1.661-0.323,2.475
				c-0.018,0.14-0.036,0.28-0.053,0.42c-0.101,0.805-0.197,1.601-0.288,2.383c-0.009,0.08-0.018,0.158-0.027,0.237
				c-0.09,0.78-0.176,1.548-0.257,2.303c-0.005,0.047-0.01,0.094-0.015,0.14c-0.083,0.78-0.161,1.544-0.234,2.298
				c-0.009,0.093-0.018,0.186-0.027,0.279c-0.073,0.758-0.143,1.506-0.207,2.236l0,0.002c-0.785,8.948-0.888,15.756-0.664,19.626
				c0.404,6.981,2.535,15.829,2.749,16.578c0.104,0.365,0.27,0.919,0.5,1.583c0.722,2.083,4.764,13.746,16.079,18.078
				c1.938,0.742,6.338,2.42,11.997,1.416c5.432-0.963,9.026-3.852,10.529-5.219L63.371,219.833z"/>
		</g>
	</g>
</g>
<g id="c5">
	<g>
		<polygon fill="#6A6967" points="0.077,219.225 64.198,283.345 85.544,283.345 0.077,197.879 		"/>
		<polygon fill="#6A6967" points="219.26,0.107 197.914,0.107 283.381,85.573 283.381,64.227 		"/>
	</g>
</g>
<g id="c6">
	<g>
		<path fill="#DEDEDE" d="M0.038,262.112c2.772-3.283,6.917-5.37,11.55-5.37c8.347,0,15.114,6.767,15.114,15.114
			c0,1.52-0.225,2.987-0.643,4.371c-1.122,3.713-3.427,6.033-4.596,7.065h42.779L0.038,219.089V262.112z"/>
		<path fill="#DEDEDE" d="M271.793,26.603c-8.347,0-15.114-6.767-15.114-15.114c0-1.52,0.225-2.987,0.643-4.371
			c1.122-3.713,3.427-6.033,4.596-7.065h-42.779l64.204,64.203V21.234C280.57,24.516,276.426,26.603,271.793,26.603z"/>
	</g>
</g>
<g id="c7">
	<g>
		<path fill="#6A6967" d="M11.588,256.795c-4.633,0-8.777,2.087-11.55,5.37c0,7.06,0,14.12,0,21.18c7.142,0,14.283,0,21.425,0
			c3.207-2.771,5.239-6.865,5.239-11.436C26.702,263.562,19.936,256.795,11.588,256.795z"/>
		<path fill="#6A6967" d="M261.918,0.107c-3.207,2.771-5.239,6.865-5.239,11.436c0,8.347,6.767,15.114,15.114,15.114
			c4.633,0,8.777-2.087,11.55-5.37c0-7.06,0-14.12,0-21.18C276.201,0.107,269.06,0.107,261.918,0.107z"/>
	</g>
</g>
<g id="c8">
	<path fill="#6A6967" d="M283.384,168.205v-17.003c-73.038,0-132.247,59.208-132.247,132.245h17.003
		C168.14,219.8,219.737,168.205,283.384,168.205z"/>
</g>
<g id="c9">
	<path fill="#DEDEDE" d="M283.423,184.317v-16.058c-63.648,0-115.244,51.595-115.244,115.242h16.059
		C184.237,228.722,228.644,184.317,283.423,184.317z"/>
</g>
<g id="c10">
	<path fill="#9D9FA2" d="M283.348,283.129c-0.011-0.068-0.023-0.135-0.034-0.203c0.024,0.14,0.047,0.28,0.047,0.42
		c0,0-0.024,0-0.048,0c0.021,0,0.042,0,0.063,0.001l0.001,0.002h0.001c0.002,0.002,0.004,0.004,0.006,0.006v-86.718
		c-0.024,28.743-0.047,57.486-0.071,86.229C283.325,282.954,283.336,283.041,283.348,283.129z"/>
	<path fill="#9D9FA2" d="M283.234,282.983c-0.011-0.068-0.023-0.135-0.034-0.203c0.024,0.14,0.047,0.28,0.047,0.42
		c0,0-0.024,0-0.048,0c0.021,0,0.042,0,0.063,0.001l0.001,0.002h0.001c0.002,0.002,0.004,0.004,0.006,0.006v-86.718
		c-0.024,28.743-0.047,57.486-0.071,86.229C283.212,282.808,283.223,282.895,283.234,282.983z"/>
	<path fill="#9D9FA2" d="M283.2,283.269v0.002c-0.14-0.024-0.28-0.047-0.42-0.071c-28.764,0.024-57.527,0.047-86.291,0.071
		c0.469-2.091,1.643-5.981,4.832-9.652c3.402-3.917,7.282-5.496,9.91-6.53c0.336-0.132,1.131-0.426,2.223-0.749
		c-0.05,0.015-0.121,0.03-0.169,0.045c-0.816-0.636-1.625-1.326-2.418-2.093c-3.648-3.532-5.4-7.039-5.998-8.331
		c-0.944-2.036-2.26-4.954-2.333-8.997c-0.081-4.456,1.389-7.882,2.333-9.664c2.135-4.03,5.056-6.201,6.498-7.248
		c5.503-3.995,11.332-4.555,14.052-4.627c0.073-2.722,0.633-8.548,4.627-14.049c1.047-1.442,3.218-4.363,7.248-6.498
		c1.782-0.944,5.208-2.413,9.664-2.333c4.043,0.073,6.962,1.389,8.998,2.333c1.292,0.599,4.799,2.35,8.331,5.998
		c0.767,0.792,1.457,1.602,2.093,2.417c-0.017,0.059-0.036,0.144-0.054,0.205c0.328-1.115,0.628-1.925,0.762-2.265
		c1.034-2.628,2.614-6.508,6.53-9.91c3.672-3.189,7.561-4.363,9.652-4.832v-12.32c-54.779,0-99.185,44.406-99.185,99.183h99.185
		v-0.012C283.247,283.318,283.224,283.295,283.2,283.269z M282.714,283.203h0.06c0.068,0.011,0.135,0.023,0.203,0.034
		C282.889,283.226,282.802,283.214,282.714,283.203z"/>
</g>
<g id="c11">
	<path fill="#6A6967" d="M283.352,282.925c0.024-28.763,0.047-57.526,0.071-86.289c-2.091,0.469-5.981,1.643-9.652,4.832
		c-3.917,3.402-5.496,7.282-6.53,9.91c-0.419,1.064-2.429,6.354-2.023,13.194c0.334,5.624,1.888,10.275,1.888,10.275
		s0.001,0.003,0.002,0.01c0.159,0.687,1.315,4.635,1.315,4.635c0.676,2.306,0.717,2.92,0.626,3.575
		c-0.066,0.48-0.19,1.294-0.778,1.611c-0.533,0.287-1.21,0.036-1.833-0.278c-2.172-1.096-3.555-2.905-3.999-3.499
		c-1.748-2.335-2.622-3.502-3.666-5.443c-1.904-3.542-2.723-6.553-2.868-7.437c-0.051-0.313-0.425-2.674-0.425-2.674l-0.001-0.004
		c0,0-0.169-1.531-0.483-4.381c0.017-0.207,0.025-0.652-0.222-1.111c-0.288-0.535-0.763-0.793-0.951-0.868
		c-1.19-0.477-3.185,1.443-4.27,2.812c-1.586,2.002-2.135,3.994-2.555,5.498c-0.342,1.226-1.02,3.794-0.722,7.165
		c0.354,4.004,1.906,6.829,2.999,8.775c1.343,2.391,2.67,3.898,4.277,5.721c3.462,3.93,6.878,6.539,7.942,7.331
		c1.93,1.438,3.829,2.918,5.776,4.332c0.133,0.097,2.316,1.682,3.61,3.888c0.288,0.492,0.582,1.099,0.722,1.888
		c0.2,1.128-0.024,2.025-0.111,2.333c-0.247,0.868-0.659,1.442-0.943,1.818c-0.377,0.284-0.95,0.696-1.818,0.943
		c-0.308,0.087-1.204,0.311-2.333,0.111c-0.789-0.14-1.397-0.434-1.888-0.722c-2.206-1.294-3.791-3.477-3.888-3.61
		c-1.414-1.948-2.895-3.846-4.332-5.776c-0.793-1.064-3.401-4.48-7.331-7.942c-1.823-1.606-3.33-2.934-5.721-4.276
		c-1.946-1.093-4.771-2.645-8.775-2.999c-3.37-0.298-5.939,0.38-7.165,0.722c-1.504,0.42-3.496,0.969-5.498,2.555
		c-1.369,1.085-3.289,3.08-2.812,4.27c0.075,0.188,0.333,0.663,0.868,0.951c0.459,0.247,0.904,0.239,1.111,0.222
		c2.85,0.314,4.381,0.483,4.381,0.483l0.004,0.001c0,0,2.362,0.374,2.675,0.425c0.883,0.145,3.894,0.963,7.437,2.868
		c1.941,1.043,3.108,1.917,5.443,3.666c0.594,0.444,2.403,1.827,3.499,3.999c0.314,0.622,0.564,1.3,0.278,1.833
		c-0.316,0.588-1.13,0.711-1.611,0.778c-0.655,0.09-1.269,0.049-3.575-0.626c0,0-3.949-1.156-4.635-1.315
		c-0.006-0.001-0.01-0.002-0.01-0.002s-4.651-1.555-10.275-1.888c-6.84-0.406-12.13,1.604-13.195,2.023
		c-2.628,1.034-6.508,2.613-9.91,6.53c-3.189,3.672-4.363,7.561-4.832,9.652c28.764-0.024,57.527-0.047,86.291-0.071
		c0.14,0.024,0.28,0.047,0.42,0.071c0,0,0-0.048,0-0.071c0.024,0,0.048,0,0.048,0C283.399,283.205,283.375,283.065,283.352,282.925z
		"/>
</g>
<g id="c12">
	<g>
		<path fill="#DEDEDE" d="M270.844,264.506c-1.294-2.206-3.477-3.791-3.61-3.888c-1.948-1.414-3.846-2.895-5.776-4.332
			c-1.064-0.793-4.48-3.401-7.942-7.331c-1.606-1.823-2.934-3.33-4.277-5.721c-1.093-1.946-2.645-4.771-2.999-8.775
			c-0.298-3.37,0.38-5.939,0.722-7.165c0.42-1.504,0.969-3.496,2.555-5.498c1.085-1.369,3.08-3.289,4.27-2.812
			c0.188,0.075,0.663,0.333,0.951,0.868c0.247,0.459,0.24,0.904,0.222,1.111c0.314,2.85,0.483,4.381,0.483,4.381l0.001,0.004
			c0,0,0.374,2.362,0.425,2.674c0.145,0.883,0.963,3.894,2.868,7.437c1.043,1.941,1.917,3.108,3.666,5.443
			c0.444,0.594,1.827,2.403,3.999,3.499c0.622,0.314,1.3,0.564,1.833,0.278c0.588-0.316,0.711-1.13,0.778-1.611
			c0.09-0.655,0.049-1.269-0.626-3.575c0,0-1.156-3.949-1.316-4.635c-0.001-0.006-0.002-0.01-0.002-0.01s-1.555-4.651-1.888-10.275
			c-0.283-4.769,0.608-8.779,1.315-11.134c-0.636-0.816-1.326-1.625-2.093-2.418c-3.532-3.648-7.039-5.399-8.331-5.998
			c-2.036-0.944-4.954-2.26-8.998-2.333c-4.456-0.08-7.882,1.388-9.664,2.333c-4.03,2.135-6.201,5.056-7.248,6.498
			c-3.994,5.501-4.554,11.327-4.627,14.049c-2.72,0.072-8.549,0.632-14.052,4.627c-1.442,1.047-4.363,3.218-6.498,7.248
			c-0.944,1.782-2.413,5.208-2.333,9.664c0.073,4.043,1.389,6.961,2.333,8.997c0.599,1.292,2.35,4.799,5.998,8.331
			c0.792,0.767,1.602,1.457,2.418,2.093c2.355-0.708,6.365-1.598,11.134-1.315c5.624,0.334,10.275,1.888,10.275,1.888l0.01,0.002
			c0.687,0.159,4.635,1.315,4.635,1.315c2.306,0.676,2.92,0.717,3.575,0.626c0.48-0.066,1.294-0.19,1.611-0.778
			c0.287-0.533,0.036-1.21-0.278-1.833c-1.096-2.172-2.906-3.554-3.499-3.999c-2.335-1.748-3.502-2.622-5.443-3.666
			c-3.542-1.904-6.553-2.723-7.437-2.868c-0.313-0.051-2.674-0.425-2.674-0.425l-0.004-0.001c0,0-1.531-0.169-4.381-0.483
			c-0.207,0.017-0.652,0.025-1.111-0.222c-0.535-0.288-0.793-0.763-0.868-0.951c-0.477-1.19,1.443-3.185,2.812-4.27
			c2.002-1.586,3.994-2.135,5.498-2.555c1.226-0.342,3.794-1.02,7.165-0.722c4.004,0.354,6.829,1.906,8.775,2.999
			c2.391,1.343,3.898,2.67,5.721,4.277c3.93,3.462,6.539,6.878,7.331,7.942c1.438,1.93,2.918,3.829,4.332,5.776
			c0.097,0.133,1.682,2.316,3.888,3.61c0.492,0.288,1.1,0.582,1.888,0.722c1.128,0.2,2.025-0.024,2.333-0.111
			c0.868-0.247,1.442-0.659,1.818-0.943l0,0c0.287-0.354,0.704-0.965,0.949-1.821c0.084-0.293,0.312-1.194,0.111-2.333
			C271.426,265.605,271.132,264.997,270.844,264.506z"/>
		<path fill="#DEDEDE" d="M283.313,282.865c0,0,0,0.04,0,0.06c0.011,0.068,0.023,0.135,0.034,0.203
			C283.336,283.04,283.325,282.953,283.313,282.865z"/>
		<path fill="#DEDEDE" d="M282.827,283.349c0.088,0.011,0.175,0.023,0.263,0.034c-0.068-0.011-0.135-0.023-0.203-0.034
			L282.827,283.349z"/>
		<path fill="#DEDEDE" d="M283.462,283.431c-0.028-0.028-0.056-0.056-0.083-0.083h-0.001l-0.001-0.002
			c-0.021-0.001-0.042-0.001-0.063-0.001v0.003h-0.006c0,0.021,0,0.042,0,0.042l0.006,0.022v0.003
			c0.028,0.029,0.056,0.057,0.083,0.085c-0.003-0.026-0.007-0.052-0.007-0.052C283.411,283.425,283.436,283.428,283.462,283.431z"/>
	</g>
</g>
</svg>
