<?xml version="1.0" encoding="utf-8"?>
<!-- Generator: Adobe Illustrator 22.0.0, SVG Export Plug-In . SVG Version: 6.00 Build 0)  -->
<svg version="1.1" xmlns="http://www.w3.org/2000/svg" xmlns:xlink="http://www.w3.org/1999/xlink" x="0px" y="0px"
	 viewBox="0 0 283.5 283.5" enable-background="new 0 0 283.5 283.5" xml:space="preserve">
<g id="c1">
	<path fill="#DEDEDE" d="M141.75,141.75c-32.622-14.806-65.272-29.125-97.894-43.931C29.339,65.496,14.534,32.341,0.018,0.018
		c0.001,47.127,0,94.43,0,141.732c0,47.303,0.001,94.605,0,141.732c14.516-32.323,29.322-65.479,43.838-97.801
		C76.478,170.875,109.128,156.556,141.75,141.75z"/>
</g>
<g id="c2">
	<path fill="#DEDEDE" d="M141.75,141.75c14.806,32.622,29.125,65.272,43.931,97.894c32.323,14.516,65.479,29.322,97.801,43.838
		c-47.127-0.001-94.43,0-141.732,0c-47.303,0-94.605-0.001-141.732,0c32.323-14.516,65.479-29.322,97.801-43.838
		C112.625,207.022,126.944,174.372,141.75,141.75z"/>
</g>
<g id="c3">
	<path fill="#DEDEDE" d="M141.75,141.75c32.622,14.806,65.272,29.125,97.894,43.931c14.516,32.323,29.322,65.479,43.838,97.801
		c-0.001-47.127,0-94.43,0-141.732c0-47.303-0.001-94.605,0-141.732c-14.516,32.323-29.322,65.479-43.838,97.801
		C207.022,112.625,174.372,126.944,141.75,141.75z"/>
</g>
<g id="c4">
	<path fill="#DEDEDE" d="M141.75,141.75c-14.806-32.622-29.125-65.272-43.931-97.894C65.496,29.339,32.341,14.534,0.018,0.018
		c47.127,0.001,94.43,0,141.732,0c47.303,0,94.605,0.001,141.732,0c-32.323,14.516-65.479,29.322-97.801,43.838
		C170.875,76.478,156.556,109.128,141.75,141.75z"/>
</g>
<g id="c5">
	<polygon fill="#6A6967" points="0.018,283.482 97.819,239.644 141.75,141.75 43.856,185.681 	"/>
</g>
<g id="c6">
	<polygon fill="#6A6967" points="283.482,283.482 185.681,239.644 141.75,141.75 239.644,185.681 	"/>
</g>
<g id="c7">
	<polygon fill="#6A6967" points="283.482,0.018 239.644,97.819 141.75,141.75 185.681,43.856 	"/>
</g>
<g id="c8">
	<polygon fill="#6A6967" points="0.018,0.018 43.856,97.819 141.75,141.75 97.819,43.856 	"/>
</g>
</svg>
