<?xml version="1.0" encoding="utf-8"?>
<!-- Generator: Adobe Illustrator 22.0.0, SVG Export Plug-In . SVG Version: 6.00 Build 0)  -->
<svg version="1.1" xmlns="http://www.w3.org/2000/svg" xmlns:xlink="http://www.w3.org/1999/xlink" x="0px" y="0px"
	 viewBox="0 0 283.465 283.465" enable-background="new 0 0 283.465 283.465" xml:space="preserve">
<g id="c1">
	<rect x="0" y="0" fill="#DEDEDE" width="283.465" height="283.465"/>
</g>
<g id="c2">
	<polygon fill="#58585A" points="283.465,0 239.626,97.801 141.732,141.732 185.663,43.838 	"/>
	<polygon fill="#58585A" points="0,283.465 97.801,239.626 141.732,141.732 43.838,185.663 	"/>
	<polygon fill="#58585A" points="283.465,283.465 185.663,239.626 141.732,141.732 239.626,185.663 	"/>
	<polygon fill="#58585A" points="0,0 43.838,97.801 141.732,141.732 97.801,43.838 	"/>
</g>
<g id="c3">
	<polygon fill="#9D9FA2" points="9.921,9.921 47.622,94.03 131.811,131.811 94.03,47.622 	"/>
	<polygon fill="#9D9FA2" points="273.543,9.921 235.842,94.03 151.654,131.811 189.434,47.622 	"/>
	<polygon fill="#9D9FA2" points="273.543,273.543 235.842,189.434 151.654,151.654 189.434,235.842 	"/>
	<polygon fill="#9D9FA2" points="9.921,273.543 47.622,189.434 131.811,151.654 94.03,235.842 	"/>
</g>
</svg>
