<?xml version="1.0" encoding="utf-8"?>
<!-- Generator: Adobe Illustrator 22.0.0, SVG Export Plug-In . SVG Version: 6.00 Build 0)  -->
<svg version="1.1" xmlns="http://www.w3.org/2000/svg" xmlns:xlink="http://www.w3.org/1999/xlink" x="0px" y="0px"
	 viewBox="0 0 283.5 283.5" enable-background="new 0 0 283.5 283.5" xml:space="preserve">
<g id="c1">
	<rect fill="#DCD9D5" width="283.465" height="283.465"/>
</g>
<g id="c2">
	<path fill="#655F5C" d="M247.158,209.649c0,0-3.824-11.671-13.75-15.375l-30.5-15.75c0,0-15.125-6.75-14.625-28.125
		c-0.5-21.375,14.625-28.125,14.625-28.125l30.5-15.75c9.926-3.704,13.75-15.375,13.75-15.375c4.303-8.675-3.71-22.839,3.17-31.749
		c8.205-10.626,1.33-20.001,1.33-20.001s-9.25-8.75-25.625,5.5c-8.64,7.519-13-1.875-26,0.5
		c-8.613,1.573-13.105,5.024-19.375,12.125c-3.423,3.876-6.664,13.633-10.875,21.625c-0.989,1.877-8,18.5-30.957,24.5
		c-22.957-6-29.967-22.623-30.957-24.5c-4.211-7.992-7.452-17.749-10.875-21.625c-6.27-7.101-10.762-10.552-19.375-12.125
		c-13-2.375-17.36,7.019-26-0.5c-16.375-14.25-25.625-5.5-25.625-5.5s-6.875,9.375,1.33,20.001c6.88,8.91-1.133,23.074,3.17,31.749
		c0,0,3.824,11.671,13.75,15.375l30.5,15.75c0,0,15.125,6.75,14.625,28.125c0.5,21.375-14.625,28.125-14.625,28.125l-30.5,15.75
		c-9.926,3.704-13.75,15.375-13.75,15.375c-4.303,8.675,3.71,22.839-3.17,31.749c-8.205,10.626-1.33,20.001-1.33,20.001
		s9.25,8.75,25.625-5.5c8.64-7.519,13,1.875,26-0.5c8.613-1.573,13.105-5.024,19.375-12.125c3.423-3.876,6.664-13.633,10.875-21.625
		c0.989-1.877,8-18.5,30.957-24.5c22.957,6,29.967,22.623,30.957,24.5c4.211,7.992,7.452,17.749,10.875,21.625
		c6.27,7.101,10.762,10.552,19.375,12.125c13,2.375,17.36-7.019,26,0.5c16.375,14.25,25.625,5.5,25.625,5.5s6.875-9.375-1.33-20.001
		C243.449,232.488,251.461,218.324,247.158,209.649z"/>
</g>
<g id="c3">
	<rect x="124.016" y="124.016" fill="#474341" width="35.433" height="35.433"/>
</g>
</svg>
