<?xml version="1.0" encoding="utf-8"?>
<!-- Generator: Adobe Illustrator 22.0.0, SVG Export Plug-In . SVG Version: 6.00 Build 0)  -->
<svg version="1.1" xmlns="http://www.w3.org/2000/svg" xmlns:xlink="http://www.w3.org/1999/xlink" x="0px" y="0px"
	 viewBox="0 0 283.5 283.5" enable-background="new 0 0 283.5 283.5" xml:space="preserve">
<g id="c8">
	
		<rect x="0.009" y="0.018" transform="matrix(-1 -1.224647e-16 1.224647e-16 -1 283.4823 283.5)" fill="#DCD9D5" width="283.465" height="283.465"/>
</g>
<g id="c7">
	<path fill="#474341" d="M283.5,283.482l0-138.1c-11.878-0.445-22.302,1.208-30.737,3.361c-11.748,2.581-58.198,14.212-86.131,57.77
		c-11.923,18.591-16.512,36.826-18.423,49.368c-1.795,7.533-3.163,16.78-2.83,27.305c0.003,0.097,0.014,0.199,0.018,0.297
		C150.907,283.482,283.5,283.482,283.5,283.482z"/>
</g>
<g id="c5">
	<path fill="#DCD9D5" d="M283.482,283.482l0-121.478c-5.133-0.056-11.204,0.123-17.994,0.812c-7.28,0.739-13.017,1.823-16.244,2.493
		c-3.595,0.747-12.101,2.544-21.115,5.96c-6.589,2.496-19.573,7.345-31.766,18.66c-11.505,10.676-16.81,21.684-20.781,29.924
		c-7.808,16.202-10.129,30.513-11.805,41.353c-1.415,9.152-1.885,16.861-2.043,22.276L283.482,283.482z"/>
	<g id="c4">
		<path fill="#474341" d="M205.336,283.482c-0.027-7.082,0.983-13.254,1.973-17.335c0.574-2.363,1.452-5.909,3.38-10.278
			c1.154-2.615,2.038-4.063,5.941-10.687c5.664-9.617,5.221-8.977,5.664-9.649c4.932-7.472,10.647-12.09,13.295-14.197
			c8.917-7.093,17.406-10,23.01-11.864c5.736-1.908,14.264-4.069,24.9-4.38l0,78.39H205.336z"/>
	</g>
</g>
<g id="c3">
	<path fill="#655F5C" d="M217.083,283.482l66.407,0l-0.053-54.364l0,0l0.054-11.879
		C246.815,217.239,217.083,246.897,217.083,283.482z"/>
</g>
<g id="c2">
	<path fill="#DCD9D5" d="M283.447,229.118l0.053,54.364l-54.505-0.047c-0.064-2.547,0.072-6.051,0.941-10.102
		c0.294-1.371,1.461-6.482,4.883-12.645c2.165-3.9,4.509-6.644,9.106-11.975c6.007-6.963,9.011-10.446,12.841-12.84
		c5.372-3.359,10.465-4.538,13.904-5.334C275.788,229.354,280.223,229.1,283.447,229.118z"/>
</g>
<g id="c1">
	<path fill="#655F5C" d="M283.465,250.37c-1.75-0.047-4.283,0.05-7.2,0.781c-7.093,1.778-11.492,6.063-15.69,10.151
		c-3.755,3.657-6.622,6.449-8.586,11.311c-1.789,4.429-1.978,8.467-1.881,11.031l33.357,0L283.465,250.37z"/>
</g>
<g id="c6">
	<g>
		<path fill="#474341" d="M209.503,238.737c-0.197,1.078-1.289,7.063-6.249,7.053c-0.683-0.001-2.738-0.119-5.65-2.086
			c-4.355-2.284-8.709-4.569-13.064-6.853c-1.073-0.427-2.735-1.243-3.721-2.625c-1.723-2.414-0.204-4.899,1.529-7.735
			c1.384-2.264,2.659-4.352,5.286-4.316c1.557,0.021,2.909,0.778,3.837,1.286c11.477,6.281,15.655,6.043,17.663,9.791
			C210.155,235.162,209.871,236.719,209.503,238.737z"/>
		<path fill="#474341" d="M223.498,219.529c-1.19,2.297-4.296,5.565-7.942,4.748c-2.385-0.534-3.312-2.447-8.956-8.165
			c-2.589-2.623-4.799-4.657-6.23-5.938c-0.865-0.652-2.282-1.903-2.777-3.603c-0.85-2.918,1.627-5.062,3.662-6.824
			c1.644-1.424,3.703-3.207,6.246-2.462c1.558,0.456,2.6,1.683,3.27,2.376c9.085,9.402,13.115,10.446,13.945,14.587
			C225.139,216.358,224.424,217.739,223.498,219.529z"/>
		<path fill="#474341" d="M200.599,265.982c0.39,2.556-0.199,7.021-3.631,8.497c-2.245,0.966-4.122-0.04-12.056-1.359
			c-3.64-0.605-6.626-0.956-8.539-1.155c-1.084-0.02-2.967-0.203-4.369-1.288c-2.406-1.863-1.665-5.05-1.056-7.668
			c0.492-2.116,1.108-4.765,3.604-5.653c1.529-0.544,3.096-0.162,4.046,0.007c12.889,2.285,16.765,0.768,19.876,3.632
			C200.059,262.454,200.295,263.99,200.599,265.982z"/>
		<path fill="#474341" d="M229.882,180.548c0.76-0.729,4.979-4.773,8.863-1.771c0.535,0.413,2.081,1.746,3.259,5.049
			c2.132,4.423,4.263,8.846,6.395,13.27c0.601,0.983,1.446,2.627,1.444,4.308c-0.005,2.937-2.592,3.973-5.545,5.156
			c-2.357,0.944-4.53,1.815-6.57,0.202c-1.209-0.956-1.845-2.367-2.287-3.326c-5.472-11.863-8.883-14.197-8.351-18.354
			C227.362,182.964,228.459,181.912,229.882,180.548z"/>
		<path fill="#474341" d="M264.011,170.102c0.935-0.486,6.123-3.183,9.005,0.787c0.397,0.546,1.505,2.259,1.704,5.76
			c0.799,4.843,1.597,9.685,2.396,14.528c0.3,1.112,0.647,2.927,0.171,4.54c-0.833,2.817-3.608,3.086-6.774,3.393
			c-2.529,0.245-4.859,0.471-6.362-1.649c-0.891-1.257-1.103-2.789-1.257-3.834c-1.907-12.919-4.522-16.116-2.84-19.956
			C260.911,171.714,262.261,171.012,264.011,170.102z"/>
	</g>
</g>
<g id="c9">
	<path fill="#655F5C" d="M206.658,139.084c-7.847-3.95-6.166-12.277-14.599-34.315c-3.519-9.197-6.231-14.067-9.295-25.308
		c-2.564-9.403-2.924-14.276-0.926-19.028c2.317-5.512,6.805-8.478,9.769-10.383c6.134-3.943,9.66-3.507,25.205-6.38
		c16.029-2.962,19.03-4.673,27.532-4.015c5.745,0.444,10.194,0.789,14.334,3.718c3.934,2.783,7.092,7.549,9.582,24.208
		c4.309,28.84-2.453,32.655,3.11,51.298c1.84,6.167,4.075,10.758,1.665,13.936c-3.763,4.961-16.855,3.845-19.604-1.562
		c-1.602-3.149,1.359-5.683,3.153-12.099c3.423-12.239-1.55-23.753-5.899-33.821c-4.264-9.871-9.269-15.913-12.118-18.994
		c-4.998-5.405-9.371-10.136-15.106-9.789c-7.341,0.444-11.977,8.91-12.669,10.218c-3.922,7.421-2.308,15.71,1.081,31.984
		c3.503,16.823,5.254,25.234,6.638,28.728c1.703,4.3,3.726,8.477,1.831,11.043C218.17,141.462,211.447,141.494,206.658,139.084z"/>
	<path fill="#655F5C" d="M155.019,195.732c-5.446,4.01-17.535-4.326-21.751-7.232c-11.117-7.665-9.315-10.977-22.556-22.5
		c-8.73-7.598-13.399-9.54-18.528-17.679c-4.766-7.562-4.846-12.409-4.833-13.661c0.061-6.26,3.27-10.597,8.056-16.875
		c3.557-4.667,10.796-13.931,24.167-20.09c6.078-2.799,10.987-5.06,17.723-4.821c12.412,0.439,21.079,9.012,25.778,13.661
		c8.246,8.157,6.011,10.629,16.112,24.107c10.938,14.596,18.228,17.927,16.917,24.107c-1.106,5.214-7.748,9.692-12.889,8.839
		c-5.644-0.936-6.162-7.745-14.5-20.089c-0.867-1.283-8.649-12.609-21.751-22.5c-7.384-5.575-11.39-8.504-16.917-8.036
		c-7.608,0.644-13.708,7.353-16.112,13.661c-3.399,8.921,0.478,17.343,3.222,23.304c8.079,17.549,24.167,26.518,24.167,26.518
		c7.88,4.393,14.801,5.612,16.112,11.25C158.086,190.492,157.284,194.064,155.019,195.732z"/>
	<path fill="#655F5C" d="M128.606,272.387c2.199,0.027,4.853,0.141,7.3-1.506c0.169-0.114,0.313-0.234,0.452-0.363
		c2.844-2.636,3.331-8.005,1.333-11.428c-2.299-3.94-7.207-4.139-15.43-5.633c-7.364-1.337-14.559-3.631-28.95-8.218
		c-15.985-5.095-19.319-7.911-21.465-11.193c-0.649-0.992-4.472-6.838-2.525-12.837c2.116-6.52,9.697-9.062,12.789-10.099
		c15.517-5.203,32.05,2.439,37.541,4.978c11.824,5.466,17.363,11.65,22.725,9.135c3.253-1.526,5.747-5.411,5.457-8.916
		c-0.342-4.152-4.484-6.877-21.848-15.192c-14.746-7.062-22.214-10.614-26.85-11.647c-7.786-1.736-17.691-3.945-29.29,0.048
		c-11.176,3.847-17.723,11.317-20.006,14.177c-1.688,2.116-12.572,16.234-9.115,34.935c0.728,3.939,2.607,14.108,10.913,21.156
		c5.621,4.771,14.676,6.256,32.785,9.228C90.969,270.085,124.847,272.34,128.606,272.387z"/>
</g>
<g id="c15">
	<g>
		<path fill="#474341" d="M218.743,77.555c-4.359,4.008,2.158,11.388,4.268,31.049c0.863,8.041,0.571,14.254,5.05,21.272
			c1.37,2.147,3.819,5.876,7.266,5.994c4.612,0.159,8.129-6.242,9.196-8.183c8.522-15.511-0.861-34.463-2.14-36.956
			c-2.699-5.262-6.445-12.306-13.959-14.188C226.873,76.155,221.681,74.854,218.743,77.555z"/>
		<path fill="#474341" d="M138.138,156.872c11.721,13.564,13.454,19.29,21.751,21.697c1.797,0.521,7.569,2.196,11.278-0.804
			c3.127-2.528,3.206-7.101,3.222-8.036c0.191-11.028-13.137-12.807-29.806-32.947c-3.615-4.368-6.524-8.556-10.993-8.545
			c-4.387,0.011-9.135,4.067-9.953,8.545C122.687,141.991,127.615,144.695,138.138,156.872z"/>
		<path fill="#474341" d="M122.895,243.597c2.51,1.125,7.721,3.512,12.458,1.38c3.067-1.38,6.134-4.739,5.725-7.811
			c-0.37-2.786-3.42-4.494-16.92-9.365c-18.815-6.788-21.589-7.988-26.467-7.648c-4.683,0.327-14.541,2.016-15.031,5.744
			C82.04,230.624,97.33,232.137,122.895,243.597z"/>
	</g>
</g>
<g id="c11">
	<path fill="#DCD9D5" d="M13.135,282.984c-0.75-1.12,16.499-121.488,16.499-121.488l35.248-48.495l39.748-43.217l44.282-25.24
		l68.317-22.459l30.789-5.989l35.456-1.497V0.018H0.009v282.967H13.135z"/>
</g>
<g id="c10">
	<path fill="#474341" d="M205.243,11.968c-15.926,3.695-38.369,10.492-62.93,23.738c-45.927,24.77-72.045,57.413-86.743,76.171
		c-11.528,14.713-25.433,32.746-35.877,60.106c-6.527,17.097-9.301,31.548-12.235,46.824c0,0-7.45,34.888-7.45,64.693h21.237
		c-0.283-12.448,1.109-26.616,1.109-26.616c0.911-10.656,3.494-39.364,12.222-67.497c4.943-15.937,18.617-58.233,56.946-94.544
		c22.04-20.88,42.981-31.018,64.025-41.204c38.981-18.87,74.041-26.858,97.592-30.595c8.517-1.235,18.756-2.118,30.334-1.847V0.128
		C253.159-0.763,226.609,4.885,205.243,11.968z"/>
</g>
<g id="c12">
	<path fill="#655F5C" d="M72.068,20.245c-0.022-0.24-0.169-2.159,1.263-3.654c4.365-4.559,17.731,0.752,21.553,2.271
		c5.436,2.16,12.558,4.99,12.843,9.275c0.144,2.17-1.503,4.147-3.196,5.166c-4.25,2.56-10.416,0.066-18.28-3.114
		C79.364,27.406,72.475,24.62,72.068,20.245z"/>
	<path fill="#655F5C" d="M48.684,53.644c1.513-2.605,5.373-3.327,6.283-3.497c6.714-1.256,10.694,4.506,13.532,8.614
		c1.157,1.675,7.578,10.97,4.869,14.221c-2.431,2.917-11.177-0.275-16.56-4.311C52.166,65.19,46.081,58.126,48.684,53.644z"/>
	<path fill="#655F5C" d="M34.021,110.122c0.738-0.675,2.214-2.477,0.119-14.02c-2.126-11.712-4.763-16.015-6.197-18.068
		c-1.616-2.314-4.246-6.08-6.848-5.573c-2.201,0.429-3.419,3.729-3.798,5.69c-0.71,3.675,0.732,6.762,1.35,8.17
		c5.789,13.205,1.692,21.626,7.452,24.531C28.669,112.148,32.162,111.822,34.021,110.122z"/>
</g>
<g id="c13">
	<path fill="#474341" d="M58.787,0H0l0,58.641c6.634,0.378,19.225,0.137,31.631-6.605c4.641-2.522,10.534-5.724,14.374-12.312
		c1.393-2.39,1.173-2.923,4.536-10.498c3.625-8.166,4.537-9.027,5.843-12.649C57.689,12.956,59.065,7.476,58.787,0z"/>
</g>
<g id="c14">
	<path fill="#655F5C" d="M0.018,34.729C19.245,34.729,34.832,19.18,34.832,0H0.018V34.729z"/>
</g>
</svg>
