<?xml version="1.0" encoding="utf-8"?>
<!-- Generator: Adobe Illustrator 22.0.0, SVG Export Plug-In . SVG Version: 6.00 Build 0)  -->
<svg version="1.1" xmlns="http://www.w3.org/2000/svg" xmlns:xlink="http://www.w3.org/1999/xlink" x="0px" y="0px"
	 viewBox="0 0 283.465 283.465" enable-background="new 0 0 283.465 283.465" xml:space="preserve">
<g id="c1">
	<rect x="0" y="0" fill="#DEDEDE" width="283.465" height="283.465"/>
</g>
<g id="c2">
	<path fill="#58585A" d="M0,0c0,14.173,0,28.346,0,42.52C14.173,28.346,28.346,14.173,42.52,0C28.346,0,14.173,0,0,0z"/>
	<path fill="#58585A" d="M283.465,283.465c0-14.173,0-28.346,0-42.52c-14.173,14.173-28.346,28.346-42.52,42.52
		C255.118,283.465,269.291,283.465,283.465,283.465z"/>
</g>
<g id="c3">
	<path fill="#58585A" d="M283.465,0c-14.173,0-28.346,0-42.52,0c14.173,14.173,28.346,28.346,42.52,42.52
		C283.465,28.346,283.465,14.173,283.465,0z"/>
	<path fill="#58585A" d="M0,283.465c14.173,0,28.346,0,42.52,0C28.346,269.291,14.173,255.118,0,240.945
		C0,255.118,0,269.291,0,283.465z"/>
</g>
</svg>
