<?xml version="1.0" encoding="utf-8"?>
<!-- Generator: Adobe Illustrator 22.0.0, SVG Export Plug-In . SVG Version: 6.00 Build 0)  -->
<svg version="1.1" xmlns="http://www.w3.org/2000/svg" xmlns:xlink="http://www.w3.org/1999/xlink" x="0px" y="0px"
	 viewBox="0 0 283.465 283.465" enable-background="new 0 0 283.465 283.465" xml:space="preserve">
<g id="c1">
	<rect x="0.006" y="0" fill="#DEDEDE" width="283.465" height="283.465"/>
</g>
<g id="c2">
	
		<rect x="179.737" y="205.719" transform="matrix(0.7071 -0.7071 0.7071 0.7071 -95.3931 230.3123)" fill="#58585A" width="101.156" height="49.173"/>
	
		<rect x="28.569" y="179.728" transform="matrix(0.7071 -0.7071 0.7071 0.7071 -147.2819 105.0416)" fill="#58585A" width="49.173" height="101.156"/>
	
		<rect x="2.574" y="28.937" transform="matrix(0.7071 -0.7071 0.7071 0.7071 -22.2787 53.2611)" fill="#58585A" width="101.156" height="49.173"/>
	
		<rect x="205.725" y="2.945" transform="matrix(0.7071 -0.7071 0.7071 0.7071 29.6101 178.5318)" fill="#58585A" width="49.173" height="101.156"/>
</g>
<g id="c3">
	<polygon fill="#353333" points="178.168,248.685 142.553,283.464 107.302,248.685 142.553,212.598 	"/>
	<polygon fill="#353333" points="106.299,35.147 141.553,0.182 177.165,35.147 141.553,71.048 	"/>
	<polygon fill="#353333" points="0.003,141.075 34.774,106.482 70.869,141.075 34.777,177.348 	"/>
	<polygon fill="#353333" points="212.598,141.075 248.691,106.482 283.465,141.075 248.694,177.348 	"/>
</g>
<g id="C4">
	
		<rect x="91.443" y="91.804" transform="matrix(0.7071 -0.7071 0.7071 0.7071 -58.8886 141.659)" fill="#58585A" width="100.22" height="100.22"/>
</g>
</svg>
