<?xml version="1.0" encoding="utf-8"?>
<!-- Generator: Adobe Illustrator 22.0.0, SVG Export Plug-In . SVG Version: 6.00 Build 0)  -->
<svg version="1.1" xmlns="http://www.w3.org/2000/svg" xmlns:xlink="http://www.w3.org/1999/xlink" x="0px" y="0px"
	 viewBox="0 0 283.5 283.5" enable-background="new 0 0 283.5 283.5" xml:space="preserve">
<g id="c1">
	<path fill="#DEDEDE" d="M260.357,193.05c-12.403,9.543-27.652,8.113-36.188,7.312c-6.788-0.637-12.253-2.193-15.861-3.439
		c-0.122,0.226-0.269,0.567-0.327,1.001c-0.11,0.829,0.175,1.481,0.313,1.75c6.714,9.414,15.608,19.775,27.313,29.561
		c3.159,2.641,6.297,5.051,9.375,7.25c0.5-0.637,1.25-1.528,2.25-2.5c2.55-2.476,6.104-5.874,11-6c3.512-0.09,7.043,1.642,9.25,4.25
		c3.98,4.703,2.79,10.611,2.5,11.999c-0.533,2.555-1.621,4.45-2.375,5.562c0.743,0.542,1.812,1.416,2.875,2.687
		c1.156,1.383,4.213,5.037,3.688,9.874c-0.452,4.167-3.301,6.809-4.219,7.593c-0.784,0.917-3.426,3.766-7.594,4.218
		c-4.838,0.525-8.492-2.531-9.875-3.687c-1.271-1.063-2.145-2.132-2.688-2.875c-1.112,0.754-3.007,1.842-5.563,2.375
		c-1.388,0.29-7.297,1.48-12-2.5c-2.608-2.207-4.34-5.738-4.25-9.249c0.126-4.896,3.524-8.45,6-10.999c0.972-1,1.863-1.75,2.5-2.25
		c-2.199-3.078-4.608-6.215-7.25-9.374c-9.786-11.704-20.148-20.597-29.563-27.311c-0.269-0.138-0.921-0.422-1.75-0.312
		c-0.434,0.057-0.775,0.204-1.002,0.327c1.246,3.608,2.802,9.073,3.439,15.86c0.801,8.535,2.231,23.783-7.312,36.185
		c-8.587,11.158-21.471,14.054-26.313,14.874c0,2.744,0,5.488,0,8.232c38.911,0,77.822,0,116.732,0c0-38.908,0-77.817,0-116.725
		c-2.744,0-5.488,0-8.232,0C274.412,171.58,271.516,184.464,260.357,193.05z"/>
</g>
<g id="c2">
	<path fill="#353333" d="M47.371,283.5c0-58.955,45.943-106.989,103.401-109.108c6.773,1.321,9.09,2.621,10.729,3.882
		c3.283,2.528,4.934,5.742,5.75,7.75c-0.592,0.317-2.332,1.348-3.25,3.5c-0.237,0.556-0.787,1.891-0.5,3.5
		c0.527,2.953,3.585,5.217,6.5,5.25c1.33,0.015,2.33-0.438,3-0.75c2.708-1.261,4.021-3.544,4.5-4.5
		c2.861,4.699,6.491,11.795,8.75,20.999c1.756,7.155,4.526,18.442,0.125,30.998c-1.54,4.393-4.631,13.21-13.125,17.249
		c-3.213,1.528-6.234,1.913-8.25,2c0-1.062,0-2.125,0-3.187c-0.304-1.544-0.985-2.455-1.438-2.937
		c-2.551-2.716-7.924-2.512-10.375,0.188c-0.723,0.796-1.07,1.675-1.25,2.312c0.021,1.208,0.042,2.417,0.063,3.625
		c-1.431,0.117-6.118,0.319-10.75-2.75c-5.131-3.399-6.655-8.466-7-9.749c7.907-3.223,11.143-8.255,12.25-10.249
		c3.575-6.445,2.868-13.548,2.5-17.249c-0.521-5.233-1.982-8.299-2-15.749c-0.005-2.312,0.13-4.22,0.25-5.5
		c-3.598,0.172-13.137,1.12-21.75,8.249c-4.731,3.916-7.478,8.286-9,11.249c-1.164-1.518-4.292-5.169-9.75-7
		c-7.031-2.358-13.03-0.05-14.586,0.605c1.768,2.348,2.999,4.496,3.836,6.145c1.026,2.022,2.476,4.931,3.25,8.999
		c0.449,2.36,0.531,4.375,0.516,5.808c-3.164,0.82-15.475,4.395-21.016,15.691c-1.192,2.43-1.875,4.819-2.25,7
		c1.478-0.198,3.748-0.406,6.5-0.25c2.503,0.142,5.925,0.613,14.5,3.75c8.501,3.109,8.549,3.893,12.5,4.5
		c6.294,0.966,10.127-0.417,11-0.75c2.967-1.131,5.035-2.829,6.25-4c2.741,3.114,7.867,8.056,15.75,11.249
		c4.063,1.646,7.793,2.396,10.75,2.739c0.021,2.164,0.042,4.328,0.063,6.492c4.313,0,8.625,0,12.938,0c0-2.744,0-5.488,0-8.232
		c4.841-0.82,17.726-3.716,26.313-14.874c9.544-12.402,8.113-27.65,7.313-36.185c-0.637-6.787-2.193-12.252-3.439-15.86
		c0.226-0.122,0.567-0.269,1.002-0.327c0.829-0.11,1.481,0.175,1.75,0.312c9.415,6.714,19.777,15.607,29.563,27.311
		c2.642,3.159,5.051,6.296,7.25,9.374c-0.637,0.5-1.528,1.249-2.5,2.25c-2.476,2.55-5.874,6.103-6,10.999
		c-0.09,3.512,1.642,7.042,4.25,9.249c4.703,3.98,10.612,2.79,12,2.5c2.555-0.533,4.45-1.621,5.563-2.375
		c0.542,0.743,1.416,1.812,2.688,2.875c1.383,1.156,5.037,4.212,9.875,3.687c4.168-0.452,6.81-3.301,7.594-4.218
		c0.917-0.784,3.766-3.426,4.219-7.593c0.525-4.838-2.531-8.492-3.688-9.874c-1.063-1.271-2.132-2.145-2.875-2.687
		c0.754-1.112,1.842-3.007,2.375-5.562c0.29-1.388,1.48-7.296-2.5-11.999c-2.207-2.608-5.738-4.34-9.25-4.25
		c-4.896,0.126-8.45,3.524-11,6c-1,0.972-1.75,1.863-2.25,2.5c-3.078-2.199-6.216-4.608-9.375-7.25
		c-11.705-9.785-20.598-20.147-27.313-29.561c-0.138-0.269-0.422-0.921-0.313-1.75c0.057-0.434,0.204-0.775,0.327-1.001
		c3.608,1.246,9.073,2.802,15.861,3.439c8.535,0.801,23.785,2.231,36.188-7.312c11.159-8.586,14.055-21.47,14.875-26.311
		c2.744,0,5.488,0,8.232,0c0-4.312,0-8.624,0-12.937c-2.164-0.021-4.328-0.042-6.493-0.063c-0.343-2.957-1.094-6.687-2.74-10.749
		c-3.194-7.883-8.136-13.009-11.25-15.749c1.171-1.215,2.869-3.283,4-6.25c0.333-0.873,1.716-4.705,0.75-10.999
		c-0.606-3.951-1.391-3.999-4.5-12.499c-3.137-8.574-3.608-11.996-3.75-14.499c-0.156-2.752,0.052-5.022,0.25-6.5
		c-2.18,0.375-4.57,1.058-7,2.25c-11.297,5.541-14.872,17.85-15.692,21.014c-1.433,0.015-3.448-0.067-5.808-0.516
		c-4.069-0.774-6.978-2.224-9-3.25c-1.649-0.836-3.797-2.067-6.145-3.836c-0.655,1.556-2.963,7.554-0.605,14.585
		c1.83,5.458,5.482,8.586,7,9.749c-2.964,1.522-7.334,4.269-11.25,8.999c-7.13,8.613-8.078,18.151-8.25,21.749
		c1.28-0.12,3.188-0.255,5.5-0.25c7.45,0.018,10.516,1.479,15.75,2c3.701,0.368,10.805,1.075,17.25-2.5
		c1.995-1.107,7.026-4.343,10.25-12.249c1.283,0.345,6.351,1.869,9.75,7c3.069,4.632,2.867,9.318,2.75,10.749
		c-1.208-0.021-2.417-0.042-3.625-0.063c-0.638,0.18-1.517,0.527-2.313,1.25c-2.7,2.451-2.904,7.823-0.188,10.374
		c0.482,0.453,1.393,1.133,2.938,1.437c1.063,0,2.125,0,3.188,0c-0.087,2.016-0.472,5.037-2,8.249
		c-4.039,8.494-12.857,11.585-17.25,13.124c-12.556,4.401-23.844,1.631-31-0.125c-9.204-2.259-16.301-5.888-21-8.749
		c0.956-0.479,3.239-1.792,4.5-4.5c0.312-0.67,0.765-1.67,0.75-3c-0.033-2.914-2.296-5.973-5.25-6.5
		c-1.609-0.287-2.944,0.263-3.5,0.5c-2.152,0.918-3.183,2.658-3.5,3.25c-2.007-0.816-5.222-2.467-7.75-5.75
		c-1.262-1.638-2.561-3.955-3.882-10.728c2.119-57.454,50.155-103.394,109.115-103.394V37.27c-66,0-119.503,52.599-119.503,117.484
		c0,3.255,0.147,6.475,0.412,9.663c-3.188-0.265-6.408-0.412-9.663-0.412c-64.889,0-117.491,53.5-117.491,119.496H47.371z"/>
</g>
<g id="c3">
	<g>
		<path fill="#DEDEDE" d="M186,167.257c0.317-0.592,1.348-2.332,3.5-3.25c0.556-0.237,1.891-0.787,3.5-0.5
			c2.954,0.527,5.217,3.585,5.25,6.5c0.015,1.33-0.438,2.33-0.75,3c-1.261,2.708-3.544,4.021-4.5,4.5
			c4.699,2.861,11.796,6.491,21,8.749c7.156,1.756,18.444,4.526,31,0.125c4.393-1.54,13.211-4.63,17.25-13.124
			c1.528-3.213,1.913-6.233,2-8.249c-1.063,0-2.125,0-3.188,0c-1.544-0.304-2.455-0.985-2.938-1.437
			c-2.716-2.551-2.512-7.923,0.188-10.374c0.796-0.723,1.675-1.07,2.313-1.25c1.208,0.021,2.417,0.042,3.625,0.063
			c0.117-1.431,0.319-6.118-2.75-10.749c-3.399-5.131-8.467-6.654-9.75-7c-3.224,7.906-8.255,11.143-10.25,12.249
			c-6.445,3.575-13.549,2.868-17.25,2.5c-5.234-0.521-8.3-1.982-15.75-2c-2.312-0.005-4.22,0.13-5.5,0.25
			c0.172-3.598,1.12-13.136,8.25-21.749c3.916-4.731,8.286-7.477,11.25-8.999c-1.518-1.164-5.17-4.291-7-9.749
			c-2.358-7.031-0.05-13.029,0.605-14.585c2.348,1.768,4.496,2.999,6.145,3.836c2.022,1.026,4.931,2.476,9,3.25
			c2.36,0.449,4.376,0.531,5.808,0.516c0.82-3.164,4.395-15.474,15.692-21.014c2.43-1.192,4.82-1.875,7-2.25
			c-0.198,1.478-0.406,3.748-0.25,6.5c0.142,2.503,0.613,5.925,3.75,14.499c3.109,8.5,3.894,8.548,4.5,12.499
			c0.966,6.294-0.417,10.127-0.75,10.999c-1.131,2.966-2.829,5.035-4,6.25c3.114,2.74,8.056,7.866,11.25,15.749
			c1.646,4.063,2.396,7.793,2.74,10.749c2.164,0.021,4.328,0.042,6.493,0.063c0-35.478,0-70.957,0-106.435
			c-58.959,0-106.996,45.94-109.115,103.394c1.321,6.773,2.621,9.09,3.882,10.728C180.778,164.79,183.993,166.441,186,167.257z"/>
		<path fill="#DEDEDE" d="M153.812,283.482c-0.021-2.164-0.042-4.328-0.063-6.492c-2.957-0.343-6.687-1.094-10.75-2.739
			c-7.883-3.194-13.009-8.135-15.75-11.249c-1.215,1.171-3.283,2.868-6.25,4c-0.873,0.333-4.706,1.716-11,0.75
			c-3.951-0.606-3.999-1.39-12.5-4.5c-8.575-3.136-11.997-3.608-14.5-3.75c-2.752-0.156-5.022,0.052-6.5,0.25
			c0.375-2.18,1.058-4.569,2.25-7c5.541-11.296,17.851-14.871,21.016-15.691c0.015-1.433-0.067-3.448-0.516-5.808
			c-0.774-4.068-2.224-6.977-3.25-8.999c-0.836-1.648-2.067-3.797-3.836-6.145c1.556-0.655,7.555-2.963,14.586-0.605
			c5.458,1.83,8.586,5.482,9.75,7c1.522-2.964,4.269-7.333,9-11.249c8.613-7.129,18.152-8.078,21.75-8.249
			c-0.12,1.28-0.255,3.187-0.25,5.5c0.018,7.45,1.479,10.516,2,15.749c0.368,3.7,1.075,10.804-2.5,17.249
			c-1.107,1.995-4.343,7.026-12.25,10.249c0.345,1.283,1.869,6.35,7,9.749c4.632,3.069,9.319,2.867,10.75,2.75
			c-0.021-1.208-0.042-2.417-0.063-3.625c0.18-0.638,0.527-1.517,1.25-2.312c2.451-2.7,7.824-2.904,10.375-0.188
			c0.453,0.482,1.133,1.393,1.438,2.937c0,1.062,0,2.125,0,3.187c2.016-0.087,5.037-0.472,8.25-2
			c8.494-4.039,11.585-12.856,13.125-17.249c4.401-12.556,1.631-23.843-0.125-30.998c-2.259-9.203-5.889-16.3-8.75-20.999
			c-0.479,0.956-1.792,3.239-4.5,4.5c-0.67,0.312-1.67,0.765-3,0.75c-2.915-0.033-5.973-2.296-6.5-5.25
			c-0.287-1.609,0.263-2.944,0.5-3.5c0.918-2.152,2.658-3.183,3.25-3.5c-0.816-2.007-2.467-5.222-5.75-7.75
			c-1.638-1.261-3.956-2.561-10.729-3.882c-57.458,2.118-103.401,50.152-103.401,109.108
			C82.851,283.482,118.332,283.482,153.812,283.482z"/>
	</g>
</g>
<g id="c4">
	<path fill="#6A6967" d="M283.482,37.252c-4.069-0.008-9.682,0.188-16.285,1.087c-26.572,3.619-45.167,15.356-51.238,19.456
		c-25.696,17.353-37.288,39.88-40.624,46.884c-12.249,25.712-11.804,49.104-10.944,59.72c-3.199-0.269-7.3-0.48-12.064-0.384
		c-1.468,0.03-11.056,0.263-21.447,2.436c-21.328,4.46-38.068,15.423-40.925,17.327C81.26,189.576,68.064,200.032,57,216.671
		c-18.061,27.163-19.764,54.748-19.763,66.811c-5.877,0-11.755,0-17.632,0c-0.009-5.08,0.258-12.372,1.575-21.018
		c2.006-13.167,7.122-33.903,21.086-55.181c7.392-11.264,14.985-19.207,19.825-23.834c18.904-18.072,38.282-26.146,46.656-29.221
		c8.715-3.2,21.536-6.868,37.571-7.902c0.312-5.398,1.073-12.765,3.016-21.316c1.629-7.172,5.966-23.441,17.284-41.398
		c8.029-12.739,16.65-21.691,22.541-27.141c4.527-4.188,16.497-14.682,34.809-23.332c7.328-3.462,18.366-7.9,32.376-10.726
		c10.574-2.133,19.866-2.748,27.139-2.792C283.482,25.498,283.482,31.375,283.482,37.252z"/>
</g>
<g id="c5">
	<path fill="#353333" d="M9.39,283.482h10.214c0-73.026,56.005-132.738,126.713-137.156l0,0v0h0l0,0
		c4.418-70.703,64.134-126.705,137.165-126.705V9.407c-75.46,0-137.708,55.586-146.704,127.38
		C64.98,145.782,9.39,208.027,9.39,283.482z"/>
</g>
<g id="c6">
	<path fill="#DEDEDE" d="M15,283.482H9.39c0-75.455,55.59-137.7,127.388-146.695c8.996-71.793,71.244-127.38,146.704-127.38v4.491h0
		c0-4.621,0-9.242,0-13.863c-12.827,0-25.655,0-38.482,0C188.111,0.03,131.222,0.024,74.333,0.018c0,0.006,0.001,0.012,0.002,0.018
		h6.47c0,19.428-6.863,37.251-18.292,51.187c0.018-0.02,0.036-0.04,0.054-0.06c2.002,2.447,5.227,5.846,9.933,8.851
		c7.497,4.789,14.582,5.917,18.5,6.5c6.703,0.997,12.33,0.489,17.75,0c3.183-0.287,5.839-0.678,7.75-1
		c1.847,11.362-0.451,16.201-3,18.499c-2.321,2.092-5.182,3.543-5,5.75c0.17,2.055,2.936,2.586,6.302,5.698
		c0,0,3.312,3.062,5.448,7.802c3.082,6.839,1.173,14.023,0.125,17.124c-3.101,1.048-10.285,2.957-17.125-0.125
		c-4.74-2.136-7.802-5.448-7.802-5.448c-3.112-3.366-3.643-6.132-5.698-6.301c-2.206-0.182-3.658,2.679-5.75,5
		c-2.298,2.549-7.138,4.847-18.5,3c0.322-1.911,0.713-4.566,1-7.75c0.489-5.42,0.997-11.046,0-17.749
		c-0.583-3.918-1.711-11.002-6.5-18.499c-3.006-4.706-6.404-7.93-8.852-9.932c0.02-0.018,0.04-0.036,0.06-0.054
		c-13.936,11.428-31.76,18.291-51.19,18.291c0,31.063,0,62.126,0,93.189c0-27.082,0-54.163,0-81.245
		c4.802-0.051,7.239,1.791,8.118,2.567c4.918,4.341,3.817,13.075,3.364,16.932c-0.678,5.775-1.989,6.087-3.75,14.749
		c-1.43,7.034-2.122,10.624-1,14.249c0.194,0.626,2.61,8.008,10,10.999c5.222,2.114,10.029,0.862,12.25,0.25
		c8.243-2.272,9.384-7.248,18.5-14.249c3.823-2.936,12.705-9.601,24.5-10.999c8.297-0.984,15.196,0.976,19.25,2.5
		c-3.652,0.917-8.511,2.376-14,4.75c-4.399,1.902-12.658,5.554-20.75,12.499c-10.985,9.428-11.305,16.044-24,24.748
		c-2.292,1.572-3.736,2.549-6,3.5c-10.432,4.38-21.108,0.973-26.482-1.25c0,36.492,0,72.984,0,109.475
		C5.012,283.482,10.006,283.482,15,283.482z M112.25,11.517c-3.857,0.453-12.591,1.554-16.933-3.364
		c-0.776-0.879-2.618-3.316-2.567-8.117c27.083,0,54.167,0,81.25,0c2.223,5.374,5.63,16.049,1.25,26.481
		c-0.95,2.264-1.928,3.707-3.5,6C163.045,45.21,156.429,45.53,147,56.514c-6.946,8.091-10.598,16.35-12.5,20.749
		c-2.373,5.489-3.833,10.347-4.75,13.999c-1.524-4.054-3.484-10.952-2.5-19.249c1.398-11.794,8.064-20.676,11-24.498
		c7.001-9.115,11.978-10.257,14.25-18.499c0.612-2.221,1.864-7.027-0.25-12.249c-2.992-7.389-10.374-9.806-11-9.999
		c-3.625-1.122-7.216-0.43-14.25,1C118.337,9.528,118.026,10.839,112.25,11.517z"/>
</g>
<g id="c7">
	<g>
		<path fill="#6A6967" d="M130.465,91.262c0.917-3.652,2.377-8.51,4.75-13.999c1.902-4.398,5.554-12.657,12.5-20.749
			c9.429-10.984,16.045-11.304,24.75-23.999c1.572-2.292,2.55-3.736,3.5-6c4.38-10.431,0.973-21.107-1.25-26.481
			c-27.083,0-54.167,0-81.25,0c-0.051,4.801,1.791,7.238,2.567,8.117c4.342,4.918,13.076,3.817,16.933,3.364
			c5.776-0.678,6.087-1.989,14.75-3.75c7.034-1.43,10.625-2.122,14.25-1c0.626,0.194,8.008,2.61,11,9.999
			c2.114,5.222,0.862,10.028,0.25,12.249c-2.272,8.242-7.249,9.384-14.25,18.499c-2.936,3.823-9.602,12.704-11,24.498
			C126.981,80.31,128.94,87.208,130.465,91.262z"/>
		<path fill="#6A6967" d="M91.965,129.76c-3.652,0.917-8.511,2.376-14,4.75c-4.399,1.902-12.658,5.554-20.75,12.499
			c-10.985,9.428-11.305,16.044-24,24.748c-2.292,1.572-3.736,2.549-6,3.5c-10.432,4.38-21.108,0.973-26.482-1.25
			c0-27.082,0-54.163,0-81.245c4.802-0.051,7.239,1.791,8.118,2.567c4.918,4.341,3.817,13.075,3.364,16.932
			c-0.678,5.775-1.989,6.087-3.75,14.749c-1.43,7.034-2.122,10.624-1,14.249c0.194,0.626,2.61,8.008,10,10.999
			c5.222,2.114,10.029,0.862,12.25,0.25c8.243-2.272,9.384-7.248,18.5-14.249c3.823-2.936,12.705-9.601,24.5-10.999
			C81.012,126.276,87.911,128.235,91.965,129.76z"/>
	</g>
</g>
<g id="c8">
	<path fill="#353333" d="M60,73.113c4.789,7.497,5.917,14.581,6.5,18.499c0.997,6.703,0.489,12.329,0,17.749
		c-0.287,3.183-0.678,5.839-1,7.75c11.362,1.847,16.202-0.45,18.5-3c2.092-2.32,3.544-5.182,5.75-5
		c2.055,0.17,2.586,2.936,5.698,6.301c0,0,3.062,3.312,7.802,5.448c6.84,3.082,14.024,1.173,17.125,0.125
		c1.048-3.101,2.957-10.285-0.125-17.124c-2.136-4.74-5.448-7.802-5.448-7.802c-3.366-3.111-6.132-3.643-6.302-5.698
		c-0.182-2.206,2.679-3.658,5-5.75c2.549-2.298,4.847-7.137,3-18.499c-1.911,0.322-4.567,0.713-7.75,1
		c-5.42,0.489-11.047,0.997-17.75,0c-3.918-0.582-11.003-1.711-18.5-6.5c-4.706-3.006-7.93-6.404-9.933-8.851
		c-1.808,1.998-3.616,3.996-5.424,5.995c-1.998,1.808-3.997,3.616-5.995,5.424C53.596,65.183,56.994,68.407,60,73.113z"/>
	<path fill="#353333" d="M33.5,44.614c1.776,1.859,4.817,5.054,8.746,9.245c1.959-1.707,3.918-3.415,5.877-5.122l0,0
		c1.708-1.959,3.415-3.918,5.122-5.877c-4.192-3.929-7.386-6.97-9.246-8.746c-5.54-5.291-7.894-7.633-10.955-7.31
		c-1.958,0.206-3.456,1.424-4.42,2.435c-1.011,0.965-2.229,2.462-2.436,4.42C25.867,36.721,28.209,39.075,33.5,44.614z"/>
</g>
<g id="c13">
	<path fill="#6A6967" d="M0.018,68.063v12.755c44.618,0,80.787-36.167,80.787-80.782H68.049
		C68.049,37.606,37.59,68.063,0.018,68.063z"/>
</g>
<g id="c9">
	<path fill="#DEDEDE" d="M42.341,53.276c-0.031-0.005-0.063-0.011-0.094-0.016c-3.93-4.191-6.97-7.386-8.746-9.245
		c-5.291-5.54-7.633-7.894-7.311-10.954c0.206-1.958,1.424-3.455,2.436-4.42c0.965-1.011,2.463-2.229,4.42-2.435
		c3.061-0.323,5.415,2.019,10.955,7.31c1.859,1.776,5.054,4.816,9.246,8.746c-0.007,0.047-0.014,0.094-0.02,0.141
		c9.27-11.625,14.824-26.343,14.824-42.367c-2.516,0-5.033,0-7.549,0c-0.018,1.652-0.288,6.689-4,11.232
		c-2.942,3.6-6.473,4.968-7.25,5.25c-3.412,1.237-6.302,0.966-10.75,0.5c-6.291-0.659-7.488-2.083-11.25-1.75
		c-3.926,0.347-7.013,2.258-9.083,3.916c-1.124,1.711-2.613,4.499-2.917,8.083c-0.332,3.918,1.113,5.17,1.75,11.249
		c0.466,4.448,0.737,7.338-0.5,10.749c-0.282,0.777-1.649,4.307-5.25,7.25c-4.542,3.712-9.58,3.982-11.232,4
		c0,2.516,0,5.033,0,7.549C16.021,68.063,30.722,62.523,42.341,53.276z"/>
</g>
<g id="c10">
	<path fill="#353333" d="M11.25,56.532c3.601-2.942,4.968-6.473,5.25-7.25c1.237-3.412,0.966-6.301,0.5-10.749
		c-0.637-6.08-2.082-7.332-1.75-11.249c0.304-3.584,1.793-6.372,2.917-8.083c2.07-1.659,5.158-3.569,9.083-3.916
		c3.762-0.333,4.959,1.09,11.25,1.75c4.448,0.466,7.338,0.737,10.75-0.5c0.777-0.282,4.308-1.649,7.25-5.25
		c3.712-4.542,3.982-9.579,4-11.232c-20.161,0-40.322,0-60.482,0c0,20.16,0,40.319,0,60.478C1.67,60.514,6.708,60.244,11.25,56.532z
		"/>
</g>
</svg>
