<?xml version="1.0" encoding="utf-8"?>
<!-- Generator: Adobe Illustrator 22.0.0, SVG Export Plug-In . SVG Version: 6.00 Build 0)  -->
<svg version="1.1" xmlns="http://www.w3.org/2000/svg" xmlns:xlink="http://www.w3.org/1999/xlink" x="0px" y="0px"
	 viewBox="0 0 283.5 283.5" enable-background="new 0 0 283.5 283.5" xml:space="preserve">
<g id="c1">
	<path fill="#6A6967" d="M0.018,112.413c0-37.465,0-74.93,0-112.395c37.465,0,74.93,0,112.395,0
		C74.948,37.483,37.483,74.948,0.018,112.413z"/>
</g>
<g id="c2">
	<rect id="_x3C_Slice_x3E__2_" x="212.277" y="133.135" fill="none" width="1.365" height="1.381"/>
	<rect id="_x3C_Slice_x3E__1_" x="212.259" y="133.117" fill="none" width="1.365" height="1.381"/>
	<rect id="_x3C_Slice_x3E__4_" x="212.277" y="132.219" fill="none" width="1.365" height="1.381"/>
	<rect id="_x3C_Slice_x3E__5_" x="212.277" y="133.135" fill="none" width="1.365" height="1.381"/>
	<rect id="_x3C_Slice_x3E__6_" x="212.277" y="133.135" fill="none" width="1.365" height="1.381"/>
	<rect id="_x3C_Slice_x3E__7_" x="212.277" y="133.135" fill="none" width="1.365" height="1.381"/>
	<path fill="#DEDEDE" d="M0.018,225.809c0-37.799,0-75.597,0-113.396c37.465-37.465,74.93-74.93,112.395-112.395
		c37.799,0,75.597,0,113.396,0C150.545,75.281,75.281,150.545,0.018,225.809z"/>
</g>
<g id="c3">
	<path fill="#6A6967" d="M0.018,283.482c0-19.224,0-38.449,0-57.674C75.281,150.545,150.545,75.281,225.809,0.018
		c19.224,0,38.449,0,57.674,0c-0.102,18.676-0.204,37.352-0.306,56.028C207.365,131.858,131.552,207.67,55.74,283.482
		C37.166,283.482,18.592,283.482,0.018,283.482z"/>
</g>
<g id="c4">
	<path fill="#DEDEDE" d="M55.758,283.482c37.799,0,75.597,0,113.396,0c37.975-38.064,75.951-76.129,113.926-114.193
		c0.038-37.748,0.076-75.495,0.114-113.243C207.382,131.858,131.57,207.67,55.758,283.482z"/>
</g>
<g id="c5">
	<path fill="#6A6967" d="M169.137,283.482c38.115,0,76.231,0,114.346,0c-0.14-38.064-0.28-76.129-0.42-114.193
		C245.087,207.353,207.112,245.418,169.137,283.482z"/>
</g>
</svg>
