<?xml version="1.0" encoding="utf-8"?>
<!-- Generator: Adobe Illustrator 22.0.0, SVG Export Plug-In . SVG Version: 6.00 Build 0)  -->
<svg version="1.1" xmlns="http://www.w3.org/2000/svg" xmlns:xlink="http://www.w3.org/1999/xlink" x="0px" y="0px"
	 viewBox="0 0 283.5 283.5" enable-background="new 0 0 283.5 283.5" xml:space="preserve">
<g id="c1">
	<g>
		<polygon fill="#6A6967" points="226.114,283.482 282.638,283.482 283.482,282.638 283.482,226.114 		"/>
		<polygon fill="#6A6967" points="283.482,113.066 113.066,283.482 169.59,283.482 283.482,169.59 		"/>
		<polygon fill="#6A6967" points="283.482,0.018 0.018,283.482 0.018,283.482 56.542,283.482 283.482,56.542 		"/>
		<polygon fill="#6A6967" points="170.434,0.018 0.018,170.434 0.018,226.958 226.958,0.018 		"/>
		<polygon fill="#6A6967" points="57.386,0.018 0.018,57.386 0.018,113.91 113.91,0.018 		"/>
	</g>
</g>
<g id="c2">
	<rect id="_x3C_Slice_x3E__2_" x="212.277" y="133.135" fill="none" width="1.365" height="1.381"/>
	<rect id="_x3C_Slice_x3E__1_" x="212.259" y="133.117" fill="none" width="1.365" height="1.381"/>
	<rect id="_x3C_Slice_x3E__4_" x="212.277" y="132.219" fill="none" width="1.365" height="1.381"/>
	<rect id="_x3C_Slice_x3E__5_" x="212.277" y="133.135" fill="none" width="1.365" height="1.381"/>
	<rect id="_x3C_Slice_x3E__6_" x="212.277" y="133.135" fill="none" width="1.365" height="1.381"/>
	<rect id="_x3C_Slice_x3E__7_" x="212.277" y="133.135" fill="none" width="1.365" height="1.381"/>
	<g>
		<polygon fill="#DEDEDE" points="283.482,169.59 169.59,283.482 226.114,283.482 283.482,226.114 		"/>
		<polygon fill="#DEDEDE" points="283.482,56.542 56.542,283.482 113.066,283.482 283.482,113.066 		"/>
		<polygon fill="#DEDEDE" points="283.482,0.018 226.958,0.018 0.018,226.958 0.018,283.482 283.482,0.018 		"/>
		<polygon fill="#DEDEDE" points="113.91,0.018 0.018,113.91 0.018,170.434 170.434,0.018 		"/>
		<polygon fill="#DEDEDE" points="57.386,0.018 0.862,0.018 0.018,0.862 0.018,57.386 		"/>
	</g>
</g>
</svg>
