<?xml version="1.0" encoding="utf-8"?>
<!-- Generator: Adobe Illustrator 22.0.0, SVG Export Plug-In . SVG Version: 6.00 Build 0)  -->
<svg version="1.1" xmlns="http://www.w3.org/2000/svg" xmlns:xlink="http://www.w3.org/1999/xlink" x="0px" y="0px"
	 viewBox="0 0 283.465 283.465" enable-background="new 0 0 283.465 283.465" xml:space="preserve">
<g id="c1">
	<path fill="#DEDEDE" d="M212.598,0C165.354,0,118.11,0,70.866,0C47.244,23.622,23.622,47.244,0,70.866c0,47.244,0,94.488,0,141.732
		C70.866,141.732,141.732,70.866,212.598,0z"/>
</g>
<g id="c2">
	<path fill="#353333" d="M70.866,0C47.244,23.622,23.622,47.244,0,70.866C0,47.244,0,23.622,0,0C23.622,0,47.244,0,70.866,0z"/>
</g>
<g id="c3">
	<path fill="#353333" d="M283.465,70.866c-70.866,70.866-141.732,141.732-212.598,212.598c-23.622,0-47.244,0-70.866,0
		c0-23.622,0-47.244,0-70.866C70.866,141.732,141.732,70.866,212.598,0c23.622,0,47.244,0,70.866,0
		C283.465,23.622,283.465,47.244,283.465,70.866z"/>
</g>
<g id="C4">
	<path fill="#DEDEDE" d="M283.465,70.866c0,47.244,0,94.488,0,141.732c-23.622,23.622-47.244,47.244-70.866,70.866
		c-47.244,0-94.488,0-141.732,0C141.732,212.598,212.598,141.732,283.465,70.866z"/>
</g>
<g id="c5">
	<path fill="#353333" d="M283.465,212.598c-23.622,23.622-47.244,47.244-70.866,70.866c23.622,0,47.244,0,70.866,0
		C283.465,259.843,283.465,236.22,283.465,212.598z"/>
</g>
</svg>
