<?xml version="1.0" encoding="utf-8"?>
<!-- Generator: Adobe Illustrator 22.0.0, SVG Export Plug-In . SVG Version: 6.00 Build 0)  -->
<svg version="1.1" xmlns="http://www.w3.org/2000/svg" xmlns:xlink="http://www.w3.org/1999/xlink" x="0px" y="0px"
	 viewBox="0 0 283.465 283.465" enable-background="new 0 0 283.465 283.465" xml:space="preserve">
<g id="c1">
	<path fill="#353333" d="M283.465,212.598c-23.621,23.622-47.241,47.244-70.862,70.866c23.621,0,47.241,0,70.862,0
		C283.465,259.842,283.465,236.22,283.465,212.598z"/>
</g>
<g id="c2">
	<polygon fill="#DEDEDE" points="50.124,283.465 212.603,283.464 283.465,212.598 283.465,50.11 	"/>
</g>
<g id="c3">
	<polygon fill="#353333" points="233.375,0 0.018,233.372 0.035,283.464 50.142,283.465 283.482,50.11 283.482,0 	"/>
</g>
<g id="C4">
	<polygon fill="#DEDEDE" points="233.357,0 70.879,0 0.018,70.866 0,233.372 	"/>
</g>
<g id="c5">
	<path fill="#353333" d="M70.879,0C47.259,23.622,23.638,47.244,0.018,70.866c0-23.622,0-47.244,0-70.866
		C23.638,0,47.259,0,70.879,0z"/>
</g>
</svg>
