<?xml version="1.0" encoding="utf-8"?>
<!-- Generator: Adobe Illustrator 22.0.0, SVG Export Plug-In . SVG Version: 6.00 Build 0)  -->
<svg version="1.1" xmlns="http://www.w3.org/2000/svg" xmlns:xlink="http://www.w3.org/1999/xlink" x="0px" y="0px"
	 viewBox="0 0 283.465 283.465" enable-background="new 0 0 283.465 283.465" xml:space="preserve">
<g id="c1">
	<rect x="0" y="0" fill="#DEDEDE" width="283.465" height="283.465"/>
</g>
<g id="c2">
	<path fill="#58585A" d="M283.465,49.663V31.947h-31.947V0h-17.717v31.947h-46.628L155.227,0h-27.103L96.177,31.947H49.549V0H31.833
		v31.947H0v17.717h31.833v46.628L0,128.124v27.331l31.833,31.833v46.628H0v17.717h31.833v31.833h17.717v-31.833h46.628
		l31.833,31.833h27.331l31.833-31.833h46.628v31.833h17.717v-31.833h31.947v-17.717h-31.947v-46.628l31.947-31.947v-27.103
		l-31.947-31.947V49.663H283.465z M141.675,11.503l20.443,20.443h-40.887L141.675,11.503z M179.835,49.663l53.966,53.966v76.32
		l-53.966,53.966h-76.32l-53.966-53.966v-76.32l53.966-53.966H179.835z M49.549,49.663h28.911L49.549,78.574V49.663z
		 M11.389,141.789l20.443-20.443v40.887L11.389,141.789z M49.549,233.915v-28.911l28.911,28.911H49.549z M141.675,272.075
		l-20.443-20.443h40.887L141.675,272.075z M233.801,233.915H204.89l28.911-28.911V233.915z M271.961,141.789l-20.443,20.443v-40.887
		L271.961,141.789z M204.89,49.663h28.911v28.911L204.89,49.663z"/>
</g>
</svg>
