<?xml version="1.0" encoding="utf-8"?>
<!-- Generator: Adobe Illustrator 22.0.0, SVG Export Plug-In . SVG Version: 6.00 Build 0)  -->
<svg version="1.1" xmlns="http://www.w3.org/2000/svg" xmlns:xlink="http://www.w3.org/1999/xlink" x="0px" y="0px"
	 viewBox="0 0 283.465 283.465" enable-background="new 0 0 283.465 283.465" xml:space="preserve">
<g id="c1">
	<rect x="0.067" y="0.067" fill="#DEDEDE" width="283.33" height="283.33"/>
</g>
<g id="c2">
	<polygon fill="#58585A" points="191.936,91.481 234.717,133.403 283.37,84.92 283.348,37.838 283.33,0 245.492,0.018 198.41,0.04 
		149.974,48.74 	"/>
	<polygon fill="#58585A" points="91.529,191.984 48.748,150.062 0.094,198.544 0.117,245.627 0.135,283.465 37.973,283.447 
		85.055,283.424 133.491,234.724 	"/>
</g>
<g id="c3">
	<polygon fill="#58585A" points="0.049,102.779 0.067,141.8 0.086,180.821 40.018,141.781 	"/>
	<polygon fill="#58585A" points="180.686,0.049 141.665,0.067 102.644,0.086 141.684,40.018 	"/>
	<polygon fill="#58585A" points="102.779,283.416 141.8,283.397 180.821,283.379 141.781,243.447 	"/>
	<path fill="#58585A" d="M243.447,141.684l39.932-39.04l0.019,39.021l0.019,39.021L243.447,141.684z"/>
</g>
<g id="c5">
	<g>
		<path fill="#DEDEDE" d="M61.042,269.045c-21.651,11.671-22.939-3.815-19.661-7.987c10.347-13.168,18.839-13.736,26.647-15.255
			c4.942-0.962,17.01-0.151,17.01-0.151c-0.88-11.661-11.687-17.26-11.687-17.26c13.403-15.957,6.648-25.495,6.648-25.495
			s-9.544-6.746-25.488,6.672c0,0-5.609-10.802-17.271-11.671c0,0,0.822,12.067-0.135,17.01c-1.512,7.809-2.072,16.302-15.23,26.661
			c-4.169,3.282-19.656,2.008-8.006-19.653c1.248-2.32,1.901-13.494-13.77-15.32l0.024,51.309l0.012,24.931l24.931-0.012
			l51.309-0.024C74.535,267.132,63.361,267.796,61.042,269.045z M48.785,228.062l3.15-1.333l0.331-4.744l8.666-0.004l0.004,8.666
			l-4.744,0.335l-1.33,3.152l-6.075,0.003L48.785,228.062z"/>
	</g>
	<g>
		<path fill="#DEDEDE" d="M222.12,13.164c21.651-11.671,22.939,3.815,19.661,7.987c-10.347,13.168-18.839,13.736-26.647,15.255
			c-4.942,0.962-17.01,0.151-17.01,0.151c0.88,11.661,11.687,17.26,11.687,17.26c-13.403,15.957-6.648,25.495-6.648,25.495
			s9.544,6.746,25.488-6.672c0,0,5.609,10.802,17.271,11.671c0,0-0.822-12.067,0.135-17.01c1.512-7.809,2.072-16.302,15.23-26.661
			c4.169-3.282,19.656-2.008,8.006,19.653c-1.248,2.32-1.901,13.494,13.77,15.319l-0.024-51.309l0.29-24.931l-25.233,0.012
			l-51.309,0.024C208.627,15.077,219.802,14.414,222.12,13.164z M234.377,54.147l-3.15,1.333l-0.331,4.744l-8.666,0.004
			l-0.004-8.666l4.744-0.335l1.33-3.152l6.075-0.003L234.377,54.147z"/>
	</g>
</g>
<g id="c4">
	<path fill="#58585A" d="M31.459,252.11c-19.885,6.65-31.34-1.448-31.34-1.448l0.016,32.802l32.802-0.016
		C32.937,283.449,24.828,272.002,31.459,252.11z"/>
	<path fill="#58585A" d="M31.354,31.459c-19.892-6.631-31.339,1.478-31.339,1.478L0,0.135l32.802-0.016
		C32.802,0.119,24.704,11.574,31.354,31.459z"/>
	<path fill="#58585A" d="M251.999,31.487c6.547-19.92-1.611-31.332-1.611-31.332L283.19,0l0.155,32.802
		C283.345,32.802,271.856,24.752,251.999,31.487z"/>
	<path fill="#58585A" d="M252.043,252.002c19.906,6.589,31.335-1.545,31.335-1.545l0.086,32.802l-32.802,0.086
		C250.662,283.345,258.736,271.873,252.043,252.002z"/>
</g>
<g id="c6">
	<polygon fill="#DEDEDE" points="118.867,283.408 141.8,283.397 164.732,283.386 141.79,262.147 	"/>
	<polygon fill="#DEDEDE" points="0.062,118.832 0.067,141.765 0.073,164.697 21.317,141.76 	"/>
	<polygon fill="#DEDEDE" points="164.632,0.062 141.7,0.067 118.768,0.073 141.705,21.317 	"/>
	<polygon fill="#DEDEDE" points="283.414,164.562 283.397,141.63 283.381,118.698 262.147,141.645 	"/>
</g>
<g id="c7">
	<path fill="#58585A" d="M141.784,172.094c-13.763-0.415-25.1,16.657-25.1,16.657c-2.391,1.765-2.793,5.184-0.877,7.456l12.232,14.5
		c0,0,7.063,5.994,8.475-2.003c0.25-1.414,1.498-2.5,5.286-2.251l7.832-0.004c0,0,4.191,0.876,5.123-0.002
		C178.483,184.07,141.784,172.094,141.784,172.094z"/>
	<path fill="#58585A" d="M190.52,273.147c0,0,30.524-20.272,32.142-18.34c16.169,19.316,20.044,1.652,18.366-2.674
		c-5.879-15.157-24.237-15.981-24.237-15.981l-26.479,0.013c-1.822,0.001-3.388-1.294-3.729-3.084c0,0-1.922-20.414-5.762-30.229
		c0,0-3.335,7.858-5.322,9.82c-11.656,11.512-30.312,15.019-30.312,15.019L190.52,273.147z"/>
	<path fill="#58585A" d="M215.432,198.301c-0.997-1.189-2.861-1.067-3.707,0.234l-5.175,7.953l-7.948,5.182
		c-1.3,0.848-1.421,2.711-0.23,3.707c3.594,3.008,11.664,8.101,24.735,7.652C223.544,209.957,218.443,201.893,215.432,198.301z"/>
	<path fill="#58585A" d="M111.446,141.831c0.449,13.762-16.595,25.142-16.595,25.142c-1.759,2.396-5.177,2.806-7.454,0.895
		l-14.53-12.196c0,0-6.011-7.048,1.982-8.48c1.414-0.253,2.496-1.504,2.238-5.291l-0.016-7.832c0,0-0.887-4.189-0.01-5.123
		C99.378,105.162,111.446,141.831,111.446,141.831z"/>
	<path fill="#58585A" d="M10.271,93.348c0,0,20.196-30.575,18.26-32.187c-19.357-16.121-1.702-20.039,2.628-18.372
		C46.33,48.629,47.2,66.985,47.2,66.985l0.053,26.479c0.004,1.822,1.302,3.385,3.093,3.721c0,0,20.419,1.871,30.243,5.687
		c0,0-7.849,3.355-9.806,5.346c-11.483,11.684-14.943,30.349-14.943,30.349L10.271,93.348z"/>
	<path fill="#58585A" d="M172.094,141.755c-0.428-13.763,16.633-25.116,16.633-25.116c1.763-2.393,5.181-2.798,7.455-0.884
		l14.512,12.218c0,0,6.001,7.057-1.995,8.477c-1.414,0.251-2.498,1.5-2.246,5.288l0.004,7.832c0,0,0.88,4.19,0.002,5.123
		C184.105,178.443,172.094,141.755,172.094,141.755z"/>
	<path fill="#58585A" d="M273.194,190.395c0,0-20.243,30.544-18.309,32.159c19.332,16.151,1.671,20.042-2.657,18.368
		c-15.162-5.865-16.004-24.222-16.004-24.222l-0.013-26.479c-0.001-1.822-1.297-3.387-3.087-3.726c0,0-20.416-1.902-30.235-5.734
		c0,0,7.854-3.343,9.815-5.331c11.501-11.667,14.99-30.326,14.99-30.326L273.194,190.395z"/>
	<path fill="#58585A" d="M141.802,111.446c13.763,0.436,25.126-16.619,25.126-16.619c2.394-1.762,2.801-5.18,0.888-7.455
		l-12.209-14.519c0,0-7.054-6.005-8.478,1.99c-0.252,1.414-1.502,2.497-5.289,2.243l-7.832-0.008c0,0-4.189-0.883-5.123-0.005
		C105.122,99.412,141.802,111.446,141.802,111.446z"/>
	<path fill="#58585A" d="M93.223,10.317c0,0-30.555,20.225-32.17,18.29c-16.139-19.341-20.041-1.683-18.37,2.646
		c5.856,15.166,24.213,16.018,24.213,16.018L93.374,47.3c1.822,0.002,3.386,1.299,3.724,3.09c0,0,1.89,20.417,5.716,30.238
		c0,0,3.347-7.852,5.337-9.811c11.673-11.494,30.335-14.972,30.335-14.972L93.223,10.317z"/>
	<path fill="#58585A" d="M85.055,68.249c1.192,0.994,1.074,2.858-0.225,3.708l-7.94,5.194l-5.162,7.961
		c-0.844,1.302-2.708,1.427-3.707,0.24c-3.017-3.587-8.131-11.644-7.713-24.716C73.378,60.166,81.456,65.247,85.055,68.249z"/>
	<polygon fill="#58585A" points="154.544,122.31 152.38,126.309 141.762,126.314 126.306,126.321 126.314,141.777 126.319,152.395 
		122.322,154.562 122.269,161.289 128.996,161.23 131.159,157.231 141.777,157.226 157.233,157.218 157.226,141.762 
		157.221,131.145 161.218,128.977 161.271,122.25 	"/>
</g>
</svg>
