<?xml version="1.0" encoding="utf-8"?>
<!-- Generator: Adobe Illustrator 22.0.0, SVG Export Plug-In . SVG Version: 6.00 Build 0)  -->
<svg version="1.1" xmlns="http://www.w3.org/2000/svg" xmlns:xlink="http://www.w3.org/1999/xlink" x="0px" y="0px"
	 viewBox="0 0 283.465 283.465" enable-background="new 0 0 283.465 283.465" xml:space="preserve">
<g id="c1">
	
		<rect x="-0.002" y="-0.002" transform="matrix(-1.836970e-16 1 -1 -1.836970e-16 283.4646 0.0033)" fill="#DEDEDE" width="283.465" height="283.471"/>
</g>
<g id="c2">
	<path fill="#58585A" d="M-0.002,0.002l27.614,0c0,15.269-12.363,27.647-27.614,27.647h0L-0.002,0.002z"/>
</g>
<g id="c3">
	<path fill="#9D9FA2" d="M9.755,63.906c2.951-2.515,3.878-5.66,4.162-6.833c-1.178-0.872-2.902-2.286-4.661-4.333
		c-2.465-2.87-4.205-4.895-4.328-7.833c-0.176-4.196,3.076-7.133,3.496-7.5c2.81-2.461,6.925-3.3,10.321-2
		c4.779,1.83,7.739,7.745,6.159,13.833c1.512,1.057,3.57,2.186,6.159,2.833c8.49,2.123,15.694-2.673,17.218-3.738v0
		c1.064-1.526,5.854-8.738,3.734-17.238c-0.647-2.593-1.774-4.653-2.83-6.167c-6.082,1.581-11.99-1.382-13.817-6.167
		c-1.299-3.401-0.46-7.52,1.998-10.333c0.367-0.42,3.3-3.676,7.491-3.5c2.935,0.123,4.958,1.865,7.824,4.333
		c2.045,1.761,3.458,3.487,4.328,4.667c1.172-0.284,4.313-1.212,6.825-4.167c3.449-4.057,3.085-8.842,2.996-9.762
		c-13.071,0-26.141,0-39.212,0c0,7.635-3.091,14.546-8.088,19.549l0,0c-4.997,5.003-11.901,8.098-19.526,8.098
		c0,13.086,0,26.172,0,39.258C0.924,66.994,5.704,67.36,9.755,63.906z"/>
</g>
<g id="c5">
	<path fill="#58585A" d="M12.232,197.406c7.94-9.196,5.801-20.916,5.484-22.5c1.541,0.153,4.067,0.208,6.98-0.667
		c0.892-0.268,5.002-1.579,8.476-5.5c4.272-4.822,4.742-10.387,4.82-12.167c-0.158-1.926-0.74-5.555-3.324-8.833
		c-3.854-4.891-9.677-5.85-13.628-6.5c-2.476-0.408-6.572-0.763-11.634,0.333c-0.741-1.306-1.693-3.346-2.161-6
		c-0.378-2.146-0.316-3.996-0.166-5.333c0.931,0.146,2.266,0.251,3.823,0c0.964-0.155,6.001-0.967,8.144-5.167
		c2.398-4.7-0.764-9.854-1.662-11.167c-1.133-1.655-2.44-2.718-3.324-3.333c0.095-1.846,0.466-4.574,1.828-7.5
		c2.514-5.4,6.842-8.116,11.301-10.833c3.119-1.9,8.111-4.876,15.29-6c11.092-1.737,19.954,2.114,23.517,3.917
		c3.984-3.995,7.968-7.991,11.952-11.986c0.001-0.001,0.002-0.002,0.002-0.002c3.985-3.997,7.969-7.992,11.953-11.987
		c-1.798-3.572-5.638-12.459-3.906-23.583c1.121-7.199,4.088-12.206,5.983-15.333c2.709-4.472,5.418-8.812,10.803-11.333
		c2.917-1.366,5.638-1.738,7.479-1.833c0.614,0.887,1.673,2.198,3.324,3.333c1.309,0.901,6.448,4.072,11.135,1.667
		c4.188-2.149,4.997-7.2,5.152-8.167c0.25-1.561,0.146-2.899,0-3.833c1.334-0.15,3.178-0.212,5.318,0.167
		c2.647,0.469,4.681,1.423,5.983,2.167c-1.093,5.076-0.739,9.184-0.332,11.667c0.648,3.962,1.604,9.801,6.482,13.667
		c3.269,2.591,6.888,3.175,8.808,3.333c1.775-0.078,7.324-0.549,12.132-4.833c3.91-3.483,5.217-7.606,5.484-8.5
		c0.873-2.921,0.817-5.454,0.665-7c1.579,0.317,13.266,2.463,22.436-5.5c5.036-4.373,6.934-9.729,7.645-12.262
		C168.002,0.006,131.509,0.01,95.015,0.014c-2.587,1.812-6.222,4.695-9.847,8.917c-4.511,5.253-6.817,10.026-8.975,14.5
		c-3.552,7.366-5.127,13.371-5.651,15.5c-0.765,3.108-1.217,5.796-1.496,7.833c-1.594-0.259-5.597-0.687-9.972,1.333
		c-3.231,1.492-5.228,3.656-6.22,4.905l0,0c-1.245,0.995-3.403,2.998-4.891,6.238c-2.015,4.388-1.588,8.402-1.33,10
		c-2.032,0.28-4.712,0.733-7.811,1.5c-2.123,0.525-8.111,2.105-15.456,5.667c-4.461,2.163-9.221,4.477-14.459,9
		c-4.21,3.636-7.085,7.281-8.892,9.875c-0.004,36.597-0.008,73.194-0.012,109.792C2.531,204.36,7.871,202.457,12.232,197.406z"/>
</g>
<g id="c4">
	<path fill="#353333" d="M110.113,220.573c-0.111-27.278-0.222-54.556-0.333-81.833c9.658-9.659,19.316-19.317,28.974-28.976
		c27.276,0.111,54.551,0.222,81.827,0.333c20.963-21.069,41.926-42.139,62.889-63.208c0-6.351,0-12.702,0-19.054
		c-22.808,22.81-45.616,45.619-68.424,68.429c-27.247,0-54.493,0-81.74,0c-6.128,6.111-12.256,12.222-18.384,18.333l0,0
		l-0.309,0.309l0,0c-6.111,6.128-12.221,12.257-18.332,18.385c0,27.249,0,54.497,0,81.746
		c-22.808,22.809-45.616,45.619-68.424,68.429c6.351,0,12.701,0,19.052,0C67.978,262.502,89.045,241.537,110.113,220.573z"/>
	<path fill="#353333" d="M56.829,198.573c0.056-26.635,0.111-53.27,0.167-79.905c10.301-10.29,20.602-20.579,30.903-30.869
		c-0.018-0.073-0.048-0.175-0.071-0.262c10.213-10.202,20.427-20.405,30.64-30.607c26.664-0.056,53.328-0.111,79.991-0.167
		c18.997-18.921,37.994-37.841,56.99-56.762c-6.428,0-12.855,0-19.283,0c-14.842,14.421-29.683,28.841-44.525,43.262
		c-26.259,0-52.517,0-78.775,0C101.217,54.899,89.569,66.535,77.921,78.17c0.056,0.056,0.111,0.111,0.167,0.167
		c-11.591,11.579-23.183,23.157-34.774,34.736c0,26.23,0,52.46,0,78.69c-14.436,14.826-28.873,29.651-43.309,44.477
		c0,6.421,0,12.841,0,19.262C18.946,236.525,37.887,217.549,56.829,198.573z"/>
</g>
<g id="c6">
	<path fill="#9D9FA2" d="M96.263,215.038c0-27.249,0-54.497,0-81.746c6.111-6.128,12.223-12.257,18.334-18.385l0,0
		c0.103-0.103,0.206-0.206,0.309-0.309l0,0c6.129-6.111,12.257-12.222,18.386-18.333c27.249,0,54.499,0,81.748,0
		c22.81-22.81,45.62-45.619,68.43-68.429c0-9.278,0-18.556,0-27.833c-9.322,0-18.643,0-27.965,0
		c-18.977,18.921-37.953,37.841-56.93,56.762c-26.636,0.056-53.271,0.111-79.907,0.167c-10.29,10.29-20.58,20.579-30.87,30.869
		c-10.29,10.29-20.58,20.579-30.87,30.869c-0.056,26.635-0.111,53.27-0.167,79.905c-18.921,18.976-37.842,37.952-56.763,56.929
		c0,9.322,0,18.643,0,27.965c9.278,0,18.556,0,27.834,0C50.642,260.657,73.453,237.847,96.263,215.038z"/>
</g>
<g id="c7">
	<path fill="#58585A" d="M92.818,274.406c2.072-0.819,3.502-2.02,4.328-2.833c0.972,0.686,2.546,1.624,4.661,2.167
		c5.202,1.334,9.483-0.798,10.488-1.333c3.645-1.943,5.467-4.886,6.159-6.167c1.09,0.862,3.879,2.826,7.824,3
		c6.24,0.275,10.354-4.151,11.486-5.5c3.27-3.896,3.615-8.277,3.662-9.833c1.078,0.01,2.587-0.074,4.328-0.5
		c1.444-0.353,4.278-1.243,6.992-3.5c3.589-2.985,4.905-6.645,5.66-8.833c1.347-3.905,1.365-7.393,1.165-9.667
		c3.182-1.877,5.109-4.084,6.159-5.5c1.418-1.911,4.282-5.77,3.662-10.667c-0.137-1.083-0.51-3.726-2.663-5.833
		c-1.943-1.902-4.283-2.295-5.494-2.5c-4.31-0.73-8.811,0.831-8.823,0.833l0,0c0,0-0.564-1.964-0.666-2.333
		c-0.284-1.025-1.019-3.683-0.333-6.667c0.105-0.455,0.619-2.556,2.331-4.667c0.61-0.753,2.073-2.519,4.661-3.5
		c2.264-0.858,4.16-0.667,5.827-0.5c2.323,0.234,4.718,0.474,6.326,2.167c1.275,1.342,0.807,2.284,1.831,5.5
		c0.666,2.089,1.896,5.953,4.994,8.333c1.733,1.332,3.371,1.677,6.492,2.333c3.681,0.775,6.945,0.832,9.489,0.667
		c-0.426,4.109-0.158,7.413,0.166,9.667c0.698,4.85,1.335,9.284,4.162,13.833c1.331,2.142,3.196,4.39,2.83,7.333
		c-0.16,1.285-0.699,2.329-0.999,2.833c-1.21,2.039-3.072,2.974-4.495,3.667c-1.837,0.894-2.366,0.682-4.828,1.833
		c-1.074,0.503-1.927,0.989-2.497,1.333c0.325,0.885,2.075,5.376,6.659,7.167c0.44,0.172,3.238,1.224,6.492,0.5
		c1.665-0.37,2.311-0.952,5.993-2.5c1.599-0.672,2.934-1.175,3.829-1.5c0.883,0.602,3.948,2.528,7.991,2
		c1.114-0.146,3.813-0.539,5.993-2.833c0.645-0.678,2.769-3.127,2.497-6.667c-0.319-4.155-3.674-6.358-4.162-6.667
		c-1.88-1.189-3.823-1.356-5.494-1.5c-1.709-0.147-3.149-0.002-4.162,0.167c-4.126-4.445-5.763-8.595-6.492-11.167
		c-0.447-1.576-1.836-5.993-1.498-11.833c0.18-3.108,0.775-5.669,1.32-7.488l0,0c1.817-0.545,4.375-1.141,7.479-1.321
		c5.834-0.338,10.246,1.052,11.819,1.5c2.569,0.73,6.714,2.37,11.154,6.5c-0.168,1.014-0.313,2.455-0.166,4.167
		c0.143,1.672,0.31,3.617,1.498,5.5c0.308,0.488,2.509,3.848,6.659,4.167c3.535,0.272,5.981-1.855,6.659-2.5
		c2.292-2.183,2.685-4.884,2.83-6c0.527-4.048-1.397-7.116-1.998-8c0.325-0.896,0.827-2.233,1.498-3.833
		c1.546-3.686,2.127-4.333,2.497-6c0.723-3.258-0.328-6.06-0.499-6.5c-1.788-4.589-6.274-6.341-7.158-6.667
		c-0.344,0.57-0.83,1.424-1.332,2.5c-1.15,2.465-0.938,2.994-1.831,4.833c-0.692,1.425-1.626,3.288-3.662,4.5
		c-0.504,0.3-1.546,0.84-2.83,1c-2.94,0.367-5.185-1.501-7.325-2.833c-4.544-2.83-8.973-3.468-13.817-4.167
		c-2.251-0.325-5.551-0.593-9.655-0.167c0.165-2.547,0.108-5.814-0.666-9.5c-0.656-3.125-1-4.765-2.331-6.5
		c-2.377-3.101-6.237-4.334-8.324-5c-3.212-1.026-4.153-0.557-5.494-1.833c-1.69-1.61-1.931-4.008-2.164-6.333
		c-0.167-1.668-0.358-3.566,0.499-5.833c0.98-2.591,2.744-4.056,3.496-4.667c2.108-1.714,4.206-2.229,4.661-2.333
		c2.98-0.687,5.635,0.049,6.659,0.333c0.369,0.102,2.33,0.667,2.33,0.667c-0.003,0.015-1.561,4.52-0.832,8.833
		c0.205,1.212,0.597,3.554,2.497,5.5c2.105,2.156,4.745,2.529,5.826,2.667c4.891,0.621,8.745-2.247,10.654-3.667
		c1.414-1.052,3.618-2.981,5.494-6.167c2.271,0.199,5.755,0.182,9.655-1.167c2.186-0.756,5.842-2.073,8.823-5.667
		c2.254-2.717,3.143-5.554,3.496-7c0.426-1.743,0.509-3.254,0.499-4.333c1.555-0.047,5.93-0.392,9.822-3.667
		c1.348-1.134,5.768-5.253,5.494-11.5c-0.174-3.949-2.135-6.742-2.996-7.833c1.279-0.693,4.219-2.518,6.159-6.167
		c0.535-1.006,2.665-5.292,1.332-10.5c-0.542-2.118-1.479-3.694-2.164-4.667c0.813-0.828,2.012-2.259,2.83-4.333
		c0.49-1.242,1.935-5.486-0.167-9.833c-1.041-2.153-2.566-3.534-3.662-4.333c-0.778,1.794-1.94,4.346-3.496,7.333
		c-2.818,5.413-5.564,10.687-10.155,16c-5.047,5.841-9.981,9.018-15.648,12.667c-7.317,4.711-11.916,6.226-13.984,6.833
		c-4.735,1.391-7.973,1.485-8.823,1.5c-4.707,0.082-5.442-1.054-10.488-1.667c0,0-9.668-1.174-19.311,2.5
		c-3.057,1.165-5.283,2.502-5.826,2.833c-2.364,1.442-4.187,2.95-5.494,4.167c-1.572-0.918-3.894-2.192-6.825-3.5
		c-2.693-1.202-4.074-1.808-5.747-2.05c-1.477-0.214-5.753-0.834-8.837,1.949c-1.643,1.482-2.29,3.336-2.563,4.434
		c0.888,0.217,2.044,0.571,3.329,1.167c2.282,1.057,3.761,2.326,4.162,2.667c2.598,2.209,3.799,4.931,4.328,6.167
		c1.611,3.758,0.728,4.938,1.831,10.667c1.085,5.634,2.012,7.848,2.83,9.333c0.984,1.786,2.049,3.121,2.83,4
		c0.858,1.26,1.989,3.293,2.497,6c0.227,1.211,0.283,2.31,0.262,3.238l0,0c-0.927,0.022-2.024-0.034-3.234-0.262
		c-2.704-0.509-4.734-1.641-5.993-2.5c-0.878-0.782-2.212-1.849-3.995-2.833c-1.484-0.819-3.695-1.747-9.322-2.833
		c-5.722-1.105-6.901-0.221-10.654-1.833c-1.234-0.53-3.953-1.732-6.159-4.333c-0.34-0.401-1.607-1.882-2.663-4.167
		c-0.595-1.287-0.948-2.445-1.165-3.333c-1.097,0.273-2.949,0.921-4.429,2.566c-2.78,3.088-2.161,7.369-1.947,8.847
		c0.242,1.675,0.847,3.057,2.048,5.754c1.307,2.935,2.579,5.26,3.496,6.833c-1.216,1.308-2.721,3.133-4.162,5.5
		c-0.331,0.544-1.667,2.773-2.83,5.833c-3.67,9.654-2.497,19.333-2.497,19.333c0.612,5.052,1.746,5.787,1.665,10.5
		c-0.015,0.851-0.109,4.093-1.498,8.833c-0.607,2.07-2.12,6.674-6.825,14c-3.645,5.674-6.818,10.614-12.652,15.667
		c-5.307,4.596-10.574,7.345-15.981,10.167c-2.984,1.557-5.533,2.721-7.325,3.5c0.798,1.097,2.177,2.625,4.328,3.667
		C87.338,276.344,91.577,274.897,92.818,274.406z"/>
</g>
<g id="c8">
	<path fill="#353333" d="M282.794,283.466c0-6.956,0-13.913,0-20.869c-2.997-2.66-8.458-6.808-16.374-9.333
		c-6.497-2.073-12.176-2.265-15.886-2.095c-0.17,3.714,0.022,9.4,2.093,15.905c2.523,7.925,6.666,13.392,9.322,16.393
		C268.897,283.466,275.845,283.466,282.794,283.466L282.794,283.466z"/>
</g>
</svg>
