<?xml version="1.0" encoding="utf-8"?>
<!-- Generator: Adobe Illustrator 22.0.0, SVG Export Plug-In . SVG Version: 6.00 Build 0)  -->
<svg version="1.1" xmlns="http://www.w3.org/2000/svg" xmlns:xlink="http://www.w3.org/1999/xlink" x="0px" y="0px"
	 viewBox="0 0 283.5 283.5" enable-background="new 0 0 283.5 283.5" xml:space="preserve">
<g id="c1">
	<g>
		<path fill="#353333" d="M141.75,239.564C94.506,192.32,47.262,145.075,0.018,97.832c0,5.669,0,11.339,0,17.008
			c47.244,47.244,94.488,94.488,141.732,141.732c47.244-47.244,94.488-94.488,141.732-141.732c0-5.669,0-11.339,0-17.008
			C236.238,145.075,188.994,192.32,141.75,239.564z"/>
		<path fill="#353333" d="M256.553,283.465c8.976-8.976,17.953-17.953,26.929-26.929c0-5.67,0-11.339,0-17.008
			c-14.646,14.646-29.291,29.291-43.937,43.937H256.553z"/>
		<path fill="#353333" d="M0.018,256.535c8.976,8.976,17.953,17.953,26.929,26.929h17.008
			c-14.646-14.646-29.291-29.291-43.937-43.937C0.018,245.197,0.018,250.866,0.018,256.535z"/>
		<path fill="#353333" d="M256.47,0h-17.008c-32.598,32.598-65.197,65.197-97.795,97.795C109.069,65.197,76.47,32.598,43.872,0
			H26.864c38.268,38.268,76.535,76.536,114.803,114.803C179.935,76.536,218.203,38.268,256.47,0z"/>
		<path fill="#353333" d="M141.75,168.698C94.506,121.453,47.262,74.209,0.018,26.965c0,5.669,0,11.339,0,17.008
			c47.244,47.244,94.488,94.488,141.732,141.732c47.244-47.244,94.488-94.488,141.732-141.732c0-5.669,0-11.339,0-17.008
			C236.238,74.209,188.994,121.453,141.75,168.698z"/>
		<path fill="#353333" d="M185.333,0h-17.008c-8.976,8.976-17.953,17.953-26.929,26.929C132.419,17.953,123.443,8.976,114.466,0
			H97.459c14.646,14.646,29.291,29.291,43.937,43.937C156.041,29.291,170.687,14.646,185.333,0z"/>
		<path fill="#353333" d="M185.687,283.465c32.598-32.598,65.197-65.197,97.795-97.795c0-5.669,0-11.339,0-17.008
			c-38.268,38.268-76.535,76.535-114.803,114.803H185.687z"/>
		<path fill="#353333" d="M0.018,185.669c32.598,32.598,65.197,65.197,97.795,97.795h17.008
			C76.553,245.197,38.286,206.929,0.018,168.661C0.018,174.331,0.018,180,0.018,185.669z"/>
	</g>
</g>
<g id="c2">
	<rect id="_x3C_Slice_x3E__2_" x="212.277" y="133.135" fill="none" width="1.365" height="1.381"/>
	<rect id="_x3C_Slice_x3E__1_" x="212.259" y="133.117" fill="none" width="1.365" height="1.381"/>
	<rect id="_x3C_Slice_x3E__4_" x="212.277" y="132.219" fill="none" width="1.365" height="1.381"/>
	<rect id="_x3C_Slice_x3E__5_" x="212.277" y="133.135" fill="none" width="1.365" height="1.381"/>
	<rect id="_x3C_Slice_x3E__6_" x="212.277" y="133.135" fill="none" width="1.365" height="1.381"/>
	<rect id="_x3C_Slice_x3E__7_" x="212.277" y="133.135" fill="none" width="1.365" height="1.381"/>
	<g>
		<path fill="#DEDEDE" d="M168.667,0.018c-17.953,0-35.905,0-53.858,0c8.976,8.976,17.953,17.953,26.929,26.929
			C150.715,17.971,159.691,8.994,168.667,0.018z"/>
		<path fill="#DEDEDE" d="M0.33,115.49c-0.081,17.73-0.161,35.46-0.241,53.189c38.181,38.252,76.362,76.504,114.543,114.755
			c18.039,0.016,36.079,0.032,54.118,0.048c38.268-38.268,76.535-76.536,114.803-114.803c0-17.953,0-35.906,0-53.858
			c-47.244,47.244-94.488,94.488-141.732,141.732C94.657,209.532,47.494,162.511,0.33,115.49z"/>
		<path fill="#DEDEDE" d="M256.624,0.018c-38.268,38.268-76.535,76.535-114.803,114.803C103.553,76.553,65.286,38.285,27.018,0.018
			c-8.976,0-17.953,0-26.929,0c0,8.976,0,17.953,0,26.929c47.244,47.244,94.488,94.488,141.732,141.732
			c47.244-47.244,94.488-94.488,141.732-141.732c0-8.976,0-17.953,0-26.929C274.577,0.018,265.601,0.018,256.624,0.018z"/>
		<path fill="#DEDEDE" d="M0.089,283.482c8.976,0,17.953,0,26.929,0c-8.976-8.976-17.953-17.953-26.929-26.929
			C0.089,265.529,0.089,274.506,0.089,283.482z"/>
		<path fill="#DEDEDE" d="M283.553,283.482c0-8.976,0-17.953,0-26.929c-8.976,8.976-17.953,17.953-26.929,26.929
			C265.601,283.482,274.577,283.482,283.553,283.482z"/>
		<path fill="#DEDEDE" d="M0.089,239.545c14.646,14.646,29.291,29.291,43.937,43.937c17.953,0,35.906,0,53.858,0
			c-32.598-32.598-65.197-65.197-97.795-97.795C0.089,203.64,0.089,221.592,0.089,239.545z"/>
		<path fill="#DEDEDE" d="M239.262,0.018c-17.953,0-35.906,0-53.858,0c-14.646,14.646-29.291,29.291-43.937,43.937
			c-14.646-14.646-29.291-29.291-43.937-43.937c-17.953,0-35.905,0-53.858,0c32.598,32.598,65.197,65.197,97.795,97.795
			C174.065,65.215,206.663,32.616,239.262,0.018z"/>
		<path fill="#DEDEDE" d="M141.821,185.687C94.657,138.666,47.494,91.645,0.33,44.624c-0.081,17.73-0.161,35.46-0.241,53.189
			c47.244,47.244,94.488,94.488,141.732,141.732c47.244-47.244,94.488-94.488,141.732-141.732c0-17.953,0-35.906,0-53.858
			C236.309,91.199,189.065,138.443,141.821,185.687z"/>
		<path fill="#DEDEDE" d="M239.616,283.482c14.646-14.646,29.291-29.291,43.937-43.937c0-17.953,0-35.906,0-53.858
			c-32.598,32.598-65.197,65.197-97.795,97.795C203.711,283.482,221.664,283.482,239.616,283.482z"/>
	</g>
</g>
</svg>
