<?xml version="1.0" encoding="utf-8"?>
<!-- Generator: Adobe Illustrator 22.0.0, SVG Export Plug-In . SVG Version: 6.00 Build 0)  -->
<svg version="1.1" xmlns="http://www.w3.org/2000/svg" xmlns:xlink="http://www.w3.org/1999/xlink" x="0px" y="0px"
	 viewBox="0 0 283.5 283.5" enable-background="new 0 0 283.5 283.5" xml:space="preserve">
<g id="c3">
	<g>
		<polygon fill="#FFFFFF" stroke="#000000" stroke-width="3.3333" stroke-miterlimit="10" points="66.112,266.474 4.388,141.75 
			66.112,17.026 129.112,141.75 		"/>
		<polygon fill="#FFFFFF" stroke="#000000" stroke-width="3.3333" stroke-miterlimit="10" points="217.388,266.474 279.112,141.75 
			217.388,17.026 154.388,141.75 		"/>
	</g>
	<polyline fill="#DEDEDE" points="48.207,-0.139 0.018,96.239 0.018,186.947 48.207,283.325 235.293,283.325 283.482,186.947 
		283.482,96.239 235.293,-0.139 48.207,-0.139 	"/>
</g>
<g id="c7">
	<polygon fill="#353333" points="66.404,266.474 4.679,141.75 66.404,17.026 129.404,141.75 	"/>
	<polygon fill="#353333" points="217.096,266.474 278.821,141.75 217.096,17.026 154.096,141.75 	"/>
</g>
<g id="c4">
	<g>
		<polygon fill="#58585A" points="66.108,243.797 16.018,141.823 66.108,39.703 118.065,141.823 		"/>
		<polygon fill="#58585A" points="217.392,243.797 267.482,141.823 217.392,39.703 165.435,141.823 		"/>
	</g>
</g>
<g id="c5">
	<polygon fill="#353333" points="208.364,18.359 75.136,18.359 138.371,141.75 75.136,265.141 208.364,265.141 145.129,141.75 	"/>
</g>
<g id="c6">
	<g>
		<polygon fill="#58585A" points="141.75,125.75 191.356,27.955 92.144,27.955 		"/>
		<polygon fill="#58585A" points="141.75,157.878 191.356,255.673 92.144,255.673 		"/>
	</g>
</g>
<g id="c2">
	<g>
		<polygon fill="#353333" points="0.018,96.239 0.018,-0.139 48.207,-0.139 		"/>
		<polygon fill="#353333" points="283.482,96.239 283.482,-0.139 235.293,-0.139 		"/>
		<polygon fill="#353333" points="0.018,186.947 0.018,283.325 48.207,283.325 		"/>
		<polygon fill="#353333" points="283.482,186.947 283.482,283.325 235.293,283.325 		"/>
	</g>
</g>
<g id="c1">
	<g>
		<polygon fill="#58585A" points="0.018,73.719 0.018,0.018 36.868,0.018 		"/>
		<polygon fill="#58585A" points="283.482,73.719 283.482,0.018 246.632,0.018 		"/>
		<polygon fill="#58585A" points="0.018,209.781 0.018,283.482 36.868,283.482 		"/>
		<polygon fill="#58585A" points="283.482,209.781 283.482,283.482 246.632,283.482 		"/>
	</g>
</g>
<g id="Capa_1">
</g>
</svg>
