<?xml version="1.0" encoding="utf-8"?>
<!-- Generator: Adobe Illustrator 22.0.0, SVG Export Plug-In . SVG Version: 6.00 Build 0)  -->
<svg version="1.1" xmlns="http://www.w3.org/2000/svg" xmlns:xlink="http://www.w3.org/1999/xlink" x="0px" y="0px"
	 viewBox="0 0 283.5 283.5" enable-background="new 0 0 283.5 283.5" xml:space="preserve">
<g id="Capa_1">
</g>
<g id="c18">
	<path fill="#9D9FA2" d="M283.482,0.018c0,0-212.482,18.77-283.465,283.482h283.465V0.018z"/>
</g>
<g id="c13">
	<g>
		<polygon fill="#DEDEDE" points="99.25,0.018 103.749,82.75 161.167,71.25 180.216,28.917 173.249,0.018 		"/>
		<polygon fill="#DEDEDE" points="0.018,99.25 68.264,99.25 81.749,141.75 55.499,172.75 0.018,176.25 		"/>
	</g>
</g>
<g id="c11">
	<path fill="#DEDEDE" d="M5.499,179.207l50,51.043l15.25-45.98l46-34.02l29.354-11.205l13.603-39.795l34.391-33l43.322-13.5
		c0,0-14.67-12.677-17.17-12.339c-2.5,0.339-28.893-22.677-28.893-22.677l-2.562-17.717l-9.539,44.732l-27.005,28.5L92.664,93.995
		l-5.915,37.755l-28,38.5L5.499,179.207z"/>
</g>
<g id="c14">
	<path fill="#353333" d="M122.249,55.75c0.791,1.4,14.5,9.25,21.333-10.167c1.309-3.72,1.417-7.833-1.833-15.667
		c-3.85-9.282-27.126-13.042-27.126-13.042c0.25-8.625-8.307-16.857-8.307-16.857H0.018v106.299c0,0,8.232,8.557,16.857,8.307
		c0,0,3.759,23.275,13.042,27.126c7.833,3.249,11.947,3.142,15.667,1.833C65,136.749,57.15,123.04,55.75,122.249
		c-8.625-4.875-7.75,10.625-7.75,10.625s-10.875,8.375-16.125-0.625c-4.897-8.394-3.662-20.073,8.536-25.932
		c14.714-7.068,55.741,14.186,20.714,55.432C42,184.27,0.018,166.553,0.018,166.553v17.717c2.55,0.064,85.566,16.648,99.232-85.02
		c101.667-13.667,85.084-96.683,85.02-99.232h-17.717c0,0,17.717,41.982-4.804,61.107c-41.246,35.027-62.5-6-55.432-20.714
		c5.86-12.199,17.538-13.433,25.932-8.536c9,5.25,0.625,16.125,0.625,16.125S117.374,47.125,122.249,55.75z"/>
</g>
<g id="c16">
	<path fill="#9D9FA2" d="M0,93.198c0,0,30.456,15.288,44.732-3.644c11.5-15.25,34.875-8.875,34.875-8.875
		s-6.375-23.375,8.875-34.875c18.932-14.277,3.644-44.732,3.644-44.732H0V93.198z"/>
</g>
<g id="c17">
	<path fill="#353333" d="M28.346,0H0v28.346c36.482,8.135,11.482,38.385,11.482,38.385c17.583,5.5,23.951-5.75,23.951-5.75
		s17.549,11.751,27.299,1.75c10-9.75-1.75-27.299-1.75-27.299s11.25-6.367,5.75-23.951C66.732,11.482,36.482,36.482,28.346,0z"/>
</g>
<g id="c10">
	<g>
		<path fill="#58585A" d="M0.018,283.482c27.397,0,49.606-22.21,49.606-49.606S27.415,184.27,0.018,184.27V283.482z"/>
		<path fill="#58585A" d="M184.27,0.018c0,27.397,22.21,49.606,49.606,49.606c27.397,0,49.606-22.209,49.606-49.606H184.27z"/>
	</g>
</g>
<g id="c9">
	<g>
		<path fill="#DEDEDE" d="M0.018,273.654c22.309,0,40.394-18.085,40.394-40.394s-18.085-40.394-40.394-40.394V273.654z"/>
		<path fill="#DEDEDE" d="M194.097,0.018c0,22.309,18.085,40.394,40.394,40.394s40.394-18.085,40.394-40.394H194.097z"/>
	</g>
</g>
<g id="c15">
	<g>
		<path fill="#353333" d="M0.018,269.673c0,0,7.316,0,5.066-7.416c0,0,5.536-1.211,5.833-7.167c0.25-5-7-6.907-6.25-11.833
			c1.135-7.454,6.181-3.645,7.208-2.125c1.159,1.716,2.372,5.426,8.34,5.909c6.285,0.508,7.202-6.954,7.202-6.954
			s7.735,2.303,8.034-5.847c-0.299-8.15-8.034-5.847-8.034-5.847s-0.917-7.462-7.202-6.954c-5.967,0.482-7.181,4.193-8.34,5.909
			c-1.027,1.52-6.074,5.329-7.208-2.125c-0.75-4.927,6.5-6.833,6.25-11.833c-0.298-5.955-5.833-7.167-5.833-7.167
			c2.25-7.416-5.066-7.416-5.066-7.416l0,35.433L0.018,269.673z"/>
		<path fill="#353333" d="M199.133,1.072c0,0,0,7.316,7.416,5.066c0,0,1.211,5.536,7.167,5.833c5,0.25,6.907-7,11.833-6.25
			c7.454,1.135,3.645,6.181,2.125,7.208c-1.716,1.159-5.426,2.372-5.909,8.34c-0.508,6.285,6.954,7.202,6.954,7.202
			s-2.303,7.735,5.847,8.034c8.15-0.299,5.847-8.034,5.847-8.034s7.462-0.917,6.954-7.202c-0.482-5.967-4.193-7.181-5.909-8.34
			c-1.52-1.027-5.329-6.074,2.125-7.208c4.927-0.75,6.833,6.5,11.833,6.25c5.955-0.298,7.167-5.833,7.167-5.833
			c7.416,2.25,7.416-5.066,7.416-5.066l-35.433,0L199.133,1.072z"/>
	</g>
</g>
<g id="c12">
	<polygon fill="#9D9FA2" points="143.564,141.75 152.249,192.867 187.879,216.868 216.868,216.868 213.916,181.25 175.916,143.583 	
		"/>
</g>
<g id="c4">
	<path fill="#353333" d="M263.583,51.25c-6.48,1.237-12.5-2.333-29.707-1.626c-72.286,2.972-96.89,83.602-97.728,86.422
		l-0.003-0.003c0,0-83.476,24.178-86.501,97.751c-0.707,17.207,2.863,23.227,1.626,29.707c-2.059,10.784-8.75,13.25-8.75,13.25
		c21.667,1.239,20.875-17.333,20.875-17.333c40.373,1.444,25.438-28.103,26.125-35.75c0.19-2.118,5-6.881,5-6.881
		c-11.167-1-10.5,7.465-10.5,7.465c-4.5-2.417-9.335,3.403-9.335,3.403c10.5-4.583,15.335,23.764-4.165,20.764
		c-10.356-1.593-12.625-19.375-8.625-29.625c20.869-53.476,70.125-69.875,70.125-69.875c7.045,75.5,77.073,80.155,77.073,80.155
		l11.618-8.363l0.039,0.039l8.405-11.677c0,0-4.655-70.028-80.155-77.073c0,0,16.399-49.256,69.875-70.125
		c10.25-4,28.032-1.731,29.625,8.625c3,19.5-24.648,13.862-20.064,3.362c0,0-6.519,5.638-4.102,10.138c0,0-8.465-0.667-7.465,10.5
		c0,0,5.579-3.796,7.733-3.804c7.678-0.031,36.583,10.083,34.898-27.321c0,0,18.573,0.792,17.333-20.875
		C276.833,42.5,274.367,49.191,263.583,51.25z M193.083,163.75c15.338,17.453,19.109,46.814,19.324,48.581
		c-1.044-0.124-30.952-3.789-48.636-19.33c-17.474-15.357-17.671-45.189-17.667-46.919
		C146.939,146.077,177.481,145.997,193.083,163.75z"/>
</g>
<g id="c5">
	<g>
		<path fill="#58585A" d="M191.356,118c0,0-6.607,0-1.607,9.5s14.019,18.362,18,19.661c0.503,0.164,2.114,0,2.114,0
			c1.763,0,3.158-1.494,3.036-3.253l-0.494-7.158c0,0,8.724-14.901,23.843-2.75s15,29,15,29s-0.398,19.87-1.074,22.31
			c-0.676,2.44-8.504,16.059-8.504,16.059l8.504,1.631l13.324-9l-13.324-64.75c0,0-8.824-9.007-19.426-9.75
			c-8.502-0.596-10.233-0.316-12.5,0.5c-3.65,1.314-10.111,6.029-14.103,6.471C200.496,126.876,194.713,125.375,191.356,118z"/>
		<path fill="#58585A" d="M202.087,240.297c0,0-10.462,6.453-19.712,7.578s-21.625-0.445-23.875-1.597s-17.22-1.698-24.75-19.653
			c-1.846-4.401,1-9.757,1-9.757s1.035-8.378,14.5-7.795c2.5,0.108-1.125-6.073-1.125-6.073s-12.515-14.929-15.5-15.875
			c-3.064-0.971-5.885,0.111-8.774,0.379c-0.783,0.073-1.075,1.073-0.448,1.547c1.781,1.348,4.237,3.761,5.222,7.323
			c1.625,5.875-0.25,8.5-0.25,8.5s-5.814,4.904-6.314,13.904c-0.458,8.241,0.515,11.195,1.689,14.471c1.16,3.236,7,11.833,7,11.833
			l58.375,13.292l8.875-1.5L202.087,240.297z"/>
	</g>
</g>
<g id="c8">
	<g>
		<path fill="#353333" d="M282.833,79.303c0,0-6.483-1.499-12.983,21.501c-1.776,6.283-6.606-8.306-9.5-3
			c-2.25,4.125-1.517,24.092-1.517,24.092c-2.233,2.741-5.9-4.925-10.39-2.893l1.082,10.635
			c-3.898,2.333,12.786,65.067,4.741,71.277l28.566-5.61V79.303z"/>
		<path fill="#353333" d="M77.6,284.536c0,0,0.302-8.893,23.302-15.393c6.283-1.776-7.607-7.112-2.301-10.006
			c4.125-2.25,24.333-0.834,24.333-0.834c2.741-2.233-5.866-6.482-3.834-10.972l11-1.194c2.333-3.898,62.901,17.878,69.111,9.833
			l-5.61,28.566H77.6z"/>
	</g>
</g>
<g id="c7">
	<g>
		<path fill="#9D9FA2" d="M283.482,100.304c0,0-6.9,20.667-6.233,32c0.667,11.333-5.924-11.765-7.833-10.333
			c-2,1.5,4.5,27.667,4.833,29c0.333,1.333-7.167-1.667-7.962-1.667c0,0,12.064,42.385,7.337,45.625
			c-4.728,3.239,9.858-1.125,9.858-1.125V100.304z"/>
		<path fill="#9D9FA2" d="M99.25,284.536c0,0,12.499-11.232,35.499-8.325c11.263,1.424-10.432-8.332-9-10.241
			c1.5-2,25.906,6.126,27.24,6.459c1.333,0.333-1.336-5.471-1.406-6.459c-0.458-6.417,39.427,10.561,42.667,5.833
			c3.24-4.728-1.499,12.732-1.499,12.732H99.25z"/>
	</g>
</g>
<g id="c1">
	<path fill="#58585A" d="M283.482,191.374c-50.88,0-92.126,41.246-92.126,92.126h92.126V191.374z"/>
</g>
<g id="c2">
	<path fill="#353333" d="M283.5,199.878c-46.183,0-83.622,37.439-83.622,83.622H283.5V199.878z"/>
</g>
<g id="c6">
	<path fill="#DEDEDE" d="M283.5,209.091c-41.095,0-74.409,33.314-74.409,74.409H283.5V209.091z"/>
</g>
<g id="c3">
	<path fill="#353333" d="M277.6,232.268c0,0-5.875-0.292-7.833,1.375c0,0,7.862,2.869,8.515,15.03
		c0.36,6.72-10.282,12.199-14.765,2.345c-3.543-7.789-2.417-13.581-2.417-13.581l-6.833,4.252c0,0-5.625-9.046-17.87-5.292
		c-3.754,12.245,5.292,17.87,5.292,17.87l-4.252,6.833c0,0,5.792-1.126,13.581,2.417c9.854,4.483,4.375,15.125-2.345,14.765
		c-12.161-0.652-15.03-8.515-15.03-8.515c-1.667,1.958-1.375,7.833-1.375,7.833c-15.667-1.667-15.382,5.9-15.382,5.9H283.5v-66.614
		C283.5,216.886,275.934,216.601,277.6,232.268z"/>
</g>
</svg>
