<?xml version="1.0" encoding="utf-8"?>
<!-- Generator: Adobe Illustrator 22.0.0, SVG Export Plug-In . SVG Version: 6.00 Build 0)  -->
<svg version="1.1" xmlns="http://www.w3.org/2000/svg" xmlns:xlink="http://www.w3.org/1999/xlink" x="0px" y="0px"
	 viewBox="0 0 283.5 283.5" enable-background="new 0 0 283.5 283.5" xml:space="preserve">
<g id="Capa_1">
</g>
<g id="c8">
	<rect x="0.018" y="0.018" fill="#DEDEDE" width="283.465" height="283.465"/>
</g>
<g id="c1">
	<g>
		<path fill="#353333" d="M116.695,46.541C77.803,85.434,38.91,124.326,0.018,163.218c0,16.703,0,33.407,0,50.11
			C47.262,166.084,94.506,118.84,141.75,71.596C133.398,63.244,125.047,54.893,116.695,46.541z"/>
		<path fill="#353333" d="M141.75,21.486c8.352,8.352,16.703,16.703,25.055,25.055c15.508-15.508,31.016-31.016,46.523-46.523
			c-16.703,0-33.407,0-50.11,0C156.062,7.174,148.906,14.33,141.75,21.486z"/>
		<path fill="#353333" d="M166.805,236.959c38.892-38.892,77.785-77.785,116.677-116.677c0-16.703,0-33.407,0-50.11
			c-47.244,47.244-94.488,94.488-141.732,141.732C150.102,220.256,158.453,228.607,166.805,236.959z"/>
		<path fill="#353333" d="M70.172,283.482c16.703,0,33.407,0,50.11,0c7.156-7.156,14.312-14.312,21.468-21.468
			c-8.295-8.336-16.59-16.672-24.884-25.008C101.301,252.498,85.736,267.99,70.172,283.482z"/>
	</g>
</g>
<g id="c6">
	<g>
		<path fill="#353333" d="M253.485,228.357c10.883,1.861,20.966,2.864,30.015,3.333c0,17.27,0,34.54,0,51.81
			c-17.27,0-34.54,0-51.81,0c-0.47-9.049-1.472-19.132-3.333-30.015c-2.118-12.387-4.947-23.461-7.936-33.064
			C230.025,223.409,241.098,226.238,253.485,228.357z"/>
		<path fill="#353333" d="M55.143,30.015C53.282,19.132,52.28,9.049,51.81,0C34.54,0,17.27,0,0,0c0,17.27,0,34.54,0,51.81
			c9.049,0.47,19.132,1.472,30.015,3.333c12.387,2.118,23.461,4.947,33.064,7.936C60.091,53.475,57.262,42.402,55.143,30.015z"/>
	</g>
</g>
<g id="c11">
	<g>
		<path fill="#6A6967" d="M70.172,0.018c16.703,0,33.407,0,50.11,0c38.892,38.892,77.785,77.785,116.677,116.677
			c-8.352,8.352-16.703,16.703-25.055,25.055C164.66,94.506,117.416,47.262,70.172,0.018z"/>
		<path fill="#6A6967" d="M0.018,70.172c0,16.703,0,33.407,0,50.11c7.156,7.156,14.312,14.312,21.468,21.468
			c8.336-8.295,16.672-16.59,25.008-24.884C31.002,101.301,15.51,85.736,0.018,70.172z"/>
		<path fill="#6A6967" d="M213.328,283.482c-16.703,0-33.407,0-50.11,0c-38.892-38.892-77.785-77.785-116.677-116.677
			c8.352-8.352,16.703-16.703,25.055-25.055C118.84,188.994,166.084,236.238,213.328,283.482z"/>
		<path fill="#6A6967" d="M283.482,213.328c0-16.703,0-33.407,0-50.11c-7.156-7.156-14.312-14.312-21.468-21.468
			c-8.336,8.295-16.672,16.59-25.008,24.884C252.498,182.199,267.99,197.764,283.482,213.328z"/>
	</g>
</g>
<g id="c10">
	<g>
		<path fill="#6A6967" d="M0.018,245.116c0,12.789,0,25.578,0,38.367c12.805,0,25.611,0,38.416,0c0-4.413,0-8.826,0-13.238
			c-8.376-8.376-16.752-16.752-25.128-25.128C8.876,245.116,4.447,245.116,0.018,245.116z"/>
		<path fill="#6A6967" d="M245.116,0.018c12.789,0,25.578,0,38.367,0c0,12.805,0,25.611,0,38.416c-4.413,0-8.826,0-13.238,0
			c-8.376-8.376-16.752-16.752-25.128-25.128C245.116,8.876,245.116,4.447,245.116,0.018z"/>
	</g>
</g>
<g id="c9">
	<g>
		<path fill="#9D9FA2" d="M73.637,209.865c0.003-0.004,0.007-0.009,0.011-0.013c-0.004,0-0.007,0-0.011,0c0-0.004,0-0.007,0-0.011
			c-0.007,0.003-0.013,0.007-0.02,0.01c-8.02-0.349-16.04-0.698-24.059-1.048c-12.104,12.104-24.208,24.208-36.313,36.313l0,0
			c8.376,8.376,16.752,16.752,25.128,25.128c12.104-12.104,24.208-24.208,36.313-36.312
			C74.336,225.909,73.987,217.887,73.637,209.865z"/>
		<path fill="#9D9FA2" d="M209.865,73.637c-0.004,0.003-0.009,0.007-0.013,0.011c0-0.004,0-0.007,0-0.011c-0.004,0-0.007,0-0.011,0
			c0.003-0.007,0.007-0.013,0.01-0.02c-0.349-8.02-0.698-16.04-1.048-24.059c12.104-12.104,24.208-24.208,36.313-36.313l0,0
			c8.376,8.376,16.752,16.752,25.128,25.128c-12.104,12.104-24.208,24.208-36.312,36.313
			C225.909,74.336,217.887,73.987,209.865,73.637z"/>
	</g>
</g>
</svg>
