<?xml version="1.0" encoding="utf-8"?>
<!-- Generator: Adobe Illustrator 22.0.0, SVG Export Plug-In . SVG Version: 6.00 Build 0)  -->
<svg version="1.1" xmlns="http://www.w3.org/2000/svg" xmlns:xlink="http://www.w3.org/1999/xlink" x="0px" y="0px"
	 viewBox="0 0 283.5 283.5" enable-background="new 0 0 283.5 283.5" xml:space="preserve">
<g id="c1">
	<rect x="0.178" y="0.341" fill="#DEDEDE" width="283.304" height="283.465"/>
</g>
<g id="c3">
	<g>
		<path fill="#9D9FA2" d="M25.149,283.465c5.905-5.959,11.811-11.918,17.716-17.877c-8.319,0.038-16.638,0.075-24.957,0.113
			c-0.035-8.345-0.071-16.69-0.106-25.035c-5.872,5.945-11.744,11.89-17.616,17.835c-0.014,8.321-0.028,16.642-0.042,24.964H25.149z
			"/>
		<path fill="#9D9FA2" d="M258.47,283.465c-5.905-5.959-11.811-11.918-17.716-17.877c8.319,0.038,16.638,0.075,24.957,0.113
			c0.035-8.345,0.071-16.69,0.106-25.035c5.872,5.945,11.744,11.89,17.616,17.835c0.014,8.321,0.028,16.642,0.042,24.964H258.47z"/>
		<path fill="#9D9FA2" d="M25.022,0.109c5.905,5.959,11.811,11.918,17.716,17.877c-8.319-0.038-16.638-0.075-24.957-0.113
			c-0.035,8.345-0.071,16.69-0.106,25.035c-5.872-5.945-11.744-11.89-17.616-17.835C0.045,16.751,0.032,8.43,0.018,0.109H25.022z"/>
		<path fill="#9D9FA2" d="M258.343,0.109c-5.905,5.959-11.811,11.918-17.716,17.877c8.319-0.038,16.638-0.075,24.957-0.113
			c0.035,8.345,0.071,16.69,0.106,25.035c5.872-5.945,11.744-11.89,17.616-17.835c0.014-8.321,0.028-16.642,0.042-24.964
			L258.343,0.109z"/>
	</g>
</g>
<g id="c2">
	<g>
		<path fill="#353333" d="M265.78,7.263v10.47h10.503c0.242,0.692,0.825,2.045,2.162,3.203c2.025,1.756,4.36,1.834,5.02,1.833
			c-0.021-5.222-0.043-10.444-0.064-15.667v-7h-17.62v0.02c-1.655-0.007-3.31-0.014-4.965-0.02c-0.001,0.66,0.078,2.996,1.832,5.023
			C263.771,6.423,265.072,7.008,265.78,7.263z"/>
		<path fill="#353333" d="M7.275,17.647h10.503V7.177c0.709-0.255,2.009-0.84,3.133-2.137c1.755-2.026,1.833-4.362,1.832-5.023
			c-1.655,0.007-3.31,0.014-4.965,0.021V0.017H0.157v7c-0.021,5.222-0.043,10.445-0.064,15.667c0.66,0.001,2.995-0.078,5.02-1.833
			C6.449,19.692,7.032,18.339,7.275,17.647z"/>
		<path fill="#353333" d="M276.275,265.748h-10.503v10.47c-0.709,0.256-2.009,0.84-3.133,2.137
			c-1.755,2.026-1.833,4.362-1.832,5.023c1.655-0.007,3.31-0.013,4.965-0.02v0.02h17.62v-7c0.021-5.222,0.043-10.445,0.064-15.667
			c-0.66-0.001-2.995,0.078-5.02,1.833C277.101,263.703,276.518,265.056,276.275,265.748z"/>
		<path fill="#353333" d="M17.769,276.305v-10.47H7.267c-0.242-0.692-0.825-2.045-2.162-3.203c-2.025-1.756-4.36-1.834-5.02-1.833
			c0.022,5.222,0.043,10.445,0.064,15.667v7h17.62v-0.021c1.655,0.007,3.31,0.014,4.965,0.021c0.001-0.66-0.078-2.996-1.832-5.023
			C19.779,277.145,18.478,276.56,17.769,276.305z"/>
	</g>
</g>
<g id="c4">
	<g>
		<g>
			<path fill="#6A6967" d="M265.582,43.36c5.955-6.032,11.911-12.065,17.866-18.097c0,12.909,0,25.819,0,38.728
				c-1.803-1.754-3.607-3.509-5.41-5.263c-2.194,0.239-4.389,0.477-6.583,0.716c-0.825-0.083-2.058-0.34-3.248-1.167
				c-2.24-1.555-2.636-4.341-3.082-7.167c-0.235-1.49-0.429-3.69-0.104-6.385C265.208,44.27,265.395,43.815,265.582,43.36z"/>
			<path fill="#6A6967" d="M265.71,17.961c-0.052,8.479-0.104,16.958-0.156,25.437c-0.189,0.454-0.379,0.908-0.568,1.362
				c-1.675,2.136-3.367,3.554-4.586,4.441c-2.313,1.683-4.561,3.372-7.244,2.887c-1.425-0.258-2.479-0.948-3.121-1.473
				c-1.383-1.721-2.766-3.443-4.149-5.164c-2.515-0.035-5.03-0.071-7.545-0.106c-0.035-2.516-0.071-5.033-0.106-7.549
				c-1.72-1.384-3.441-2.768-5.161-4.151c-0.525-0.643-1.215-1.697-1.472-3.123c-0.485-2.685,1.204-4.934,2.886-7.248
				c0.887-1.22,2.304-2.913,4.439-4.589c0.454-0.189,0.908-0.379,1.361-0.568C248.761,18.065,257.235,18.013,265.71,17.961z"/>
			<path fill="#6A6967" d="M258.572,0.169c-5.962,5.976-11.925,11.952-17.887,17.929c-1.898,0.498-3.487,0.508-4.565,0.426
				c-1.696-0.13-5.284-0.375-7.163-3.083c-0.826-1.191-1.083-2.424-1.166-3.25c0.239-2.196,0.477-4.391,0.716-6.587
				c-1.753-1.804-3.507-3.609-5.26-5.413C235.021,0.183,246.796,0.176,258.572,0.169z"/>
		</g>
		<g>
			<path fill="#6A6967" d="M18.011,43.273C12.055,37.241,6.1,31.208,0.145,25.176c0,12.909,0,25.819,0,38.728
				c1.803-1.754,3.607-3.509,5.41-5.263c2.194,0.239,4.389,0.477,6.583,0.716c0.825-0.083,2.058-0.34,3.248-1.167
				c2.24-1.555,2.636-4.341,3.082-7.167c0.235-1.49,0.429-3.69,0.104-6.385C18.385,44.183,18.198,43.728,18.011,43.273z"/>
			<path fill="#6A6967" d="M17.883,17.874c0.052,8.479,0.104,16.958,0.156,25.437c0.189,0.454,0.379,0.908,0.568,1.362
				c1.675,2.136,3.367,3.554,4.586,4.441c2.313,1.683,4.561,3.372,7.244,2.887c1.425-0.258,2.479-0.948,3.121-1.473
				c1.383-1.721,2.766-3.443,4.149-5.164c2.515-0.035,5.03-0.071,7.545-0.106c0.035-2.516,0.071-5.033,0.106-7.549
				c1.72-1.384,3.441-2.768,5.161-4.151c0.525-0.643,1.215-1.697,1.472-3.123c0.485-2.685-1.204-4.934-2.886-7.248
				c-0.887-1.22-2.304-2.913-4.439-4.589c-0.454-0.189-0.908-0.379-1.361-0.568C34.832,17.978,26.358,17.926,17.883,17.874z"/>
			<path fill="#6A6967" d="M25.021,0.083c5.962,5.976,11.925,11.952,17.887,17.929c1.898,0.498,3.487,0.508,4.565,0.426
				c1.696-0.13,5.284-0.375,7.163-3.083c0.826-1.191,1.083-2.424,1.166-3.25c-0.239-2.196-0.477-4.391-0.716-6.587
				c1.753-1.804,3.507-3.609,5.26-5.413C48.572,0.097,36.796,0.09,25.021,0.083z"/>
		</g>
		<g>
			<path fill="#6A6967" d="M265.574,240.122c5.955,6.032,11.911,12.065,17.866,18.097c0-12.909,0-25.819,0-38.728
				c-1.803,1.754-3.607,3.509-5.41,5.263c-2.194-0.239-4.389-0.477-6.583-0.716c-0.825,0.083-2.058,0.34-3.248,1.167
				c-2.24,1.555-2.636,4.341-3.082,7.167c-0.235,1.49-0.429,3.69-0.104,6.385C265.2,239.211,265.387,239.667,265.574,240.122z"/>
			<path fill="#6A6967" d="M265.702,265.521c-0.052-8.479-0.104-16.958-0.156-25.437c-0.189-0.454-0.379-0.908-0.568-1.362
				c-1.675-2.136-3.367-3.554-4.586-4.441c-2.313-1.683-4.561-3.372-7.244-2.887c-1.425,0.258-2.479,0.948-3.121,1.473
				c-1.383,1.721-2.766,3.443-4.149,5.164c-2.515,0.035-5.03,0.071-7.545,0.106c-0.035,2.516-0.071,5.033-0.106,7.549
				c-1.72,1.384-3.441,2.768-5.161,4.151c-0.525,0.643-1.215,1.697-1.472,3.123c-0.485,2.685,1.204,4.934,2.886,7.248
				c0.887,1.22,2.304,2.913,4.439,4.589c0.454,0.189,0.908,0.379,1.361,0.568C248.753,265.417,257.227,265.469,265.702,265.521z"/>
			<path fill="#6A6967" d="M258.564,283.312c-5.962-5.976-11.925-11.952-17.887-17.929c-1.898-0.498-3.487-0.508-4.565-0.426
				c-1.696,0.13-5.284,0.375-7.163,3.083c-0.826,1.191-1.083,2.424-1.166,3.25c0.239,2.196,0.477,4.391,0.716,6.587
				c-1.753,1.804-3.507,3.609-5.26,5.413C235.014,283.298,246.789,283.305,258.564,283.312z"/>
		</g>
		<g>
			<path fill="#6A6967" d="M18.003,240.208c-5.955,6.032-11.911,12.065-17.866,18.097c0-12.909,0-25.819,0-38.728
				c1.803,1.754,3.607,3.509,5.41,5.263c2.194-0.239,4.389-0.477,6.583-0.716c0.825,0.083,2.058,0.34,3.248,1.167
				c2.24,1.555,2.636,4.341,3.082,7.167c0.235,1.49,0.429,3.69,0.104,6.385C18.377,239.298,18.19,239.753,18.003,240.208z"/>
			<path fill="#6A6967" d="M17.876,265.607c0.052-8.479,0.104-16.958,0.156-25.437c0.189-0.454,0.379-0.908,0.568-1.362
				c1.675-2.136,3.367-3.554,4.586-4.441c2.313-1.683,4.561-3.372,7.244-2.887c1.425,0.258,2.479,0.948,3.121,1.473
				c1.383,1.721,2.766,3.443,4.149,5.164c2.515,0.035,5.03,0.071,7.545,0.106c0.035,2.516,0.071,5.033,0.106,7.549
				c1.72,1.384,3.441,2.768,5.161,4.151c0.525,0.643,1.215,1.697,1.472,3.123c0.485,2.685-1.204,4.934-2.886,7.248
				c-0.887,1.22-2.304,2.913-4.439,4.589c-0.454,0.189-0.908,0.379-1.361,0.568C34.824,265.504,26.35,265.556,17.876,265.607z"/>
			<path fill="#6A6967" d="M25.014,283.399c5.962-5.976,11.925-11.952,17.887-17.929c1.898-0.498,3.487-0.508,4.565-0.426
				c1.696,0.13,5.284,0.375,7.163,3.083c0.826,1.191,1.083,2.424,1.166,3.25c-0.239,2.196-0.477,4.391-0.716,6.587
				c1.753,1.804,3.507,3.609,5.26,5.413C48.564,283.385,36.789,283.392,25.014,283.399z"/>
		</g>
	</g>
</g>
<g id="c6">
	<g>
		<path fill="#9D9FA2" d="M42.923,123.814c-8.319,0.038-16.638,0.075-24.957,0.113c-0.035-8.345-0.071-16.69-0.106-25.035
			c-5.872,5.945-11.744,11.89-17.616,17.835c-0.028,16.672-0.056,33.344-0.083,50.016c5.9,5.916,11.799,11.831,17.699,17.747
			c0.035-8.345,0.071-16.69,0.106-25.035c8.319,0.038,16.638,0.075,24.957,0.113c-5.905-5.959-11.811-11.918-17.716-17.877
			C31.112,135.731,37.017,129.773,42.923,123.814z"/>
		<path fill="#9D9FA2" d="M240.702,123.769c8.319,0.038,16.638,0.075,24.957,0.113c0.035-8.345,0.071-16.69,0.106-25.035
			c5.872,5.945,11.744,11.89,17.616,17.835c0.028,16.672,0.056,33.344,0.083,50.016c-5.9,5.916-11.799,11.831-17.699,17.747
			c-0.035-8.345-0.071-16.69-0.106-25.035c-8.319,0.038-16.638,0.075-24.957,0.113c5.905-5.959,11.811-11.918,17.716-17.877
			C252.513,135.687,246.608,129.728,240.702,123.769z"/>
		<path fill="#9D9FA2" d="M116.698,283.297c-0.056,0.056-0.111,0.112-0.167,0.168h50.337c-0.015-0.015-0.029-0.03-0.044-0.044
			c5.905-5.959,11.811-11.918,17.716-17.877c-8.319,0.038-16.638,0.075-24.957,0.113c-0.035-8.345-0.071-16.69-0.106-25.035
			c-5.907,5.919-11.814,11.838-17.722,17.757c-5.959-5.912-11.918-11.824-17.877-17.736c0.038,8.324,0.075,16.647,0.113,24.971
			c-8.34,0.035-16.68,0.071-25.021,0.106C104.881,271.579,110.79,277.438,116.698,283.297z"/>
		<path fill="#9D9FA2" d="M116.754,0.168c-0.056-0.056-0.111-0.112-0.167-0.168h50.337c-0.015,0.015-0.029,0.03-0.044,0.044
			c5.905,5.959,11.811,11.918,17.716,17.877c-8.319-0.038-16.638-0.075-24.957-0.113c-0.035,8.345-0.071,16.69-0.106,25.035
			c-5.907-5.919-11.814-11.838-17.722-17.757c-5.959,5.912-11.918,11.824-17.877,17.736c0.038-8.324,0.075-16.647,0.113-24.971
			c-8.34-0.035-16.68-0.071-25.021-0.106C104.937,11.886,110.846,6.027,116.754,0.168z"/>
	</g>
</g>
<g id="c5">
	<g>
		<path fill="#353333" d="M121.32,4.989c1.129,1.305,2.442,1.888,3.133,2.137v10.47h10.503c0.24,0.688,0.821,2.045,2.162,3.203
			c2.029,1.753,4.368,1.816,5.02,1.811c0.686-0.013,2.988-0.144,4.99-1.898c1.324-1.16,1.912-2.501,2.162-3.203h10.503V7.039
			c0.709-0.256,2.009-0.84,3.133-2.137c1.565-1.808,1.796-3.858,1.827-4.749h-45.257C119.513,0.994,119.705,3.122,121.32,4.989z"/>
		<path fill="#353333" d="M18.116,134.695v-10.47H7.614c-0.125-0.351-0.334-0.862-0.678-1.43c0,0-0.603-0.993-1.484-1.773
			c-1.865-1.653-4.626-1.888-5.033-1.918c-0.025,15.125-0.05,30.25-0.076,45.375c0.639,0.014,3.037-0.01,5.105-1.791
			c1.343-1.156,1.923-2.515,2.162-3.203h10.503v-10.47c0.709-0.255,2.009-0.84,3.133-2.137c1.753-2.025,1.833-4.359,1.832-5.021
			l0.004-0.002c0.001-0.66-0.078-2.996-1.832-5.023C20.125,135.535,18.825,134.951,18.116,134.695z"/>
		<path fill="#353333" d="M278.53,120.977c-0.88,0.78-1.484,1.773-1.484,1.773c-0.344,0.568-0.553,1.079-0.678,1.43h-10.503v10.47
			c-0.709,0.255-2.009,0.84-3.133,2.137c-1.755,2.026-1.833,4.362-1.832,5.023c0.001,0,0.002,0.001,0.002,0.001
			c0.001,0.663,0.08,2.997,1.834,5.022c1.123,1.297,2.424,1.882,3.133,2.137v10.47h10.503c0.239,0.688,0.819,2.047,2.162,3.203
			c2.069,1.781,4.466,1.804,5.105,1.791c-0.025-15.125-0.05-30.25-0.076-45.375C283.156,119.09,280.395,119.324,278.53,120.977z"/>
		<path fill="#353333" d="M159.735,276.425v-10.47h-10.503c-0.25-0.702-0.838-2.043-2.162-3.203
			c-2.002-1.754-4.304-1.885-4.99-1.898c-0.651-0.004-2.991,0.059-5.02,1.811c-1.341,1.158-1.922,2.515-2.162,3.203h-10.503v10.47
			c-0.69,0.249-2.003,0.833-3.133,2.137c-1.615,1.866-1.807,3.995-1.826,4.836h45.257c-0.031-0.891-0.262-2.942-1.827-4.749
			C161.744,277.265,160.443,276.681,159.735,276.425z"/>
	</g>
</g>
<g id="c7">
	<g>
		<g>
			<path fill="#6A6967" d="M18.106,123.948c0.052-8.479,0.104-16.958,0.156-25.437c0.189-0.454,0.379-0.908,0.568-1.362
				c1.675-2.136,3.367-3.554,4.586-4.441c2.313-1.683,4.561-3.372,7.244-2.887c1.425,0.258,2.479,0.948,3.121,1.473
				c1.383,1.721,2.766,3.443,4.149,5.164c2.515,0.035,5.03,0.071,7.545,0.106c0.035,2.516,0.071,5.033,0.106,7.549
				c1.72,1.384,3.441,2.768,5.161,4.151c0.525,0.643,1.215,1.697,1.472,3.123c0.485,2.685-1.204,4.934-2.886,7.248
				c-0.887,1.22-2.304,2.913-4.439,4.589c-0.454,0.189-0.908,0.379-1.361,0.568C35.055,123.844,26.581,123.896,18.106,123.948z"/>
			<path fill="#6A6967" d="M17.925,159.489c0.052,8.479,0.104,16.958,0.156,25.437c0.189,0.454,0.379,0.908,0.568,1.362
				c1.675,2.136,3.367,3.554,4.586,4.441c2.313,1.683,4.561,3.372,7.244,2.887c1.425-0.258,2.479-0.948,3.121-1.473
				c1.383-1.721,2.766-3.443,4.149-5.164c2.515-0.035,5.03-0.071,7.545-0.106c0.035-2.516,0.071-5.033,0.106-7.549
				c1.72-1.384,3.441-2.768,5.161-4.151c0.525-0.643,1.215-1.697,1.472-3.123c0.485-2.685-1.204-4.934-2.886-7.248
				c-0.887-1.22-2.304-2.913-4.439-4.589c-0.454-0.189-0.908-0.379-1.361-0.568C34.873,159.593,26.399,159.541,17.925,159.489z"/>
			<path fill="#6A6967" d="M60.306,141.803L60.306,141.803c-1.665-1.833-3.331-3.665-4.996-5.498
				c0.239-2.196,0.477-4.391,0.716-6.587c-0.083-0.826-0.34-2.059-1.166-3.25c-1.878-2.708-5.466-2.954-7.163-3.083
				c-1.078-0.082-2.668-0.073-4.565,0.426c-5.92,5.969-11.84,11.939-17.76,17.908c5.859,5.969,11.719,11.938,17.578,17.908
				c1.898,0.498,3.487,0.508,4.565,0.426c1.696-0.13,5.284-0.375,7.163-3.083c0.826-1.191,1.083-2.424,1.166-3.25
				c-0.239-2.196-0.477-4.391-0.716-6.587C56.854,145.355,58.58,143.579,60.306,141.803z"/>
			<path fill="#6A6967" d="M18.044,98.732c-5.955,6.032-11.911,12.065-17.866,18.097c0-12.909,0-25.819,0-38.728
				c1.803,1.754,3.607,3.509,5.41,5.263c2.194-0.239,4.389-0.477,6.583-0.716c0.825,0.083,2.058,0.34,3.248,1.167
				c2.24,1.555,2.636,4.341,3.082,7.167c0.235,1.49,0.429,3.69,0.104,6.385C18.418,97.822,18.231,98.277,18.044,98.732z"/>
			<path fill="#6A6967" d="M18.044,184.857c-5.955-6.032-11.911-12.065-17.866-18.097c0,12.909,0,25.819,0,38.728
				c1.803-1.754,3.607-3.509,5.41-5.263c2.194,0.239,4.389,0.477,6.583,0.716c0.825-0.083,2.058-0.34,3.248-1.167
				c2.24-1.555,2.636-4.341,3.082-7.167c0.235-1.49,0.429-3.69,0.104-6.385C18.418,185.767,18.231,185.312,18.044,184.857z"/>
		</g>
		<g>
			<path fill="#6A6967" d="M265.554,123.904c-0.052-8.479-0.104-16.958-0.156-25.437c-0.189-0.454-0.379-0.908-0.568-1.362
				c-1.675-2.136-3.367-3.554-4.586-4.441c-2.313-1.683-4.561-3.372-7.244-2.887c-1.425,0.258-2.479,0.948-3.121,1.473
				c-1.383,1.721-2.766,3.443-4.149,5.164c-2.515,0.035-5.03,0.071-7.545,0.106c-0.035,2.516-0.071,5.033-0.106,7.549
				c-1.72,1.384-3.441,2.768-5.161,4.151c-0.525,0.643-1.215,1.697-1.472,3.123c-0.485,2.685,1.204,4.934,2.886,7.248
				c0.887,1.22,2.304,2.913,4.439,4.589c0.454,0.189,0.908,0.379,1.361,0.568C248.606,123.8,257.08,123.852,265.554,123.904z"/>
			<path fill="#6A6967" d="M265.736,159.444c-0.052,8.479-0.104,16.958-0.156,25.437c-0.189,0.454-0.379,0.908-0.568,1.362
				c-1.675,2.136-3.367,3.554-4.586,4.441c-2.313,1.683-4.561,3.372-7.244,2.887c-1.425-0.258-2.479-0.948-3.121-1.473
				c-1.383-1.721-2.766-3.443-4.149-5.164c-2.515-0.035-5.03-0.071-7.545-0.106c-0.035-2.516-0.071-5.033-0.106-7.549
				c-1.72-1.384-3.441-2.768-5.161-4.151c-0.525-0.643-1.215-1.697-1.472-3.123c-0.485-2.685,1.204-4.934,2.886-7.248
				c0.887-1.22,2.304-2.913,4.439-4.589c0.454-0.189,0.908-0.379,1.361-0.568C248.787,159.548,257.261,159.496,265.736,159.444z"/>
			<path fill="#6A6967" d="M223.355,141.759L223.355,141.759c1.665-1.833,3.331-3.665,4.996-5.498
				c-0.239-2.196-0.477-4.391-0.716-6.587c0.083-0.826,0.34-2.059,1.166-3.25c1.878-2.708,5.466-2.954,7.163-3.083
				c1.078-0.082,2.668-0.073,4.565,0.426c5.92,5.969,11.84,11.939,17.76,17.908c-5.859,5.969-11.719,11.938-17.578,17.908
				c-1.898,0.498-3.487,0.508-4.565,0.426c-1.696-0.13-5.284-0.375-7.163-3.083c-0.826-1.191-1.083-2.424-1.166-3.25
				c0.239-2.196,0.477-4.391,0.716-6.587C226.806,145.311,225.081,143.535,223.355,141.759z"/>
			<path fill="#6A6967" d="M265.616,98.688c5.955,6.032,11.911,12.065,17.866,18.097c0-12.909,0-25.819,0-38.728
				c-1.803,1.754-3.607,3.509-5.41,5.263c-2.194-0.239-4.389-0.477-6.583-0.716c-0.825,0.083-2.058,0.34-3.248,1.167
				c-2.24,1.555-2.636,4.341-3.082,7.167c-0.235,1.49-0.429,3.69-0.104,6.385C265.242,97.777,265.429,98.232,265.616,98.688z"/>
			<path fill="#6A6967" d="M265.616,184.812c5.955-6.032,11.911-12.065,17.866-18.097c0,12.909,0,25.819,0,38.728
				c-1.803-1.754-3.607-3.509-5.41-5.263c-2.194,0.239-4.389,0.477-6.583,0.716c-0.825-0.083-2.058-0.34-3.248-1.167
				c-2.24-1.555-2.636-4.341-3.082-7.167c-0.235-1.49-0.429-3.69-0.104-6.385C265.242,185.723,265.429,185.267,265.616,184.812z"/>
		</g>
		<g>
			<path fill="#6A6967" d="M124.179,265.678c-0.052-8.479-0.104-16.958-0.156-25.437c-0.189-0.454-0.379-0.908-0.568-1.362
				c-1.675-2.136-3.367-3.554-4.586-4.441c-2.313-1.683-4.561-3.372-7.244-2.887c-1.425,0.258-2.479,0.948-3.121,1.473
				c-1.383,1.721-2.766,3.443-4.149,5.164c-2.515,0.035-5.03,0.071-7.545,0.106c-0.035,2.516-0.071,5.033-0.106,7.549
				c-1.72,1.384-3.441,2.768-5.161,4.151c-0.525,0.643-1.215,1.697-1.472,3.123c-0.485,2.685,1.204,4.934,2.886,7.248
				c0.887,1.22,2.304,2.913,4.439,4.589c0.454,0.189,0.908,0.379,1.361,0.568C107.231,265.574,115.705,265.626,124.179,265.678z"/>
			<path fill="#6A6967" d="M159.725,265.678c0.052-8.479,0.104-16.958,0.156-25.437c0.189-0.454,0.379-0.908,0.568-1.362
				c1.675-2.136,3.367-3.554,4.586-4.441c2.313-1.683,4.561-3.372,7.244-2.887c1.425,0.258,2.479,0.948,3.121,1.473
				c1.383,1.721,2.766,3.443,4.149,5.164c2.515,0.035,5.03,0.071,7.545,0.106c0.035,2.516,0.071,5.033,0.106,7.549
				c1.72,1.384,3.441,2.768,5.161,4.151c0.525,0.643,1.215,1.697,1.472,3.123c0.485,2.685-1.204,4.934-2.886,7.248
				c-0.887,1.22-2.304,2.913-4.439,4.589c-0.454,0.189-0.908,0.379-1.361,0.568C176.673,265.574,168.199,265.626,159.725,265.678z"
				/>
			<path fill="#6A6967" d="M123.429,238.981c0.187,0.455,0.374,0.91,0.561,1.365c5.965,6.046,11.931,12.092,17.896,18.139l0,0l0,0
				c5.968-6.046,11.936-12.092,17.904-18.139c0.187-0.455,0.374-0.91,0.561-1.365c0.325-2.695,0.131-4.896-0.104-6.385
				c-0.446-2.826-0.841-5.611-3.082-7.167c-1.19-0.826-2.423-1.083-3.248-1.167c-2.194,0.239-4.389,0.477-6.583,0.716
				c-1.803-1.754-3.607-3.509-5.41-5.263c-1.826,1.754-3.652,3.509-5.478,5.263c-2.194-0.239-4.389-0.477-6.583-0.716
				c-0.825,0.083-2.058,0.34-3.248,1.167c-2.24,1.555-2.636,4.341-3.082,7.167C123.298,234.086,123.104,236.287,123.429,238.981z"/>
			<path fill="#6A6967" d="M116.652,283.33c-5.962-5.976-11.925-11.952-17.887-17.929c-1.898-0.498-3.487-0.508-4.565-0.426
				c-1.696,0.13-5.284,0.375-7.163,3.083c-0.826,1.191-1.083,2.424-1.166,3.25c0.239,2.196,0.477,4.391,0.716,6.587
				c-1.753,1.804-3.507,3.609-5.26,5.413C93.102,283.316,104.877,283.323,116.652,283.33z"/>
			<path fill="#6A6967" d="M166.896,283.416c5.962-5.976,11.925-11.952,17.887-17.929c1.898-0.498,3.487-0.508,4.565-0.426
				c1.696,0.13,5.284,0.375,7.163,3.083c0.826,1.191,1.083,2.424,1.166,3.25c-0.239,2.196-0.477,4.391-0.716,6.587
				c1.753,1.804,3.507,3.609,5.26,5.413C190.446,283.402,178.671,283.409,166.896,283.416z"/>
		</g>
		<g>
			<path fill="#6A6967" d="M124.235,17.822c-0.052,8.479-0.104,16.958-0.156,25.437c-0.189,0.454-0.379,0.908-0.568,1.362
				c-1.675,2.136-3.367,3.554-4.586,4.441c-2.313,1.683-4.561,3.372-7.244,2.887c-1.425-0.258-2.479-0.948-3.121-1.473
				c-1.383-1.721-2.766-3.443-4.149-5.164c-2.515-0.035-5.03-0.071-7.545-0.106c-0.035-2.516-0.071-5.033-0.106-7.549
				c-1.72-1.384-3.441-2.768-5.161-4.151c-0.525-0.643-1.215-1.697-1.472-3.123c-0.485-2.685,1.204-4.934,2.886-7.248
				c0.887-1.22,2.304-2.913,4.439-4.589c0.454-0.189,0.908-0.379,1.361-0.568C107.287,17.926,115.761,17.874,124.235,17.822z"/>
			<path fill="#6A6967" d="M159.781,17.822c0.052,8.479,0.104,16.958,0.156,25.437c0.189,0.454,0.379,0.908,0.568,1.362
				c1.675,2.136,3.367,3.554,4.586,4.441c2.313,1.683,4.561,3.372,7.244,2.887c1.425-0.258,2.479-0.948,3.121-1.473
				c1.383-1.721,2.766-3.443,4.149-5.164c2.515-0.035,5.03-0.071,7.545-0.106c0.035-2.516,0.071-5.033,0.106-7.549
				c1.72-1.384,3.441-2.768,5.161-4.151c0.525-0.643,1.215-1.697,1.472-3.123c0.485-2.685-1.204-4.934-2.886-7.248
				c-0.887-1.22-2.304-2.913-4.439-4.589c-0.454-0.189-0.908-0.379-1.361-0.568C176.729,17.926,168.255,17.874,159.781,17.822z"/>
			<path fill="#6A6967" d="M123.485,44.518c0.187-0.455,0.374-0.91,0.561-1.365c5.965-6.046,11.931-12.092,17.896-18.139l0,0l0,0
				c5.968,6.046,11.936,12.092,17.904,18.139c0.187,0.455,0.374,0.91,0.561,1.365c0.325,2.695,0.131,4.896-0.104,6.385
				c-0.446,2.826-0.841,5.611-3.082,7.167c-1.19,0.826-2.423,1.083-3.248,1.167c-2.194-0.239-4.389-0.477-6.583-0.716
				c-1.803,1.754-3.607,3.509-5.41,5.263c-1.826-1.754-3.652-3.509-5.478-5.263c-2.194,0.239-4.389,0.477-6.583,0.716
				c-0.825-0.083-2.058-0.34-3.248-1.167c-2.24-1.555-2.636-4.341-3.082-7.167C123.354,49.414,123.16,47.213,123.485,44.518z"/>
			<path fill="#6A6967" d="M116.708,0.17c-5.962,5.976-11.925,11.952-17.887,17.929c-1.898,0.498-3.487,0.508-4.565,0.426
				c-1.696-0.13-5.284-0.375-7.163-3.083c-0.826-1.191-1.083-2.424-1.166-3.25c0.239-2.196,0.477-4.391,0.716-6.587
				c-1.753-1.804-3.507-3.609-5.26-5.413C93.158,0.184,104.933,0.177,116.708,0.17z"/>
			<path fill="#6A6967" d="M166.952,0.084c5.962,5.976,11.925,11.952,17.887,17.929c1.898,0.498,3.487,0.508,4.565,0.426
				c1.696-0.13,5.284-0.375,7.163-3.083c0.826-1.191,1.083-2.424,1.166-3.25c-0.239-2.196-0.477-4.391-0.716-6.587
				c1.753-1.804,3.507-3.609,5.26-5.413C190.502,0.098,178.727,0.091,166.952,0.084z"/>
		</g>
	</g>
</g>
<g id="c8">
	<g>
		<path fill="#353333" d="M193.438,75.057c1.029,1.188,2.22,1.724,2.87,1.958v9.591h9.621c0.222,0.634,0.756,1.873,1.98,2.935
			c1.771,1.535,3.796,1.67,4.503,1.679v0.001c0.014,0,0.032,0,0.048,0c0.015,0,0.034,0,0.048,0V91.22
			c0.707-0.009,2.732-0.144,4.503-1.679c1.224-1.061,1.758-2.3,1.98-2.935h9.621v-9.591c0.649-0.234,1.84-0.769,2.869-1.958
			c1.607-1.856,1.679-3.996,1.679-4.601c-0.015,0-0.031,0-0.046,0c-0.016-0.758-0.186-2.722-1.677-4.444
			c-1.029-1.189-2.22-1.724-2.87-1.958v-9.591h-9.621c-0.222-0.634-0.756-1.873-1.98-2.935c-1.771-1.535-3.796-1.67-4.503-1.679
			v-0.001c-0.014,0-0.032,0-0.048,0c-0.015,0-0.034-0.001-0.048,0v0.001c-0.707,0.009-2.732,0.144-4.503,1.679
			c-1.224,1.061-1.758,2.3-1.98,2.935h-9.621v9.591c-0.649,0.234-1.84,0.769-2.869,1.958c-1.607,1.856-1.679,3.996-1.679,4.601
			c0.015,0,0.031,0,0.046,0C191.778,71.371,191.947,73.335,193.438,75.057z"/>
		<path fill="#353333" d="M89.9,66.012c-1.029-1.189-2.22-1.724-2.87-1.958v-9.591h-9.621c-0.222-0.634-0.756-1.873-1.98-2.935
			c-1.771-1.535-3.796-1.67-4.503-1.679v-0.001c-0.014,0-0.032,0-0.048,0c-0.015,0-0.034-0.001-0.048,0v0.001
			c-0.707,0.009-2.733,0.144-4.503,1.679c-1.224,1.061-1.758,2.3-1.98,2.935h-9.621v9.591c-0.649,0.234-1.841,0.769-2.87,1.958
			c-1.607,1.856-1.679,3.996-1.679,4.601c0.015,0,0.031,0,0.046,0c0.016,0.758,0.186,2.722,1.677,4.444
			c1.029,1.188,2.22,1.724,2.87,1.958v9.591h9.621c0.222,0.634,0.756,1.873,1.98,2.935c1.771,1.535,3.796,1.67,4.503,1.679v0.001
			c0.014,0,0.032,0,0.048,0s0.034,0,0.048,0V91.22c0.707-0.009,2.732-0.144,4.503-1.679c1.224-1.061,1.758-2.3,1.98-2.935h9.621
			v-9.591c0.649-0.234,1.841-0.769,2.87-1.958c1.607-1.856,1.679-3.996,1.679-4.601c-0.015,0-0.031,0-0.046,0
			C91.56,69.698,91.391,67.734,89.9,66.012z"/>
		<path fill="#353333" d="M228.605,205.803v-9.591h-9.621c-0.222-0.634-0.756-1.873-1.98-2.935c-1.771-1.535-3.796-1.67-4.503-1.679
			v-0.001c-0.014,0-0.032,0-0.048,0s-0.034,0-0.048,0v0.001c-0.707,0.009-2.733,0.144-4.503,1.679
			c-1.224,1.061-1.758,2.3-1.98,2.935H196.3v9.591c-0.649,0.234-1.841,0.769-2.87,1.958c-1.491,1.722-1.661,3.686-1.677,4.444
			c-0.015,0-0.031,0-0.046,0c-0.001,0.605,0.071,2.745,1.679,4.601c1.029,1.189,2.22,1.724,2.87,1.958v9.591h9.621
			c0.222,0.634,0.756,1.873,1.98,2.935c1.771,1.535,3.796,1.67,4.503,1.679v0.001c0.014,0,0.032,0,0.048,0s0.034,0,0.048,0v-0.001
			c0.707-0.009,2.733-0.144,4.503-1.679c1.224-1.061,1.758-2.3,1.98-2.935h9.621v-9.591c0.649-0.234,1.841-0.769,2.87-1.958
			c1.491-1.722,1.661-3.686,1.677-4.444c0.015,0,0.031,0,0.046,0c0.001-0.605-0.071-2.745-1.679-4.601
			C230.446,206.573,229.254,206.037,228.605,205.803z"/>
		<path fill="#353333" d="M87.067,205.803v-9.591h-9.621c-0.222-0.634-0.756-1.873-1.98-2.935c-1.771-1.535-3.796-1.67-4.503-1.679
			v-0.001c-0.014,0-0.032,0-0.048,0c-0.015,0-0.034,0-0.048,0v0.001c-0.707,0.009-2.732,0.144-4.503,1.679
			c-1.224,1.061-1.758,2.3-1.98,2.935h-9.621v9.591c-0.649,0.234-1.841,0.769-2.87,1.958c-1.491,1.722-1.66,3.686-1.677,4.444
			c-0.015,0-0.031,0-0.046,0c-0.001,0.605,0.071,2.745,1.678,4.601c1.029,1.189,2.22,1.724,2.87,1.958v9.591h9.621
			c0.222,0.634,0.756,1.873,1.98,2.935c1.771,1.535,3.796,1.67,4.503,1.679v0.001c0.014,0,0.032,0,0.048,0c0.015,0,0.034,0,0.048,0
			v-0.001c0.707-0.009,2.732-0.144,4.503-1.679c1.224-1.061,1.758-2.3,1.98-2.935h9.621v-9.591c0.649-0.234,1.84-0.769,2.869-1.958
			c1.491-1.722,1.661-3.686,1.677-4.444c0.015,0,0.031,0,0.046,0c0.001-0.605-0.071-2.745-1.679-4.601
			C88.907,206.573,87.716,206.037,87.067,205.803z"/>
	</g>
</g>
<g id="c9">
	<g>
		<path fill="#6A6967" d="M124.074,123.983c-0.052-8.479-0.104-16.958-0.156-25.437c-0.189-0.454-0.379-0.908-0.568-1.362
			c-1.675-2.136-3.367-3.554-4.586-4.441c-2.313-1.683-4.561-3.372-7.244-2.887c-1.425,0.258-2.479,0.948-3.121,1.473
			c-1.383,1.721-2.766,3.443-4.149,5.164c-2.515,0.035-5.03,0.071-7.545,0.106c-0.035,2.516-0.071,5.033-0.106,7.549
			c-1.72,1.384-3.441,2.768-5.161,4.151c-0.525,0.643-1.215,1.697-1.472,3.123c-0.485,2.685,1.204,4.934,2.886,7.248
			c0.887,1.22,2.304,2.913,4.439,4.589c0.454,0.189,0.908,0.379,1.361,0.568C107.125,123.879,115.6,123.931,124.074,123.983z"/>
		<path fill="#6A6967" d="M159.619,123.983c0.052-8.479,0.104-16.958,0.156-25.437c0.189-0.454,0.379-0.908,0.568-1.362
			c1.675-2.136,3.367-3.554,4.586-4.441c2.313-1.683,4.561-3.372,7.244-2.887c1.425,0.258,2.479,0.948,3.121,1.473
			c1.383,1.721,2.766,3.443,4.149,5.164c2.515,0.035,5.03,0.071,7.545,0.106c0.035,2.516,0.071,5.033,0.106,7.549
			c1.72,1.384,3.441,2.768,5.161,4.151c0.525,0.643,1.215,1.697,1.472,3.123c0.485,2.685-1.204,4.934-2.886,7.248
			c-0.887,1.22-2.304,2.913-4.439,4.589c-0.454,0.189-0.908,0.379-1.361,0.568C176.568,123.879,168.094,123.931,159.619,123.983z"/>
		<path fill="#6A6967" d="M123.892,159.524c-0.052,8.479-0.104,16.958-0.156,25.437c-0.189,0.454-0.379,0.908-0.568,1.362
			c-1.675,2.136-3.367,3.554-4.586,4.441c-2.313,1.683-4.561,3.372-7.244,2.887c-1.425-0.258-2.479-0.948-3.121-1.473
			c-1.383-1.721-2.766-3.443-4.149-5.164c-2.515-0.035-5.03-0.071-7.545-0.106c-0.035-2.516-0.071-5.033-0.106-7.549
			c-1.72-1.384-3.441-2.768-5.161-4.151c-0.525-0.643-1.215-1.697-1.472-3.123c-0.485-2.685,1.204-4.934,2.886-7.248
			c0.887-1.22,2.304-2.913,4.439-4.589c0.454-0.189,0.908-0.379,1.361-0.568C106.944,159.628,115.418,159.576,123.892,159.524z"/>
		<path fill="#6A6967" d="M160.126,186.288c-0.187-0.455-0.374-0.91-0.561-1.365c-5.965-6.046-11.931-12.092-17.896-18.139l0,0l0,0
			c-5.968,6.046-11.936,12.092-17.904,18.139c-0.187,0.455-0.374,0.91-0.561,1.365c-0.325,2.695-0.131,4.896,0.104,6.385
			c0.446,2.826,0.841,5.611,3.082,7.167c1.19,0.826,2.423,1.083,3.248,1.167c2.194-0.239,4.389-0.477,6.583-0.716
			c1.803,1.754,3.607,3.509,5.41,5.263c1.826-1.754,3.652-3.509,5.478-5.263c2.194,0.239,4.389,0.477,6.583,0.716
			c0.825-0.083,2.058-0.34,3.248-1.167c2.24-1.555,2.636-4.341,3.082-7.167C160.257,191.184,160.451,188.983,160.126,186.288z"/>
		<path fill="#6A6967" d="M159.438,159.524c0.052,8.479,0.104,16.958,0.156,25.437c0.189,0.454,0.379,0.908,0.568,1.362
			c1.675,2.136,3.367,3.554,4.586,4.441c2.313,1.683,4.561,3.372,7.244,2.887c1.425-0.258,2.479-0.948,3.121-1.473
			c1.383-1.721,2.766-3.443,4.149-5.164c2.515-0.035,5.03-0.071,7.545-0.106c0.035-2.516,0.071-5.033,0.106-7.549
			c1.72-1.384,3.441-2.768,5.161-4.151c0.525-0.643,1.215-1.697,1.472-3.123c0.485-2.685-1.204-4.934-2.886-7.248
			c-0.887-1.22-2.304-2.913-4.439-4.589c-0.454-0.189-0.908-0.379-1.361-0.568C176.386,159.628,167.912,159.576,159.438,159.524z"/>
		<path fill="#6A6967" d="M201.819,141.838L201.819,141.838c-1.665-1.833-3.331-3.665-4.996-5.498
			c0.239-2.196,0.477-4.391,0.716-6.587c-0.083-0.826-0.34-2.059-1.166-3.25c-1.878-2.708-5.466-2.954-7.163-3.083
			c-1.078-0.082-2.668-0.073-4.565,0.426c-5.92,5.969-11.84,11.939-17.76,17.908c5.859,5.969,11.719,11.938,17.578,17.908
			c1.898,0.498,3.487,0.508,4.565,0.426c1.696-0.13,5.284-0.375,7.163-3.083c0.826-1.191,1.083-2.424,1.166-3.25
			c-0.239-2.196-0.477-4.391-0.716-6.587C198.367,145.39,200.093,143.614,201.819,141.838z"/>
		<path fill="#6A6967" d="M123.323,97.287c0.187,0.455,0.374,0.91,0.561,1.365c5.965,6.046,11.931,12.092,17.896,18.139l0,0l0,0
			c5.968-6.046,11.936-12.092,17.904-18.139c0.187-0.455,0.374-0.91,0.561-1.365c0.325-2.695,0.131-4.896-0.104-6.385
			c-0.446-2.826-0.841-5.611-3.082-7.167c-1.19-0.826-2.423-1.083-3.248-1.167c-2.194,0.239-4.389,0.477-6.583,0.716
			c-1.803-1.754-3.607-3.509-5.41-5.263c-1.826,1.754-3.652,3.509-5.478,5.263c-2.194-0.239-4.389-0.477-6.583-0.716
			c-0.825,0.083-2.058,0.34-3.248,1.167c-2.24,1.555-2.636,4.341-3.082,7.167C123.192,92.391,122.998,94.592,123.323,97.287z"/>
		<path fill="#6A6967" d="M81.63,141.736L81.63,141.736c1.665,1.833,3.331,3.665,4.996,5.498c-0.239,2.196-0.477,4.391-0.716,6.587
			c0.083,0.826,0.34,2.059,1.166,3.25c1.878,2.708,5.466,2.954,7.163,3.083c1.078,0.082,2.668,0.073,4.565-0.426
			c5.92-5.969,11.84-11.939,17.76-17.908c-5.859-5.969-11.719-11.938-17.578-17.908c-1.898-0.498-3.487-0.508-4.565-0.426
			c-1.696,0.13-5.284,0.375-7.163,3.083c-0.826,1.191-1.083,2.424-1.166,3.25c0.239,2.196,0.477,4.391,0.716,6.587
			C85.082,138.184,83.356,139.96,81.63,141.736z"/>
	</g>
</g>
<g id="c10">
	<path fill="#9D9FA2" d="M184.471,123.884c-8.319,0.038-16.638,0.075-24.957,0.113c-0.035-8.345-0.071-16.69-0.106-25.035
		c-5.907,5.919-11.814,11.838-17.722,17.757c-5.959-5.912-11.918-11.824-17.877-17.736c0.038,8.324,0.075,16.647,0.113,24.971
		c-8.34,0.035-16.68,0.071-25.021,0.106c5.909,5.859,11.818,11.718,17.727,17.577l0,0c-5.909,5.941-11.818,11.883-17.727,17.824
		c8.34,0.035,16.68,0.071,25.021,0.106c-0.038,8.324-0.075,16.647-0.113,24.971c5.959-5.912,11.918-11.824,17.877-17.736
		c5.907,5.919,11.814,11.838,17.722,17.757c0.035-8.345,0.071-16.69,0.106-25.035c8.319,0.038,16.638,0.075,24.957,0.113
		c-5.905-5.959-11.811-11.918-17.716-17.877C172.66,135.802,178.566,129.843,184.471,123.884z"/>
</g>
<g id="c11">
	<path fill="#353333" d="M148.966,124.278c-0.25-0.702-0.838-2.043-2.162-3.203c-2.001-1.754-4.303-1.885-4.989-1.898
		c-0.651-0.004-2.991,0.059-5.02,1.811c-1.341,1.158-1.922,2.515-2.162,3.203H124.13v10.47c-0.69,0.249-2.003,0.833-3.132,2.137
		c-1.752,2.024-1.83,4.36-1.829,5.024c-0.001,0.662,0.079,2.996,1.832,5.021c1.123,1.297,2.424,1.882,3.132,2.137v10.47h10.503
		c0.248,0.699,0.835,2.043,2.162,3.203c2.001,1.749,4.302,1.871,4.982,1.882c0.645,0.007,2.988-0.045,5.02-1.795
		c1.344-1.158,1.924-2.518,2.162-3.203h10.503v-10.47c0.709-0.255,2.009-0.84,3.133-2.137c1.753-2.025,1.833-4.359,1.832-5.021
		l0.004-0.002c0.001-0.66-0.078-2.996-1.832-5.023c-1.123-1.297-2.424-1.882-3.132-2.137v-10.47H148.966z"/>
</g>
</svg>
