<?xml version="1.0" encoding="utf-8"?>
<!-- Generator: Adobe Illustrator 22.0.0, SVG Export Plug-In . SVG Version: 6.00 Build 0)  -->
<svg version="1.1" xmlns="http://www.w3.org/2000/svg" xmlns:xlink="http://www.w3.org/1999/xlink" x="0px" y="0px"
	 viewBox="0 0 283.5 283.5" enable-background="new 0 0 283.5 283.5" xml:space="preserve">
<g id="c1">
	<path fill-rule="evenodd" clip-rule="evenodd" fill="#DEDEDE" d="M0.018,0v283.463H0.02v-45.129l8.638,24.278l23.276-11.064
		L20.867,274.83l24.278,8.633h193.214l24.276-8.633l-11.065-23.282l23.272,11.064l8.639-24.278v45.129h0.003V0H0.018z
		 M31.933,31.916L8.658,20.852L0.02,45.131V0.002h45.128L20.867,8.636L31.933,31.916z M173.661,173.638l-23.275-11.062
		l-8.636,24.285l-8.635-24.284l-23.276,11.067l11.066-23.278l-24.284-8.634l24.28-8.633l-11.065-23.282l23.276,11.064l8.638-24.277
		l8.631,24.28l23.284-11.066l-11.071,23.278l24.285,8.635l-24.285,8.636L173.661,173.638z M283.479,45.131l-8.639-24.279
		l-23.272,11.064l11.065-23.28l-24.279-8.634h45.124V45.131z"/>
</g>
<g id="c2">
	<g>
		<polygon fill-rule="evenodd" clip-rule="evenodd" fill="#6A6967" points="238.355,283.481 262.635,274.847 251.569,251.564 
			274.841,262.629 283.48,238.351 283.48,283.481 		"/>
		<polygon fill-rule="evenodd" clip-rule="evenodd" fill="#6A6967" points="238.355,0.019 262.635,8.653 251.569,31.933 
			274.841,20.869 283.48,45.147 283.48,0.019 		"/>
		<polygon fill-rule="evenodd" clip-rule="evenodd" fill="#6A6967" points="45.148,283.481 20.867,274.847 31.934,251.564 
			8.658,262.629 0.02,238.351 0.02,283.481 		"/>
		<polygon fill-rule="evenodd" clip-rule="evenodd" fill="#6A6967" points="45.148,0.019 20.867,8.653 31.934,31.933 8.658,20.869 
			0.02,45.147 0.02,0.019 		"/>
	</g>
</g>
<g id="c3">
	<polygon fill-rule="evenodd" clip-rule="evenodd" fill="#353333" points="150.381,120.9 173.664,109.834 162.593,133.112 
		186.878,141.747 162.593,150.383 173.661,173.655 150.386,162.593 141.75,186.878 133.115,162.594 109.839,173.661 
		120.906,150.383 96.622,141.749 120.901,133.115 109.836,109.834 133.112,120.898 141.75,96.62 	"/>
</g>
</svg>
