<?xml version="1.0" encoding="utf-8"?>
<!-- Generator: Adobe Illustrator 22.0.0, SVG Export Plug-In . SVG Version: 6.00 Build 0)  -->
<svg version="1.1" xmlns="http://www.w3.org/2000/svg" xmlns:xlink="http://www.w3.org/1999/xlink" x="0px" y="0px"
	 viewBox="0 0 283.5 283.5" enable-background="new 0 0 283.5 283.5" xml:space="preserve">
<g id="c1">
	<rect x="0.035" y="0.035" fill="#DEDEDE" width="283.423" height="283.437"/>
</g>
<g id="c2">
	<path fill="#6A6967" d="M283.423,283.256L283.423,283.256L283.423,283.256c-0.143-23.418,0.144-46.839,0-70.257
		c-1.717-0.43-4.922-0.874-8.179-0.248c-1.487,0.286-9.491,1.825-11.998,8.749c-1.822,5.031-0.071,11.051,4.406,15.095
		c2.031,1.968,4.062,3.935,6.093,5.903c0.823,1.236,2.179,3.649,2.499,6.957c0.51,5.27-1.962,9.153-2.749,10.292
		c-1.392,0.083-5.167,0.122-8.999-2.25c-0.668-0.414-4.101-2.611-5.999-6.999c-1.857-4.294-0.212-5.987-1-11.749
		c-0.464-3.394-1.527-11.171-6.999-13.749c-3.302-1.556-7.772-1.011-10.998,1.5c-4.011,3.122-4.265,7.852-4.29,8.54
		c-0.688,0.025-5.418,0.279-8.539,4.29c-2.511,3.227-3.056,7.696-1.5,10.999c2.578,5.472,10.354,6.535,13.748,6.999
		c5.762,0.788,7.454-0.857,11.748,1c4.388,1.898,6.586,5.331,6.999,5.999c2.371,3.832,2.332,7.607,2.25,8.999
		c-1.139,0.787-5.021,3.26-10.291,2.749c-3.308-0.32-5.721-1.676-6.956-2.499c-1.967-2.031-3.935-4.062-5.902-6.093
		c-4.044-4.477-10.064-6.228-15.095-4.406c-6.924,2.508-8.463,10.511-8.749,11.999c-0.626,3.257,0.016,6.644,0.446,8.36
		C236.785,283.58,260.006,283.113,283.423,283.256L283.423,283.256L283.423,283.256z"/>
</g>
<g id="c3">
	<path fill="#9D9FA2" d="M192.745,283.455h9.92c0-44.613,36.165-80.78,80.776-80.78v-9.92
		C233.351,192.755,192.745,233.363,192.745,283.455z"/>
</g>
<g id="c4">
	<path fill="#6A6967" d="M182.663,283.455h9.92c0-50.092,40.606-90.7,90.695-90.7c0.06,0,0.12,0.002,0.181,0.002v-9.92
		c-0.06,0-0.12-0.002-0.181-0.002C227.71,182.835,182.663,227.884,182.663,283.455z"/>
</g>
<g id="c5">
	<g>
		<path fill="#6A6967" d="M283.26,165.222c-10.482-1.713-13.748-4.25-13.748-4.25c-0.155-0.121-0.259-0.204-0.355-0.283
			c-1.172-0.973-3.679-3.451-7.144-10.216c-3.726-7.274-2.701-8.069-5.249-12.499c-0.2-0.348-0.493-0.851-0.887-1.465
			c-4.724-7.361-12.111-11.034-12.111-11.034c-5.467-2.744-10.542-3.16-13.416-3.171c1.181-2.24,2.605-3.424,3.668-4.079
			c5.122-3.155,13.42-1.135,20.497,5.249c0.148-1.276,0.438-2.814,1-4.5c0.381-1.142,0.818-2.144,1.25-3
			c1.441,0.277,3.631,0.906,5.749,2.5c3.784,2.848,5.244,7.2,5.499,7.999c0.598,1.873,0.476,2.293,1.398,4.637
			c0.83,2.11,1.425,3.58,2.768,4.946c0.682,0.694,2.191,2.006,4.833,2.666c0.484-1.052,1.2-2.856,1.5-5.166
			c1.641-12.637-11.859-19.658-16.997-36.08c-1.164-3.719-2.361-9.398-1.75-16.998c1.522-0.219,3.593-0.348,5.999,0
			c3.505,0.508,6.154,1.803,7.749,2.75c-0.792-2.583-1.552-5.335-2.25-8.249c-0.839-3.508-1.492-6.852-2-9.999
			c0.985-0.395,2.343-0.82,3.999-1c1.258-0.136,2.364-0.096,3.25,0c-0.137-1.149-0.23-3.329,0.75-5.749
			c1.638-4.045,5.261-5.813,6.18-6.249C283.441,89.729,283.26,127.476,283.26,165.222z"/>
		<path fill="#6A6967" d="M165.196,283.472c-1.713-10.483-4.249-13.929-4.249-13.929c-0.121-0.155-0.204-0.259-0.283-0.355
			c-0.973-1.172-3.451-3.679-10.215-7.145c-7.274-3.726-8.069-2.701-12.498-5.249c-0.348-0.2-0.851-0.493-1.465-0.887
			c-7.361-4.724-11.034-12.111-11.034-12.111c-2.743-5.467-3.16-10.542-3.17-13.417c-2.24,1.181-3.424,2.605-4.078,3.668
			c-3.155,5.123-1.135,13.42,5.249,20.498c-1.276,0.148-2.814,0.438-4.499,1c-1.142,0.381-2.144,0.818-3,1.25
			c0.277,1.441,0.906,3.631,2.5,5.749c2.848,3.785,7.199,5.244,7.999,5.499c1.873,0.598,2.293,0.476,4.636,1.398
			c2.11,0.83,3.58,1.425,4.946,2.768c0.694,0.682,2.006,2.191,2.666,4.833c-1.052,0.484-2.856,1.2-5.166,1.5
			c-12.636,1.641-19.657-11.859-36.078-16.998c-3.719-1.164-9.397-2.361-16.998-1.75c-0.219,1.522-0.348,3.593,0,5.999
			c0.508,3.505,1.803,6.155,2.75,7.749c-2.583-0.792-5.335-1.552-8.249-2.25c-3.508-0.839-6.852-1.492-9.999-2
			c-0.395,0.985-0.82,2.344-1,4c-0.136,1.258-0.096,2.364,0,3.25c-1.149-0.137-3.329-0.23-5.749,0.75
			c-4.045,1.638-5.813,5.261-6.249,6.18C89.707,283.472,127.452,283.472,165.196,283.472z"/>
	</g>
</g>
<g id="c6">
	<path fill="#FFFFFF" stroke="#000000" stroke-width="3.3333" stroke-miterlimit="10" d="M140.531,145.68"/>
	<path fill="#9D9FA2" d="M238.011,50.426v0.596v12.165v28.48c-0.926-0.028-1.851-0.06-2.784-0.06
		c-38.688,0-71.799,23.854-85.444,57.656c-33.8,13.645-57.653,46.758-57.653,85.448c0,0.933,0.032,1.858,0.06,2.784H63.711H51.546
		H50.95c-1.137,21.116-15.111,38.811-34.259,45.432h25.038c9.745-8.438,16.893-19.78,20.124-32.677h31.593h10.093h2.884
		c-1-5.026-1.538-10.218-1.538-15.539c0-26.296,12.797-49.59,32.496-64.027c1.848,5.488,6.058,15.502,15.485,24.654
		c12.884,12.509,27.6,15.723,33.329,16.665c0.488,1.405,1.068,3.613,1,6.333c-0.034,1.362-0.337,7.144-4.666,11.665
		c-4.558,4.761-11.421,5.871-16.664,4.666c-7.99-1.835-14.191-9.496-14.998-18.998c-1.599-0.486-5.235-1.341-9.332,0
		c-6.85,2.242-9.4,8.795-9.999,10.332c-0.297,0.764-3.316,8.907,1.219,16.311c2.889,4.716,7.284,6.589,10.779,8.02
		c8.567,3.51,16.364,2.399,21.664,1.666c12.182-1.683,21.311-7.008,26.544-10.72c2.055-4.597,4.935-10.057,8.976-15.811
		c3.918-5.578,7.942-10.029,11.473-13.465c0.009-0.08,0.019-0.187,0.029-0.309c0.122-0.008,0.229-0.016,0.302-0.022
		c3.436-3.531,7.887-7.556,13.464-11.474c5.753-4.041,11.213-6.921,15.81-8.976c3.712-5.233,9.037-14.363,10.72-26.546
		c0.732-5.3,1.843-13.097-1.666-21.665c-1.432-3.495-3.304-7.891-8.02-10.779c-7.403-4.535-15.546-1.517-16.31-1.219
		c-1.538,0.599-8.09,3.149-10.332,9.999c-1.341,4.097-0.486,7.733,0,9.332c9.502,0.807,17.162,7.008,18.997,14.999
		c1.204,5.244,0.095,12.107-4.666,16.665c-4.522,4.329-10.303,4.632-11.665,4.666c-2.72,0.068-4.927-0.512-6.332-1
		c-0.942-5.729-4.156-20.445-16.664-33.33c-9.152-9.427-19.165-13.637-24.653-15.485c14.436-19.7,37.729-32.497,64.024-32.497
		c5.32,0,10.513,0.539,15.538,1.539v-2.884V92.924V61.33c12.897-3.231,24.238-10.38,32.676-20.125V16.166
		C276.82,35.315,259.126,49.289,238.011,50.426z M185.525,165.678c8.467,7.07,12.429,18.381,10.447,29.55h0
		c-0.004,0.048-0.185,0.224-0.227,0.227v0c-11.168,1.982-22.478-1.98-29.548-10.448c-9.091-10.889-6.8-23.992-6.455-25.784
		C161.534,158.878,174.636,156.586,185.525,165.678z"/>
</g>
<g id="c7">
	<path fill="#FFFFFF" stroke="#000000" stroke-width="3.3333" stroke-miterlimit="10" d="M140.531,146.206"/>
	<path fill="#6A6967" d="M185.525,166.204c-10.888-9.092-23.991-6.8-25.783-6.455v0l0,0c-0.345,1.792-2.637,14.896,6.455,25.784
		c7.07,8.468,18.38,12.43,29.548,10.448c-0.076-0.151-0.159-0.31-0.237-0.465c0.154,0.079,0.314,0.162,0.465,0.237
		C197.954,184.586,193.992,173.275,185.525,166.204z"/>
</g>
<g id="c8">
	<path fill="#FFFFFF" stroke="#000000" stroke-width="3.3333" stroke-miterlimit="10" d="M140.531,146.224"/>
	<g>
		<path fill="#6A6967" d="M265.24,0.069c-10.554,0.044-53.164,0.044-63.718,0c-0.154,0.599-1.617,6.701,2.333,10.999
			c2.373,2.582,5.416,3.114,6.666,3.333c6.121,1.071,10.95-2.515,11.998-3.333c-1.17,2.405-2.575,6.268-2.333,10.999
			c0.119,2.335,0.287,5.615,2.666,8.332c0.674,0.77,2.008,2.281,4.22,2.736c0.606,0.125,2.844,0.585,4.612-0.57
			c0.667-0.435,1.001-0.927,1.718-0.945c0.817-0.02,1.194,0.598,2.029,1.09c1.638,0.966,3.563,0.594,4.258,0.424
			c2.272-0.553,3.604-2.032,4.22-2.736c2.38-2.718,2.547-5.997,2.666-8.332c0.242-4.731-1.163-8.594-2.333-10.999
			c1.048,0.818,5.878,4.404,11.998,3.333c1.25-0.219,4.292-0.751,6.666-3.333C266.857,6.771,265.394,0.669,265.24,0.069z"/>
		<path fill="#6A6967" d="M0.052,265.271c0.044-10.555,0.044-53.166,0-63.721c0.599-0.154,6.701-1.618,10.998,2.333
			c2.582,2.374,3.114,5.416,3.333,6.666c1.071,6.121-2.515,10.951-3.333,11.999c2.405-1.17,6.268-2.575,10.998-2.333
			c2.335,0.119,5.615,0.287,8.332,2.666c0.77,0.674,2.281,2.008,2.736,4.22c0.125,0.606,0.585,2.845-0.57,4.612
			c-0.435,0.667-0.927,1.001-0.945,1.718c-0.02,0.817,0.598,1.194,1.09,2.029c0.966,1.638,0.594,3.563,0.424,4.259
			c-0.553,2.272-2.032,3.604-2.736,4.22c-2.717,2.38-5.997,2.547-8.332,2.666c-4.73,0.242-8.593-1.163-10.998-2.333
			c0.818,1.048,4.404,5.878,3.333,11.999c-0.219,1.25-0.751,4.292-3.333,6.666C6.753,266.888,0.651,265.424,0.052,265.271z"/>
	</g>
</g>
<g id="c9">
	<path fill="#FFFFFF" stroke="#000000" stroke-width="3.3333" stroke-miterlimit="10" d="M141.676,146.206"/>
	<path fill="#9D9FA2" d="M185.356,0.018h-12.754c0,27.286,17.142,50.555,41.238,59.661v6.939c-3.798,0.161-7.867,0.561-12.173,1.346
		c-21.363,3.895-36.16,14.706-43.524,21.014c-0.012,0.004-0.023,0.008-0.035,0.012c-0.029,0.028-0.06,0.057-0.091,0.086
		c-0.053,0.05-0.093,0.086-0.093,0.087c-10.7,9.947-18.997,11.299-18.997,11.299c-1.905,0.31-10.592,1.725-16.498-4
		c-4.462-4.325-4.698-10.165-4.749-11.499c-0.035-0.921-0.2-8.341,5.499-13.749c0.949-0.9,3.655-3.417,7.999-4.25
		c1.755-0.336,6.025-1.155,9.999,1.5c4.519,3.019,5.163,8.195,5.249,8.999c0.767-0.325,1.922-0.921,3-2
		c5.083-5.089,2.005-14.5,1.75-15.249c-0.576-1.686-1.892-4.741-4.999-7.749c0.605-1.187,1.677-2.93,3.499-4.5
		c5.188-4.467,11.686-3.877,12.998-3.75c6.276,0.608,10.286,4.292,11.498,5.499c0.2-2.793,0.194-7.993-2.25-13.749
		c-0.604-1.423-5.016-11.378-15.914-15.748c-1.032-0.414-7.895-3.074-15.831-1.75c-7.557,1.26-10.498,2.25-10.498,2.25
		c-2.69,0.918-4.595,1.859-6.999,1.25c-1.474-0.373-2.645-1.205-4.749-3.5c-3.859-4.207-5.377-7.356-8.249-11.499
		c-1.136-1.639-2.95-4.105-5.499-6.952c-2.916,0-5.832,0-8.749,0c-0.814,1.195-1.031,2.206-1.086,2.887
		c-0.24,2.973,2.198,4.75,7.555,12.334c0.542,0.767,0.813,1.151,1.03,1.48c4.344,6.585,4.866,13.91,4.999,15.748
		c0.789,10.915-5.346,18.749-8.26,34.158c-1.604,8.482-3.067,16.219-0.488,25.086c1.238,4.257,3.345,8.564,6.13,12.461
		c-3.896-2.785-8.203-4.892-12.46-6.13c-8.867-2.579-16.603-1.116-25.085,0.488c-15.408,2.914-23.241,9.05-34.156,8.261
		c-1.838-0.133-9.163-0.655-15.748-5c-0.329-0.217-0.713-0.488-1.48-1.03C8.8,95.404,7.023,92.966,4.05,93.206
		c-0.681,0.055-1.692,0.272-2.887,1.086c0,2.916,0,5.833,0,8.749c2.847,2.55,5.312,4.363,6.952,5.499
		c4.142,2.872,7.291,4.39,11.498,8.249c2.294,2.105,3.126,3.275,3.499,4.75c0.609,2.404-0.332,4.309-1.25,6.999
		c0,0-0.989,2.941-2.25,10.499c-1.324,7.937,1.336,14.8,1.75,15.832c4.37,10.899,14.325,15.311,15.748,15.915
		c5.755,2.444,10.955,2.45,13.748,2.25c-1.207-1.212-4.891-5.222-5.499-11.499c-0.127-1.312-0.717-7.811,3.749-12.999
		c1.569-1.823,3.313-2.894,4.499-3.5c3.008,3.108,6.063,4.423,7.749,5c0.748,0.256,10.159,3.333,15.248-1.75
		c1.078-1.077,1.674-2.233,2-3c-0.804-0.087-5.98-0.73-8.999-5.249c-2.654-3.974-1.836-8.244-1.5-9.999
		c0.832-4.344,3.349-7.05,4.249-7.999c5.407-5.7,12.827-5.535,13.748-5.499c1.334,0.051,7.174,0.288,11.498,4.75
		c5.725,5.906,4.31,14.593,3.999,16.498c0,0-1.351,8.297-11.298,18.998c-0.001,0.001-0.037,0.04-0.087,0.093
		c-0.029,0.031-0.058,0.062-0.086,0.091c-0.004,0.012-0.008,0.023-0.012,0.035C83.811,164.37,73,179.168,69.106,200.532
		c-0.785,4.306-1.185,8.375-1.346,12.173h-6.939c-9.106-24.098-32.374-41.24-59.658-41.24v12.755c24.83,0,45.507,17.743,50.07,41.24
		h1.876h11.078h3.919h7.749c1.379,0,2.759,0,4.138,0c-0.576-8.555-0.042-15.628,0.611-20.678c0.681-5.27,1.331-10.058,3.605-15.937
		c1.428-3.691,3.419-7.613,7.643-13.56c8.97-12.631,13.078-13.372,18.764-21.436c3.534-5.013,11.147-15.675,9.232-28.059
		c-0.869-5.619-3.378-9.783-5-12.081c2.298,1.623,6.462,4.132,12.081,5.001c12.384,1.915,23.045-5.699,28.058-9.233
		c8.064-5.686,8.805-9.794,21.435-18.765c5.947-4.224,9.869-6.216,13.56-7.644c5.878-2.274,10.666-2.924,15.936-3.605
		c5.05-0.653,12.123-1.188,20.677-0.611c0-1.38,0-2.759,0-4.138v-7.749v-3.92V51.965V50.09
		C203.098,45.527,185.356,24.849,185.356,0.018z"/>
</g>
<g id="c10">
	<path fill="#6A6967" d="M89.539,41.716c-1.008-2.462-2.129-4.4-3-5.749c0.924-0.645,2.462-1.911,3.499-4
		c2.447-4.925-0.105-9.966-0.5-10.749c-2.299-4.559-6.475-6.209-7.249-6.499c-0.974-0.365-6.925-2.616-11.498,1
		c-2.151,1.701-3.807,4.549-3.749,7.499c0.046,2.353,1.164,4.207,3,7.249c0.841,1.394,1.651,2.491,2.25,3.25
		c-0.326,0.837-0.918,2.06-2,3.25c-2.443,2.687-5.632,3.247-6.999,3.5c-4.729,0.875-8.592-0.832-10.089-1.596
		c-12.44-7.662-24.88-15.324-37.32-22.986c7.662,12.44,15.323,24.881,22.985,37.321c0.764,1.497,2.47,5.36,1.596,10.089
		c-0.253,1.367-0.812,4.556-3.499,6.999c-1.19,1.082-2.413,1.674-3.25,2c-0.758-0.599-1.855-1.408-3.25-2.25
		c-3.042-1.836-4.896-2.954-7.249-3c-2.95-0.057-5.798,1.599-7.499,3.75c-3.616,4.573-1.365,10.525-1,11.499
		c0.29,0.774,1.94,4.951,6.499,7.249c0.783,0.395,5.823,2.947,10.748,0.5c2.089-1.038,3.355-2.576,3.999-3.5
		c1.349,0.871,3.287,1.992,5.749,3c3.431,1.404,5.625,2.302,8.499,2.25c2.251-0.041,5.533-1.268,12.097-3.722
		c0.374-0.14,0.813-0.317,1.401-0.528c6.594-2.361,7.368-2.745,9.499-3.25c3.991-0.946,7.404-1.22,9.789-1.29
		c0.071-2.385,0.345-5.799,1.29-9.79c0.505-2.131,0.889-2.905,3.25-9.499c0.21-0.588,0.388-1.027,0.528-1.401
		c2.454-6.564,3.681-9.847,3.722-12.097C91.84,47.341,90.943,45.147,89.539,41.716z"/>
</g>
</svg>
