<?xml version="1.0" encoding="utf-8"?>
<!-- Generator: Adobe Illustrator 22.0.0, SVG Export Plug-In . SVG Version: 6.00 Build 0)  -->
<svg version="1.1" xmlns="http://www.w3.org/2000/svg" xmlns:xlink="http://www.w3.org/1999/xlink" x="0px" y="0px"
	 viewBox="0 0 283.5 283.5" enable-background="new 0 0 283.5 283.5" xml:space="preserve">
<g id="c1">
	<rect fill="#DCD9D5" width="283.465" height="283.465"/>
</g>
<g id="c2">
	<g>
		<path fill="#474341" d="M257.813,207.778l16.617,2.503c0,0-7.715,20.182-14.481,25.155l-9.786-7.669l-0.99-7.22l-2.467-7.937
			l8.216-1.77L257.813,207.778z"/>
		<path fill="#474341" d="M61.508,69.64c-0.052,0.204,1.728,10.088,1.728,10.088l15.136-5.044l-3.876-10.497L61.508,69.64z"/>
		<polygon fill="#474341" points="117.653,101.634 127.159,115.009 135.215,102.242 124.903,94.947 		"/>
		<path fill="#474341" d="M160.286,99.392l7.334,7.704h17.909c0,0,5.714,1.343,12.707-5.584c0,0,8.016-0.99,9.466-2.12
			c0,0-5.97-7.987-4.008-15.196l-4.179-5.796h-19.359l-5.202-3.605l-7.761,4.453l-3.838,0.212L160.286,99.392z"/>
		<path fill="#474341" d="M59.34,233.949l-19.188-4.438c0,0-8.688,14.063-12.125,17l0.438,8.75l8.875,1l3.875,2.75l10.375-5.563
			L59.34,233.949z"/>
		<path fill="#474341" d="M27.248,3.075L8.871,10.156c0,0,0.689,16.515-0.511,20.875l5.267,7.001l7.91-4.147l4.75,0.105
			l5.473-10.422L27.248,3.075z"/>
		<path fill="#474341" d="M117.81,49.488l4.897,15.58c0,0,2.966-2.948,8.414-2.587l-4.69-15.038L117.81,49.488z"/>
		<path fill="#474341" d="M181.161,173.182c0,0,5.322,7.281,4.685,12.474l16.196,6.478c0,0,3.181-8.245,3.297-10.172
			c0,0-4.975-5.675-5.669-9.316c-0.694-3.641-5.727-8.887-5.727-8.887L181.161,173.182z"/>
		<path fill="#474341" d="M206.215,250.31l8.54,7.178l10.833-3.821l5.846-0.463l-2.751-11.057l-0.917-9.349l-7.165-0.434
			l-1.777,5.442c0,0-8.082,6.368-8.139,9.32L206.215,250.31z"/>
		<path fill="#474341" d="M225.291,20.248c0.102-1.177,0.07-2.282,0.315-3.322c0.436-1.85,1.537-2.956,3.613-2.468
			c2.802,0.659,4.848-0.376,6.397-2.698c0.98-1.469,2.293-1.976,4.095-1.525c5.803,1.453,11.784,2.368,17.409,4.32
			c6.297,2.185,9.749,7.418,10.986,13.801c0.48,2.475,0.012,5.246-0.518,7.779c-1.036,4.953-2.423,9.833-3.656,14.746
			c-0.789,3.142-1.847,4.066-5.051,3.885c-4.576-0.258-8.532-2.201-11.918-5.161c-4.753-4.154-9.263-8.587-14.045-12.705
			C227.748,32.448,225.697,26.72,225.291,20.248z"/>
		<path fill="#474341" d="M70.163,142.043c0.839,0.21,2.263,0.406,3.565,0.917c9.522,3.736,19.036,7.495,28.519,11.33
			c5.581,2.257,9.158,6.079,10.643,12.227c1.636,6.777,4.1,13.357,6.263,20.003c0.558,1.713,0.131,3.061-0.552,4.708
			c-2.316,5.591-4.279,11.329-6.372,17.012c-0.459,1.248-0.797,2.552-1.364,3.747c-1.117,2.352-2.275,2.482-3.78,0.406
			c-0.924-1.274-1.742-2.647-2.44-4.059c-2.841-5.743-5.402-11.638-8.489-17.243c-2.351-4.269-5.365-8.171-8.038-12.266
			c-1.499-2.295-2.934-4.633-4.349-6.982c-4.723-7.844-9.428-15.699-14.126-23.558c-0.682-1.141-1.381-2.288-1.911-3.502
			C66.855,142.772,67.441,141.973,70.163,142.043z"/>
		<path fill="#474341" d="M32.833,107.617c-1.175,0.565-1.904,0.956-2.664,1.275c-3.12,1.31-6.217,2.694-9.405,3.812
			c-0.613,0.215-1.743-0.481-2.39-1.04c-1.387-1.198-2.592-2.603-3.915-3.879c-0.653-0.631-1.457-1.108-2.092-1.754
			c-0.978-0.993-1.119-1.882,0.256-2.828c0.916-0.63,1.889-1.536,2.255-2.532c0.701-1.906,2.049-2.131,3.574-1.721
			c1.502,0.404,2.89,1.219,4.354,1.784c1.964,0.758,4.118,1.181,5.879,2.257C30.053,103.827,30.944,105.443,32.833,107.617z"/>
		<path fill="#474341" d="M228.882,153.591c0.978-2.235,1.327-4.548,2.326-5.063c5.001-2.578,10.092-5.041,15.336-6.725
			c1.436-0.461,4.132,1.432,5.062,3.158c0.567,1.053-0.723,4.308-1.884,5.783c-6.479,8.233-11.394,9.992-17.752,6.514
			C230.789,156.612,229.997,154.956,228.882,153.591z"/>
	</g>
</g>
<g id="c3">
	<g>
		<path fill="#655F5C" d="M19.577,185.418l-6.063,12.523v4.341l-2.625,6.178c0,0,5.313,1.419,11.625-1.336l7-0.668l6.188-10.77
			l-3.313-7.43L19.577,185.418z"/>
		<path fill="#655F5C" d="M242.46,248.447l-7.045,14.453v5.01l-3.05,7.13c0,0,6.173,1.638,13.509-1.542l8.134-0.771l7.19-12.429
			l-3.849-8.575L242.46,248.447z"/>
		<path fill="#655F5C" d="M96.958,142.503l8.833-10.655l9.021,7.871c0,0-1.316,3.648-7.142,5.279
			C101.844,146.63,96.958,142.503,96.958,142.503z"/>
		<path fill="#655F5C" d="M96.385,76.51l3.25-11.063c0,0,13,7.125,15.75,12.188l-6.125,5.938h-5l-5.625,0.938l-0.438-5.75
			L96.385,76.51z"/>
		<path fill="#655F5C" d="M232.364,189.807l5.281,7.315l7.438-5.702c0,0,2.896,0.058,3.464-1.152s6.984-14.169,6.984-14.169
			l-9.937-1.152L232.364,189.807z"/>
		<path fill="#655F5C" d="M73.583,218.27c0,0,2.85,9.384,1.5,15.978c0,0,4.276,0.423,4.951-0.507
			c0.675-0.93,6.901-0.169,7.501,1.437h3.225v-18.346L73.583,218.27z"/>
		<path fill="#655F5C" d="M135.198,189.885l15,14.75c0,0,2.813,1.688,4.375,0s12.875-10.625,12.875-10.625v-8.313
			c0,0-3.063-4-11.313-4.75c0,0-4.063-1.938-5.5,0l-2.375,0.5C148.26,181.447,141.448,187.76,135.198,189.885z"/>
		<path fill="#655F5C" d="M132.701,4.617c1.851,0.659,3.709,1.301,5.551,1.984c0.817,0.303,1.604,0.688,2.882,1.243
			c-1.304,1.08-2.169,1.944-3.171,2.6c-4.024,2.632-6.897,6.155-8.788,10.583c-0.906,2.122-2.069,4.164-3.353,6.084
			c-1.118,1.672-2.762,2.144-4.812,1.434c-4.709-1.632-9.474-3.102-14.204-4.673c-3.315-1.101-3.489-1.868-2.253-5.096
			c0.655-1.709,0.971-3.705,0.835-5.526c-0.288-3.859-0.018-4.839,3.845-5.573c3.13-0.595,6.419-0.756,9.603-0.557
			c3.648,0.228,6.936-0.238,9.865-2.503C130.034,4.617,131.368,4.617,132.701,4.617z"/>
		<path fill="#655F5C" d="M50.342,54.546c1.514,6.888-4.318,11.017-7.792,16.007c-3.464,4.975-9.472,5.78-15.08,6.756
			c-1.634,0.284-3.298,0.405-4.952,0.557c-1.524,0.14-2.017-0.78-1.59-2.019c0.395-1.144,1.058-2.234,1.78-3.217
			c0.732-0.998,1.652-1.866,2.542-2.738c1.995-1.953,1.964-4.069,0.607-6.332c-0.983-1.64-2.017-3.255-2.914-4.942
			c-1.2-2.256-0.831-3.44,1.629-3.724c7.544-0.872,14.415-3.866,21.477-6.308c4.226-1.462,4.801-0.921,4.512,3.445
			C50.517,52.694,50.447,53.356,50.342,54.546z"/>
		<path fill="#655F5C" d="M155.642,251.915c0.663-1.13,1.292-1.988,1.699-2.941c0.724-1.693,1.616-3.398,1.889-5.182
			c0.414-2.697,3.32-2.037,4.382-3.713c0.896,0.603,1.861,1.126,2.672,1.827c1.682,1.452,3.657,2.762,4.804,4.577
			c1.01,1.598,2.566,1.698,3.754,2.605c1.471,1.123,2.718,2.602,3.848,4.09c1.042,1.373,0.559,2.71-0.817,3.644
			c-2.264,1.538-4.614,2.954-6.833,4.552c-1.126,0.811-2.111,1.848-3.045,2.887c-3.072,3.42-6.184,3.072-9.71,0.012
			c-3.077-2.67-1.783-5.719-1.941-8.693c-0.019-0.358,0.738-0.755,1.131-1.139c0.411-0.402,0.817-0.809,1.225-1.213
			c-0.545-0.258-1.088-0.521-1.636-0.772C156.847,252.358,156.615,252.284,155.642,251.915z"/>
		<path fill="#655F5C" d="M212.57,141.732c-1.096-0.727-4.378,0.696-3.15-3.024c0.044-0.134-0.012-0.362-0.107-0.471
			c-2.731-3.108-0.546-6.322-0.131-9.465c0.101-0.764,0.809-1.81,1.491-2.072c3.191-1.231,6.481-2.196,9.956-1.198
			c1.597,0.459,2.749,1.134,1.787,3.183c-1.571,3.346-2.974,6.771-4.479,10.149C216.963,141.021,215.102,141.726,212.57,141.732z"/>
		<path fill="#655F5C" d="M203.843,23.134c-1.676,0.835-2.717,1.412-3.801,1.883c-4.452,1.935-8.87,3.979-13.42,5.631
			c-0.875,0.318-2.487-0.711-3.409-1.537c-1.978-1.77-3.699-3.845-5.586-5.73c-0.932-0.931-2.079-1.637-2.985-2.591
			c-1.396-1.468-1.596-2.781,0.365-4.177c1.307-0.931,2.695-2.269,3.218-3.74c1.001-2.816,2.923-3.148,5.099-2.542
			c2.144,0.597,4.123,1.8,6.213,2.635c2.802,1.12,5.876,1.744,8.388,3.334C199.877,17.536,201.149,19.923,203.843,23.134z"/>
		<path fill="#655F5C" d="M24.636,124.241l-1.333,19.5c0,0-0.333,3,3.833,3.333c4.167,0.333,14.5,6.5,14.5,6.5
			s9.333,2.833,8.333-7.167c0,0-5.333-2.833-6.667-14.167c-1.333-11.333-8.5-8.667-8.5-8.667s-3.583,1.996-8.25-0.273
			C26.552,123.301,24.927,123.074,24.636,124.241z"/>
	</g>
</g>
<g id="c4">
	<g>
		<path fill="#BCB8B4" d="M74.653,105.76l-6.063,9.375v3.25l-2.625,4.625c0,0,5.313,1.063,11.625-1l7-0.5l6.188-8.063l-3.313-5.563
			L74.653,105.76z"/>
		<path fill="#BCB8B4" d="M143.799,136.781c0,0-1.667-16.833,5.25-28.667c0,0,8.333,5.917,16.833,20.417l-5.833,7.25l-0.833,6.25
			c0,0-2.25,3.333-2.083,4.583c0.167,1.25-5.5-3.083-5.583-3.917C151.465,141.864,143.799,136.781,143.799,136.781z"/>
		<path fill="#BCB8B4" d="M251.744,69.416l-19.188-4.438c0,0-8.688,14.063-12.125,17l0.438,8.75l8.875,1l3.875,2.75l10.375-5.563
			L251.744,69.416z"/>
		<path fill="#BCB8B4" d="M163.171,59.106c0.129-0.283,12.337-11.555,12.337-11.555l5.205-0.109l3.282,4.984l-9.859,10.381
			c0,0-4.997,0.315-6.57-0.495C165.994,61.503,163.171,59.106,163.171,59.106z"/>
		<path fill="#BCB8B4" d="M205.69,211.153l-7.735-9.606l-10.896,7.488c0,0-4.242-0.076-5.074,1.513
			c-0.832,1.588-10.231,18.606-10.231,18.606l14.556,1.513L205.69,211.153z"/>
		<path fill="#BCB8B4" d="M94.112,263.102c0,0-0.696,0.577,0,2.82c0,0,5.726,4.742,6.421,4.55c0.696-0.192,2.244-1.123,5.672-2.243
			c0.589-0.192,14.288-1.282,18.676-4.294l-19.104-19.673c0,0-6.85,1.089-9.846,15.893L94.112,263.102z"/>
		<polygon fill="#BCB8B4" points="160.752,153.272 165.956,166.86 183.215,152.592 179.463,147.751 174.627,150.044 
			170.041,149.535 166.123,151.403 		"/>
		<path fill="#BCB8B4" d="M52.067,196.905l13.647,0.217c0,0,1.82-4.131,2.502-4.566l-2.729-22.775l-11.069,12.067L52.067,196.905z"
			/>
		<path fill="#BCB8B4" d="M81.666,27.975c-1.174,1.144-1.904,1.935-2.664,2.581c-3.12,2.653-6.217,5.454-9.405,7.718
			c-0.613,0.435-1.743-0.975-2.39-2.106c-1.387-2.426-2.592-5.27-3.915-7.854c-0.653-1.277-1.457-2.244-2.092-3.551
			c-0.978-2.012-1.119-3.811,0.256-5.726c0.916-1.276,1.889-3.11,2.255-5.127c0.701-3.86,2.049-4.315,3.574-3.484
			c1.502,0.819,2.89,2.467,4.354,3.612c1.964,1.535,4.118,2.391,5.879,4.57C78.887,20.301,79.778,23.573,81.666,27.975z"/>
	</g>
</g>
</svg>
